<svg xmlns="http://www.w3.org/2000/svg" width="1024" height="1024" viewBox="0 0 1024 1024" version="1.1"><path d="M 581.310 244.500 C 581.315 247.800, 581.502 249.029, 581.725 247.232 C 581.947 245.435, 581.943 242.735, 581.715 241.232 C 581.486 239.729, 581.304 241.200, 581.310 244.500 M 928.316 365.449 C 930.415 366.197, 933.107 367.640, 934.299 368.655 C 936.336 370.390, 936.381 370.392, 935.056 368.684 C 933.304 366.428, 928.695 363.985, 926.300 364.044 C 925.310 364.068, 926.217 364.700, 928.316 365.449 M 435.320 539 C 435.320 542.575, 435.502 544.038, 435.723 542.250 C 435.945 540.462, 435.945 537.538, 435.723 535.750 C 435.502 533.962, 435.320 535.425, 435.320 539 M 168.310 734.500 C 168.315 737.800, 168.502 739.029, 168.725 737.232 C 168.947 735.435, 168.943 732.735, 168.715 731.232 C 168.486 729.729, 168.304 731.200, 168.310 734.500 M 168.336 753 C 168.336 757.125, 168.513 758.813, 168.728 756.750 C 168.944 754.688, 168.944 751.313, 168.728 749.250 C 168.513 747.188, 168.336 748.875, 168.336 753 M 358.966 782.750 L 353.500 788.500 359.250 783.034 C 364.592 777.956, 365.458 777, 364.716 777 C 364.560 777, 361.972 779.587, 358.966 782.750 M 238.750 838.723 C 240.537 838.945, 243.463 838.945, 245.250 838.723 C 247.037 838.502, 245.575 838.320, 242 838.320 C 238.425 838.320, 236.963 838.502, 238.750 838.723" stroke="none" fill="#3b3c3c" fill-rule="evenodd"/><path d="M 557 84.053 C 542.865 86.434, 535.449 102.402, 542.320 115.660 C 546.024 122.806, 555.954 127.782, 563.820 126.434 C 569.433 125.472, 576.716 120.168, 579.072 115.327 C 581.805 109.714, 581.853 100.586, 579.178 95.368 C 574.726 86.685, 566.447 82.461, 557 84.053 M 629 83.969 C 624.049 84.903, 621.678 86.390, 617.667 91.076 C 604.451 106.516, 617.986 130.561, 637.286 125.931 C 643.783 124.373, 650.358 118.096, 652.041 111.846 C 656.258 96.186, 643.846 81.169, 629 83.969 M 701.037 84.174 C 691.582 86.887, 685.044 95.605, 685.044 105.500 C 685.044 115.103, 691.342 123.436, 700.548 126.013 C 708.995 128.378, 720.246 123.227, 724.468 115.062 C 730.463 103.469, 724.042 88.169, 711.637 84.485 C 705.998 82.810, 705.809 82.805, 701.037 84.174 M 772.749 84.413 C 765.689 86.313, 761.046 90.729, 758.541 97.928 C 755.569 106.470, 757.286 114.326, 763.480 120.520 C 769.961 127.001, 778.226 128.340, 786.500 124.249 C 803.607 115.791, 801.713 89.853, 783.596 84.473 C 777.871 82.773, 778.827 82.778, 772.749 84.413 M 843.378 84.110 C 831.437 86.882, 824.453 102.594, 829.865 114.509 C 836.758 129.682, 857.236 130.661, 865.723 116.223 C 868.006 112.341, 868.494 110.343, 868.466 105 C 868.430 97.916, 866.971 94.243, 862.364 89.636 C 856.977 84.250, 850.677 82.416, 843.378 84.110 M 915.539 84.468 C 899.928 88.652, 895.752 111.216, 908.621 121.845 C 915.838 127.807, 924.351 128.190, 932.319 122.912 C 945.477 114.196, 944.716 92.920, 931 86.029 C 925.862 83.447, 921.131 82.970, 915.539 84.468 M 551.142 156.159 C 545.631 158.887, 541.408 164.671, 540.071 171.323 C 538.261 180.325, 541.407 188.233, 548.888 193.486 C 552.693 196.158, 553.993 196.500, 560.340 196.500 C 566.022 196.500, 568.245 196.037, 571.111 194.254 C 578.566 189.618, 582.533 180.295, 580.877 171.305 C 578.327 157.466, 563.628 149.978, 551.142 156.159 M 912.204 156.128 C 899.544 162.394, 897.075 181.305, 907.624 191.197 C 917.824 200.762, 933.575 197.553, 939.564 184.690 C 942.690 177.977, 942.683 172.008, 939.541 165.260 C 934.759 154.988, 922.667 150.949, 912.204 156.128 M 552.500 224.816 C 544.226 228.742, 539.855 235.614, 539.663 245 C 539.388 258.420, 550.528 268.498, 563.490 266.554 C 569.595 265.638, 576.433 260.803, 578.936 255.633 C 581.892 249.526, 581.774 239.781, 578.673 233.907 C 573.791 224.660, 561.688 220.456, 552.500 224.816 M 912 225.446 C 895.194 234.234, 898.157 260.864, 916.513 266.004 C 928.619 269.393, 940.511 260.486, 941.723 247.121 C 942.362 240.067, 940.876 235.068, 936.739 230.355 C 930.164 222.867, 920.572 220.964, 912 225.446 M 553.094 295.292 C 551.221 295.890, 548.183 297.884, 546.343 299.724 C 533.261 312.806, 540.617 335.309, 558.460 336.788 C 571.586 337.877, 581 328.837, 581 315.144 C 581 299.680, 568.098 290.502, 553.094 295.292 M 912.500 295.890 C 893.981 304.437, 898.841 334.837, 919.036 336.777 C 938.136 338.613, 949.506 314.681, 936.197 300.658 C 929.984 294.112, 920.491 292.202, 912.500 295.890 M 553.500 365.433 C 547.421 367.651, 541.381 374.847, 539.995 381.524 C 535.779 401.833, 557.681 415.651, 573.871 402.897 C 581.190 397.132, 583.465 384.265, 578.777 375.155 C 574.344 366.542, 562.717 362.070, 553.500 365.433 M 913.500 365.896 C 905.544 369.580, 900.984 377.006, 901.022 386.218 C 901.072 398.281, 910.436 407.969, 922.071 407.994 C 926.189 408.003, 935.262 402.856, 937.751 399.099 C 944.481 388.940, 942.514 374.317, 933.595 368.206 C 927.041 363.715, 919.967 362.902, 913.500 365.896 M 553.637 436.408 C 538.541 442.013, 535.187 463.590, 547.796 473.983 C 554.498 479.508, 566.137 479.620, 572.926 474.224 C 578.759 469.589, 581.188 463.797, 580.779 455.500 C 580.503 449.891, 579.891 447.690, 577.700 444.424 C 572.643 436.888, 561.944 433.324, 553.637 436.408 M 627.037 436.174 C 616.194 439.285, 610.004 451.624, 613.410 463.338 C 618.590 481.156, 642.813 483.339, 650.566 466.686 C 654.772 457.653, 653.297 448.417, 646.527 441.390 C 640.969 435.619, 634.760 433.958, 627.037 436.174 M 700.505 435.679 C 695.870 436.984, 690.130 442.097, 687.600 447.176 C 680.243 461.938, 689.576 478, 705.510 478 C 717.547 478, 726.212 469.266, 726.393 456.949 C 726.562 445.520, 718.602 436.268, 707.945 435.507 C 704.950 435.293, 701.602 435.370, 700.505 435.679 M 772.764 435.996 C 767.596 437.552, 762.978 441.181, 760.241 445.837 C 757.995 449.658, 757.507 451.674, 757.537 457 C 757.585 465.410, 760.251 470.653, 766.630 474.878 C 770.639 477.534, 772.271 478, 777.558 478 C 782.915 478, 784.440 477.551, 788.595 474.750 C 794.785 470.578, 798.286 464.065, 798.286 456.725 C 798.286 442.766, 785.302 432.220, 772.764 435.996 M 841.500 436.433 C 836.628 438.212, 830.395 444.918, 829.022 449.860 C 826.592 458.611, 828.781 467.729, 834.624 473.186 C 838.499 476.805, 842.034 478, 848.869 478 C 856.564 478, 862.485 474.344, 866 467.423 C 874.830 450.036, 859.020 430.039, 841.500 436.433 M 913.395 436.849 C 898.756 443.708, 896.531 464.247, 909.323 474.426 C 912.638 477.064, 914.102 477.513, 920.323 477.804 C 926.750 478.105, 927.930 477.857, 931.614 475.434 C 942.543 468.248, 945.145 453.029, 937.148 443.070 C 931.528 436.073, 920.959 433.304, 913.395 436.849 M 325 461.982 C 289.133 465.552, 246.318 484.653, 211.104 512.795 C 189.364 530.169, 165.264 557.133, 147.510 583.946 C 112.373 637.014, 93.650 690.700, 91.343 745 C 89.968 777.349, 96.084 807.116, 108.818 830.061 C 118.278 847.107, 131.240 860.408, 148.254 870.529 C 179.391 889.050, 223.339 891.881, 265 878.048 C 298.841 866.812, 330.812 846.862, 361.403 817.893 C 372.741 807.155, 396 780.518, 396 778.269 C 396 776.461, 383.963 764.440, 381.310 763.598 C 379.880 763.144, 376.045 766.350, 364.971 777.255 C 333.121 808.617, 299.912 828.041, 264.443 836.053 C 251.004 839.089, 231.942 839.145, 220.856 836.180 C 200.154 830.644, 186.197 817.755, 176.958 795.640 C 170.331 779.780, 168.565 768.933, 168.550 744 C 168.540 727.561, 168.976 719.911, 170.403 711.500 C 171.430 705.450, 172.640 699.777, 173.093 698.894 C 173.715 697.681, 177.295 696.859, 187.708 695.540 C 276.601 684.280, 341.103 660.724, 386.717 622.865 C 409.794 603.710, 425.996 581.435, 432.077 560.500 C 434.915 550.732, 435.685 532.759, 433.670 523.322 C 427.169 492.873, 403.333 471.132, 368.500 463.880 C 357.970 461.688, 337.103 460.777, 325 461.982 M 309.500 496.628 C 297.792 499.552, 283.437 506.035, 272.030 513.550 C 237.447 536.333, 201.203 594.732, 183.416 656.330 C 181.537 662.836, 180 668.389, 180 668.668 C 180 668.947, 181.688 668.924, 183.750 668.616 C 185.813 668.308, 189.300 667.810, 191.500 667.510 C 215.176 664.279, 244.141 657.237, 265.692 649.472 C 277.308 645.287, 299.827 634.536, 308.991 628.802 C 331.746 614.561, 349.195 595.003, 356.529 575.519 C 369.093 542.141, 361.550 509.807, 338.782 499.442 C 333.315 496.953, 331.137 496.553, 322 496.355 C 316.225 496.230, 310.600 496.353, 309.500 496.628" stroke="none" fill="#040404" fill-rule="evenodd"/></svg>