<svg xmlns="http://www.w3.org/2000/svg" width="1024" height="1024" viewBox="0 0 1024 1024" version="1.1"><path d="M 671.343 112.500 C 671.346 116.900, 671.522 118.576, 671.733 116.224 C 671.945 113.872, 671.942 110.272, 671.727 108.224 C 671.512 106.176, 671.339 108.100, 671.343 112.500 M 758.160 113.691 C 758.072 118.746, 758.337 123.092, 758.750 123.349 C 759.163 123.605, 759.376 120.819, 759.224 117.158 C 758.743 105.558, 758.325 104.197, 758.160 113.691 M 822.349 113 C 822.349 117.675, 822.522 119.587, 822.732 117.250 C 822.943 114.912, 822.943 111.087, 822.732 108.750 C 822.522 106.412, 822.349 108.325, 822.349 113 M 870.343 112.500 C 870.346 116.900, 870.522 118.576, 870.733 116.224 C 870.945 113.872, 870.942 110.272, 870.727 108.224 C 870.512 106.176, 870.339 108.100, 870.343 112.500 M 887.336 113 C 887.336 117.125, 887.513 118.813, 887.728 116.750 C 887.944 114.688, 887.944 111.313, 887.728 109.250 C 887.513 107.188, 887.336 108.875, 887.336 113 M 899.310 128.500 C 899.315 131.800, 899.502 133.029, 899.725 131.232 C 899.947 129.435, 899.943 126.735, 899.715 125.232 C 899.486 123.729, 899.304 125.200, 899.310 128.500 M 899.206 178.191 C 899.093 191.771, 899.337 203.091, 899.750 203.347 C 900.163 203.603, 900.384 196.317, 900.243 187.156 C 899.769 156.403, 899.413 153.324, 899.206 178.191 M 657.400 169.500 C 657.401 177.750, 657.556 180.992, 657.744 176.704 C 657.932 172.417, 657.931 165.667, 657.742 161.704 C 657.552 157.742, 657.399 161.250, 657.400 169.500 M 899.434 245.500 C 899.433 259.250, 899.574 265.014, 899.747 258.308 C 899.919 251.603, 899.920 240.353, 899.748 233.308 C 899.576 226.264, 899.434 231.750, 899.434 245.500 M 906.750 221.723 C 908.538 221.945, 911.462 221.945, 913.250 221.723 C 915.038 221.502, 913.575 221.320, 910 221.320 C 906.425 221.320, 904.962 221.502, 906.750 221.723 M 899.450 287.270 C 899.182 287.968, 899.084 299.331, 899.231 312.520 L 899.500 336.500 908.500 336.556 L 917.500 336.612 908.750 336.269 L 900 335.925 900 311.546 C 900 292.978, 900.298 287.046, 901.250 286.662 C 902.229 286.267, 902.222 286.141, 901.219 286.079 C 900.514 286.036, 899.718 286.571, 899.450 287.270 M 644.250 336.735 C 646.862 336.941, 651.138 336.941, 653.750 336.735 C 656.362 336.529, 654.225 336.360, 649 336.360 C 643.775 336.360, 641.638 336.529, 644.250 336.735 M 899.310 359.500 C 899.315 362.800, 899.502 364.029, 899.725 362.232 C 899.947 360.435, 899.943 357.735, 899.715 356.232 C 899.486 354.729, 899.304 356.200, 899.310 359.500 M 671.355 373.500 C 671.352 378.450, 671.521 380.601, 671.731 378.280 C 671.940 375.959, 671.943 371.909, 671.736 369.280 C 671.530 366.651, 671.358 368.550, 671.355 373.500 M 758.355 373.500 C 758.352 378.450, 758.521 380.601, 758.731 378.280 C 758.940 375.959, 758.943 371.909, 758.736 369.280 C 758.530 366.651, 758.358 368.550, 758.355 373.500 M 822.355 373.500 C 822.352 378.450, 822.521 380.601, 822.731 378.280 C 822.940 375.959, 822.943 371.909, 822.736 369.280 C 822.530 366.651, 822.358 368.550, 822.355 373.500 M 887.355 373.500 C 887.352 378.450, 887.521 380.601, 887.731 378.280 C 887.940 375.959, 887.943 371.909, 887.736 369.280 C 887.530 366.651, 887.358 368.550, 887.355 373.500 M 870.193 374.667 C 870.068 379.308, 869.560 382.011, 868.750 382.338 C 867.771 382.733, 867.778 382.859, 868.781 382.921 C 870.693 383.039, 871.142 380.977, 870.744 373.895 L 870.385 367.500 870.193 374.667 M 647.439 462 C 647.439 477.125, 647.578 483.313, 647.748 475.750 C 647.917 468.188, 647.917 455.813, 647.748 448.250 C 647.578 440.688, 647.439 446.875, 647.439 462 M 593.343 443.500 C 593.346 447.900, 593.522 449.576, 593.733 447.224 C 593.945 444.872, 593.942 441.272, 593.727 439.224 C 593.512 437.176, 593.339 439.100, 593.343 443.500 M 444.349 448 C 444.349 452.675, 444.522 454.587, 444.732 452.250 C 444.943 449.913, 444.943 446.087, 444.732 443.750 C 444.522 441.413, 444.349 443.325, 444.349 448 M 272.409 472.500 C 272.408 481.850, 272.558 485.810, 272.743 481.299 C 272.928 476.789, 272.929 469.139, 272.745 464.299 C 272.562 459.460, 272.410 463.150, 272.409 472.500 M 625.343 472.500 C 625.346 476.900, 625.522 478.576, 625.733 476.224 C 625.945 473.872, 625.942 470.272, 625.727 468.224 C 625.512 466.176, 625.339 468.100, 625.343 472.500 M 259.250 517.728 C 261.313 517.944, 264.688 517.944, 266.750 517.728 C 268.813 517.513, 267.125 517.336, 263 517.336 C 258.875 517.336, 257.188 517.513, 259.250 517.728 M 272.446 548.500 C 272.447 566.100, 272.583 573.159, 272.749 564.187 C 272.914 555.215, 272.914 540.815, 272.748 532.187 C 272.581 523.559, 272.446 530.900, 272.446 548.500 M 647.448 549.500 C 647.447 567.650, 647.582 575.216, 647.748 566.314 C 647.913 557.411, 647.914 542.561, 647.749 533.314 C 647.583 524.066, 647.448 531.350, 647.448 549.500 M 625.445 551 C 625.445 568.325, 625.582 575.413, 625.748 566.750 C 625.915 558.087, 625.915 543.913, 625.748 535.250 C 625.582 526.587, 625.445 533.675, 625.445 551 M 646.999 641.299 L 647.498 674.500 647.763 642.064 C 647.909 624.224, 647.684 609.284, 647.264 608.863 C 646.844 608.442, 646.725 623.039, 646.999 641.299 M 272.446 640.500 C 272.447 658.100, 272.583 665.159, 272.749 656.187 C 272.914 647.215, 272.914 632.815, 272.748 624.187 C 272.581 615.559, 272.446 622.900, 272.446 640.500 M 625.445 641.500 C 625.444 658.550, 625.581 665.666, 625.748 657.312 C 625.915 648.959, 625.915 635.009, 625.748 626.312 C 625.582 617.616, 625.445 624.450, 625.445 641.500 M 272.445 730.500 C 272.444 747.550, 272.581 754.666, 272.748 746.312 C 272.915 737.959, 272.915 724.009, 272.748 715.312 C 272.582 706.616, 272.445 713.450, 272.445 730.500 M 647.447 732 C 647.447 749.875, 647.582 757.188, 647.748 748.250 C 647.914 739.313, 647.914 724.688, 647.748 715.750 C 647.582 706.813, 647.447 714.125, 647.447 732 M 625.442 733 C 625.442 749.225, 625.580 755.862, 625.748 747.750 C 625.916 739.638, 625.916 726.362, 625.748 718.250 C 625.580 710.138, 625.442 716.775, 625.442 733 M 272.175 802.691 C 272.079 809.396, 272.337 815.092, 272.750 815.349 C 273.163 815.606, 273.380 811.920, 273.232 807.158 C 272.760 791.885, 272.354 790.170, 272.175 802.691 M 646.786 813.474 L 647.073 835.949 631.286 836.265 L 615.500 836.581 631.500 836.541 L 647.500 836.500 647.769 813.750 C 647.917 801.237, 647.692 791, 647.269 790.999 C 646.846 790.999, 646.629 801.112, 646.786 813.474 M 625.378 804 C 625.378 810.325, 625.541 812.913, 625.739 809.750 C 625.937 806.587, 625.937 801.413, 625.739 798.250 C 625.541 795.087, 625.378 797.675, 625.378 804 M 290.803 815.746 C 296.470 815.925, 305.470 815.924, 310.803 815.745 C 316.136 815.565, 311.500 815.419, 300.500 815.420 C 289.500 815.421, 285.136 815.568, 290.803 815.746 M 372.250 815.748 C 380.362 815.916, 393.637 815.916, 401.750 815.748 C 409.863 815.580, 403.225 815.442, 387 815.442 C 370.775 815.442, 364.137 815.580, 372.250 815.748 M 444.216 825.750 L 444.500 836.500 474.500 836.522 L 504.500 836.544 474.686 836.257 L 444.872 835.970 445.186 825.483 C 445.359 819.715, 445.147 814.997, 444.716 814.998 C 444.285 814.999, 444.060 819.837, 444.216 825.750 M 462.250 815.748 C 470.362 815.916, 483.637 815.916, 491.750 815.748 C 499.863 815.580, 493.225 815.442, 477 815.442 C 460.775 815.442, 454.137 815.580, 462.250 815.748 M 563.250 815.749 L 592 816.031 592 826 L 592 835.969 563.250 836.251 L 534.500 836.532 563.750 836.766 L 593 837 593 826 L 593 815 563.750 815.234 L 534.500 815.468 563.250 815.749 M 354.257 835 C 354.609 836.292, 358.963 836.503, 385.583 836.523 L 416.500 836.545 386.050 836.258 C 363.301 836.043, 355.378 835.658, 354.724 834.735 C 354.084 833.833, 353.958 833.905, 354.257 835 M 250.862 836.263 C 251.282 836.682, 268.247 836.907, 288.563 836.762 L 325.500 836.499 287.799 835.999 C 267.064 835.725, 250.442 835.843, 250.862 836.263" stroke="none" fill="#302f30" fill-rule="evenodd"/><path d="M 640 119.477 L 640 134 649 134 L 658 134 658 128.500 L 658 123 664.500 123 L 671 123 671 114.078 L 671 105.155 655.500 105.055 L 640 104.955 640 119.477 M 690 114 L 690 123 714.500 123 L 739 123 739 114 L 739 105 714.500 105 L 690 105 690 114 M 759 114.068 L 759 123 781.500 123 L 804 123 804 113.970 L 804 104.941 781.500 105.038 L 759 105.135 759 114.068 M 823 112.418 C 823 116.498, 822.727 120.548, 822.393 121.418 C 821.850 122.834, 824.321 123, 845.893 123 L 870 123 870 114 L 870 105 846.500 105 L 823 105 823 112.418 M 888 114.016 L 888 123 894 123 L 900 123 900 128.500 L 900 134 909 134 L 918 134 918 119.544 L 918 105.089 903 105.060 L 888 105.032 888 114.016 M 640 177.961 L 640 203 648.769 203 L 657.538 203 657.274 178.250 L 657.010 153.500 648.505 153.211 L 640 152.922 640 177.961 M 900 178 L 900 203 909 203 L 918 203 918 178 L 918 153 909 153 L 900 153 900 178 M 640 245.524 L 640 270 649.078 270 L 658.156 270 657.828 245.842 L 657.500 221.683 648.750 221.366 L 640 221.049 640 245.524 M 900 245.686 L 900 270 909.018 270 L 918.036 270 917.768 245.971 L 917.500 221.942 908.750 221.656 L 900 221.371 900 245.686 M 640 311.461 L 640 336 649.039 336 L 658.078 336 657.789 311.750 L 657.500 287.500 648.750 287.211 L 640 286.922 640 311.461 M 900 311.500 L 900 336 909 336 L 918 336 918 311.500 L 918 287 909 287 L 900 287 900 311.500 M 640 368 L 640 382 655.500 382 L 671 382 671 373.500 L 671 365 664.500 365 L 658 365 658 359.500 L 658 354 649 354 L 640 354 640 368 M 900 359.500 L 900 365 894 365 L 888 365 888 373.500 L 888 382 903 382 L 918 382 918 368 L 918 354 909 354 L 900 354 900 359.500 M 690 373.500 L 690 382 714.500 382 L 739 382 739 373.500 L 739 365 714.500 365 L 690 365 690 373.500 M 759 373.500 L 759 382 781.500 382 L 804 382 804 373.500 L 804 365 781.500 365 L 759 365 759 373.500 M 823 373.500 L 823 382 846.500 382 L 870 382 870 373.500 L 870 365 846.500 365 L 823 365 823 373.500 M 251 462 L 251 489 261.500 489 L 272 489 272 472.500 L 272 456 298.500 456 L 325 456 325 445.500 L 325 435 288 435 L 251 435 251 462 M 355 445.500 L 355 456 385.500 456 L 416 456 416 445.500 L 416 435 385.500 435 L 355 435 355 445.500 M 445 445.515 L 445 456.029 475.250 455.765 L 505.500 455.500 505.785 445.250 L 506.070 435 475.535 435 L 445 435 445 445.515 M 535 445.500 L 535 456 564 456 L 593 456 593 445.500 L 593 435 564 435 L 535 435 535 445.500 M 616 445.500 L 616 456 620.856 456 L 625.713 456 625.730 472.250 L 625.747 488.500 636.374 488.784 L 647 489.068 647 462.034 L 647 435 631.500 435 L 616 435 616 445.500 M 251 549.735 L 251 582.068 261.750 581.784 C 267.663 581.628, 272.387 581.163, 272.250 580.750 C 272.113 580.337, 271.998 565.938, 271.996 548.750 L 271.993 517.500 261.496 517.451 L 251 517.402 251 549.735 M 625.678 517.961 C 625.580 518.258, 625.625 532.788, 625.778 550.250 L 626.055 582 636.528 582 L 647 582 647 549.664 L 647 517.327 636.428 517.375 C 630.614 517.401, 625.776 517.665, 625.678 517.961 M 251 641.534 L 251 674.068 261.750 673.784 C 267.663 673.628, 272.387 673.163, 272.250 672.750 C 272.113 672.337, 272 657.825, 272 640.500 L 272 609 261.500 609 L 251 609 251 641.534 M 625.500 641.500 L 625.500 674 636.250 674 L 647 674 647 641.500 L 647 609 636.250 609 L 625.500 609 625.500 641.500 M 251 732.034 L 251 764.068 261.750 763.784 C 269.599 763.577, 272.473 763.163, 272.400 762.250 C 272.345 761.563, 272.233 747.275, 272.150 730.500 L 272 700 261.500 700 L 251 700 251 732.034 M 625.753 731.749 L 626.006 763.500 636.503 763.784 L 647 764.068 647 732.034 L 647 700 636.250 699.999 L 625.500 699.999 625.753 731.749 M 251 813.500 L 251 836 288.035 836 L 325.070 836 324.785 825.908 L 324.500 815.815 298.500 815.658 L 272.500 815.500 272.219 803.250 L 271.938 791 261.469 791 L 251 791 251 813.500 M 625.943 791.715 C 625.912 792.147, 625.935 797.537, 625.995 803.693 L 626.104 814.886 621.302 815.193 L 616.500 815.500 616.215 825.750 L 615.930 836 631.484 836 L 647.038 836 646.769 813.750 L 646.500 791.500 636.250 791.215 C 630.612 791.058, 625.974 791.283, 625.943 791.715 M 355.698 815.636 C 355.314 816.019, 355 820.758, 355 826.167 L 355 836 385.500 836 L 416 836 416 826 L 416 816 387.582 816 C 371.952 816, 358.541 815.761, 357.780 815.469 C 357.018 815.177, 356.082 815.252, 355.698 815.636 M 445.698 815.636 C 445.314 816.019, 445 820.758, 445 826.167 L 445 836 475.500 836 L 506 836 506 826 L 506 816 477.582 816 C 461.952 816, 448.541 815.761, 447.780 815.469 C 447.018 815.177, 446.082 815.252, 445.698 815.636 M 535 826 L 535 836 563.500 836 L 592 836 592 826 L 592 816 563.500 816 L 535 816 535 826" stroke="none" fill="#040404" fill-rule="evenodd"/></svg>