<svg xmlns="http://www.w3.org/2000/svg" width="1024" height="1024" viewBox="0 0 1024 1024" version="1.1"><path d="M 254.343 414.500 C 254.346 418.900, 254.522 420.576, 254.733 418.224 C 254.945 415.872, 254.942 412.272, 254.727 410.224 C 254.512 408.176, 254.339 410.100, 254.343 414.500 M 608.476 486.500 C 608.476 529.400, 608.599 546.804, 608.750 525.176 C 608.900 503.547, 608.900 468.447, 608.750 447.176 C 608.599 425.904, 608.476 443.600, 608.476 486.500 M 254.382 435.500 C 254.384 442.100, 254.546 444.670, 254.741 441.211 C 254.937 437.752, 254.936 432.352, 254.738 429.211 C 254.540 426.070, 254.380 428.900, 254.382 435.500 M 254.407 464 C 254.407 473.075, 254.559 476.788, 254.744 472.250 C 254.929 467.712, 254.929 460.288, 254.744 455.750 C 254.559 451.212, 254.407 454.925, 254.407 464 M 289.370 486 C 289.370 491.775, 289.535 494.137, 289.737 491.250 C 289.939 488.363, 289.939 483.637, 289.737 480.750 C 289.535 477.863, 289.370 480.225, 289.370 486 M 463.310 482.500 C 463.315 485.800, 463.502 487.029, 463.725 485.232 C 463.947 483.435, 463.943 480.735, 463.715 479.232 C 463.486 477.729, 463.304 479.200, 463.310 482.500 M 254.428 503 C 254.428 515.375, 254.571 520.438, 254.747 514.250 C 254.922 508.063, 254.922 497.938, 254.747 491.750 C 254.571 485.563, 254.428 490.625, 254.428 503 M 254.409 543.500 C 254.408 552.850, 254.558 556.810, 254.743 552.299 C 254.928 547.789, 254.929 540.139, 254.745 535.299 C 254.562 530.460, 254.410 534.150, 254.409 543.500 M 527.250 560.728 C 529.313 560.944, 532.688 560.944, 534.750 560.728 C 536.813 560.513, 535.125 560.336, 531 560.336 C 526.875 560.336, 525.188 560.513, 527.250 560.728 M 689.355 570.500 C 689.352 575.450, 689.521 577.601, 689.731 575.280 C 689.940 572.959, 689.943 568.909, 689.736 566.280 C 689.530 563.651, 689.358 565.550, 689.355 570.500 M 475.776 574.733 C 478.128 574.945, 481.728 574.942, 483.776 574.727 C 485.824 574.512, 483.900 574.339, 479.500 574.343 C 475.100 574.346, 473.424 574.522, 475.776 574.733 M 531.750 597.723 C 533.538 597.945, 536.462 597.945, 538.250 597.723 C 540.038 597.502, 538.575 597.320, 535 597.320 C 531.425 597.320, 529.962 597.502, 531.750 597.723 M 532.776 624.733 C 535.128 624.945, 538.728 624.942, 540.776 624.727 C 542.824 624.512, 540.900 624.339, 536.500 624.343 C 532.100 624.346, 530.424 624.522, 532.776 624.733 M 689.349 703 C 689.349 707.675, 689.522 709.587, 689.732 707.250 C 689.943 704.913, 689.943 701.087, 689.732 698.750 C 689.522 696.413, 689.349 698.325, 689.349 703" stroke="none" fill="#303030" fill-rule="evenodd"/><path d="M 220 452.500 L 220 561 237 561 L 254 561 254 452.500 L 254 344 237 344 L 220 344 220 452.500 M 347 407.427 C 331.477 410.878, 321.881 416.047, 311.332 426.641 C 304.731 433.270, 302.283 436.632, 298.566 444.172 C 291.530 458.443, 289.711 468.356, 290.247 489.500 C 290.650 505.369, 290.890 507.122, 293.854 515.851 C 303.130 543.168, 321.945 559.694, 349.469 564.699 C 359 566.432, 374.481 565.855, 383.500 563.431 C 403.922 557.940, 420.306 544.488, 429.433 525.715 C 440.113 503.749, 440.681 470.889, 430.774 448.153 C 423.644 431.788, 409.197 417.848, 392.647 411.362 C 379.867 406.353, 359.667 404.612, 347 407.427 M 518 407.021 C 493.039 411.378, 474.259 429.644, 466.755 456.864 C 463.793 467.606, 463.576 497.967, 466.385 508.500 C 471.930 529.289, 484.354 545.675, 500.515 553.512 C 510.044 558.133, 518.584 559.968, 530.645 559.985 C 547.580 560.010, 560.662 554.621, 570.923 543.394 L 576 537.839 576 549.259 C 576 574.243, 568.431 588.129, 551.089 594.965 C 540.422 599.169, 525.952 598.552, 516 593.467 C 510.382 590.597, 503.588 583.685, 501.534 578.750 L 499.973 575 484.441 575 L 468.909 575 469.557 578.750 C 470.536 584.421, 477.391 597.906, 481.982 603.192 C 487.908 610.016, 498.188 616.429, 509.075 620.093 C 517.265 622.849, 520.274 623.330, 532.043 623.765 C 542.439 624.149, 547.553 623.868, 554.043 622.558 C 576.372 618.051, 592.062 606.552, 601.228 587.975 C 608.130 573.986, 607.969 576.359, 607.985 488.250 L 608 409 592 409 L 576 409 576 417.093 L 576 425.185 570.895 420.595 C 558.098 409.090, 537.067 403.692, 518 407.021 M 531 433.235 C 510.247 436.252, 498.067 454.848, 498.017 483.590 C 497.978 506.214, 506.694 523.334, 521.780 530.266 C 525.649 532.043, 528.392 532.440, 537 532.467 C 546.295 532.496, 548.145 532.198, 553.120 529.865 C 568.927 522.453, 575.973 508.154, 575.968 483.500 C 575.964 463.982, 572.758 452.932, 564.555 444.162 C 556.719 435.785, 543.368 431.437, 531 433.235 M 350.319 434.856 C 333.615 440.628, 323 460.306, 323 485.500 C 323 509.141, 332.114 527.500, 347.645 535.146 C 353.510 538.033, 355.083 538.359, 363.389 538.408 C 371.822 538.458, 373.182 538.185, 379.164 535.240 C 396.358 526.775, 404.780 508.487, 403.682 482 C 402.918 463.558, 398.402 452.291, 387.864 442.535 C 378.146 433.538, 363.062 430.452, 350.319 434.856 M 657 578.500 L 657 595 665 595 L 673 595 673 587 L 673 579 681 579 L 689 579 689 570.500 L 689 562 673 562 L 657 562 657 578.500 M 710 570.500 L 710 579.039 731.750 578.770 L 753.500 578.500 753.500 570.500 L 753.500 562.500 731.750 562.230 L 710 561.961 710 570.500 M 774 570.500 L 774 579 781.500 579 L 789 579 789 587 L 789 595 797 595 L 805 595 805 578.500 L 805 562 789.500 562 L 774 562 774 570.500 M 657 636 L 657 658 665 658 L 673 658 673 636 L 673 614 665 614 L 657 614 657 636 M 789 636 L 789 658 797 658 L 805 658 805 636 L 805 614 797 614 L 789 614 789 636 M 657 693.613 L 657 711 673 711 L 689 711 689 703 L 689 695 681.038 695 L 673.075 695 672.788 685.862 L 672.500 676.725 664.750 676.475 L 657 676.225 657 693.613 M 789 685.588 L 789 695 781.500 695 L 774 695 774 703 L 774 711 789.500 711 L 805 711 805 693.623 L 805 676.245 797 676.210 L 789 676.175 789 685.588 M 710 703.020 L 710 711.039 731.726 710.770 L 753.452 710.500 753.756 702.750 L 754.059 695 732.030 695 L 710 695 710 703.020" stroke="none" fill="#121212" fill-rule="evenodd"/></svg>