<svg xmlns="http://www.w3.org/2000/svg" width="1024" height="1536" viewBox="0 0 1024 1536" version="1.1"><path d="M 398.385 196 C 398.385 202.875, 398.545 205.688, 398.740 202.250 C 398.936 198.813, 398.936 193.188, 398.740 189.750 C 398.545 186.313, 398.385 189.125, 398.385 196 M 292.776 197.733 C 295.128 197.945, 298.728 197.942, 300.776 197.727 C 302.824 197.512, 300.900 197.339, 296.500 197.343 C 292.100 197.346, 290.424 197.522, 292.776 197.733 M 688.292 201.742 C 692.027 201.935, 697.877 201.934, 701.292 201.739 C 704.706 201.545, 701.650 201.387, 694.500 201.389 C 687.350 201.390, 684.556 201.550, 688.292 201.742 M 293 293.664 C 303.818 294.393, 315.778 294.439, 315.349 293.750 C 315.092 293.337, 308.946 293.081, 301.691 293.180 C 294.436 293.279, 290.525 293.497, 293 293.664 M 291.768 347.725 C 293.565 347.947, 296.265 347.943, 297.768 347.715 C 299.271 347.486, 297.800 347.304, 294.500 347.310 C 291.200 347.315, 289.971 347.502, 291.768 347.725 M 687.750 353.740 C 691.188 353.936, 696.813 353.936, 700.250 353.740 C 703.688 353.545, 700.875 353.385, 694 353.385 C 687.125 353.385, 684.313 353.545, 687.750 353.740 M 315.349 400 C 315.349 404.675, 315.522 406.587, 315.732 404.250 C 315.943 401.913, 315.943 398.087, 315.732 395.750 C 315.522 393.413, 315.349 395.325, 315.349 400 M 295.250 581.739 C 298.413 581.937, 303.587 581.937, 306.750 581.739 C 309.913 581.541, 307.325 581.378, 301 581.378 C 294.675 581.378, 292.087 581.541, 295.250 581.739 M 687.292 589.742 C 691.027 589.935, 696.877 589.934, 700.292 589.739 C 703.706 589.545, 700.650 589.387, 693.500 589.389 C 686.350 589.390, 683.556 589.550, 687.292 589.742 M 838.774 758.248 C 839.244 770.703, 839.673 771.913, 839.840 761.250 C 839.928 755.612, 839.663 750.999, 839.250 750.998 C 838.837 750.997, 838.623 754.259, 838.774 758.248 M 814.789 769.741 C 818.248 769.937, 823.648 769.936, 826.789 769.738 C 829.930 769.540, 827.100 769.380, 820.500 769.382 C 813.900 769.384, 811.330 769.546, 814.789 769.741 M 317.310 836.748 C 324.905 836.918, 337.055 836.918, 344.310 836.747 C 351.564 836.576, 345.350 836.437, 330.500 836.438 C 315.650 836.438, 309.714 836.578, 317.310 836.748 M 437.471 836.742 L 464.942 837.032 465.265 849.766 L 465.587 862.500 465.544 849.500 L 465.500 836.500 437.750 836.476 L 409.999 836.452 437.471 836.742 M 513.653 836.750 C 513.397 837.163, 521.358 837.385, 531.344 837.244 C 565.240 836.766, 568.577 836.419, 541.309 836.209 C 526.354 836.094, 513.909 836.337, 513.653 836.750 M 632.250 836.748 C 639.813 836.917, 652.188 836.917, 659.750 836.748 C 667.313 836.578, 661.125 836.439, 646 836.439 C 630.875 836.439, 624.688 836.578, 632.250 836.748 M 690.768 912.725 C 692.565 912.947, 695.265 912.943, 696.768 912.715 C 698.271 912.486, 696.800 912.304, 693.500 912.310 C 690.200 912.315, 688.971 912.502, 690.768 912.725 M 689.287 954.740 C 692.469 954.939, 697.419 954.937, 700.287 954.736 C 703.154 954.535, 700.550 954.372, 694.500 954.374 C 688.450 954.376, 686.104 954.541, 689.287 954.740 M 294.750 1000.740 C 298.188 1000.936, 303.813 1000.936, 307.250 1000.740 C 310.688 1000.545, 307.875 1000.385, 301 1000.385 C 294.125 1000.385, 291.313 1000.545, 294.750 1000.740 M 684.750 1008.732 C 687.087 1008.943, 690.913 1008.943, 693.250 1008.732 C 695.587 1008.522, 693.675 1008.349, 689 1008.349 C 684.325 1008.349, 682.413 1008.522, 684.750 1008.732 M 315.349 1064 C 315.349 1068.675, 315.522 1070.588, 315.732 1068.250 C 315.943 1065.912, 315.943 1062.088, 315.732 1059.750 C 315.522 1057.412, 315.349 1059.325, 315.349 1064 M 315.336 1153 C 315.336 1157.125, 315.513 1158.813, 315.728 1156.750 C 315.944 1154.688, 315.944 1151.313, 315.728 1149.250 C 315.513 1147.188, 315.336 1148.875, 315.336 1153 M 315.343 1183.500 C 315.346 1187.900, 315.522 1189.576, 315.733 1187.224 C 315.945 1184.872, 315.942 1181.272, 315.727 1179.224 C 315.512 1177.176, 315.339 1179.100, 315.343 1183.500 M 689.789 1245.741 C 693.248 1245.937, 698.648 1245.936, 701.789 1245.738 C 704.930 1245.540, 702.100 1245.380, 695.500 1245.382 C 688.900 1245.384, 686.330 1245.546, 689.789 1245.741 M 425.180 1310.691 C 425.081 1317.946, 425.337 1324.092, 425.750 1324.349 C 426.163 1324.605, 426.380 1320.695, 426.234 1315.658 C 425.752 1299.117, 425.363 1297.283, 425.180 1310.691 M 326.453 1311.748 L 326.500 1324.500 351 1324.526 L 375.500 1324.552 351.280 1324.259 L 327.059 1323.965 326.733 1311.481 L 326.407 1298.997 326.453 1311.748 M 432.750 1324.737 C 435.637 1324.939, 440.363 1324.939, 443.250 1324.737 C 446.137 1324.535, 443.775 1324.370, 438 1324.370 C 432.225 1324.370, 429.863 1324.535, 432.750 1324.737 M 455.292 1324.742 C 459.027 1324.935, 464.877 1324.934, 468.292 1324.739 C 471.706 1324.545, 468.650 1324.387, 461.500 1324.389 C 454.350 1324.390, 451.556 1324.550, 455.292 1324.742 M 537.191 1324.747 C 544.171 1324.918, 555.871 1324.919, 563.191 1324.748 C 570.511 1324.577, 564.800 1324.436, 550.500 1324.436 C 536.200 1324.435, 530.211 1324.575, 537.191 1324.747 M 630.250 1324.747 C 636.712 1324.921, 647.288 1324.921, 653.750 1324.747 C 660.212 1324.573, 654.925 1324.430, 642 1324.430 C 629.075 1324.430, 623.788 1324.573, 630.250 1324.747" stroke="none" fill="#currentColor" fill-rule="evenodd"/><path d="M 304 190.500 L 304 198 296.500 198 L 289 198 289 224.529 L 289 251.058 302.250 250.779 L 315.500 250.500 315.438 229.771 L 315.375 209.043 333.938 208.771 L 352.500 208.500 352.559 201 C 352.592 196.875, 352.416 191.137, 352.169 188.250 L 351.720 183 327.860 183 L 304 183 304 190.500 M 399 196 L 399 209 424 209 L 449 209 449 196 L 449 183 424 183 L 399 183 399 196 M 496 196.017 L 496 209.035 520.750 208.767 L 545.500 208.500 545.780 195.750 L 546.060 183 521.030 183 L 496 183 496 196.017 M 591 196 L 591 209 616 209 L 641 209 641 196 L 641 183 616 183 L 591 183 591 196 M 681 230.500 L 681 259 694 259 L 707 259 707 230.500 L 707 202 694 202 L 681 202 681 230.500 M 289 320.471 L 289 347 294.250 347.108 C 297.137 347.167, 303.100 347.280, 307.500 347.358 L 315.500 347.500 315.500 321 L 315.499 294.500 302.250 294.221 L 289 293.942 289 320.471 M 681 326 L 681 353 694 353 L 707 353 707 326 L 707 299 694 299 L 681 299 681 326 M 289.695 390.638 C 289.313 391.021, 289 403.196, 289 417.696 L 289 444.058 302.250 443.779 L 315.500 443.500 315.305 417 L 315.109 390.500 302.750 390.222 C 295.952 390.068, 290.077 390.256, 289.695 390.638 M 681 423 L 681 450 694 450 L 707 450 707 423 L 707 396 694 396 L 681 396 681 423 M 289.234 513.221 L 289.500 540.500 302.500 540.500 L 315.500 540.500 315.500 513.500 L 315.500 486.500 302.234 486.221 L 288.968 485.942 289.234 513.221 M 681 519.530 L 681 547.060 693.750 546.780 L 706.500 546.500 706.766 519.250 L 707.032 492 694.016 492 L 681 492 681 519.530 M 289.234 609.721 L 289.500 637.500 302.500 637.500 L 315.500 637.500 315.500 610 L 315.500 582.500 302.234 582.221 L 288.968 581.942 289.234 609.721 M 681 616.530 L 681 643.060 693.750 642.780 L 706.500 642.500 706.767 616.250 L 707.033 590 694.017 590 L 681 590 681 616.530 M 325 668.017 L 325 681.034 350.750 680.767 L 376.500 680.500 376.390 672 C 376.330 667.325, 376.218 661.587, 376.140 659.250 L 376 655 350.500 655 L 325 655 325 668.017 M 422 668.017 L 422 681.034 447.250 680.767 L 472.500 680.500 472.645 667.750 L 472.790 655 447.395 655 L 422 655 422 668.017 M 521.434 656.311 C 521.157 657.032, 521.059 662.770, 521.215 669.061 L 521.500 680.500 547.250 680.767 L 573 681.034 573.084 676.767 C 573.130 674.420, 573.210 670.700, 573.263 668.500 C 573.315 666.300, 573.277 662.362, 573.179 659.750 L 573 655 547.469 655 C 527.331 655, 521.831 655.277, 521.434 656.311 M 619 668 L 619 681 646 681 L 673 681 673 668 L 673 655 646 655 L 619 655 619 668 M 180 761.498 L 180 772 509.535 772 L 839.070 772 838.785 761.750 L 838.500 751.500 509.250 751.248 L 180 750.997 180 761.498 M 814.789 769.741 C 818.248 769.937, 823.648 769.936, 826.789 769.738 C 829.930 769.540, 827.100 769.380, 820.500 769.382 C 813.900 769.384, 811.330 769.546, 814.789 769.741 M 304 843.956 L 304 850.912 296.750 851.206 L 289.500 851.500 289.500 878 L 289.500 904.500 302.500 904.500 L 315.500 904.500 315.770 883.750 L 316.041 863 336.520 863 L 357 863 357 850 L 357 837 330.500 837 L 304 837 304 843.956 M 409 850 L 409 863 437 863 L 465 863 465 850 L 465 837 437 837 L 409 837 409 850 M 513.667 837.667 C 513.300 838.033, 513 843.883, 513 850.667 L 513 863 540.500 863 L 568 863 568 850 L 568 837 541.167 837 C 526.408 837, 514.033 837.300, 513.667 837.667 M 619 850.016 L 619 863.033 645.750 862.766 L 672.500 862.500 672.780 849.750 L 673.060 837 646.030 837 L 619 837 619 850.016 M 681.463 861.237 C 681.188 861.952, 681.085 873.778, 681.232 887.518 L 681.500 912.500 691 912.270 C 696.225 912.143, 701.970 912.030, 703.767 912.020 L 707.034 912 706.767 886.250 L 706.500 860.500 694.230 860.219 C 684.885 860.005, 681.842 860.248, 681.463 861.237 M 289.695 948.638 C 289.313 949.021, 289 960.746, 289 974.696 L 289 1000.058 302.250 999.779 L 315.500 999.500 315.500 974 L 315.500 948.500 302.945 948.222 C 296.040 948.068, 290.077 948.256, 289.695 948.638 M 681.415 954.917 C 681.187 955.146, 681 967.183, 681 981.667 L 681 1008 689 1008.100 C 693.400 1008.155, 698.125 1008.200, 699.500 1008.200 C 700.875 1008.200, 703.132 1008.155, 704.516 1008.100 L 707.033 1008 706.766 981.455 L 706.500 954.910 694.165 954.705 C 687.381 954.592, 681.643 954.688, 681.415 954.917 M 289.233 1070.750 L 289.500 1096.500 302.250 1096.780 C 313.878 1097.035, 315.010 1096.903, 315.112 1095.280 C 315.173 1094.301, 315.179 1084.725, 315.126 1074 C 315.072 1063.275, 315.022 1052.362, 315.014 1049.750 L 315 1045 301.983 1045 L 288.966 1045 289.233 1070.750 M 681 1077.530 L 681 1104.060 693.750 1103.780 L 706.500 1103.500 706.767 1077.250 L 707.033 1051 694.017 1051 L 681 1051 681 1077.530 M 289 1167 L 289 1193.058 302.130 1192.779 L 315.260 1192.500 315.297 1167 L 315.333 1141.500 302.167 1141.221 L 289 1140.942 289 1167 M 681 1174 L 681 1201 694 1201 L 707 1201 707 1174 L 707 1147 694 1147 L 681 1147 681 1174 M 289 1265 L 289 1291.058 302.250 1290.779 L 315.500 1290.500 315.500 1265 L 315.500 1239.500 302.250 1239.221 L 289 1238.942 289 1265 M 681.490 1246.165 C 681.200 1246.920, 681.084 1258.554, 681.232 1272.019 L 681.500 1296.500 694 1296.500 L 706.500 1296.500 706.767 1271.250 L 707.034 1246 696.099 1246 C 690.084 1246, 684.456 1245.728, 683.590 1245.396 C 682.707 1245.057, 681.786 1245.395, 681.490 1246.165 M 327 1311 L 327 1324 354 1324 L 381 1324 381 1311 L 381 1298 354 1298 L 327 1298 327 1311 M 426 1311 L 426 1324 451.500 1324 L 477 1324 477 1311 L 477 1298 451.500 1298 L 426 1298 426 1311 M 524 1311 L 524 1324 550 1324 L 576 1324 576 1311 L 576 1298 550 1298 L 524 1298 524 1311 M 619 1311.016 L 619 1324.033 645.750 1323.766 L 672.500 1323.500 672.780 1310.750 L 673.060 1298 646.030 1298 L 619 1298 619 1311.016" stroke="none" fill="currentColor" fill-rule="evenodd"/></svg>