<svg xmlns="http://www.w3.org/2000/svg" width="1024" height="1024" viewBox="0 0 1024 1024" version="1.1"><path d="" stroke="none" fill="#0c0a09" fill-rule="evenodd"/><path d="M 50.882 211.882 C 47.482 215.283, 47 216.344, 47 220.432 C 47 229.011, 51.675 234.004, 59.700 233.996 C 64.072 233.992, 69.309 231.151, 71.115 227.804 C 72.665 224.932, 72.629 217.045, 71.054 214.101 C 69.217 210.669, 64.014 208.008, 59.132 208.004 C 55.390 208.001, 54.209 208.556, 50.882 211.882 M 100.572 211.252 C 97.509 213.899, 96.714 215.354, 96.294 219.086 C 95.362 227.352, 100.797 234, 108.487 234 C 120.572 234, 126.163 219.963, 117.521 211.321 C 114.657 208.457, 113.521 208, 109.267 208 C 105.138 208, 103.720 208.531, 100.572 211.252 M 151.730 209.990 C 144.717 215.526, 144.106 224.960, 150.387 230.716 C 157.183 236.944, 167.159 234.387, 170.533 225.552 C 173.939 216.633, 169.195 209.009, 159.758 208.235 C 155.449 207.881, 154 208.198, 151.730 209.990 M 201.933 210.266 C 194.913 214.997, 194.306 224.723, 200.656 230.712 C 203.645 233.531, 204.859 234, 209.171 234 C 213.533 234, 214.640 233.560, 217.521 230.679 C 223.375 224.825, 223.383 217.183, 217.541 211.341 C 214.754 208.554, 213.462 208, 209.748 208 C 206.778 208, 204.177 208.754, 201.933 210.266 M 249.882 211.882 C 246.482 215.283, 246 216.344, 246 220.432 C 246 228.732, 250.678 234, 258.049 234 C 265.578 234, 271 228.576, 271 221.046 C 271 212.851, 266.141 208, 257.932 208 C 254.425 208, 253.150 208.615, 249.882 211.882 M 455.056 233.825 C 452.718 242.590, 437.251 305.777, 427.476 346.500 C 425.496 354.750, 417.577 387.375, 409.878 419 C 383.016 529.350, 377.357 552.403, 354.155 646 C 343.180 690.275, 331.602 737.075, 328.427 750 C 322.793 772.939, 322.622 773.421, 321.299 770.188 C 320.008 767.033, 316.897 759.944, 290.281 699.500 C 278.400 672.519, 265.896 644.390, 258.497 628 C 256.138 622.775, 250.072 609.275, 245.016 598 C 239.960 586.725, 235.428 577.088, 234.945 576.583 C 234.420 576.035, 229.934 577.609, 223.783 580.498 C 210.135 586.910, 162.700 609.967, 162.268 610.399 C 162.081 610.586, 163.813 614.631, 166.117 619.388 C 169.791 626.975, 170.564 627.957, 172.403 627.385 C 173.556 627.026, 181.609 623.179, 190.297 618.837 L 206.095 610.941 210.962 621.220 C 213.639 626.874, 226.403 654.225, 239.328 682 C 267.571 742.695, 270.482 748.937, 278.035 765 C 281.267 771.875, 289.986 790.550, 297.409 806.500 L 310.906 835.500 321.405 835.783 L 331.905 836.067 332.956 832.165 C 334.095 827.933, 370.518 681.017, 376.506 656.500 C 378.521 648.250, 386.431 616.075, 394.085 585 C 401.739 553.925, 412.038 512.075, 416.972 492 C 421.906 471.925, 431.823 431.650, 439.009 402.500 C 453.318 344.456, 473.022 263.810, 473.764 260.250 L 474.233 258 719.145 258 L 964.056 258 963.778 244.298 L 963.500 230.596 709.768 230.373 L 456.037 230.150 455.056 233.825 M 54.418 258.969 C 53.274 259.432, 51.136 261.238, 49.668 262.982 C 47.549 265.500, 47 267.191, 47 271.194 C 47 275.717, 47.399 276.635, 50.882 280.118 C 54.365 283.601, 55.283 284, 59.806 284 C 66.061 284, 70.452 280.749, 72.010 274.964 C 74.988 263.903, 64.899 254.729, 54.418 258.969 M 253.500 258.954 C 244.442 262.701, 243.483 277.310, 251.965 282.320 C 257.751 285.738, 266.484 283.511, 269.647 277.810 C 271.421 274.613, 271.313 267.505, 269.434 263.872 C 266.979 259.124, 259.024 256.669, 253.500 258.954 M 50.882 311.882 C 47.482 315.283, 47 316.344, 47 320.432 C 47 328.110, 50.122 332.562, 56.521 334.005 C 66.973 336.362, 75.228 326.788, 71.671 316.433 C 69.879 311.214, 65.138 308, 59.234 308 C 55.376 308, 54.234 308.531, 50.882 311.882 M 253.030 309.279 C 249.228 311.203, 246 316.713, 246 321.280 C 246 333.659, 261.115 339.272, 268.473 329.624 C 271.331 325.878, 271.910 318.267, 269.647 314.190 C 266.657 308.801, 258.650 306.435, 253.030 309.279 M 53.299 358.960 C 49.133 361.500, 47 365.769, 47 371.568 C 47 375.656, 47.482 376.717, 50.882 380.118 C 54.365 383.601, 55.283 384, 59.806 384 C 65.973 384, 70.460 380.738, 71.942 375.177 C 75.170 363.067, 63.381 352.812, 53.299 358.960 M 252.190 359.026 C 248.311 361.391, 246 366.266, 246 372.086 C 246 375.573, 246.620 376.855, 249.882 380.118 C 253.150 383.385, 254.425 384, 257.932 384 C 266.421 384, 271 379.159, 271 370.185 C 271 359.874, 260.761 353.800, 252.190 359.026 M 53.299 409.960 C 48.716 412.753, 46.673 417.246, 47.251 423.259 C 47.909 430.105, 51.897 434.091, 58.745 434.750 C 63.196 435.177, 64.030 434.912, 67.314 432.029 C 75.511 424.832, 73.614 412.829, 63.685 409.067 C 59.605 407.521, 56.920 407.752, 53.299 409.960 M 103.270 409.430 C 98.408 411.623, 95.798 416.453, 96.305 422.324 C 96.809 428.175, 99.484 432.030, 104.314 433.869 C 111.577 436.633, 118.751 432.900, 121.073 425.151 C 122.111 421.685, 122.039 420.391, 120.597 416.614 C 119.662 414.166, 117.733 411.400, 116.310 410.467 C 112.750 408.135, 107.134 407.688, 103.270 409.430 M 153.121 409.710 C 140.969 415.697, 145.519 435, 159.082 435 C 165.688 435, 172 428.322, 172 421.333 C 172 414.834, 165.300 407.966, 159.016 408.023 C 157.632 408.035, 154.980 408.795, 153.121 409.710 M 203.304 409.956 C 197.094 413.743, 194.890 419.820, 197.379 426.293 C 200.275 433.825, 208.188 437.022, 215.094 433.451 C 224.416 428.631, 224.046 413.424, 214.510 409.440 C 209.878 407.504, 207.116 407.632, 203.304 409.956 M 253.270 409.483 C 246.625 412.371, 243.936 422.103, 247.960 428.701 C 254.882 440.054, 271 434.828, 271 421.230 C 271 415.676, 268.781 411.973, 263.961 409.480 C 260.433 407.656, 257.471 407.656, 253.270 409.483 M 572.456 413.165 C 564.397 414.901, 557.066 423.852, 557.028 432 C 556.971 444.155, 565.441 452.924, 577.290 452.978 C 594.119 453.055, 603.121 432.319, 591.838 419.469 C 586.868 413.808, 579.936 411.553, 572.456 413.165 M 647 414.068 C 640.238 416.898, 635 425.166, 635 433.010 C 635 453.078, 660.926 460.575, 671.467 443.554 C 677.028 434.576, 675.016 423.376, 666.623 416.583 C 663.419 413.989, 661.935 413.521, 656.194 413.291 C 652.512 413.143, 648.375 413.493, 647 414.068 M 724.500 414.606 C 717.247 418.564, 713.061 425.192, 713.022 432.782 C 712.960 444.831, 722.287 453.654, 734.177 452.794 C 744.782 452.027, 751.773 445.013, 752.668 434.244 C 753.250 427.234, 750.544 421.242, 744.694 416.587 C 741.450 414.007, 739.897 413.515, 734.194 413.264 C 729.428 413.055, 726.636 413.441, 724.500 414.606 M 800.742 415.948 C 794.852 419.684, 791.857 425.250, 791.857 432.461 C 791.857 438.959, 793.742 443.536, 798.131 447.689 C 802.279 451.615, 805.793 453, 811.605 453 C 819.069 453, 827.415 447.358, 829.976 440.580 C 830.583 438.975, 831.109 435.233, 831.144 432.266 C 831.326 417.010, 813.855 407.632, 800.742 415.948 M 880.168 415.146 C 869.386 420.483, 866.577 436.401, 874.712 446.069 C 883.717 456.772, 901.769 454.552, 907.296 442.062 C 910.729 434.303, 909.428 424.681, 904.129 418.644 C 899.102 412.916, 887.960 411.289, 880.168 415.146 M 572.195 488.216 C 566.383 489.463, 559.604 495.972, 558.045 501.804 C 555.802 510.193, 558.587 518.295, 565.535 523.594 C 570.603 527.460, 579.789 528.169, 585.707 525.150 C 597.262 519.255, 600.471 504.655, 592.336 494.987 C 587.485 489.222, 579.704 486.606, 572.195 488.216 M 879.748 490.069 C 868.026 496.257, 866.647 514.800, 877.282 523.223 C 881.137 526.276, 881.939 526.500, 889.033 526.500 C 895.712 526.500, 897.170 526.154, 900.911 523.677 C 906.772 519.799, 909.352 513.863, 908.818 505.482 C 908.348 498.109, 905.212 493.169, 898.982 489.991 C 893.785 487.339, 884.850 487.376, 879.748 490.069 M 884.646 563.207 C 875.858 565.043, 869.989 572.817, 870.016 582.588 C 870.036 589.633, 872.574 594.758, 878.343 599.405 C 881.845 602.225, 882.827 602.500, 889.416 602.500 C 895.630 602.500, 897.230 602.113, 900.803 599.749 C 910.513 593.323, 912.174 577.804, 904.132 568.648 C 900.229 564.204, 891.516 561.771, 884.646 563.207 M 567.457 564.863 C 556.185 571.737, 553.676 586.867, 562.200 596.575 C 569.979 605.435, 584.638 605.161, 592.336 596.013 C 600.494 586.317, 597.194 570.364, 585.800 564.411 C 581.808 562.325, 571.189 562.587, 567.457 564.863 M 568.459 639.880 C 556.765 645.191, 553.342 661.122, 561.747 671.111 C 571.584 682.802, 591.934 678.702, 595.956 664.219 C 600.777 646.861, 584.604 632.546, 568.459 639.880 M 882.145 639.070 C 871.512 643.329, 866.864 656.439, 872.250 666.980 C 875.811 673.950, 880.837 677.336, 888.287 677.783 C 893.392 678.089, 895.302 677.728, 899 675.753 C 913.021 668.268, 912.786 646.348, 898.616 639.913 C 894.218 637.916, 886.068 637.499, 882.145 639.070 M 568.500 714.890 C 558.091 719.694, 554.347 730.760, 559.434 741.686 C 562.970 749.281, 568.226 752.500, 577.091 752.500 C 582.963 752.500, 584.374 752.115, 588.087 749.500 C 601.300 740.193, 599.448 720.681, 584.768 714.548 C 579.843 712.490, 573.408 712.625, 568.500 714.890 M 646.500 714.890 C 629.901 722.551, 631.759 747.357, 649.285 752.077 C 665.527 756.450, 679.849 740.541, 673.452 725.232 C 669.056 714.711, 656.952 710.066, 646.500 714.890 M 724.500 714.890 C 707.954 722.526, 709.815 747.373, 727.285 752.077 C 739.644 755.405, 751.301 747.384, 752.746 734.558 C 754.439 719.540, 738.488 708.434, 724.500 714.890 M 801.907 715.324 C 786.560 723.419, 788.423 746.145, 804.899 751.828 C 813.999 754.966, 825.134 750.443, 829.608 741.790 C 832.133 736.908, 831.709 727.886, 828.715 722.777 C 823.454 713.800, 811.238 710.403, 801.907 715.324 M 882.007 714.538 C 874.566 717.882, 869.986 724.827, 870.022 732.710 C 870.090 747.510, 884.471 757.136, 897.500 751.104 C 911.629 744.563, 913.560 724.693, 900.882 716.303 C 895.839 712.966, 887.285 712.166, 882.007 714.538" stroke="none" fill="#040404" fill-rule="evenodd"/></svg>