<svg xmlns="http://www.w3.org/2000/svg" width="1024" height="1024" viewBox="0 0 1024 1024" version="1.1"><path d="M 452.883 209.983 C 419.125 213.239, 386.787 227.515, 365.562 248.535 C 340.790 273.067, 329.248 307.713, 331.427 351 C 332.165 365.651, 333.474 376.772, 335.018 381.500 C 336.084 384.766, 335.874 382.428, 333.938 369.500 C 332.389 359.148, 332.807 323.488, 334.602 312.926 C 340.064 280.789, 354.314 257.053, 379.418 238.275 C 408.885 216.233, 451.567 206.201, 490.500 212.166 C 506.960 214.687, 524.284 221.623, 534.714 229.868 C 540.218 234.219, 547.374 243.555, 551.095 251.242 C 553.015 255.208, 554.136 256.256, 557.945 257.646 C 578.024 264.974, 583.369 268.445, 590.327 278.676 C 598.895 291.273, 601.998 305.144, 602.004 330.881 C 602.008 347.043, 599.211 375.501, 596.937 382.437 C 596.391 384.101, 596.351 385.751, 596.843 386.243 C 597.336 386.736, 597.978 385.246, 598.324 382.806 C 598.660 380.438, 599.639 373.857, 600.500 368.181 C 604.232 343.556, 604.188 314.855, 600.392 299.327 C 596.797 284.615, 589.323 272.758, 579.296 265.860 C 576.828 264.162, 570.239 261.130, 564.654 259.124 C 556.112 256.054, 554.259 255.001, 552.983 252.488 C 544.680 236.130, 536.757 228.041, 521.913 220.767 C 503.481 211.735, 477.235 207.635, 452.883 209.983 M 733.596 294.250 C 732.213 295.488, 728.074 301.900, 724.399 308.500 C 712.085 330.615, 699.372 353.351, 688.894 372 L 678.500 390.500 678.259 527 C 678.067 635.776, 678.276 664.008, 679.288 666 L 680.559 668.500 738.200 668.758 C 789.616 668.988, 796.012 668.846, 797.420 667.437 C 798.844 666.013, 799 652.369, 799 528.883 L 799 391.909 790.638 377.204 C 786.040 369.117, 776.541 352.150, 769.530 339.500 C 750.039 304.332, 743.937 294.036, 741.951 292.974 C 739.039 291.415, 736.297 291.834, 733.596 294.250 M 733.741 295.402 C 732.368 296.774, 727.144 305.940, 695.582 362.349 L 680 390.198 680 527.899 C 680 633.666, 680.278 665.878, 681.200 666.800 C 682.105 667.705, 696.348 668, 739.165 668 C 794.263 668, 795.960 667.943, 796.965 666.066 C 797.664 664.760, 798 620.068, 798 528.454 L 798 392.777 794.639 386.638 C 792.791 383.262, 785.671 370.600, 778.816 358.500 C 771.962 346.400, 764.397 332.900, 762.006 328.500 C 756.218 317.851, 744.053 296.818, 742.774 295.250 C 741.399 293.563, 735.480 293.663, 733.741 295.402 M 525.237 309.242 C 521.243 310.378, 518.165 311.498, 518.398 311.731 C 518.631 311.964, 522.239 311.196, 526.415 310.024 C 535.117 307.582, 535.315 307.647, 541.803 315.070 C 563.297 339.659, 575.003 363.459, 574.998 382.564 C 574.997 390.848, 573.032 395.417, 568 398.843 C 565.159 400.777, 564.971 401.088, 567 400.491 C 573.123 398.689, 576.212 392.546, 576.108 382.380 C 575.925 364.665, 567.412 345.394, 550.097 323.500 C 541.851 313.074, 535.925 306.989, 534.113 307.088 C 533.226 307.137, 529.232 308.106, 525.237 309.242 M 511.191 312.682 C 510.472 312.970, 503.047 314.504, 494.691 316.090 C 486.336 317.676, 482.200 318.717, 485.500 318.403 C 491.663 317.817, 516.171 313.141, 516.917 312.409 C 517.510 311.827, 512.760 312.054, 511.191 312.682 M 409 320.659 C 397.525 322.433, 384.202 328.429, 376.322 335.365 C 370.318 340.651, 362.735 352.275, 360.086 360.257 C 357.910 366.814, 355.487 382.029, 356.271 384.219 C 356.523 384.923, 357.050 382.350, 357.441 378.500 C 359.134 361.855, 363.863 350.632, 373.631 340.082 C 384.176 328.692, 397.015 322.878, 415.500 321.124 C 423.870 320.330, 424.045 320.270, 418 320.271 C 414.425 320.272, 410.375 320.446, 409 320.659 M 448.296 320.744 C 452.583 320.932, 459.333 320.931, 463.296 320.742 C 467.258 320.552, 463.750 320.399, 455.500 320.400 C 447.250 320.401, 444.008 320.556, 448.296 320.744 M 737.347 329.197 C 736.887 329.914, 736.024 331.400, 735.430 332.500 C 731.937 338.961, 719.838 361.021, 713.914 371.725 C 710.111 378.597, 707 384.621, 707 385.110 C 707 385.616, 720.696 385.901, 738.750 385.771 L 770.500 385.543 739.315 385.021 L 708.131 384.500 723.315 356.834 C 731.667 341.618, 738.810 329.468, 739.189 329.834 C 739.995 330.613, 760.944 367.982, 764.420 374.843 C 765.724 377.415, 767.774 380.640, 768.976 382.010 C 771.499 384.884, 771.466 384.822, 752.679 351.031 C 745.809 338.673, 739.737 328.412, 739.185 328.228 C 738.634 328.045, 737.807 328.481, 737.347 329.197 M 404.754 375.084 C 394.165 377.580, 380.705 387.778, 376.109 396.786 C 372.884 403.109, 373.587 402.949, 377.822 396.397 C 387.357 381.645, 402.166 374.049, 418.929 375.313 C 431.445 376.256, 443.360 383.396, 451.035 394.550 L 454.096 399 467.013 399 C 479.385 399, 479.980 398.905, 481.133 396.750 C 483.612 392.116, 493.689 382.688, 499.070 379.968 C 519.369 369.708, 543.514 376.542, 556.063 396.098 C 559.900 402.077, 560.988 402.544, 557.814 396.849 C 549.448 381.840, 531.846 372.698, 514.443 374.323 C 502.114 375.474, 487.219 384.466, 481.738 394.066 L 479.500 397.985 466.776 397.992 L 454.051 398 452.469 394.940 C 448.164 386.615, 436.986 378.273, 426.462 375.532 C 420.088 373.872, 410.716 373.678, 404.754 375.084 M 328.162 388.149 C 322.759 390.823, 317.676 398.198, 315.540 406.460 C 311.680 421.394, 315.280 446.049, 324.417 467.264 C 328.706 477.222, 340.689 493.754, 345.337 496.127 C 346.527 496.734, 344.957 494.592, 341.848 491.366 C 325.074 473.957, 313.865 442.483, 315.220 416.592 C 315.980 402.057, 320.736 393.205, 330.500 388.157 C 335.816 385.408, 333.714 385.401, 328.162 388.149 M 357.102 387.849 C 356.864 393.328, 363.213 400.988, 368 400.995 C 368.825 400.996, 367.957 400.210, 366.071 399.248 C 361.955 397.150, 359.084 393.460, 358.002 388.877 C 357.401 386.331, 357.180 386.078, 357.102 387.849 M 603.500 388.612 C 608.564 390.454, 613.658 397.034, 615.565 404.198 C 618.381 414.776, 616.780 438.438, 612.304 452.417 C 607.646 466.961, 599.531 481.153, 590.116 491.217 C 585.630 496.012, 583.341 499.514, 581.509 504.379 C 568.074 540.073, 541.230 571.357, 511.500 585.965 C 480.611 601.144, 445.248 600.489, 415 584.179 C 396.258 574.073, 378.419 557.113, 365.793 537.396 C 361.441 530.600, 353.416 514.002, 350.480 505.723 C 347.418 497.090, 345.785 495.794, 348.543 504.185 C 351.559 513.362, 360.458 531.290, 366.518 540.398 C 385.354 568.705, 410.681 587.603, 439.766 595.052 C 449.999 597.673, 468.057 598.591, 479.500 597.073 C 521.601 591.487, 561.132 557.184, 580.469 509.457 C 583.856 501.096, 585.954 497.434, 589.325 494 C 604.123 478.925, 614.535 456.100, 617.608 432 C 619.792 414.867, 617.953 402.377, 612.046 394.222 C 608.939 389.933, 604.438 386.941, 601.300 387.079 C 600.310 387.122, 601.300 387.812, 603.500 388.612 M 401.312 390.975 C 394.645 394.335, 390.319 398.591, 386.773 405.278 C 383.361 411.713, 383.576 423.661, 387.229 430.638 C 388.709 433.464, 391.815 437.398, 394.131 439.380 C 409.520 452.552, 432.919 447.547, 441.585 429.229 C 443.939 424.253, 444.183 422.743, 443.788 415.567 C 443.288 406.460, 441.206 401.425, 435.838 396.337 C 429.960 390.768, 424.399 388.537, 415.500 388.179 C 408.196 387.885, 406.962 388.129, 401.312 390.975 M 508.698 389.444 C 499.816 392.612, 492.257 400.643, 489.876 409.441 C 487.138 419.555, 491.156 432.554, 499.131 439.380 C 517.756 455.322, 546.551 444.067, 548.735 419.991 C 550.286 402.876, 536.374 387.929, 519 388.045 C 515.425 388.068, 510.789 388.698, 508.698 389.444 M 405.764 389.937 C 394.442 393.589, 385 406.385, 385 418.077 C 385 429.125, 394.565 441.364, 405.737 444.612 C 412.796 446.664, 420.572 445.890, 427.704 442.426 C 433.786 439.472, 437.373 435.558, 440.766 428.179 C 442.821 423.708, 443.148 421.712, 442.814 415.679 C 442.195 404.498, 437.301 396.768, 427.723 391.841 C 423.067 389.446, 410.630 388.367, 405.764 389.937 M 510.139 390.147 C 495.255 394.431, 486.995 410.132, 491.485 425.608 C 493.914 433.983, 502.034 442.091, 510.431 444.527 C 521.358 447.696, 531.467 445.190, 539.386 437.348 C 545.213 431.577, 547.455 425.942, 547.479 417 C 547.497 410.534, 547.091 408.762, 544.533 404.144 C 542.902 401.199, 539.977 397.477, 538.034 395.874 C 530.865 389.961, 519.147 387.555, 510.139 390.147 M 339.434 409.578 C 338.152 413.991, 337.880 417.649, 338.292 424.935 C 339.011 437.625, 341.116 445.368, 347.269 457.960 C 351.237 466.081, 353.978 470.105, 359.527 475.960 C 366.221 483.021, 366.875 484.124, 369.820 493.314 C 386.892 546.601, 428.805 579.120, 473.838 574.018 C 495.846 571.525, 514.713 561.603, 531.641 543.621 C 545.450 528.951, 554.427 513.671, 561.242 493.235 C 563.958 485.089, 564.870 483.528, 568.795 480.312 C 577.998 472.771, 586.929 457.903, 591.636 442.288 C 593.847 434.950, 594.302 431.437, 594.392 421 C 594.501 408.404, 593.386 403.376, 590.682 404.269 C 589.292 404.729, 584.820 410.887, 581.907 416.355 C 578.516 422.718, 581.441 419.557, 585.920 412.018 C 588.213 408.158, 590.482 405, 590.962 405 C 592.156 405, 594.004 414.060, 593.980 419.799 C 593.916 435.088, 588.015 453.505, 578.697 467.500 C 577.599 469.150, 573.642 473.650, 569.905 477.500 C 563.590 484.006, 562.834 485.277, 559.200 495.500 C 552.739 513.677, 545.539 526.312, 534.319 539.166 C 520.583 554.901, 505.857 564.813, 488.500 570.006 C 479.876 572.586, 476.421 573.046, 465.356 573.085 C 441.345 573.170, 420.403 564.242, 402.409 546.247 C 388.616 532.455, 378.752 515.860, 371.023 493.444 C 367.328 482.730, 366.525 481.286, 361.665 476.612 C 351.212 466.562, 343.415 451.057, 340.549 434.619 C 338.626 423.591, 338.606 417.070, 340.475 410.047 C 342.433 402.689, 341.552 402.292, 339.434 409.578 M 344 406.514 C 344 406.796, 345.892 409.925, 348.204 413.467 C 350.816 417.469, 352.804 419.596, 353.454 419.088 C 354.029 418.637, 355.850 417.756, 357.500 417.130 C 360.031 416.169, 360.109 416.050, 358 416.367 C 356.625 416.574, 354.825 417.025, 354 417.370 C 352.940 417.813, 351.368 416.238, 348.640 411.999 C 345.072 406.454, 344 405.187, 344 406.514 M 462.750 411.732 C 465.087 411.943, 468.913 411.943, 471.250 411.732 C 473.587 411.522, 471.675 411.349, 467 411.349 C 462.325 411.349, 460.413 411.522, 462.750 411.732 M 457.160 417.040 C 456.959 422.747, 454.607 431.890, 452.052 436.898 C 450.975 439.009, 447.782 443.266, 444.955 446.359 C 428.413 464.458, 399.774 464.363, 382.739 446.153 C 376.277 439.244, 372.086 429.967, 370.698 419.500 L 370.300 416.500 370.150 419.712 C 369.913 424.783, 374.411 437.429, 378.368 442.821 C 397.964 469.515, 438.430 466.083, 453.289 436.467 C 456.249 430.566, 458.340 420.955, 457.742 415.996 C 457.364 412.866, 457.303 412.976, 457.160 417.040 M 475.455 419.500 C 475.645 423.350, 476.553 428.750, 477.473 431.500 C 483.188 448.583, 500.577 461, 518.784 461 C 526.040 461, 537.288 457.872, 541.137 454.783 C 543.253 453.085, 543.056 453.104, 539.249 454.965 C 526.368 461.259, 512.410 461.494, 500.571 455.617 C 485.992 448.379, 478.227 436.897, 475.972 419.240 L 475.111 412.500 475.455 419.500 M 565 415.084 C 562.997 415.658, 563.394 415.829, 567 415.944 C 569.475 416.023, 573.188 416.690, 575.250 417.426 C 579.277 418.863, 580.166 418.694, 577.130 417.069 C 573.949 415.367, 567.624 414.332, 565 415.084 M 561.191 423.437 C 559.393 432.964, 555.653 440.369, 549.355 446.871 C 546.427 449.893, 544.159 452.492, 544.314 452.647 C 544.958 453.292, 553.546 444.158, 556.205 440 C 559.643 434.624, 563.276 423.277, 562.824 419.327 C 562.600 417.377, 562.094 418.652, 561.191 423.437 M 363.500 582.863 C 361.850 583.883, 356.656 588.788, 351.959 593.762 C 343.806 602.393, 342.827 603.086, 330.459 608.965 C 313.989 616.794, 316.648 615.606, 294.500 625.026 C 265.215 637.482, 247.818 647.822, 233.234 661.441 C 219.304 674.451, 209.285 690.741, 205.065 707.244 C 202.638 716.734, 198.475 744.952, 196.912 762.500 C 195.567 777.599, 196.482 781.494, 202.190 784.974 C 205.488 786.985, 206.336 786.992, 443 786.752 L 680.500 786.512 443 786.006 C 252.098 785.599, 205.059 785.248, 203.250 784.215 C 199.359 781.992, 197.674 778.316, 197.735 772.180 C 197.895 756.065, 203.400 716.461, 207.213 704 C 212.274 687.461, 225.155 668.764, 239.278 657.459 C 257.009 643.264, 269.263 636.740, 312.500 618.471 C 337.078 608.087, 343.336 604.278, 354.589 592.859 C 364.390 582.914, 366.833 581.233, 369.376 582.689 C 372.504 584.480, 436.519 647.827, 440.726 653.293 C 445.469 659.457, 446.389 661.777, 456.480 692.977 C 462.095 710.340, 463.464 713.449, 465.058 712.464 C 465.516 712.181, 468.885 702.624, 472.546 691.225 C 481.931 662.001, 481.934 661.994, 483.191 659.631 C 484.937 656.350, 556.878 583.173, 559.029 582.491 C 561.930 581.570, 564.433 583.405, 571.380 591.547 C 574.888 595.658, 578.978 599.981, 580.468 601.153 C 583.168 603.277, 612.771 616.397, 636.828 626.130 C 643.798 628.950, 650.288 632.149, 651.250 633.240 C 652.870 635.074, 653.001 639.212, 653.017 688.861 C 653.037 748.507, 653.248 750.959, 659.450 763.565 C 662.620 770.007, 673.969 784, 676.024 784 C 676.489 784, 674.724 781.797, 672.101 779.104 C 662.404 769.149, 657.173 758.961, 655.055 745.911 C 654.432 742.069, 654.012 718.788, 654.008 687.815 C 654.003 659.282, 653.593 635.060, 653.092 633.741 C 652.360 631.816, 648.532 629.835, 633.342 623.524 C 622.979 619.219, 612.250 614.685, 609.500 613.450 C 606.750 612.214, 601.698 610.031, 598.274 608.599 C 582.795 602.124, 581.728 601.418, 573.500 592.194 C 565.756 583.514, 562.585 581, 559.374 581 C 558.532 581, 553.040 585.837, 547.169 591.750 C 502.328 636.913, 484.031 656.017, 482.284 659.500 C 481.180 661.700, 476.810 674.292, 472.573 687.483 C 468.335 700.673, 464.685 711.648, 464.462 711.871 C 463.895 712.439, 462.992 709.892, 456.526 689.466 C 453.397 679.585, 449.692 668.418, 448.292 664.651 C 445.517 657.188, 437.588 646.505, 429.364 639.150 C 426.689 636.758, 412.331 622.696, 397.458 607.900 C 380.497 591.028, 369.686 581.001, 368.458 581.004 C 367.381 581.006, 365.150 581.842, 363.500 582.863 M 681.114 692.750 C 679.074 694.443, 679.004 695.325, 678.942 720 C 678.890 740.946, 679.165 746.304, 680.478 750 C 684.175 760.401, 691.213 766.815, 701.947 769.565 C 706.988 770.856, 713.756 771.068, 741.760 770.810 L 775.500 770.500 781.214 767.694 C 788.940 763.901, 794.477 757.433, 797.005 749.248 C 798.762 743.558, 799 739.944, 799 718.895 C 799 696.333, 798.888 694.888, 797 693 C 795.048 691.048, 793.667 691, 739.111 691 C 687.353 691, 683.066 691.129, 681.114 692.750 M 682.250 693.031 L 680 693.936 680 719.430 C 680 749.615, 680.752 753.073, 689.085 761.209 C 696.607 768.552, 699.202 769.010, 735.630 769.416 C 775.564 769.862, 779.859 769.187, 788.332 761.140 C 796.730 753.164, 797.973 747.651, 797.988 718.307 C 798 695.467, 797.966 695.090, 795.777 693.557 C 793.829 692.192, 786.829 692.008, 739.027 692.063 C 709.014 692.098, 683.488 692.533, 682.250 693.031" stroke="none" fill="#2a38b7" fill-rule="evenodd"/><path d="M 452.768 209.725 C 454.565 209.947, 457.265 209.943, 458.768 209.715 C 460.271 209.486, 458.800 209.304, 455.500 209.310 C 452.200 209.315, 450.971 209.502, 452.768 209.725 M 446.193 211.236 C 447.527 211.661, 446.181 211.800, 443 211.566 C 439.975 211.343, 438.331 211.483, 439.347 211.877 C 440.651 212.383, 439.323 212.966, 434.837 213.858 C 431.341 214.553, 427.810 214.943, 426.990 214.725 C 426.171 214.506, 425.925 214.546, 426.445 214.812 C 427.533 215.370, 406.588 223.104, 403.345 223.342 C 402.161 223.429, 401.351 223.759, 401.546 224.075 C 402.102 224.975, 392.985 229.109, 391.910 228.444 C 391.382 228.118, 391.074 228.281, 391.225 228.806 C 391.515 229.814, 381.015 237.349, 380.307 236.641 C 380.080 236.414, 381.493 235.240, 383.447 234.033 C 386.673 232.039, 388.707 229.895, 385.750 231.605 C 382.080 233.728, 378.951 236.285, 379.434 236.767 C 380.145 237.479, 378.056 240, 376.755 240 C 376.205 240, 376.373 239.213, 377.128 238.250 C 378.376 236.659, 378.339 236.626, 376.726 237.893 C 375.750 238.658, 375.184 239.517, 375.467 239.800 C 376.154 240.487, 374.023 243, 372.755 243 C 372.205 243, 372.356 242.213, 373.089 241.250 C 373.823 240.287, 372.994 240.806, 371.247 242.403 C 369.500 244, 368.263 245.616, 368.497 245.995 C 369.031 246.858, 362.555 253.222, 361.855 252.522 C 361.572 252.239, 360.252 253.204, 358.921 254.665 C 357.589 256.127, 357.063 256.998, 357.750 256.602 C 358.438 256.206, 359 256.303, 359 256.819 C 359 257.910, 356.877 259.829, 355.667 259.832 C 355.208 259.833, 354.533 260.168, 354.167 260.577 C 353.800 260.986, 354.063 260.997, 354.750 260.601 C 355.438 260.206, 356 260.303, 356 260.819 C 356 261.910, 353.877 263.829, 352.667 263.832 C 352.208 263.833, 351.533 264.168, 351.167 264.577 C 350.800 264.986, 351.121 264.961, 351.880 264.521 C 352.829 263.971, 353.102 264.155, 352.755 265.111 C 352.477 265.875, 351.710 266.376, 351.051 266.225 C 350.391 266.074, 350.125 266.393, 350.460 266.935 C 351.286 268.271, 342.547 284.194, 341.506 283.249 C 341.051 282.837, 340.999 283.057, 341.391 283.737 C 341.782 284.418, 340.771 289.143, 339.145 294.237 C 333.787 311.021, 332.708 320.990, 333.298 348.266 C 333.589 361.723, 334.354 374.665, 335.017 377.368 C 336.484 383.342, 335.371 385.976, 330.372 388.360 C 326.294 390.304, 325.642 390.388, 326.595 388.845 C 327.041 388.124, 326.869 387.963, 326.138 388.415 C 325.494 388.813, 325.189 389.497, 325.460 389.935 C 325.949 390.727, 322.382 394.500, 321.145 394.500 C 320.790 394.500, 320.602 394.806, 320.727 395.180 C 320.851 395.554, 319.766 398.453, 318.315 401.623 C 313.486 412.172, 314.194 432.429, 320.086 452.268 C 321.191 455.991, 321.780 459.548, 321.393 460.173 C 320.979 460.843, 321.135 461.035, 321.773 460.640 C 323.084 459.830, 324.421 463.510, 323.410 465.146 C 322.963 465.870, 323.127 466.040, 323.845 465.595 C 324.480 465.203, 325 465.257, 325 465.715 C 325 466.173, 327.025 470.102, 329.500 474.445 C 334.432 483.100, 334.575 483.449, 332.750 482.399 C 332.024 481.981, 331.849 482.061, 332.333 482.590 C 332.792 483.090, 333.692 483.501, 334.333 483.503 C 334.975 483.504, 335.505 484.274, 335.512 485.214 C 335.518 486.154, 336.171 487.503, 336.963 488.212 C 338.213 489.329, 338.219 489.235, 337.006 487.500 C 336.238 486.400, 338.172 487.960, 341.304 490.966 C 344.437 493.972, 347 496.560, 347 496.716 C 347 497.549, 345.586 496.638, 341.753 493.335 L 337.500 489.670 342 494.224 C 344.475 496.729, 346.782 498.610, 347.126 498.406 C 347.471 498.202, 348.987 501.514, 350.496 505.767 C 352.004 510.020, 355.435 517.879, 358.119 523.232 C 363.316 533.594, 363.657 534.524, 361.845 533.405 C 361.124 532.959, 360.963 533.131, 361.415 533.862 C 361.813 534.506, 362.519 534.797, 362.984 534.510 C 363.449 534.223, 364.768 535.506, 365.915 537.362 C 368.294 541.212, 368.552 542.450, 366.750 541.367 C 365.901 540.857, 365.940 541.158, 366.872 542.308 C 368.471 544.279, 369.462 544.572, 368.367 542.750 C 367.857 541.901, 368.158 541.940, 369.308 542.872 C 371.261 544.456, 371.613 546.471, 369.750 545.399 C 369.024 544.981, 368.849 545.061, 369.333 545.590 C 369.792 546.090, 370.467 546.507, 370.833 546.515 C 372.119 546.545, 374 548.128, 374 549.181 C 374 549.815, 373.293 549.690, 372.250 548.872 C 370.659 547.624, 370.626 547.661, 371.893 549.274 C 372.658 550.250, 373.522 550.811, 373.811 550.522 C 374.486 549.848, 378 552.998, 378 554.277 C 378 554.810, 377.212 554.641, 376.250 553.903 C 375.288 553.165, 375.578 553.771, 376.895 555.249 C 378.213 556.728, 379.598 557.748, 379.973 557.516 C 380.842 556.980, 392.234 568.433, 391.531 569.136 C 391.243 569.423, 392.240 570.748, 393.747 572.079 C 396.221 574.266, 396.302 574.283, 394.588 572.250 C 393.544 571.013, 393.140 570, 393.690 570 C 394.993 570, 398.162 573.505, 397.478 574.189 C 397.189 574.478, 397.750 575.342, 398.726 576.107 C 400.339 577.374, 400.376 577.341, 399.128 575.750 C 398.373 574.788, 398.205 574, 398.755 574 C 399.899 574, 401.829 576.092, 401.832 577.333 C 401.833 577.792, 402.168 578.467, 402.577 578.833 C 402.986 579.200, 402.961 578.879, 402.521 578.120 C 401.974 577.177, 402.161 576.887, 403.111 577.204 C 403.875 577.458, 404.500 578.154, 404.500 578.750 C 404.500 579.346, 404.910 580.208, 405.410 580.667 C 405.948 581.159, 405.993 580.935, 405.521 580.120 C 404.974 579.177, 405.161 578.887, 406.111 579.204 C 406.875 579.458, 407.500 580.154, 407.500 580.750 C 407.500 581.346, 407.910 582.208, 408.410 582.667 C 408.939 583.151, 409.019 582.976, 408.601 582.250 C 407.490 580.319, 408.802 580.723, 415.404 584.342 C 440.053 597.855, 472.670 600.650, 498.238 591.440 C 502.232 590.001, 506.470 588.751, 507.655 588.662 C 508.839 588.573, 509.553 588.086, 509.240 587.580 C 508.926 587.071, 509.438 586.954, 510.388 587.319 C 511.544 587.762, 511.870 587.599, 511.388 586.819 C 510.905 586.038, 511.231 585.875, 512.388 586.319 C 513.544 586.762, 513.870 586.599, 513.388 585.819 C 512.905 585.038, 513.231 584.875, 514.388 585.319 C 515.544 585.762, 515.870 585.599, 515.388 584.819 C 514.905 584.038, 515.231 583.875, 516.388 584.319 C 517.357 584.691, 517.852 584.569, 517.524 584.039 C 517.205 583.523, 517.827 582.628, 518.906 582.050 C 521.500 580.662, 522.277 580.724, 521.399 582.250 C 520.981 582.976, 521.061 583.151, 521.590 582.667 C 522.090 582.208, 522.500 581.346, 522.500 580.750 C 522.500 580.154, 523.125 579.458, 523.889 579.204 C 524.839 578.887, 525.026 579.177, 524.479 580.120 C 524.007 580.935, 524.052 581.159, 524.590 580.667 C 525.090 580.208, 525.500 579.346, 525.500 578.750 C 525.500 578.154, 526.125 577.458, 526.889 577.204 C 527.815 576.895, 528.014 577.169, 527.485 578.025 C 526.949 578.892, 527.088 579.064, 527.912 578.554 C 528.584 578.139, 528.882 577.549, 528.575 577.242 C 527.876 576.542, 529.919 574, 531.181 574 C 531.697 574, 531.780 574.563, 531.367 575.250 C 530.870 576.077, 531.197 576.029, 532.332 575.107 C 533.276 574.342, 533.816 573.483, 533.533 573.200 C 532.846 572.513, 534.977 570, 536.245 570 C 536.795 570, 536.644 570.788, 535.911 571.750 C 535.177 572.712, 536.017 572.183, 537.778 570.573 C 539.539 568.963, 540.747 567.413, 540.463 567.129 C 539.758 566.424, 551.167 554.985, 552.038 555.524 C 552.420 555.760, 553.580 554.959, 554.616 553.744 C 556.184 551.906, 556.206 551.762, 554.750 552.890 C 553.788 553.635, 553 553.810, 553 553.277 C 553 551.998, 556.514 548.848, 557.189 549.522 C 557.478 549.811, 558.342 549.276, 559.107 548.332 C 560.029 547.197, 560.077 546.870, 559.250 547.367 C 557.381 548.490, 557.742 546.454, 559.692 544.872 C 560.842 543.940, 561.143 543.901, 560.633 544.750 C 559.538 546.572, 560.529 546.279, 562.128 544.308 C 563.292 542.872, 563.291 542.742, 562.120 543.447 C 561.166 544.022, 560.883 543.850, 561.204 542.889 C 561.458 542.125, 562.154 541.500, 562.750 541.500 C 563.346 541.500, 564.208 541.090, 564.667 540.590 C 565.159 540.052, 564.935 540.007, 564.120 540.479 C 563.177 541.026, 562.887 540.839, 563.204 539.889 C 563.458 539.125, 564.154 538.500, 564.750 538.500 C 565.346 538.500, 566.208 538.090, 566.667 537.590 C 567.151 537.061, 566.976 536.981, 566.250 537.399 C 564.435 538.443, 564.576 538.089, 569.250 529.851 C 571.587 525.732, 574.811 519.599, 576.414 516.223 C 578.016 512.847, 579.662 510.291, 580.070 510.544 C 580.479 510.796, 580.640 510.215, 580.428 509.251 C 579.888 506.794, 584.455 496.441, 585.932 496.775 C 586.601 496.926, 586.909 496.662, 586.616 496.187 C 585.999 495.189, 593.809 487.250, 594.670 488 C 594.986 488.275, 596.426 486.950, 597.872 485.055 C 599.317 483.161, 599.879 481.986, 599.120 482.445 C 598.165 483.022, 597.883 482.851, 598.204 481.889 C 598.458 481.125, 599.154 480.500, 599.750 480.500 C 600.346 480.500, 601.208 480.090, 601.667 479.590 C 602.151 479.061, 601.976 478.981, 601.250 479.399 C 599.724 480.277, 599.662 479.500, 601.050 476.906 C 601.628 475.827, 602.597 475.251, 603.205 475.627 C 603.828 476.011, 604.029 475.856, 603.666 475.269 C 603.313 474.697, 604.782 470.423, 606.931 465.771 C 609.080 461.119, 611.363 455.365, 612.004 452.985 C 612.903 449.647, 613.401 448.982, 614.179 450.078 C 614.959 451.176, 615.046 451.063, 614.561 449.581 C 614.216 448.526, 614.672 443.244, 615.575 437.843 C 616.794 430.552, 617.054 424.997, 616.587 416.262 C 615.710 399.886, 615.617 399.119, 614.580 399.760 C 614.074 400.072, 613.945 399.585, 614.294 398.676 C 614.660 397.722, 614.468 397.125, 613.839 397.262 C 613.240 397.393, 612.523 396.875, 612.245 396.111 C 611.907 395.179, 612.163 394.983, 613.025 395.515 C 613.873 396.040, 614.063 395.912, 613.585 395.138 C 613.187 394.494, 612.506 394.187, 612.071 394.456 C 611.637 394.725, 610.128 393.650, 608.719 392.069 C 607.310 390.487, 604.659 388.861, 602.828 388.455 C 599.899 387.806, 599.740 387.616, 601.500 386.876 C 603.036 386.230, 602.688 386.086, 600 386.258 C 597.014 386.449, 596.544 386.189, 596.797 384.491 C 601.932 350.122, 602.142 347.658, 601.703 327 C 601.333 309.554, 600.929 305.308, 598.994 298.500 C 597.743 294.100, 596.670 289.530, 596.610 288.345 C 596.549 287.161, 596.210 286.370, 595.855 286.590 C 595.500 286.809, 594.937 286.279, 594.605 285.412 C 593.680 283.002, 593.911 282.331, 595.091 284 C 596.034 285.333, 596.107 285.333, 595.743 284 C 595.518 283.175, 594.828 282.500, 594.210 282.500 C 593.013 282.500, 590.085 279.086, 590.032 277.628 C 590.014 277.148, 590.788 277.373, 591.750 278.128 C 593.341 279.376, 593.374 279.339, 592.107 277.726 C 591.342 276.750, 590.483 276.184, 590.200 276.467 C 589.513 277.154, 587 275.023, 587 273.755 C 587 273.205, 587.788 273.351, 588.750 274.080 C 589.712 274.809, 588.721 273.514, 586.547 271.203 C 582.706 267.119, 581.237 265.957, 582.500 268 C 583.485 269.594, 582.023 269.163, 579.373 267.079 C 577.088 265.282, 568.462 261.484, 557.956 257.650 C 554.021 256.214, 553.020 255.224, 550.478 250.246 C 546.528 242.514, 546.564 242.613, 548.025 243.515 C 548.873 244.040, 549.063 243.912, 548.585 243.138 C 548.187 242.494, 547.514 242.182, 547.090 242.444 C 546.344 242.906, 542 237.763, 542 236.418 C 542 236.053, 542.788 236.359, 543.750 237.097 C 544.712 237.835, 544.409 237.216, 543.076 235.720 C 540.554 232.891, 538.818 231.871, 541 234.500 C 543.335 237.313, 541.383 236.010, 538.437 232.788 C 536.822 231.022, 536.400 230.226, 537.500 231.021 C 539.479 232.451, 539.480 232.443, 537.595 230.233 C 535.643 227.945, 534.394 227.210, 535.500 229 C 536.544 230.689, 534.331 230.106, 532.872 228.308 C 531.940 227.158, 531.901 226.857, 532.750 227.367 C 534.572 228.462, 534.279 227.471, 532.308 225.872 C 530.872 224.708, 530.742 224.709, 531.447 225.880 C 532.025 226.839, 531.855 227.106, 530.889 226.755 C 530.125 226.477, 529.624 225.710, 529.775 225.051 C 529.926 224.391, 529.616 224.119, 529.086 224.447 C 527.720 225.291, 514.987 218.830, 515.711 217.659 C 516.040 217.126, 515.821 216.993, 515.224 217.361 C 514.628 217.730, 510.289 216.916, 505.583 215.552 C 500.876 214.188, 494.657 212.749, 491.763 212.353 C 487.948 211.832, 487.135 211.478, 488.810 211.067 C 490.080 210.755, 480.492 210.500, 467.503 210.500 C 454.513 210.500, 444.924 210.831, 446.193 211.236 M 732.405 294.172 C 731.357 295.366, 731.121 295.979, 731.880 295.533 C 732.827 294.976, 733.114 295.157, 732.796 296.111 C 732.542 296.875, 731.846 297.500, 731.250 297.500 C 730.654 297.500, 729.792 297.910, 729.333 298.410 C 728.849 298.939, 729.024 299.019, 729.750 298.601 C 731.395 297.655, 731.327 298.467, 729.457 302.082 C 728.564 303.811, 727.447 304.776, 726.803 304.378 C 726.141 303.969, 725.971 304.145, 726.383 304.811 C 727.368 306.405, 723.188 314.234, 721.807 313.381 C 721.140 312.968, 720.971 313.143, 721.386 313.816 C 722.284 315.268, 719.215 321.251, 717.969 320.481 C 717.430 320.148, 717.306 320.635, 717.681 321.612 C 718.164 322.868, 717.985 323.109, 717.015 322.510 C 716.143 321.970, 715.930 322.078, 716.392 322.825 C 717.353 324.381, 715.163 328.219, 713.795 327.373 C 713.123 326.958, 712.974 327.150, 713.416 327.864 C 714.411 329.474, 705.185 346.233, 703.782 345.365 C 703.141 344.969, 702.976 345.153, 703.383 345.811 C 704.368 347.405, 700.188 355.234, 698.807 354.381 C 698.141 353.969, 697.970 354.143, 698.383 354.811 C 699.256 356.224, 695.237 364.265, 694.031 363.519 C 693.540 363.216, 692.813 363.494, 692.415 364.138 C 691.963 364.869, 692.124 365.041, 692.845 364.595 C 694.398 363.636, 694.299 364.521, 692.457 368.082 C 691.564 369.811, 690.447 370.776, 689.803 370.378 C 689.141 369.969, 688.971 370.145, 689.383 370.811 C 690.368 372.405, 686.188 380.234, 684.807 379.381 C 684.141 378.969, 683.970 379.143, 684.383 379.811 C 685.175 381.093, 681.294 389.300, 680.212 388.631 C 678.959 387.857, 679.868 665.136, 681.123 666.648 C 682.019 667.728, 693.168 668.035, 739.366 668.250 L 796.500 668.517 738.950 668.758 C 694.046 668.947, 681.092 668.725, 679.998 667.750 C 678.805 666.686, 678.794 666.761, 679.927 668.258 C 681.174 669.905, 684.893 670, 738.784 669.758 C 795.343 669.504, 796.319 669.466, 796.875 667.500 C 797.185 666.400, 797.569 604.142, 797.727 529.148 L 798.014 392.797 795.395 387.984 C 793.954 385.338, 793.085 382.672, 793.462 382.061 C 793.840 381.450, 793.609 381.074, 792.949 381.225 C 792.290 381.376, 791.523 380.875, 791.245 380.111 C 790.907 379.179, 791.163 378.983, 792.025 379.515 C 792.873 380.040, 793.063 379.912, 792.585 379.138 C 792.187 378.494, 791.460 378.216, 790.969 378.519 C 789.763 379.265, 785.744 371.224, 786.617 369.811 C 787.029 369.145, 786.859 368.969, 786.197 369.378 C 784.822 370.228, 781.637 364.396, 782.614 362.816 C 783.028 362.145, 782.860 361.968, 782.197 362.378 C 781.553 362.776, 780.436 361.811, 779.543 360.082 C 777.701 356.521, 777.602 355.636, 779.155 356.595 C 779.876 357.041, 780.037 356.869, 779.585 356.138 C 779.187 355.494, 778.486 355.200, 778.027 355.483 C 776.807 356.237, 757.717 321.267, 758.583 319.865 C 759.071 319.077, 758.874 318.960, 757.985 319.510 C 757.015 320.109, 756.836 319.868, 757.319 318.612 C 757.681 317.668, 757.568 317.149, 757.068 317.458 C 756.568 317.767, 754.773 315.598, 753.079 312.638 C 749.773 306.861, 749.330 305.468, 751.155 306.595 C 751.876 307.041, 752.037 306.869, 751.585 306.138 C 751.187 305.494, 750.462 305.214, 749.973 305.516 C 749.485 305.818, 748.391 304.723, 747.543 303.082 C 745.701 299.521, 745.602 298.636, 747.155 299.595 C 747.876 300.041, 748.037 299.869, 747.585 299.138 C 747.187 298.494, 746.492 298.196, 746.040 298.475 C 745.588 298.754, 744.449 297.808, 743.509 296.373 C 741.969 294.023, 741.337 293.815, 737.172 294.284 C 733.020 294.752, 732.742 294.662, 734.464 293.403 C 735.519 292.631, 735.916 292, 735.346 292 C 734.776 292, 733.453 292.977, 732.405 294.172 M 525.279 309.231 C 521.308 310.361, 518.227 311.558, 518.434 311.892 C 518.640 312.227, 516.939 312.566, 514.655 312.646 C 507.842 312.887, 479.279 318.635, 481.500 319.319 C 482.600 319.658, 480.800 319.748, 477.500 319.518 C 474.200 319.289, 472.269 319.416, 473.208 319.801 C 474.147 320.185, 459.522 320.525, 440.708 320.556 C 402.565 320.618, 401.034 320.827, 387.621 327.805 C 380.768 331.370, 370 340.220, 370 342.287 C 370 342.885, 371.462 342.052, 373.250 340.437 L 376.500 337.500 373.608 340.703 C 372.018 342.464, 370.218 343.814, 369.608 343.703 C 368.999 343.591, 368.494 344.256, 368.487 345.179 C 368.480 346.103, 368.071 347.228, 367.577 347.679 C 367.058 348.154, 366.989 347.867, 367.414 347 C 367.818 346.175, 367.389 346.400, 366.460 347.500 C 361.709 353.129, 357.577 366.031, 356.692 378 C 356.295 383.373, 356.388 384.508, 357.020 382 C 357.749 379.110, 357.824 379.490, 357.450 384.183 C 356.983 390.061, 358.296 395.553, 359.929 394.544 C 360.442 394.227, 361.187 394.494, 361.585 395.138 C 362.037 395.869, 361.876 396.041, 361.155 395.595 C 360.520 395.203, 360 395.365, 360 395.956 C 360 397.839, 366.333 401.084, 368.834 400.482 C 370.160 400.162, 370.918 400.323, 370.590 400.854 C 370.273 401.367, 371.130 401.723, 372.495 401.644 C 375.081 401.494, 376.481 399.587, 375.349 397.755 C 374.986 397.168, 375.159 396.980, 375.736 397.337 C 376.311 397.692, 377.505 396.878, 378.391 395.527 C 380.288 392.631, 380.447 391.606, 378.845 392.595 C 378.124 393.041, 377.963 392.869, 378.415 392.138 C 378.813 391.494, 379.484 391.181, 379.907 391.442 C 380.848 392.024, 388.258 384.592, 387.496 383.830 C 387.197 383.530, 387.750 382.658, 388.726 381.893 C 390.339 380.626, 390.376 380.659, 389.128 382.250 C 388.373 383.212, 388.205 384, 388.755 384 C 390.263 384, 392.087 381.431, 391.241 380.498 C 390.834 380.048, 390.985 379.955, 391.579 380.293 C 392.172 380.630, 395.397 379.799, 398.747 378.446 C 402.096 377.093, 407.686 375.746, 411.168 375.453 C 414.651 375.160, 419.075 374.726, 421 374.488 C 423.656 374.161, 424.138 374.311, 423 375.111 C 421.880 375.899, 422.513 376.041, 425.500 375.674 C 427.700 375.404, 428.907 375.415, 428.182 375.698 C 427.446 375.985, 429.145 377.269, 432.029 378.605 C 434.870 379.921, 437.612 380.740, 438.122 380.425 C 438.632 380.109, 438.926 380.391, 438.775 381.051 C 438.624 381.710, 439.125 382.477, 439.889 382.755 C 440.821 383.093, 441.017 382.837, 440.485 381.975 C 439.949 381.108, 440.088 380.936, 440.912 381.446 C 441.584 381.861, 441.874 382.459, 441.557 382.776 C 440.849 383.485, 444.973 388, 446.329 388 C 446.869 388, 446.456 386.988, 445.412 385.750 C 443.703 383.724, 443.787 383.741, 446.257 385.924 C 448.995 388.345, 449.892 389.669, 448 388.500 C 447.450 388.160, 447 388.303, 447 388.819 C 447 389.896, 450.093 392.667, 450.737 392.167 C 450.973 391.983, 451.467 392.168, 451.833 392.577 C 452.200 392.986, 451.938 392.997, 451.250 392.601 C 449.422 391.549, 449.718 392.795, 452.088 396.124 L 454.177 399.057 467.338 398.778 C 479.044 398.531, 480.485 398.311, 480.368 396.789 C 480.295 395.848, 480.745 395.173, 481.368 395.289 C 481.990 395.405, 482.438 394.717, 482.363 393.761 C 482.288 392.804, 482.548 392.221, 482.943 392.465 C 483.337 392.708, 486.099 390.390, 489.080 387.313 C 492.061 384.236, 493.825 382.093, 493 382.551 C 491.707 383.269, 491.690 383.150, 492.872 381.692 C 494.358 379.860, 495.506 379.372, 494.500 381 C 493.567 382.509, 494.606 382.233, 499.838 379.582 C 502.463 378.252, 506.318 376.843, 508.404 376.452 C 511.167 375.934, 511.831 375.486, 510.849 374.805 C 509.874 374.128, 510.055 374.019, 511.500 374.409 C 512.600 374.706, 517.613 375.073, 522.641 375.225 C 527.669 375.376, 531.269 375.831, 530.641 376.235 C 529.892 376.717, 530.053 376.975, 531.109 376.985 C 531.994 376.993, 535.369 378.344, 538.609 379.987 C 545.321 383.391, 545.369 383.407, 544.405 381.845 C 543.949 381.108, 544.132 380.963, 544.912 381.446 C 545.584 381.861, 545.868 382.465, 545.544 382.789 C 544.754 383.579, 553.121 392.043, 554.097 391.440 C 554.517 391.180, 555.187 391.494, 555.585 392.138 C 556.063 392.912, 555.873 393.040, 555.025 392.515 C 554.169 391.986, 553.895 392.185, 554.204 393.111 C 554.458 393.875, 555.154 394.500, 555.750 394.500 C 556.346 394.500, 557.208 394.910, 557.667 395.410 C 558.159 395.948, 557.935 395.993, 557.120 395.521 C 556.171 394.971, 555.898 395.155, 556.245 396.111 C 556.523 396.875, 557.203 397.405, 557.757 397.289 C 558.311 397.173, 558.705 397.848, 558.632 398.789 C 558.522 400.220, 559.365 400.478, 563.797 400.363 C 569.410 400.217, 573.527 397.817, 572.547 395.261 C 572.259 394.510, 572.402 394.130, 572.865 394.417 C 574.547 395.456, 576.179 389.343, 576.107 382.274 C 576.066 378.295, 575.286 371.993, 574.373 368.269 C 572.372 360.105, 563.452 340.602, 562.101 341.437 C 561.572 341.765, 560.813 341.506, 560.415 340.862 C 559.937 340.088, 560.127 339.960, 560.975 340.485 C 561.831 341.014, 562.105 340.815, 561.796 339.889 C 561.542 339.125, 560.846 338.500, 560.250 338.500 C 559.654 338.500, 558.792 338.090, 558.333 337.590 C 557.841 337.052, 558.065 337.007, 558.880 337.479 C 559.823 338.026, 560.113 337.839, 559.796 336.889 C 559.542 336.125, 558.846 335.500, 558.250 335.500 C 557.654 335.500, 556.792 335.090, 556.333 334.590 C 555.841 334.052, 556.065 334.007, 556.880 334.479 C 557.823 335.026, 558.113 334.839, 557.796 333.889 C 557.542 333.125, 556.846 332.500, 556.250 332.500 C 555.654 332.500, 554.792 332.090, 554.333 331.590 C 553.849 331.061, 554.024 330.981, 554.750 331.399 C 555.438 331.794, 556 331.697, 556 331.181 C 556 329.961, 553.468 327.865, 552.800 328.533 C 552.517 328.816, 551.658 328.276, 550.893 327.332 C 549.971 326.197, 549.923 325.870, 550.750 326.367 C 551.438 326.780, 552 326.697, 552 326.181 C 552 324.961, 549.468 322.865, 548.800 323.533 C 548.517 323.816, 547.658 323.250, 546.893 322.274 C 545.626 320.661, 545.659 320.624, 547.250 321.872 C 550.081 324.092, 549.252 321.573, 546.280 318.924 C 544.181 317.053, 543.875 316.956, 544.940 318.500 C 545.698 319.600, 544.165 318.344, 541.534 315.709 C 538.902 313.074, 536.967 310.699, 537.235 310.432 C 537.502 310.164, 538.954 311.562, 540.462 313.538 C 541.969 315.515, 543.466 316.867, 543.789 316.545 C 544.696 315.637, 535.782 306.989, 534.042 307.088 C 533.194 307.137, 529.251 308.101, 525.279 309.231 M 603.310 320.500 C 603.315 323.800, 603.502 325.029, 603.725 323.232 C 603.947 321.435, 603.943 318.735, 603.715 317.232 C 603.486 315.729, 603.304 317.200, 603.310 320.500 M 737.011 329.487 C 736.332 330.305, 736.046 331.679, 736.377 332.539 C 736.707 333.401, 736.552 333.841, 736.031 333.519 C 734.785 332.749, 731.716 338.732, 732.614 340.184 C 733.031 340.858, 732.860 341.032, 732.188 340.616 C 730.802 339.760, 724.626 351.586, 725.620 353.194 C 726.030 353.857, 725.857 354.029, 725.193 353.619 C 723.812 352.766, 719.632 360.595, 720.617 362.189 C 721.021 362.843, 720.860 363.031, 720.230 362.642 C 718.916 361.830, 708.581 380.512, 709.510 382.017 C 709.861 382.585, 709.579 382.926, 708.884 382.775 C 708.188 382.624, 707.447 383.288, 707.236 384.250 C 706.878 385.888, 708.879 386, 738.462 386 L 770.070 386 768.871 383.750 C 767.747 381.640, 767.787 381.593, 769.519 383 C 770.684 383.946, 770.006 382.099, 767.686 378 C 765.661 374.425, 763.520 371.624, 762.928 371.775 C 762.336 371.926, 762.126 371.605, 762.462 371.062 C 763.397 369.549, 758.124 359.805, 756.810 360.617 C 756.131 361.037, 755.970 360.857, 756.401 360.160 C 757.371 358.591, 748.129 341.802, 746.761 342.648 C 746.131 343.037, 745.982 342.838, 746.399 342.163 C 747.143 340.960, 740.405 328, 739.036 328 C 738.601 328, 737.689 328.669, 737.011 329.487 M 603.328 340.500 C 603.333 344.350, 603.513 345.802, 603.730 343.728 C 603.946 341.653, 603.943 338.503, 603.722 336.728 C 603.501 334.952, 603.324 336.650, 603.328 340.500 M 724.250 384.748 C 732.362 384.916, 745.638 384.916, 753.750 384.748 C 761.862 384.580, 755.225 384.442, 739 384.442 C 722.775 384.442, 716.138 384.580, 724.250 384.748 M 402.182 390.495 C 399.257 391.857, 397.127 393.396, 397.448 393.916 C 397.770 394.436, 397.506 395.187, 396.862 395.585 C 396.131 396.037, 395.959 395.876, 396.405 395.155 C 397.769 392.947, 395.358 394.017, 392.687 396.805 C 389.678 399.946, 389.055 401.986, 391.750 399.872 C 393.334 398.630, 393.370 398.665, 392.137 400.239 C 391.387 401.195, 390.392 401.742, 389.925 401.454 C 389.458 401.165, 388.055 402.858, 386.806 405.215 C 384.991 408.640, 384.535 411.106, 384.535 417.500 C 384.535 426.411, 386.570 431.716, 392.304 437.750 C 395.367 440.973, 397.781 442.152, 396.399 439.750 C 395.981 439.024, 396.061 438.849, 396.590 439.333 C 397.090 439.792, 397.500 440.688, 397.500 441.324 C 397.500 441.961, 399.975 443.515, 403 444.777 C 407.514 446.661, 409.777 446.992, 415.619 446.623 C 423.661 446.116, 428.921 443.873, 435.045 438.340 C 438.694 435.043, 440.527 431.938, 437.845 433.595 C 437.124 434.041, 436.963 433.869, 437.415 433.138 C 437.813 432.494, 438.561 432.229, 439.077 432.548 C 439.594 432.867, 440.955 430.962, 442.102 428.314 C 444.845 421.983, 444.417 409.577, 441.245 403.432 C 438.696 398.494, 431.366 391.646, 429.427 392.390 C 428.655 392.686, 428.131 392.440, 428.262 391.844 C 428.664 390.013, 421.863 388.156, 414.500 388.086 C 409.053 388.034, 406.320 388.569, 402.182 390.495 M 509.994 388.934 C 506.305 390.056, 501.232 392.816, 500.409 394.147 C 499.926 394.929, 500.150 395.046, 501.095 394.504 C 501.868 394.062, 500.949 395.342, 499.054 397.350 C 495.574 401.035, 494.285 401.966, 495.595 399.845 C 496.041 399.125, 495.869 398.963, 495.140 399.413 C 494.497 399.811, 492.971 402.018, 491.748 404.318 C 489.951 407.697, 489.524 410.133, 489.526 417 C 489.528 424.292, 489.911 426.230, 492.224 430.638 C 498.668 442.918, 513.917 449.651, 527.035 446.007 C 532.124 444.593, 540.253 439.219, 539.398 437.834 C 538.995 437.183, 539.131 436.963, 539.712 437.322 C 542.542 439.071, 548.185 427.526, 548.667 419 C 549.058 412.076, 546.543 402.500, 544.333 402.500 C 543.692 402.500, 542.792 402.090, 542.333 401.590 C 541.849 401.061, 542.024 400.981, 542.750 401.399 C 545.269 402.848, 543.899 400.308, 540.250 396.762 C 534.454 391.129, 526.791 388.004, 519 388.096 C 515.425 388.138, 511.372 388.515, 509.994 388.934 M 799.486 528.500 C 799.486 603.850, 799.605 634.527, 799.750 596.672 C 799.895 558.817, 799.895 497.167, 799.750 459.672 C 799.605 422.177, 799.486 453.150, 799.486 528.500 M 452.980 395.750 C 454.038 397.932, 454.468 397.993, 467.285 397.783 L 480.500 397.565 467.588 397.252 C 456.835 396.990, 454.442 396.650, 453.282 395.219 C 452.040 393.685, 452.007 393.743, 452.980 395.750 M 339.458 409.497 C 337.372 416.672, 337.842 430.069, 340.562 441 C 342.609 449.222, 351.831 468.500, 353.717 468.500 C 354.368 468.500, 355.485 469.153, 356.200 469.952 C 357.322 471.205, 357.261 471.222, 355.750 470.079 C 354.788 469.351, 354 469.161, 354 469.656 C 354 471.196, 366.567 483.099, 367.358 482.309 C 367.769 481.897, 367.842 482.248, 367.520 483.088 C 366.034 486.960, 380.681 522.933, 383.127 521.421 C 383.861 520.968, 384.044 521.120, 383.608 521.825 C 382.738 523.233, 384.775 527.257, 385.981 526.512 C 386.465 526.212, 387.187 526.494, 387.585 527.138 C 388.063 527.912, 387.873 528.040, 387.025 527.515 C 386.169 526.986, 385.895 527.185, 386.204 528.111 C 386.458 528.875, 387.154 529.500, 387.750 529.500 C 388.346 529.500, 389.208 529.910, 389.667 530.410 C 390.159 530.948, 389.935 530.993, 389.120 530.521 C 388.177 529.974, 387.887 530.161, 388.204 531.111 C 388.458 531.875, 389.169 532.500, 389.783 532.500 C 390.398 532.500, 391.485 533.153, 392.200 533.952 C 393.322 535.205, 393.261 535.222, 391.750 534.079 C 389.228 532.171, 389.590 534.331, 392.172 536.595 C 393.557 537.809, 394.042 537.956, 393.511 537 C 393.052 536.175, 393.875 536.591, 395.339 537.924 C 396.802 539.258, 398 540.565, 398 540.829 C 398 541.094, 397.100 540.495, 396 539.500 C 394.900 538.505, 394 538.109, 394 538.622 C 394 539.782, 407.236 553, 408.398 553 C 408.864 553, 408.641 552.212, 407.903 551.250 C 407.165 550.288, 407.784 550.591, 409.280 551.924 C 412.300 554.616, 412.988 556.010, 410.250 553.890 C 408.825 552.786, 408.854 552.950, 410.405 554.767 C 412.288 556.975, 414.695 557.933, 413.500 556 C 412.494 554.372, 413.642 554.860, 415.128 556.692 C 416.309 558.149, 416.291 558.277, 415 557.616 C 414.175 557.193, 414.625 557.833, 416 559.038 C 419.565 562.161, 432.367 568.418, 440.029 570.783 C 460.275 577.032, 483.869 575.140, 502.432 565.779 C 510.464 561.729, 516.073 557.928, 515.467 556.947 C 515.192 556.502, 515.494 555.813, 516.138 555.415 C 516.869 554.963, 517.041 555.124, 516.595 555.845 C 515.482 557.648, 517.593 557.200, 519.128 555.308 C 520.311 553.849, 520.293 553.734, 519 554.469 C 518.175 554.939, 518.591 554.125, 519.924 552.661 C 521.258 551.198, 522.565 550, 522.829 550 C 523.094 550, 522.495 550.900, 521.500 552 C 520.505 553.100, 520.109 554, 520.620 554 C 521.800 554, 536 539.755, 536 538.571 C 536 538.087, 534.987 538.540, 533.750 539.579 C 532.513 540.619, 532.822 540.013, 534.437 538.234 C 537.571 534.783, 539.132 533.844, 536.903 536.750 C 536.165 537.712, 536.784 537.409, 538.280 536.076 C 541.252 533.427, 542.081 530.908, 539.250 533.128 C 537.659 534.376, 537.626 534.339, 538.893 532.726 C 539.658 531.750, 540.517 531.184, 540.800 531.467 C 541.487 532.154, 544 530.023, 544 528.755 C 544 528.205, 543.212 528.373, 542.250 529.128 C 540.666 530.370, 540.630 530.335, 541.863 528.761 C 542.613 527.805, 543.603 527.255, 544.063 527.539 C 544.523 527.823, 545.372 527.173, 545.950 526.094 C 547.338 523.500, 547.276 522.723, 545.750 523.601 C 545.024 524.019, 544.849 523.939, 545.333 523.410 C 545.792 522.910, 546.654 522.500, 547.250 522.500 C 547.846 522.500, 548.542 521.875, 548.796 521.111 C 549.105 520.185, 548.831 519.986, 547.975 520.515 C 547.127 521.040, 546.937 520.912, 547.415 520.138 C 547.813 519.494, 548.535 519.212, 549.019 519.512 C 550.214 520.250, 552.288 516.192, 551.613 514.434 C 551.312 513.650, 551.611 513.130, 552.286 513.262 C 552.958 513.394, 553.467 512.519, 553.426 511.300 C 553.385 510.090, 553.674 509.298, 554.067 509.541 C 555.191 510.236, 560.327 497.294, 559.639 495.501 C 559.298 494.614, 559.444 494.156, 559.964 494.478 C 560.481 494.798, 561.606 492.699, 562.463 489.813 C 563.726 485.558, 565.200 483.495, 570.260 478.893 C 573.692 475.772, 576.237 472.944, 575.915 472.608 C 575.594 472.272, 572.331 475.104, 568.665 478.901 C 564.999 482.699, 562 485.501, 562 485.128 C 562 484.755, 565.437 481.086, 569.637 476.975 C 573.837 472.864, 576.901 470.175, 576.445 471 C 575.731 472.293, 575.850 472.310, 577.308 471.128 C 579.261 469.544, 579.613 467.529, 577.750 468.601 C 577.024 469.019, 576.849 468.939, 577.333 468.410 C 577.792 467.910, 578.654 467.500, 579.250 467.500 C 579.846 467.500, 580.542 466.875, 580.796 466.111 C 581.105 465.185, 580.831 464.986, 579.975 465.515 C 579.127 466.040, 578.937 465.912, 579.415 465.138 C 579.813 464.494, 580.543 464.217, 581.037 464.523 C 582.408 465.370, 588.681 452.131, 591.474 442.495 C 595.588 428.297, 596.065 410.044, 592.444 405.362 C 591.065 403.578, 590.897 403.621, 588.443 406.375 C 587.034 407.956, 586.117 409.863, 586.405 410.613 C 586.693 411.362, 586.415 411.869, 585.789 411.738 C 585.162 411.607, 583.517 413.525, 582.133 416 C 579.970 419.866, 579.889 420.296, 581.558 419.055 C 583.356 417.717, 583.386 417.736, 581.963 419.306 C 580.521 420.897, 580.185 420.879, 576.502 419.001 C 574.343 417.900, 573.152 417, 573.854 417 C 574.557 417, 576.114 417.505, 577.316 418.122 C 579.066 419.022, 579.264 418.994, 578.311 417.983 C 576.770 416.348, 568.340 414.212, 565.541 414.747 C 563.897 415.062, 563.415 415.810, 563.553 417.831 C 563.674 419.602, 563.565 419.827, 563.228 418.500 C 562.748 416.609, 559.105 429.548, 558.680 434.655 C 558.581 435.839, 558.086 436.553, 557.580 436.240 C 557.074 435.928, 556.945 436.415, 557.294 437.324 C 557.660 438.278, 557.468 438.875, 556.839 438.738 C 556.240 438.607, 555.523 439.125, 555.245 439.889 C 554.898 440.845, 555.171 441.029, 556.120 440.479 C 556.935 440.007, 557.159 440.052, 556.667 440.590 C 556.208 441.090, 555.346 441.500, 554.750 441.500 C 554.154 441.500, 553.458 442.125, 553.204 442.889 C 552.886 443.843, 553.173 444.024, 554.120 443.467 C 554.879 443.021, 554.643 443.634, 553.595 444.828 C 551.323 447.419, 550.172 447.748, 552.120 445.250 C 552.871 444.288, 551.393 445.300, 548.837 447.500 C 546.280 449.700, 544.146 452.036, 544.094 452.691 C 544.042 453.346, 543.480 454.203, 542.845 454.595 C 542.105 455.053, 541.964 454.868, 542.450 454.081 C 542.868 453.405, 541.361 453.795, 539.103 454.947 C 527.716 460.757, 512.949 461.412, 502.389 456.578 C 495.935 453.623, 495.624 453.552, 496.601 455.250 C 497.019 455.976, 496.939 456.151, 496.410 455.667 C 495.910 455.208, 495.500 454.346, 495.500 453.750 C 495.500 453.154, 494.875 452.458, 494.111 452.204 C 493.150 451.883, 492.978 452.166, 493.553 453.120 C 494.250 454.278, 494.107 454.276, 492.668 453.107 C 491.724 452.342, 491.184 451.483, 491.467 451.200 C 492.135 450.532, 490.039 448, 488.819 448 C 488.303 448, 488.220 448.563, 488.633 449.250 C 489.143 450.099, 488.842 450.060, 487.692 449.128 C 485.860 447.642, 485.372 446.494, 487 447.500 C 487.550 447.840, 488 447.711, 488 447.214 C 488 446.117, 483.984 442.365, 483.312 442.833 C 483.049 443.017, 482.533 442.832, 482.167 442.423 C 481.800 442.014, 482.063 442.003, 482.750 442.399 C 484.486 443.398, 484.347 442.873, 481.551 437.870 C 478.598 432.586, 476.048 423.241, 475.868 417.040 L 475.737 412.500 474.936 416 C 474.136 419.495, 474.135 419.494, 474.344 415.250 L 474.553 411 466.776 411 L 459 411 458.850 416.250 L 458.700 421.500 458 417 L 457.300 412.500 456.939 418 C 456.740 421.025, 456.616 425.009, 456.662 426.854 C 456.709 428.699, 456.413 429.668, 456.006 429.009 C 455.528 428.237, 455.028 428.750, 454.602 430.451 C 454.237 431.904, 454.247 433.591, 454.624 434.200 C 455.003 434.814, 454.858 435.030, 454.301 434.686 C 453.026 433.898, 450.744 438.747, 451.648 440.325 C 452.018 440.971, 451.952 441.166, 451.502 440.759 C 451.052 440.351, 450.080 440.519, 449.342 441.131 C 447.703 442.491, 447.546 444.399, 449.155 443.405 C 449.876 442.959, 450.037 443.131, 449.585 443.862 C 449.187 444.506, 448.514 444.818, 448.089 444.555 C 447.147 443.973, 440.744 450.411, 441.507 451.173 C 441.805 451.471, 441.276 452.342, 440.332 453.107 C 438.893 454.276, 438.750 454.278, 439.447 453.120 C 439.913 452.347, 439.888 451.927, 439.389 452.165 C 438.900 452.399, 435.462 454.075, 431.749 455.889 C 419.777 461.741, 404.977 461.176, 393.322 454.421 C 388.623 451.698, 387.549 451.431, 388.613 453.250 C 389.015 453.938, 388.366 453.643, 387.172 452.595 C 384.577 450.319, 384.266 449.200, 386.750 451.077 C 387.712 451.804, 386.494 450.285, 384.042 447.700 C 379.550 442.965, 378.249 441.947, 379.633 444.250 C 380.143 445.099, 379.842 445.060, 378.692 444.128 C 376.788 442.583, 376.398 441.510, 378.130 442.580 C 378.822 443.008, 379.064 442.740, 378.755 441.889 C 378.477 441.125, 377.840 440.580, 377.339 440.679 C 376.838 440.777, 376.364 440.102, 376.285 439.179 C 376.206 438.255, 374.996 434.350, 373.596 430.500 C 372.197 426.650, 370.987 421.925, 370.908 420 L 370.763 416.500 369.931 419.500 C 369.110 422.459, 369.102 422.451, 369.330 418.905 C 369.557 415.395, 369.473 415.307, 365.781 415.163 C 363.701 415.081, 362 415.470, 362 416.026 C 362 416.596, 360.948 416.774, 359.593 416.434 C 357.252 415.846, 353.123 417.347, 351.889 419.234 C 351.553 419.747, 350.996 419.432, 350.651 418.532 C 350.284 417.576, 350.434 417.150, 351.011 417.507 C 352.454 418.399, 352.223 417.270, 350.391 414.473 C 349.505 413.122, 348.412 412.246, 347.960 412.525 C 347.508 412.804, 346.813 412.506, 346.415 411.862 C 345.937 411.088, 346.127 410.960, 346.975 411.485 C 347.837 412.017, 348.093 411.821, 347.755 410.889 C 347.477 410.125, 346.738 409.614, 346.113 409.754 C 345.487 409.894, 344.113 408.590, 343.059 406.856 L 341.142 403.704 339.458 409.497 M 593.336 420 C 593.336 424.125, 593.513 425.813, 593.728 423.750 C 593.944 421.688, 593.944 418.313, 593.728 416.250 C 593.513 414.188, 593.336 415.875, 593.336 420 M 313.328 420.500 C 313.333 424.350, 313.513 425.802, 313.730 423.728 C 313.946 421.653, 313.943 418.503, 313.722 416.728 C 313.501 414.952, 313.324 416.650, 313.328 420.500 M 339.336 421 C 339.336 425.125, 339.513 426.813, 339.728 424.750 C 339.944 422.688, 339.944 419.313, 339.728 417.250 C 339.513 415.188, 339.336 416.875, 339.336 421 M 531.071 442.141 C 528.085 443.713, 526.190 445, 526.861 445 C 528.516 445, 535.712 441.274, 536.491 440.014 C 536.836 439.456, 536.979 439.063, 536.809 439.141 C 536.639 439.219, 534.057 440.569, 531.071 442.141 M 363.875 581.500 C 363.806 581.775, 363.694 582.525, 363.625 583.167 C 363.556 583.808, 362.875 584.542, 362.111 584.796 C 361.162 585.113, 360.974 584.822, 361.515 583.880 C 361.952 583.121, 360.890 583.822, 359.155 585.437 C 357.420 587.052, 356 588.593, 356 588.861 C 356 589.129, 357.125 588.292, 358.500 587 C 362.848 582.916, 361.199 586.388, 356.689 590.814 C 354.318 593.141, 351.996 594.697, 351.529 594.273 C 351.062 593.848, 350.966 594.002, 351.316 594.616 C 351.915 595.666, 348.293 599.852, 347.355 599.196 C 347.116 599.028, 345.701 599.849, 344.210 601.020 C 342.720 602.190, 342.175 602.822, 343 602.422 C 343.825 602.023, 345.392 600.977, 346.483 600.098 C 348.349 598.594, 348.383 598.606, 347.062 600.308 C 344.946 603.034, 337.223 607.256, 335.875 606.423 C 335.095 605.941, 334.957 606.121, 335.471 606.953 C 336.026 607.851, 335.710 608.054, 334.375 607.658 C 333.344 607.352, 330.925 607.960, 329 609.009 C 324.796 611.300, 325.806 611.669, 330.143 609.426 C 331.816 608.561, 333.434 608.100, 333.737 608.404 C 334.337 609.004, 327.564 612.163, 308.703 620.081 C 291.108 627.468, 281.683 631.695, 271.706 636.675 C 266.870 639.089, 262.413 640.755, 261.802 640.377 C 261.166 639.984, 260.970 640.143, 261.344 640.748 C 261.703 641.329, 260.397 642.748, 258.441 643.902 C 254.336 646.324, 253.602 646.486, 254.601 644.750 C 255.019 644.024, 254.939 643.849, 254.410 644.333 C 253.910 644.792, 253.500 645.654, 253.500 646.250 C 253.500 646.846, 252.875 647.542, 252.111 647.796 C 251.161 648.113, 250.974 647.823, 251.521 646.880 C 251.993 646.065, 251.948 645.841, 251.410 646.333 C 250.910 646.792, 250.500 647.654, 250.500 648.250 C 250.500 648.846, 249.875 649.542, 249.111 649.796 C 248.161 650.113, 247.974 649.823, 248.521 648.880 C 248.993 648.065, 248.948 647.841, 248.410 648.333 C 247.910 648.792, 247.493 649.467, 247.485 649.833 C 247.456 651.087, 245.883 653, 244.882 653 C 244.332 653, 244.206 652.438, 244.601 651.750 C 245.019 651.024, 244.939 650.849, 244.410 651.333 C 243.910 651.792, 243.493 652.467, 243.485 652.833 C 243.455 654.119, 241.872 656, 240.819 656 C 240.178 656, 240.295 655.303, 241.110 654.250 C 242.207 652.833, 242.039 652.864, 240.227 654.411 C 238.995 655.461, 238.216 656.550, 238.496 656.829 C 239.167 657.500, 235.973 661, 234.690 661 C 234.140 661, 234.531 659.987, 235.559 658.750 C 236.587 657.513, 234.407 659.412, 230.714 662.971 C 227.021 666.530, 224 669.646, 224 669.895 C 224 670.145, 225.125 669.292, 226.500 668 C 227.875 666.708, 229 666.096, 229 666.639 C 229 667.829, 223.535 673.201, 222.343 673.181 C 221.880 673.173, 221.275 673.426, 221 673.744 C 220.725 674.061, 221.063 673.997, 221.750 673.601 C 222.438 673.206, 223 673.332, 223 673.882 C 223 674.979, 221.076 676.434, 219.500 676.530 C 218.950 676.564, 218.619 677.151, 218.764 677.836 C 219.141 679.620, 217.065 683.158, 216.019 682.512 C 215.535 682.212, 214.813 682.494, 214.415 683.138 C 213.963 683.869, 214.124 684.041, 214.845 683.595 C 216.591 682.517, 216.299 683.456, 212.615 690.775 C 206.693 702.542, 204.097 713.378, 200.579 741 C 198.611 756.452, 197.803 765.344, 197.734 772.295 C 197.666 779.159, 199.863 782.861, 205.094 784.694 C 207.694 785.605, 264.288 785.900, 444.250 785.944 C 623.170 785.986, 680 786.281, 680 787.167 C 680 787.808, 680.297 788.036, 680.661 787.673 C 681.631 786.702, 678.018 783.056, 676.618 783.593 C 675.961 783.845, 674.091 782.579, 672.462 780.779 L 669.500 777.507 672.500 780.004 L 675.500 782.500 673.079 779.754 C 671.748 778.244, 670.435 777.232, 670.161 777.506 C 669.526 778.141, 666 774.989, 666 773.786 C 666 773.289, 666.563 773.206, 667.250 773.601 C 667.976 774.019, 668.151 773.939, 667.667 773.410 C 667.208 772.910, 666.533 772.493, 666.167 772.485 C 664.913 772.456, 663 770.883, 663 769.882 C 663 769.332, 663.520 769.203, 664.155 769.595 C 664.876 770.041, 665.037 769.869, 664.585 769.138 C 664.187 768.494, 663.434 768.232, 662.912 768.555 C 661.464 769.450, 656.147 757.220, 654.454 749.101 C 653.201 743.092, 652.996 732.825, 653.225 687.539 C 653.376 657.647, 653.225 633.634, 652.889 634.178 C 652.267 635.185, 650.531 632.180, 650.866 630.676 C 650.967 630.222, 650.563 630.152, 649.969 630.519 C 648.427 631.472, 637.878 627.006, 638.665 625.733 C 639.041 625.125, 638.825 624.990, 638.146 625.410 C 636.510 626.421, 632.830 625.084, 633.640 623.773 C 634.060 623.094, 633.837 622.983, 633.040 623.475 C 631.514 624.418, 597.800 610.133, 598.579 608.873 C 598.867 608.405, 598.458 608.271, 597.668 608.574 C 594.613 609.746, 576 599.534, 576 596.685 C 576 596.093, 577.484 597.046, 579.298 598.804 C 581.111 600.562, 582.927 602, 583.332 602 C 583.738 602, 582.502 600.624, 580.586 598.942 C 578.670 597.259, 576.742 595.882, 576.301 595.881 C 575.183 595.878, 571 591.843, 571 590.767 C 571 590.280, 571.563 590.201, 572.250 590.591 C 572.938 590.981, 571.949 589.658, 570.054 587.650 C 565.785 583.129, 564.537 582.794, 568.561 587.250 L 571.496 590.500 567.797 587.102 C 565.763 585.233, 564.189 583.208, 564.299 582.602 C 564.523 581.372, 562.690 581.321, 559.125 582.457 C 557.270 583.048, 556.929 582.917, 557.567 581.857 C 558.250 580.722, 558.109 580.723, 556.703 581.863 C 555.778 582.613, 555.219 583.546, 555.460 583.936 C 556.154 585.058, 539.493 601.151, 538.537 600.281 C 538.066 599.852, 537.953 599.982, 538.289 600.572 C 538.624 601.161, 534.758 605.661, 529.699 610.572 L 520.500 619.500 528.995 610.500 C 533.667 605.550, 529.729 609.145, 520.245 618.489 C 510.760 627.833, 503 635.699, 503 635.968 C 503 636.238, 507.050 632.427, 512 627.500 C 516.950 622.573, 521 618.988, 521 619.533 C 521 620.825, 490.204 651.577, 489.238 651.250 C 488.832 651.112, 488.493 651.337, 488.485 651.750 C 488.455 653.203, 486.852 655.027, 486.044 654.527 C 485.595 654.249, 484.613 654.778, 483.863 655.703 C 482.926 656.859, 482.890 657.149, 483.750 656.633 C 485.396 655.644, 485.331 656.560, 483.562 659.285 C 482.772 660.503, 481.467 663.525, 480.663 666 C 479.859 668.475, 476.207 679.826, 472.546 691.225 C 468.885 702.624, 465.516 712.181, 465.058 712.464 C 463.209 713.607, 461.697 709.781, 451.637 678.500 C 448.630 669.150, 445.864 660.600, 445.491 659.500 C 444.924 657.833, 445.006 657.750, 445.982 659 C 447.022 660.333, 447.107 660.333, 446.743 659 C 446.518 658.175, 445.921 657.493, 445.417 657.485 C 443.920 657.460, 442 655.961, 442 654.819 C 442 654.185, 442.707 654.310, 443.750 655.128 C 445.341 656.376, 445.374 656.339, 444.107 654.726 C 443.342 653.750, 442.483 653.184, 442.200 653.467 C 441.532 654.135, 439 652.039, 439 650.819 C 439 650.303, 439.563 650.211, 440.250 650.613 C 440.938 651.015, 440.652 650.377, 439.616 649.195 C 438.580 648.014, 437.419 647.241, 437.035 647.479 C 436.229 647.976, 426.424 638.283, 426.650 637.212 C 426.733 636.820, 426.474 636.586, 426.075 636.692 C 425.677 636.797, 420.209 631.622, 413.925 625.192 L 402.500 613.500 414 624.495 C 420.325 630.542, 413.578 623.455, 399.007 608.745 C 384.436 594.035, 372.291 582, 372.019 582 C 371.746 582, 378.713 589.200, 387.500 598 C 396.287 606.800, 403.026 614, 402.476 614 C 401.925 614, 394.731 607.204, 386.487 598.897 C 378.244 590.591, 370.052 583.166, 368.282 582.397 C 364.792 580.882, 364.066 580.734, 363.875 581.500 M 460.280 598.736 C 462.909 598.943, 466.959 598.940, 469.280 598.731 C 471.601 598.521, 469.450 598.352, 464.500 598.355 C 459.550 598.358, 457.651 598.530, 460.280 598.736 M 679.969 692.812 C 679.952 693.191, 679.965 705.119, 679.999 719.320 C 680.063 746.143, 679.981 745.473, 684.542 756.414 C 685.147 757.866, 685.020 758.131, 684.015 757.510 C 683.128 756.961, 682.930 757.077, 683.415 757.862 C 683.813 758.506, 684.488 758.816, 684.916 758.552 C 685.854 757.972, 691.342 763.508, 690.848 764.535 C 690.656 764.931, 691.625 765.929, 693 766.751 L 695.500 768.246 693 766.049 C 690.289 763.667, 690.506 763.691, 696.500 766.439 C 701.647 768.799, 715.704 769.615, 748.500 769.457 C 773.606 769.336, 774.430 769.242, 783.414 765.465 C 784.868 764.854, 785.131 764.979, 784.510 765.985 C 783.961 766.872, 784.077 767.070, 784.862 766.585 C 785.506 766.187, 785.819 765.516, 785.558 765.093 C 785.027 764.234, 792.028 757.058, 793.333 757.125 C 793.792 757.148, 794.467 756.832, 794.833 756.423 C 795.200 756.014, 794.861 756.050, 794.080 756.504 C 792.972 757.147, 792.837 756.907, 793.465 755.414 C 797.359 746.151, 797.437 745.531, 797.969 719.500 C 798.261 705.200, 798.136 693.050, 797.691 692.500 C 797.246 691.950, 797.212 692.369, 797.617 693.430 C 798.323 695.285, 798.257 695.293, 795.926 693.655 C 793.705 692.094, 788.702 691.957, 736.750 692.037 C 705.538 692.085, 679.986 692.434, 679.969 692.812 M 678.423 715.500 C 678.424 727.050, 678.570 731.638, 678.747 725.696 C 678.924 719.753, 678.923 710.303, 678.745 704.696 C 678.567 699.088, 678.422 703.950, 678.423 715.500 M 799.429 718.500 C 799.429 731.150, 799.573 736.187, 799.747 729.694 C 799.922 723.200, 799.921 712.850, 799.746 706.694 C 799.571 700.537, 799.428 705.850, 799.429 718.500 M 325.330 787.750 C 390.137 787.892, 495.887 787.892, 560.330 787.750 C 624.774 787.608, 571.750 787.492, 442.500 787.492 C 313.250 787.492, 260.524 787.608, 325.330 787.750" stroke="none" fill="#2a38b7" fill-rule="evenodd"/></svg>