<svg xmlns="http://www.w3.org/2000/svg" width="1024" height="1024" viewBox="0 0 1024 1024" version="1.1"><path d="M 528 142.679 C 507.196 146.246, 489.364 159.244, 480.228 177.500 C 473.157 191.629, 473.578 185.683, 473.211 276.500 C 472.991 330.866, 473.243 361.645, 473.959 367.832 C 477.091 394.918, 495.365 417.151, 519.644 423.415 C 523.614 424.439, 529.454 424.944, 536.144 424.842 L 546.500 424.683 534.500 423.983 C 517.263 422.978, 507.197 419.207, 496.415 409.716 C 486.800 401.253, 478.372 386.506, 475.999 373.995 C 475.442 371.060, 475.023 333.032, 474.992 282.732 C 474.933 187.042, 474.638 191.707, 481.669 177.084 C 488.037 163.841, 503.179 151.123, 519 145.732 L 525.500 143.517 669.837 143.220 C 831.936 142.887, 824.295 142.583, 839.553 149.969 C 855.197 157.541, 866.836 171.041, 872.771 188.500 L 875.490 196.500 875.803 280 C 876.160 375.321, 876.150 375.474, 868.715 390.329 C 860.445 406.853, 842.048 420.427, 824.500 422.953 C 820.316 423.555, 788.024 423.968, 744.218 423.980 C 680.336 423.997, 670.459 424.199, 667.218 425.549 C 664.699 426.599, 650.527 440.062, 623.267 467.299 C 597.704 492.841, 581.660 508.129, 579.267 509.224 C 568.132 514.320, 554.982 508.708, 549.454 496.500 C 548.956 495.400, 548.283 478.525, 547.959 459 L 547.369 423.500 547.435 459.500 C 547.498 494.414, 547.565 495.621, 549.658 499.500 C 552.413 504.605, 556.502 508.477, 561.218 510.447 C 565.977 512.435, 575.006 512.439, 579.782 510.456 C 582.299 509.410, 596.581 495.880, 624 468.565 C 646.275 446.374, 665.625 427.607, 667 426.859 C 669.024 425.759, 684.537 425.405, 748.500 425 L 827.500 424.500 834.242 421.877 C 852.752 414.676, 867.070 400.612, 872.964 383.843 C 876.761 373.040, 876.985 367.477, 876.992 283.708 C 877.001 191.669, 877.095 193.048, 869.763 178.102 C 862.471 163.239, 848.621 151.377, 831.490 145.324 L 823.500 142.500 677 142.375 C 596.425 142.306, 529.375 142.443, 528 142.679 M 531.203 176.102 C 524.553 177.226, 520.956 179.078, 515.301 184.290 C 510.098 189.086, 507.686 193.425, 506.123 200.799 C 504.635 207.823, 504.566 355.733, 506.047 364.862 C 507.901 376.283, 514.101 385.003, 524 390.109 C 528.049 392.198, 530.255 392.484, 546 392.965 C 562.285 393.463, 563.809 393.674, 567.956 396 C 570.406 397.375, 573.781 400.450, 575.456 402.834 L 578.500 407.168 578.818 436.584 C 578.992 452.763, 579.458 466, 579.853 466 C 580.247 466, 594.954 451.582, 612.535 433.959 C 643.348 403.072, 649.930 397.286, 657.153 394.733 C 659.574 393.877, 682.780 393.404, 741 393.025 L 821.500 392.500 826.540 389.839 C 832.672 386.603, 839.426 379.479, 842.339 373.176 C 844.491 368.518, 844.501 368.172, 844.772 285.347 C 845.041 203.289, 845.017 202.121, 842.968 196.645 C 840.078 188.920, 833.552 181.989, 825.800 178.409 L 819.500 175.500 678 175.354 C 598.584 175.271, 534.176 175.600, 531.203 176.102 M 524.435 179.378 C 513.446 184.495, 508.412 191.857, 506.803 205.163 C 506.228 209.926, 506.001 243.851, 506.240 289.321 C 506.699 376.164, 506.280 371.768, 515.002 381.312 C 522.888 389.940, 527.015 391.294, 547.500 391.974 C 565.608 392.575, 567.548 393.058, 573.297 398.395 C 574.835 399.823, 576.963 402.906, 578.025 405.246 C 579.784 409.120, 579.958 411.997, 579.978 437.479 L 580 465.459 612.750 432.371 C 642.528 402.285, 646.133 398.975, 652.477 395.891 L 659.455 392.500 739.977 392 L 820.500 391.500 825.500 389.196 C 833.063 385.710, 839.583 378.183, 842.037 370.105 C 844.003 363.631, 844.049 361.283, 843.778 281.478 L 843.500 199.500 841.120 194.708 C 837.568 187.555, 831.290 181.626, 824.631 179.135 L 818.925 177 674.212 177.010 L 529.500 177.020 524.435 179.378 M 577.460 264.004 C 572.986 265.394, 565.996 271.800, 563.886 276.444 C 560.065 284.857, 562.172 296.018, 568.840 302.686 C 576.015 309.861, 589.111 311.112, 597.240 305.399 C 611.441 295.418, 611.339 275.871, 597.038 266.407 C 592.616 263.480, 582.963 262.296, 577.460 264.004 M 669 264.314 C 664.169 265.845, 656.424 273.809, 655.089 278.619 C 651.815 290.411, 656.268 301.463, 666.309 306.467 C 686.851 316.703, 707.810 294.263, 696.370 274.284 C 690.971 264.857, 679.951 260.842, 669 264.314 M 761.147 264.145 C 756.505 265.482, 748.427 273.798, 747.089 278.619 C 744.169 289.136, 747.578 299.545, 755.707 304.929 C 769.436 314.023, 787.327 307.111, 790.819 291.362 C 794.729 273.733, 778.752 259.078, 761.147 264.145 M 578.634 265.031 C 567.189 268.459, 560.311 281.795, 564.156 293.101 C 568.249 305.135, 582.157 311.291, 593.556 306.114 C 599.501 303.413, 604.677 296.874, 606.031 290.352 C 607.828 281.697, 605.860 275.817, 599.136 269.741 C 593.411 264.569, 585.919 262.848, 578.634 265.031 M 670.764 264.996 C 662.925 267.356, 658.118 272.652, 655.935 281.335 C 652.566 294.738, 662.718 308, 676.348 308 C 688.778 308, 697.929 298.569, 697.978 285.710 C 698.033 271.191, 684.471 260.868, 670.764 264.996 M 762.634 265.031 C 754.521 267.461, 748.379 275.006, 747.334 283.824 C 745.010 303.454, 768.342 315.624, 782.968 302.410 C 785.073 300.509, 787.516 297.433, 788.397 295.575 C 790.683 290.759, 790.497 280.894, 788.029 276.057 C 783.359 266.902, 772.346 262.121, 762.634 265.031 M 339.847 328.039 C 303.622 332.268, 269.845 354.956, 249.693 388.598 C 237.705 408.610, 231.929 438.083, 234.936 463.892 C 238.951 498.349, 258.540 530.033, 288 549.721 C 300.716 558.219, 310.497 562.486, 326.868 566.678 C 336.335 569.102, 339.363 569.406, 354.500 569.449 C 369.023 569.490, 372.941 569.153, 381.387 567.135 C 423.118 557.166, 457.633 525.483, 470.367 485.460 C 474.886 471.256, 476.251 462.453, 476.251 447.500 C 476.251 414.356, 464.435 386.256, 440.510 362.500 C 413.574 335.754, 378.022 323.584, 339.847 328.039 M 340 329.078 C 324.124 330.796, 303.260 338.650, 288.522 348.457 C 269.394 361.184, 251.297 383.689, 243.471 404.480 C 237.923 419.220, 235.721 431.275, 235.612 447.500 C 235.498 464.644, 236.764 473.132, 241.538 487.221 C 260.120 542.050, 314.710 575.769, 371.500 567.496 C 399.294 563.447, 421.022 552.148, 441.500 531.093 C 471.142 500.616, 482.225 455.776, 470.414 414.112 C 467.680 404.468, 461.238 390.778, 454.834 381 C 449.013 372.114, 432.187 355.420, 422.586 349.005 C 398.064 332.622, 369.945 325.837, 340 329.078 M 348 359.726 C 312.406 363.216, 281.889 386.937, 271.102 419.500 C 254.498 469.621, 281.374 520.180, 332 534.062 C 339.082 536.004, 343.002 536.401, 355.500 536.446 C 368.550 536.493, 371.475 536.194, 378 534.148 C 404.482 525.844, 422.486 511.376, 434.505 488.743 C 441.671 475.248, 443.478 467.257, 443.490 449 C 443.496 438.994, 443.017 431.728, 442.137 428.500 C 436.885 409.238, 429.730 397.476, 414.732 383.446 C 398.901 368.637, 380.906 361.127, 358 359.768 C 354.425 359.556, 349.925 359.537, 348 359.726 M 335.208 362.980 C 330.647 364.043, 322.772 366.889, 317.708 369.305 C 283.539 385.602, 264.285 419.948, 267.987 458 C 269.209 470.568, 270.593 475.294, 276.770 488 C 281.909 498.570, 283.176 500.310, 292.431 509.511 C 307.985 524.975, 323.315 532.529, 344.600 535.217 C 383.427 540.121, 423.814 516.057, 437.377 479.938 C 449.800 446.854, 441.735 411.072, 416.273 386.307 C 404.808 375.155, 391.799 367.504, 377.500 363.504 C 367.977 360.839, 345.583 360.562, 335.208 362.980 M 268 580.989 C 241.298 584.323, 215.590 597.434, 194.459 618.493 C 171.753 641.120, 157.509 670.639, 154.061 702.211 C 153.443 707.861, 153 734.950, 153 767.003 C 153 828.007, 153.342 832.179, 159.246 843.292 C 164.910 853.953, 177.061 863.218, 189.693 866.508 C 198.330 868.758, 511.670 868.758, 520.307 866.508 C 532.984 863.206, 545.074 853.966, 550.819 843.189 C 557.093 831.417, 557.147 830.645, 556.726 759.115 C 556.361 697.079, 556.260 694.156, 554.201 685.887 C 547.514 659.035, 535.849 637.890, 517.534 619.424 C 495.144 596.850, 468.314 583.578, 440 581.070 C 425.249 579.763, 413.698 581.269, 394.336 587.024 C 374.120 593.032, 368.741 593.983, 354.881 593.992 C 341.883 594.002, 330.222 592.051, 316.175 587.519 C 296.634 581.214, 282.040 579.236, 268 580.989 M 263.500 582.633 C 262.400 582.923, 257.960 584.021, 253.634 585.074 C 242.926 587.681, 228.146 594.139, 218.500 600.425 C 181.608 624.468, 159.532 660.832, 155.015 705 C 153.187 722.876, 154.163 825.753, 156.226 832.650 C 161.278 849.540, 175.690 862.773, 192.500 865.958 C 196.866 866.785, 242.067 867.014, 358.500 866.797 C 513.097 866.510, 518.669 866.436, 523.500 864.593 C 535.105 860.167, 545.087 851.594, 550.100 841.750 C 556.079 830.011, 556.146 829.025, 555.730 759.610 C 555.365 698.857, 555.269 696.164, 553.169 687.500 C 546.995 662.036, 537.277 642.788, 521.814 625.401 C 502.709 603.919, 479.431 590.155, 451.611 583.891 C 443.977 582.172, 440.068 581.909, 427.500 582.264 C 411.512 582.715, 413.711 582.244, 381 592.239 C 372.771 594.754, 347.562 595.813, 337.344 594.073 C 331.143 593.017, 307.926 586.600, 300.500 583.890 C 297.371 582.748, 266.986 581.716, 263.500 582.633 M 261.500 614.898 C 243.079 619.765, 230.036 627.754, 215.030 643.366 C 200.361 658.625, 190.125 680.057, 186.891 702.281 C 186.074 707.890, 185.697 728.165, 185.703 766.125 L 185.712 821.750 188.119 826.112 C 189.695 828.969, 192.074 831.342, 195.013 832.987 L 199.500 835.500 351 835.820 C 463.563 836.057, 504.252 835.838, 509.316 834.967 C 514.954 833.997, 516.793 833.165, 519.962 830.147 C 522.391 827.834, 524.220 824.910, 524.961 822.151 C 525.810 818.993, 526.031 802.026, 525.766 760.151 L 525.402 702.500 522.794 692.890 C 512.470 654.845, 487.625 627.638, 453 616.461 C 446.303 614.299, 441.943 613.617, 432.448 613.245 C 419.122 612.722, 417.248 613.104, 395 620.886 C 374.293 628.128, 352.937 629.666, 331 625.493 C 326.325 624.604, 315.750 621.570, 307.500 618.751 C 293.167 613.853, 291.966 613.612, 280.500 613.337 C 271.295 613.116, 266.869 613.480, 261.500 614.898 M 263.255 615.510 C 237.181 621.471, 211.769 642.443, 199.048 668.500 C 187.421 692.315, 187.009 695.627, 187.004 765.434 C 187 819.873, 187.055 821.482, 189.060 825.624 C 190.556 828.714, 192.286 830.444, 195.376 831.940 C 199.617 833.993, 200.161 834, 355.348 834 C 524.959 834, 514.578 834.358, 520.247 828.321 C 524.875 823.394, 525.173 818.787, 524.727 759.156 C 524.344 707.936, 524.188 703.966, 522.234 696 C 516.511 672.665, 507.473 656.431, 491.873 641.469 C 481.603 631.618, 476.495 628.050, 464.678 622.474 C 452.111 616.542, 441.537 614, 429.439 614 C 420.236 614, 418.760 614.317, 402.106 619.875 C 379.162 627.532, 367.838 629.447, 350.003 628.685 C 333.818 627.994, 326.274 626.445, 306.500 619.753 C 292.607 615.052, 290.688 614.655, 280.500 614.380 C 273.507 614.191, 267.225 614.602, 263.255 615.510" stroke="none" fill="#052373" fill-rule="evenodd"/><path d="M 523.036 144.143 C 524.104 144.891, 523.553 145.011, 521 144.586 C 518.864 144.230, 518.024 144.340, 518.845 144.869 C 519.842 145.511, 519.506 145.907, 517.549 146.398 C 516.096 146.763, 514.409 146.753, 513.800 146.376 C 513.078 145.930, 512.977 146.154, 513.510 147.015 C 514.109 147.985, 513.868 148.164, 512.612 147.681 C 511.668 147.319, 511.142 147.421, 511.442 147.907 C 512.145 149.043, 509.154 150.213, 507.755 149.349 C 507.079 148.931, 506.990 149.174, 507.510 150.015 C 508.109 150.985, 507.868 151.164, 506.612 150.681 C 505.668 150.319, 505.141 150.419, 505.439 150.902 C 505.738 151.386, 504.878 152.505, 503.527 153.391 C 500.579 155.322, 499.629 155.439, 500.601 153.750 C 501.019 153.024, 500.939 152.849, 500.410 153.333 C 499.910 153.792, 499.574 154.467, 499.665 154.833 C 499.903 155.795, 497.921 158, 496.819 158 C 496.303 158, 496.211 157.438, 496.613 156.750 C 497.015 156.063, 496.377 156.348, 495.195 157.384 C 494.014 158.420, 493.248 159.592, 493.493 159.988 C 494.049 160.888, 489.549 165.216, 488.818 164.485 C 488.525 164.192, 487.658 164.724, 486.893 165.668 C 485.971 166.803, 485.923 167.130, 486.750 166.633 C 487.438 166.220, 488 166.303, 488 166.819 C 488 168.081, 485.458 170.124, 484.758 169.425 C 484.451 169.118, 484.268 169.684, 484.350 170.683 C 484.433 171.683, 483.954 172.393, 483.286 172.262 C 482.537 172.115, 482.315 172.657, 482.706 173.676 C 483.128 174.777, 482.953 175.089, 482.181 174.612 C 481.401 174.130, 481.238 174.456, 481.681 175.612 C 482.125 176.769, 481.962 177.095, 481.181 176.612 C 480.401 176.130, 480.238 176.456, 480.681 177.612 C 481.164 178.868, 480.985 179.109, 480.015 178.510 C 479.129 177.962, 478.930 178.077, 479.413 178.858 C 479.809 179.501, 479.220 182.470, 478.102 185.457 C 476.984 188.444, 475.717 194.176, 475.285 198.194 C 474.853 202.212, 474.725 243.750, 475 290.500 L 475.500 375.500 479.346 384.500 C 481.461 389.450, 483.245 394.255, 483.310 395.179 C 483.375 396.102, 483.895 396.777, 484.464 396.679 C 485.034 396.580, 485.433 397.317, 485.350 398.317 C 485.268 399.316, 485.451 399.882, 485.758 399.575 C 486.458 398.876, 489 400.919, 489 402.181 C 489 402.697, 488.438 402.780, 487.750 402.367 C 486.890 401.851, 486.926 402.141, 487.863 403.297 C 488.613 404.222, 489.557 404.774, 489.960 404.525 C 490.859 403.969, 496.236 409.430, 495.508 410.159 C 495.222 410.445, 495.968 411.539, 497.166 412.589 C 498.364 413.640, 499.015 413.938, 498.613 413.250 C 498.211 412.562, 498.303 412, 498.819 412 C 500.277 412, 502.068 414.589, 501.241 415.502 C 500.834 415.952, 501.053 416.003, 501.729 415.614 C 503.270 414.729, 507.261 416.768, 506.476 418.039 C 506.148 418.569, 506.643 418.691, 507.612 418.319 C 508.562 417.954, 509.074 418.071, 508.760 418.580 C 508.447 419.086, 509.161 419.580, 510.345 419.679 C 511.530 419.777, 515.650 420.764, 519.500 421.871 C 524.266 423.242, 529.612 423.903, 536.250 423.942 C 543.344 423.984, 546.004 424.341, 546.015 425.250 C 546.026 426.101, 546.326 426.034, 546.956 425.037 C 547.538 424.117, 548.066 436.917, 548.379 459.537 C 548.891 496.555, 549.047 500.089, 550.141 499.413 C 550.760 499.030, 554 503.320, 554 504.524 C 554 504.851, 553.438 504.789, 552.750 504.387 C 552.063 503.985, 552.357 504.634, 553.405 505.828 C 555.377 508.077, 556.582 508.751, 555.500 507 C 554.645 505.617, 554.856 505.682, 560.419 508.504 C 566.136 511.404, 573.177 511.789, 578.654 509.500 C 582.970 507.697, 583.326 507.664, 582.405 509.155 C 581.959 509.876, 582.131 510.037, 582.862 509.585 C 583.506 509.187, 583.814 508.508, 583.547 508.076 C 582.878 506.993, 587.639 502.659, 588.746 503.343 C 589.238 503.647, 594.109 499.307, 599.570 493.698 L 609.500 483.500 599.250 493.481 C 593.612 498.971, 589 503.019, 589 502.476 C 589 501.264, 661.167 429, 662.378 429 C 662.855 429, 662.635 429.787, 661.890 430.750 C 660.786 432.175, 660.950 432.146, 662.767 430.595 C 665.055 428.643, 665.790 427.394, 664 428.500 C 661.669 429.941, 663.239 427.889, 665.705 426.273 C 668.213 424.629, 674.178 424.450, 747.955 423.806 C 825.506 423.128, 833.301 422.968, 832.397 422.064 C 831.674 421.340, 846.152 414.976, 847.137 415.585 C 847.639 415.895, 847.926 415.609, 847.775 414.949 C 847.624 414.290, 848.125 413.523, 848.889 413.245 C 849.821 412.907, 850.017 413.163, 849.485 414.025 C 848.960 414.873, 849.088 415.063, 849.862 414.585 C 850.506 414.187, 850.805 413.494, 850.527 413.044 C 849.850 411.949, 852.670 409.678, 853.823 410.390 C 854.323 410.700, 855.538 410.063, 856.521 408.976 C 857.505 407.889, 857.945 407, 857.500 407 C 857.055 407, 857.488 406.118, 858.464 405.040 C 859.440 403.962, 860.747 403.174, 861.369 403.290 C 861.991 403.405, 862.372 402.890, 862.215 402.145 C 861.871 400.507, 863.917 397.830, 865 398.500 C 865.426 398.763, 865.712 398.196, 865.637 397.239 C 865.561 396.277, 866.092 395.623, 866.824 395.775 C 867.553 395.926, 867.882 395.618, 867.556 395.090 C 866.708 393.718, 871.154 384.977, 872.330 385.704 C 872.868 386.037, 873.035 385.865, 872.700 385.323 C 872.365 384.781, 872.989 379.939, 874.088 374.562 C 876.006 365.171, 876.073 361.474, 875.779 280.643 L 875.473 196.500 873.124 189.500 C 871.832 185.650, 869.908 180.797, 868.850 178.716 C 867.791 176.634, 867.236 174.427, 867.617 173.811 C 868.027 173.148, 867.859 172.969, 867.205 173.373 C 866.085 174.066, 863.522 170.533, 863.494 168.259 C 863.486 167.576, 863.099 167.061, 862.635 167.115 C 861.366 167.261, 853.015 158.785, 853.560 157.903 C 854.139 156.966, 852.040 155.562, 850.003 155.526 C 849.179 155.512, 848.504 154.975, 848.503 154.333 C 848.501 153.692, 848.090 152.792, 847.590 152.333 C 847.052 151.841, 847.007 152.065, 847.479 152.880 C 848.029 153.829, 847.845 154.102, 846.889 153.755 C 846.125 153.477, 845.607 152.760, 845.738 152.161 C 845.875 151.532, 845.278 151.340, 844.324 151.706 C 843.127 152.165, 842.897 151.975, 843.490 151.015 C 844.005 150.184, 843.920 149.931, 843.264 150.337 C 842.003 151.116, 831.627 146.706, 832.550 145.783 C 832.906 145.427, 832.141 145.369, 830.849 145.654 C 829.330 145.990, 828.936 145.861, 829.732 145.289 C 830.550 144.701, 829.709 144.309, 827.232 144.121 C 825.180 143.966, 755.566 143.676, 672.536 143.478 C 569.203 143.231, 522.034 143.441, 523.036 144.143 M 531.203 176.102 C 525.117 177.130, 519.663 179.646, 520.519 181.031 C 520.841 181.551, 520.484 181.739, 519.726 181.448 C 517.831 180.721, 508.648 190.641, 509.401 192.603 C 509.718 193.428, 509.565 193.849, 509.061 193.537 C 507.777 192.744, 506.737 196.545, 507.498 199.250 C 507.928 200.778, 507.835 201.074, 507.209 200.173 C 506.550 199.225, 506.106 199.938, 505.654 202.673 C 504.604 209.030, 504.914 357.902, 505.991 364.500 C 507.146 371.573, 508.883 376.190, 510.105 375.435 C 510.584 375.139, 510.721 375.565, 510.407 376.382 C 509.574 378.551, 517.500 386.700, 523.460 389.803 C 528.176 392.258, 529.624 392.462, 546 392.980 C 559.985 393.422, 564.147 393.884, 566.720 395.277 C 568.491 396.236, 570.495 396.903, 571.174 396.760 C 571.853 396.617, 572.436 396.950, 572.470 397.500 C 572.576 399.241, 574.104 401.053, 575 400.500 C 575.474 400.207, 576.187 400.494, 576.585 401.138 C 577.063 401.912, 576.873 402.040, 576.025 401.515 C 575.163 400.983, 574.907 401.179, 575.245 402.111 C 575.523 402.875, 576.240 403.393, 576.839 403.262 C 577.468 403.125, 577.660 403.722, 577.294 404.676 C 576.945 405.585, 577.076 406.071, 577.584 405.757 C 578.092 405.443, 578.528 406.382, 578.552 407.843 C 578.576 409.304, 578.687 422.988, 578.798 438.250 C 578.909 453.512, 579.371 466, 579.824 466 C 580.930 466, 608.500 438.161, 608.500 437.045 C 608.500 436.562, 608.910 435.792, 609.410 435.333 C 609.949 434.840, 609.994 435.112, 609.521 436 C 609.081 436.825, 611.462 434.835, 614.813 431.578 C 618.164 428.321, 620.630 425.171, 620.292 424.578 C 619.955 423.985, 620.060 423.846, 620.524 424.268 C 621.295 424.968, 647.323 400.378, 647.447 398.833 C 647.476 398.467, 647.910 397.792, 648.410 397.333 C 648.948 396.841, 648.993 397.065, 648.521 397.880 C 647.971 398.829, 648.155 399.102, 649.111 398.755 C 649.875 398.477, 650.393 397.760, 650.262 397.161 C 650.125 396.532, 650.722 396.340, 651.676 396.706 C 652.777 397.128, 653.089 396.953, 652.612 396.181 C 652.130 395.401, 652.456 395.238, 653.612 395.681 C 654.562 396.046, 655.074 395.929, 654.760 395.420 C 654.447 394.914, 655.386 394.353, 656.845 394.174 C 658.305 393.994, 695.950 393.544, 740.500 393.174 C 785.050 392.803, 822.285 392.115, 823.244 391.645 C 824.204 391.175, 824.743 390.393, 824.442 389.907 C 824.142 389.421, 824.668 389.319, 825.612 389.681 C 826.769 390.125, 827.095 389.962, 826.612 389.181 C 826.130 388.401, 826.456 388.238, 827.612 388.681 C 828.868 389.164, 829.109 388.985, 828.510 388.015 C 827.943 387.099, 828.075 386.928, 828.939 387.462 C 830.493 388.423, 839.249 380.092, 838.563 378.305 C 838.302 377.622, 838.587 376.755, 839.198 376.378 C 839.911 375.937, 840.048 376.195, 839.580 377.095 C 839.180 377.868, 839.574 377.608, 840.456 376.517 C 844.910 371.014, 845.001 369.150, 844.986 283.568 C 844.979 238.981, 844.703 201.493, 844.373 200.261 C 844.043 199.030, 843.304 198.312, 842.732 198.666 C 842.125 199.041, 841.991 198.824, 842.410 198.146 C 843.303 196.701, 842.155 192.786, 841.041 193.475 C 840.593 193.752, 840.288 193.196, 840.363 192.239 C 840.439 191.277, 839.908 190.623, 839.176 190.775 C 838.424 190.931, 838.148 190.569, 838.538 189.938 C 840.024 187.535, 828.341 178.053, 825.816 179.614 C 825.167 180.015, 824.967 179.862, 825.344 179.252 C 825.711 178.659, 824.571 177.603, 822.749 176.847 C 820.083 175.742, 794.128 175.474, 678 175.354 C 598.584 175.271, 534.176 175.600, 531.203 176.102 M 506.474 280 C 506.474 319.875, 506.598 336.188, 506.750 316.250 C 506.901 296.313, 506.901 263.688, 506.750 243.750 C 506.598 223.813, 506.474 240.125, 506.474 280 M 843.441 269 C 843.441 284.675, 843.579 291.087, 843.748 283.250 C 843.917 275.412, 843.917 262.587, 843.748 254.750 C 843.579 246.912, 843.441 253.325, 843.441 269 M 577.500 265.529 C 572.614 267.289, 572.719 267.283, 573.601 265.750 C 574.019 265.024, 573.939 264.849, 573.410 265.333 C 572.910 265.792, 572.493 266.467, 572.485 266.833 C 572.455 268.119, 570.872 270, 569.819 270 C 569.173 270, 569.283 269.311, 570.097 268.250 C 570.835 267.288, 570.216 267.591, 568.720 268.924 C 565.921 271.419, 565.135 272.653, 567.130 271.420 C 567.751 271.036, 568.066 271.122, 567.829 271.611 C 562.958 281.665, 562.780 282.324, 563.441 287.897 C 563.806 290.978, 564.193 294.475, 564.302 295.667 C 564.411 296.858, 564.684 297.650, 564.908 297.425 C 565.495 296.838, 568 299.070, 568 300.181 C 568 300.697, 567.438 300.794, 566.750 300.399 C 566.024 299.981, 565.849 300.061, 566.333 300.590 C 566.792 301.090, 567.467 301.507, 567.833 301.515 C 569.414 301.552, 570.978 303.227, 570.362 304.224 C 569.966 304.864, 570.155 305.022, 570.825 304.608 C 572.217 303.748, 576.261 305.769, 575.527 306.957 C 575.235 307.428, 576.010 307.591, 577.249 307.320 C 578.757 306.989, 579.085 307.124, 578.241 307.728 C 576.275 309.136, 589.004 307.971, 592.856 306.390 C 594.702 305.633, 596.727 305.307, 597.356 305.667 C 597.985 306.026, 598.171 305.957, 597.768 305.512 C 596.928 304.583, 604.019 296.359, 605.302 296.775 C 605.768 296.926, 605.900 296.648, 605.597 296.157 C 605.294 295.666, 605.716 291.761, 606.535 287.478 C 607.355 283.196, 607.795 279.461, 607.513 279.179 C 607.231 278.897, 606.980 279.529, 606.956 280.583 C 606.932 281.637, 606.282 280.730, 605.511 278.566 C 604.740 276.402, 604.382 274.152, 604.715 273.566 C 605.048 272.980, 604.941 272.845, 604.476 273.268 C 603.371 274.272, 596.891 267.985, 597.693 266.687 C 598.032 266.139, 597.872 265.961, 597.338 266.291 C 596.805 266.621, 594.598 266.260, 592.434 265.489 C 587.406 263.698, 582.547 263.711, 577.500 265.529 M 668.643 265.232 C 668.904 265.654, 668.903 266, 668.641 266 C 668.378 266, 667.378 266.301, 666.418 266.670 C 665.100 267.176, 664.874 266.992, 665.496 265.920 C 665.985 265.078, 665.950 264.839, 665.410 265.333 C 664.910 265.792, 664.500 266.654, 664.500 267.250 C 664.500 267.846, 663.875 268.542, 663.111 268.796 C 662.167 269.111, 661.972 268.817, 662.502 267.880 C 662.931 267.121, 662.436 267.299, 661.402 268.275 C 660.368 269.251, 659.517 270.824, 659.511 271.772 C 659.505 272.720, 658.975 273.496, 658.333 273.497 C 657.692 273.499, 656.792 273.910, 656.333 274.410 C 655.839 274.950, 656.078 274.985, 656.920 274.496 C 658 273.869, 658.175 274.101, 657.652 275.465 C 655.303 281.587, 654.752 286.414, 655.857 291.200 C 656.489 293.939, 656.747 296.601, 656.429 297.115 C 656.111 297.629, 656.447 297.926, 657.176 297.775 C 657.925 297.619, 658.501 298.369, 658.501 299.500 C 658.502 300.600, 658.952 301.507, 659.501 301.515 C 661.156 301.541, 663.067 303.082, 662.527 303.956 C 662.249 304.406, 662.804 304.712, 663.761 304.637 C 664.717 304.562, 665.393 305.046, 665.262 305.714 C 665.115 306.463, 665.657 306.685, 666.676 306.294 C 667.719 305.894, 668.083 306.057, 667.663 306.737 C 667.235 307.429, 667.800 307.637, 669.249 307.320 C 671.109 306.912, 671.239 307.027, 670 307.979 C 668.743 308.945, 668.823 309.047, 670.500 308.612 C 671.600 308.327, 675.493 307.960, 679.152 307.797 C 682.811 307.634, 685.597 307.163, 685.343 306.750 C 685.089 306.337, 685.278 306, 685.761 306 C 686.244 306, 688.462 304.441, 690.688 302.535 C 692.915 300.629, 695.093 299.392, 695.529 299.785 C 695.964 300.178, 696.026 299.985, 695.667 299.356 C 695.307 298.727, 695.685 296.604, 696.507 294.638 C 698.386 290.140, 698.382 280.293, 696.500 277 C 694.750 273.939, 694.619 272.646, 696.155 273.595 C 696.892 274.051, 697.037 273.868, 696.554 273.088 C 696.139 272.416, 695.560 272.106, 695.268 272.399 C 694.976 272.691, 692.915 271.371, 690.688 269.465 C 688.462 267.559, 686.159 265.993, 685.570 265.985 C 684.964 265.976, 685.047 265.622, 685.761 265.169 C 686.455 264.728, 682.781 264.389, 677.596 264.416 C 672.411 264.442, 668.382 264.809, 668.643 265.232 M 761.500 265.475 C 756.628 267.296, 756.715 267.290, 757.601 265.750 C 758.019 265.024, 757.939 264.849, 757.410 265.333 C 756.910 265.792, 756.493 266.467, 756.485 266.833 C 756.456 268.087, 754.883 270, 753.882 270 C 753.332 270, 753.200 269.438, 753.588 268.750 C 754.118 267.811, 753.949 267.820, 752.908 268.788 C 752.147 269.497, 751.518 270.847, 751.512 271.788 C 751.505 272.730, 750.904 273.376, 750.176 273.225 C 749.447 273.074, 749.085 273.329, 749.372 273.792 C 749.658 274.255, 749.200 276.629, 748.353 279.067 C 747.299 282.104, 747.021 285.075, 747.472 288.500 C 747.833 291.250, 748.212 294.475, 748.314 295.667 C 748.417 296.858, 748.894 297.758, 749.375 297.667 C 749.856 297.575, 750.477 298.125, 750.755 298.889 C 751.093 299.821, 750.837 300.017, 749.975 299.485 C 749.127 298.960, 748.937 299.088, 749.415 299.862 C 749.813 300.506, 750.506 300.805, 750.956 300.527 C 751.846 299.977, 753.773 301.900, 753.924 303.489 C 753.975 304.034, 754.576 304.484, 755.259 304.489 C 757.803 304.511, 763.131 307.301, 761.983 308.011 C 759.217 309.720, 774.392 307.481, 779.414 305.439 C 780.862 304.849, 781.129 304.982, 780.510 305.985 C 779.949 306.892, 780.076 307.071, 780.912 306.554 C 781.584 306.139, 781.872 305.538, 781.553 305.219 C 780.761 304.428, 786.108 298.949, 787.084 299.552 C 787.512 299.816, 788.187 299.506, 788.585 298.862 C 789.063 298.088, 788.873 297.960, 788.025 298.485 C 787.163 299.017, 786.907 298.821, 787.245 297.889 C 787.523 297.125, 788.210 296.597, 788.772 296.716 C 789.346 296.837, 789.551 296.001, 789.240 294.809 C 788.935 293.642, 789.093 292.940, 789.592 293.248 C 790.106 293.566, 790.500 290.421, 790.500 286 C 790.500 281.705, 790.228 278.359, 789.896 278.564 C 788.910 279.174, 786.916 273.952, 787.648 272.675 C 788.018 272.029, 787.944 271.842, 787.485 272.259 C 786.496 273.157, 781.840 269.069, 782.547 267.924 C 782.814 267.492, 782.506 266.813, 781.862 266.415 C 781.088 265.937, 780.960 266.127, 781.485 266.975 C 782.017 267.837, 781.821 268.093, 780.889 267.755 C 780.125 267.477, 779.575 266.856, 779.667 266.375 C 779.758 265.894, 778.858 265.417, 777.667 265.314 C 776.475 265.212, 773.250 264.870, 770.500 264.554 C 767.217 264.177, 764.127 264.493, 761.500 265.475 M 843.355 330.500 C 843.352 335.450, 843.521 337.601, 843.731 335.280 C 843.940 332.959, 843.943 328.909, 843.736 326.280 C 843.530 323.651, 843.358 325.550, 843.355 330.500 M 334.496 328.998 C 336.751 329.789, 324.732 332.190, 322.370 331.420 C 321.062 330.994, 320.886 331.089, 321.786 331.737 C 322.704 332.398, 321.848 333.024, 318.786 333.931 C 316.429 334.628, 311.418 336.503, 307.651 338.097 C 303.884 339.691, 300.327 340.702, 299.746 340.343 C 299.080 339.931, 298.992 340.179, 299.510 341.015 C 300.109 341.985, 299.868 342.164, 298.612 341.681 C 297.456 341.238, 297.130 341.401, 297.612 342.181 C 298.089 342.953, 297.777 343.128, 296.676 342.706 C 295.657 342.315, 295.115 342.537, 295.262 343.286 C 295.393 343.954, 294.717 344.438, 293.761 344.363 C 292.772 344.285, 292.303 344.682, 292.675 345.283 C 293.081 345.940, 292.703 346.100, 291.676 345.706 C 290.657 345.315, 290.115 345.537, 290.262 346.286 C 290.393 346.954, 289.730 347.440, 288.789 347.368 C 287.848 347.295, 287.173 347.745, 287.289 348.368 C 287.405 348.990, 286.717 349.438, 285.761 349.363 C 284.804 349.288, 284.237 349.574, 284.500 350 C 285.164 351.075, 282.298 353.302, 281.157 352.597 C 280.645 352.281, 279.671 352.692, 278.991 353.511 C 278.311 354.330, 278.105 355, 278.533 355 C 278.960 355, 278.481 355.916, 277.468 357.035 C 276.455 358.155, 275.093 358.866, 274.442 358.616 C 273.791 358.366, 271.287 360.240, 268.879 362.781 C 266.470 365.321, 265.288 366.804, 266.250 366.077 C 267.212 365.350, 268 365.182, 268 365.703 C 268 366.989, 263.487 371.154, 262.818 370.485 C 262.525 370.192, 261.658 370.724, 260.893 371.668 C 259.971 372.803, 259.923 373.130, 260.750 372.633 C 261.438 372.220, 262 372.332, 262 372.882 C 262 373.998, 260.034 375.461, 258.501 375.485 C 257.952 375.493, 257.502 376.399, 257.501 377.497 C 257.501 378.596, 256.975 379.496, 256.333 379.497 C 255.692 379.499, 254.792 379.910, 254.333 380.410 C 253.849 380.939, 254.024 381.019, 254.750 380.601 C 255.438 380.206, 256 380.303, 256 380.819 C 256 382.277, 253.411 384.068, 252.498 383.241 C 252.048 382.834, 251.995 383.049, 252.381 383.721 C 253.344 385.398, 250.203 391.244, 248.803 390.378 C 248.154 389.977, 247.971 390.143, 248.362 390.777 C 249.269 392.244, 245.928 399.074, 244.681 398.303 C 244.124 397.958, 244.005 398.200, 244.410 398.854 C 245.239 400.197, 244.193 404.237, 243.178 403.610 C 242.805 403.380, 242.444 404.161, 242.376 405.345 C 242.308 406.530, 240.803 412.900, 239.031 419.500 C 236.113 430.366, 235.794 432.965, 235.656 447 C 235.563 456.488, 236.035 465.409, 236.874 470 C 238.572 479.292, 243.661 494.449, 247.884 502.790 C 249.636 506.249, 250.759 509.581, 250.380 510.194 C 249.973 510.853, 250.143 511.030, 250.795 510.627 C 252.097 509.822, 254.375 513.584, 253.472 515.045 C 253.131 515.598, 253.447 515.926, 254.176 515.775 C 254.904 515.624, 255.509 516.175, 255.519 517 C 255.530 517.825, 255.798 518.500, 256.115 518.500 C 256.433 518.500, 257.437 519.118, 258.346 519.872 C 260.213 521.421, 260.623 523.503, 258.845 522.405 C 258.108 521.949, 257.963 522.132, 258.446 522.912 C 258.861 523.584, 259.456 523.877, 259.769 523.564 C 260.455 522.878, 264 525.936, 264 527.214 C 264 527.711, 263.480 527.797, 262.845 527.405 C 262.124 526.959, 261.963 527.131, 262.415 527.862 C 262.813 528.506, 263.481 528.820, 263.901 528.561 C 264.820 527.993, 274.271 537.395, 273.528 538.138 C 273.242 538.425, 274.204 539.748, 275.665 541.079 C 277.127 542.411, 277.998 542.938, 277.602 542.250 C 277.206 541.563, 277.289 541, 277.786 541 C 278.886 541, 281.862 544.177, 281.845 545.333 C 281.839 545.792, 282.168 546.467, 282.577 546.833 C 282.986 547.200, 282.997 546.938, 282.601 546.250 C 281.529 544.387, 283.544 544.739, 285.128 546.692 C 286.296 548.133, 286.292 548.258, 285.095 547.537 C 284.135 546.959, 283.920 547.061, 284.415 547.862 C 284.813 548.506, 285.548 548.779, 286.048 548.470 C 287.296 547.699, 291.187 549.888, 290.512 550.981 C 290.212 551.465, 290.494 552.187, 291.138 552.585 C 291.912 553.063, 292.040 552.873, 291.515 552.025 C 290.986 551.169, 291.185 550.895, 292.111 551.204 C 292.875 551.458, 293.500 552.154, 293.500 552.750 C 293.500 553.346, 293.910 554.208, 294.410 554.667 C 294.939 555.151, 295.019 554.976, 294.601 554.250 C 293.566 552.450, 294.230 552.639, 301.425 556.187 C 304.979 557.940, 307.664 559.734, 307.392 560.175 C 307.119 560.616, 307.524 560.736, 308.292 560.442 C 309.059 560.147, 311.907 560.781, 314.619 561.850 C 329.728 567.805, 353.133 570.192, 370.821 567.581 C 377.047 566.662, 383.122 566.151, 384.321 566.446 C 385.519 566.740, 385.849 566.694, 385.053 566.342 C 384.179 565.955, 386.486 564.767, 390.881 563.340 C 394.882 562.041, 398.640 561.278, 399.232 561.644 C 399.846 562.023, 400.021 561.844, 399.640 561.227 C 398.830 559.916, 402.510 558.579, 404.146 559.590 C 404.851 560.026, 405.040 559.874, 404.627 559.205 C 403.769 557.817, 407.649 555.651, 409.630 556.412 C 410.441 556.723, 410.841 556.551, 410.519 556.031 C 409.749 554.785, 415.732 551.716, 417.184 552.614 C 417.852 553.027, 418.032 552.861, 417.627 552.205 C 416.947 551.105, 420.206 548.735, 421.709 549.236 C 422.144 549.381, 422.651 549.050, 422.835 548.500 C 423.379 546.876, 425.173 545, 426.181 545 C 426.697 545, 426.797 545.520, 426.405 546.155 C 425.949 546.892, 426.132 547.037, 426.912 546.554 C 427.584 546.139, 427.882 545.549, 427.575 545.242 C 426.876 544.542, 428.919 542, 430.181 542 C 430.697 542, 430.797 542.520, 430.405 543.155 C 429.949 543.892, 430.132 544.037, 430.912 543.554 C 431.584 543.139, 431.872 542.538, 431.553 542.219 C 430.857 541.524, 435.971 536, 437.310 536 C 437.824 536, 437.650 536.788, 436.923 537.750 C 436.196 538.712, 437.715 537.494, 440.300 535.042 C 442.885 532.590, 445 530.364, 445 530.096 C 445 529.827, 443.425 531.134, 441.500 533 C 439.575 534.866, 438 535.950, 438 535.409 C 438 534.293, 446.968 525.219, 448.500 524.784 C 449.050 524.628, 449.372 524.115, 449.215 523.645 C 448.807 522.420, 451.071 519.926, 452.044 520.527 C 452.494 520.805, 453.187 520.506, 453.585 519.862 C 454.037 519.131, 453.876 518.959, 453.155 519.405 C 451.368 520.509, 451.767 519.310, 454.622 514.995 C 456.064 512.816, 457.608 511.258, 458.053 511.533 C 458.498 511.808, 459.187 511.506, 459.585 510.862 C 460.037 510.131, 459.876 509.959, 459.155 510.405 C 457.323 511.537, 457.820 509.864, 460.838 504.738 C 462.380 502.119, 463.972 500.305, 464.374 500.707 C 464.776 501.110, 464.780 500.591, 464.383 499.555 C 463.970 498.481, 464.055 497.916, 464.580 498.240 C 465.086 498.553, 465.556 497.839, 465.625 496.655 C 465.694 495.470, 466.932 491.192, 468.377 487.150 C 476.530 464.332, 477.229 437.267, 470.265 414.112 C 468.840 409.375, 467.635 404.530, 467.587 403.345 C 467.539 402.161, 467.086 401.447, 466.580 401.760 C 466.071 402.074, 465.954 401.562, 466.319 400.612 C 466.681 399.668, 466.611 399.122, 466.164 399.399 C 465.033 400.097, 460.807 391.120, 461.636 389.780 C 462.017 389.164, 461.849 388.975, 461.250 389.346 C 460.060 390.081, 454.819 381.799, 455.235 379.841 C 455.381 379.154, 454.825 378.560, 454 378.521 C 453.175 378.483, 452.568 377.645, 452.650 376.659 C 452.733 375.673, 452.544 375.123, 452.231 375.436 C 451.545 376.122, 448 373.064, 448 371.786 C 448 371.289, 448.563 371.220, 449.250 371.633 C 450.110 372.149, 450.074 371.859, 449.137 370.703 C 448.387 369.778, 447.452 369.220, 447.060 369.463 C 446.148 370.027, 433.758 357.576, 434.496 356.837 C 434.800 356.534, 434.276 355.658, 433.332 354.893 C 432.197 353.971, 431.870 353.923, 432.367 354.750 C 432.780 355.438, 432.711 356, 432.214 356 C 431.117 356, 427.365 351.984, 427.833 351.312 C 428.017 351.049, 427.832 350.533, 427.423 350.167 C 427.014 349.800, 427.039 350.121, 427.479 350.880 C 428.026 351.823, 427.839 352.113, 426.889 351.796 C 426.125 351.542, 425.500 350.846, 425.500 350.250 C 425.500 349.654, 425.090 348.792, 424.590 348.333 C 424.052 347.841, 424.007 348.065, 424.479 348.880 C 425.026 349.823, 424.839 350.113, 423.889 349.796 C 423.125 349.542, 422.500 348.846, 422.500 348.250 C 422.500 347.654, 422.090 346.792, 421.590 346.333 C 421.061 345.849, 420.981 346.024, 421.399 346.750 C 422.371 348.439, 421.421 348.322, 418.473 346.391 C 417.122 345.505, 416.246 344.412, 416.525 343.960 C 416.804 343.508, 416.506 342.813, 415.862 342.415 C 415.131 341.963, 414.959 342.124, 415.405 342.845 C 416.457 344.549, 415.685 344.319, 408.575 340.813 C 405.021 339.060, 402.382 337.191, 402.711 336.659 C 403.040 336.126, 402.821 335.993, 402.224 336.362 C 401.627 336.731, 397.845 335.934, 393.819 334.592 C 379.899 329.952, 371.687 328.784, 351.679 328.599 C 341.328 328.503, 333.595 328.683, 334.496 328.998 M 348 359.681 C 336.428 360.942, 320.522 365.417, 321.572 367.117 C 321.865 367.590, 321.451 367.727, 320.653 367.420 C 318.840 366.725, 308.725 371.746, 309.479 372.967 C 309.784 373.459, 309.506 374.187, 308.862 374.585 C 308.088 375.063, 307.960 374.873, 308.485 374.025 C 309.017 373.163, 308.821 372.907, 307.889 373.245 C 307.125 373.523, 306.595 374.203, 306.711 374.757 C 306.827 375.311, 306.163 375.705, 305.235 375.632 C 304.307 375.560, 303.517 376.175, 303.479 377 C 303.440 377.825, 302.820 378.372, 302.099 378.215 C 300.517 377.871, 297.835 379.924, 298.487 380.980 C 298.743 381.394, 297.959 382.580, 296.744 383.616 C 294.906 385.184, 294.762 385.206, 295.890 383.750 C 298.388 380.523, 295.447 381.958, 291.703 385.792 C 288.048 389.536, 286.819 391.828, 289.250 390.367 C 290.077 389.870, 290.029 390.197, 289.107 391.332 C 288.342 392.276, 287.478 392.811, 287.189 392.522 C 286.533 391.867, 283 394.981, 283 396.214 C 283 396.711, 283.563 396.794, 284.250 396.399 C 284.976 395.981, 285.151 396.061, 284.667 396.590 C 284.208 397.090, 283.346 397.500, 282.750 397.500 C 282.154 397.500, 281.458 398.125, 281.204 398.889 C 280.895 399.815, 281.169 400.014, 282.025 399.485 C 282.873 398.960, 283.063 399.088, 282.585 399.862 C 282.187 400.506, 281.465 400.788, 280.981 400.488 C 279.775 399.743, 277.738 403.767, 278.608 405.175 C 279.028 405.855, 278.864 406.034, 278.197 405.622 C 276.803 404.760, 273.643 410.628, 274.416 412.642 C 274.725 413.446, 274.556 413.843, 274.041 413.525 C 272.650 412.666, 268.277 427.479, 266.923 437.635 C 265.455 448.647, 266.193 460.908, 268.992 472 C 271.309 481.184, 278.794 496.649, 280.735 496.262 C 281.391 496.131, 281.689 496.648, 281.396 497.411 C 281.103 498.174, 281.414 499.138, 282.086 499.553 C 282.920 500.068, 283.051 499.892, 282.500 499 C 281.976 498.152, 282.082 497.933, 282.802 498.378 C 283.413 498.755, 283.687 499.653, 283.411 500.372 C 283.135 501.091, 283.691 502.314, 284.646 503.090 C 285.769 504.001, 286.118 504.058, 285.633 503.250 C 284.538 501.428, 285.529 501.721, 287.128 503.692 C 288.060 504.842, 288.099 505.143, 287.250 504.633 C 286.563 504.220, 286 504.261, 286 504.725 C 286 506.044, 296.564 516.145, 297.587 515.804 C 298.089 515.637, 298.651 515.950, 298.835 516.500 C 299.379 518.124, 301.173 520, 302.181 520 C 302.697 520, 302.797 519.480, 302.405 518.845 C 301.959 518.124, 302.131 517.963, 302.862 518.415 C 303.506 518.813, 303.788 519.535, 303.488 520.019 C 302.783 521.160, 306.730 523.285, 308.045 522.472 C 308.598 522.131, 308.926 522.447, 308.775 523.176 C 308.623 523.908, 309.277 524.439, 310.239 524.363 C 311.228 524.285, 311.697 524.682, 311.325 525.283 C 310.914 525.948, 311.308 526.096, 312.388 525.681 C 313.544 525.238, 313.870 525.401, 313.388 526.181 C 312.911 526.953, 313.223 527.128, 314.324 526.706 C 315.343 526.315, 315.885 526.537, 315.738 527.286 C 315.606 527.958, 316.481 528.467, 317.700 528.426 C 318.910 528.385, 319.704 528.670, 319.463 529.060 C 318.707 530.283, 324.742 532.213, 327.176 531.525 C 328.764 531.077, 329.073 531.165, 328.154 531.803 C 327.201 532.464, 328.958 533.278, 334.154 534.585 C 346.011 537.568, 379.448 536.969, 374.931 533.855 C 373.878 533.129, 374.099 533.038, 375.770 533.508 C 378.441 534.260, 388.272 531.249, 387.456 529.929 C 387.148 529.430, 387.548 529.273, 388.344 529.578 C 390.117 530.259, 402.285 524.270, 401.549 523.079 C 401.259 522.610, 401.804 522.288, 402.761 522.363 C 403.717 522.438, 404.405 521.990, 404.289 521.368 C 404.173 520.745, 404.837 520.295, 405.765 520.368 C 406.693 520.440, 407.463 519.975, 407.476 519.333 C 407.489 518.692, 407.910 517.792, 408.410 517.333 C 408.939 516.849, 409.019 517.024, 408.601 517.750 C 407.291 520.027, 409.611 519.046, 412.076 516.280 C 413.895 514.239, 414.001 513.920, 412.500 515 C 410.999 516.080, 411.105 515.761, 412.924 513.720 C 415.446 510.891, 417.182 509.871, 415 512.500 C 412.242 515.824, 415.860 513.719, 419.792 509.712 C 423.891 505.536, 425.271 503.150, 422.750 504.601 C 422.024 505.019, 421.849 504.939, 422.333 504.410 C 422.792 503.910, 423.467 503.493, 423.833 503.485 C 425.087 503.456, 427 501.883, 427 500.882 C 427 500.332, 426.438 500.220, 425.750 500.633 C 424.901 501.143, 424.940 500.842, 425.872 499.692 C 427.481 497.709, 428.393 497.458, 427.483 499.250 C 427.133 499.938, 427.802 499.413, 428.968 498.085 C 430.134 496.757, 430.848 495.046, 430.555 494.283 C 430.262 493.520, 430.451 493.160, 430.973 493.483 C 432.219 494.254, 436.282 486.265, 435.383 484.811 C 434.979 484.158, 435.140 483.969, 435.769 484.357 C 437.196 485.239, 440.444 476.444, 442.575 465.927 C 443.858 459.597, 444.122 454.601, 443.705 444.581 C 443.115 430.434, 442.326 425.927, 440.831 428.165 C 440.258 429.022, 440.163 428.537, 440.563 426.808 C 441.576 422.443, 434.051 404.233, 431.807 405.619 C 431.115 406.047, 430.972 405.854, 431.432 405.111 C 432.298 403.709, 429.312 398.689, 428.069 399.457 C 427.605 399.744, 427.288 399.207, 427.363 398.263 C 427.438 397.320, 426.975 396.537, 426.333 396.524 C 425.692 396.511, 424.792 396.090, 424.333 395.590 C 423.849 395.061, 424.024 394.981, 424.750 395.399 C 425.438 395.794, 426 395.740, 426 395.278 C 426 394.258, 414.571 382.831, 413.944 383.223 C 413.700 383.375, 413.613 383.312, 413.752 383.081 C 414.142 382.434, 410.805 379, 409.786 379 C 409.289 379, 409.220 379.563, 409.633 380.250 C 410.130 381.077, 409.803 381.029, 408.668 380.107 C 407.724 379.342, 407.184 378.483, 407.467 378.200 C 408.135 377.532, 406.039 375, 404.819 375 C 404.303 375, 404.203 375.520, 404.595 376.155 C 405.041 376.876, 404.869 377.037, 404.138 376.585 C 403.494 376.187, 403.212 375.465, 403.512 374.981 C 404.257 373.775, 400.233 371.738, 398.825 372.608 C 398.078 373.070, 397.970 372.857, 398.510 371.985 C 399.109 371.015, 398.868 370.836, 397.612 371.319 C 396.456 371.762, 396.130 371.599, 396.612 370.819 C 397.089 370.047, 396.777 369.872, 395.676 370.294 C 394.657 370.685, 394.115 370.463, 394.262 369.714 C 394.394 369.042, 393.519 368.533, 392.300 368.574 C 391.082 368.615, 390.374 368.204, 390.714 367.654 C 391.081 367.061, 390.637 366.926, 389.612 367.319 C 388.668 367.681, 388.149 367.569, 388.457 367.069 C 389.195 365.875, 382.383 363.645, 380.865 364.583 C 380.162 365.018, 379.957 364.878, 380.354 364.236 C 381.200 362.867, 375.828 361.630, 372.772 362.491 C 371.134 362.952, 370.892 362.861, 371.904 362.162 C 372.898 361.474, 371.296 361.008, 366.404 360.562 C 353.704 359.402, 351.519 359.298, 348 359.681 M 539.206 391.741 C 542.895 391.932, 549.195 391.934, 553.206 391.743 C 557.218 391.553, 554.200 391.396, 546.500 391.395 C 538.800 391.393, 535.518 391.549, 539.206 391.741 M 703.324 391.750 C 724.677 391.900, 759.327 391.900, 780.324 391.750 C 801.321 391.599, 783.850 391.476, 741.500 391.476 C 699.150 391.476, 681.971 391.599, 703.324 391.750 M 580.281 439.416 L 580.125 465.332 588.562 456.938 C 593.203 452.321, 597 448.320, 597 448.046 C 597 447.771, 593.408 451.118, 589.018 455.482 L 581.035 463.418 580.736 438.459 L 580.437 413.500 580.281 439.416 M 535.750 425.723 C 537.538 425.945, 540.462 425.945, 542.250 425.723 C 544.038 425.502, 542.575 425.320, 539 425.320 C 535.425 425.320, 533.962 425.502, 535.750 425.723 M 707.750 425.750 C 727.688 425.901, 760.313 425.901, 780.250 425.750 C 800.188 425.598, 783.875 425.474, 744 425.474 C 704.125 425.474, 687.813 425.598, 707.750 425.750 M 350.280 535.736 C 352.909 535.943, 356.959 535.940, 359.280 535.731 C 361.601 535.521, 359.450 535.352, 354.500 535.355 C 349.550 535.358, 347.651 535.530, 350.280 535.736 M 414.508 581.863 C 415.554 582.062, 412.155 583.303, 406.955 584.620 C 401.755 585.936, 396.914 586.791, 396.198 586.518 C 395.415 586.220, 395.175 586.475, 395.597 587.157 C 396.091 587.956, 395.441 588.092, 393.399 587.615 C 391.643 587.206, 391.012 587.282, 391.800 587.809 C 393.248 588.779, 382.698 592.219, 372.500 594.102 C 360.484 596.321, 323.077 593.620, 327.118 590.825 C 328.110 590.139, 327.883 590.042, 326.311 590.483 C 325.067 590.831, 319.886 589.818, 314.311 588.135 C 308.915 586.506, 303.244 584.897, 301.709 584.558 C 300.174 584.219, 299.118 583.617, 299.362 583.221 C 299.605 582.824, 292.536 582.347, 283.652 582.159 C 271.258 581.898, 265.872 582.199, 260.500 583.454 C 256.650 584.353, 252.375 584.830, 251 584.514 C 249.340 584.133, 248.952 584.241, 249.845 584.837 C 250.844 585.504, 250.458 585.915, 248.345 586.433 C 246.780 586.816, 241.801 588.710, 237.279 590.642 C 232.758 592.574, 228.526 593.825, 227.875 593.423 C 227.077 592.929, 226.958 593.122, 227.510 594.015 C 228.109 594.985, 227.868 595.164, 226.612 594.681 C 225.643 594.309, 225.148 594.431, 225.476 594.961 C 226.207 596.144, 222.308 598.308, 220.955 597.472 C 220.402 597.131, 220.074 597.391, 220.225 598.051 C 220.376 598.710, 219.875 599.477, 219.111 599.755 C 218.155 600.102, 217.971 599.829, 218.521 598.880 C 218.993 598.065, 218.948 597.841, 218.410 598.333 C 217.910 598.792, 217.500 599.654, 217.500 600.250 C 217.500 600.846, 216.875 601.542, 216.111 601.796 C 215.161 602.113, 214.974 601.823, 215.521 600.880 C 215.993 600.065, 215.948 599.841, 215.410 600.333 C 214.910 600.792, 214.489 601.692, 214.476 602.333 C 214.463 602.975, 213.645 603.433, 212.659 603.350 C 211.673 603.267, 211.118 603.451, 211.425 603.758 C 212.124 604.458, 210.081 607, 208.819 607 C 208.303 607, 208.203 606.480, 208.595 605.845 C 209.051 605.108, 208.868 604.963, 208.088 605.446 C 207.416 605.861, 207.123 606.456, 207.436 606.769 C 208.141 607.474, 205.047 611, 203.723 611 C 203.190 611, 203.365 610.212, 204.110 609.250 C 205.207 607.833, 205.039 607.864, 203.227 609.411 C 201.995 610.461, 201.220 611.553, 201.503 611.836 C 202.139 612.473, 197.987 617, 196.767 617 C 196.280 617, 196.211 616.438, 196.613 615.750 C 197.015 615.063, 196.377 615.348, 195.195 616.384 C 194.014 617.420, 193.265 618.619, 193.530 619.049 C 194.179 620.098, 189.033 626.138, 188.022 625.514 C 187.002 624.883, 184.809 627.476, 185.651 628.318 C 186.504 629.171, 183.991 632.113, 182.956 631.473 C 182.506 631.195, 181.813 631.494, 181.415 632.138 C 180.963 632.869, 181.124 633.041, 181.845 632.595 C 182.480 632.203, 183 632.303, 183 632.819 C 183 634.081, 180.458 636.124, 179.758 635.425 C 179.451 635.118, 179.267 635.684, 179.350 636.683 C 179.432 637.682, 178.937 638.387, 178.250 638.250 C 177.562 638.112, 177.053 638.337, 177.118 638.750 C 177.420 640.659, 176.918 642.067, 176.113 641.570 C 175.625 641.268, 175.288 641.804, 175.363 642.761 C 175.438 643.717, 174.954 644.393, 174.286 644.262 C 173.537 644.115, 173.315 644.657, 173.706 645.676 C 174.165 646.873, 173.975 647.103, 173.015 646.510 C 172.143 645.970, 171.930 646.078, 172.392 646.825 C 173.286 648.272, 171.209 652.247, 169.961 651.476 C 169.431 651.148, 169.309 651.643, 169.681 652.612 C 170.074 653.637, 169.939 654.081, 169.346 653.714 C 168.796 653.374, 168.385 654.082, 168.426 655.300 C 168.467 656.519, 167.958 657.394, 167.286 657.262 C 166.537 657.115, 166.315 657.657, 166.706 658.676 C 167.165 659.873, 166.975 660.103, 166.015 659.510 C 165.125 658.959, 164.929 659.077, 165.419 659.869 C 166.212 661.152, 163.137 670.203, 162.122 669.575 C 161.780 669.364, 161.465 670.386, 161.423 671.845 C 161.381 673.305, 160.187 678.775, 158.769 684 C 154.377 700.186, 153.800 711.441, 154.262 772 C 154.609 817.565, 154.954 828.395, 156.187 832.500 C 157.982 838.479, 160.368 843.341, 163.673 847.756 C 165.014 849.547, 165.871 851.399, 165.579 851.872 C 165.286 852.345, 166.014 853.580, 167.195 854.616 C 168.377 855.652, 169.015 855.938, 168.613 855.250 C 168.211 854.563, 168.289 854, 168.786 854 C 169.886 854, 172.862 857.177, 172.845 858.333 C 172.839 858.792, 173.168 859.467, 173.577 859.833 C 173.986 860.200, 173.997 859.938, 173.601 859.250 C 173.206 858.563, 173.042 858, 173.237 858 C 174.243 858, 185.962 864.705, 185.596 865.071 C 185.360 865.307, 186.367 865.656, 187.833 865.846 C 189.300 866.036, 263.138 866.380, 351.917 866.611 C 500.205 866.996, 513.830 866.894, 519.417 865.365 C 522.763 864.449, 526.470 863.655, 527.655 863.600 C 528.839 863.545, 529.628 863.207, 529.406 862.848 C 529.184 862.489, 530.603 861.252, 532.559 860.098 C 536.605 857.710, 537.421 857.510, 536.405 859.155 C 535.949 859.892, 536.132 860.037, 536.912 859.554 C 537.584 859.139, 537.877 858.544, 537.564 858.231 C 536.878 857.545, 539.936 854, 541.214 854 C 541.711 854, 541.789 854.563, 541.387 855.250 C 540.985 855.938, 541.634 855.643, 542.828 854.595 C 545.077 852.623, 545.751 851.418, 544 852.500 C 542.083 853.685, 543.017 851.333, 545.324 849.165 C 546.602 847.964, 548.025 847.323, 548.485 847.741 C 548.944 848.158, 549.007 847.954, 548.624 847.287 C 548.242 846.621, 549.075 843.812, 550.476 841.046 C 556.032 830.084, 556.142 828.368, 555.730 759.610 C 555.365 698.857, 555.269 696.164, 553.169 687.500 C 551.969 682.550, 550.057 675.698, 548.920 672.274 C 547.783 668.849, 547.180 665.517, 547.581 664.869 C 548.006 664.181, 547.880 663.956, 547.278 664.328 C 546.014 665.110, 540.711 653.276, 541.647 651.762 C 542.069 651.079, 541.829 650.988, 540.985 651.510 C 540.015 652.109, 539.836 651.868, 540.319 650.612 C 540.762 649.456, 540.599 649.130, 539.819 649.612 C 539.047 650.089, 538.872 649.777, 539.294 648.676 C 539.685 647.657, 539.463 647.115, 538.714 647.262 C 538.046 647.393, 537.562 646.717, 537.637 645.761 C 537.712 644.804, 537.398 644.254, 536.937 644.539 C 535.828 645.225, 533.734 641.240, 534.528 639.955 C 534.869 639.402, 534.553 639.074, 533.824 639.225 C 533.073 639.381, 532.565 638.714, 532.650 637.683 C 532.733 636.684, 532.549 636.118, 532.242 636.425 C 531.542 637.124, 529 635.081, 529 633.819 C 529 633.303, 529.520 633.203, 530.155 633.595 C 530.892 634.051, 531.037 633.868, 530.554 633.088 C 530.139 632.416, 529.544 632.123, 529.231 632.436 C 528.545 633.122, 525 630.064, 525 628.786 C 525 628.289, 525.563 628.220, 526.250 628.633 C 527.077 629.130, 527.029 628.803, 526.107 627.668 C 525.342 626.724, 524.471 626.195, 524.173 626.493 C 523.530 627.137, 517 620.994, 517 619.745 C 517 619.270, 517.563 619.220, 518.250 619.633 C 519.110 620.149, 519.074 619.859, 518.137 618.703 C 517.387 617.778, 516.401 617.252, 515.947 617.533 C 514.877 618.194, 507.852 612.049, 508.492 611.013 C 508.759 610.580, 508.222 609.613, 507.297 608.863 C 506.141 607.926, 505.851 607.890, 506.367 608.750 C 506.780 609.438, 506.697 610, 506.181 610 C 504.932 610, 502.366 606.852, 503 606.098 C 503.275 605.770, 502.601 605.502, 501.503 605.501 C 500.404 605.501, 499.504 604.975, 499.503 604.333 C 499.501 603.692, 499.090 602.792, 498.590 602.333 C 498.052 601.841, 498.007 602.065, 498.479 602.880 C 499.029 603.829, 498.845 604.102, 497.889 603.755 C 497.125 603.477, 496.624 602.710, 496.775 602.051 C 496.926 601.391, 496.580 601.141, 496.007 601.496 C 494.553 602.394, 487.838 598.072, 488.648 596.760 C 489.025 596.150, 488.840 595.981, 488.218 596.366 C 486.882 597.191, 475.908 591.959, 476.605 590.829 C 476.880 590.386, 476.518 590.232, 475.802 590.488 C 473.876 591.176, 458.347 585.416, 460.070 584.653 C 460.856 584.304, 460.487 584.270, 459.248 584.577 C 458.010 584.884, 453.735 584.443, 449.748 583.597 C 445.614 582.719, 436.078 581.938, 427.553 581.779 C 419.332 581.625, 413.462 581.663, 414.508 581.863 M 263.500 614.341 C 260.222 615.158, 259.017 615.828, 260 616.285 C 260.825 616.668, 260.488 616.730, 259.250 616.423 C 256.491 615.739, 252.763 616.807, 253.537 618.061 C 253.849 618.565, 253.424 618.716, 252.592 618.397 C 250.390 617.552, 239.677 622.668, 240.582 624.132 C 241.033 624.862, 240.878 625.043, 240.175 624.608 C 238.767 623.738, 234.743 625.775, 235.488 626.981 C 235.788 627.465, 235.506 628.187, 234.862 628.585 C 234.088 629.063, 233.960 628.873, 234.485 628.025 C 235.014 627.169, 234.815 626.895, 233.889 627.204 C 233.125 627.458, 232.500 628.154, 232.500 628.750 C 232.500 629.346, 232.090 630.208, 231.590 630.667 C 231.061 631.151, 230.981 630.976, 231.399 630.250 C 231.794 629.563, 231.668 629, 231.118 629 C 230.021 629, 228.566 630.924, 228.470 632.500 C 228.436 633.050, 227.805 633.367, 227.068 633.204 C 225.553 632.871, 220.830 636.916, 221.489 637.983 C 221.725 638.364, 220.023 640.436, 217.709 642.587 L 213.500 646.500 217.500 642.047 C 222.482 636.502, 219.110 638.911, 213.564 644.859 C 209.231 649.507, 207.818 651.813, 210.120 650.479 C 210.935 650.007, 211.159 650.052, 210.667 650.590 C 210.208 651.090, 209.533 651.507, 209.167 651.515 C 207.913 651.544, 206 653.117, 206 654.118 C 206 654.668, 206.563 654.794, 207.250 654.399 C 207.976 653.981, 208.151 654.061, 207.667 654.590 C 207.208 655.090, 206.346 655.500, 205.750 655.500 C 205.154 655.500, 204.458 656.125, 204.204 656.889 C 203.895 657.815, 204.169 658.014, 205.025 657.485 C 205.873 656.960, 206.063 657.088, 205.585 657.862 C 205.187 658.506, 204.465 658.788, 203.981 658.488 C 202.775 657.743, 200.738 661.767, 201.608 663.175 C 202.070 663.922, 201.857 664.030, 200.985 663.490 C 200.015 662.891, 199.836 663.132, 200.319 664.388 C 200.720 665.433, 200.580 665.858, 199.960 665.476 C 197.496 663.952, 188.976 687.949, 186.892 702.281 C 185.569 711.379, 185.152 818.766, 186.424 822.765 C 186.820 824.010, 187.556 824.774, 188.061 824.463 C 188.566 824.150, 188.682 824.666, 188.319 825.612 C 187.836 826.868, 188.015 827.109, 188.985 826.510 C 189.890 825.950, 190.071 826.076, 189.557 826.909 C 188.578 828.491, 191.952 832.233, 193.739 831.547 C 194.590 831.220, 194.835 831.459, 194.388 832.181 C 193.905 832.962, 194.231 833.125, 195.388 832.681 C 196.332 832.319, 196.858 832.421, 196.558 832.907 C 196.257 833.393, 196.796 834.175, 197.756 834.645 C 199.781 835.638, 498.826 836.428, 506.910 835.462 C 510.365 835.050, 511.838 834.518, 510.987 833.992 C 510.148 833.473, 510.923 833.229, 513.076 833.334 C 515.294 833.441, 516.416 833.072, 516.262 832.286 C 516.131 831.618, 516.603 831.294, 517.310 831.565 C 519.072 832.242, 523.412 827.475, 522.450 825.920 C 521.975 825.150, 522.105 824.947, 522.799 825.376 C 525.698 827.168, 526.129 817.627, 525.743 760.151 C 525.376 705.373, 525.251 702.100, 523.245 694.466 C 520.350 683.452, 517.032 674.862, 515.935 675.540 C 515.433 675.850, 515.273 675.452, 515.578 674.656 C 516.259 672.883, 510.270 660.715, 509.079 661.451 C 508.610 661.741, 508.288 661.196, 508.363 660.239 C 508.438 659.283, 507.990 658.595, 507.368 658.711 C 506.745 658.827, 506.295 658.163, 506.368 657.235 C 506.440 656.307, 505.975 655.537, 505.333 655.524 C 504.692 655.511, 503.792 655.090, 503.333 654.590 C 502.849 654.061, 503.024 653.981, 503.750 654.399 C 504.438 654.794, 505 654.697, 505 654.181 C 505 652.961, 502.468 650.865, 501.800 651.533 C 501.517 651.816, 500.658 651.276, 499.893 650.332 C 498.971 649.197, 498.923 648.870, 499.750 649.367 C 502.854 651.232, 500.436 647.886, 494.225 641.723 C 488.054 635.599, 484.772 633.204, 486.595 636.155 C 487.051 636.892, 486.868 637.037, 486.088 636.554 C 485.416 636.139, 485.123 635.544, 485.436 635.231 C 486.122 634.545, 483.064 631, 481.786 631 C 481.289 631, 481.206 631.563, 481.601 632.250 C 482.019 632.976, 481.939 633.151, 481.410 632.667 C 480.910 632.208, 480.500 631.346, 480.500 630.750 C 480.500 630.154, 479.875 629.458, 479.111 629.204 C 478.161 628.887, 477.974 629.177, 478.521 630.120 C 478.993 630.935, 478.948 631.159, 478.410 630.667 C 477.910 630.208, 477.489 629.308, 477.476 628.667 C 477.463 628.025, 476.680 627.562, 475.737 627.637 C 474.793 627.712, 474.270 627.372, 474.573 626.881 C 475.333 625.653, 458.921 617.814, 456.749 618.367 C 455.686 618.638, 455.256 618.395, 455.655 617.749 C 456.076 617.067, 455.538 616.888, 454.155 617.249 C 452.968 617.560, 452.227 617.442, 452.507 616.989 C 453.455 615.455, 439.168 613, 429.299 613 C 418.770 613, 413.885 614.102, 397.080 620.265 C 391.899 622.165, 388.299 623.933, 389.080 624.194 C 389.861 624.455, 388.925 624.655, 387 624.639 C 385.075 624.623, 378.717 625.372, 372.872 626.305 C 367.026 627.237, 358.984 628, 355 628 C 345.108 628, 328.665 625.441, 318.189 622.270 C 313.410 620.824, 308.225 619.659, 306.666 619.681 C 304.941 619.706, 304.320 619.420, 305.079 618.951 C 305.853 618.473, 303.705 617.328, 299.413 615.930 C 291.045 613.206, 271.516 612.342, 263.500 614.341 M 557.466 765 C 557.466 794.975, 557.594 807.237, 557.749 792.250 C 557.905 777.262, 557.905 752.737, 557.749 737.750 C 557.594 722.762, 557.466 735.025, 557.466 765 M 524.466 764.500 C 524.466 793.650, 524.593 805.431, 524.749 790.680 C 524.905 775.928, 524.905 752.078, 524.749 737.680 C 524.593 723.281, 524.465 735.350, 524.466 764.500 M 276.171 868.750 C 318.891 868.894, 389.091 868.894, 432.171 868.750 C 475.252 868.606, 440.300 868.488, 354.500 868.488 C 268.700 868.488, 233.452 868.606, 276.171 868.750" stroke="none" fill="#1b5bca" fill-rule="evenodd"/></svg>