<svg xmlns="http://www.w3.org/2000/svg" width="380" height="200" viewBox="0 0 19 10">
  <!-- Bandes rouges et blanches -->
  <rect width="19" height="10" fill="#fff"/>
  <g fill="#BF0A30">
    <rect y="0" width="19" height="0.769"/>
    <rect y="1.538" width="19" height="0.769"/>
    <rect y="3.076" width="19" height="0.769"/>
    <rect y="4.615" width="19" height="0.769"/>
    <rect y="6.153" width="19" height="0.769"/>
    <rect y="7.692" width="19" height="0.769"/>
    <rect y="9.23" width="19" height="0.769"/>
  </g>
  <!-- Canton bleu -->
  <rect width="7.6" height="5.384" fill="#3C3B6E" />
  <!-- Étoiles blanches stylisées (simplifiées) -->
  <g fill="#fff" font-size="0.6" font-family="Arial" font-weight="bold">
    <text x="0.5" y="0.7">*</text>
    <text x="1.5" y="1.3">*</text>
    <text x="2.5" y="0.7">*</text>
    <text x="3.5" y="1.3">*</text>
    <text x="4.5" y="0.7">*</text>
    <text x="5.5" y="1.3">*</text>
    <text x="6.5" y="0.7">*</text>

    <text x="1" y="1.9">*</text>
    <text x="2" y="2.5">*</text>
    <text x="3" y="1.9">*</text>
    <text x="4" y="2.5">*</text>
    <text x="5" y="1.9">*</text>
    <text x="6" y="2.5">*</text>

    <text x="0.5" y="3.1">*</text>
    <text x="1.5" y="3.7">*</text>
    <text x="2.5" y="3.1">*</text>
    <text x="3.5" y="3.7">*</text>
    <text x="4.5" y="3.1">*</text>
    <text x="5.5" y="3.7">*</text>
    <text x="6.5" y="3.1">*</text>

    <text x="1" y="4.3">*</text>
    <text x="2" y="4.9">*</text>
    <text x="3" y="4.3">*</text>
    <text x="4" y="4.9">*</text>
    <text x="5" y="4.3">*</text>
    <text x="6" y="4.9">*</text>
  </g>
</svg>
