<svg xmlns="http://www.w3.org/2000/svg" viewBox="0 0 60 30" width="600" height="300">
  <!-- Fond bleu -->
  <rect width="60" height="30" fill="#012169" />

  <!-- Croix de Saint-André blanche -->
  <polygon points="0,0 7,0 60,23 60,30 53,30 0,7" fill="#FFFFFF"/>
  <polygon points="60,0 53,0 0,23 0,30 7,30 60,7" fill="#FFFFFF"/>

  <!-- Croix de Saint-André rouge -->
  <polygon points="0,0 3,0 60,26 60,30 57,30 0,4" fill="#C8102E"/>
  <polygon points="60,0 57,0 0,26 0,30 3,30 60,4" fill="#C8102E"/>

  <!-- Croix de Saint-Georges blanche -->
  <rect x="25" y="0" width="10" height="30" fill="#FFFFFF"/>
  <rect x="0" y="10" width="60" height="10" fill="#FFFFFF"/>

  <!-- Croix de Saint-Georges rouge -->
  <rect x="27" y="0" width="6" height="30" fill="#C8102E"/>
  <rect x="0" y="12" width="60" height="6" fill="#C8102E"/>
</svg>
