<svg xmlns="http://www.w3.org/2000/svg" width="1024" height="1024" viewBox="0 0 1024 1024" version="1.1"><path d="M 290 143.994 C 266.214 144.530, 262.911 144.811, 257.751 146.741 C 245.567 151.298, 234.537 161.031, 228.899 172.200 C 222.605 184.669, 223.031 161.254, 223.015 495.356 C 223.001 770.318, 223.155 800.814, 224.584 806.356 C 228.196 820.366, 238.697 833.981, 250.748 840.279 C 264.456 847.443, 263.549 847.335, 314 847.787 C 339.025 848.011, 388.300 847.874, 423.500 847.482 L 487.500 846.770 487.188 835.885 L 486.875 825 378.975 825 C 273.380 825, 270.960 824.957, 265.708 822.992 C 258.072 820.135, 252.665 815.097, 248.792 807.229 L 245.500 800.542 245.500 494.521 L 245.500 188.500 247.757 183.969 C 251.159 177.141, 255.208 172.755, 261.144 169.466 L 266.500 166.500 445.750 166.239 L 625 165.978 625 206.265 C 625 228.423, 625.467 250.366, 626.038 255.026 C 628.080 271.704, 636.983 284.916, 650.774 291.734 L 658.392 295.500 707.196 295.786 L 756 296.072 756 331.991 L 756 367.909 759.750 368.553 C 764.103 369.301, 774.235 371.769, 776.468 372.626 C 777.830 373.149, 778 368.209, 778 328.075 C 778 291.327, 777.736 282.303, 776.579 279.535 C 775.061 275.902, 647 147.733, 642.158 145 C 639.827 143.684, 619.643 143.494, 478 143.448 C 389.175 143.420, 304.575 143.665, 290 143.994 M 336.045 273.092 C 324.260 275.403, 313.546 284.004, 307.788 295.778 C 304.703 302.085, 304.500 303.152, 304.500 313.053 C 304.500 323.096, 304.666 323.934, 307.934 330.371 C 312.181 338.737, 319.839 345.994, 327.753 349.152 C 332.378 350.997, 335.453 351.449, 343.500 351.470 C 352.660 351.493, 354.056 351.232, 360.123 348.359 C 396.292 331.236, 389.548 280.500, 350.109 273.021 C 343.992 271.861, 342.284 271.869, 336.045 273.092 M 420.763 291.556 C 417.651 293.255, 415 297.745, 415 301.315 C 415 304.557, 418.588 308.930, 422.636 310.621 C 425.346 311.753, 440.063 312, 504.948 312 C 591.666 312, 589.719 312.131, 593.302 306.066 C 595.871 301.717, 595.457 297.543, 592.082 293.766 L 589.165 290.500 506.332 290.281 C 434.436 290.090, 423.139 290.259, 420.763 291.556 M 739.746 394.086 C 733.561 395.543, 726.666 399.553, 722.423 404.161 C 717.810 409.168, 720.063 405.573, 665.510 495 C 642.527 532.675, 615.984 576.100, 606.525 591.500 C 597.066 606.900, 576.170 641.012, 560.090 667.304 L 530.854 715.108 520.433 775.304 C 514.701 808.412, 510.009 836.767, 510.006 838.316 C 510.003 839.864, 510.486 842.040, 511.080 843.150 C 512.607 846.002, 518.518 848.258, 522.354 847.453 C 524.084 847.089, 532.250 841.962, 540.500 836.059 C 548.750 830.156, 571.067 814.264, 590.094 800.743 C 609.120 787.222, 625.843 774.786, 627.256 773.108 C 629.664 770.246, 639.370 754.578, 696.707 661 C 728.664 608.843, 767.479 545.726, 792.326 505.514 C 819.266 461.914, 819.500 461.424, 819.500 448.485 C 819.500 439.235, 819.255 437.971, 816.294 431.950 C 804.920 408.827, 763.704 388.439, 739.746 394.086 M 331.224 396.914 C 324.040 399.577, 319.954 402.238, 315.346 407.257 C 306.739 416.630, 303.430 425.860, 304.273 438.146 C 305.783 460.177, 325 476.548, 347.172 474.689 C 361.096 473.521, 373.774 464.882, 380.120 452.234 C 383.347 445.805, 383.500 445.002, 383.500 434.500 C 383.500 424.450, 383.256 423.002, 380.670 417.735 C 376.713 409.673, 369.473 402.584, 361.275 398.746 C 352.422 394.601, 339.576 393.817, 331.224 396.914 M 425.724 405.916 C 418.974 406.879, 415.500 410.512, 415.500 416.605 C 415.500 420.495, 415.981 421.594, 418.780 424.094 L 422.059 427.025 538.612 426.762 L 655.164 426.500 658.082 423.234 C 663.036 417.690, 661.625 411.037, 654.689 407.244 C 651.715 405.617, 644.066 405.491, 541 405.367 C 480.225 405.294, 428.351 405.541, 425.724 405.916 M 334.024 517.603 C 322.802 520.619, 312.580 529.043, 307.440 539.513 C 304.754 544.984, 304.500 546.406, 304.500 556 C 304.500 565.403, 304.792 567.127, 307.298 572.500 C 319.040 597.674, 352.537 603.558, 372.196 583.900 C 388.221 567.875, 387.647 541.657, 370.944 526.640 C 360.429 517.185, 347.424 514.002, 334.024 517.603 M 420.383 521.583 C 416.690 523.405, 415 526.662, 415 531.958 C 415 535.045, 415.619 536.343, 418.077 538.411 C 419.769 539.835, 422.132 541.239, 423.327 541.531 C 424.522 541.823, 462.033 541.936, 506.685 541.781 L 587.869 541.500 590.935 538.563 C 593.441 536.161, 594 534.828, 594 531.247 C 594 525.833, 592.785 523.457, 589.020 521.510 C 586.484 520.199, 575.388 520.003, 504.800 520.023 C 433.695 520.043, 423.109 520.238, 420.383 521.583 M 766.769 585.377 L 756.038 602.736 755.769 703.118 L 755.500 803.500 752.843 808.500 C 749.526 814.743, 746.028 818.072, 739 821.678 L 733.500 824.500 665 825 L 596.500 825.500 582.808 836 C 575.278 841.775, 569.090 846.725, 569.058 847 C 569.026 847.275, 606.462 847.271, 652.250 846.991 C 744.810 846.425, 739.198 846.850, 751.500 839.473 C 762.238 833.033, 770.223 823.496, 775.217 811.146 L 777.500 805.500 778 686.750 C 778.275 621.437, 778.275 568.004, 778 568.009 C 777.725 568.014, 772.671 575.830, 766.769 585.377 M 330.137 639.956 C 319.013 644.052, 310.457 652.864, 305.923 664.895 C 304.190 669.492, 303.881 672.118, 304.203 679.500 C 304.698 690.866, 307.659 697.790, 315.287 705.417 C 331.238 721.368, 353.956 721.946, 370.504 706.822 C 380.119 698.035, 384.594 687.151, 383.783 674.525 C 382.906 660.860, 374.112 648.137, 361.117 641.734 C 355.310 638.873, 353.457 638.470, 345.027 638.241 C 337.545 638.037, 334.349 638.405, 330.137 639.956 M 420.314 639.935 C 418.561 641.012, 416.649 642.787, 416.064 643.881 C 413.070 649.474, 416.938 657.027, 423.824 659.037 C 426.281 659.754, 443.195 660.009, 474.833 659.805 L 522.165 659.500 525.083 656.234 C 528.945 651.910, 529.163 645.464, 525.587 641.306 L 523.174 638.500 473.337 638.238 C 425.360 637.987, 423.381 638.050, 420.314 639.935 M 550 729.258 C 550 729.400, 547.525 743.439, 544.500 760.455 C 541.475 777.471, 539 791.706, 539 792.088 C 539 792.470, 540.223 793.090, 541.718 793.465 C 543.212 793.840, 546.792 795.262, 549.671 796.624 L 554.907 799.101 578.204 782.442 C 591.017 773.279, 601.929 765.379, 602.454 764.887 C 604.500 762.967, 585.701 746.418, 573.143 739.084 C 565.737 734.758, 550 728.077, 550 729.258" stroke="none" fill="#104f8d" fill-rule="evenodd"/><path d="M 0 512.001 L 0 1024.002 512.250 1023.751 L 1024.500 1023.500 1024.751 511.750 L 1025.002 0 512.501 0 L 0 0 0 512.001 M 0.496 512.500 C 0.496 794.100, 0.610 909.151, 0.750 768.168 C 0.890 627.186, 0.890 396.786, 0.750 256.168 C 0.610 115.551, 0.496 230.900, 0.496 512.500 M 290 143.994 C 266.214 144.530, 262.911 144.811, 257.751 146.741 C 245.567 151.298, 234.537 161.031, 228.899 172.200 C 222.605 184.669, 223.031 161.254, 223.015 495.356 C 223.001 770.318, 223.155 800.814, 224.584 806.356 C 228.196 820.366, 238.697 833.981, 250.748 840.279 C 264.456 847.443, 263.549 847.335, 314 847.787 C 339.025 848.011, 388.300 847.874, 423.500 847.482 L 487.500 846.770 487.188 835.885 L 486.875 825 378.975 825 C 273.380 825, 270.960 824.957, 265.708 822.992 C 258.072 820.135, 252.665 815.097, 248.792 807.229 L 245.500 800.542 245.500 494.521 L 245.500 188.500 247.757 183.969 C 251.159 177.141, 255.208 172.755, 261.144 169.466 L 266.500 166.500 445.750 166.239 L 625 165.978 625 206.265 C 625 228.423, 625.467 250.366, 626.038 255.026 C 628.080 271.704, 636.983 284.916, 650.774 291.734 L 658.392 295.500 707.196 295.786 L 756 296.072 756 331.991 L 756 367.909 759.750 368.553 C 764.103 369.301, 774.235 371.769, 776.468 372.626 C 777.830 373.149, 778 368.209, 778 328.075 C 778 291.327, 777.736 282.303, 776.579 279.535 C 775.061 275.902, 647 147.733, 642.158 145 C 639.827 143.684, 619.643 143.494, 478 143.448 C 389.175 143.420, 304.575 143.665, 290 143.994 M 336.045 273.092 C 324.260 275.403, 313.546 284.004, 307.788 295.778 C 304.703 302.085, 304.500 303.152, 304.500 313.053 C 304.500 323.096, 304.666 323.934, 307.934 330.371 C 312.181 338.737, 319.839 345.994, 327.753 349.152 C 332.378 350.997, 335.453 351.449, 343.500 351.470 C 352.660 351.493, 354.056 351.232, 360.123 348.359 C 396.292 331.236, 389.548 280.500, 350.109 273.021 C 343.992 271.861, 342.284 271.869, 336.045 273.092 M 420.763 291.556 C 417.651 293.255, 415 297.745, 415 301.315 C 415 304.557, 418.588 308.930, 422.636 310.621 C 425.346 311.753, 440.063 312, 504.948 312 C 591.666 312, 589.719 312.131, 593.302 306.066 C 595.871 301.717, 595.457 297.543, 592.082 293.766 L 589.165 290.500 506.332 290.281 C 434.436 290.090, 423.139 290.259, 420.763 291.556 M 739.746 394.086 C 733.561 395.543, 726.666 399.553, 722.423 404.161 C 717.810 409.168, 720.063 405.573, 665.510 495 C 642.527 532.675, 615.984 576.100, 606.525 591.500 C 597.066 606.900, 576.170 641.012, 560.090 667.304 L 530.854 715.108 520.433 775.304 C 514.701 808.412, 510.009 836.767, 510.006 838.316 C 510.003 839.864, 510.486 842.040, 511.080 843.150 C 512.607 846.002, 518.518 848.258, 522.354 847.453 C 524.084 847.089, 532.250 841.962, 540.500 836.059 C 548.750 830.156, 571.067 814.264, 590.094 800.743 C 609.120 787.222, 625.843 774.786, 627.256 773.108 C 629.664 770.246, 639.370 754.578, 696.707 661 C 728.664 608.843, 767.479 545.726, 792.326 505.514 C 819.266 461.914, 819.500 461.424, 819.500 448.485 C 819.500 439.235, 819.255 437.971, 816.294 431.950 C 804.920 408.827, 763.704 388.439, 739.746 394.086 M 331.224 396.914 C 324.040 399.577, 319.954 402.238, 315.346 407.257 C 306.739 416.630, 303.430 425.860, 304.273 438.146 C 305.783 460.177, 325 476.548, 347.172 474.689 C 361.096 473.521, 373.774 464.882, 380.120 452.234 C 383.347 445.805, 383.500 445.002, 383.500 434.500 C 383.500 424.450, 383.256 423.002, 380.670 417.735 C 376.713 409.673, 369.473 402.584, 361.275 398.746 C 352.422 394.601, 339.576 393.817, 331.224 396.914 M 425.724 405.916 C 418.974 406.879, 415.500 410.512, 415.500 416.605 C 415.500 420.495, 415.981 421.594, 418.780 424.094 L 422.059 427.025 538.612 426.762 L 655.164 426.500 658.082 423.234 C 663.036 417.690, 661.625 411.037, 654.689 407.244 C 651.715 405.617, 644.066 405.491, 541 405.367 C 480.225 405.294, 428.351 405.541, 425.724 405.916 M 334.024 517.603 C 322.802 520.619, 312.580 529.043, 307.440 539.513 C 304.754 544.984, 304.500 546.406, 304.500 556 C 304.500 565.403, 304.792 567.127, 307.298 572.500 C 319.040 597.674, 352.537 603.558, 372.196 583.900 C 388.221 567.875, 387.647 541.657, 370.944 526.640 C 360.429 517.185, 347.424 514.002, 334.024 517.603 M 420.383 521.583 C 416.690 523.405, 415 526.662, 415 531.958 C 415 535.045, 415.619 536.343, 418.077 538.411 C 419.769 539.835, 422.132 541.239, 423.327 541.531 C 424.522 541.823, 462.033 541.936, 506.685 541.781 L 587.869 541.500 590.935 538.563 C 593.441 536.161, 594 534.828, 594 531.247 C 594 525.833, 592.785 523.457, 589.020 521.510 C 586.484 520.199, 575.388 520.003, 504.800 520.023 C 433.695 520.043, 423.109 520.238, 420.383 521.583 M 766.769 585.377 L 756.038 602.736 755.769 703.118 L 755.500 803.500 752.843 808.500 C 749.526 814.743, 746.028 818.072, 739 821.678 L 733.500 824.500 665 825 L 596.500 825.500 582.808 836 C 575.278 841.775, 569.090 846.725, 569.058 847 C 569.026 847.275, 606.462 847.271, 652.250 846.991 C 744.810 846.425, 739.198 846.850, 751.500 839.473 C 762.238 833.033, 770.223 823.496, 775.217 811.146 L 777.500 805.500 778 686.750 C 778.275 621.437, 778.275 568.004, 778 568.009 C 777.725 568.014, 772.671 575.830, 766.769 585.377 M 330.137 639.956 C 319.013 644.052, 310.457 652.864, 305.923 664.895 C 304.190 669.492, 303.881 672.118, 304.203 679.500 C 304.698 690.866, 307.659 697.790, 315.287 705.417 C 331.238 721.368, 353.956 721.946, 370.504 706.822 C 380.119 698.035, 384.594 687.151, 383.783 674.525 C 382.906 660.860, 374.112 648.137, 361.117 641.734 C 355.310 638.873, 353.457 638.470, 345.027 638.241 C 337.545 638.037, 334.349 638.405, 330.137 639.956 M 420.314 639.935 C 418.561 641.012, 416.649 642.787, 416.064 643.881 C 413.070 649.474, 416.938 657.027, 423.824 659.037 C 426.281 659.754, 443.195 660.009, 474.833 659.805 L 522.165 659.500 525.083 656.234 C 528.945 651.910, 529.163 645.464, 525.587 641.306 L 523.174 638.500 473.337 638.238 C 425.360 637.987, 423.381 638.050, 420.314 639.935 M 550 729.258 C 550 729.400, 547.525 743.439, 544.500 760.455 C 541.475 777.471, 539 791.706, 539 792.088 C 539 792.470, 540.223 793.090, 541.718 793.465 C 543.212 793.840, 546.792 795.262, 549.671 796.624 L 554.907 799.101 578.204 782.442 C 591.017 773.279, 601.929 765.379, 602.454 764.887 C 604.500 762.967, 585.701 746.418, 573.143 739.084 C 565.737 734.758, 550 728.077, 550 729.258" stroke="none" fill="#fbfbfb" fill-rule="evenodd"/></svg>