<svg xmlns="http://www.w3.org/2000/svg" width="1024" height="1024" viewBox="0 0 1024 1024" version="1.1"><path d="M 446 171.886 C 402.356 185.996, 380.779 238.689, 374.908 345.500 C 373.584 369.582, 374.262 465.875, 375.954 494 C 376.533 503.625, 377.692 523.200, 378.530 537.500 C 379.368 551.800, 381.143 580.600, 382.475 601.500 C 387.142 674.755, 387.445 681.777, 387.472 717.500 C 387.496 747.970, 387.216 755.190, 385.652 764.500 C 381.258 790.649, 372.768 806.036, 359 812.799 C 354.334 815.091, 352.212 815.500, 345 815.500 C 337.471 815.500, 335.950 815.177, 331.687 812.671 C 322.661 807.365, 321.213 801.672, 325.487 788.288 C 326.855 784.005, 327.980 779.330, 327.987 777.900 C 328.024 770.445, 314.417 760.775, 303.748 760.673 C 293.036 760.571, 284.835 767.083, 281.490 778.345 C 278.658 787.881, 280.452 799.256, 286.702 811.397 C 291.359 820.444, 306.657 835.987, 315.510 840.666 C 331.448 849.089, 354.569 849.922, 370.464 842.645 C 386.791 835.170, 401.327 821.429, 410.361 804.930 C 423.276 781.341, 432.774 739.107, 438.232 681 C 440.216 659.875, 439.865 560.930, 437.677 524.500 C 435.495 488.177, 432.565 443.689, 430.004 408 C 425.781 349.147, 424.788 328.353, 424.725 297.500 C 424.637 254.139, 427.182 235.961, 435.576 219.987 C 445.689 200.741, 466.128 193.856, 476.512 206.196 C 479.560 209.819, 479.683 213.625, 477 221.260 C 473.973 229.871, 474.308 235.142, 478.160 239.529 C 484.039 246.226, 496.768 250.862, 505.626 249.533 C 510.914 248.740, 516.100 244.593, 519.306 238.595 C 521.120 235.201, 521.492 232.875, 521.481 225 C 521.470 216.404, 521.162 214.848, 518.253 208.654 C 511.576 194.435, 501.624 183.276, 490.179 177.176 C 477.337 170.331, 457.978 168.013, 446 171.886 M 594.798 239.931 C 578.537 245.130, 567.126 258.135, 562.095 277.201 C 561.036 281.215, 559.897 286.127, 559.565 288.115 L 558.960 291.729 552.640 292.237 C 545.467 292.812, 541.739 294.802, 540.010 298.975 C 537.244 305.654, 544.031 313, 552.968 313 C 554.636 313, 556 313.404, 556 313.897 C 556 315.419, 543.027 384.998, 541.831 389.892 C 540.236 396.418, 537.393 401.696, 534.426 403.640 C 533.025 404.558, 528.418 405.904, 524.189 406.630 C 517.778 407.731, 516.043 408.455, 513.750 410.991 C 509.795 415.364, 509.911 420.905, 514.029 424.371 C 524.959 433.568, 549.487 423.865, 558.015 406.971 C 563.954 395.205, 570.463 366.470, 578.566 316.250 L 579.091 313 588.230 313 C 595.347 313, 598.289 312.554, 601.530 310.985 C 609.325 307.212, 610.097 298.852, 603.036 294.680 C 601.376 293.700, 596.737 292.761, 591.601 292.366 C 584.358 291.809, 583.028 291.443, 583.384 290.101 C 589.727 266.143, 594.352 260.042, 606.218 259.976 C 620.884 259.894, 627.731 251.531, 619.703 243.503 C 614.093 237.893, 605.173 236.614, 594.798 239.931 M 660.500 239.468 C 650.197 243.137, 634.966 267.737, 627.047 293.500 C 621.253 312.349, 619.312 341.305, 622.455 362 C 626.250 386.989, 637.127 412.006, 649.915 425.155 C 653.996 429.353, 656.338 431, 658.222 431 C 661.743 431, 666.599 426.746, 668.031 422.407 C 669.359 418.382, 668.440 416.165, 659.258 401.236 C 645.746 379.268, 639.306 352.622, 641.911 329.468 C 644.262 308.575, 650.232 292.441, 664.504 268.408 C 674.692 251.252, 676.030 246.397, 671.860 241.721 C 668.843 238.338, 665.522 237.680, 660.500 239.468 M 763.313 239.127 C 759.323 240.251, 756 244.366, 756 248.185 C 756 251.894, 757.750 255.243, 764.017 263.523 C 789.178 296.765, 793.219 351.688, 773.411 391.211 C 771.402 395.220, 766.888 402.631, 763.379 407.680 C 758.903 414.122, 757 417.780, 757 419.945 C 757 424.258, 762.334 429.884, 767.148 430.649 C 770.406 431.167, 771.278 430.785, 775.297 427.081 C 787.903 415.460, 799.943 391.219, 805.037 367.199 C 808.037 353.049, 808.761 327.929, 806.590 313.235 C 802.909 288.309, 794.673 267.720, 780.838 248.853 C 774.023 239.559, 769.901 237.272, 763.313 239.127 M 683.722 294.135 C 679.939 296.957, 678 301.057, 678 306.236 C 678 309.968, 679.315 312.691, 687.452 325.817 L 696.903 341.064 682.576 360.037 C 674.373 370.898, 667.985 380.325, 667.633 382.086 C 666.823 386.135, 668.392 388.848, 672.548 390.585 C 681.238 394.215, 684.654 392.076, 697.429 375.002 L 707.868 361.050 709.790 364.275 C 710.848 366.049, 714.134 371.937, 717.093 377.360 C 723.630 389.341, 726.456 392, 732.654 392 C 736.294 392, 737.712 391.442, 740.077 389.077 C 744.892 384.262, 744.252 381.742, 732.976 361.106 C 726.662 349.550, 723.272 342.343, 723.815 341.631 C 724.288 341.009, 729.413 334.650, 735.203 327.500 C 740.993 320.350, 746.689 312.925, 747.861 311 C 754.331 300.375, 743.831 286.839, 734.694 294.026 C 733.278 295.140, 727.781 301.778, 722.479 308.776 C 717.177 315.774, 712.538 321.597, 712.170 321.715 C 711.801 321.833, 708.800 316.917, 705.500 310.791 C 695.870 292.914, 690.680 288.945, 683.722 294.135" stroke="none" fill="#0c4682" fill-rule="evenodd" data-index="0" style="opacity: 1;"></path></svg>