<svg xmlns="http://www.w3.org/2000/svg" width="24" height="24" fill="none" viewBox="0 0 24 24">
  <path stroke="#fff" stroke-width="2" stroke-linecap="round" stroke-linejoin="round" d="M3 5.5A2.5 2.5 0 0 1 5.5 3h2A2.5 2.5 0 0 1 10 5.5v1A2.5 2.5 0 0 1 7.5 9h-2A2.5 2.5 0 0 1 3 6.5v-1zm0 13v-1A2.5 2.5 0 0 1 5.5 15h2A2.5 2.5 0 0 1 10 17.5v1A2.5 2.5 0 0 1 7.5 21h-2A2.5 2.5 0 0 1 3 18.5zm11-13h2A2.5 2.5 0 0 1 18.5 5.5v1A2.5 2.5 0 0 1 16 9h-2A2.5 2.5 0 0 1 11.5 6.5v-1A2.5 2.5 0 0 1 14 3zm0 13h2A2.5 2.5 0 0 1 18.5 17.5v1A2.5 2.5 0 0 1 16 21h-2a2.5 2.5 0 0 1-2.5-2.5v-1A2.5 2.5 0 0 1 14 15z"/>
</svg> 