<svg xmlns="http://www.w3.org/2000/svg" width="1024" height="1024" viewBox="0 0 1024 1024" version="1.1"><path d="M 612 111.726 C 661.212 112.336, 848.166 112.451, 845.448 111.868 C 843.827 111.521, 785.800 111.287, 716.500 111.348 C 647.200 111.409, 600.175 111.579, 612 111.726 M 578.500 113.732 C 573.261 115.041, 561.572 120.303, 554.902 124.355 C 537.248 135.077, 522.664 153.130, 515.994 172.517 C 511.047 186.897, 510.884 190.552, 511.225 279.500 C 511.541 361.917, 511.559 362.556, 513.782 370.500 C 521.527 398.180, 540.839 420.716, 566.252 431.729 C 573.600 434.913, 589.402 438.955, 594.631 438.987 C 596.697 439, 596.773 439.474, 597.164 454.839 C 597.558 470.315, 597.642 470.830, 600.819 477.283 C 604.364 484.484, 608.849 488.719, 616.530 492.116 C 620.378 493.818, 622.771 494.128, 629.860 493.840 C 643.427 493.290, 644.659 492.438, 674 463.323 L 699.500 438.020 771.292 438.010 C 849.108 437.999, 849.897 437.952, 864.724 432.387 C 876.695 427.894, 888.962 419.535, 898.173 409.595 C 906.190 400.944, 915.126 385.089, 918.319 373.855 C 921.940 361.112, 922.141 355.122, 921.796 270.500 C 921.459 188.114, 921.440 187.441, 919.218 179.500 C 912.891 156.886, 899.009 137.728, 880.078 125.482 C 871.997 120.254, 858.674 114.509, 852.487 113.583 C 850.078 113.223, 852.259 114.295, 858 116.294 C 873.867 121.817, 881.257 126.299, 892.862 137.435 C 903.704 147.839, 912.453 161.785, 916.429 175.002 C 920.668 189.091, 920.988 196.066, 920.991 274.500 C 920.993 320.514, 920.589 352.978, 919.945 358.500 C 917.479 379.637, 908.808 397.059, 893.202 412.237 C 883.783 421.397, 875.455 426.887, 864.820 430.949 C 849.424 436.828, 846.747 436.998, 769.619 437.015 C 731.054 437.024, 698.941 437.386, 698.257 437.820 C 697.574 438.254, 685.874 449.609, 672.257 463.054 C 644.612 490.352, 642.244 492.039, 630.566 492.761 C 618.764 493.490, 607.488 487.798, 602.894 478.792 C 599.635 472.404, 597.879 461.763, 598.073 449.576 L 598.249 438.516 594.875 437.843 C 593.019 437.473, 587.555 436.398, 582.732 435.454 C 571.943 433.342, 557.304 426.890, 549.262 420.702 C 535.885 410.408, 524.092 394.785, 518.554 380.020 C 512.304 363.360, 512.654 368.828, 512.239 281.500 C 511.971 225.235, 512.199 198.681, 513.007 192 C 515.502 171.370, 524.165 153.857, 539.495 138.452 C 550.081 127.815, 560.539 121.279, 574.893 116.330 C 583.120 113.494, 585.069 112.090, 578.500 113.732 M 609.500 145.097 C 596.298 145.512, 589.096 146.170, 585.901 147.254 C 566.175 153.944, 552.037 169.293, 546.203 190.351 C 544.664 195.907, 544.500 204.218, 544.500 276.500 L 544.500 356.500 546.763 363.500 C 550.047 373.657, 554.366 380.569, 562.403 388.530 C 574.359 400.374, 585.079 404.667, 604.500 405.391 C 610.550 405.617, 616.028 405.846, 616.673 405.901 C 618.649 406.068, 623.978 411.059, 625.714 414.369 C 627.018 416.855, 627.491 421.930, 628.008 439 L 628.658 460.500 628.805 441 C 628.960 420.509, 628.336 415.267, 625.255 411.139 C 620.851 405.241, 618.959 404.604, 603.714 403.886 C 587.210 403.109, 581.608 401.457, 570.571 394.112 C 560.031 387.097, 551.131 374.557, 547.367 361.419 C 545.860 356.158, 545.629 347.393, 545.288 282.537 C 544.889 206.612, 545.223 197.963, 549.039 185.609 C 554.581 167.668, 571.640 151.891, 590.240 147.506 C 599.544 145.312, 835.719 145.284, 843.955 147.475 C 859.576 151.632, 874.592 163.947, 881.402 178.185 C 888.035 192.055, 887.965 191.004, 887.968 276.500 C 887.971 361.894, 888.109 359.858, 881.383 373.254 C 876.576 382.824, 866.104 393.241, 856.744 397.763 C 842.673 404.560, 845.279 404.367, 764 404.644 C 723.575 404.782, 688.700 405.159, 686.500 405.481 C 682.859 406.014, 680.255 408.335, 657.500 431.332 C 643.750 445.228, 631.852 457.475, 631.059 458.549 C 630.267 459.622, 641.517 448.715, 656.059 434.310 C 670.602 419.906, 683.767 407.644, 685.315 407.060 C 687.201 406.350, 711.346 406, 758.493 406 C 831.543 406, 839.213 405.646, 850.500 401.756 C 867.394 395.934, 881.735 380.857, 886.707 363.691 L 889 355.773 889 276.134 C 889 199.555, 888.923 196.225, 887.005 189.517 C 882.846 174.973, 875.119 163.725, 863.764 155.686 C 855.846 150.080, 852.529 148.405, 845.301 146.361 C 840.102 144.891, 828.550 144.709, 734 144.610 C 675.975 144.550, 619.950 144.769, 609.500 145.097 M 706.500 171.715 C 695.696 173.209, 682.110 178.792, 673.121 185.433 C 658.731 196.063, 650.794 210.821, 649.348 229.637 L 648.702 238.043 668.597 237.772 L 688.493 237.500 689.207 231.776 C 690.091 224.698, 692.040 220.721, 697.299 215.268 C 707.275 204.925, 726.599 204.701, 737.376 214.804 C 741.799 218.950, 744.979 226.571, 744.990 233.054 C 745.009 243.461, 740.897 248.967, 719.778 266.818 C 704.212 279.975, 698.153 291.652, 697.243 310.250 L 696.717 321 715.608 320.997 L 734.500 320.994 734.658 314.747 C 734.981 301.976, 739.482 295.084, 757.263 280.131 C 773.194 266.733, 780.411 255.992, 783.616 240.906 C 789.318 214.065, 774.566 187.665, 747.500 176.277 C 737.206 171.945, 719.267 169.949, 706.500 171.715 M 711.500 172.592 C 699.295 174.172, 693.658 175.723, 685.244 179.816 C 664.092 190.107, 651.836 207.798, 650.826 229.500 L 650.500 236.500 668.539 236.772 L 686.578 237.043 687.749 231.462 C 691.296 214.551, 703.353 204.952, 719.428 206.242 C 738.528 207.775, 749.847 222.998, 745.073 240.731 C 743.458 246.727, 739.286 251.540, 724.840 264.075 C 717.503 270.442, 710.275 277.417, 708.779 279.575 C 704.457 285.809, 700.390 294.995, 699.074 301.500 C 697.817 307.708, 697.931 319.032, 699.250 319.012 C 699.663 319.005, 707.344 319, 716.321 319 L 732.641 319 733.809 311.490 C 735.534 300.392, 738.467 295.514, 749.217 285.858 C 771.094 266.209, 777.627 257.931, 781.405 245.068 C 783.235 238.838, 783.514 222.943, 781.915 216 C 779.371 204.954, 769.463 190.855, 759.361 183.905 C 754.088 180.276, 743.439 175.755, 736.499 174.197 C 730.920 172.944, 716.117 171.994, 711.500 172.592 M 708.030 340.113 C 700.896 342.960, 694.034 352.354, 694.010 359.307 C 693.992 364.393, 696.130 370.702, 699.087 374.290 C 706.933 383.808, 723.332 384.748, 732.342 376.197 C 743.657 365.458, 740.180 346.567, 725.782 340.553 C 721.657 338.830, 711.853 338.587, 708.030 340.113 M 709.791 340.936 C 699.372 344.278, 693.611 355.211, 696.467 366.221 C 700.285 380.937, 719.906 385.984, 731.365 375.197 C 735.112 371.669, 738 364.891, 738 359.623 C 738 353.754, 732.826 345.337, 727.553 342.627 C 723.243 340.413, 714.127 339.545, 709.791 340.936 M 314 360.532 C 296.707 362.946, 280.679 369.431, 265.737 380.060 C 212.707 417.781, 201.738 493.875, 240.814 552.963 C 259.622 581.404, 290.425 600.434, 321.500 602.811 C 353.680 605.273, 380.321 594.925, 404.500 570.572 C 420.106 554.854, 429.727 539.041, 437.023 517.121 C 445.996 490.158, 446.132 464.525, 437.447 437 C 425.642 399.586, 393.803 370.430, 355.500 361.958 C 348.301 360.365, 337.041 359.257, 337.622 360.198 C 337.895 360.639, 339.779 361.004, 341.809 361.009 C 347.848 361.024, 365.909 365.566, 374.621 369.262 C 402.438 381.060, 425.717 406.316, 435.674 435.500 C 446.724 467.890, 444.273 502.115, 428.590 534.375 C 421.030 549.927, 413.448 560.410, 401.365 572.015 C 385.427 587.324, 370.239 595.638, 349.334 600.497 C 341.707 602.271, 322.089 602.331, 312.500 600.611 C 293.371 597.180, 274.154 587.004, 258.615 572.075 C 248.231 562.100, 240.787 551.956, 233.975 538.500 C 223.853 518.506, 220.035 503.706, 219.273 481.500 C 218.483 458.484, 221.619 442.403, 230.391 424.500 C 237.095 410.815, 242.635 402.900, 252.590 392.782 C 265.339 379.825, 281.121 370.360, 298.663 365.148 C 308.865 362.117, 329.298 359.356, 333.576 360.430 C 334.954 360.775, 336 360.598, 336 360.019 C 336 358.649, 325.785 358.887, 314 360.532 M 520.856 473.053 C 505.986 474.757, 488.103 482.508, 477.290 491.937 C 464.044 503.486, 454.060 519.404, 449.286 536.580 C 446.797 545.536, 446.532 548.055, 446.555 562.500 C 446.578 576.764, 446.875 579.568, 449.291 588.343 C 458.267 620.933, 483.147 646.408, 514.066 654.666 C 522.863 657.015, 540.333 657.031, 549 654.697 C 557.235 652.479, 568.083 647.371, 576.191 641.891 C 605.900 621.815, 622.826 581.737, 616.608 546.192 C 608.589 500.347, 566.075 467.873, 520.856 473.053 M 511.349 475.985 C 495.951 480.021, 485.038 486.122, 474.116 496.800 C 461.447 509.185, 455.056 520.232, 449.747 538.921 C 446.529 550.251, 446.640 574.021, 449.968 586 C 457.527 613.211, 472.541 633.130, 495.081 645.851 C 506.820 652.475, 517.665 655.162, 532.567 655.137 C 542.014 655.121, 544.957 654.692, 552.679 652.209 C 576.132 644.667, 597.358 625.219, 607.983 601.537 C 619.456 575.967, 619.373 545.687, 607.767 522.500 C 595.783 498.556, 572.194 480.228, 547.162 475.412 C 536.757 473.410, 520.158 473.676, 511.349 475.985 M 287.500 635.931 C 281.450 636.301, 277.400 636.747, 278.500 636.921 C 279.600 637.095, 280.729 637.220, 281.009 637.199 C 281.289 637.178, 296.364 636.859, 314.509 636.490 C 364.787 635.468, 397.960 637.485, 423.500 643.116 C 469.627 653.287, 504.475 678.803, 525.772 718 C 534.826 734.663, 541.543 761.018, 542.975 785.500 C 543.425 793.200, 543.727 819.075, 543.647 843 L 543.500 886.500 540.789 892 C 537.229 899.222, 531.998 904.460, 524.554 908.257 L 518.500 911.345 328.415 911.391 L 138.330 911.437 131.859 908.251 C 124.800 904.776, 120.272 899.994, 116.683 892.225 C 114.523 887.550, 114.500 886.924, 114.513 833 C 114.525 781.019, 114.629 777.942, 116.746 766.437 C 120.958 743.550, 129.197 721.532, 139.177 706.492 C 153.514 684.887, 174.532 666.715, 198.043 655.597 C 215.534 647.327, 242.258 640.742, 268 638.360 C 272.675 637.927, 275.180 637.406, 273.566 637.202 C 269.184 636.649, 252.112 638.765, 238.175 641.589 C 207.840 647.736, 183.969 658.997, 163.492 676.817 C 133.738 702.713, 116.975 738.826, 113.510 784.500 C 112.514 797.627, 112.217 837.808, 112.923 864 C 113.517 886.051, 113.797 888.972, 115.721 893.217 C 118.706 899.806, 126.074 907.334, 132.286 910.142 L 137.500 912.500 328 912.500 L 518.500 912.500 524.617 909.673 C 532.233 906.154, 538.061 900.295, 541.699 892.500 L 544.500 886.500 544.804 838.500 C 545.051 799.653, 544.805 787.803, 543.517 776.358 C 539.041 736.582, 526.177 708.146, 501.509 683.500 C 473.869 655.884, 440.134 641.676, 391 636.959 C 377.639 635.677, 303.655 634.941, 287.500 635.931 M 533.064 685.120 C 533.689 686.287, 535.900 689.873, 537.980 693.090 C 546.677 706.547, 555.905 729.185, 560.566 748.501 C 565.822 770.285, 566.263 776.099, 566.727 829.779 L 567.161 880.058 629.330 879.779 L 691.500 879.500 696.108 876.791 C 701.539 873.598, 703.999 870.215, 704.559 865.169 L 704.965 861.500 704.083 864.877 C 702.731 870.052, 699.913 873.237, 694.020 876.250 L 688.641 879 628.321 879 L 568 879 567.995 831.750 C 567.990 789.630, 567.771 783.012, 565.977 770.794 C 564.045 757.636, 557.778 730.751, 556.130 728.556 C 555.694 727.975, 554.303 724.575, 553.038 721 C 550.262 713.153, 543.303 699.076, 538.454 691.495 C 536.504 688.448, 535.182 685.515, 535.514 684.978 C 536.272 683.750, 556.344 683.769, 577.500 685.016 C 594.512 686.020, 611.036 688.641, 622.500 692.155 C 660.681 703.859, 689.590 735.064, 699.969 775.775 C 703.264 788.703, 704.220 799.192, 704.998 831 L 705.745 861.500 705.466 828 C 705.250 802.077, 704.817 792.578, 703.554 786 C 698.570 760.055, 687.953 738.432, 671.899 721.531 C 662.082 711.195, 653.596 704.963, 640.500 698.470 C 617.802 687.216, 593.096 683.031, 549.215 683.009 L 531.930 683 533.064 685.120" stroke="none" fill="#0a3d8f" fill-rule="evenodd"/><path d="M 655.750 110.750 C 689.438 110.896, 744.563 110.896, 778.250 110.750 C 811.938 110.604, 784.375 110.484, 717 110.484 C 649.625 110.484, 622.063 110.604, 655.750 110.750 M 588.787 112.266 C 589.729 112.688, 588.475 112.794, 586 112.502 C 582.581 112.099, 581.860 112.235, 583 113.070 C 584.159 113.919, 583.704 114.051, 581 113.652 C 579.075 113.368, 578.114 113.385, 578.865 113.689 C 579.616 113.994, 576.466 115.697, 571.865 117.473 C 567.264 119.250, 562.639 121.072, 561.586 121.522 C 560.130 122.144, 559.868 122.023, 560.490 121.015 C 561.039 120.128, 560.923 119.930, 560.138 120.415 C 559.494 120.813, 559.212 121.535, 559.512 122.019 C 559.811 122.503, 559.173 123.372, 558.094 123.950 C 555.543 125.315, 554.709 125.280, 555.595 123.845 C 556.041 123.124, 555.869 122.963, 555.138 123.415 C 554.494 123.813, 554.212 124.535, 554.512 125.019 C 555.271 126.248, 551.230 128.248, 549.729 127.386 C 549.053 126.997, 548.838 127.052, 549.252 127.509 C 550.080 128.421, 547.267 132, 545.723 132 C 545.190 132, 545.373 131.213, 546.128 130.250 C 547.376 128.659, 547.339 128.626, 545.726 129.893 C 544.750 130.658, 544.172 131.505, 544.440 131.774 C 545.045 132.378, 530.167 148.500, 529.006 148.500 C 528.544 148.500, 527.792 148.910, 527.333 149.410 C 526.849 149.939, 527.024 150.019, 527.750 149.601 C 529.720 148.468, 529.283 149.587, 524.860 157.003 C 522.582 160.821, 520.263 163.662, 519.705 163.318 C 519.147 162.973, 518.989 163.174, 519.354 163.764 C 519.718 164.353, 518.698 168.811, 517.086 173.668 C 512.077 188.764, 511.824 194.398, 512.242 281.500 C 512.614 359.046, 512.689 361.715, 514.707 368.500 C 517.870 379.135, 519.754 383.887, 523.541 390.775 C 527.342 397.692, 527.600 398.463, 525.750 397.399 C 525.024 396.981, 524.849 397.061, 525.333 397.590 C 525.792 398.090, 526.654 398.500, 527.250 398.500 C 527.846 398.500, 528.542 399.125, 528.796 399.889 C 529.113 400.839, 528.823 401.026, 527.880 400.479 C 527.065 400.007, 526.841 400.052, 527.333 400.590 C 527.792 401.090, 528.501 401.500, 528.910 401.500 C 530.025 401.500, 546.028 418.639, 545.451 419.216 C 545.176 419.490, 545.750 420.342, 546.726 421.107 C 548.339 422.374, 548.376 422.341, 547.128 420.750 C 546.310 419.707, 546.185 419, 546.819 419 C 547.872 419, 549.455 420.881, 549.485 422.167 C 549.493 422.533, 549.910 423.208, 550.410 423.667 C 550.939 424.151, 551.019 423.976, 550.601 423.250 C 550.206 422.563, 550.303 422, 550.819 422 C 552.277 422, 554.068 424.589, 553.241 425.502 C 552.834 425.952, 552.996 426.038, 553.603 425.692 C 554.209 425.347, 559.039 427.016, 564.335 429.401 C 569.873 431.895, 577.690 434.467, 582.732 435.454 C 587.555 436.398, 592.961 437.469, 594.747 437.835 L 597.995 438.500 598.321 453 C 598.640 467.192, 599.278 470.560, 603.517 480.414 C 604.143 481.871, 604.024 482.133, 603.015 481.510 C 602.128 480.961, 601.930 481.077, 602.415 481.862 C 602.813 482.506, 603.492 482.814, 603.924 482.547 C 604.776 482.020, 609.714 486.839, 609.167 487.664 C 608.983 487.940, 609.168 488.467, 609.577 488.833 C 609.986 489.200, 609.961 488.879, 609.521 488.120 C 609.081 487.361, 609.122 486.934, 609.611 487.171 C 610.100 487.408, 612.750 488.704, 615.500 490.051 C 619.613 492.065, 622.008 492.500, 629 492.500 C 638.770 492.500, 642.929 490.832, 651.618 483.430 C 654.434 481.032, 657.059 479.392, 657.452 479.785 C 657.845 480.178, 658.017 479.970, 657.833 479.323 C 657.352 477.625, 671.866 462.799, 673.202 463.625 C 673.811 464.001, 674.033 463.863, 673.696 463.317 C 672.893 462.018, 680.369 454.726, 681.473 455.730 C 681.939 456.153, 682.038 456.004, 681.693 455.399 C 681.348 454.793, 685.043 450.406, 689.904 445.649 L 698.742 437 769.240 437 C 847.924 437, 850.129 436.849, 865.805 430.386 C 870.587 428.414, 875.255 426.749, 876.179 426.686 C 877.102 426.623, 877.777 426.261, 877.679 425.882 C 877.493 425.166, 885.500 419, 886.614 419 C 886.961 419, 886.627 419.788, 885.872 420.750 C 884.630 422.334, 884.665 422.370, 886.239 421.137 C 887.195 420.387, 887.780 419.453, 887.539 419.062 C 887.029 418.237, 901.856 403.252, 902.442 404 C 902.657 404.275, 903.208 404.090, 903.667 403.590 C 904.151 403.061, 903.976 402.981, 903.250 403.399 C 901.424 404.449, 901.717 403.206, 904.076 399.893 C 905.219 398.289, 906.537 397.214, 907.007 397.505 C 907.477 397.795, 908.187 397.506, 908.585 396.862 C 909.037 396.131, 908.876 395.959, 908.155 396.405 C 906.720 397.291, 906.685 396.457, 908.050 393.906 C 908.628 392.827, 909.497 392.189, 909.981 392.488 C 910.465 392.788, 911.187 392.506, 911.585 391.862 C 912.037 391.131, 911.876 390.959, 911.155 391.405 C 909.571 392.383, 909.651 392.038, 912.485 385.630 C 916.504 376.543, 918.824 368.102, 919.945 358.500 C 920.589 352.978, 920.993 320.514, 920.991 274.500 C 920.988 196.066, 920.668 189.091, 916.429 175.002 C 914.513 168.631, 909.004 157.348, 904.868 151.320 C 901.805 146.856, 901.294 145.445, 903.155 146.595 C 903.892 147.051, 904.037 146.868, 903.554 146.088 C 903.139 145.416, 902.531 145.135, 902.203 145.463 C 901.414 146.253, 886.963 131.869, 887.566 130.893 C 887.823 130.478, 887.506 129.813, 886.862 129.415 C 886.131 128.963, 885.959 129.124, 886.405 129.845 C 886.797 130.480, 886.668 131, 886.118 131 C 885.117 131, 883.544 129.087, 883.515 127.833 C 883.507 127.467, 883.090 126.792, 882.590 126.333 C 882.052 125.841, 882.007 126.065, 882.479 126.880 C 883.026 127.823, 882.839 128.113, 881.889 127.796 C 881.125 127.542, 880.500 126.846, 880.500 126.250 C 880.500 125.654, 880.090 124.792, 879.590 124.333 C 879.052 123.841, 879.007 124.065, 879.479 124.880 C 880.029 125.829, 879.845 126.102, 878.889 125.755 C 878.125 125.477, 877.624 124.710, 877.775 124.051 C 877.926 123.391, 877.618 123.118, 877.090 123.444 C 875.838 124.218, 866.945 119.899, 867.601 118.836 C 867.878 118.389, 867.332 118.319, 866.388 118.681 C 865.132 119.164, 864.891 118.985, 865.490 118.015 C 866.050 117.109, 865.924 116.929, 865.091 117.444 C 863.391 118.494, 848.613 113.872, 850.242 112.800 C 850.953 112.332, 849.544 112.188, 847 112.470 C 844.382 112.760, 843.465 112.661, 844.809 112.234 C 846.079 111.830, 788.608 111.500, 717.096 111.500 C 645.584 111.500, 587.845 111.845, 588.787 112.266 M 610 145.019 C 596.280 145.404, 590.079 145.991, 586 147.293 C 579.084 149.499, 570.500 154.139, 570.500 155.671 C 570.500 156.310, 570.090 157.208, 569.590 157.667 C 569.061 158.151, 568.981 157.976, 569.399 157.250 C 570.539 155.269, 568.493 155.798, 566.500 158 C 565.505 159.100, 565.069 160, 565.532 160 C 565.995 160, 565.101 161.329, 563.545 162.953 C 561.989 164.577, 560.261 165.814, 559.705 165.703 C 558.098 165.380, 550.841 176.282, 551.354 178.247 C 551.607 179.213, 551.453 179.780, 551.013 179.508 C 549.826 178.774, 547.007 186.483, 545.406 194.838 C 544.270 200.765, 544.029 215.862, 544.150 273.338 C 544.233 312.477, 544.615 342.475, 545 340 L 545.700 335.500 545.850 339.691 C 545.932 341.996, 545.519 344.179, 544.932 344.542 C 543.752 345.271, 544.443 354.818, 546.154 361.422 C 546.922 364.387, 547.400 364.997, 548.115 363.922 C 548.775 362.930, 548.876 363.296, 548.451 365.134 C 547.587 368.869, 554.878 382.811, 557.007 381.495 C 557.477 381.205, 558.187 381.494, 558.585 382.138 C 559.037 382.869, 558.876 383.041, 558.155 382.595 C 557.520 382.203, 557 382.307, 557 382.826 C 557 384.065, 569.770 396, 571.096 396 C 571.658 396, 571.797 395.480, 571.405 394.845 C 570.959 394.124, 571.131 393.963, 571.862 394.415 C 572.506 394.813, 572.784 395.541, 572.479 396.033 C 571.709 397.280, 580.868 401.755, 587.765 403.502 C 590.919 404.301, 598.830 405.133, 605.344 405.352 C 615.091 405.679, 617.646 406.092, 619.782 407.686 C 626.866 412.976, 627.818 417.063, 627.927 442.662 C 627.990 457.526, 628.206 459.793, 629.542 459.597 C 631.747 459.273, 647.020 443.841, 646.295 442.669 C 645.963 442.131, 646.128 441.961, 646.661 442.291 C 647.749 442.963, 681.391 409.724, 680.512 408.845 C 680.204 408.537, 680.750 407.658, 681.726 406.893 C 683.339 405.626, 683.376 405.659, 682.128 407.250 C 680.450 409.389, 680.931 409.438, 684.636 407.506 C 687.097 406.222, 697.436 406.011, 758.178 406.006 C 803.581 406.002, 831.653 405.611, 836.678 404.913 C 845.571 403.677, 857.500 399.856, 857.500 398.245 C 857.500 397.652, 857.910 396.792, 858.410 396.333 C 858.939 395.849, 859.019 396.024, 858.601 396.750 C 857.723 398.276, 858.500 398.338, 861.094 396.950 C 862.173 396.372, 862.823 395.523, 862.539 395.063 C 862.255 394.603, 862.805 393.613, 863.761 392.863 C 865.335 391.630, 865.370 391.666, 864.128 393.250 C 861.908 396.081, 864.427 395.252, 867.076 392.280 C 868.915 390.217, 869.018 389.902, 867.500 390.978 C 866.400 391.757, 867.723 390.066, 870.440 387.221 C 873.157 384.375, 875.590 382.257, 875.848 382.514 C 876.480 383.147, 879 380.992, 879 379.819 C 879 379.303, 878.480 379.203, 877.845 379.595 C 877.124 380.041, 876.963 379.869, 877.415 379.138 C 877.813 378.494, 878.514 378.200, 878.974 378.484 C 880.373 379.348, 884.789 370.735, 886.956 362.918 C 888.936 355.772, 889 353.044, 889 276.017 C 889 201.095, 888.891 196.112, 887.114 189.899 C 884.574 181.015, 881.260 173.721, 880.093 174.443 C 879.568 174.767, 878.813 174.506, 878.415 173.862 C 877.963 173.131, 878.124 172.959, 878.845 173.405 C 880.931 174.693, 880.052 172.168, 877.419 169.306 C 876 167.763, 875.177 167.175, 875.591 168 C 876.093 169, 875.620 168.865, 874.172 167.595 C 871.746 165.467, 871.148 164.048, 873.500 166 C 876.621 168.590, 874.838 165.247, 871.208 161.703 C 867.537 158.119, 865.135 156.791, 866.595 159.155 C 867.051 159.892, 866.868 160.037, 866.088 159.554 C 865.416 159.139, 865.118 158.549, 865.425 158.242 C 866.124 157.542, 864.081 155, 862.819 155 C 862.303 155, 862.206 155.563, 862.601 156.250 C 863.019 156.976, 862.939 157.151, 862.410 156.667 C 861.910 156.208, 861.489 155.308, 861.476 154.667 C 861.463 154.025, 860.680 153.562, 859.737 153.637 C 858.793 153.712, 858.258 153.392, 858.546 152.925 C 859.257 151.776, 852.349 148.355, 845.280 146.355 C 840.107 144.892, 828.413 144.709, 734 144.610 C 675.975 144.550, 620.175 144.734, 610 145.019 M 707.500 173.214 C 703.650 173.790, 698.850 174.315, 696.833 174.381 C 694.817 174.446, 693.365 174.698, 693.608 174.941 C 693.993 175.327, 677.433 184, 676.311 184 C 676.075 184, 676.206 183.438, 676.601 182.750 C 677.019 182.024, 676.939 181.849, 676.410 182.333 C 675.910 182.792, 675.493 183.467, 675.485 183.833 C 675.455 185.119, 673.872 187, 672.819 187 C 672.185 187, 672.310 186.293, 673.128 185.250 C 674.370 183.666, 674.335 183.630, 672.761 184.863 C 671.805 185.613, 671.223 186.552, 671.470 186.951 C 671.716 187.349, 670.101 189.436, 667.881 191.587 C 657.467 201.683, 651.504 214.939, 650.826 229.500 L 650.500 236.500 668.750 236.773 L 687 237.045 687.061 234.773 C 687.164 230.932, 690.595 221.486, 691.795 221.738 C 692.466 221.879, 692.669 221.302, 692.294 220.324 C 691.887 219.263, 692.054 218.915, 692.761 219.352 C 693.366 219.726, 694.187 219.506, 694.585 218.862 C 695.037 218.131, 694.876 217.959, 694.155 218.405 C 691.797 219.861, 693.108 217.288, 696.298 214.196 C 699.830 210.772, 702.104 209.865, 699.921 212.750 C 698.778 214.261, 698.795 214.322, 700.048 213.200 C 700.847 212.485, 701.500 211.360, 701.500 210.700 C 701.500 210.040, 703.750 208.705, 706.500 207.733 C 716.421 204.228, 731.245 207.033, 738.250 213.741 C 740.994 216.368, 742.034 218.757, 739.845 217.405 C 739.124 216.959, 738.963 217.131, 739.415 217.862 C 739.813 218.506, 740.568 218.767, 741.093 218.443 C 742.780 217.400, 746.209 226.897, 746.124 232.375 C 746 240.330, 742.362 249.960, 740.025 248.516 C 739.537 248.214, 738.813 248.494, 738.415 249.138 C 737.963 249.869, 738.124 250.041, 738.845 249.595 C 741.336 248.056, 739.805 250.784, 736.208 254.297 C 732.063 258.345, 729.548 259.354, 732.588 255.750 C 734.302 253.717, 734.221 253.734, 731.747 255.921 C 730.240 257.252, 729.232 258.565, 729.506 258.839 C 730.160 259.493, 726.971 263, 725.723 263 C 725.190 263, 725.373 262.212, 726.128 261.250 C 727.376 259.659, 727.339 259.626, 725.726 260.893 C 724.750 261.658, 724.195 262.529, 724.493 262.827 C 725.167 263.500, 718.965 270, 717.649 270 C 717.121 270, 717.547 268.988, 718.595 267.750 L 720.500 265.500 718.244 267.411 C 717.003 268.461, 716.223 269.557, 716.511 269.845 C 717.239 270.572, 710.853 277.027, 709.955 276.472 C 709.554 276.225, 708.613 276.778, 707.863 277.703 C 706.926 278.859, 706.890 279.149, 707.750 278.633 C 709.586 277.530, 709.265 279.089, 706.955 282.500 C 703.658 287.367, 700.316 295.172, 699.462 300 C 698.765 303.941, 698.581 304.189, 697.982 302 C 697.605 300.625, 697.491 303.550, 697.727 308.500 C 697.963 313.450, 698.288 317.950, 698.450 318.500 C 698.634 319.131, 705.016 319.391, 715.748 319.205 L 732.754 318.911 733.426 313.705 C 734.475 305.575, 735.951 300.852, 737.201 301.624 C 737.864 302.034, 738.027 301.853, 737.608 301.175 C 736.339 299.121, 742.289 290.443, 744.170 291.605 C 744.654 291.904, 744.926 291.553, 744.775 290.824 C 744.624 290.096, 745.062 289.612, 745.750 289.750 C 746.437 289.887, 746.887 289.437, 746.750 288.750 C 746.612 288.062, 747.175 287.650, 748 287.833 C 748.825 288.017, 749.162 287.828, 748.748 287.414 C 747.908 286.575, 750.766 283, 752.277 283 C 752.810 283, 752.627 283.788, 751.872 284.750 C 750.624 286.341, 750.661 286.374, 752.274 285.107 C 753.250 284.342, 753.806 283.473, 753.510 283.177 C 752.835 282.502, 758.029 277, 759.342 277 C 759.874 277, 759.453 278.012, 758.405 279.250 L 756.500 281.500 758.726 279.616 C 759.951 278.580, 760.759 277.419, 760.521 277.035 C 759.966 276.136, 769.438 266.772, 770.167 267.500 C 770.468 267.802, 771.342 267.250, 772.107 266.274 C 773.374 264.661, 773.341 264.624, 771.750 265.872 C 769.192 267.878, 769.613 266.249, 772.555 262.752 C 776.014 258.642, 779.470 251.629, 781.529 244.547 C 783.938 236.262, 783.191 217.701, 780.148 210.213 C 777.672 204.118, 777.584 203.625, 779.155 204.595 C 779.876 205.041, 780.037 204.869, 779.585 204.138 C 779.187 203.494, 778.465 203.212, 777.981 203.512 C 777.497 203.811, 776.628 203.173, 776.050 202.094 C 774.685 199.543, 774.720 198.709, 776.155 199.595 C 776.892 200.051, 777.037 199.868, 776.554 199.088 C 776.139 198.416, 775.549 198.118, 775.242 198.425 C 774.542 199.124, 772 197.081, 772 195.819 C 772 195.303, 772.520 195.203, 773.155 195.595 C 773.876 196.041, 774.037 195.869, 773.585 195.138 C 773.187 194.494, 772.519 194.180, 772.099 194.439 C 771.242 194.969, 761.947 185.873, 762.284 184.833 C 762.403 184.467, 762.090 183.792, 761.590 183.333 C 761.052 182.841, 761.007 183.065, 761.479 183.880 C 762.026 184.823, 761.839 185.113, 760.889 184.796 C 760.125 184.542, 759.500 183.846, 759.500 183.250 C 759.500 182.654, 759.090 181.792, 758.590 181.333 C 758.052 180.841, 758.007 181.065, 758.479 181.880 C 759.029 182.829, 758.845 183.102, 757.889 182.755 C 757.125 182.477, 756.624 181.710, 756.775 181.051 C 756.926 180.391, 756.639 180.105, 756.137 180.415 C 755.635 180.725, 752.136 179.706, 748.362 178.149 C 744.587 176.593, 739.249 174.814, 736.499 174.197 C 728.943 172.500, 715.346 172.040, 707.500 173.214 M 510.476 274.500 C 510.476 316.850, 510.599 334.029, 510.750 312.676 C 510.900 291.323, 510.900 256.673, 510.750 235.676 C 510.599 214.679, 510.476 232.150, 510.476 274.500 M 922.476 276 C 922.476 318.625, 922.599 336.063, 922.750 314.750 C 922.900 293.438, 922.900 258.563, 922.750 237.250 C 922.599 215.938, 922.476 233.375, 922.476 276 M 545.436 230.500 C 545.436 244.800, 545.577 250.511, 545.748 243.191 C 545.919 235.871, 545.918 224.171, 545.747 217.191 C 545.575 210.211, 545.435 216.200, 545.436 230.500 M 545.382 268.500 C 545.384 275.100, 545.546 277.670, 545.741 274.211 C 545.937 270.752, 545.936 265.352, 545.738 262.211 C 545.540 259.070, 545.380 261.900, 545.382 268.500 M 545.435 310 C 545.435 324.025, 545.575 329.762, 545.747 322.750 C 545.919 315.738, 545.919 304.262, 545.747 297.250 C 545.575 290.238, 545.435 295.975, 545.435 310 M 709.267 341.062 C 707.488 341.605, 704.113 343.922, 701.767 346.213 C 699.420 348.503, 697.129 350.281, 696.676 350.164 C 696.222 350.046, 696.106 350.362, 696.416 350.864 C 696.727 351.367, 696.580 353.926, 696.089 356.552 C 695.465 359.891, 695.593 362.849, 696.513 366.397 C 697.237 369.186, 697.573 371.883, 697.260 372.389 C 696.947 372.895, 697.142 373.030, 697.692 372.690 C 698.706 372.064, 704.348 377.240, 704.014 378.490 C 703.915 378.862, 704.168 379.467, 704.577 379.833 C 704.986 380.200, 704.997 379.938, 704.601 379.250 C 703.686 377.659, 703.988 377.679, 708.346 379.500 C 712.980 381.436, 720.074 381.414, 724.782 379.447 C 736.108 374.716, 741.227 361.186, 735.488 351.148 C 732.538 345.989, 732.414 345.306, 734.750 347.097 C 735.712 347.835, 735.460 347.270, 734.190 345.841 C 732.919 344.412, 731.119 343.300, 730.190 343.371 C 729.260 343.442, 728.575 343.050, 728.667 342.500 C 728.758 341.950, 727.858 341.406, 726.667 341.291 C 716.016 340.267, 712.046 340.214, 709.267 341.062 M 336 359.819 C 336 360.610, 335.148 360.824, 333.576 360.430 C 329.308 359.359, 308.876 362.114, 298.723 365.130 C 293.316 366.737, 288.396 367.745, 287.791 367.371 C 287.186 366.997, 286.961 367.129, 287.292 367.663 C 288.060 368.906, 277.240 374.266, 275.782 373.366 C 275.146 372.972, 274.976 373.152, 275.373 373.795 C 276.178 375.097, 272.416 377.375, 270.955 376.472 C 270.402 376.131, 270.074 376.391, 270.225 377.051 C 270.376 377.710, 269.875 378.477, 269.111 378.755 C 268.155 379.102, 267.971 378.829, 268.521 377.880 C 268.993 377.065, 268.948 376.841, 268.410 377.333 C 267.910 377.792, 267.500 378.654, 267.500 379.250 C 267.500 379.846, 266.875 380.542, 266.111 380.796 C 265.150 381.117, 264.978 380.834, 265.553 379.880 C 266.258 378.709, 266.128 378.708, 264.692 379.872 C 262.721 381.471, 262.428 382.462, 264.250 381.367 C 265.087 380.864, 265.043 381.179, 264.117 382.321 C 263.356 383.259, 262.148 383.908, 261.432 383.763 C 260.717 383.618, 260.214 383.801, 260.316 384.169 C 260.565 385.074, 255.877 390, 254.767 390 C 254.280 390, 254.200 389.438, 254.588 388.750 C 254.976 388.063, 253.428 389.279, 251.147 391.453 C 248.866 393.627, 247 395.624, 247 395.890 C 247 396.156, 248.350 395.081, 250 393.500 C 251.650 391.919, 253 391.066, 253 391.605 C 253 392.812, 244.472 401.285, 243.521 401.023 C 243.143 400.919, 242.533 401.168, 242.167 401.577 C 241.800 401.986, 242.063 401.997, 242.750 401.601 C 244.783 400.431, 244.242 401.557, 239.544 408.278 C 233.208 417.342, 225.343 434.133, 223.047 443.500 C 219.532 457.835, 218.736 465.852, 219.273 481.500 C 220.041 503.855, 223.840 518.476, 234.203 538.956 C 237.391 545.257, 240 550.571, 240 550.765 C 240 550.959, 239.480 550.797, 238.845 550.405 C 238.124 549.959, 237.963 550.131, 238.415 550.862 C 238.813 551.506, 239.523 551.795, 239.993 551.505 C 240.463 551.214, 241.781 552.289, 242.924 553.893 C 245.237 557.142, 245.589 558.482, 243.845 557.405 C 243.108 556.949, 242.963 557.132, 243.446 557.912 C 243.861 558.584, 244.451 558.882, 244.758 558.575 C 245.458 557.876, 248 559.919, 248 561.181 C 248 561.697, 247.480 561.797, 246.845 561.405 C 246.124 560.959, 245.963 561.131, 246.415 561.862 C 246.813 562.506, 247.477 562.823, 247.892 562.567 C 248.749 562.037, 264.903 577.967, 265.063 579.500 C 265.120 580.050, 265.426 580.725, 265.744 581 C 266.061 581.275, 265.997 580.938, 265.601 580.250 C 265.206 579.563, 265.332 579, 265.882 579 C 266.883 579, 268.456 580.913, 268.485 582.167 C 268.493 582.533, 268.910 583.208, 269.410 583.667 C 269.939 584.151, 270.019 583.976, 269.601 583.250 C 268.524 581.378, 269.618 581.719, 274.005 584.622 C 276.184 586.064, 277.742 587.608, 277.467 588.053 C 277.192 588.498, 277.494 589.187, 278.138 589.585 C 278.869 590.037, 279.041 589.876, 278.595 589.155 C 277.562 587.482, 277.816 587.569, 288.116 592.413 C 293.277 594.841, 299.429 597.392, 301.786 598.082 C 304.143 598.773, 305.630 599.611, 305.091 599.944 C 304.037 600.595, 304.441 600.622, 328.425 601.460 C 337.184 601.766, 344.571 602.238, 344.842 602.508 C 345.112 602.779, 346.046 602.968, 346.917 602.930 C 348.066 602.879, 347.956 602.647, 346.517 602.085 C 344.899 601.453, 345.267 601.181, 348.517 600.607 C 354.336 599.579, 367.765 595.089, 373.287 592.325 C 375.921 591.007, 378.578 590.239, 379.192 590.619 C 379.839 591.018, 380.031 590.859, 379.648 590.240 C 379.285 589.652, 380.506 588.232, 382.362 587.085 C 386.148 584.745, 387.462 584.443, 386.405 586.155 C 385.949 586.892, 386.132 587.037, 386.912 586.554 C 387.584 586.139, 387.882 585.549, 387.575 585.242 C 386.876 584.542, 388.919 582, 390.181 582 C 390.697 582, 390.797 582.520, 390.405 583.155 C 389.949 583.892, 390.132 584.037, 390.912 583.554 C 391.584 583.139, 391.882 582.549, 391.575 582.242 C 390.857 581.524, 392.935 579, 394.245 579 C 394.795 579, 394.635 579.788, 393.890 580.750 C 392.762 582.206, 392.906 582.184, 394.744 580.616 C 395.959 579.580, 396.761 578.422, 396.526 578.042 C 395.979 577.158, 410.427 562.761, 411.143 563.476 C 411.438 563.771, 412.539 563.005, 413.589 561.773 C 415.136 559.961, 415.167 559.793, 413.750 560.890 C 412.788 561.635, 412 561.810, 412 561.277 C 412 560.128, 416.071 556.277, 416.522 557 C 416.693 557.275, 417.208 557.090, 417.667 556.590 C 418.159 556.052, 417.935 556.007, 417.120 556.479 C 416.177 557.026, 415.887 556.839, 416.204 555.889 C 416.458 555.125, 417.154 554.500, 417.750 554.500 C 418.346 554.500, 419.208 554.090, 419.667 553.590 C 420.151 553.061, 419.976 552.981, 419.250 553.399 C 418.563 553.794, 418 553.697, 418 553.181 C 418 551.723, 420.589 549.932, 421.502 550.759 C 421.952 551.166, 422.003 550.947, 421.614 550.271 C 420.664 548.618, 422.813 544.766, 424.205 545.627 C 424.826 546.011, 425.029 545.856, 424.668 545.272 C 424.316 544.702, 426.517 538.958, 429.560 532.507 C 446.466 496.665, 446.673 455.003, 430.108 422.210 C 428.361 418.751, 427.241 415.419, 427.620 414.806 C 428.019 414.161, 427.858 413.970, 427.240 414.352 C 425.828 415.224, 421.647 408.405, 422.590 406.768 C 422.992 406.071, 422.952 405.834, 422.502 406.241 C 422.052 406.649, 421.080 406.481, 420.342 405.869 C 418.703 404.509, 418.546 402.601, 420.155 403.595 C 420.892 404.051, 421.037 403.868, 420.554 403.088 C 420.139 402.416, 419.544 402.123, 419.231 402.436 C 418.545 403.122, 415 400.064, 415 398.786 C 415 398.289, 415.563 398.211, 416.250 398.613 C 416.938 399.015, 416.640 398.364, 415.589 397.166 C 414.539 395.968, 413.442 395.225, 413.152 395.514 C 412.436 396.231, 404.971 388.856, 405.518 387.971 C 405.757 387.584, 404.986 386.420, 403.805 385.384 C 402.623 384.348, 401.985 384.063, 402.387 384.750 C 402.789 385.438, 402.711 386, 402.214 386 C 401.106 386, 398.074 382.755, 398.321 381.833 C 398.420 381.467, 398.090 380.792, 397.590 380.333 C 397.061 379.849, 396.981 380.024, 397.399 380.750 C 398.476 382.622, 397.382 382.281, 392.995 379.378 C 390.816 377.936, 389.258 376.392, 389.533 375.947 C 389.808 375.502, 389.506 374.813, 388.862 374.415 C 388.131 373.963, 387.959 374.124, 388.405 374.845 C 389.291 376.280, 388.457 376.315, 385.906 374.950 C 384.827 374.372, 384.205 373.477, 384.524 372.961 C 384.852 372.431, 384.357 372.309, 383.388 372.681 C 382.231 373.125, 381.905 372.962, 382.388 372.181 C 382.870 371.401, 382.544 371.238, 381.388 371.681 C 380.231 372.125, 379.905 371.962, 380.388 371.181 C 380.870 370.401, 380.544 370.238, 379.388 370.681 C 378.231 371.125, 377.905 370.962, 378.388 370.181 C 378.836 369.456, 378.589 369.220, 377.727 369.551 C 376.970 369.842, 374.134 369.120, 371.425 367.948 C 365.534 365.399, 346.939 361.022, 341.950 361.009 C 339.998 361.004, 337.860 360.460, 337.200 359.800 C 336.267 358.867, 336 358.871, 336 359.819 M 871.985 386.515 C 870.128 388.432, 869.062 390, 869.617 390 C 870.909 390, 876.517 384.183, 875.859 383.525 C 875.586 383.253, 873.843 384.598, 871.985 386.515 M 729.323 404.750 C 747.925 404.902, 778.075 404.902, 796.323 404.749 C 814.570 404.597, 799.350 404.472, 762.500 404.472 C 725.650 404.472, 710.720 404.597, 729.323 404.750 M 734.250 438.750 C 753.913 438.901, 786.087 438.901, 805.750 438.750 C 825.413 438.598, 809.325 438.474, 770 438.474 C 730.675 438.474, 714.587 438.598, 734.250 438.750 M 515 475.017 C 513.075 475.529, 510.375 475.805, 509 475.630 C 507.625 475.454, 507.167 475.518, 507.981 475.773 C 509.624 476.286, 497.756 481.154, 494.345 481.366 C 493.161 481.440, 492.388 481.818, 492.628 482.207 C 493.254 483.221, 487.138 486.204, 485.946 485.467 C 485.398 485.128, 485.074 485.447, 485.225 486.176 C 485.381 486.927, 484.714 487.435, 483.683 487.350 C 482.684 487.267, 482.126 487.459, 482.442 487.776 C 483.151 488.485, 479.027 493, 477.671 493 C 477.131 493, 477.544 491.988, 478.588 490.750 C 480.338 488.675, 480.275 488.686, 477.774 490.895 C 476.282 492.213, 475.257 493.606, 475.495 493.992 C 476.032 494.862, 470.556 500.223, 469.851 499.518 C 469.571 499.237, 468.252 500.230, 466.921 501.724 C 465.589 503.217, 465.288 503.835, 466.250 503.097 C 467.212 502.359, 468 502.190, 468 502.723 C 468 503.872, 463.929 507.723, 463.478 507 C 463.307 506.725, 462.792 506.910, 462.333 507.410 C 461.849 507.939, 462.024 508.019, 462.750 507.601 C 464.439 506.629, 464.322 507.579, 462.391 510.527 C 461.505 511.878, 460.412 512.754, 459.960 512.475 C 459.508 512.196, 458.813 512.494, 458.415 513.138 C 457.937 513.912, 458.127 514.040, 458.975 513.515 C 459.837 512.983, 460.093 513.179, 459.755 514.111 C 459.477 514.875, 458.760 515.393, 458.161 515.262 C 457.532 515.125, 457.340 515.722, 457.706 516.676 C 458.128 517.777, 457.953 518.089, 457.181 517.612 C 456.401 517.130, 456.238 517.456, 456.681 518.612 C 457.125 519.769, 456.962 520.095, 456.181 519.612 C 455.401 519.130, 455.238 519.456, 455.681 520.612 C 456.125 521.769, 455.962 522.095, 455.181 521.612 C 454.401 521.130, 454.238 521.456, 454.681 522.612 C 455.046 523.562, 454.929 524.074, 454.420 523.760 C 453.914 523.447, 453.460 524.161, 453.411 525.345 C 453.252 529.209, 448.254 544.553, 447.831 542.478 C 447.609 541.390, 447.472 548.825, 447.526 559 C 447.632 578.865, 449.073 587.110, 454.683 599.946 C 455.992 602.942, 456.829 606.002, 456.543 606.748 C 456.219 607.592, 456.461 607.833, 457.181 607.388 C 457.962 606.905, 458.125 607.231, 457.681 608.388 C 457.309 609.357, 457.431 609.852, 457.961 609.524 C 458.477 609.205, 459.372 609.827, 459.950 610.906 C 461.315 613.457, 461.280 614.291, 459.845 613.405 C 459.124 612.959, 458.963 613.131, 459.415 613.862 C 459.813 614.506, 460.508 614.804, 460.960 614.525 C 461.412 614.246, 462.505 615.122, 463.391 616.473 C 465.485 619.670, 465.433 620.572, 463.250 618.921 C 461.739 617.778, 461.678 617.795, 462.800 619.048 C 463.515 619.847, 464.602 620.500, 465.217 620.500 C 465.831 620.500, 466.542 621.125, 466.796 621.889 C 467.114 622.843, 466.827 623.024, 465.880 622.467 C 465.121 622.021, 465.348 622.623, 466.384 623.805 C 467.420 624.986, 468.581 625.759, 468.963 625.523 C 469.848 624.976, 480.236 635.431, 479.520 636.147 C 479.227 636.440, 479.968 637.539, 481.166 638.589 C 482.364 639.640, 483.015 639.938, 482.613 639.250 C 481.544 637.422, 482.795 637.718, 486.107 640.076 C 487.711 641.219, 488.786 642.537, 488.495 643.007 C 488.205 643.477, 488.494 644.187, 489.138 644.585 C 489.869 645.037, 490.041 644.876, 489.595 644.155 C 488.509 642.397, 489.554 642.731, 495.326 645.989 C 506.797 652.463, 517.769 655.162, 532.511 655.137 C 541.566 655.122, 544.989 654.655, 551.778 652.510 C 556.318 651.076, 560.545 650.219, 561.171 650.606 C 561.922 651.070, 562.031 650.859, 561.490 649.985 C 560.891 649.015, 561.132 648.836, 562.388 649.319 C 563.544 649.762, 563.870 649.599, 563.388 648.819 C 562.905 648.038, 563.231 647.875, 564.388 648.319 C 565.365 648.694, 565.852 648.570, 565.519 648.031 C 565.198 647.511, 566.277 646.391, 567.918 645.543 C 571.533 643.673, 572.345 643.605, 571.399 645.250 C 570.981 645.976, 571.061 646.151, 571.590 645.667 C 572.090 645.208, 572.500 644.346, 572.500 643.750 C 572.500 643.154, 573.125 642.458, 573.889 642.204 C 574.839 641.887, 575.026 642.177, 574.479 643.120 C 574.007 643.935, 574.052 644.159, 574.590 643.667 C 575.090 643.208, 575.500 642.346, 575.500 641.750 C 575.500 641.154, 576.125 640.458, 576.889 640.204 C 577.839 639.887, 578.026 640.177, 577.479 641.120 C 577.007 641.935, 577.052 642.159, 577.590 641.667 C 578.090 641.208, 578.507 640.533, 578.515 640.167 C 578.545 638.881, 580.128 637, 581.181 637 C 581.822 637, 581.705 637.697, 580.890 638.750 C 579.762 640.206, 579.906 640.184, 581.744 638.616 C 582.959 637.580, 583.759 636.419, 583.521 636.035 C 582.980 635.158, 592.429 625.762, 593.138 626.472 C 593.425 626.758, 594.748 625.756, 596.079 624.246 L 598.500 621.500 595.750 623.924 C 594.237 625.258, 593 625.899, 593 625.349 C 593 624.165, 597.863 619.426, 598.831 619.667 C 599.199 619.758, 599.725 619.574, 600 619.256 C 600.275 618.939, 599.938 619.003, 599.250 619.399 C 597.390 620.469, 597.684 619.641, 601.134 614.091 C 602.858 611.317, 604.728 609.332, 605.289 609.679 C 605.870 610.038, 606.004 609.816, 605.600 609.162 C 605.211 608.532, 605.400 607.225, 606.021 606.258 C 607.088 604.598, 607.119 604.601, 606.587 606.302 C 606.237 607.421, 606.424 607.856, 607.080 607.451 C 607.661 607.092, 607.885 606.144, 607.579 605.344 C 607.272 604.545, 608.087 601.328, 609.391 598.195 C 617.441 578.856, 618.787 554.472, 612.865 535.297 C 611.788 531.811, 611.223 528.449, 611.608 527.825 C 611.994 527.201, 611.871 526.961, 611.337 527.292 C 610.164 528.017, 604.708 517.281, 605.554 515.912 C 605.881 515.383, 605.609 515.074, 604.949 515.225 C 604.290 515.376, 603.523 514.875, 603.245 514.111 C 602.898 513.155, 603.171 512.971, 604.120 513.521 C 604.935 513.993, 605.159 513.948, 604.667 513.410 C 604.208 512.910, 603.346 512.500, 602.750 512.500 C 602.154 512.500, 601.458 511.875, 601.204 511.111 C 600.887 510.161, 601.177 509.974, 602.120 510.521 C 602.935 510.993, 603.159 510.948, 602.667 510.410 C 602.208 509.910, 601.533 509.493, 601.167 509.485 C 599.913 509.456, 598 507.883, 598 506.882 C 598 506.332, 598.563 506.220, 599.250 506.633 C 600.110 507.149, 600.074 506.859, 599.137 505.703 C 598.387 504.778, 597.452 504.221, 597.059 504.464 C 596.666 504.707, 593.693 502.227, 590.453 498.953 C 587.213 495.679, 584.976 493, 585.481 493 C 585.987 493, 585.843 492.443, 585.162 491.762 C 584.480 491.080, 583.154 490.518, 582.214 490.512 C 581.274 490.505, 580.504 489.975, 580.503 489.333 C 580.501 488.692, 580.090 487.792, 579.590 487.333 C 579.052 486.841, 579.007 487.065, 579.479 487.880 C 580.026 488.823, 579.839 489.113, 578.889 488.796 C 578.125 488.542, 577.500 487.846, 577.500 487.250 C 577.500 486.654, 577.090 485.792, 576.590 485.333 C 576.061 484.849, 575.981 485.024, 576.399 485.750 C 577.465 487.604, 576.633 487.332, 570.018 483.666 C 566.709 481.832, 564.325 480.008, 564.721 479.613 C 565.116 479.218, 564.591 479.220, 563.555 479.617 C 562.481 480.030, 561.916 479.945, 562.240 479.420 C 562.553 478.914, 561.839 478.457, 560.655 478.404 C 559.470 478.352, 555.800 477.516, 552.500 476.548 C 545.589 474.519, 520.684 473.502, 515 475.017 M 333.768 603.725 C 335.565 603.947, 338.265 603.943, 339.768 603.715 C 341.271 603.486, 339.800 603.304, 336.500 603.310 C 333.200 603.315, 331.971 603.502, 333.768 603.725 M 287.728 635.722 C 289.503 635.943, 292.653 635.946, 294.728 635.730 C 296.802 635.513, 295.350 635.333, 291.500 635.328 C 287.650 635.324, 285.952 635.501, 287.728 635.722 M 366.250 635.728 C 368.313 635.944, 371.688 635.944, 373.750 635.728 C 375.813 635.513, 374.125 635.336, 370 635.336 C 365.875 635.336, 364.188 635.513, 366.250 635.728 M 273 636.858 C 275.990 637.499, 275.263 637.721, 268 638.377 C 263.325 638.800, 253.982 640.042, 247.238 641.137 C 240.494 642.232, 233.969 642.844, 232.738 642.498 C 231.256 642.082, 230.939 642.174, 231.798 642.773 C 232.692 643.396, 230.980 644.241, 226.298 645.487 C 222.559 646.482, 215.773 648.598, 211.218 650.188 C 206.663 651.778, 202.431 652.767, 201.814 652.385 C 201.196 652.003, 200.960 652.126, 201.289 652.659 C 202.056 653.899, 189.238 660.265, 187.784 659.366 C 187.146 658.972, 186.975 659.151, 187.373 659.795 C 187.749 660.403, 187.173 661.372, 186.094 661.950 C 183.543 663.315, 182.709 663.280, 183.595 661.845 C 184.041 661.124, 183.869 660.963, 183.138 661.415 C 182.494 661.813, 182.192 662.502, 182.467 662.947 C 182.742 663.392, 181.184 664.936, 179.005 666.378 C 174.690 669.233, 173.491 669.632, 174.595 667.845 C 175.051 667.108, 174.868 666.963, 174.088 667.446 C 173.416 667.861, 173.118 668.451, 173.425 668.758 C 174.124 669.458, 172.081 672, 170.819 672 C 170.303 672, 170.203 671.480, 170.595 670.845 C 171.051 670.108, 170.868 669.963, 170.088 670.446 C 169.416 670.861, 169.128 671.462, 169.447 671.781 C 170.153 672.486, 165.019 678, 163.658 678 C 163.126 678, 163.544 676.987, 164.588 675.750 C 166.338 673.675, 166.275 673.686, 163.774 675.895 C 162.282 677.213, 161.253 678.600, 161.486 678.977 C 162.028 679.854, 152.562 689.228, 151.852 688.518 C 151.560 688.226, 150.461 688.968, 149.411 690.166 C 148.360 691.364, 148.063 692.015, 148.750 691.613 C 149.438 691.211, 150 691.303, 150 691.819 C 150 693.039, 147.468 695.135, 146.800 694.467 C 146.517 694.184, 145.658 694.750, 144.893 695.726 C 143.626 697.339, 143.659 697.376, 145.250 696.128 C 147.841 694.095, 147.374 696.300, 144.676 698.835 C 143.398 700.036, 141.975 700.677, 141.515 700.259 C 141.056 699.842, 141.015 700.082, 141.426 700.794 C 142.284 702.282, 139.338 707.327, 138.069 706.543 C 137.605 706.256, 137.288 706.579, 137.363 707.261 C 137.438 707.942, 134.713 714.125, 131.306 721 C 124.464 734.808, 120.101 748.331, 116.820 765.906 C 114.815 776.645, 114.625 781.411, 114.246 830.543 C 113.841 882.919, 113.863 883.660, 115.997 889.543 C 117.186 892.819, 118.220 896.266, 118.294 897.202 C 118.368 898.139, 118.633 898.700, 118.883 898.450 C 119.505 897.828, 123 901.077, 123 902.277 C 123 902.810, 122.212 902.644, 121.250 901.911 C 120.287 901.177, 120.822 902.022, 122.437 903.788 C 125.409 907.038, 126.697 907.937, 125.420 905.870 C 125.036 905.249, 125.122 904.933, 125.611 905.168 C 126.100 905.403, 129.200 906.903, 132.500 908.501 L 138.500 911.406 330.154 911.453 C 435.564 911.479, 521.394 911.243, 520.886 910.930 C 520.378 910.616, 522.236 909.295, 525.013 907.994 C 527.791 906.693, 530.554 905.037, 531.154 904.314 C 532.801 902.329, 534.445 902.737, 532.911 904.750 C 532.177 905.712, 533.022 905.178, 534.788 903.563 C 536.555 901.948, 538 900.415, 538 900.158 C 538 899.901, 537.100 900.505, 536 901.500 C 534.900 902.495, 534 902.860, 534 902.310 C 534 901.760, 534.901 900.495, 536.001 899.499 C 537.102 898.503, 539.239 895.171, 540.751 892.094 L 543.500 886.500 543.647 843 C 543.727 819.075, 543.425 793.200, 542.975 785.500 C 542.005 768.920, 538.434 750.314, 533.503 736.146 C 531.543 730.515, 530.247 725.409, 530.624 724.799 C 531.070 724.078, 530.846 723.977, 529.985 724.510 C 529.015 725.109, 528.836 724.868, 529.319 723.612 C 529.762 722.456, 529.599 722.130, 528.819 722.612 C 528.038 723.095, 527.875 722.769, 528.319 721.612 C 528.762 720.456, 528.599 720.130, 527.819 720.612 C 527.038 721.095, 526.875 720.769, 527.319 719.612 C 527.762 718.456, 527.599 718.130, 526.819 718.612 C 526.038 719.095, 525.875 718.769, 526.319 717.612 C 526.694 716.635, 526.570 716.148, 526.031 716.481 C 524.852 717.210, 521.692 711.307, 522.533 709.946 C 522.872 709.398, 522.609 709.074, 521.949 709.225 C 521.290 709.376, 520.523 708.875, 520.245 708.111 C 519.907 707.179, 520.163 706.983, 521.025 707.515 C 521.873 708.040, 522.063 707.912, 521.585 707.138 C 521.187 706.494, 520.492 706.196, 520.040 706.475 C 519.588 706.754, 518.495 705.878, 517.609 704.527 C 515.678 701.579, 515.561 700.629, 517.250 701.601 C 517.976 702.019, 518.151 701.939, 517.667 701.410 C 517.208 700.910, 516.346 700.500, 515.750 700.500 C 515.154 700.500, 514.458 699.875, 514.204 699.111 C 513.895 698.185, 514.169 697.986, 515.025 698.515 C 515.892 699.051, 516.064 698.912, 515.554 698.088 C 515.139 697.416, 514.541 697.126, 514.224 697.443 C 513.525 698.141, 509 694.036, 509 692.703 C 509 692.182, 509.788 692.373, 510.750 693.128 C 512.341 694.376, 512.374 694.339, 511.107 692.726 C 510.342 691.750, 509.469 691.198, 509.168 691.498 C 508.485 692.182, 500 683.943, 500 682.596 C 500 682.052, 501.688 683.154, 503.750 685.045 C 505.813 686.935, 505.040 685.898, 502.034 682.741 C 499.028 679.583, 496.371 677, 496.129 677 C 495.888 677, 496.505 677.900, 497.500 679 C 498.495 680.100, 498.869 681, 498.329 681 C 497.020 681, 492.837 676.497, 493.515 675.818 C 493.808 675.525, 493.276 674.658, 492.332 673.893 C 491.197 672.971, 490.870 672.923, 491.367 673.750 C 491.780 674.438, 491.711 675, 491.214 675 C 490.109 675, 486.301 670.914, 487 670.478 C 487.275 670.307, 487.090 669.792, 486.590 669.333 C 486.052 668.841, 486.007 669.065, 486.479 669.880 C 487.026 670.823, 486.839 671.113, 485.889 670.796 C 485.125 670.542, 484.500 669.846, 484.500 669.250 C 484.500 668.654, 484.090 667.792, 483.590 667.333 C 483.061 666.849, 482.981 667.024, 483.399 667.750 C 484.471 669.613, 482.456 669.261, 480.872 667.308 C 479.689 665.849, 479.707 665.734, 481 666.468 C 481.880 666.968, 482.161 666.950, 481.679 666.423 C 481.228 665.929, 480.103 665.520, 479.179 665.513 C 478.256 665.506, 477.624 664.904, 477.775 664.176 C 477.926 663.447, 477.598 663.131, 477.045 663.472 C 475.584 664.375, 471.822 662.097, 472.627 660.795 C 473.034 660.136, 472.852 659.973, 472.175 660.392 C 470.728 661.286, 466.753 659.209, 467.524 657.961 C 467.852 657.431, 467.357 657.309, 466.388 657.681 C 465.231 658.125, 464.905 657.962, 465.388 657.181 C 465.832 656.462, 465.593 656.219, 464.755 656.540 C 464.014 656.825, 460.053 655.513, 455.953 653.625 C 442.586 647.470, 418.712 641.149, 401.786 639.284 C 396.523 638.705, 395.988 638.484, 398.500 637.930 C 400.150 637.566, 397.450 637.403, 392.500 637.567 C 386.451 637.767, 384.975 637.636, 388 637.167 C 391.170 636.675, 291.933 636.550, 280.500 637.032 C 279.950 637.055, 277.250 636.856, 274.500 636.590 C 270.689 636.221, 270.332 636.285, 273 636.858 M 535.550 684.918 C 535.202 685.482, 535.649 687.061, 536.545 688.428 C 537.440 689.794, 537.875 691.393, 537.512 691.981 C 537.149 692.569, 537.391 692.926, 538.051 692.775 C 538.710 692.624, 539.477 693.125, 539.755 693.889 C 540.093 694.821, 539.837 695.017, 538.975 694.485 C 538.127 693.960, 537.937 694.088, 538.415 694.862 C 538.813 695.506, 539.540 695.784, 540.031 695.481 C 541.237 694.735, 545.256 702.776, 544.383 704.189 C 543.995 704.817, 544.138 705.033, 544.709 704.680 C 546.658 703.475, 555.436 724.870, 554.449 728.417 C 554.034 729.907, 554.137 730.114, 554.809 729.143 C 556.164 727.189, 556.553 728.170, 560.459 743.412 C 567.244 769.884, 567.988 778.611, 567.995 831.750 L 568 879 628.250 878.978 C 686.116 878.957, 688.673 878.878, 692.859 876.978 C 697.927 874.679, 698.366 874.599, 697.405 876.155 C 696.959 876.876, 697.131 877.037, 697.862 876.585 C 698.506 876.187, 698.811 875.503, 698.540 875.065 C 698.269 874.626, 698.984 873.420, 700.129 872.384 C 701.273 871.348, 702.350 870.725, 702.522 871 C 702.693 871.275, 703.208 871.090, 703.667 870.590 C 704.161 870.050, 703.922 870.015, 703.080 870.504 C 702.008 871.126, 701.824 870.900, 702.330 869.582 C 702.699 868.622, 703.007 867.536, 703.015 867.168 C 703.024 866.801, 703.461 867.175, 703.987 868 C 704.650 869.040, 704.793 868.274, 704.453 865.500 C 704.175 863.225, 704.295 862.242, 704.732 863.220 C 705.849 865.720, 705.232 818.867, 703.940 803 C 702.108 780.515, 698.933 767.909, 690.901 751.222 C 688.709 746.670, 687.230 742.438, 687.613 741.818 C 688.026 741.149, 687.861 740.968, 687.208 741.371 C 686.581 741.759, 685.008 740.433, 683.554 738.294 C 680.825 734.279, 680.276 732.435, 682.155 733.595 C 682.892 734.051, 683.037 733.868, 682.554 733.088 C 682.139 732.416, 681.549 732.118, 681.242 732.425 C 680.542 733.124, 678 731.081, 678 729.819 C 678 729.303, 678.563 729.220, 679.250 729.633 C 680.077 730.130, 680.029 729.803, 679.107 728.668 C 678.342 727.724, 677.470 727.197, 677.170 727.496 C 676.493 728.174, 669 720.954, 669 719.623 C 669 719.088, 670.237 719.734, 671.750 721.056 C 673.263 722.379, 672.267 721.108, 669.538 718.231 C 664.857 713.297, 661.601 710.692, 665.500 715 C 666.495 716.100, 666.869 717, 666.329 717 C 665.020 717, 660.837 712.497, 661.515 711.818 C 661.808 711.525, 661.276 710.658, 660.332 709.893 C 659.197 708.971, 658.870 708.923, 659.367 709.750 C 659.780 710.438, 659.697 711, 659.181 711 C 658.115 711, 655.414 708, 655.667 707.096 C 655.758 706.768, 655.574 706.275, 655.256 706 C 654.939 705.725, 655.039 706.121, 655.479 706.880 C 656.026 707.823, 655.839 708.113, 654.889 707.796 C 654.125 707.542, 653.500 706.846, 653.500 706.250 C 653.500 705.654, 653.090 704.792, 652.590 704.333 C 652.061 703.849, 651.981 704.024, 652.399 704.750 C 653.434 706.548, 652.215 706.296, 648.362 703.915 C 646.506 702.768, 645.285 701.348, 645.648 700.760 C 646.024 700.152, 645.840 699.981, 645.223 700.362 C 643.756 701.269, 636.926 697.928, 637.697 696.681 C 638.051 696.109, 637.796 696.008, 637.094 696.442 C 635.482 697.438, 629.846 695.059, 630.667 693.729 C 631.035 693.135, 630.825 692.990, 630.178 693.390 C 629.555 693.775, 627.158 693.581, 624.851 692.960 C 622.306 692.275, 621.128 691.539, 621.856 691.089 C 622.523 690.676, 621.602 690.361, 619.778 690.378 C 617.975 690.395, 611.234 689.417, 604.797 688.204 C 598.360 686.992, 591.835 685.947, 590.297 685.882 L 587.500 685.763 590.349 685.132 C 591.917 684.784, 580.371 684.364, 564.691 684.197 C 545.976 683.998, 535.966 684.245, 535.550 684.918 M 112.360 797 C 112.360 802.225, 112.529 804.362, 112.735 801.750 C 112.941 799.138, 112.941 794.862, 112.735 792.250 C 112.529 789.638, 112.360 791.775, 112.360 797 M 566.485 834.250 L 566.500 880.500 627.250 880.512 L 688 880.523 627.510 880.254 L 567.020 879.985 566.745 833.992 L 566.470 788 566.485 834.250 M 706.426 834.500 C 706.427 846.600, 706.571 851.413, 706.747 845.195 C 706.923 838.977, 706.922 829.077, 706.746 823.195 C 706.569 817.313, 706.425 822.400, 706.426 834.500 M 112.417 866.500 C 112.418 876.950, 112.566 881.089, 112.746 875.698 C 112.926 870.307, 112.925 861.757, 112.744 856.698 C 112.563 851.639, 112.416 856.050, 112.417 866.500 M 545.397 866 C 545.397 873.975, 545.553 877.237, 545.743 873.250 C 545.932 869.263, 545.932 862.737, 545.743 858.750 C 545.553 854.763, 545.397 858.025, 545.397 866 M 474.768 913.725 C 476.565 913.947, 479.265 913.943, 480.768 913.715 C 482.271 913.486, 480.800 913.304, 477.500 913.310 C 474.200 913.315, 472.971 913.502, 474.768 913.725" stroke="none" fill="#175cb9" fill-rule="evenodd"/></svg>