<svg xmlns="http://www.w3.org/2000/svg" width="1024" height="1024" viewBox="0 0 1024 1024" version="1.1"><path d="M 470.500 160.478 C 455.793 162.316, 436.659 165.680, 430.500 167.509 C 424.912 169.169, 426.715 168.936, 443 165.890 C 448.775 164.809, 458 163.240, 463.500 162.402 C 477.575 160.258, 517.914 159.495, 536.500 161.021 C 560.393 162.982, 562.385 163.033, 553 161.439 C 540.498 159.316, 484.971 158.669, 470.500 160.478 M 575.500 165.963 C 625.187 176.439, 668.453 194.534, 707.996 221.376 C 739.457 242.732, 772.956 275.646, 794.122 306 C 825.100 350.424, 846.684 406.046, 853.494 459 C 855.708 476.214, 856.546 514.113, 855.095 531.364 C 849.033 603.436, 821.905 667.599, 772.723 726.191 C 730.049 777.031, 663.343 818.618, 598.282 834.944 C 564.635 843.387, 535.960 846.568, 502 845.625 C 478.168 844.963, 468.403 844.035, 447 840.400 C 393.494 831.312, 343.781 809.286, 296.768 773.839 C 272.582 755.602, 238.909 719.344, 220.302 691.500 C 194.585 653.015, 175.955 606.734, 168.577 563 C 160.356 514.267, 162.283 463.507, 174.112 417.199 C 175.278 412.634, 176.025 408.691, 175.771 408.437 C 174.267 406.934, 167.533 439.614, 164.837 461.500 C 162.326 481.877, 161.832 519.955, 163.845 538 C 169.579 589.410, 184.472 634.225, 210.098 677.173 C 231.367 712.820, 261.738 747.533, 293.565 772.574 C 359.038 824.086, 435.955 849.187, 520.500 846.632 C 532.050 846.282, 543.750 845.750, 546.500 845.448 C 610.475 838.422, 666.799 816.303, 718.986 777.713 C 733.145 767.243, 738.085 762.964, 753.822 747.538 C 808.452 693.988, 842.148 627.994, 854.173 551 C 856.178 538.167, 856.438 532.820, 856.435 504.500 C 856.433 476.975, 856.120 470.201, 854.199 456.058 C 849.148 418.861, 838.374 384.724, 820.094 347.997 C 803.383 314.422, 784.094 287.916, 756.056 260 C 730.097 234.154, 705.096 215.974, 671 198.149 C 641.044 182.489, 592.800 166.526, 566.500 163.573 C 563.750 163.264, 567.800 164.340, 575.500 165.963 M 418 170.257 C 370.944 184.410, 333.575 202.865, 298.098 229.473 C 243.375 270.514, 201.002 329.597, 179.519 394.813 C 177.470 401.035, 175.976 406.309, 176.200 406.533 C 176.424 406.757, 177.869 403.016, 179.410 398.220 C 201.140 330.620, 245.497 268.969, 302 227.834 C 323.117 212.461, 348.829 197.697, 371.500 187.926 C 381.423 183.650, 406.811 174.760, 422 170.245 C 423.925 169.672, 424.600 169.204, 423.500 169.204 C 422.400 169.204, 419.925 169.678, 418 170.257 M 481.145 196.028 C 437.327 199.466, 389.120 215.054, 350.596 238.243 C 338.874 245.299, 318.085 259.575, 313.362 263.812 C 312.328 264.741, 306.225 270.134, 299.801 275.798 C 272.096 300.225, 249.541 329.826, 231.025 366.058 C 192.177 442.077, 187.315 533.252, 217.949 611.272 C 233.979 652.097, 257.042 686.938, 289.995 720.108 C 309.912 740.157, 329.854 756.050, 348 766.335 C 356.271 771.023, 353.686 769.052, 338 758.709 C 281.176 721.240, 235.259 661.348, 213.956 596.909 C 193.241 534.252, 194.367 464.261, 217.110 400.764 C 231.146 361.579, 255.346 322.446, 283.908 292.751 C 348.831 225.251, 435.842 190.937, 527.248 196.786 C 555.400 198.587, 584.682 204.209, 608.919 212.468 C 612.999 213.858, 616.515 214.818, 616.732 214.601 C 616.949 214.384, 612.935 212.843, 607.813 211.177 C 584.958 203.740, 570.484 200.493, 544.500 196.976 C 533.653 195.508, 495.123 194.932, 481.145 196.028 M 618.058 215.351 C 618.365 215.680, 624.215 218.243, 631.058 221.045 C 676.287 239.567, 716.604 269.432, 749.116 308.500 C 753.235 313.450, 757.257 318.456, 758.053 319.624 C 758.849 320.792, 761.523 324.617, 763.995 328.124 C 807.755 390.204, 827.390 465.873, 818.583 538.500 C 815.991 559.874, 815.991 559.882, 817.474 553 C 823.687 524.175, 823.048 479.822, 815.918 445.078 C 801.947 376.991, 763.590 312.287, 711.500 268.938 C 685.655 247.429, 663.695 233.944, 633 220.731 C 622.459 216.194, 617.018 214.235, 618.058 215.351 M 617.122 260.374 C 613.005 261.864, 610.681 264.485, 604.467 274.653 C 584.397 307.489, 555.561 347.648, 540.108 364.283 C 537.664 366.914, 536.303 368.791, 537.082 368.454 C 539.382 367.462, 550.271 354.388, 563.833 336.333 C 575.050 321.402, 584.859 307.028, 606.341 274.043 C 613.655 262.813, 616.441 260.500, 622.655 260.500 C 626.522 260.500, 627.597 260.985, 630.206 263.905 C 633.056 267.094, 633.217 267.697, 632.752 273.405 C 631.711 286.159, 616.957 325.115, 601.363 356.286 C 591.198 376.606, 588.765 380.923, 567.160 417 C 549.982 445.683, 536.110 471.700, 523.972 498 C 520.038 506.525, 515.899 514.493, 514.775 515.707 C 508.689 522.281, 471.295 545.560, 443.197 560.265 C 435.881 564.095, 430.061 567.395, 430.266 567.599 C 430.850 568.183, 459.144 553.065, 473.500 544.499 C 494.683 531.859, 518 515.867, 518 513.978 C 518 512.469, 539.627 467.893, 547.342 453.500 C 551.175 446.350, 561.717 428.169, 570.769 413.097 C 602.363 360.494, 619.619 324.260, 630.938 286.757 C 635.981 270.048, 635.131 263.624, 627.454 260.416 C 623.448 258.742, 621.653 258.735, 617.122 260.374 M 447.500 292.474 C 446.950 292.704, 444.542 293.396, 442.149 294.012 C 439.756 294.628, 437.977 295.310, 438.196 295.529 C 438.414 295.747, 441.047 295.273, 444.047 294.475 C 447.046 293.677, 453.550 293.024, 458.500 293.024 C 463.450 293.024, 469.954 293.677, 472.953 294.475 C 479.234 296.146, 481.079 295.737, 475.344 293.945 C 471.636 292.786, 449.542 291.619, 447.500 292.474 M 428.880 300.427 C 425.250 302.862, 420.403 307.024, 418.108 309.677 C 414 314.424, 407.966 325.489, 408.036 328.143 C 408.056 328.889, 409.600 326.243, 411.468 322.262 C 415.485 313.702, 423.013 305.281, 431.500 299.855 C 434.800 297.745, 437.045 296.015, 436.489 296.010 C 435.933 296.004, 432.509 297.992, 428.880 300.427 M 485 299.212 C 492.357 303.450, 502.119 313.488, 505.331 320.117 C 515.635 341.384, 511.814 365.208, 495.487 381.500 C 488.246 388.725, 481.735 392.382, 471.415 395.022 C 452.883 399.761, 435.806 395.070, 422.500 381.583 C 410.704 369.627, 406.409 357.933, 407.225 340 C 407.488 334.225, 407.365 330.625, 406.951 332 C 406.538 333.375, 406.160 338.550, 406.112 343.500 C 405.976 357.442, 408.880 366.227, 417.280 377.275 C 436.900 403.084, 475.251 404.808, 497.406 380.878 C 503.967 373.793, 509.163 364.608, 510.915 357 C 512.401 350.547, 512.214 337.394, 510.547 331.131 C 508.306 322.710, 504.277 315.413, 498.310 308.968 C 493.431 303.698, 482.711 295.963, 480.369 296.022 C 479.891 296.034, 481.975 297.470, 485 299.212 M 303.314 307.950 C 294.809 313.136, 295.798 321.713, 307.587 345 C 313.407 356.497, 322.987 373.471, 328.470 382 C 335.149 392.389, 353.261 422.644, 357.206 430 C 367.560 449.309, 374.387 467.920, 378.663 488.500 C 380.651 498.066, 381.268 504.598, 381.703 520.703 C 382.336 544.086, 381.270 556.896, 376.905 578.358 C 375.243 586.530, 374.080 593.413, 374.321 593.654 C 374.561 593.895, 376.725 593.200, 379.129 592.111 C 405.381 580.219, 412.979 576.646, 412.670 576.337 C 412.470 576.137, 407.850 578.055, 402.403 580.598 C 390.965 585.940, 376.870 592, 375.884 592 C 375.512 592, 376.253 587.163, 377.531 581.250 C 381.670 562.102, 383.084 548.631, 383.119 528 C 383.195 483.024, 373.652 453.650, 342.507 403 C 300.233 334.249, 292.443 315.578, 303.277 308.973 C 311.216 304.132, 316.941 307.534, 332.766 326.500 C 363.316 363.112, 401.365 395.579, 428 407.764 C 436.342 411.580, 448.675 415.048, 453.410 414.910 C 455.121 414.860, 453.314 414.241, 449.360 413.524 C 439.694 411.769, 436.019 410.499, 425.558 405.296 C 396.328 390.758, 362.452 361.048, 329.071 320.675 C 317.231 306.354, 310.989 303.270, 303.314 307.950 M 723.500 360.079 C 711.817 364.804, 695.624 371.804, 685 376.723 C 680.875 378.633, 675.475 381.021, 673 382.030 C 667.093 384.437, 647.842 393.043, 641.500 396.111 C 638.750 397.441, 636.500 399.060, 636.500 399.708 C 636.500 400.356, 639.466 403.274, 643.092 406.193 C 646.718 409.112, 651.792 413.251, 654.367 415.391 C 656.943 417.531, 659.290 419.043, 659.583 418.750 C 659.876 418.458, 658.627 417.167, 656.808 415.882 C 649.469 410.697, 636.960 399.647, 637.705 399.005 C 638.564 398.266, 657.225 389.840, 676.500 381.489 C 683.100 378.629, 696.825 372.682, 707 368.274 C 727.753 359.281, 732.715 357.382, 733.472 358.138 C 733.985 358.652, 731.237 371.357, 720.527 418 C 717.559 430.925, 714.314 445.495, 713.315 450.377 C 712.317 455.259, 710.939 459.469, 710.254 459.732 C 709.569 459.996, 704.650 456.518, 699.324 452.005 C 693.998 447.492, 689.030 443.565, 688.283 443.278 C 687.468 442.965, 680.846 448.705, 671.713 457.640 C 650.148 478.737, 633.096 493.265, 606.500 513.198 C 573.544 537.898, 531.208 564.620, 499.087 580.996 C 492.376 584.418, 487.106 587.440, 487.377 587.711 C 488.502 588.835, 535.814 562.207, 558.500 547.681 C 605.415 517.642, 649.380 482.645, 678.379 452.256 C 682.712 447.715, 686.838 444, 687.548 444 C 688.258 444, 691.238 446.154, 694.169 448.788 C 708.117 461.315, 711.219 463.094, 712.405 459.250 C 712.702 458.288, 714.517 450.300, 716.438 441.500 C 718.358 432.700, 721.274 419.650, 722.917 412.500 C 735.570 357.434, 735.862 355.980, 734.250 356.018 C 733.837 356.027, 729 357.855, 723.500 360.079 M 523 381.686 C 500.768 402.260, 483.449 411.757, 464.061 414.005 L 456.500 414.881 464 414.569 C 471.557 414.253, 479.746 411.955, 489.529 407.403 C 495.315 404.711, 509.523 395.328, 514.864 390.670 C 520.028 386.168, 536.599 370.018, 536 370.073 C 535.725 370.097, 529.875 375.323, 523 381.686 M 642 438.183 C 592.353 486.192, 518.737 539.674, 449.836 577.788 C 403.508 603.417, 349.946 626.124, 306.433 638.583 C 290.191 643.234, 288 644.303, 288 647.577 C 288 649.526, 288.813 650.442, 291.562 651.590 C 294.532 652.831, 296.484 652.892, 303.312 651.958 C 312.690 650.675, 323.546 648.207, 320.357 648.083 C 319.178 648.037, 314.840 648.698, 310.716 649.551 C 301.106 651.538, 291.128 651.168, 289.621 648.769 C 287.780 645.837, 290.632 644.302, 306.535 639.668 C 330.246 632.759, 363.912 620.215, 391.500 608.012 C 417.413 596.549, 463.825 571.986, 486.500 557.733 C 527.654 531.865, 564.764 505.723, 592.943 482.752 C 608.526 470.049, 633.530 447.747, 654.472 427.872 C 655.557 426.842, 656.007 426.022, 655.472 426.048 C 654.938 426.074, 648.875 431.535, 642 438.183 M 664.571 495.571 C 663.158 496.985, 663 510.822, 663 632.949 C 663 740.381, 662.739 768.969, 661.750 769.779 C 661.063 770.342, 655.775 773.315, 650 776.386 C 644.225 779.457, 639.898 781.976, 640.384 781.985 C 641.859 782.010, 657.278 773.952, 660.750 771.342 L 664 768.898 664 632.924 L 664 496.950 666.565 495.975 C 670.592 494.444, 734.210 494.695, 736.289 496.250 C 737.829 497.402, 737.971 505.433, 738.106 599 C 738.186 654.825, 738.619 701.400, 739.068 702.500 C 739.516 703.600, 739.797 657.776, 739.692 600.669 C 739.504 499.158, 739.457 496.807, 737.559 495.419 C 735.971 494.258, 729.300 494, 700.880 494 C 670.634 494, 665.940 494.203, 664.571 495.571 M 813.164 569.892 C 803.506 612.855, 782.159 656.932, 754.311 691.409 C 743.062 705.336, 740.605 708.804, 746.454 702.500 C 753.440 694.970, 768.678 674.486, 775.962 662.836 C 788.699 642.462, 802.054 613.209, 808.529 591.500 C 812.788 577.225, 816.057 563.674, 815.767 561.500 C 815.620 560.400, 814.449 564.176, 813.164 569.892 M 561.861 564.080 L 559.500 566.160 561.973 564.580 C 564.100 563.220, 569.130 563, 598.031 563 C 625.456 563, 631.974 563.260, 633.559 564.419 C 635.454 565.805, 635.512 568.389, 636 674.086 C 636.439 769.174, 636.682 782.384, 638 782.743 C 639.097 783.042, 639.168 782.916, 638.263 782.275 C 637.297 781.590, 636.969 757.876, 636.763 673.804 C 636.508 569.600, 636.440 566.143, 634.595 564.105 C 632.729 562.043, 631.988 562, 598.456 562 C 565.205 562, 564.154 562.060, 561.861 564.080 M 559.484 685.500 C 559.484 750.950, 559.604 777.578, 559.750 744.673 C 559.896 711.768, 559.896 658.218, 559.750 625.673 C 559.604 593.128, 559.484 620.050, 559.484 685.500 M 421.750 571.064 C 418.587 572.696, 416 574.256, 416 574.530 C 416 574.977, 427.900 569.312, 428.917 568.381 C 430.226 567.183, 426.745 568.486, 421.750 571.064 M 476.619 592.556 C 468.929 596.392, 456.028 602.291, 437.500 610.444 C 434.750 611.654, 426.988 614.824, 420.250 617.489 C 413.513 620.154, 408.174 622.507, 408.385 622.719 C 409.777 624.111, 486 590.559, 486 588.554 C 486 587.826, 486.716 587.520, 476.619 592.556 M 458.571 621.571 C 457.162 622.981, 457.025 632.559, 457.240 714.321 L 457.479 805.500 457.990 714.213 C 458.435 634.533, 458.691 622.806, 460 621.979 C 461.990 620.721, 529.010 620.721, 531 621.979 C 532.310 622.807, 532.565 634.755, 533.010 716.213 L 533.520 809.500 533.760 716.973 C 533.974 634.592, 533.829 624.201, 532.443 622.223 L 530.887 620 495.515 620 C 464.692 620, 459.941 620.202, 458.571 621.571 M 393.779 627.256 C 387.333 629.531, 382.235 631.569, 382.451 631.785 C 382.851 632.184, 406.074 624.259, 406.888 623.445 C 407.870 622.464, 404.984 623.303, 393.779 627.256 M 368 635.439 C 355.786 639.182, 353.134 640.219, 357.974 639.359 C 362.362 638.580, 382.021 632.201, 380 632.212 C 379.175 632.217, 373.775 633.669, 368 635.439 M 337 644 C 329.025 646.097, 323.085 647.854, 323.801 647.906 C 325.303 648.015, 353.266 641.068, 353.907 640.427 C 354.819 639.514, 350.961 640.330, 337 644 M 355.975 669.565 C 355.378 671.135, 355.090 690.830, 355.231 720.315 L 355.463 768.500 355.981 719.500 C 356.267 692.550, 356.864 669.938, 357.309 669.250 C 358.453 667.482, 427.034 667.434, 428.800 669.200 C 429.704 670.104, 430.060 686.464, 430.243 735.450 L 430.485 800.500 430.750 735.698 C 430.928 692.151, 430.673 670.257, 429.972 668.948 C 428.969 667.073, 427.585 667, 392.940 667 L 356.950 667 355.975 669.565 M 445.500 805 C 447.150 805.420, 449.850 805.765, 451.500 805.767 C 454.022 805.769, 453.863 805.638, 450.500 804.943 C 445.434 803.895, 441.341 803.942, 445.500 805 M 552 806.994 C 550.075 807.431, 545.427 808.100, 541.671 808.482 C 537.916 808.864, 535.081 809.415, 535.373 809.706 C 535.665 809.998, 540.538 809.645, 546.202 808.921 C 551.866 808.198, 556.800 807.582, 557.167 807.553 C 557.533 807.524, 558.171 807.163, 558.583 806.750 C 559.504 805.830, 556.674 805.935, 552 806.994" stroke="none" fill="#0b2f94" fill-rule="evenodd"/><path d="M 495.250 158.747 C 501.712 158.921, 512.288 158.921, 518.750 158.747 C 525.212 158.573, 519.925 158.430, 507 158.430 C 494.075 158.430, 488.788 158.573, 495.250 158.747 M 467 160.963 L 471.500 161.535 465 162.280 C 461.425 162.690, 452.650 164.113, 445.500 165.443 C 426.495 168.977, 424.800 169.183, 432 167.086 C 440.276 164.676, 438.706 164.458, 429.158 166.692 C 424.583 167.762, 422.469 168.639, 423.550 169.018 C 424.672 169.411, 422.851 170.277, 418.392 171.468 C 387.461 179.735, 353.763 194.537, 324.610 212.662 C 318.071 216.728, 312.539 219.873, 312.318 219.651 C 312.096 219.429, 313.396 218.357, 315.207 217.269 C 317.018 216.181, 322.325 212.902, 327 209.983 C 331.675 207.064, 342.250 201.158, 350.500 196.860 C 358.750 192.562, 365.114 189.035, 364.642 189.023 C 364.171 189.010, 357.646 192.156, 350.142 196.013 C 332.832 204.911, 311.500 218.120, 311.500 219.939 C 311.500 220.706, 310.875 221.542, 310.111 221.796 C 309.185 222.105, 308.986 221.831, 309.515 220.975 C 310.040 220.127, 309.912 219.937, 309.138 220.415 C 308.494 220.813, 308.192 221.501, 308.466 221.945 C 308.740 222.389, 304.324 226.156, 298.653 230.317 C 292.982 234.479, 287.760 238.584, 287.048 239.442 C 285.260 241.596, 283.429 241.415, 285.128 239.252 C 287.074 236.772, 274.916 247.278, 272.528 250.138 C 271.444 251.437, 272.569 250.685, 275.028 248.466 C 277.488 246.247, 280.625 243.564, 282 242.503 L 284.500 240.574 282.500 242.594 C 276.121 249.038, 250.908 273.042, 252.927 270.750 C 256.948 266.184, 254.733 267.664, 249.958 272.733 C 247.506 275.336, 246.738 276.383, 248.250 275.059 C 249.762 273.735, 251 273.110, 251 273.671 C 251 274.231, 250.031 275.547, 248.846 276.595 C 246.468 278.698, 229.379 299.898, 226.560 304.241 C 225.582 305.749, 224.412 306.754, 223.960 306.475 C 223.508 306.196, 222.813 306.494, 222.415 307.138 C 221.937 307.912, 222.127 308.040, 222.975 307.515 C 223.831 306.986, 224.105 307.185, 223.796 308.111 C 223.542 308.875, 222.846 309.500, 222.250 309.500 C 221.654 309.500, 220.792 309.910, 220.333 310.410 C 219.841 310.948, 220.065 310.993, 220.880 310.521 C 221.823 309.974, 222.113 310.161, 221.796 311.111 C 221.542 311.875, 220.846 312.500, 220.250 312.500 C 219.654 312.500, 218.792 312.910, 218.333 313.410 C 217.841 313.948, 218.065 313.993, 218.880 313.521 C 219.823 312.974, 220.113 313.161, 219.796 314.111 C 219.542 314.875, 218.846 315.500, 218.250 315.500 C 217.654 315.500, 216.792 315.910, 216.333 316.410 C 215.841 316.948, 216.065 316.993, 216.880 316.521 C 217.823 315.974, 218.113 316.161, 217.796 317.111 C 217.542 317.875, 216.846 318.500, 216.250 318.500 C 215.654 318.500, 214.792 318.910, 214.333 319.410 C 213.849 319.939, 214.024 320.019, 214.750 319.601 C 216.680 318.491, 216.389 319.130, 210.413 329.141 C 199.108 348.080, 186.489 376.199, 179.406 398.234 C 177.862 403.038, 176.298 406.482, 175.931 405.889 C 175.563 405.293, 174.959 406.026, 174.584 407.523 C 174.209 409.015, 174.150 410.483, 174.451 410.785 C 174.753 411.086, 175 410.508, 175 409.500 C 175 408.492, 175.277 407.944, 175.616 408.283 C 175.955 408.622, 175.278 412.634, 174.112 417.199 C 168.608 438.746, 165.693 458.694, 163.968 486.620 C 161.579 525.292, 167.610 571.985, 179.613 607.741 C 189.075 635.929, 204.429 667.970, 218.229 688.327 C 220.402 691.532, 221.972 694.362, 221.718 694.615 C 221.465 694.869, 219.802 692.809, 218.024 690.038 C 216.246 687.267, 214.587 685, 214.337 685 C 213.779 685, 214.515 686.282, 218.209 691.737 C 219.787 694.067, 221.429 695.867, 221.859 695.737 C 222.764 695.462, 236.361 712.972, 235.732 713.602 C 235.501 713.833, 232.475 710.192, 229.008 705.511 C 222.913 697.281, 219.522 693.630, 224.122 700.250 C 229.011 707.286, 235.338 714.995, 235.825 714.509 C 236.499 713.834, 240 717.022, 240 718.310 C 240 718.860, 239.008 718.453, 237.796 717.405 C 236.584 716.357, 239.172 719.772, 243.546 724.994 C 251.279 734.225, 273.817 757.755, 272.527 755.252 C 272.174 754.565, 269.380 751.640, 266.319 748.752 C 260.983 743.717, 243.967 724.666, 241.085 720.500 C 240.323 719.400, 242.106 721.200, 245.046 724.500 C 247.986 727.800, 256.716 737.012, 264.446 744.972 C 272.176 752.931, 277.375 758.569, 276 757.500 C 274.625 756.431, 275.506 757.682, 277.958 760.278 C 280.410 762.875, 282.632 765, 282.895 765 C 283.159 765, 282.081 763.650, 280.500 762 C 278.919 760.350, 278.076 759, 278.626 759 C 279.176 759, 280.948 760.403, 282.563 762.118 C 286.032 765.801, 305.450 780.643, 315.728 787.465 C 319.703 790.104, 322.733 792.623, 322.461 793.063 C 322.190 793.502, 322.494 794.187, 323.138 794.585 C 323.869 795.037, 324.041 794.876, 323.595 794.155 C 322.400 792.220, 323.837 792.816, 331.320 797.357 C 372.107 822.106, 420.248 838.162, 471 843.945 C 499.956 847.245, 541.509 846.008, 570.500 840.984 C 627.342 831.133, 683.001 805.827, 728.354 769.214 C 732.673 765.727, 736.384 763.050, 736.599 763.266 C 737.592 764.258, 711.257 783.873, 696.048 793.470 C 691.071 796.610, 687 799.390, 687 799.648 C 687 800.236, 687.331 800.039, 699.500 792.203 C 711.215 784.660, 734.618 767.261, 737.500 763.953 C 738.717 762.555, 738.913 761.972, 738 762.464 C 736.249 763.406, 737.251 762.405, 754.500 745.981 L 767.500 733.602 754.265 747.051 C 746.986 754.448, 740.689 760.950, 740.273 761.500 C 738.285 764.127, 761.310 741.478, 768.230 734 C 776.850 724.684, 786.225 713.125, 784.089 714.445 C 783.162 715.018, 782.885 714.844, 783.204 713.889 C 783.458 713.125, 784.246 712.500, 784.955 712.500 C 785.664 712.500, 787.372 710.925, 788.751 709 L 791.258 705.500 788.156 709 C 786.450 710.925, 785.042 712.132, 785.027 711.683 C 784.978 710.184, 790.210 704.012, 791.076 704.547 C 791.856 705.029, 799.353 695.002, 804.308 686.848 C 807.932 680.886, 804.468 685.256, 798.019 694.784 C 794.563 699.890, 791.564 703.897, 791.355 703.688 C 791.145 703.479, 794.731 697.726, 799.323 690.904 C 830.943 643.923, 850.280 588.611, 855.095 531.364 C 856.546 514.113, 855.708 476.214, 853.494 459 C 848.743 422.055, 837.421 385.321, 819.885 349.953 C 815.548 341.206, 812.021 333.701, 812.047 333.275 C 812.072 332.849, 813.206 334.637, 814.566 337.250 C 815.926 339.863, 817.262 342, 817.536 342 C 817.810 342, 816.885 339.733, 815.481 336.963 C 814.077 334.193, 812.538 332.168, 812.060 332.463 C 811.581 332.759, 809.945 330.863, 808.424 328.250 C 803.820 320.344, 793.008 304.132, 787.658 297.113 C 769.604 273.427, 739.733 243.926, 718.249 228.566 C 715.361 226.501, 713.235 224.428, 713.525 223.960 C 714.114 223.007, 707.001 217.990, 693.183 209.611 C 682.298 203.011, 663.727 192.993, 662.416 193.015 C 661.912 193.024, 666.225 195.541, 672 198.610 C 688.815 207.545, 713.520 222.813, 712.620 223.713 C 712.368 223.965, 708.823 221.917, 704.742 219.163 C 668.007 194.374, 622.628 175.722, 575.500 166.039 C 562.114 163.288, 558.365 161.841, 570.379 164.062 C 573.540 164.647, 576.635 164.955, 577.257 164.748 C 577.879 164.540, 573.688 163.548, 567.944 162.542 C 558.916 160.960, 551.061 160.690, 510 160.551 C 483.875 160.463, 464.525 160.648, 467 160.963 M 450.500 162.481 C 447.200 163.175, 445.625 163.774, 447 163.810 C 448.375 163.847, 452.425 163.274, 456 162.536 C 459.575 161.799, 461.150 161.201, 459.500 161.207 C 457.850 161.213, 453.800 161.786, 450.500 162.481 M 549.500 162.057 C 551.700 162.512, 555.300 162.851, 557.500 162.809 C 561.418 162.734, 561.398 162.717, 556.500 161.954 C 553.750 161.526, 550.150 161.188, 548.500 161.203 C 545.931 161.226, 546.075 161.349, 549.500 162.057 M 592.500 168.469 C 594.696 169.526, 618.320 176.013, 618.676 175.657 C 618.886 175.448, 614.207 173.880, 608.279 172.173 C 598.084 169.239, 590.304 167.412, 592.500 168.469 M 387.690 179.170 C 383.395 180.844, 380.067 182.400, 380.294 182.628 C 380.521 182.855, 384.711 181.485, 389.604 179.583 C 394.497 177.681, 397.825 176.125, 397 176.125 C 396.175 176.125, 391.986 177.495, 387.690 179.170 M 372.500 185.478 C 369.750 186.774, 367.950 187.843, 368.500 187.855 C 369.050 187.867, 371.750 186.817, 374.500 185.522 C 377.250 184.226, 379.050 183.157, 378.500 183.145 C 377.950 183.133, 375.250 184.183, 372.500 185.478 M 639.020 183.277 C 639.824 184.199, 656.317 191.016, 656.734 190.599 C 656.937 190.396, 653.671 188.801, 649.477 187.055 C 640.055 183.133, 638.359 182.520, 639.020 183.277 M 481.145 196.028 C 455.818 198.015, 425.420 204.907, 399.543 214.530 C 379.014 222.164, 336.076 244.949, 336.731 247.861 C 336.859 248.426, 333.259 251.494, 328.731 254.678 C 316.708 263.134, 303.239 274.596, 288.525 288.893 C 281.389 295.827, 276.860 300.038, 278.462 298.250 C 280.064 296.462, 281.043 295, 280.639 295 C 279.731 295, 277.080 297.943, 267.488 309.599 C 260.180 318.479, 256.957 323.854, 263.072 316.962 L 266.144 313.500 263.461 317.240 C 261.985 319.297, 260.451 320.779, 260.051 320.532 C 258.196 319.385, 241.471 345.618, 231.025 366.058 C 195.876 434.839, 188.389 517.212, 210.610 590.695 C 216.496 610.164, 228.344 636.635, 240.120 656.633 C 245.560 665.872, 255.818 681, 256.642 681 C 256.904 681, 256.780 680.438, 256.367 679.750 C 255.857 678.901, 256.158 678.940, 257.308 679.872 C 259.140 681.358, 259.628 682.506, 258 681.500 C 255.928 680.219, 257.177 682.351, 262.924 689.900 C 273.236 703.446, 303.173 735.160, 304.446 733.887 C 304.725 733.609, 301.239 729.983, 296.701 725.829 C 289.753 719.470, 271.350 699.437, 266.085 692.500 C 263.011 688.451, 267.546 693.274, 275.016 702 C 279.018 706.675, 288.189 716.330, 295.396 723.455 C 302.603 730.580, 307.626 735.755, 306.558 734.955 C 305.330 734.035, 304.892 733.958, 305.365 734.747 C 307.535 738.359, 335.355 759.069, 347.714 766.273 L 353.928 769.895 353.981 720.797 C 354.022 683.762, 354.341 671.060, 355.281 669.100 L 356.526 666.500 392.450 666.237 C 412.209 666.093, 428.759 666.359, 429.229 666.829 C 429.699 667.299, 430.168 697.342, 430.271 733.592 L 430.458 799.500 430.990 735 L 431.522 670.500 431.879 735.500 C 432.076 771.250, 432.190 800.818, 432.133 801.207 C 432.076 801.596, 433.710 802.381, 435.764 802.951 C 440.088 804.152, 443.728 804.194, 440 803 C 436.033 801.730, 439.868 801.997, 447.500 803.522 L 454.500 804.921 448.500 804.516 C 442.562 804.116, 442.545 804.122, 446.860 805.136 C 449.259 805.700, 452.296 805.891, 453.610 805.562 L 456 804.962 456.242 714.231 L 456.484 623.500 457 714.500 L 457.516 805.500 457.758 714.821 C 457.976 633.060, 458.158 623.985, 459.608 622.535 C 461.035 621.108, 465.178 620.960, 496.559 621.214 C 515.998 621.371, 531.548 621.146, 531.115 620.713 C 530.681 620.281, 514.095 620.056, 494.257 620.213 C 474.419 620.371, 458.707 620.169, 459.344 619.765 C 459.980 619.361, 476.330 619.024, 495.677 619.015 L 530.855 619 532.927 621.635 C 534.990 624.257, 535 624.712, 535 716.135 L 535 808 538.250 808.132 L 541.500 808.263 538 809 C 529.730 810.741, 538.920 810.048, 556.224 807.626 C 558.763 807.271, 559.642 806.013, 557.417 805.921 C 556.360 805.878, 556.061 805.616, 556.750 805.338 C 557.738 804.939, 558.051 779.981, 558.244 686.167 L 558.488 567.500 559.006 685.500 L 559.524 803.500 559.750 684.500 C 559.874 619.050, 559.982 565.010, 559.988 564.411 C 560.020 561.474, 565.445 561, 599.047 561 C 631.667 561, 633.079 561.079, 635 563 C 636.100 564.100, 636.964 565.787, 636.921 566.750 C 636.859 568.135, 636.727 568.187, 636.291 567 C 635.987 566.175, 635.053 564.712, 634.215 563.750 C 632.818 562.147, 629.812 562, 598.456 562 C 565.205 562, 564.154 562.060, 561.861 564.080 L 559.500 566.160 561.973 564.580 C 564.100 563.220, 569.130 563, 598.031 563 C 625.456 563, 631.974 563.260, 633.559 564.419 C 635.454 565.805, 635.512 568.389, 636 674.086 C 636.400 760.699, 636.755 782.385, 637.775 782.592 C 638.476 782.734, 638.589 782.621, 638.025 782.342 C 637.332 781.998, 637.080 747.413, 637.245 675.667 L 637.491 569.500 637.750 675.250 C 637.892 733.413, 638.242 781, 638.527 781 C 638.811 781, 642.634 779.195, 647.022 776.989 C 651.410 774.783, 655 773.202, 655 773.477 C 655 773.751, 651.513 775.759, 647.250 777.938 C 642.987 780.117, 639.898 781.923, 640.384 781.950 C 641.805 782.030, 657.198 774.013, 660.750 771.342 L 664 768.898 664 632.924 L 664 496.950 666.565 495.975 C 670.592 494.444, 734.210 494.695, 736.287 496.250 C 737.826 497.402, 737.964 505.401, 738.051 598.500 C 738.114 664.862, 738.501 700.729, 739.182 703.083 C 739.751 705.054, 740.858 706.667, 741.642 706.667 C 742.425 706.667, 746.114 703.029, 749.838 698.583 C 761.391 684.791, 765.097 679.586, 762 681.500 C 760.372 682.506, 760.860 681.358, 762.692 679.872 C 763.842 678.940, 764.143 678.901, 763.633 679.750 C 763.220 680.438, 763.122 681, 763.415 681 C 765.672 681, 790.325 639.399, 789.640 636.749 C 789.390 635.785, 789.560 635.228, 790.016 635.510 C 791.669 636.531, 802.713 610.433, 808.105 592.764 C 812.202 579.338, 816.021 564.017, 815.898 561.500 C 815.816 559.814, 815.661 559.893, 814.914 562 C 814.156 564.137, 814.098 564.010, 814.514 561.125 C 814.781 559.269, 815.045 557.019, 815.100 556.125 C 815.155 555.231, 815.523 555.625, 815.919 557 C 816.446 558.833, 817.085 556.566, 818.315 548.500 C 821.388 528.343, 822.297 514.082, 821.662 496 C 820.346 458.516, 813.742 426.964, 799.792 391.500 C 792.628 373.290, 773.932 338.306, 772.001 339.499 C 771.526 339.793, 770.813 339.506, 770.415 338.862 C 769.963 338.131, 770.124 337.959, 770.845 338.405 C 771.480 338.797, 772 338.729, 772 338.253 C 772 336.948, 767.045 330.500, 766.042 330.500 C 765.561 330.500, 764.792 330.090, 764.333 329.590 C 763.841 329.052, 764.065 329.007, 764.880 329.479 C 765.829 330.029, 766.102 329.845, 765.755 328.889 C 765.477 328.125, 764.786 327.598, 764.220 327.718 C 763.653 327.839, 761.989 326.264, 760.522 324.218 L 757.856 320.500 760.928 323.962 C 762.618 325.866, 764 327.080, 764 326.659 C 764 325.567, 753.386 311.357, 751.871 310.420 C 751.175 309.990, 751.708 311.116, 753.053 312.922 C 757.540 318.942, 758.247 320, 757.782 320 C 757.529 320, 755.144 317.188, 752.483 313.750 C 749.822 310.313, 748.400 308.118, 749.322 308.872 C 750.245 309.627, 751 309.810, 751 309.277 C 751 308.029, 747.493 304.840, 746.839 305.494 C 746.565 305.768, 745.252 304.760, 743.921 303.253 C 741.734 300.779, 741.717 300.698, 743.750 302.412 C 747.246 305.361, 746.398 302.738, 742.788 299.437 C 741.022 297.822, 740.206 297.400, 740.974 298.500 C 741.743 299.600, 736.913 295.131, 730.239 288.569 C 723.566 282.006, 718.305 276.315, 718.548 275.922 C 719.579 274.254, 692.776 253.459, 676.170 243.043 C 660.529 233.232, 629.377 217.992, 620 215.564 L 617.500 214.917 620 216.423 C 621.375 217.251, 622.275 217.925, 622 217.920 C 620.823 217.900, 596.600 209.120, 597.562 209.063 C 598.147 209.028, 602.612 210.348, 607.484 211.995 C 612.357 213.642, 616.520 214.813, 616.735 214.598 C 616.950 214.383, 612.935 212.843, 607.813 211.177 C 584.958 203.740, 570.484 200.493, 544.500 196.976 C 533.653 195.508, 495.123 194.932, 481.145 196.028 M 500.797 196.745 C 505.361 196.930, 512.561 196.929, 516.797 196.742 C 521.034 196.555, 517.300 196.404, 508.500 196.405 C 499.700 196.406, 496.234 196.559, 500.797 196.745 M 470.500 198.138 C 461.407 199.289, 459.593 200.160, 468 199.340 C 471.575 198.991, 478.325 198.388, 483 198 L 491.500 197.295 484.500 197.274 C 480.650 197.262, 474.350 197.651, 470.500 198.138 M 527.083 197.375 C 527.313 197.581, 532.225 197.989, 538 198.282 C 545.359 198.656, 546.855 198.574, 543 198.007 C 537.247 197.161, 526.364 196.728, 527.083 197.375 M 575 204.032 C 579.125 205.068, 583.175 205.894, 584 205.868 C 584.825 205.841, 582.350 204.970, 578.500 203.933 C 574.650 202.895, 570.600 202.069, 569.500 202.096 C 568.400 202.124, 570.875 202.995, 575 204.032 M 411.688 211.183 C 408.491 212.297, 406.050 213.383, 406.264 213.597 C 406.478 213.811, 409.768 212.898, 413.576 211.567 C 417.384 210.237, 419.825 209.151, 419 209.153 C 418.175 209.156, 414.884 210.069, 411.688 211.183 M 297.330 228.986 C 292.287 232.806, 287.884 236.379, 287.547 236.925 C 287.209 237.471, 291.448 234.525, 296.966 230.379 C 305.623 223.875, 307.902 221.928, 306.750 222.020 C 306.613 222.031, 302.374 225.165, 297.330 228.986 M 715 224.260 C 715 224.534, 718.448 227.353, 722.662 230.524 C 741.220 244.492, 763.643 266.192, 779.988 286 C 786.621 294.038, 790.775 298.429, 787.083 293.500 C 780.302 284.447, 763.524 265.811, 753.204 255.870 C 740.297 243.437, 715 222.506, 715 224.260 M 640.083 225.384 C 641.101 226.321, 657 233.970, 657 233.522 C 657 232.965, 641.443 225, 640.356 225 C 639.977 225, 639.854 225.173, 640.083 225.384 M 368.750 229.064 C 365.587 230.696, 363 232.256, 363 232.530 C 363 232.977, 374.900 227.312, 375.917 226.381 C 377.226 225.183, 373.745 226.486, 368.750 229.064 M 660 235.316 C 660 235.591, 663.038 237.484, 666.750 239.523 C 679.061 246.284, 693.527 256.460, 710.500 270.301 L 716.500 275.194 711.500 270.509 C 705.176 264.583, 694.064 256.054, 682.500 248.250 C 673.368 242.088, 660 234.403, 660 235.316 M 323.500 256.170 C 317.450 260.636, 312.275 264.563, 312 264.896 C 311.725 265.228, 307.900 268.641, 303.500 272.480 C 291.639 282.828, 281 293.194, 281 294.402 C 281 294.987, 285.837 290.721, 291.750 284.922 C 305.166 271.762, 312.774 265.254, 325.500 256.051 C 336.806 247.875, 336.661 247.991, 335.417 248.024 C 334.913 248.038, 329.550 251.703, 323.500 256.170 M 261.975 259.550 C 257.864 263.703, 255.175 266.790, 256 266.411 C 257.505 265.719, 270.734 252, 269.896 252 C 269.651 252, 266.086 255.398, 261.975 259.550 M 620.704 260.425 C 618.066 261.134, 614.660 262.910, 613.135 264.371 C 611.609 265.832, 610.098 266.765, 609.777 266.444 C 609.209 265.876, 604.502 272.206, 602.113 276.750 C 599.792 281.163, 601.778 278.899, 605.459 272.935 C 607.518 269.599, 609.391 267.058, 609.621 267.288 C 610.731 268.398, 579.245 316.270, 577.937 315.461 C 577.498 315.190, 576.813 315.494, 576.415 316.138 C 575.937 316.912, 576.127 317.040, 576.975 316.515 C 577.837 315.983, 578.093 316.179, 577.755 317.111 C 577.477 317.875, 576.769 318.396, 576.180 318.268 C 575.592 318.141, 574.148 319.491, 572.972 321.268 L 570.835 324.500 573.412 321.500 C 574.830 319.850, 575.992 318.856, 575.995 319.290 C 576.004 320.714, 571.701 325.933, 570.917 325.449 C 569.938 324.843, 565.854 330.521, 566.677 331.344 C 567.869 332.535, 540.348 367.046, 537.082 368.454 C 536.303 368.791, 537.664 366.914, 540.108 364.283 C 544.117 359.967, 559.827 340.709, 562.364 337 C 564.968 333.194, 559.789 339.150, 551.930 349 C 547.322 354.775, 539.352 364.113, 534.217 369.750 C 529.083 375.387, 525.222 380, 525.637 380 C 526.053 380, 524.866 381.575, 523 383.500 C 519.299 387.319, 516.513 388.369, 519.595 384.784 C 520.643 383.566, 518.575 385.067, 515 388.120 C 506.624 395.274, 500.410 399.483, 490.500 404.717 C 486.100 407.040, 482.850 408.955, 483.279 408.971 C 484.976 409.034, 496.922 402.460, 504.250 397.430 C 508.512 394.504, 511.990 392.423, 511.979 392.805 C 511.946 393.864, 496.539 403.898, 490.151 407.020 C 480.544 411.716, 471.884 414.242, 464.500 414.504 C 457.714 414.744, 457.668 414.730, 463 414.044 C 467.675 413.442, 467 413.332, 458.500 413.310 C 451.487 413.292, 449.695 413.498, 452.500 414 C 455.983 414.624, 456.113 414.733, 453.500 414.843 C 449.024 415.033, 438.804 412.388, 430.689 408.940 C 421.461 405.020, 407.846 397.058, 408.516 395.974 C 408.800 395.514, 408.506 394.813, 407.862 394.415 C 407.088 393.937, 406.960 394.127, 407.485 394.975 C 408.014 395.831, 407.815 396.105, 406.889 395.796 C 406.125 395.542, 405.500 394.774, 405.500 394.089 C 405.500 393.405, 403.363 391.262, 400.750 389.327 C 398.137 387.392, 396 386.049, 396 386.342 C 396 386.636, 398.024 388.329, 400.498 390.106 C 402.972 391.883, 404.792 393.541, 404.543 393.791 C 403.945 394.388, 385.017 379.536, 378 372.964 L 372.500 367.812 377.825 372.156 C 390.532 382.522, 395 386.022, 395 385.609 C 395 385.367, 390.163 381.130, 384.250 376.193 C 371.996 365.963, 345.960 339.732, 335.172 326.750 C 331.172 321.938, 327.643 318, 327.329 318 C 325.704 318, 348.550 343.495, 362.456 357.201 C 368.482 363.141, 372.935 368, 372.353 368 C 370.748 368, 346.894 343.144, 334.750 328.818 C 324.317 316.510, 322.125 313.394, 325.750 316.026 C 326.713 316.725, 324.952 314.755, 321.838 311.648 C 318.724 308.542, 315.619 306, 314.938 306 C 314.257 306, 315.455 307.275, 317.600 308.833 C 319.745 310.392, 322.175 312.520, 323 313.564 C 323.825 314.608, 322.700 314.073, 320.500 312.376 C 315.112 308.219, 312.622 307, 309.516 307 C 306.129 307, 301.340 309.496, 300.030 311.945 C 298.230 315.308, 298.889 322.883, 301.565 329.570 C 302.976 333.096, 303.806 336.505, 303.410 337.145 C 303.013 337.788, 303.123 338.042, 303.655 337.713 C 304.894 336.947, 312.265 351.762, 311.367 353.215 C 310.983 353.836, 311.149 354.026, 311.751 353.654 C 312.373 353.270, 315.582 357.854, 319.520 364.750 C 323.210 371.212, 330.452 383.309, 335.614 391.630 C 344.965 406.705, 346.037 408.759, 343.845 407.405 C 343.124 406.959, 342.963 407.131, 343.415 407.862 C 343.813 408.506, 344.510 408.803, 344.965 408.522 C 346.113 407.812, 356.688 425.979, 363.872 441 C 377.492 469.477, 383.174 495.165, 383.119 528 C 383.084 548.631, 381.670 562.102, 377.531 581.250 C 376.253 587.163, 375.512 592, 375.884 592 C 376.869 592, 390.961 585.941, 402.375 580.611 C 413.944 575.209, 416.259 574.652, 407 579.500 C 395.126 585.716, 401.756 583.113, 416.426 575.799 C 424.370 571.838, 430.655 568.251, 430.394 567.829 C 430.133 567.406, 433.979 565.022, 438.940 562.530 C 447.555 558.204, 451.226 556.810, 448 559.091 C 446.667 560.034, 446.667 560.102, 448 559.701 C 448.825 559.453, 449.390 558.750, 449.255 558.139 C 448.933 556.680, 458.747 551.726, 460.192 552.619 C 460.841 553.020, 461.031 552.859, 460.644 552.234 C 460.258 551.608, 462.389 549.805, 465.740 547.923 C 482.259 538.643, 511.057 519.723, 514.775 515.707 C 515.899 514.493, 520.038 506.525, 523.972 498 C 536.110 471.700, 549.982 445.683, 567.160 417 C 588.765 380.923, 591.198 376.606, 601.363 356.286 C 616.921 325.189, 631.725 286.121, 632.734 273.500 C 633.145 268.359, 632.892 267.094, 630.969 264.667 C 629.734 263.108, 627.773 261.449, 626.612 260.980 C 625.112 260.374, 624.968 260.108, 626.115 260.063 C 627.003 260.029, 629.028 260.944, 630.615 262.098 L 633.500 264.195 630.694 261.598 C 627.531 258.669, 627.323 258.645, 620.704 260.425 M 728.972 286.315 C 734.731 292.131, 739.658 296.676, 739.920 296.414 C 740.541 295.792, 723.107 278.186, 720.500 276.802 C 719.400 276.218, 723.212 280.499, 728.972 286.315 M 240.302 283.750 C 234.022 291.125, 228.705 298, 229.282 298 C 229.529 298, 233.386 293.500, 237.853 288 C 246.660 277.157, 248.216 274.456, 240.302 283.750 M 589.262 297 C 583.111 306.350, 578.277 314, 578.521 314 C 578.765 314, 582.935 308.038, 587.788 300.750 C 597.395 286.324, 601.362 280, 600.804 280 C 600.607 280, 595.413 287.650, 589.262 297 M 630.600 287.600 C 629.633 290.667, 629.022 293.356, 629.242 293.576 C 629.462 293.796, 630.433 291.467, 631.400 288.400 C 632.367 285.333, 632.978 282.644, 632.758 282.424 C 632.538 282.204, 631.567 284.533, 630.600 287.600 M 453.784 291.738 C 456.689 291.941, 461.189 291.939, 463.784 291.734 C 466.378 291.528, 464 291.363, 458.500 291.365 C 453 291.368, 450.878 291.536, 453.784 291.738 M 442.210 293.226 C 441.269 293.626, 442.300 293.742, 444.500 293.483 C 447.524 293.129, 447.890 293.217, 446 293.845 C 441.004 295.505, 437.410 296.121, 439 295.046 C 439.825 294.487, 440.050 294.031, 439.500 294.031 C 438.168 294.031, 435.217 295.962, 436.500 295.994 C 437.050 296.008, 434.800 297.745, 431.500 299.855 C 423.013 305.281, 415.485 313.702, 411.468 322.262 C 409.600 326.243, 408.024 328.825, 407.966 328 C 407.810 325.804, 406.133 330.006, 406.170 332.500 C 406.195 334.200, 406.297 334.154, 406.850 332.188 C 407.207 330.916, 407.524 335.866, 407.552 343.188 C 407.596 354.355, 407.959 357.452, 409.802 362.407 C 412.237 368.949, 412.492 370.238, 410.909 368 C 409.966 366.667, 409.893 366.667, 410.257 368 C 410.482 368.825, 411.168 369.500, 411.781 369.500 C 412.394 369.500, 414.301 371.621, 416.018 374.214 C 423.020 384.784, 434.213 392.424, 447.176 395.480 C 455.736 397.498, 462.213 397.375, 471.415 395.022 C 481.735 392.382, 488.246 388.725, 495.487 381.500 C 511.814 365.208, 515.635 341.384, 505.331 320.117 C 502.119 313.488, 492.357 303.450, 485 299.212 C 481.975 297.470, 479.950 296.027, 480.500 296.007 C 481.772 295.959, 478.844 294.031, 477.500 294.031 C 476.950 294.031, 477.175 294.487, 478 295.046 C 479.092 295.784, 478.683 295.872, 476.500 295.368 C 470.573 294, 468.274 292.981, 472.500 293.596 C 474.700 293.916, 476.188 293.864, 475.806 293.479 C 474.872 292.537, 444.372 292.308, 442.210 293.226 M 487.500 299.834 C 495.203 304.731, 503.093 313.407, 507.013 321.289 C 508.711 324.705, 509.807 326.375, 509.447 325 C 507.482 317.495, 497.311 305.160, 488.298 299.352 C 485.437 297.508, 482.737 296.004, 482.298 296.010 C 481.859 296.015, 484.200 297.736, 487.500 299.834 M 792.432 302.046 C 798.077 309.935, 800.088 311.640, 794.970 304.196 C 792.585 300.729, 790.161 297.599, 789.582 297.242 C 789.003 296.884, 790.286 299.046, 792.432 302.046 M 272.415 305.250 C 267.830 310.256, 265.637 313, 266.224 313 C 266.517 313, 268.872 310.525, 271.456 307.500 C 276.570 301.514, 277.208 300.018, 272.415 305.250 M 418.537 308.171 C 415.980 311.014, 413.438 314.277, 412.889 315.421 C 412.339 316.564, 412.923 316.150, 414.185 314.500 C 415.448 312.850, 418.230 309.587, 420.368 307.250 C 422.506 304.913, 424.014 303, 423.720 303 C 423.426 303, 421.093 305.327, 418.537 308.171 M 303.367 306.918 C 299.331 309.379, 296.973 312.786, 297.102 315.973 C 297.191 318.168, 297.306 318.073, 297.975 315.256 C 299.296 309.693, 302.469 307.124, 309.500 305.930 L 313.500 305.250 310 305.129 C 308.075 305.062, 305.090 305.867, 303.367 306.918 M 257.802 323.750 C 254.919 327.095, 242.628 346.378, 244.283 344.960 C 245.006 344.341, 259.828 322, 259.516 322 C 259.403 322, 258.631 322.788, 257.802 323.750 M 203.701 337.250 C 198.728 346.205, 192.818 358.153, 193.186 358.506 C 193.359 358.672, 196.745 352.551, 200.712 344.904 C 208.124 330.615, 209.873 326.137, 203.701 337.250 M 405.360 344 C 405.360 349.225, 405.529 351.363, 405.735 348.750 C 405.941 346.137, 405.941 341.863, 405.735 339.250 C 405.529 336.637, 405.360 338.775, 405.360 344 M 512.349 345 C 512.349 349.675, 512.522 351.587, 512.732 349.250 C 512.943 346.913, 512.943 343.087, 512.732 340.750 C 512.522 338.413, 512.349 340.325, 512.349 345 M 304 339.367 C 304 340.450, 308.970 350, 309.534 350 C 309.809 350, 308.847 347.637, 307.397 344.750 C 304.607 339.197, 304 338.235, 304 339.367 M 777.602 350.500 C 779.102 353.250, 780.755 355.950, 781.275 356.500 C 782.756 358.067, 778.352 349.738, 776.515 347.500 C 775.613 346.400, 776.101 347.750, 777.602 350.500 M 603.705 354.528 C 602.229 357.538, 601.234 360, 601.494 360 C 602.167 360, 607.211 349.878, 606.762 349.429 C 606.557 349.224, 605.182 351.518, 603.705 354.528 M 822.094 351.500 C 822.094 352.050, 823.402 354.975, 825 358 C 826.598 361.025, 827.906 363.050, 827.906 362.500 C 827.906 361.950, 826.598 359.025, 825 356 C 823.402 352.975, 822.094 350.950, 822.094 351.500 M 727.118 359.638 C 725.259 360.449, 723.135 360.882, 722.399 360.599 C 721.069 360.089, 710.604 363.938, 711.335 364.668 C 711.545 364.878, 713.869 364.128, 716.500 363 C 719.131 361.872, 721.459 361.126, 721.675 361.342 C 721.891 361.557, 718.115 363.425, 713.284 365.493 C 695.470 373.116, 668.533 384.970, 641.158 397.230 L 636.816 399.175 639.158 401.732 L 641.500 404.288 638.500 402.461 C 635.311 400.518, 635.703 401.026, 640.470 405.015 C 642.103 406.382, 642.835 406.712, 642.097 405.750 C 639.654 402.565, 642.265 403.931, 647.922 408.799 C 650.990 411.438, 654.942 414.604, 656.705 415.835 C 658.896 417.365, 659.712 418.587, 659.285 419.700 C 658.834 420.875, 659.029 421.100, 659.985 420.510 C 660.892 419.949, 661.071 420.076, 660.554 420.912 C 660.139 421.584, 659.549 421.882, 659.242 421.575 C 658.301 420.634, 655.980 423.152, 656.671 424.363 C 657.028 424.988, 656.963 425.177, 656.527 424.783 C 656.090 424.389, 650.730 428.836, 644.616 434.667 C 638.502 440.497, 626.862 451.101, 618.750 458.231 C 610.638 465.361, 604 471.431, 604 471.720 C 604 472.009, 604.788 471.647, 605.750 470.916 C 606.712 470.185, 605.949 471.255, 604.054 473.294 C 600.101 477.545, 597.408 478.410, 601.076 474.250 L 603.500 471.500 600.754 473.921 C 599.244 475.252, 598.232 476.565, 598.506 476.839 C 599.170 477.503, 595.962 481, 594.690 481 C 594.140 481, 594.547 480.019, 595.595 478.820 C 596.643 477.621, 594.350 479.252, 590.500 482.445 C 580.731 490.545, 579.147 492.391, 587.500 485.940 C 591.350 482.967, 593.825 481.389, 593 482.432 C 591.389 484.469, 591.183 484.631, 567.928 502.067 C 548.158 516.890, 543.198 520.240, 542.061 519.538 C 541.553 519.224, 540.813 519.494, 540.415 520.138 C 539.935 520.914, 540.165 521.064, 541.095 520.582 C 549.338 516.316, 515.354 539.626, 491.840 554.366 C 433.582 590.886, 363.963 622.933, 306.535 639.668 C 290.632 644.302, 287.780 645.837, 289.621 648.769 C 291.128 651.168, 301.106 651.538, 310.716 649.551 C 319.655 647.702, 324.615 647.648, 317.500 649.477 C 314.750 650.184, 313.400 650.773, 314.500 650.785 C 317.536 650.820, 326.790 648.268, 324.500 648.028 C 323.400 647.913, 329.250 646.072, 337.500 643.938 C 345.750 641.803, 352.950 640.195, 353.500 640.363 C 354.050 640.532, 348.283 642.197, 340.685 644.063 C 333.087 645.930, 327.297 647.599, 327.818 647.773 C 328.339 647.946, 334.106 646.723, 340.633 645.054 C 357.461 640.752, 357.301 640.804, 356.064 640.039 C 355.456 639.664, 360.652 637.686, 367.611 635.644 C 374.570 633.602, 380.443 632.109, 380.661 632.327 C 380.879 632.546, 379.007 633.298, 376.500 634 C 373.993 634.702, 372.141 635.474, 372.383 635.717 C 372.626 635.959, 375.343 635.364, 378.421 634.393 C 381.499 633.423, 383.573 632.354, 383.029 632.018 C 382.254 631.539, 398.097 625.483, 406 623.238 C 407.333 622.859, 407.333 622.931, 406 623.890 C 405.175 624.484, 404.842 624.976, 405.261 624.985 C 406.632 625.012, 425.060 617.727, 424.652 617.318 C 424.433 617.099, 420.764 618.306, 416.500 620 C 412.236 621.694, 408.579 622.912, 408.374 622.707 C 408.168 622.502, 413.513 620.157, 420.250 617.496 C 433.465 612.278, 434.279 611.930, 452.957 603.540 C 459.808 600.463, 466.019 598.177, 466.759 598.461 C 467.499 598.745, 467.859 598.582, 467.561 598.098 C 467.262 597.615, 468.701 596.433, 470.759 595.471 C 472.816 594.509, 477.200 592.416, 480.500 590.820 C 483.800 589.224, 485.626 588.611, 484.559 589.459 C 483.491 590.307, 482.179 591, 481.642 591 C 481.106 591, 480.925 591.258, 481.240 591.574 C 482.259 592.592, 488.106 588.980, 487.369 587.787 C 486.908 587.042, 487.254 586.883, 488.388 587.319 C 489.379 587.699, 489.853 587.572, 489.511 587.018 C 488.741 585.771, 510.742 574.722, 512.200 575.623 C 512.838 576.018, 513.029 575.856, 512.650 575.243 C 512.267 574.624, 514.822 572.600, 518.746 570.414 C 544.569 556.027, 581.832 531.800, 604.326 514.772 C 610.831 509.848, 616.339 506.005, 616.566 506.233 C 617.419 507.086, 580.083 533.870, 561.250 545.916 C 556.712 548.818, 553 551.401, 553 551.655 C 553 551.910, 553.563 551.777, 554.250 551.361 C 572.767 540.148, 618.210 507.739, 617.729 506.089 C 617.437 505.090, 629.915 494.582, 630.591 495.257 C 630.867 495.534, 628.882 497.384, 626.179 499.368 C 623.476 501.352, 620.643 503.755, 619.882 504.707 C 619.122 505.660, 621.312 504.249, 624.750 501.572 C 631.035 496.678, 635.117 492.685, 632 494.480 C 631.063 495.020, 631.214 494.529, 632.405 493.172 C 634.665 490.595, 636.859 490.218, 634.872 492.748 C 634.118 493.710, 636.313 492.090, 639.750 489.149 C 643.188 486.208, 646 483.567, 646 483.279 C 646 482.991, 645.212 483.356, 644.250 484.089 C 643.288 484.823, 643.822 483.978, 645.437 482.212 C 648.732 478.609, 651.375 477.746, 648.405 481.243 C 645.807 484.301, 653.871 477.122, 669.740 462.247 C 677.023 455.421, 683.929 448.410, 685.088 446.668 C 686.246 444.926, 683.436 447.325, 678.842 452 C 674.249 456.675, 668.017 462.727, 664.995 465.448 C 661.973 468.170, 665.569 464.232, 672.986 456.698 C 680.403 449.164, 686.960 443, 687.557 443 C 688.153 443, 693.228 446.871, 698.834 451.602 C 705.227 456.998, 709.580 459.991, 710.513 459.633 C 711.331 459.320, 712 459.499, 712 460.031 C 712 462.598, 707.582 460.373, 700.518 454.250 C 691.373 446.322, 688 443.648, 688 444.325 C 688 444.596, 692.602 448.701, 698.226 453.448 C 708.962 462.510, 712.793 464.030, 712.211 458.997 C 711.895 456.259, 712.624 452.673, 720.551 418 C 727.204 388.897, 734 358.738, 734 358.316 C 734 357.558, 730.225 358.283, 727.118 359.638 M 230.948 368.103 C 228.707 372.560, 227.035 376.368, 227.233 376.566 C 227.430 376.763, 229.480 373.117, 231.788 368.462 C 234.097 363.808, 235.769 360, 235.504 360 C 235.239 360, 233.189 363.647, 230.948 368.103 M 188.133 369.133 C 186.949 371.983, 186.145 374.479, 186.347 374.680 C 186.549 374.882, 187.683 372.716, 188.867 369.867 C 190.051 367.017, 190.855 364.521, 190.653 364.320 C 190.451 364.118, 189.317 366.284, 188.133 369.133 M 595 371 C 593.334 374.300, 592.196 377, 592.471 377 C 592.746 377, 594.334 374.300, 596 371 C 597.666 367.700, 598.804 365, 598.529 365 C 598.254 365, 596.666 367.700, 595 371 M 322.468 373.500 C 324.007 376.250, 325.730 378.950, 326.298 379.500 C 326.865 380.050, 326.070 378.250, 324.532 375.500 C 322.993 372.750, 321.270 370.050, 320.702 369.500 C 320.135 368.950, 320.930 370.750, 322.468 373.500 M 504.534 371.934 C 501.558 377.690, 491.791 387.047, 484.594 391.039 C 480.692 393.203, 477.907 394.980, 478.404 394.987 C 481.225 395.028, 492.525 387.193, 497.840 381.511 C 503.271 375.706, 507.940 369, 506.551 369 C 506.276 369, 505.369 370.320, 504.534 371.934 M 413.558 373.724 C 414.571 375.497, 417.160 378.872, 419.310 381.224 C 423.772 386.104, 423.112 384.761, 417.479 377.500 C 412.227 370.730, 411.383 369.917, 413.558 373.724 M 678.252 378.705 C 673.716 380.703, 670.175 382.509, 670.384 382.718 C 670.824 383.157, 685.030 377.065, 686.450 375.828 C 687.955 374.517, 687.015 374.847, 678.252 378.705 M 221.579 388.579 C 220.111 392.245, 219.080 395.414, 219.288 395.621 C 219.495 395.828, 220.858 392.991, 222.316 389.316 C 223.774 385.641, 224.805 382.472, 224.607 382.274 C 224.409 382.076, 223.046 384.913, 221.579 388.579 M 179.104 393.189 C 177.397 398.313, 176.034 402.954, 176.076 403.502 C 176.118 404.051, 177.687 400.032, 179.565 394.572 C 181.442 389.112, 182.804 384.471, 182.592 384.259 C 182.380 384.047, 180.810 388.066, 179.104 393.189 M 659.500 387 C 656.200 388.566, 653.950 389.859, 654.500 389.874 C 655.050 389.889, 658.200 388.612, 661.500 387.037 C 664.800 385.461, 667.050 384.167, 666.500 384.162 C 665.950 384.157, 662.800 385.434, 659.500 387 M 425.469 386.966 C 427.348 389.042, 435.951 394.441, 436.420 393.838 C 436.565 393.652, 433.749 391.576, 430.163 389.224 C 426.578 386.873, 424.465 385.856, 425.469 386.966 M 642.250 394.552 C 638.263 396.415, 635 398.458, 635 399.092 C 635 399.934, 635.395 399.917, 636.464 399.030 C 637.270 398.361, 640.982 396.315, 644.714 394.482 C 653.594 390.121, 651.612 390.178, 642.250 394.552 M 725.579 400.579 C 724.600 404.733, 723.988 408.321, 724.219 408.553 C 724.451 408.784, 725.442 405.575, 726.421 401.421 C 727.400 397.267, 728.012 393.679, 727.781 393.447 C 727.549 393.216, 726.558 396.425, 725.579 400.579 M 440.691 395.489 C 442.446 396.297, 445.821 397.191, 448.191 397.477 L 452.500 397.998 447.500 396.672 C 444.750 395.944, 441.375 395.049, 440 394.684 C 438.271 394.225, 438.484 394.473, 440.691 395.489 M 470.825 396.508 C 470.545 396.788, 466.308 397.439, 461.408 397.956 L 452.500 398.895 461 398.511 C 468.259 398.183, 477.655 396.253, 472.917 396.063 C 472.046 396.029, 471.105 396.229, 470.825 396.508 M 431 407.910 C 432.873 409.282, 444.636 413.019, 446.855 412.946 C 447.760 412.917, 445.125 411.858, 441 410.594 C 436.875 409.329, 432.600 407.961, 431.500 407.553 C 429.886 406.955, 429.790 407.024, 431 407.910 M 648 410.966 C 650.475 413.246, 653.850 416.029, 655.500 417.151 C 658.074 418.901, 658.003 418.748, 655 416.073 C 653.075 414.358, 649.700 411.575, 647.500 409.888 C 643.682 406.961, 643.704 407.009, 648 410.966 M 718.600 431.100 C 717.643 435.552, 717.050 439.384, 717.282 439.615 C 717.513 439.847, 718.489 436.397, 719.450 431.950 C 720.411 427.503, 721.004 423.671, 720.768 423.435 C 720.532 423.199, 719.557 426.648, 718.600 431.100 M 559.206 432.250 C 553.119 442.559, 551.812 445, 552.377 445 C 552.624 445, 554.960 441.288, 557.569 436.750 C 560.178 432.212, 562.969 427.488, 563.771 426.250 C 564.574 425.012, 564.971 424, 564.654 424 C 564.337 424, 561.885 427.712, 559.206 432.250 M 207.099 433.806 C 205.945 438.724, 205.042 443.367, 205.094 444.124 C 205.146 444.881, 206.274 441.041, 207.602 435.591 C 208.929 430.141, 209.831 425.498, 209.607 425.273 C 209.382 425.049, 208.254 428.889, 207.099 433.806 M 641.500 438.649 C 634.350 445.551, 623.664 455.279, 617.753 460.268 C 611.841 465.257, 607.213 469.547, 607.468 469.801 C 608.170 470.504, 631.160 449.996, 654.472 427.872 C 655.557 426.842, 656.007 426.023, 655.472 426.050 C 654.938 426.078, 648.650 431.747, 641.500 438.649 M 854.693 459.500 C 854.995 463.900, 855.413 467.688, 855.622 467.917 C 856.297 468.660, 855.875 460.624, 854.997 456 C 854.354 452.617, 854.279 453.486, 854.693 459.500 M 653.958 474.684 L 649.500 479.368 654.750 475.091 C 657.638 472.739, 660 470.631, 660 470.407 C 660 469.068, 657.866 470.579, 653.958 474.684 M 856.310 475.500 C 856.315 478.800, 856.502 480.029, 856.725 478.232 C 856.947 476.435, 856.943 473.735, 856.715 472.232 C 856.486 470.729, 856.304 472.200, 856.310 475.500 M 162.343 483.500 C 162.346 487.900, 162.522 489.576, 162.733 487.224 C 162.945 484.872, 162.942 481.272, 162.727 479.224 C 162.512 477.176, 162.339 479.100, 162.343 483.500 M 819.328 483.500 C 819.333 487.350, 819.513 488.802, 819.730 486.728 C 819.946 484.653, 819.943 481.503, 819.722 479.728 C 819.501 477.952, 819.324 479.650, 819.328 483.500 M 857.422 505 C 857.422 516.275, 857.568 520.888, 857.746 515.250 C 857.924 509.613, 857.924 500.387, 857.746 494.750 C 857.568 489.113, 857.422 493.725, 857.422 505 M 571 497.626 C 563.441 503.408, 557.710 508.336, 562 505.364 C 566.795 502.043, 580 491.839, 580 491.455 C 580 490.743, 579.976 490.759, 571 497.626 M 199.397 506 C 199.397 513.975, 199.553 517.237, 199.743 513.250 C 199.932 509.262, 199.932 502.738, 199.743 498.750 C 199.553 494.762, 199.397 498.025, 199.397 506 M 820.395 505.500 C 820.396 513.200, 820.553 516.218, 820.743 512.206 C 820.934 508.195, 820.932 501.895, 820.741 498.206 C 820.549 494.518, 820.393 497.800, 820.395 505.500 M 664.223 494.557 L 662 496.113 662 632.017 C 662 739.501, 661.739 768.146, 660.750 768.995 C 660.063 769.585, 658.600 770.768, 657.500 771.624 C 656.318 772.543, 656.931 772.404, 659 771.283 L 662.500 769.388 663 632.657 C 663.439 512.573, 663.683 495.811, 665 494.979 C 665.869 494.429, 681.030 494.024, 701.059 494.015 C 738.008 493.999, 738.433 494.054, 739.293 499 C 739.726 501.491, 739.728 501.490, 739.864 498.807 C 740.149 493.168, 739.023 493, 701 493 C 671.344 493, 666.130 493.221, 664.223 494.557 M 161.320 505 C 161.320 508.575, 161.502 510.038, 161.723 508.250 C 161.945 506.462, 161.945 503.538, 161.723 501.750 C 161.502 499.962, 161.320 501.425, 161.320 505 M 552.077 511.514 C 547.995 514.501, 544.170 517.471, 543.577 518.114 C 542.263 519.541, 553.517 511.781, 557.581 508.458 C 562.730 504.249, 559.729 505.915, 552.077 511.514 M 381.423 527.500 C 381.424 539.050, 381.570 543.638, 381.747 537.696 C 381.924 531.753, 381.923 522.303, 381.745 516.696 C 381.567 511.088, 381.422 515.950, 381.423 527.500 M 508.305 521.838 C 496.062 530.708, 495.214 531.903, 506.790 523.973 C 514.553 518.655, 519.475 514.709, 517.872 515.088 C 517.668 515.136, 513.362 518.174, 508.305 521.838 M 162.336 525 C 162.336 529.125, 162.513 530.813, 162.728 528.750 C 162.944 526.688, 162.944 523.313, 162.728 521.250 C 162.513 519.188, 162.336 520.875, 162.336 525 M 525.573 530.079 C 513.435 538.475, 509.509 541.416, 513 539.496 C 518.993 536.200, 540.807 520.625, 538.809 521.069 C 538.639 521.106, 532.683 525.161, 525.573 530.079 M 200.320 528 C 200.320 531.575, 200.502 533.038, 200.723 531.250 C 200.945 529.462, 200.945 526.538, 200.723 524.750 C 200.502 522.962, 200.320 524.425, 200.320 528 M 492 533.052 C 489.525 534.726, 484.462 537.894, 480.750 540.092 C 477.038 542.290, 474 544.330, 474 544.626 C 474 545.265, 478.690 542.531, 489.250 535.735 C 495.947 531.425, 497.831 529.986, 496.750 530.004 C 496.613 530.007, 494.475 531.378, 492 533.052 M 201.058 538.083 C 201.089 539.962, 201.511 543.300, 201.996 545.500 C 202.672 548.574, 202.746 547.880, 202.315 542.500 C 201.718 535.050, 200.962 532.394, 201.058 538.083 M 816.538 547.538 C 816.152 550.635, 816.043 553.376, 816.297 553.630 C 816.550 553.884, 817.075 551.558, 817.462 548.462 C 817.848 545.365, 817.957 542.624, 817.703 542.370 C 817.450 542.116, 816.925 544.442, 816.538 547.538 M 467.250 548.105 C 464.363 549.788, 462 551.396, 462 551.678 C 462 552.233, 470.893 547.288, 472.450 545.867 C 474.145 544.320, 472.605 544.983, 467.250 548.105 M 494.798 550.311 C 488.743 554.160, 484.243 557.582, 488 555.482 C 492.056 553.215, 502 546.771, 502 546.410 C 502 545.751, 501.821 545.848, 494.798 550.311 M 853.150 556.650 C 852.467 561.375, 852.103 565.437, 852.342 565.676 C 852.581 565.914, 853.350 562.258, 854.050 557.550 C 854.750 552.842, 855.114 548.781, 854.858 548.524 C 854.602 548.268, 853.833 551.925, 853.150 556.650 M 165.233 554.500 C 165.235 556.150, 165.580 558.850, 166 560.500 C 167.058 564.659, 167.105 560.566, 166.057 555.500 C 165.362 552.137, 165.231 551.978, 165.233 554.500 M 547.500 554.565 C 545.300 555.942, 536.862 560.922, 528.750 565.632 C 520.638 570.342, 514 574.410, 514 574.671 C 514 574.933, 516.587 573.695, 519.750 571.920 C 530.172 566.071, 552 552.885, 552 552.438 C 552 551.778, 551.815 551.866, 547.500 554.565 M 479.227 559.892 C 471.321 564.707, 469.811 566.239, 476.751 562.403 C 481.827 559.597, 487.025 556.031, 486 556.058 C 485.725 556.065, 482.677 557.790, 479.227 559.892 M 438.750 563.563 C 435.038 565.469, 432 567.252, 432 567.526 C 432 567.801, 435.150 566.439, 439 564.500 C 442.850 562.561, 446 560.756, 446 560.487 C 446 559.817, 446.280 559.698, 438.750 563.563 M 205.104 563.500 C 205.068 564.600, 205.665 567.750, 206.430 570.500 C 208.237 576.995, 208.329 574.157, 206.543 567 C 205.788 563.975, 205.141 562.400, 205.104 563.500 M 421.750 571.064 C 418.587 572.696, 416 574.256, 416 574.530 C 416 574.977, 427.900 569.312, 428.917 568.381 C 430.226 567.183, 426.745 568.486, 421.750 571.064 M 504.750 579.064 C 501.587 580.696, 499 582.256, 499 582.530 C 499 582.805, 501.700 581.666, 505 580 C 508.300 578.334, 511 576.753, 511 576.486 C 511 575.819, 511.185 575.742, 504.750 579.064 M 420 592.500 C 409.825 597.667, 401.842 601.918, 402.261 601.947 C 403.322 602.021, 439 584.102, 439 583.495 C 439 582.806, 440.359 582.162, 420 592.500 M 845.706 591.706 C 844.754 595.337, 844.150 598.483, 844.364 598.698 C 844.579 598.912, 845.553 596.136, 846.529 592.529 C 847.506 588.922, 848.109 585.776, 847.871 585.538 C 847.633 585.299, 846.658 588.075, 845.706 591.706 M 373.489 590.067 C 373.111 592.304, 373.054 594.387, 373.363 594.696 C 373.671 595.005, 376.871 594.005, 380.474 592.474 C 384.076 590.943, 386.822 589.489, 386.576 589.242 C 386.330 588.996, 383.570 589.966, 380.443 591.397 C 377.317 592.829, 374.548 594, 374.291 594 C 374.034 594, 374.128 592.200, 374.500 590 C 374.872 587.800, 374.951 586, 374.676 586 C 374.401 586, 373.867 587.830, 373.489 590.067 M 474 595 C 470.975 596.598, 468.852 597.927, 469.283 597.953 C 470.346 598.017, 480 593.090, 480 592.483 C 480 591.815, 480.139 591.757, 474 595 M 454.500 603.972 C 450.100 606.092, 446.789 607.866, 447.142 607.913 C 447.495 607.961, 451.545 606.234, 456.142 604.076 C 460.739 601.918, 464.050 600.145, 463.500 600.135 C 462.950 600.126, 458.900 601.853, 454.500 603.972 M 840.231 609.731 C 838.482 615.040, 837.218 619.551, 837.422 619.755 C 837.626 619.959, 839.236 615.794, 841 610.500 C 842.764 605.206, 844.028 600.694, 843.809 600.475 C 843.590 600.256, 841.980 604.421, 840.231 609.731 M 364.291 617.314 C 355.925 620.669, 349.250 623.583, 349.457 623.790 C 349.899 624.232, 381 612.034, 381 611.419 C 381 610.673, 379.723 611.124, 364.291 617.314 M 430.500 614.478 C 427.750 615.774, 425.950 616.843, 426.500 616.855 C 427.050 616.867, 429.750 615.817, 432.500 614.522 C 435.250 613.226, 437.050 612.157, 436.500 612.145 C 435.950 612.133, 433.250 613.183, 430.500 614.478 M 532.752 689.845 C 532.891 727.055, 533.124 769.200, 533.270 783.500 C 533.415 797.800, 533.632 767.875, 533.752 717 C 533.872 666.125, 533.639 623.980, 533.235 623.345 C 532.831 622.709, 532.614 652.634, 532.752 689.845 M 792.695 627.550 C 789.023 635.036, 789.362 635.923, 793.115 628.650 C 794.775 625.432, 795.966 622.633, 795.761 622.428 C 795.557 622.223, 794.177 624.528, 792.695 627.550 M 225 625.352 C 225 626.440, 234.964 646, 235.518 646 C 235.966 646, 226.325 626.101, 225.385 625.083 C 225.173 624.854, 225 624.975, 225 625.352 M 393.688 628.183 C 390.491 629.297, 388.050 630.383, 388.264 630.597 C 388.719 631.052, 401 627.012, 401 626.408 C 401 625.756, 399.859 626.033, 393.688 628.183 M 323 632.500 C 316.125 634.888, 310.971 636.878, 311.547 636.921 C 312.784 637.014, 336.059 629.274, 336.815 628.518 C 337.839 627.495, 335.310 628.223, 323 632.500 M 830.200 636.200 C 829.002 639.035, 828.181 641.514, 828.375 641.708 C 828.569 641.902, 829.720 639.753, 830.933 636.933 C 832.147 634.113, 832.968 631.635, 832.759 631.425 C 832.549 631.216, 831.398 633.365, 830.200 636.200 M 191 642.349 C 191 643.438, 202.963 667, 203.515 667 C 203.963 667, 192.329 643.100, 191.386 642.083 C 191.174 641.854, 191 641.974, 191 642.349 M 822.214 653.541 C 819.353 659.293, 817.230 664, 817.497 664 C 818.161 664, 828.212 643.879, 827.769 643.436 C 827.575 643.241, 825.074 647.788, 822.214 653.541 M 243.028 659.500 C 246.494 665.403, 254.992 678, 255.508 678 C 256.033 678, 243.150 657.970, 241.680 656.500 C 241.130 655.950, 241.737 657.300, 243.028 659.500 M 775.366 660.250 C 774.952 660.938, 773.112 663.862, 771.276 666.750 C 769.440 669.638, 768.164 672, 768.439 672 C 768.714 672, 770.440 669.638, 772.276 666.750 C 776.982 659.347, 777.177 659, 776.618 659 C 776.343 659, 775.780 659.563, 775.366 660.250 M 355.980 669.553 C 355.377 671.138, 355.089 690.673, 355.231 720.315 L 355.463 768.500 355.981 719.500 C 356.267 692.550, 356.864 669.938, 357.309 669.250 C 357.931 668.290, 366.164 668, 392.859 668 C 419.278 668, 427.917 668.299, 428.925 669.250 C 429.994 670.259, 430.162 670.211, 429.792 669 C 429.398 667.709, 424.288 667.463, 393.147 667.238 L 356.960 666.975 355.980 669.553 M 752.359 692.623 C 744.774 701.911, 740.509 707.574, 742.661 705.500 C 745.786 702.488, 761.404 683, 760.693 683 C 760.432 683, 756.682 687.331, 752.359 692.623 M 774.487 724.080 C 770.274 729.074, 767.018 733.351, 767.252 733.585 C 767.486 733.820, 770.575 730.521, 774.115 726.256 C 782.333 716.354, 783.366 715, 782.696 715 C 782.394 715, 778.700 719.086, 774.487 724.080 M 321.220 746.645 C 322.166 747.715, 326.441 751.001, 330.720 753.947 C 340.596 760.747, 339.090 759.081, 328 750.940 C 323.325 747.508, 320.274 745.576, 321.220 746.645 M 284 765.463 C 284 766.753, 314.033 789.302, 320 792.492 C 323.084 794.140, 319.345 791.232, 311 785.492 C 306.325 782.277, 298.337 776.342, 293.250 772.304 C 288.163 768.266, 284 765.188, 284 765.463 M 337.500 802.844 C 338.880 804.238, 362.026 816.311, 362.458 815.862 C 362.650 815.663, 356.888 812.425, 349.654 808.667 C 342.419 804.909, 336.950 802.289, 337.500 802.844 M 665 811 C 658.675 814.243, 653.845 816.920, 654.267 816.948 C 655.329 817.020, 677 806.099, 677 805.492 C 677 804.809, 677.706 804.485, 665 811 M 546.500 807 L 542.500 807.716 546 807.740 C 547.925 807.753, 550.850 807.420, 552.500 807 C 555.151 806.326, 555.209 806.239, 553 806.260 C 551.625 806.273, 548.700 806.606, 546.500 807 M 377.879 822.522 C 380.838 823.926, 383.444 824.889, 383.671 824.662 C 383.898 824.436, 382.152 823.470, 379.791 822.515 C 372.949 819.749, 372.043 819.752, 377.879 822.522 M 623.500 828.513 C 618.550 830.371, 615.032 831.916, 615.682 831.946 C 616.915 832.002, 633.118 826.215, 633.891 825.443 C 634.866 824.468, 632.085 825.289, 623.500 828.513 M 410.500 833.999 C 413.800 835.070, 417.850 836.173, 419.500 836.449 C 421.150 836.724, 419.800 836.073, 416.500 835.001 C 413.200 833.930, 409.150 832.827, 407.500 832.551 C 405.850 832.276, 407.200 832.927, 410.500 833.999 M 595 837.078 C 591.425 838.115, 590.107 838.741, 592.072 838.470 C 596.217 837.897, 605.223 835.199, 603 835.196 C 602.175 835.194, 598.575 836.042, 595 837.078 M 427.500 838.570 C 430.250 839.335, 433.400 839.932, 434.500 839.896 C 435.600 839.859, 434.025 839.212, 431 838.457 C 423.843 836.671, 421.005 836.763, 427.500 838.570 M 537.500 846 L 531.500 846.664 537.750 846.832 C 541.362 846.929, 544 846.578, 544 846 C 544 845.450, 543.888 845.076, 543.750 845.168 C 543.612 845.261, 540.800 845.635, 537.500 846 M 479.728 846.722 C 481.503 846.943, 484.653 846.946, 486.728 846.730 C 488.802 846.513, 487.350 846.333, 483.500 846.328 C 479.650 846.324, 477.952 846.501, 479.728 846.722 M 500.750 847.746 C 506.387 847.924, 515.612 847.924, 521.250 847.746 C 526.888 847.568, 522.275 847.422, 511 847.422 C 499.725 847.422, 495.113 847.568, 500.750 847.746" stroke="none" fill="#1c54ca" fill-rule="evenodd"/></svg>