<svg xmlns="http://www.w3.org/2000/svg" width="1024" height="1024" viewBox="0 0 1024 1024" version="1.1"><path d="M 487 223.039 C 455.778 224.604, 421.802 232.789, 389.309 246.573 C 349.304 263.544, 310.313 292.399, 282.657 325.500 C 237.811 379.176, 214.989 446.763, 217.319 519 C 218.497 555.517, 224.127 583.665, 236.620 615.500 C 253.382 658.211, 280.633 696.565, 316.500 727.924 C 359.678 765.675, 408.467 788.042, 466.500 796.692 C 484.692 799.403, 525.355 799.104, 544.893 796.115 C 608.786 786.340, 664.941 757.519, 710.036 711.357 C 747.001 673.517, 771.118 630.464, 784.538 578.356 C 790.892 553.688, 792.412 540.138, 792.434 508 C 792.451 483.441, 792.138 477.369, 790.174 464.091 C 788.920 455.616, 787.301 447.264, 786.577 445.530 C 784.597 440.790, 777.515 435.200, 772.547 434.455 C 763.523 433.102, 754.395 438.611, 751.908 446.913 C 750.929 450.179, 751.090 453.018, 752.859 463.673 C 759.288 502.403, 757.575 538.741, 747.611 575 C 735.707 618.317, 714.904 654.130, 683.058 686.127 C 654.377 714.943, 619.946 736.428, 582.454 748.900 C 526.404 767.547, 464.924 765.731, 412.301 743.875 C 368.068 725.504, 331.677 697.303, 303.612 659.648 C 270.393 615.079, 254 565.466, 254 509.500 C 254 453.841, 270.472 403.778, 303.042 360.444 C 342.167 308.389, 397.792 274.421, 462.919 262.811 C 479.845 259.794, 520.790 259.539, 539.500 262.334 C 584.758 269.095, 627.997 287.884, 662.010 315.568 C 666.404 319.145, 670 321.735, 670 321.324 C 670 320.912, 668.763 319.533, 667.250 318.260 C 635.904 291.873, 594.601 271.905, 555.020 264.002 C 536.890 260.382, 522.099 259.008, 501.211 259.003 C 466.341 258.996, 436.999 265.075, 404.500 279.038 C 374.264 292.029, 352.671 306.564, 328.119 330.453 C 286.600 370.851, 261.649 420.831, 254.539 477.842 C 252.514 494.078, 252.522 525.424, 254.556 541.330 C 261.806 598.049, 286.445 647.835, 327.393 688.504 C 353.116 714.051, 376.952 730.165, 409.500 744.011 C 460.762 765.817, 521.311 768.904, 575.512 752.475 C 642.002 732.321, 699.953 683.988, 730.305 623.371 C 755.445 573.164, 763.993 514.879, 753.869 462.695 C 751.534 450.663, 751.819 447.237, 755.560 442.332 C 762.128 433.722, 773.877 432.990, 781.389 440.724 C 785.624 445.084, 786.381 447.217, 788.408 460.500 C 792.463 487.072, 792.936 523.386, 789.532 546.800 C 782.168 597.463, 762.682 644.337, 732.548 683.875 C 709.669 713.895, 678.733 740.989, 645.656 759.978 C 553.466 812.902, 438.929 809.883, 350.107 752.188 C 326.906 737.118, 293.164 705.891, 278.049 685.500 C 273.972 680, 269.452 673.925, 268.005 672 C 259.849 661.150, 245.179 634.056, 238.893 618.230 C 209.243 543.592, 211.579 459.077, 245.313 385.893 C 270.002 332.331, 316.757 284.364, 371.500 256.433 C 404.580 239.555, 441.258 228.476, 475.865 224.908 C 488.793 223.575, 529.626 224.208, 540 225.902 C 543.575 226.486, 549.875 227.475, 554 228.100 C 594.996 234.312, 646.532 256.573, 681 282.956 C 687.698 288.083, 695.099 292.794, 692.500 290.276 C 689.533 287.401, 673.238 275.747, 663.313 269.402 C 628.307 247.020, 588.436 232.002, 548.189 226.039 C 535.676 224.185, 508.322 221.814, 503.500 222.166 C 502.400 222.246, 494.975 222.639, 487 223.039 M 704.500 236.417 C 700.369 238.261, 696.154 242.977, 694.980 247.069 C 694.441 248.949, 694.061 259.715, 694.136 270.993 C 694.303 296.164, 694.834 294.412, 695.216 267.426 C 695.498 247.517, 695.522 247.320, 698.196 243.280 C 704.824 233.265, 720.223 233.819, 726.564 244.301 C 728.409 247.349, 728.500 249.814, 728.500 296.677 C 728.500 344.785, 728.455 345.913, 726.438 348.615 C 725.304 350.134, 723.134 352.304, 721.615 353.438 C 718.913 355.455, 717.781 355.500, 669.999 355.500 C 621.980 355.500, 621.098 355.464, 618.323 353.406 C 616.770 352.254, 614.469 349.554, 613.209 347.406 C 609.205 340.578, 611.842 331.141, 619 326.681 C 622.268 324.645, 624.094 324.463, 646.500 323.950 L 670.500 323.400 647 323.202 C 626.348 323.027, 623.084 323.215, 620.071 324.752 C 611.288 329.230, 607.543 340.487, 612.202 348.406 C 613.466 350.554, 615.770 353.254, 617.323 354.406 C 620.100 356.466, 620.966 356.500, 670 356.500 C 718.792 356.500, 719.912 356.456, 722.615 354.438 C 724.134 353.304, 726.304 351.134, 727.438 349.616 C 729.443 346.932, 729.508 345.530, 729.801 299.178 C 729.966 272.955, 729.832 250.028, 729.501 248.229 C 728.812 244.472, 724.002 238.570, 719.901 236.449 C 716.424 234.651, 708.494 234.635, 704.500 236.417 M 530.970 389.250 C 524.543 392.497, 522 396.820, 522 404.498 C 522 409.747, 522.443 411.312, 524.884 414.681 C 528.598 419.808, 533.337 422.037, 540.151 421.863 L 545.500 421.726 539.184 421.009 C 529.215 419.877, 523.982 414.822, 523.215 405.585 C 522.833 400.974, 523.177 399.374, 525.342 395.680 C 529.507 388.572, 529.928 388.500, 567.545 388.500 C 604.219 388.500, 603.858 388.439, 608.044 395.304 C 609.875 398.307, 609.993 400.564, 609.996 432.602 C 610 466.337, 609.976 466.741, 607.742 470.102 C 605.091 474.091, 597.948 478, 593.308 478 C 588.342 478, 582.233 475.135, 579.738 471.636 C 578.023 469.232, 577.241 466.050, 576.385 458 L 575.270 447.500 575.140 455.500 C 574.977 465.612, 576.143 469.781, 580.240 473.733 C 586.259 479.539, 594.330 480.659, 601.980 476.750 C 610.743 472.272, 610.462 473.667, 610.785 433.129 L 611.071 397.401 608.785 394.052 C 604.067 387.139, 603.254 387, 567.477 387 C 536.223 387, 535.313 387.056, 530.970 389.250 M 525.500 442.607 C 515.050 452.813, 505.458 461.576, 504.185 462.082 C 502.912 462.587, 489.412 463.019, 474.185 463.042 C 449.743 463.079, 446.114 463.290, 443.204 464.841 C 438.357 467.426, 367.413 537.610, 365.436 541.777 C 359.564 554.149, 366.479 566.265, 380.221 567.683 C 389.866 568.679, 391.456 567.486, 425.982 533.359 C 443.152 516.386, 458.168 501.953, 459.350 501.285 C 460.889 500.416, 469.394 500.061, 489.282 500.035 C 511.937 500.007, 517.742 499.717, 520.738 498.465 C 523.091 497.482, 533.235 488.139, 548.956 472.477 C 562.455 459.027, 573.086 448.018, 572.581 448.012 C 572.075 448.005, 560.330 459.250, 546.480 473 C 532.051 487.325, 520.488 498.030, 519.400 498.070 C 518.355 498.109, 505.125 498.323, 490 498.546 C 474.875 498.770, 461.375 499.220, 460 499.547 C 458.509 499.902, 444.792 512.797, 426 531.513 C 388.961 568.399, 387.337 569.500, 375.904 565.466 C 370.301 563.489, 367.451 560.749, 365.393 555.358 C 363.974 551.644, 363.914 550.332, 364.978 546.259 C 366.127 541.859, 369.012 538.718, 403.174 504.673 C 429.003 478.932, 441.388 467.273, 444.314 465.944 C 448.099 464.226, 451.145 464.042, 476.100 464.022 L 503.700 464 507.600 461.104 C 511.358 458.314, 545.986 423.973, 544.989 424.026 C 544.720 424.040, 535.950 432.401, 525.500 442.607 M 575.085 516.730 C 573.206 517.703, 570.844 520.068, 569.835 521.984 C 568.102 525.274, 568 529.646, 568 600.267 C 568 682.688, 567.807 680.083, 574.190 683.974 C 577.322 685.884, 579.167 685.993, 608.500 685.993 C 637.833 685.993, 639.678 685.884, 642.810 683.974 C 649.189 680.085, 649 682.616, 649 601 C 649 520.803, 649.156 523.175, 643.550 518 L 640.842 515.500 609.671 515.230 C 581.476 514.985, 578.174 515.128, 575.085 516.730 M 578.628 517.092 C 574.214 517.814, 571.420 520.198, 570.021 524.436 C 569.311 526.589, 569.054 551.884, 569.234 602.065 C 569.491 674.035, 569.565 676.596, 571.454 679.386 C 575.037 684.678, 577.221 685.001, 609.218 684.985 C 640.425 684.970, 641.596 684.806, 645.189 679.964 C 646.994 677.531, 647.069 674.301, 647.019 600.595 C 646.967 524.788, 646.939 523.723, 644.917 520.883 C 643.789 519.300, 641.885 517.769, 640.684 517.481 C 637.544 516.729, 582.945 516.386, 578.628 517.092 M 468.984 547.835 C 461.791 551.623, 462.003 549.557, 462.002 615.782 C 462 681.169, 461.907 680.144, 468.190 683.974 C 471.316 685.880, 473.170 685.993, 501.500 685.993 C 529.494 685.993, 531.714 685.862, 534.701 684.040 C 541.289 680.024, 541.074 682.467, 540.773 615.025 L 540.500 554.038 537.412 550.950 C 535.714 549.252, 532.564 547.454, 530.412 546.955 C 528.260 546.456, 514.343 546.037, 499.484 546.024 C 475.184 546.002, 472.119 546.184, 468.984 547.835 M 466.766 550.917 L 463.500 553.835 463.213 613.225 C 462.895 678.886, 462.877 678.662, 468.898 682.713 C 472.241 684.963, 472.757 685, 500.898 684.998 C 533.069 684.997, 534.915 684.651, 538.261 678 C 539.892 674.757, 540.003 670.126, 539.761 615 C 539.508 557.275, 539.440 555.420, 537.500 552.818 C 536.400 551.343, 534.466 549.656, 533.203 549.068 C 531.732 548.384, 519.959 548, 500.469 548 L 470.032 548 466.766 550.917 M 364.467 603.998 C 356.995 607.696, 357 607.675, 357.004 644.154 C 357.009 689.221, 353.969 686, 396.500 686 C 428.260 686, 430.399 685.647, 433.996 679.810 C 435.957 676.628, 436.025 675.217, 435.768 643.329 L 435.500 610.159 433 607.450 C 428.228 602.281, 426.337 602, 396.282 602.001 C 370.532 602.002, 368.205 602.148, 364.467 603.998 M 391.500 603.967 C 373.072 604.345, 364.848 604.873, 363.260 605.780 C 358.264 608.634, 358 610.566, 358.004 644.200 C 358.009 688.212, 355.100 685.261, 398.030 684.806 C 425.482 684.515, 426.992 684.400, 429.679 682.404 C 434.867 678.548, 434.969 677.821, 434.985 644.651 C 435.002 609.371, 434.850 608.558, 427.591 605.044 C 425.269 603.920, 422.048 603.098, 420.434 603.217 C 418.820 603.337, 405.800 603.674, 391.500 603.967" stroke="none" fill="#2a38b7" fill-rule="evenodd"/><path d="M 489.776 222.733 C 492.128 222.945, 495.728 222.942, 497.776 222.727 C 499.824 222.512, 497.900 222.339, 493.500 222.343 C 489.100 222.346, 487.424 222.522, 489.776 222.733 M 472.500 225.102 C 468.100 225.631, 457.801 227.410, 449.614 229.056 C 441.427 230.702, 433.777 231.817, 432.614 231.534 C 431.451 231.250, 431.119 231.296, 431.876 231.635 C 433.254 232.252, 397.399 244.990, 393.345 245.323 C 392.161 245.420, 391.367 245.785, 391.583 246.134 C 392.189 247.115, 386.259 249.278, 385.036 248.522 C 384.439 248.153, 384.074 248.267, 384.225 248.776 C 384.574 249.948, 357.029 264.136, 355.836 263.398 C 355.349 263.098, 355.074 263.391, 355.225 264.051 C 355.376 264.710, 354.875 265.477, 354.111 265.755 C 353.155 266.102, 352.971 265.829, 353.521 264.880 C 353.993 264.065, 353.948 263.841, 353.410 264.333 C 352.910 264.792, 352.500 265.654, 352.500 266.250 C 352.500 266.846, 351.875 267.542, 351.111 267.796 C 350.185 268.105, 349.986 267.831, 350.515 266.975 C 351.040 266.127, 350.912 265.937, 350.138 266.415 C 349.494 266.813, 349.212 267.535, 349.512 268.019 C 349.811 268.503, 349.173 269.372, 348.094 269.950 C 345.500 271.338, 344.723 271.276, 345.601 269.750 C 346.019 269.024, 345.939 268.849, 345.410 269.333 C 344.910 269.792, 344.500 270.654, 344.500 271.250 C 344.500 271.846, 343.875 272.542, 343.111 272.796 C 342.161 273.113, 341.974 272.823, 342.521 271.880 C 342.993 271.065, 342.948 270.841, 342.410 271.333 C 341.910 271.792, 341.500 272.654, 341.500 273.250 C 341.500 273.846, 340.875 274.542, 340.111 274.796 C 339.161 275.113, 338.974 274.823, 339.521 273.880 C 339.993 273.065, 339.948 272.841, 339.410 273.333 C 338.910 273.792, 338.500 274.654, 338.500 275.250 C 338.500 275.846, 337.875 276.542, 337.111 276.796 C 336.161 277.113, 335.974 276.823, 336.521 275.880 C 336.993 275.065, 336.948 274.841, 336.410 275.333 C 335.910 275.792, 335.493 276.467, 335.485 276.833 C 335.456 278.087, 333.883 280, 332.882 280 C 332.332 280, 332.206 279.438, 332.601 278.750 C 333.019 278.024, 332.939 277.849, 332.410 278.333 C 331.910 278.792, 331.493 279.467, 331.485 279.833 C 331.456 281.087, 329.883 283, 328.882 283 C 328.332 283, 328.203 282.480, 328.595 281.845 C 329.051 281.108, 328.868 280.963, 328.088 281.446 C 327.416 281.861, 327.123 282.456, 327.436 282.769 C 328.141 283.474, 325.047 287, 323.723 287 C 323.190 287, 323.373 286.212, 324.128 285.250 C 325.376 283.659, 325.339 283.626, 323.726 284.893 C 322.750 285.658, 322.192 286.525, 322.485 286.818 C 323.154 287.487, 318.989 292, 317.703 292 C 317.182 292, 317.365 291.212, 318.110 290.250 C 319.207 288.833, 319.039 288.864, 317.227 290.411 C 315.995 291.461, 315.220 292.553, 315.503 292.836 C 316.169 293.502, 311.959 298, 310.671 298 C 310.131 298, 310.544 296.988, 311.588 295.750 C 313.338 293.675, 313.275 293.686, 310.774 295.895 C 309.282 297.213, 308.249 298.594, 308.479 298.965 C 309.029 299.856, 288.563 320.230, 287.842 319.509 C 287.536 319.202, 286.658 319.750, 285.893 320.726 C 284.626 322.339, 284.659 322.376, 286.250 321.128 C 287.212 320.373, 288 320.182, 288 320.703 C 288 321.969, 283.492 326.159, 282.836 325.503 C 282.553 325.220, 281.461 325.968, 280.411 327.166 C 279.360 328.364, 279.063 329.015, 279.750 328.613 C 280.438 328.211, 281 328.303, 281 328.819 C 281 329.796, 278.132 332.500, 277.096 332.500 C 276.768 332.500, 276.624 332.873, 276.777 333.330 C 277.203 334.608, 269.935 344.078, 268.981 343.488 C 268.517 343.202, 267.813 343.494, 267.415 344.138 C 266.937 344.912, 267.127 345.040, 267.975 344.515 C 268.831 343.986, 269.105 344.185, 268.796 345.111 C 268.542 345.875, 267.846 346.500, 267.250 346.500 C 266.654 346.500, 265.792 346.910, 265.333 347.410 C 264.841 347.948, 265.065 347.993, 265.880 347.521 C 266.823 346.974, 267.113 347.161, 266.796 348.111 C 266.542 348.875, 265.846 349.500, 265.250 349.500 C 264.654 349.500, 263.792 349.910, 263.333 350.410 C 262.841 350.948, 263.065 350.993, 263.880 350.521 C 264.823 349.974, 265.113 350.161, 264.796 351.111 C 264.542 351.875, 263.846 352.500, 263.250 352.500 C 262.654 352.500, 261.792 352.910, 261.333 353.410 C 260.841 353.948, 261.065 353.993, 261.880 353.521 C 262.823 352.974, 263.113 353.161, 262.796 354.111 C 262.542 354.875, 261.846 355.500, 261.250 355.500 C 260.654 355.500, 259.792 355.910, 259.333 356.410 C 258.841 356.948, 259.065 356.993, 259.880 356.521 C 260.829 355.971, 261.102 356.155, 260.755 357.111 C 260.477 357.875, 259.710 358.376, 259.051 358.225 C 258.391 358.074, 258.128 358.399, 258.467 358.947 C 259.284 360.269, 251.073 375.163, 249.920 374.450 C 249.426 374.146, 249.319 374.668, 249.681 375.612 C 250.109 376.727, 249.954 377.090, 249.239 376.648 C 248.634 376.274, 247.813 376.494, 247.415 377.138 C 246.930 377.923, 247.128 378.039, 248.015 377.490 C 248.990 376.888, 249.163 377.134, 248.670 378.418 C 248.301 379.378, 248 380.378, 248 380.641 C 248 380.903, 247.555 380.843, 247.011 380.507 C 246.424 380.144, 246.290 380.593, 246.681 381.612 C 247.125 382.769, 246.962 383.095, 246.181 382.612 C 245.442 382.155, 245.224 382.421, 245.580 383.347 C 245.886 384.145, 245.039 386.981, 243.698 389.649 C 239.951 397.104, 232.565 417.348, 229.432 428.749 C 227.588 435.460, 226.315 438.566, 225.743 437.749 C 225.186 436.953, 225.090 437.288, 225.477 438.671 C 225.811 439.865, 225.185 445.328, 224.086 450.812 C 212.933 506.446, 217.742 563.700, 237.938 615.736 C 239.696 620.266, 240.810 624.498, 240.413 625.141 C 240.016 625.783, 240.121 626.043, 240.646 625.719 C 241.882 624.955, 254.264 649.764, 253.369 651.212 C 252.973 651.853, 253.150 652.026, 253.795 651.627 C 255.163 650.781, 257.353 654.619, 256.392 656.175 C 255.973 656.852, 256.136 657.034, 256.795 656.627 C 257.403 656.251, 258.372 656.827, 258.950 657.906 C 260.315 660.457, 260.280 661.291, 258.845 660.405 C 258.124 659.959, 257.963 660.131, 258.415 660.862 C 258.813 661.506, 259.519 661.797, 259.984 661.510 C 261.210 660.752, 265.275 667.746, 264.416 669.136 C 263.971 669.856, 264.123 670.042, 264.809 669.618 C 265.464 669.213, 267.383 670.910, 269.439 673.713 C 273.028 678.605, 273.903 680.676, 271.845 679.405 C 271.108 678.949, 270.963 679.132, 271.446 679.912 C 271.861 680.584, 272.451 680.882, 272.758 680.575 C 273.458 679.876, 276 681.919, 276 683.181 C 276 683.697, 275.480 683.797, 274.845 683.405 C 274.124 682.959, 273.963 683.131, 274.415 683.862 C 274.813 684.506, 275.518 684.798, 275.981 684.512 C 276.445 684.225, 278.214 685.745, 279.912 687.889 C 283.172 692.005, 283.824 693.600, 281.750 692.387 C 281.063 691.985, 281.360 692.636, 282.411 693.834 C 283.461 695.032, 284.550 695.784, 284.829 695.504 C 285.491 694.843, 289 698.018, 289 699.277 C 289 699.810, 288.213 699.644, 287.250 698.911 C 286.288 698.177, 286.806 699.006, 288.403 700.753 C 290 702.500, 291.606 703.744, 291.972 703.517 C 292.844 702.978, 314.233 724.434, 313.527 725.139 C 313.231 725.436, 313.968 726.539, 315.166 727.589 C 316.364 728.640, 317.015 728.938, 316.613 728.250 C 316.211 727.563, 316.289 727, 316.786 727 C 318 727, 321.138 730.528, 320.496 731.171 C 320.216 731.450, 320.968 732.539, 322.166 733.589 C 323.364 734.640, 324.015 734.938, 323.613 734.250 C 323.211 733.562, 323.289 733, 323.786 733 C 324.875 733, 328.569 736.944, 328.333 737.855 C 328.242 738.210, 328.426 738.725, 328.744 739 C 329.061 739.275, 328.997 738.938, 328.601 738.250 C 328.206 737.562, 328.332 737, 328.882 737 C 329.883 737, 331.456 738.913, 331.485 740.167 C 331.493 740.533, 331.910 741.208, 332.410 741.667 C 332.939 742.151, 333.019 741.976, 332.601 741.250 C 331.662 739.618, 333.639 739.618, 334.676 741.250 C 335.112 741.938, 335.476 742.800, 335.485 743.167 C 335.493 743.533, 335.910 744.208, 336.410 744.667 C 336.939 745.151, 337.019 744.976, 336.601 744.250 C 336.206 743.562, 336.332 743, 336.882 743 C 337.883 743, 339.456 744.913, 339.485 746.167 C 339.493 746.533, 339.910 747.208, 340.410 747.667 C 340.939 748.151, 341.019 747.976, 340.601 747.250 C 339.529 745.387, 341.544 745.739, 343.128 747.692 C 344.296 749.133, 344.292 749.258, 343.095 748.537 C 342.135 747.959, 341.920 748.061, 342.415 748.862 C 342.813 749.506, 343.548 749.779, 344.048 749.470 C 345.296 748.699, 349.187 750.888, 348.512 751.981 C 348.212 752.465, 348.494 753.187, 349.138 753.585 C 349.912 754.063, 350.040 753.873, 349.515 753.025 C 348.986 752.169, 349.185 751.895, 350.111 752.204 C 350.875 752.458, 351.500 753.154, 351.500 753.750 C 351.500 754.346, 351.910 755.208, 352.410 755.667 C 352.948 756.159, 352.993 755.935, 352.521 755.120 C 351.974 754.177, 352.161 753.887, 353.111 754.204 C 353.875 754.458, 354.500 755.154, 354.500 755.750 C 354.500 756.346, 354.910 757.208, 355.410 757.667 C 355.939 758.151, 356.019 757.976, 355.601 757.250 C 354.723 755.724, 355.500 755.662, 358.094 757.050 C 359.173 757.628, 359.749 758.597, 359.373 759.205 C 358.968 759.861, 359.148 760.027, 359.816 759.614 C 361.396 758.637, 367.228 761.822, 366.378 763.197 C 365.969 763.859, 366.145 764.029, 366.811 763.617 C 368.265 762.718, 376.254 766.781, 375.483 768.027 C 375.160 768.549, 375.502 768.745, 376.242 768.461 C 376.982 768.176, 381.843 769.920, 387.044 772.336 C 416.145 785.852, 449.377 794.324, 484.200 797.103 C 522.919 800.194, 569.746 793.164, 605.900 778.834 C 609.970 777.221, 613.931 776.143, 614.702 776.439 C 615.473 776.735, 615.872 776.602, 615.588 776.143 C 614.825 774.908, 624.568 770.615, 626.051 771.532 C 626.787 771.986, 627.058 771.903, 626.704 771.330 C 626.371 770.791, 628.113 769.372, 630.576 768.175 C 635.690 765.691, 636.402 765.540, 635.405 767.155 C 634.959 767.876, 635.131 768.037, 635.862 767.585 C 636.506 767.187, 636.726 766.366, 636.352 765.761 C 635.910 765.046, 636.273 764.891, 637.388 765.319 C 638.369 765.695, 638.853 765.570, 638.517 765.027 C 638.194 764.504, 639.727 763.159, 641.925 762.038 C 646.496 759.706, 647.411 759.526, 646.405 761.155 C 645.959 761.876, 646.131 762.037, 646.862 761.585 C 647.506 761.187, 647.788 760.465, 647.488 759.981 C 647.189 759.497, 647.827 758.628, 648.906 758.050 C 651.457 756.685, 652.291 756.720, 651.405 758.155 C 650.959 758.876, 651.131 759.037, 651.862 758.585 C 652.506 758.187, 652.788 757.465, 652.488 756.981 C 652.189 756.497, 652.827 755.628, 653.906 755.050 C 656.500 753.662, 657.277 753.724, 656.399 755.250 C 655.981 755.976, 656.061 756.151, 656.590 755.667 C 657.090 755.208, 657.500 754.346, 657.500 753.750 C 657.500 753.154, 658.125 752.458, 658.889 752.204 C 659.839 751.887, 660.026 752.177, 659.479 753.120 C 659.007 753.935, 659.052 754.159, 659.590 753.667 C 660.090 753.208, 660.500 752.346, 660.500 751.750 C 660.500 751.154, 661.125 750.458, 661.889 750.204 C 662.839 749.887, 663.026 750.177, 662.479 751.120 C 662.007 751.935, 662.052 752.159, 662.590 751.667 C 663.090 751.208, 663.500 750.346, 663.500 749.750 C 663.500 749.154, 664.125 748.458, 664.889 748.204 C 665.815 747.895, 666.014 748.169, 665.485 749.025 C 664.960 749.873, 665.088 750.063, 665.862 749.585 C 666.506 749.187, 666.795 748.477, 666.505 748.007 C 666.214 747.537, 667.289 746.219, 668.893 745.076 C 672.142 742.763, 673.482 742.411, 672.405 744.155 C 671.949 744.892, 672.132 745.037, 672.912 744.554 C 673.584 744.139, 673.882 743.549, 673.575 743.242 C 672.876 742.542, 674.919 740, 676.181 740 C 676.697 740, 676.797 740.520, 676.405 741.155 C 675.959 741.876, 676.131 742.037, 676.862 741.585 C 677.506 741.187, 677.798 740.482, 677.512 740.019 C 677.225 739.555, 678.745 737.786, 680.889 736.088 C 685.219 732.659, 686.960 732.076, 684.890 734.750 C 683.793 736.167, 683.961 736.136, 685.773 734.589 C 687.005 733.539, 687.784 732.450, 687.504 732.171 C 686.843 731.509, 690.018 728, 691.277 728 C 691.810 728, 691.627 728.788, 690.872 729.750 C 689.624 731.341, 689.661 731.374, 691.274 730.107 C 692.250 729.342, 692.800 728.466, 692.496 728.163 C 691.810 727.477, 704.070 715, 705.429 715 C 705.972 715, 704.416 717.138, 701.970 719.750 C 699.525 722.362, 702.356 719.783, 708.262 714.018 C 714.168 708.253, 719 703.327, 719 703.072 C 719 702.816, 717.425 704.134, 715.500 706 C 713.575 707.866, 712 708.948, 712 708.404 C 712 707.078, 720.479 698.812, 721.150 699.484 C 721.441 699.774, 722.539 699.005, 723.589 697.773 C 725.136 695.961, 725.167 695.793, 723.750 696.890 C 722.788 697.635, 722 697.818, 722 697.297 C 722 696.011, 726.513 691.846, 727.182 692.515 C 727.475 692.808, 728.342 692.276, 729.107 691.332 C 730.029 690.197, 730.077 689.870, 729.250 690.367 C 728.563 690.780, 728 690.697, 728 690.181 C 728 688.961, 730.532 686.865, 731.200 687.533 C 731.483 687.816, 732.342 687.250, 733.107 686.274 C 734.374 684.661, 734.341 684.624, 732.750 685.872 C 731.788 686.627, 731 686.795, 731 686.245 C 731 685.121, 734.072 682.317, 734.737 682.833 C 734.973 683.017, 735.467 682.832, 735.833 682.423 C 736.200 682.014, 735.938 682.003, 735.250 682.399 C 734.563 682.794, 734 682.697, 734 682.181 C 734 681.104, 737.093 678.333, 737.737 678.833 C 737.973 679.017, 738.467 678.832, 738.833 678.423 C 739.200 678.014, 738.938 678.003, 738.250 678.399 C 737.563 678.794, 737 678.697, 737 678.181 C 737 677.090, 739.123 675.171, 740.333 675.168 C 740.792 675.167, 741.467 674.832, 741.833 674.423 C 742.200 674.014, 741.879 674.039, 741.120 674.479 C 740.177 675.026, 739.887 674.839, 740.204 673.889 C 740.458 673.125, 741.154 672.500, 741.750 672.500 C 742.346 672.500, 743.208 672.090, 743.667 671.590 C 744.159 671.052, 743.935 671.007, 743.120 671.479 C 742.177 672.026, 741.887 671.839, 742.204 670.889 C 742.458 670.125, 743.154 669.500, 743.750 669.500 C 744.346 669.500, 745.208 669.090, 745.667 668.590 C 746.159 668.052, 745.935 668.007, 745.120 668.479 C 744.177 669.026, 743.887 668.839, 744.204 667.889 C 744.458 667.125, 745.154 666.500, 745.750 666.500 C 746.346 666.500, 747.208 666.090, 747.667 665.590 C 748.151 665.061, 747.976 664.981, 747.250 665.399 C 745.452 666.434, 745.704 665.215, 748.085 661.362 C 749.232 659.506, 750.652 658.285, 751.240 658.648 C 751.862 659.033, 752.018 658.838, 751.614 658.184 C 750.637 656.604, 753.822 650.772, 755.197 651.622 C 755.857 652.029, 756.029 651.856, 755.620 651.194 C 754.720 649.738, 760.776 637.743, 762.022 638.514 C 762.571 638.853, 762.697 638.374, 762.319 637.388 C 761.836 636.132, 762.015 635.891, 762.985 636.490 C 763.881 637.044, 764.071 636.924, 763.572 636.117 C 763.166 635.460, 765.064 629.894, 767.802 623.713 C 770.533 617.546, 774.945 605.885, 777.606 597.800 C 780.478 589.073, 782.759 583.587, 783.220 584.300 C 783.648 584.960, 783.735 583.925, 783.414 582 C 782.954 579.235, 783.073 578.815, 783.981 580 C 784.929 581.236, 785.025 581.120, 784.528 579.343 C 784.196 578.157, 784.858 572.604, 785.999 567.004 C 792.929 533, 793.773 495.661, 788.408 460.500 C 786.534 448.217, 785.487 444.751, 782.962 442.466 C 780.226 439.990, 780.491 438.261, 783.250 440.588 C 785.276 442.297, 785.259 442.213, 783.076 439.743 C 780.588 436.929, 779.339 436.121, 780.580 438.130 C 781.008 438.822, 780.740 439.064, 779.889 438.755 C 779.125 438.477, 778.624 437.710, 778.775 437.051 C 778.926 436.391, 778.674 436.084, 778.214 436.367 C 777.755 436.651, 775.557 436.421, 773.330 435.856 C 769.467 434.875, 766.075 435.329, 760.586 437.561 C 759.138 438.151, 758.871 438.018, 759.490 437.015 C 760.039 436.128, 759.923 435.930, 759.138 436.415 C 758.494 436.813, 758.189 437.497, 758.460 437.935 C 758.985 438.785, 755.119 442.729, 754.312 442.167 C 754.049 441.983, 753.533 442.168, 753.167 442.577 C 752.800 442.986, 753.121 442.961, 753.880 442.521 C 754.829 441.971, 755.102 442.155, 754.755 443.111 C 754.477 443.875, 753.790 444.403, 753.228 444.284 C 752.665 444.165, 752.423 445.065, 752.689 446.284 C 752.982 447.624, 752.843 448.045, 752.337 447.350 C 751.855 446.687, 751.492 448.920, 751.481 452.618 C 751.470 456.148, 751.736 458.253, 752.072 457.294 C 752.835 455.119, 755.723 471.062, 756.999 484.500 C 758.982 505.384, 757.593 533.268, 753.448 555.777 C 749.874 575.188, 738.119 610.810, 735.767 609.356 C 735.101 608.945, 734.984 609.164, 735.458 609.932 C 736.374 611.413, 733.094 619.176, 731.872 618.421 C 731.405 618.132, 731.319 618.668, 731.681 619.612 C 732.125 620.769, 731.962 621.095, 731.181 620.612 C 730.401 620.130, 730.238 620.456, 730.681 621.612 C 731.125 622.769, 730.962 623.095, 730.181 622.612 C 729.475 622.176, 729.211 622.404, 729.504 623.198 C 730.101 624.816, 721.517 640.579, 720.197 640.289 C 719.668 640.173, 719.295 640.848, 719.368 641.789 C 719.440 642.730, 718.904 643.376, 718.176 643.225 C 717.447 643.074, 717.131 643.402, 717.472 643.955 C 718.285 645.270, 716.160 649.217, 715.019 648.512 C 714.535 648.212, 713.813 648.494, 713.415 649.138 C 712.963 649.869, 713.124 650.041, 713.845 649.595 C 714.480 649.203, 715 649.303, 715 649.819 C 715 650.896, 711.907 653.667, 711.263 653.167 C 711.027 652.983, 710.533 653.168, 710.167 653.577 C 709.800 653.986, 710.063 653.997, 710.750 653.601 C 712.576 652.551, 712.283 653.794, 709.924 657.107 C 708.781 658.711, 707.463 659.786, 706.993 659.495 C 706.523 659.205, 705.813 659.494, 705.415 660.138 C 704.963 660.869, 705.124 661.041, 705.845 660.595 C 706.480 660.203, 707 660.303, 707 660.819 C 707 662.039, 704.468 664.135, 703.800 663.467 C 703.517 663.184, 702.658 663.750, 701.893 664.726 C 700.626 666.339, 700.659 666.376, 702.250 665.128 C 703.212 664.373, 704 664.190, 704 664.723 C 704 666.002, 700.486 669.152, 699.811 668.478 C 699.522 668.189, 698.658 668.750, 697.893 669.726 C 696.626 671.339, 696.659 671.376, 698.250 670.128 C 699.212 669.373, 700 669.182, 700 669.703 C 700 670.941, 695.499 675.166, 694.861 674.528 C 694.591 674.258, 692.599 675.938, 690.435 678.262 C 687.549 681.361, 687.367 681.706, 689.750 679.557 C 691.538 677.945, 693 677.057, 693 677.584 C 693 678.798, 675.772 696, 674.556 696 C 674.058 696, 674.736 694.763, 676.062 693.250 C 677.388 691.737, 676.566 692.279, 674.236 694.453 C 669.767 698.624, 668.430 700.624, 672.250 697.426 C 673.487 696.390, 672.949 697.221, 671.054 699.271 C 667.597 703.012, 664.570 704.531, 667.110 701.250 C 668.214 699.825, 668.050 699.854, 666.233 701.405 C 663.794 703.486, 663.269 704.546, 665.250 703.387 C 665.938 702.985, 665.643 703.634, 664.595 704.828 C 662.334 707.406, 660.143 707.781, 662.128 705.250 C 663.376 703.659, 663.339 703.626, 661.726 704.893 C 660.750 705.658, 660.184 706.517, 660.467 706.800 C 661.135 707.468, 659.039 710, 657.819 710 C 657.303 710, 657.203 709.480, 657.595 708.845 C 658.051 708.108, 657.868 707.963, 657.088 708.446 C 656.416 708.861, 656.118 709.451, 656.425 709.758 C 657.124 710.458, 655.081 713, 653.819 713 C 653.303 713, 653.203 712.480, 653.595 711.845 C 654.051 711.108, 653.868 710.963, 653.088 711.446 C 652.416 711.861, 652.118 712.451, 652.425 712.758 C 653.124 713.458, 651.081 716, 649.819 716 C 649.303 716, 649.206 715.438, 649.601 714.750 C 650.019 714.024, 649.939 713.849, 649.410 714.333 C 648.910 714.792, 648.500 715.654, 648.500 716.250 C 648.500 716.846, 647.875 717.542, 647.111 717.796 C 646.161 718.113, 645.974 717.823, 646.521 716.880 C 646.993 716.065, 646.948 715.841, 646.410 716.333 C 645.910 716.792, 645.500 717.654, 645.500 718.250 C 645.500 718.846, 644.875 719.542, 644.111 719.796 C 643.161 720.113, 642.974 719.823, 643.521 718.880 C 643.993 718.065, 643.948 717.841, 643.410 718.333 C 642.910 718.792, 642.500 719.654, 642.500 720.250 C 642.500 720.846, 641.875 721.542, 641.111 721.796 C 640.185 722.105, 639.986 721.831, 640.515 720.975 C 641.040 720.127, 640.912 719.937, 640.138 720.415 C 639.494 720.813, 639.212 721.535, 639.512 722.019 C 639.811 722.503, 639.173 723.372, 638.094 723.950 C 635.543 725.315, 634.709 725.280, 635.595 723.845 C 636.041 723.124, 635.869 722.963, 635.138 723.415 C 634.494 723.813, 634.214 724.538, 634.516 725.027 C 635.262 726.233, 629.227 729.259, 627.816 728.386 C 627.145 727.972, 626.968 728.140, 627.378 728.803 C 628.228 730.178, 622.396 733.363, 620.816 732.386 C 620.143 731.971, 619.968 732.140, 620.381 732.807 C 621.245 734.206, 613.385 738.362, 611.351 737.581 C 610.421 737.224, 610.155 737.441, 610.612 738.181 C 611.095 738.962, 610.769 739.125, 609.612 738.681 C 608.668 738.319, 608.136 738.410, 608.428 738.884 C 609.365 740.399, 592.810 747.232, 575.462 752.490 C 534.472 764.915, 490.464 766.197, 446.158 756.257 C 444.870 755.968, 444.281 755.444, 444.849 755.093 C 445.418 754.742, 444.221 754.435, 442.191 754.412 C 432.109 754.296, 380.622 733.038, 382.615 729.814 C 383.034 729.137, 382.859 728.969, 382.175 729.392 C 380.619 730.353, 376.781 728.163, 377.627 726.795 C 378.034 726.136, 377.852 725.973, 377.175 726.392 C 375.767 727.262, 371.743 725.225, 372.488 724.019 C 372.788 723.535, 372.506 722.813, 371.862 722.415 C 371.131 721.963, 370.959 722.124, 371.405 722.845 C 372.565 724.724, 370.721 724.175, 366.706 721.446 C 364.639 720.042, 363.192 718.498, 363.490 718.015 C 363.789 717.533, 363.506 716.813, 362.862 716.415 C 362.088 715.937, 361.960 716.127, 362.485 716.975 C 363.014 717.831, 362.815 718.105, 361.889 717.796 C 361.125 717.542, 360.500 716.846, 360.500 716.250 C 360.500 715.654, 360.090 714.792, 359.590 714.333 C 359.061 713.849, 358.981 714.024, 359.399 714.750 C 359.794 715.438, 359.697 716, 359.181 716 C 358.069 716, 356.209 713.909, 356.076 712.511 C 356.025 711.966, 355.200 711.516, 354.244 711.511 C 353.288 711.505, 352.504 710.975, 352.503 710.333 C 352.501 709.692, 352.090 708.792, 351.590 708.333 C 351.061 707.849, 350.981 708.024, 351.399 708.750 C 352.610 710.854, 350.428 710.138, 348.405 707.767 C 346.519 705.557, 346.520 705.549, 348.500 706.987 C 349.991 708.070, 349.883 707.747, 348.076 705.720 C 345.554 702.891, 343.818 701.871, 346 704.500 C 346.685 705.325, 346.818 706, 346.297 706 C 345.043 706, 340.838 701.495, 341.487 700.846 C 341.765 700.569, 340.770 699.252, 339.276 697.921 C 337.783 696.589, 337.165 696.288, 337.903 697.250 C 338.641 698.213, 338.837 699, 338.338 699 C 337.039 699, 326.839 688.494, 327.498 687.835 C 327.801 687.532, 327.362 686.716, 326.524 686.020 C 325.686 685.324, 325 685.132, 325 685.593 C 325 686.054, 322.525 683.987, 319.500 681 C 313.878 675.447, 311.783 671.697, 316.750 676.076 L 319.500 678.500 317.079 675.754 C 315.748 674.244, 314.435 673.232, 314.161 673.506 C 313.507 674.160, 310 670.971, 310 669.723 C 310 669.190, 310.788 669.365, 311.750 670.110 C 313.206 671.238, 313.184 671.094, 311.616 669.256 C 310.580 668.041, 309.393 667.257, 308.978 667.514 C 308.562 667.771, 307.047 666.440, 305.611 664.557 C 302.819 660.897, 302.283 659.439, 304.155 660.595 C 304.892 661.051, 305.037 660.868, 304.554 660.088 C 304.139 659.416, 303.549 659.118, 303.242 659.425 C 302.542 660.124, 300 658.081, 300 656.819 C 300 656.303, 300.563 656.206, 301.250 656.601 C 301.976 657.019, 302.151 656.939, 301.667 656.410 C 301.208 655.910, 300.308 655.489, 299.667 655.476 C 299.025 655.463, 298.567 654.645, 298.650 653.659 C 298.732 652.673, 298.549 652.118, 298.242 652.425 C 297.542 653.124, 295 651.081, 295 649.819 C 295 649.303, 295.520 649.203, 296.155 649.595 C 296.876 650.041, 297.037 649.869, 296.585 649.138 C 296.187 648.494, 295.366 648.274, 294.761 648.648 C 294.054 649.085, 293.887 648.737, 294.294 647.676 C 294.660 646.722, 294.468 646.125, 293.839 646.262 C 293.240 646.393, 292.523 645.875, 292.245 645.111 C 291.898 644.155, 292.171 643.971, 293.120 644.521 C 293.935 644.993, 294.159 644.948, 293.667 644.410 C 293.208 643.910, 292.346 643.500, 291.750 643.500 C 291.154 643.500, 290.458 642.875, 290.204 642.111 C 289.895 641.185, 290.169 640.986, 291.025 641.515 C 291.873 642.040, 292.063 641.912, 291.585 641.138 C 291.187 640.494, 290.465 640.212, 289.981 640.512 C 288.775 641.257, 286.738 637.233, 287.608 635.825 C 288.030 635.143, 287.863 634.966, 287.190 635.383 C 285.806 636.238, 280.628 626.410, 281.619 624.808 C 282.027 624.147, 281.858 623.970, 281.205 624.373 C 279.817 625.231, 277.651 621.351, 278.412 619.370 C 278.775 618.424, 278.562 618.152, 277.819 618.612 C 277.038 619.095, 276.875 618.769, 277.319 617.612 C 277.681 616.668, 277.594 616.133, 277.125 616.423 C 274.838 617.836, 262.960 584.817, 258.626 565 C 250.990 530.083, 250.955 488.581, 258.534 454.500 C 261.759 439.998, 262.163 438.645, 262.911 439.857 C 263.260 440.421, 263.568 439.221, 263.595 437.191 C 263.660 432.391, 268.915 417.829, 270.278 418.672 C 270.876 419.041, 271.007 418.820, 270.590 418.146 C 269.579 416.510, 270.916 412.830, 272.227 413.640 C 272.899 414.055, 273.018 413.838, 272.542 413.068 C 271.702 411.709, 274.856 403.793, 275.964 404.478 C 276.340 404.710, 276.615 403.910, 276.574 402.700 C 276.533 401.481, 277.042 400.606, 277.714 400.738 C 278.463 400.885, 278.685 400.343, 278.294 399.324 C 277.872 398.223, 278.047 397.911, 278.819 398.388 C 279.562 398.848, 279.775 398.576, 279.412 397.630 C 278.651 395.649, 280.817 391.769, 282.205 392.627 C 282.859 393.031, 283.027 392.852, 282.617 392.189 C 281.744 390.776, 285.763 382.735, 286.969 383.481 C 287.460 383.784, 288.187 383.506, 288.585 382.862 C 289.063 382.088, 288.873 381.960, 288.025 382.485 C 287.163 383.017, 286.907 382.821, 287.245 381.889 C 287.523 381.125, 288.290 380.624, 288.949 380.775 C 289.609 380.926, 289.869 380.598, 289.528 380.045 C 288.715 378.730, 290.840 374.783, 291.981 375.488 C 292.465 375.788, 293.187 375.506, 293.585 374.862 C 294.063 374.088, 293.873 373.960, 293.025 374.485 C 292.169 375.014, 291.895 374.815, 292.204 373.889 C 292.458 373.125, 293.154 372.500, 293.750 372.500 C 294.346 372.500, 295.208 372.090, 295.667 371.590 C 296.159 371.052, 295.935 371.007, 295.120 371.479 C 294.177 372.026, 293.887 371.839, 294.204 370.889 C 294.458 370.125, 295.154 369.500, 295.750 369.500 C 296.346 369.500, 297.208 369.090, 297.667 368.590 C 298.151 368.061, 297.976 367.981, 297.250 368.399 C 296.563 368.794, 296 368.697, 296 368.181 C 296 367.092, 299.180 364.258, 299.570 365 C 299.715 365.275, 300.208 365.090, 300.667 364.590 C 301.159 364.052, 300.935 364.007, 300.120 364.479 C 299.177 365.026, 298.887 364.839, 299.204 363.889 C 299.458 363.125, 300.154 362.500, 300.750 362.500 C 301.346 362.500, 302.208 362.090, 302.667 361.590 C 303.151 361.061, 302.976 360.981, 302.250 361.399 C 301.563 361.794, 301 361.697, 301 361.181 C 301 359.961, 303.532 357.865, 304.200 358.533 C 304.483 358.816, 305.342 358.276, 306.107 357.332 C 307.029 356.197, 307.077 355.870, 306.250 356.367 C 305.563 356.780, 305 356.697, 305 356.181 C 305 354.961, 307.532 352.865, 308.200 353.533 C 308.483 353.816, 309.342 353.276, 310.107 352.332 C 311.029 351.197, 311.077 350.870, 310.250 351.367 C 309.563 351.780, 309 351.697, 309 351.181 C 309 349.979, 311.527 347.861, 312.181 348.515 C 312.455 348.788, 313.539 347.997, 314.589 346.756 L 316.500 344.500 314.250 346.405 C 310.201 349.833, 311.892 346.523, 316.500 342 C 318.975 339.571, 321 338.002, 321 338.513 C 321 339.024, 323.913 336.555, 327.473 333.027 C 331.033 329.499, 333.726 326.393, 333.459 326.125 C 332.820 325.486, 338.089 320, 339.342 320 C 339.874 320, 339.456 321.012, 338.412 322.250 C 336.698 324.283, 336.779 324.266, 339.253 322.079 C 340.760 320.748, 341.765 319.431, 341.487 319.154 C 340.838 318.505, 345.043 314, 346.297 314 C 346.818 314, 346.627 314.788, 345.872 315.750 C 344.624 317.341, 344.661 317.374, 346.274 316.107 C 347.250 315.342, 347.816 314.483, 347.533 314.200 C 346.865 313.532, 348.961 311, 350.181 311 C 350.697 311, 350.780 311.563, 350.367 312.250 C 349.870 313.077, 350.197 313.029, 351.332 312.107 C 352.276 311.342, 352.816 310.483, 352.533 310.200 C 351.846 309.513, 353.977 307, 355.245 307 C 355.795 307, 355.627 307.788, 354.872 308.750 C 353.630 310.334, 353.665 310.370, 355.239 309.137 C 356.195 308.387, 356.744 307.394, 356.457 306.931 C 355.673 305.662, 360.718 302.716, 362.206 303.574 C 362.918 303.985, 363.166 303.952, 362.759 303.502 C 362.351 303.052, 362.519 302.080, 363.131 301.342 C 364.491 299.703, 366.399 299.546, 365.405 301.155 C 364.959 301.876, 365.131 302.037, 365.862 301.585 C 366.506 301.187, 366.786 300.462, 366.484 299.973 C 365.780 298.834, 371.733 295.717, 373.054 296.533 C 373.602 296.872, 373.926 296.609, 373.775 295.949 C 373.624 295.290, 374.125 294.523, 374.889 294.245 C 375.821 293.907, 376.017 294.163, 375.485 295.025 C 374.960 295.873, 375.088 296.063, 375.862 295.585 C 376.506 295.187, 376.786 294.462, 376.484 293.973 C 375.780 292.834, 381.733 289.717, 383.054 290.533 C 383.602 290.872, 383.926 290.553, 383.775 289.824 C 383.610 289.029, 384.375 288.529, 385.691 288.573 C 386.896 288.613, 387.796 288.163, 387.691 287.573 C 387.586 286.983, 388.490 286.533, 389.700 286.574 C 390.910 286.615, 391.683 286.296, 391.418 285.867 C 390.712 284.724, 396.924 281.757, 398.642 282.416 C 399.578 282.775, 399.846 282.560, 399.388 281.819 C 398.905 281.038, 399.231 280.875, 400.388 281.319 C 401.334 281.682, 401.850 281.566, 401.537 281.061 C 400.803 279.872, 404.627 278.651, 406.146 279.590 C 406.923 280.070, 407.037 279.869, 406.490 278.985 C 405.891 278.015, 406.132 277.836, 407.388 278.319 C 408.332 278.681, 408.855 278.575, 408.551 278.083 C 408.248 277.592, 411.712 275.859, 416.250 274.232 C 447.799 262.925, 469.711 258.997, 501.211 259.003 C 522.125 259.008, 536.916 260.384, 555 264.009 C 576.178 268.254, 604.806 277.887, 603.332 280.272 C 602.945 280.898, 603.182 281.005, 603.932 280.542 C 605.413 279.626, 613.176 282.906, 612.421 284.128 C 612.132 284.595, 612.668 284.681, 613.612 284.319 C 614.769 283.875, 615.095 284.038, 614.612 284.819 C 614.130 285.599, 614.456 285.762, 615.612 285.319 C 616.769 284.875, 617.095 285.038, 616.612 285.819 C 616.130 286.599, 616.456 286.762, 617.612 286.319 C 618.769 285.875, 619.095 286.038, 618.612 286.819 C 618.130 287.599, 618.456 287.762, 619.612 287.319 C 620.769 286.875, 621.095 287.038, 620.612 287.819 C 620.130 288.599, 620.456 288.762, 621.612 288.319 C 622.868 287.836, 623.109 288.015, 622.510 288.985 C 621.974 289.851, 622.078 290.070, 622.811 289.617 C 624.224 288.744, 632.265 292.763, 631.519 293.969 C 631.216 294.460, 631.494 295.187, 632.138 295.585 C 632.912 296.063, 633.040 295.873, 632.515 295.025 C 631.983 294.163, 632.179 293.907, 633.111 294.245 C 633.875 294.523, 634.376 295.290, 634.225 295.949 C 634.074 296.609, 634.402 296.869, 634.955 296.528 C 636.270 295.715, 640.217 297.840, 639.512 298.981 C 639.212 299.465, 639.494 300.187, 640.138 300.585 C 640.912 301.063, 641.040 300.873, 640.515 300.025 C 639.986 299.169, 640.185 298.895, 641.111 299.204 C 641.875 299.458, 642.500 300.154, 642.500 300.750 C 642.500 301.346, 642.910 302.208, 643.410 302.667 C 643.948 303.159, 643.993 302.935, 643.521 302.120 C 642.971 301.171, 643.155 300.898, 644.111 301.245 C 644.875 301.523, 645.376 302.290, 645.225 302.949 C 645.074 303.609, 645.431 303.851, 646.019 303.488 C 647.358 302.660, 652.260 305.770, 651.516 306.975 C 651.214 307.463, 651.494 308.187, 652.138 308.585 C 652.869 309.037, 653.041 308.876, 652.595 308.155 C 652.203 307.520, 652.332 307, 652.882 307 C 653.883 307, 655.456 308.913, 655.485 310.167 C 655.493 310.533, 655.910 311.208, 656.410 311.667 C 656.939 312.151, 657.019 311.976, 656.601 311.250 C 656.206 310.563, 656.303 310, 656.819 310 C 658.039 310, 660.135 312.532, 659.467 313.200 C 659.184 313.483, 659.750 314.342, 660.726 315.107 C 662.339 316.374, 662.376 316.341, 661.128 314.750 C 660.373 313.788, 660.182 313, 660.703 313 C 661.989 313, 666.154 317.513, 665.485 318.182 C 665.192 318.475, 665.724 319.342, 666.668 320.107 C 668.107 321.276, 668.250 321.278, 667.553 320.120 C 666.978 319.167, 667.151 318.882, 668.111 319.199 C 668.875 319.451, 669.640 320.604, 669.811 321.762 C 670.119 323.846, 669.869 323.871, 646.264 324.184 C 625.570 324.458, 622.052 324.732, 619.738 326.250 C 616.590 328.315, 615.606 328.473, 616.613 326.750 C 617.015 326.063, 616.366 326.357, 615.172 327.405 C 612.851 329.440, 612.266 330.571, 614.130 329.420 C 614.815 328.996, 615.077 329.268, 614.796 330.111 C 614.542 330.875, 613.846 331.500, 613.250 331.500 C 612.654 331.500, 611.792 331.910, 611.333 332.410 C 610.839 332.950, 611.078 332.985, 611.920 332.496 C 613.011 331.863, 613.174 332.104, 612.623 333.541 C 612.228 334.569, 611.684 337.230, 611.412 339.455 C 610.837 344.170, 613.722 349.993, 618.323 353.406 C 621.098 355.464, 621.980 355.500, 669.999 355.500 C 717.781 355.500, 718.913 355.455, 721.615 353.438 C 723.134 352.304, 725.304 350.134, 726.438 348.615 C 728.455 345.913, 728.500 344.785, 728.500 296.633 C 728.500 251.440, 728.357 247.193, 726.750 244.741 C 724.685 241.589, 724.528 240.606, 726.250 241.613 C 726.938 242.015, 726.643 241.366, 725.595 240.172 C 723.623 237.923, 722.418 237.249, 723.500 239 C 723.840 239.550, 723.697 240, 723.181 240 C 722.073 240, 719.838 237.497, 720.420 236.908 C 721.684 235.630, 708.700 236.098, 705.470 237.448 C 700.981 239.324, 700.682 239.347, 701.602 237.750 C 701.998 237.063, 701.125 237.591, 699.661 238.924 C 696.975 241.372, 696.157 242.639, 698 241.500 C 699.432 240.615, 699.235 241.712, 697.481 244.389 C 695.536 247.358, 695.106 252.537, 695.047 273.693 C 695.001 290.671, 694.974 290.880, 692.876 290.476 C 689.932 289.909, 685.826 287.090, 686.457 286.069 C 686.744 285.606, 686.195 284.613, 685.239 283.863 C 683.665 282.630, 683.630 282.666, 684.872 284.250 C 685.627 285.212, 685.795 286, 685.245 286 C 683.977 286, 681.846 283.487, 682.533 282.800 C 682.816 282.517, 682.250 281.658, 681.274 280.893 C 679.661 279.626, 679.624 279.659, 680.872 281.250 C 681.627 282.212, 681.795 283, 681.245 283 C 680.080 283, 678.212 280.943, 678.076 279.511 C 678.025 278.966, 677.200 278.516, 676.244 278.511 C 675.288 278.505, 674.504 277.975, 674.503 277.333 C 674.501 276.692, 674.090 275.792, 673.590 275.333 C 673.052 274.841, 673.007 275.065, 673.479 275.880 C 674.026 276.823, 673.839 277.113, 672.889 276.796 C 672.125 276.542, 671.500 275.846, 671.500 275.250 C 671.500 274.654, 671.090 273.792, 670.590 273.333 C 670.052 272.841, 670.007 273.065, 670.479 273.880 C 671.026 274.823, 670.839 275.113, 669.889 274.796 C 669.125 274.542, 668.500 273.846, 668.500 273.250 C 668.500 272.654, 668.090 271.792, 667.590 271.333 C 667.061 270.849, 666.981 271.024, 667.399 271.750 C 668.434 273.548, 667.215 273.296, 663.362 270.915 C 661.506 269.768, 660.223 268.449, 660.510 267.984 C 660.797 267.519, 660.506 266.813, 659.862 266.415 C 659.088 265.937, 658.960 266.127, 659.485 266.975 C 660.017 267.837, 659.821 268.093, 658.889 267.755 C 658.125 267.477, 657.624 266.710, 657.775 266.051 C 657.926 265.391, 657.598 265.131, 657.045 265.472 C 655.584 266.375, 651.822 264.097, 652.627 262.795 C 653.030 262.142, 652.853 261.973, 652.192 262.381 C 650.857 263.207, 640.712 258.274, 641.413 257.140 C 641.681 256.707, 640.910 256.385, 639.700 256.426 C 638.481 256.467, 637.606 255.958, 637.738 255.286 C 637.885 254.537, 637.343 254.315, 636.324 254.706 C 635.223 255.128, 634.911 254.953, 635.388 254.181 C 635.870 253.401, 635.544 253.238, 634.388 253.681 C 633.132 254.164, 632.891 253.985, 633.490 253.015 C 634.059 252.095, 633.925 251.928, 633.051 252.468 C 631.568 253.385, 621.825 249.092, 622.588 247.857 C 622.872 247.398, 622.484 247.261, 621.727 247.551 C 620.970 247.842, 618.134 247.111, 615.425 245.928 C 599.179 238.833, 571.154 230.699, 554 228.100 C 549.875 227.475, 543.575 226.478, 540 225.885 C 531.360 224.452, 482.617 223.886, 472.500 225.102 M 326.469 332.250 L 320.500 338.500 326.750 332.531 C 332.556 326.987, 333.458 326, 332.719 326 C 332.564 326, 329.751 328.813, 326.469 332.250 M 531.657 389.254 C 532.088 389.952, 531.715 390.105, 530.612 389.681 C 529.456 389.238, 529.130 389.401, 529.612 390.181 C 530.084 390.944, 529.785 391.131, 528.737 390.729 C 527.842 390.386, 526.568 390.833, 525.823 391.751 C 524.863 392.936, 524.843 393.178, 525.750 392.633 C 527.493 391.586, 527.323 392.339, 524.879 396.480 C 523.203 399.321, 522.861 401.167, 523.249 405.287 C 523.518 408.154, 524.099 411.361, 524.539 412.414 C 525.147 413.867, 525.021 414.131, 524.015 413.510 C 523.108 412.949, 522.929 413.076, 523.446 413.912 C 523.861 414.584, 524.459 414.874, 524.776 414.557 C 525.569 413.765, 530.056 418.100, 529.453 419.076 C 529.186 419.508, 529.494 420.187, 530.138 420.585 C 530.923 421.070, 531.039 420.872, 530.490 419.985 C 529.868 418.978, 530.131 418.854, 531.586 419.469 C 532.639 419.914, 536.200 420.542, 539.500 420.866 L 545.500 421.453 540.500 422.070 L 535.500 422.686 540.250 422.843 C 542.862 422.929, 545 423.346, 545 423.770 C 545 424.193, 540.626 428.806, 535.279 434.020 C 529.933 439.234, 526.670 442.150, 528.029 440.500 L 530.500 437.500 527.781 439.895 C 526.285 441.213, 525.259 442.610, 525.500 443 C 526.014 443.832, 521.154 448.618, 520.169 448.250 C 519.801 448.113, 519.480 448.563, 519.455 449.250 C 519.430 449.938, 518.755 450.350, 517.955 450.167 C 517.155 449.983, 516.847 450.180, 517.270 450.604 C 518.232 451.565, 510.995 459.115, 509.813 458.384 C 509.338 458.091, 509.074 458.429, 509.225 459.135 C 509.379 459.854, 508.497 460.487, 507.218 460.574 C 505.963 460.660, 504.613 461.087, 504.218 461.524 C 503.823 461.961, 504.400 462.021, 505.500 461.657 C 507.469 461.005, 507.470 461.018, 505.559 462.498 C 503.941 463.750, 499.024 464.004, 476.059 464.022 C 444.366 464.047, 444.042 464.118, 435.538 472.885 C 432.808 475.698, 430.125 478, 429.575 478 C 429.025 478, 430.804 475.637, 433.527 472.750 C 436.251 469.863, 433.220 472.644, 426.792 478.931 C 420.365 485.218, 415.291 490.662, 415.517 491.028 C 416.162 492.071, 410.454 497.120, 409.597 496.264 C 409.177 495.844, 408.983 496.175, 409.167 497 C 409.369 497.909, 408.909 498.369, 408 498.167 C 407.175 497.983, 406.851 498.184, 407.279 498.612 C 408.239 499.572, 394.984 513.108, 393.801 512.377 C 393.333 512.088, 393.074 512.447, 393.225 513.176 C 393.376 513.904, 392.904 514.376, 392.176 514.225 C 391.447 514.074, 391.088 514.333, 391.377 514.801 C 391.903 515.652, 378.364 529.721, 377.473 529.250 C 377.213 529.112, 376.981 529.337, 376.959 529.750 C 376.871 531.344, 369.617 537.884, 368.587 537.298 C 367.989 536.958, 367.839 537.053, 368.254 537.510 C 368.668 537.967, 368.372 539.309, 367.597 540.492 C 366.821 541.676, 365.628 544.510, 364.945 546.789 C 363.887 550.320, 363.953 551.588, 365.388 555.345 C 366.314 557.770, 367.945 560.545, 369.012 561.511 C 370.080 562.477, 370.731 563.626, 370.460 564.065 C 370.189 564.503, 370.494 565.187, 371.138 565.585 C 371.869 566.037, 372.041 565.876, 371.595 565.155 C 370.685 563.681, 370.892 563.698, 376 565.500 C 381.921 567.589, 384.901 567.386, 390.581 564.504 C 396.443 561.530, 396.624 561.499, 394.923 563.750 C 394.196 564.712, 395.696 563.513, 398.257 561.084 C 400.818 558.656, 402.722 556.359, 402.487 555.980 C 401.820 554.900, 406.548 550.890, 407.485 551.741 C 407.944 552.158, 408.049 552.021, 407.716 551.436 C 407.063 550.286, 455.078 501.931, 458.688 500.104 C 460.110 499.384, 471.531 498.910, 491.353 498.748 C 508.115 498.612, 521.756 498.106, 521.665 497.625 C 521.574 497.144, 522.125 496.523, 522.889 496.245 C 523.855 495.894, 524.025 496.161, 523.447 497.120 C 522.744 498.288, 522.874 498.291, 524.297 497.137 C 525.222 496.387, 525.780 495.453, 525.537 495.060 C 525.043 494.261, 571.130 448, 572.421 448 C 572.874 448, 572.635 448.788, 571.890 449.750 C 570.599 451.417, 570.633 451.417, 572.596 449.750 C 573.730 448.788, 574.906 448, 575.210 448 C 575.514 448, 576.079 452.387, 576.467 457.750 C 576.866 463.262, 577.786 468.463, 578.586 469.715 C 580.332 472.449, 580.386 473.341, 578.750 472.398 C 578.063 472.002, 578.591 472.875, 579.924 474.339 C 582.372 477.025, 583.639 477.843, 582.500 476 C 581.681 474.674, 582.109 474.730, 586.346 476.500 C 588.320 477.325, 591.430 478, 593.256 478 C 597.885 478, 605.069 474.125, 607.653 470.234 C 608.846 468.437, 609.975 467.428, 610.161 467.990 C 610.707 469.635, 610.055 400.719, 609.502 398.327 C 609.226 397.132, 607.888 394.832, 606.528 393.216 C 605.168 391.600, 604.247 390.087, 604.480 389.853 C 605.358 388.976, 599.589 388.770, 565.743 388.474 C 540.932 388.256, 531.178 388.480, 531.657 389.254 M 611.448 432 C 611.448 450.425, 611.583 457.962, 611.748 448.750 C 611.913 439.538, 611.913 424.462, 611.748 415.250 C 611.583 406.038, 611.448 413.575, 611.448 432 M 536.971 430.750 L 530.500 437.500 537.250 431.029 C 540.962 427.470, 544 424.432, 544 424.279 C 544 423.543, 542.982 424.480, 536.971 430.750 M 551.966 469.750 L 546.500 475.500 552.250 470.034 C 555.413 467.028, 558 464.440, 558 464.284 C 558 463.542, 557.044 464.408, 551.966 469.750 M 421.944 484.777 L 415.500 491.499 421.975 485.500 C 425.537 482.200, 428.649 479.387, 428.892 479.250 C 429.135 479.113, 429.121 478.787, 428.861 478.527 C 428.601 478.267, 425.488 481.080, 421.944 484.777 M 756.385 508 C 756.385 514.875, 756.545 517.688, 756.740 514.250 C 756.936 510.813, 756.936 505.188, 756.740 501.750 C 756.545 498.313, 756.385 501.125, 756.385 508 M 793.374 509.500 C 793.376 515.550, 793.541 517.896, 793.740 514.713 C 793.939 511.531, 793.937 506.581, 793.736 503.713 C 793.535 500.846, 793.372 503.450, 793.374 509.500 M 578.628 517.092 C 576.636 517.418, 574.181 518.431, 573.172 519.344 C 572.163 520.257, 571.082 520.748, 570.769 520.436 C 570.456 520.123, 569.861 520.416, 569.446 521.088 C 568.941 521.905, 569.108 522.051, 569.953 521.529 C 570.912 520.936, 571.009 521.318, 570.357 523.125 C 569.886 524.431, 569.500 559.475, 569.500 601 C 569.500 674.262, 569.558 676.586, 571.454 679.386 C 575.141 684.831, 577.149 685.108, 611.643 684.943 C 628.958 684.860, 642.885 684.551, 642.591 684.257 C 642.296 683.963, 643.168 682.400, 644.528 680.784 C 645.888 679.169, 647.006 676.869, 647.012 675.673 C 647.478 593.254, 647.298 522.205, 646.625 522.333 C 646.144 522.425, 645.523 521.875, 645.245 521.111 C 644.898 520.155, 645.171 519.971, 646.120 520.522 C 646.879 520.962, 646.409 520.125, 645.076 518.661 C 642.680 516.032, 641.356 515.149, 642.441 516.905 C 642.754 517.412, 641.351 517.609, 639.250 517.354 C 633.426 516.647, 582.692 516.428, 578.628 517.092 M 467.500 548 C 467.160 548.550, 467.203 549, 467.596 549 C 467.989 549, 467.505 549.889, 466.521 550.976 C 465.538 552.063, 464.382 552.736, 463.953 552.471 C 462.576 551.620, 462.899 673.012, 464.285 676.965 C 464.972 678.926, 466.976 681.423, 468.898 682.715 C 472.240 684.963, 472.765 685, 500.898 684.998 C 533.069 684.997, 534.915 684.651, 538.261 678 C 539.893 674.757, 540.003 670.119, 539.761 614.854 C 539.520 559.669, 539.369 555.064, 537.750 553.276 C 536.788 552.212, 536 550.985, 536 550.549 C 536 550.112, 536.788 550.365, 537.750 551.110 C 539.175 552.214, 539.146 552.050, 537.595 550.233 C 535.562 547.850, 534.409 547.234, 535.605 549.170 C 536.128 550.016, 535.798 550.085, 534.414 549.420 C 533.361 548.914, 518.030 548.500, 500.345 548.500 C 482.660 548.500, 468.399 548.163, 468.654 547.750 C 468.909 547.337, 468.893 547, 468.618 547 C 468.343 547, 467.840 547.450, 467.500 548 M 541.468 616.500 C 541.468 648.400, 541.595 661.595, 541.749 645.821 C 541.904 630.048, 541.904 603.948, 541.750 587.821 C 541.595 571.695, 541.468 584.600, 541.468 616.500 M 391.500 603.967 C 377.200 604.260, 364.639 604.914, 363.586 605.420 C 362.069 606.149, 361.843 606.045, 362.496 604.920 C 362.985 604.078, 362.950 603.839, 362.410 604.333 C 361.910 604.792, 361.500 605.692, 361.500 606.333 C 361.500 606.975, 360.975 607.500, 360.333 607.500 C 359.692 607.500, 358.792 607.910, 358.333 608.410 C 357.839 608.950, 358.078 608.985, 358.920 608.496 C 360.045 607.843, 360.149 608.069, 359.420 609.586 C 358.914 610.639, 358.382 625.900, 358.239 643.500 C 357.875 687.960, 355.202 685, 395.724 685 C 423.182 685, 427.779 684.496, 431.410 681.084 C 432.560 680.005, 433.939 679.128, 434.475 679.136 C 435.011 679.143, 435.608 678.554, 435.801 677.825 C 436.051 676.883, 435.913 676.835, 435.326 677.657 C 434.872 678.293, 434.636 664.211, 434.802 646.363 C 435.059 618.624, 434.878 613.461, 433.552 610.803 C 431.675 607.041, 431.640 606.671, 433.250 607.613 C 433.938 608.015, 433.643 607.366, 432.595 606.172 C 430.467 603.746, 429.048 603.148, 431 605.500 C 432.624 607.457, 432.199 607.396, 427.500 605 C 425.342 603.900, 422.210 603.098, 420.539 603.217 C 418.867 603.337, 405.800 603.674, 391.500 603.967 M 356.444 644 C 356.444 660.775, 356.581 667.638, 356.748 659.250 C 356.915 650.862, 356.915 637.138, 356.748 628.750 C 356.581 620.362, 356.444 627.225, 356.444 644 M 436.444 645 C 436.444 661.775, 436.581 668.638, 436.748 660.250 C 436.915 651.862, 436.915 638.138, 436.748 629.750 C 436.581 621.362, 436.444 628.225, 436.444 645 M 383.250 686.748 C 390.813 686.917, 403.188 686.917, 410.750 686.748 C 418.313 686.578, 412.125 686.439, 397 686.439 C 381.875 686.439, 375.688 686.578, 383.250 686.748 M 487.310 686.748 C 494.905 686.918, 507.055 686.918, 514.310 686.747 C 521.564 686.576, 515.350 686.437, 500.500 686.438 C 485.650 686.438, 479.714 686.578, 487.310 686.748 M 595.250 686.748 C 602.813 686.917, 615.188 686.917, 622.750 686.748 C 630.313 686.578, 624.125 686.439, 609 686.439 C 593.875 686.439, 587.688 686.578, 595.250 686.748 M 497.250 761.742 C 500.962 761.934, 507.038 761.934, 510.750 761.742 C 514.462 761.549, 511.425 761.392, 504 761.392 C 496.575 761.392, 493.538 761.549, 497.250 761.742" stroke="none" fill="#2a38b7" fill-rule="evenodd"/></svg>