<svg xmlns="http://www.w3.org/2000/svg" width="1024" height="1024" viewBox="0 0 1024 1024" version="1.1"><path d="M 494.921 259.413 C 483.452 261.449, 476.430 263.738, 466.224 268.768 C 445.031 279.212, 426.429 299.337, 418.502 320.399 C 412.914 335.244, 411.602 342.545, 411.656 358.500 C 411.699 371.267, 412.082 374.916, 414.235 383.011 C 419.382 402.371, 428.528 417.639, 443.369 431.648 C 457.157 444.662, 471.699 452.541, 489.500 456.641 C 501.456 459.395, 524.480 459.184, 536.336 456.212 C 577.321 445.938, 606.257 412.992, 612.054 370 C 615.121 347.261, 608.119 319.533, 594.485 300.427 C 580.489 280.813, 556.964 265.424, 533.445 260.497 C 522.698 258.246, 504.398 257.731, 494.921 259.413 M 506.500 292.943 C 503.125 294.319, 499.078 299.058, 498.018 302.873 C 496.764 307.389, 496.713 357.058, 497.957 362.423 C 498.458 364.580, 499.719 367.505, 500.760 368.923 C 501.801 370.340, 513.418 378.446, 526.576 386.935 C 548.032 400.779, 551.016 402.409, 555.500 402.741 C 561.150 403.159, 565.643 401.001, 568.638 396.430 C 571.024 392.788, 570.926 385.151, 568.442 381.234 C 567.247 379.348, 558.934 373.168, 546.814 365.155 L 527.128 352.140 526.814 327.141 C 526.518 303.607, 526.377 301.976, 524.408 299.321 C 519.779 293.078, 512.512 290.490, 506.500 292.943" stroke="none" fill="#fafbfb" fill-rule="evenodd"/><path d="M 491.500 230.459 C 469.398 233.942, 450.787 241.946, 432.263 255.936 C 398.459 281.465, 380.484 320.550, 382.337 364.500 C 383.726 397.455, 395.275 424.567, 418.086 448.428 C 435.739 466.894, 456.045 478.487, 482.404 485.150 C 494.003 488.082, 521.888 488.842, 534.901 486.581 C 574.151 479.762, 609.812 453.190, 627.926 417.267 C 637.568 398.145, 640.866 385.099, 641.646 363 C 642.517 338.330, 638.587 319.320, 628.549 299.650 C 606.657 256.751, 559.918 228.681, 511.074 229.099 C 504.708 229.153, 495.900 229.765, 491.500 230.459 M 494.921 259.413 C 483.452 261.449, 476.430 263.738, 466.224 268.768 C 445.031 279.212, 426.429 299.337, 418.502 320.399 C 412.914 335.244, 411.602 342.545, 411.656 358.500 C 411.699 371.267, 412.082 374.916, 414.235 383.011 C 419.382 402.371, 428.528 417.639, 443.369 431.648 C 457.157 444.662, 471.699 452.541, 489.500 456.641 C 501.456 459.395, 524.480 459.184, 536.336 456.212 C 577.321 445.938, 606.257 412.992, 612.054 370 C 615.121 347.261, 608.119 319.533, 594.485 300.427 C 580.489 280.813, 556.964 265.424, 533.445 260.497 C 522.698 258.246, 504.398 257.731, 494.921 259.413 M 506.500 292.943 C 503.125 294.319, 499.078 299.058, 498.018 302.873 C 496.764 307.389, 496.713 357.058, 497.957 362.423 C 498.458 364.580, 499.719 367.505, 500.760 368.923 C 501.801 370.340, 513.418 378.446, 526.576 386.935 C 548.032 400.779, 551.016 402.409, 555.500 402.741 C 561.150 403.159, 565.643 401.001, 568.638 396.430 C 571.024 392.788, 570.926 385.151, 568.442 381.234 C 567.247 379.348, 558.934 373.168, 546.814 365.155 L 527.128 352.140 526.814 327.141 C 526.518 303.607, 526.377 301.976, 524.408 299.321 C 519.779 293.078, 512.512 290.490, 506.500 292.943 M 297.204 464.058 C 291.900 466.770, 288.495 471.106, 287.039 477 C 286.249 480.199, 286.011 513.305, 286.214 591.500 L 286.500 701.500 288.662 706.177 C 290.094 709.277, 292.262 711.807, 295.087 713.677 L 299.352 716.500 322.426 717.155 C 368.021 718.449, 395.547 724.790, 430.500 742.053 C 455.263 754.282, 476.193 770.776, 487.593 787.045 C 493.556 795.555, 495.429 796.936, 497.007 793.987 C 497.712 792.669, 497.957 751.441, 497.772 665.274 L 497.500 538.500 495.131 534 C 491.572 527.240, 474.038 510.527, 462.227 502.638 C 435.294 484.647, 400.389 470.702, 368 464.994 C 357.882 463.211, 350.356 462.703, 328.500 462.326 C 302.196 461.873, 301.389 461.918, 297.204 464.058 M 667.564 463.625 C 615.879 470.244, 559.632 496.554, 534.752 525.748 C 525.603 536.484, 526.500 521.232, 526.500 666 L 526.500 794.500 528.544 794.793 C 530.103 795.016, 531.765 793.355, 535.544 787.799 C 552.764 762.483, 589.082 739.277, 629.849 727.544 C 653.229 720.814, 670.921 718.316, 703.172 717.192 L 723.843 716.471 728.170 713.337 C 730.549 711.613, 733.509 708.287, 734.748 705.944 L 737 701.685 737 589.311 C 737 495.955, 736.766 476.391, 735.619 473.718 C 733.937 469.796, 728.503 464.501, 724.685 463.061 C 720.643 461.538, 680.792 461.931, 667.564 463.625" stroke="none" fill="#13436a" fill-rule="evenodd"/></svg>