<svg xmlns="http://www.w3.org/2000/svg" width="1024" height="1024" fill-rule="evenodd" xmlns:v="https://vecta.io/nano"><path d="M197.344 167.041c-10.083 1.995-19.491 9.539-23.959 19.212L170.5 192.5V510v317.5l2.304 5.702c3.229 7.992 9.884 15.027 17.99 19.017l6.664 3.281h193.521H584.5l5.718-2.68c7.204-3.377 14.581-10.226 18.36-17.046l2.922-5.274.196-67 .196-67-8.53-4.298-8.53-4.298-11.666 9.369c-16.552 13.293-17.005 13.606-21.297 14.762-6.66 1.794-11.227-.187-19.904-8.631-4.185-4.072-7.899-7.404-8.254-7.404s-.667 24.168-.694 53.706c-.055 60.647.255 58.131-7.854 63.775l-4.336 3.019h-36.164c-40.529 0-40.941-.065-46.469-7.313l-2.694-3.531-.262-92.578c-.296-104.607-.907-96.475 7.7-102.578l4.23-3 33.267-.299 33.266-.3-3.601-9.959c-1.98-5.477-4.275-10.173-5.1-10.435s-8.41-1.398-16.856-2.523c-16.02-2.135-21.026-3.594-24.975-7.282-5.409-5.05-5.462-5.463-5.468-42.714-.006-38.355.166-39.497 6.712-44.489 3.822-2.916 7.929-3.854 26.654-6.088l14.568-1.737 2.302-6.587c1.266-3.623 4.29-10.382 6.72-15.019s4.164-9.091 3.856-9.896-4.459-7.567-9.223-15.029c-7.395-11.583-8.723-14.315-9.086-18.691-.282-3.401.092-6.105 1.111-8.038 2.555-4.849 45.724-47.117 49.903-48.862 4.705-1.964 10.086-1.98 14.131-.042 1.733.831 9.5 6.198 17.261 11.927l14.11 10.417 13.39-5.097c7.364-2.803 13.68-5.532 14.034-6.064s1.865-8.668 3.358-18.08c1.536-9.682 3.527-18.705 4.584-20.779 1.973-3.869 6.072-7.345 9.414-7.981 1.976-.377 2-1.175 2-65.89v-65.508l-3.292-6.685c-5.015-10.186-13.557-16.56-25.129-18.755-6.529-1.238-411.473-1.213-417.735.026m20.156 34.62c-4.637 2.457-6.624 4.495-8.619 8.839-1.714 3.732-1.837 7.792-1.837 60.5 0 52.68.124 56.773 1.836 60.541 2.24 4.932 6.927 9.033 11.901 10.415 2.497.693 64.012 1.027 187.219 1.016l187.5-1.868c4.656-2.155 8.924-6.417 10.436-10.419.707-1.87 1.063-22.024 1.062-60-.001-64.091.339-60.976-7.341-67.114l-3.842-3.071-187.658-.214c-169.838-.194-187.942-.064-190.657 1.375M147.349 216c0 4.675.173 6.588.383 4.25s.211-6.162 0-8.5-.383-.425-.383 4.25m.097 45.5c.001 17.6.137 24.659.303 15.687s.165-23.372-.001-32-.302-1.287-.302 16.313m-.103 40c.003 4.4.179 6.076.39 3.724s.209-5.952-.006-8-.388-.124-.384 4.276m.149 256.5l.258 123.75v-247.5c-.142-68.063-.258-12.375-.258 123.75m168.337-237.25h174c47.669-.144 8.371-.261-87.329-.261l-86.671.261M215.5 377.271c-2.636 1.474-4.767 3.758-6.25 6.695-2.196 4.351-2.25 5.237-2.25 37.089 0 32.133.035 32.697 2.303 36.985 1.574 2.976 3.681 5.083 6.657 6.657 4.29 2.269 4.841 2.303 37.237 2.303 30.355 0 33.168-.146 36.593-1.903 4.478-2.296 7.706-5.619 9.143-9.412.676-1.782 1.067-14.657 1.067-35.093 0-31.851-.031-32.336-2.325-36.685-1.449-2.747-3.803-5.248-6.25-6.641-3.85-2.19-4.578-2.233-37.925-2.233s-34.077.043-38 2.238m115-.4c-3.982 2.473-7.126 5.994-8.433 9.444-.675 1.78-1.067 14.538-1.067 34.685s.392 32.905 1.067 34.685c1.516 4.003 4.805 7.289 9.433 9.425 3.625 1.673 7 1.846 36 1.846 36.719 0 38.013-.241 43.184-8.054l2.816-4.256v-34.151-34.151l-2.866-3.757c-5.904-7.741-4.987-7.58-43.134-7.58-31.428 0-34.227.141-37 1.864m11.843 31.629c.003 4.4.179 6.076.39 3.724s.209-5.952-.006-8-.388-.124-.384 4.276m-123.688 83.959c-2.114.754-4.985 2.421-6.379 3.706-5.072 4.674-5.276 6.282-5.276 41.646 0 32.388.034 32.939 2.303 37.229 1.574 2.976 3.681 5.083 6.657 6.657 4.291 2.27 4.835 2.303 37.382 2.303 31.487 0 33.228-.098 37.356-2.096 2.887-1.398 5.159-3.51 6.816-6.338l2.486-4.242v-33.712c0-36.883-.004-36.914-5.995-41.954-1.687-1.42-4.741-3.046-6.786-3.614-5.897-1.638-63.789-1.288-68.564.415m114-.026c-4.669 1.696-8.023 4.715-10.099 9.09-1.309 2.759-1.556 8.442-1.556 35.813 0 20.555.392 33.57 1.064 35.349.585 1.548 2.272 4.108 3.75 5.688 5.11 5.466 6.313 5.629 41.404 5.605 29.262-.02 32.664-.195 36.361-1.874 4.889-2.221 8.04-5.975 9.469-11.283.668-2.481.945-15.549.754-35.62-.341-35.777-.364-35.896-8.005-40.955l-4.146-2.746-32.576-.232c-25.842-.184-33.37.056-36.42 1.165m284.095 9.307c3.438.196 9.063.196 12.5 0s.625-.355-6.25-.355-9.687.16-6.25.355M893.445 535c0 17.325.137 24.413.303 15.75s.167-22.837 0-31.5-.303-1.575-.303 15.75m-551.05-8.5c.001 7.7.158 10.718.348 6.706s.189-10.311-.002-14-.348-.406-.346 7.294m136.785 18.691c-.099 7.53.157 13.901.57 14.158s.631-3.88.485-9.191c-.47-17.114-.87-18.999-1.055-4.967M342.365 550.5c.003 5.5.171 7.622.373 4.716s.201-7.405-.004-10-.371-.216-.369 5.284m436.385 20.223c1.788.222 4.712.222 6.5 0s.325-.403-3.25-.403-5.038.182-3.25.403M218.5 608.492c-4.766 1.674-10.24 7.579-11.034 11.904-.313 1.707-.434 17.99-.268 36.184l.302 33.079 2.802 3.672c5.513 7.224 5.181 7.169 43.198 7.169s37.685.055 43.198-7.169l2.802-3.672.311-33.079c.2-21.292-.068-34.368-.75-36.695-1.489-5.078-4.726-8.828-9.482-10.989-3.698-1.679-7.022-1.85-35.579-1.83-24.437.017-32.397.337-35.5 1.426m114.184-.043c-4.78 1.704-7.374 4.026-9.79 8.761-1.746 3.42-1.894 6.303-1.894 36.79 0 49.112-1.887 47.332 49.623 46.806 33.86-.347 35.245-.627 40.216-8.139l2.661-4.021V654v-34.646l-2.684-4.056c-1.617-2.443-4.426-4.899-7.066-6.177-4.187-2.027-5.779-2.119-35.816-2.077-23.887.033-32.35.371-35.25 1.405m9.747 47.051c.001 13.2.143 18.462.316 11.693a551.71 551.71 0 0 0-.001-24c-.174-6.431-.315-.893-.315 12.307m-125.422 69.355c-1.902 1.021-4.82 3.537-6.484 5.593l-3.025 3.738v35.833c0 34.793.061 35.916 2.092 38.658 3.271 4.415 8.047 7.137 13.708 7.813 2.86.341 44.125.483 91.7.315l86.5-.305 3.7-2.3c2.034-1.266 4.734-3.966 6-6 2.253-3.625 2.306-4.338 2.615-35.2.173-17.325.03-33.431-.318-35.792-.695-4.721-4.924-10.343-9.596-12.759-2.386-1.234-16.208-1.449-93.117-1.449-86.057 0-90.478.087-93.775 1.855" fill="#358dd5"/><path d="M197 143.691c-23.557 3.943-44.302 24.409-48.461 47.809-.294 1.65-.547 145.927-.563 320.615l-.029 317.614 2.541 8.043c4.806 15.213 15.27 27.149 30.09 34.323 4.632 2.242 10.725 4.353 13.646 4.728 2.902.372 92.801.677 199.776.677h194.5l6.742-2.623c14.224-5.534 24.253-13.84 31.603-26.175 3.178-5.333 4.122-7.96 6.178-17.202.489-2.2.909-23.453.933-47.228l.044-43.228 4.696 2.978 4.696 2.978h32.488c43.958 0 41.852 1.13 46.614-25l3.203-18.226c.628-4.182.74-4.24 20.924-10.817l10.121-3.298 12.827 9.421 15.653 11.17c3.971 2.459 11.404 2.275 15.778-.39 1.925-1.173 14.153-12.758 27.173-25.746 30.565-30.489 29.488-26.018 12.706-52.751l-8.875-14.137 6.056-12.863 7.256-15.308c1.28-2.611 5.587-3.787 27.834-7.601 10.746-1.842 14.915-3.872 17.855-8.695 1.882-3.087 1.988-5.098 1.991-38.049.005-45.041.37-44.162-19.857-47.833l-17.639-2.926c-9.91-1.409-10.058-1.492-12.01-6.729-.968-2.597-3.971-9.163-6.674-14.59l-4.912-9.869 9.475-15.131c12.563-20.063 12.328-19.474 10.12-25.353-1.488-3.961-5.749-8.69-24.897-27.626-15.452-15.281-24.518-23.496-27.377-24.807-4.975-2.283-9.796-1.887-15.096 1.24-2.656 1.568-19.213 13.552-27.746 20.083-.671.514-4.041-.389-8.446-2.264-4.031-1.715-10.728-4.308-14.883-5.762L725.5 370.5l-2.717-15-3.248-18.813c-.717-5.133-1.764-6.86-6.237-10.282L709.5 323.5l-22.026-.302-22.025-.301.005-65.199c.005-63.917-.038-65.346-2.165-72.74-3.714-12.914-10.033-22.002-20.852-29.991-7.301-5.391-12.747-7.896-22.768-10.469-5.095-1.309-31.954-1.481-213-1.362L197 143.691m.344 23.35c-10.083 1.995-19.491 9.539-23.959 19.212L170.5 192.5V510v317.5l2.304 5.702c3.229 7.992 9.884 15.027 17.99 19.017l6.664 3.281h193.521H584.5l5.718-2.68c7.204-3.377 14.581-10.226 18.36-17.046l2.922-5.274.196-67 .196-67-8.53-4.298-8.53-4.298-11.666 9.369c-16.552 13.293-17.005 13.606-21.297 14.762-6.66 1.794-11.227-.187-19.904-8.631-4.185-4.072-7.899-7.404-8.254-7.404s-.667 24.168-.694 53.706c-.055 60.647.255 58.131-7.854 63.775l-4.336 3.019h-36.164c-40.529 0-40.941-.065-46.469-7.313l-2.694-3.531-.262-92.578c-.296-104.607-.907-96.475 7.7-102.578l4.23-3 33.267-.299 33.266-.3-3.601-9.959c-1.98-5.477-4.275-10.173-5.1-10.435s-8.41-1.398-16.856-2.523c-16.02-2.135-21.026-3.594-24.975-7.282-5.409-5.05-5.462-5.463-5.468-42.714-.006-38.355.166-39.497 6.712-44.489 3.822-2.916 7.929-3.854 26.654-6.088l14.568-1.737 2.302-6.587c1.266-3.623 4.29-10.382 6.72-15.019s4.164-9.091 3.856-9.896-4.459-7.567-9.223-15.029c-7.395-11.583-8.723-14.315-9.086-18.691-.282-3.401.092-6.105 1.111-8.038 2.555-4.849 45.724-47.117 49.903-48.862 4.705-1.964 10.086-1.98 14.131-.042 1.733.831 9.5 6.198 17.261 11.927l14.11 10.417 13.39-5.097c7.364-2.803 13.68-5.532 14.034-6.064s1.865-8.668 3.358-18.08c1.536-9.682 3.527-18.705 4.584-20.779 1.973-3.869 6.072-7.345 9.414-7.981 1.976-.377 2-1.175 2-65.89v-65.508l-3.292-6.685c-5.015-10.186-13.557-16.56-25.129-18.755-6.529-1.238-411.473-1.213-417.735.026m20.156 34.62c-4.637 2.457-6.624 4.495-8.619 8.839-1.714 3.732-1.837 7.792-1.837 60.5 0 52.68.124 56.773 1.836 60.541 2.24 4.932 6.927 9.033 11.901 10.415 2.497.693 64.012 1.027 187.219 1.016l187.5-1.868c4.656-2.155 8.924-6.417 10.436-10.419.707-1.87 1.063-22.024 1.062-60-.001-64.091.339-60.976-7.341-67.114l-3.842-3.071-187.658-.214c-169.838-.194-187.942-.064-190.657 1.375m11.5 69.852v49.512l177.982-.038 177.981-.039.269-49.474L585.5 222H407.25 229v49.513m419.125 90.442c-5.306 27.586-4.576 26.37-18.325 30.497-5.024 1.507-13.942 4.947-19.817 7.644-16.545 7.594-16.466 7.615-39.289-10.055l-11.805-9.14-13.695 13.417-18.117 17.443-4.423 4.025 3.397 5.357 10.172 15.702c4.386 6.695 6.777 11.357 6.777 13.211 0 1.577-3.102 9.296-6.894 17.155s-8.087 17.95-9.544 22.424-3.417 8.827-4.356 9.674c-2.295 2.073-7.825 3.287-26.191 5.751-8.517 1.143-15.686 2.278-15.931 2.522s-.62 11.916-.835 25.936c-.32 20.92-.145 25.585.979 26.016.753.289 9.581 1.578 19.618 2.866 20.597 2.641 21.74 3.171 24.786 11.501 5.841 15.973 8.949 23.447 13.55 32.588 4.953 9.839 5.14 10.493 4.032 14.163-.639 2.116-4.241 8.573-8.004 14.348l-8.988 14.055-2.144 3.554 17.943 17.94 18.711 18.189c.422.138 3.918-2.286 7.768-5.387s10.526-8.272 14.837-11.494c10.294-7.694 11.626-7.692 29.515.048 7.506 3.247 15.821 6.629 18.476 7.514 6.314 2.106 9.779 3.937 11.914 6.296 1.133 1.252 3.01 8.42 5.395 20.603L651.294 725h23.723 23.723l1.127-4.25c.62-2.337 2.015-9.517 3.1-15.956l2.637-14.5c1.332-5.602 5.298-8.231 19.104-12.662 4.515-1.449 13.055-4.705 18.978-7.234 12.613-5.388 15.995-5.43 23.235-.293l24.907 17.319c.92.548 6.666-4.518 18.75-16.53C820.16 661.369 828 653.225 828 652.798s-3.871-6.519-8.603-13.537C809.066 623.938 808 621.963 808 618.146c0-1.625 1.978-6.71 4.396-11.3s6.267-12.846 8.555-18.346c7.026-16.889 8.438-19.711 10.53-21.037 1.85-1.173 8.509-2.775 16.019-3.854 1.65-.238 7.612-1.215 13.25-2.173l10.25-1.742v-25.276-25.276l-5.25-1.078c-2.888-.594-11.458-2.162-19.046-3.486s-14.942-3.159-16.343-4.077-3.45-3.769-4.553-6.335c-5.327-12.399-12.339-26.997-15.167-31.578-2.308-3.738-3.141-6.287-3.141-9.608 0-4.067 1.032-6.068 10.289-19.958l10.289-15.437-17.879-17.879-17.879-17.879-14.41 10.744-15.652 11.702c-2.812 2.17-10.656 1.111-18.955-2.559-4.509-1.994-13.773-5.451-20.588-7.683-7.64-2.501-13.186-4.915-14.464-6.294-2.447-2.642-3.404-6.075-6.298-22.605l-2.482-14c-.175-.898-.352-2.644-.394-3.882L699 345h-23.807-23.807l-3.261 16.955M215.5 377.271c-2.636 1.474-4.767 3.758-6.25 6.695-2.196 4.351-2.25 5.237-2.25 37.089 0 32.133.035 32.697 2.303 36.985 1.574 2.976 3.681 5.083 6.657 6.657 4.29 2.269 4.841 2.303 37.237 2.303 30.355 0 33.168-.146 36.593-1.903 4.478-2.296 7.706-5.619 9.143-9.412.676-1.782 1.067-14.657 1.067-35.093 0-31.851-.031-32.336-2.325-36.685-1.449-2.747-3.803-5.248-6.25-6.641-3.85-2.19-4.578-2.233-37.925-2.233s-34.077.043-38 2.238m115-.4c-3.982 2.473-7.126 5.994-8.433 9.444-.675 1.78-1.067 14.538-1.067 34.685s.392 32.905 1.067 34.685c1.516 4.003 4.805 7.289 9.433 9.425 3.625 1.673 7 1.846 36 1.846 36.719 0 38.013-.241 43.184-8.054l2.816-4.256v-34.151-34.151l-2.866-3.757c-5.904-7.741-4.987-7.58-43.134-7.58-31.428 0-34.227.141-37 1.864M229 420.5V445h24.5H278v-24.5V396h-24.5H229v24.5m113.661-23.75c-.251.413-.423 11.438-.381 24.5l.075 23.75h24.822H392v-24.5V396h-24.441c-13.443 0-24.647.337-24.898.75m349.481 28.308c-7.737 1.381-18.437 6.155-24.798 11.063-13.461 10.384-21.86 27.098-26.421 52.575-1.162 6.492-2.589 12.098-3.17 12.457s-7.387.716-15.125.794c-14.737.149-16.228.569-18.748 5.277-2.868 5.359-1.618 15.776 2.134 17.784 1.02.545 7.734.992 14.92.992 7.315 0 13.066.406 13.066.923 0 .507-1.558 8.945-3.462 18.75L624.45 578c-3.296 18.198-8.12 39.275-10.044 43.879-3.798 9.089-10.186 13.346-13.635 9.087-1.003-1.239-1.771-3.842-1.771-6 0-2.643-.794-4.757-2.589-6.889-2.25-2.675-3.238-3.077-7.55-3.077-5.977 0-9.895 1.867-13.307 6.34-5.084 6.666-4.333 16.425 1.802 23.413 4.397 5.008 10.412 7.391 20.193 8.002 20.883 1.302 40.328-12.069 50.75-34.899 5.41-11.85 8.614-24.547 16.237-64.356l5.097-25.75c.452-1.575 2.139-1.75 16.879-1.75 15.55 0 16.507-.114 18.963-2.25 2.895-2.52 4.299-9.812 3.109-16.156-1.068-5.691-3.81-6.541-20.716-6.422l-14.368.1.309-2.386c2.295-17.726 5.891-31.56 10.438-40.154 7.881-14.898 21.714-18.6 21.775-5.827.059 12.409 9.652 20.145 21.144 17.05 9.186-2.473 13.834-9.078 13.834-19.66 0-15.389-12.773-24.952-34.5-25.83-4.95-.2-11.411.067-14.358.593m-473.487 67.401c-2.114.754-4.985 2.421-6.379 3.706-5.072 4.674-5.276 6.282-5.276 41.646 0 32.388.034 32.939 2.303 37.229 1.574 2.976 3.681 5.083 6.657 6.657 4.291 2.27 4.835 2.303 37.382 2.303 31.487 0 33.228-.098 37.356-2.096 2.887-1.398 5.159-3.51 6.816-6.338l2.486-4.242v-33.712c0-36.883-.004-36.914-5.995-41.954-1.687-1.42-4.741-3.046-6.786-3.614-5.897-1.638-63.789-1.288-68.564.415m114-.026c-4.669 1.696-8.023 4.715-10.099 9.09-1.309 2.759-1.556 8.442-1.556 35.813 0 20.555.392 33.57 1.064 35.349.585 1.548 2.272 4.108 3.75 5.688 5.11 5.466 6.313 5.629 41.404 5.605 29.262-.02 32.664-.195 36.361-1.874 4.889-2.221 8.04-5.975 9.469-11.283.668-2.481.945-15.549.754-35.62-.341-35.777-.364-35.896-8.005-40.955l-4.146-2.746-32.576-.232c-25.842-.184-33.37.056-36.42 1.165M732.2 496.2c-.66.66-1.2 1.809-1.2 2.554s3.489 7.292 7.753 14.55c11.815 20.11 11.13 17.992 7.426 22.954-16.631 22.275-23.41 33.5-20.429 33.824.413.044 4.272.157 8.576.25 7.806.168 7.833.159 11-3.422 1.746-1.974 5.335-6.812 7.977-10.75s5.117-7.159 5.5-7.159 3.076 4.269 5.984 9.485 6.175 9.958 7.259 10.539 5.676.925 10.202.765c6.975-.246 8.282-.563 8.572-2.078.188-.983-3.948-9.439-9.19-18.79l-9.532-17.001 11.451-16.865C789.847 505.78 795 497.75 795 497.212c0-2.255-12.975-3.092-17.311-1.116-1.361.62-4.951 5.212-8.272 10.58-3.227 5.216-6.183 9.679-6.569 9.918s-3.032-4.022-5.88-9.467c-3.412-6.524-6.011-10.281-7.62-11.014-3.288-1.498-15.625-1.436-17.148.087M229 537.5V562l24.75.001 24.75.001-.284-24.501-.284-24.501h-24.466H229v24.5m113.07 0l.103 24.5h24.914H392v-24.5V513h-25.017-25.016l.103 24.5M218.5 608.492c-4.766 1.674-10.24 7.579-11.034 11.904-.313 1.707-.434 17.99-.268 36.184l.302 33.079 2.802 3.672c5.513 7.224 5.181 7.169 43.198 7.169s37.685.055 43.198-7.169l2.802-3.672.311-33.079c.2-21.292-.068-34.368-.75-36.695-1.489-5.078-4.726-8.828-9.482-10.989-3.698-1.679-7.022-1.85-35.579-1.83-24.437.017-32.397.337-35.5 1.426m114.184-.043c-4.78 1.704-7.374 4.026-9.79 8.761-1.746 3.42-1.894 6.303-1.894 36.79 0 49.112-1.887 47.332 49.623 46.806 33.86-.347 35.245-.627 40.216-8.139l2.661-4.021V654v-34.646l-2.684-4.056c-1.617-2.443-4.426-4.899-7.066-6.177-4.187-2.027-5.779-2.119-35.816-2.077-23.887.033-32.35.371-35.25 1.405M229 653.5V679l24.75.001h24.75l-.283-25.5-.283-25.501h-24.467H229v25.5m113.068 0l-.177 25.5h25.054H392v-25.5V628h-24.877-24.877l-.178 25.5M457 711.5V795h27.5H512v-60.81-60.81l-4.44-5.201c-7.01-8.212-8.56-10.769-8.56-14.117 0-3.519 3.401-10.732 9.139-19.383 2.124-3.201 3.861-6.014 3.861-6.25S499.625 628 484.5 628H457v83.5m-239.991 13.355c-1.902 1.021-4.82 3.537-6.484 5.593l-3.025 3.738v35.833c0 34.793.061 35.916 2.092 38.658 3.271 4.415 8.047 7.137 13.708 7.813 2.86.341 44.125.483 91.7.315l86.5-.305 3.7-2.3c2.034-1.266 4.734-3.966 6-6 2.253-3.625 2.306-4.338 2.615-35.2.173-17.325.03-33.431-.318-35.792-.695-4.721-4.924-10.343-9.596-12.759-2.386-1.234-16.208-1.449-93.117-1.449-86.057 0-90.478.087-93.775 1.855m11.774 44.646l-.283 25.5h81.75L392 795v-25.5V744h-81.467-81.467l-.283 25.501" fill="#043878"/></svg>