<svg xmlns="http://www.w3.org/2000/svg" width="1024" height="1024" viewBox="0 0 1024 1024" version="1.1"><path d="M 674.974 154.474 C 631.489 161.804, 595.092 191.460, 578.969 232.699 C 572.116 250.227, 570.621 258.635, 570.560 280 C 570.504 299.832, 571.054 303.719, 576.225 320 C 590.286 364.273, 628.433 397.612, 673.926 405.389 C 685.775 407.414, 706.565 407.468, 718.672 405.504 C 767.472 397.590, 807.629 361.423, 820.375 313.907 C 830.334 276.782, 824.098 239.022, 802.721 207.008 C 796.147 197.163, 779.553 180.749, 769.500 174.147 C 754.409 164.236, 737.710 157.638, 720.074 154.615 C 708.833 152.689, 685.987 152.617, 674.974 154.474 M 685.512 174.107 C 637.472 179.163, 598.564 217.303, 591.967 265.806 C 585.634 312.361, 611.855 358.938, 654.880 377.564 C 669.912 384.071, 677.495 385.500, 697 385.500 C 713.058 385.499, 715.324 385.271, 724.500 382.725 C 775.676 368.527, 809.166 319.822, 803.012 268.546 C 796.922 217.811, 758.597 179.901, 707.476 174.045 C 697.536 172.906, 696.904 172.908, 685.512 174.107 M 751.500 224.429 C 749.850 225.185, 732.348 242.002, 712.606 261.801 L 676.712 297.798 662.168 282.828 C 654.170 274.594, 646.382 267.214, 644.862 266.429 C 637.078 262.403, 629.066 267.232, 629.022 275.974 L 629 280.448 650.276 301.724 L 671.552 323 676.513 323 L 681.474 323 723.737 280.737 L 766 238.474 766 234.253 C 766 226.529, 758.301 221.313, 751.500 224.429 M 438.279 232.548 C 432.485 235.436, 426.246 241.733, 422.821 248.151 C 420.508 252.485, 420.499 252.650, 420.211 296.541 L 419.923 340.582 429.211 342.304 C 434.320 343.251, 439.063 344.020, 439.750 344.013 C 440.730 344.003, 441 334.917, 441 301.950 C 441 256.673, 441.101 255.727, 446.260 252.780 C 447.966 251.805, 460.640 251.381, 499.369 251 L 550.239 250.500 552.114 243.500 C 553.145 239.650, 554.275 235.037, 554.625 233.250 L 555.262 230 499.327 230 L 443.393 230 438.279 232.548 M 399 365.020 C 375.422 367.405, 354.085 377.704, 338.306 394.315 C 317.570 416.144, 308.774 440.352, 308.807 475.500 C 308.842 512.962, 319.448 543.436, 341.466 569.342 L 347.281 576.184 346.651 584.384 C 345.883 594.368, 343.928 600.419, 339.882 605.327 C 335.980 610.060, 336.748 609.686, 299.770 624.874 C 282.571 631.938, 265.575 639.189, 262 640.987 C 230.536 656.812, 210.749 685.551, 203.093 726.546 C 199.366 746.499, 195.707 778.959, 195.602 793 L 195.500 806.500 199.199 814.247 C 204.054 824.414, 210.654 831.014, 220.782 835.830 L 228.500 839.500 407 839.771 C 526.262 839.952, 587.100 839.702, 590.322 839.016 C 601.901 836.552, 614.917 827.107, 620.209 817.329 C 625.028 808.427, 626.347 801.760, 625.629 789.941 C 624.998 779.559, 620.953 745.400, 618.945 733.500 C 612.194 693.487, 597.889 667.683, 572.538 649.786 C 562.533 642.723, 555.739 639.488, 520.509 625.019 C 483.601 609.861, 484.332 610.217, 479.800 605.201 C 475.199 600.108, 472.811 592.734, 472.638 583.084 L 472.500 575.356 477.390 569.928 C 492.535 553.115, 502.665 532.295, 508.142 506.724 C 510.993 493.416, 511.752 464.838, 509.602 451.763 C 504.234 419.121, 487.622 394.341, 460.178 378.036 C 443.323 368.023, 419.476 362.949, 399 365.020 M 804 385.588 C 802.075 387.783, 797.463 392.261, 793.751 395.539 L 787.001 401.500 787.001 523.602 L 787 645.704 784.750 649.001 C 783.513 650.813, 780.932 653.130, 779.016 654.148 C 775.711 655.904, 771.546 656, 698.266 656 C 655.770 656, 621 656.358, 621 656.796 C 621 657.843, 629.720 675.129, 631.081 676.781 C 631.925 677.805, 646.877 678.005, 705.818 677.781 L 779.500 677.500 785.235 674.812 C 788.390 673.334, 792.549 670.920, 794.478 669.449 C 799.494 665.623, 805.665 655.897, 806.983 649.740 C 807.788 645.976, 808.019 607.461, 807.802 513.049 L 807.500 381.598 804 385.588 M 556.557 438.957 C 546.581 440.959, 544.663 454.269, 553.684 458.883 C 555.245 459.681, 581.531 460, 645.786 460 L 735.704 460 739.102 457.716 C 745.567 453.372, 745.299 443.867, 738.609 440.203 C 735.755 438.639, 728.334 438.486, 648 438.333 C 599.875 438.240, 558.726 438.521, 556.557 438.957 M 553.500 514.161 C 549.946 516.115, 548.045 519.366, 548.022 523.527 C 547.996 528.254, 549.833 531.275, 553.710 532.879 C 555.765 533.729, 580.388 533.963, 647.228 533.767 L 737.955 533.500 740.728 530.727 C 742.947 528.508, 743.500 527.045, 743.500 523.395 C 743.500 519.509, 743.018 518.405, 740.234 515.918 L 736.968 513 646.234 513.030 C 582.184 513.052, 554.912 513.384, 553.500 514.161" stroke="none" fill="#2167a2" fill-rule="evenodd"/><path d="M 0 512.001 L 0 1024.002 512.250 1023.751 L 1024.500 1023.500 1024.751 511.750 L 1025.002 0 512.501 0 L 0 0 0 512.001 M 0.496 512.500 C 0.496 794.100, 0.610 909.151, 0.750 768.168 C 0.890 627.186, 0.890 396.786, 0.750 256.168 C 0.610 115.551, 0.496 230.900, 0.496 512.500 M 674.974 154.474 C 631.489 161.804, 595.092 191.460, 578.969 232.699 C 572.116 250.227, 570.621 258.635, 570.560 280 C 570.504 299.832, 571.054 303.719, 576.225 320 C 590.286 364.273, 628.433 397.612, 673.926 405.389 C 685.775 407.414, 706.565 407.468, 718.672 405.504 C 767.472 397.590, 807.629 361.423, 820.375 313.907 C 830.334 276.782, 824.098 239.022, 802.721 207.008 C 796.147 197.163, 779.553 180.749, 769.500 174.147 C 754.409 164.236, 737.710 157.638, 720.074 154.615 C 708.833 152.689, 685.987 152.617, 674.974 154.474 M 685.512 174.107 C 637.472 179.163, 598.564 217.303, 591.967 265.806 C 585.634 312.361, 611.855 358.938, 654.880 377.564 C 669.912 384.071, 677.495 385.500, 697 385.500 C 713.058 385.499, 715.324 385.271, 724.500 382.725 C 775.676 368.527, 809.166 319.822, 803.012 268.546 C 796.922 217.811, 758.597 179.901, 707.476 174.045 C 697.536 172.906, 696.904 172.908, 685.512 174.107 M 751.500 224.429 C 749.850 225.185, 732.348 242.002, 712.606 261.801 L 676.712 297.798 662.168 282.828 C 654.170 274.594, 646.382 267.214, 644.862 266.429 C 637.078 262.403, 629.066 267.232, 629.022 275.974 L 629 280.448 650.276 301.724 L 671.552 323 676.513 323 L 681.474 323 723.737 280.737 L 766 238.474 766 234.253 C 766 226.529, 758.301 221.313, 751.500 224.429 M 438.279 232.548 C 432.485 235.436, 426.246 241.733, 422.821 248.151 C 420.508 252.485, 420.499 252.650, 420.211 296.541 L 419.923 340.582 429.211 342.304 C 434.320 343.251, 439.063 344.020, 439.750 344.013 C 440.730 344.003, 441 334.917, 441 301.950 C 441 256.673, 441.101 255.727, 446.260 252.780 C 447.966 251.805, 460.640 251.381, 499.369 251 L 550.239 250.500 552.114 243.500 C 553.145 239.650, 554.275 235.037, 554.625 233.250 L 555.262 230 499.327 230 L 443.393 230 438.279 232.548 M 399 365.020 C 375.422 367.405, 354.085 377.704, 338.306 394.315 C 317.570 416.144, 308.774 440.352, 308.807 475.500 C 308.842 512.962, 319.448 543.436, 341.466 569.342 L 347.281 576.184 346.651 584.384 C 345.883 594.368, 343.928 600.419, 339.882 605.327 C 335.980 610.060, 336.748 609.686, 299.770 624.874 C 282.571 631.938, 265.575 639.189, 262 640.987 C 230.536 656.812, 210.749 685.551, 203.093 726.546 C 199.366 746.499, 195.707 778.959, 195.602 793 L 195.500 806.500 199.199 814.247 C 204.054 824.414, 210.654 831.014, 220.782 835.830 L 228.500 839.500 407 839.771 C 526.262 839.952, 587.100 839.702, 590.322 839.016 C 601.901 836.552, 614.917 827.107, 620.209 817.329 C 625.028 808.427, 626.347 801.760, 625.629 789.941 C 624.998 779.559, 620.953 745.400, 618.945 733.500 C 612.194 693.487, 597.889 667.683, 572.538 649.786 C 562.533 642.723, 555.739 639.488, 520.509 625.019 C 483.601 609.861, 484.332 610.217, 479.800 605.201 C 475.199 600.108, 472.811 592.734, 472.638 583.084 L 472.500 575.356 477.390 569.928 C 492.535 553.115, 502.665 532.295, 508.142 506.724 C 510.993 493.416, 511.752 464.838, 509.602 451.763 C 504.234 419.121, 487.622 394.341, 460.178 378.036 C 443.323 368.023, 419.476 362.949, 399 365.020 M 804 385.588 C 802.075 387.783, 797.463 392.261, 793.751 395.539 L 787.001 401.500 787.001 523.602 L 787 645.704 784.750 649.001 C 783.513 650.813, 780.932 653.130, 779.016 654.148 C 775.711 655.904, 771.546 656, 698.266 656 C 655.770 656, 621 656.358, 621 656.796 C 621 657.843, 629.720 675.129, 631.081 676.781 C 631.925 677.805, 646.877 678.005, 705.818 677.781 L 779.500 677.500 785.235 674.812 C 788.390 673.334, 792.549 670.920, 794.478 669.449 C 799.494 665.623, 805.665 655.897, 806.983 649.740 C 807.788 645.976, 808.019 607.461, 807.802 513.049 L 807.500 381.598 804 385.588 M 556.557 438.957 C 546.581 440.959, 544.663 454.269, 553.684 458.883 C 555.245 459.681, 581.531 460, 645.786 460 L 735.704 460 739.102 457.716 C 745.567 453.372, 745.299 443.867, 738.609 440.203 C 735.755 438.639, 728.334 438.486, 648 438.333 C 599.875 438.240, 558.726 438.521, 556.557 438.957 M 553.500 514.161 C 549.946 516.115, 548.045 519.366, 548.022 523.527 C 547.996 528.254, 549.833 531.275, 553.710 532.879 C 555.765 533.729, 580.388 533.963, 647.228 533.767 L 737.955 533.500 740.728 530.727 C 742.947 528.508, 743.500 527.045, 743.500 523.395 C 743.500 519.509, 743.018 518.405, 740.234 515.918 L 736.968 513 646.234 513.030 C 582.184 513.052, 554.912 513.384, 553.500 514.161" stroke="none" fill="#fbfbfb" fill-rule="evenodd"/></svg>