<svg xmlns="http://www.w3.org/2000/svg" width="1024" height="1536" viewBox="0 0 1024 1536" version="1.1"><path d="M 550.283 388.617 C 551.109 389.442, 834.862 389.471, 835.687 388.646 C 836.043 388.291, 771.833 388, 693 388 C 614.167 388, 549.944 388.278, 550.283 388.617 M 539.500 390.517 L 535.500 391.881 539.500 391.285 C 541.700 390.957, 544.625 390.347, 546 389.930 L 548.500 389.172 546 389.163 C 544.625 389.158, 541.700 389.767, 539.500 390.517 M 855.049 393.802 C 858.651 395.286, 863.376 397.521, 865.549 398.770 L 869.500 401.039 866.500 398.529 C 863.525 396.039, 852.120 390.952, 849.739 391.052 C 849.058 391.081, 851.447 392.319, 855.049 393.802 M 527.410 394.985 C 518.805 399.331, 508.747 407.264, 503.558 413.797 C 499.090 419.422, 492.721 431.130, 491.479 436 C 491.128 437.375, 493.184 433.794, 496.047 428.043 C 503.582 412.908, 512.941 403.561, 528.500 395.635 C 532.350 393.673, 535.009 392.053, 534.410 392.034 C 533.810 392.015, 530.660 393.343, 527.410 394.985 M 877.304 408.196 C 891.091 421.854, 896.582 434.639, 898.476 457.500 C 899.310 467.559, 899.760 470.359, 899.842 466 C 900.184 447.918, 896.450 432.860, 888.567 420.537 C 884.634 414.390, 874.832 403.516, 871.723 401.852 C 870.737 401.324, 873.249 404.179, 877.304 408.196 M 546.969 425.536 C 536.537 428.752, 526.749 438.807, 523.953 449.180 C 523.320 451.526, 523.059 487.587, 523.230 548.680 L 523.500 644.500 525.756 648.722 C 528.752 654.329, 533.555 659.694, 538.208 662.631 C 544.797 666.791, 551.948 668.017, 568.460 667.821 L 583.500 667.643 566 666.976 C 555.655 666.581, 547.069 665.772, 545 664.996 C 539.510 662.936, 533.487 658.427, 530.131 653.863 C 523.660 645.064, 523.933 650.132, 524.230 544.433 L 524.500 448.500 526.821 444.151 C 530.355 437.527, 536.600 431.344, 542.858 428.270 L 548.500 425.500 693.500 424.990 L 838.500 424.480 695 424.310 C 574.631 424.167, 550.770 424.364, 546.969 425.536 M 854.203 434.625 C 856.790 437.306, 859.940 441.750, 861.203 444.500 L 863.500 449.500 863.770 544.432 C 864.015 630.545, 863.886 639.835, 862.384 644.432 C 860.543 650.066, 855.329 657.793, 851.199 661.009 C 849.293 662.493, 849.131 662.806, 850.648 662.075 C 854.435 660.248, 860.694 652.166, 862.906 646.246 L 865.053 640.500 864.776 544.500 C 864.543 463.358, 864.277 448.036, 863.058 445.500 C 860.799 440.799, 854.782 433.081, 852.015 431.335 C 850.575 430.427, 851.511 431.834, 854.203 434.625 M 488 541.774 C 488 590.234, 488.359 630.104, 488.798 630.375 C 489.604 630.873, 489.240 454.906, 488.434 454.100 C 488.195 453.862, 488 493.315, 488 541.774 M 647.784 476.738 C 650.689 476.941, 655.189 476.939, 657.784 476.734 C 660.378 476.528, 658 476.363, 652.500 476.365 C 647 476.368, 644.878 476.536, 647.784 476.738 M 730.784 476.738 C 733.689 476.941, 738.189 476.939, 740.784 476.734 C 743.378 476.528, 741 476.363, 735.500 476.365 C 730 476.368, 727.878 476.536, 730.784 476.738 M 716.813 478.926 C 708.707 482.096, 699.995 488.044, 697.092 492.392 C 696.004 494.021, 701.046 490.039, 703.979 486.952 C 705.498 485.354, 714.316 480.913, 719.532 479.119 C 722.814 477.990, 724.600 477.073, 723.500 477.080 C 722.400 477.088, 719.391 477.918, 716.813 478.926 M 751.460 479.011 C 754.738 480.057, 757.575 480.759, 757.764 480.569 C 758.268 480.065, 748.918 476.991, 747.072 477.054 C 746.207 477.083, 748.182 477.964, 751.460 479.011 M 672.335 480.447 C 677.801 482.694, 680.250 484.196, 689 490.667 C 691.547 492.551, 691.274 492.132, 688 489.130 C 683.383 484.897, 671.002 477.981, 668.116 478.024 C 667.227 478.037, 669.126 479.127, 672.335 480.447 M 622.985 484.356 C 613.699 490.586, 605.367 502.185, 603.487 511.500 C 603.154 513.150, 604.146 511.481, 605.691 507.791 C 610.134 497.182, 615.490 490.436, 623.878 484.884 C 627.936 482.198, 630.857 480, 630.368 480 C 629.879 480, 626.557 481.960, 622.985 484.356 M 763 483.347 C 763 483.603, 765.177 485.377, 767.839 487.289 C 776.994 493.866, 784.425 508.008, 785.971 521.796 C 786.702 528.312, 786.450 532.434, 784.552 545 C 784.141 547.727, 784.228 548.023, 784.946 546.341 C 786.817 541.960, 787.874 529.508, 787.012 521.989 C 785.472 508.554, 778.588 494.824, 769.888 487.835 C 765.114 484, 763 482.623, 763 483.347 M 898 521 C 898 523.933, 898.184 526.146, 898.409 525.917 C 899.171 525.141, 899.424 517.090, 898.709 516.376 C 898.319 515.986, 898 518.067, 898 521 M 601.336 528 C 601.336 532.125, 601.513 533.813, 601.728 531.750 C 601.944 529.688, 601.944 526.313, 601.728 524.250 C 601.513 522.188, 601.336 523.875, 601.336 528 M 602.067 537.500 C 602.043 538.600, 602.624 541.752, 603.357 544.505 C 608.191 562.656, 621.329 579.996, 647 602.106 C 657.470 611.123, 664 616.253, 664 615.461 C 664 615.091, 662.765 613.823, 661.254 612.644 C 652.474 605.788, 640.238 594.965, 631.500 586.328 C 616.509 571.510, 608 558.070, 604.067 543 C 602.991 538.875, 602.091 536.400, 602.067 537.500 M 780.300 555.930 C 773.204 570.874, 756.116 588.793, 727.500 611.297 C 724.200 613.893, 720.949 616.470, 720.275 617.024 C 719.601 617.579, 714.651 621.162, 709.275 624.986 C 698.224 632.848, 694.818 635.456, 697 634.387 C 702.882 631.505, 724.866 615.153, 740.486 602.042 C 761.570 584.346, 774.280 570.189, 780.709 557.240 C 782.692 553.247, 784.131 549.803, 783.907 549.585 C 783.683 549.368, 782.060 552.223, 780.300 555.930 M 898 579.108 C 898 581.982, 898.245 584.088, 898.545 583.788 C 899.494 582.839, 899.758 574.969, 898.860 574.413 C 898.387 574.121, 898 576.234, 898 579.108 M 380 595.369 C 393.257 597.999, 393.969 598.089, 389.301 596.545 C 386.992 595.782, 382.492 594.914, 379.301 594.618 L 373.500 594.079 380 595.369 M 402.471 601.479 C 407.405 603.356, 411.598 604.735, 411.789 604.544 C 412.263 604.071, 396.385 597.992, 394.782 598.033 C 394.077 598.051, 397.537 599.602, 402.471 601.479 M 898.204 614.314 C 898.041 617.125, 898.147 619.186, 898.440 618.893 C 899.357 617.977, 900.047 610.147, 899.254 609.662 C 898.839 609.409, 898.367 611.502, 898.204 614.314 M 290.404 613.754 C 268.481 628.449, 251.347 650.894, 243.472 675.232 C 241.563 681.134, 240.033 686.984, 240.073 688.232 C 240.114 689.479, 241.217 686.600, 242.526 681.832 C 250.331 653.399, 266.823 630.860, 293.036 612.802 C 294.391 611.869, 295.275 611.083, 295 611.057 C 294.725 611.030, 292.657 612.244, 290.404 613.754 M 428 614.259 C 428 614.467, 431.535 617.421, 435.855 620.824 C 446.667 629.340, 455.775 640.014, 465.032 655.016 C 467.912 659.682, 469.959 662.600, 469.581 661.500 C 468.169 657.389, 458.273 642.662, 451.845 635.107 C 445.152 627.239, 428 612.243, 428 614.259 M 665.832 617.227 C 668.306 620.339, 691.037 635.001, 693.277 634.930 C 694.890 634.878, 694.445 634.472, 691.654 633.448 C 688.154 632.165, 684.637 629.889, 669.500 619.111 C 666.750 617.153, 665.099 616.305, 665.832 617.227 M 898.059 633.116 C 897.918 645.468, 897.002 651.200, 893.524 661.500 C 892.896 663.361, 892.930 663.373, 894.017 661.674 C 896.962 657.068, 898.857 646.757, 899.100 634.019 C 899.237 626.867, 899.092 620.759, 898.779 620.445 C 898.465 620.132, 898.141 625.834, 898.059 633.116 M 354.280 627.736 C 356.909 627.943, 360.959 627.940, 363.280 627.731 C 365.601 627.521, 363.450 627.352, 358.500 627.355 C 353.550 627.358, 351.651 627.530, 354.280 627.736 M 340.500 628.525 C 339.950 628.727, 337.542 629.396, 335.149 630.012 C 332.756 630.628, 330.981 631.315, 331.205 631.539 C 331.429 631.763, 333.387 631.450, 335.556 630.845 C 337.725 630.239, 341.750 629.407, 344.500 628.997 C 349.309 628.278, 349.347 628.248, 345.500 628.204 C 343.300 628.179, 341.050 628.323, 340.500 628.525 M 322.250 634.562 C 319.363 635.882, 317 637.163, 317 637.410 C 317 637.860, 329.131 633.155, 329.917 632.400 C 331.107 631.258, 326.865 632.454, 322.250 634.562 M 391.895 634.531 C 394.863 635.912, 397.488 636.846, 397.728 636.605 C 398.247 636.086, 389.251 631.996, 387.623 632.010 C 387.005 632.015, 388.928 633.150, 391.895 634.531 M 488.698 638.750 C 489.363 648.358, 489.829 648.739, 489.921 639.750 C 489.964 635.487, 489.602 632, 489.115 632 C 488.628 632, 488.441 635.038, 488.698 638.750 M 399 637.338 C 399 637.546, 401.738 639.406, 405.085 641.472 C 419.625 650.446, 432.782 666.206, 439.625 682.842 C 440.905 685.954, 441.963 687.825, 441.975 687 C 442.011 684.687, 436.559 673.714, 431.450 665.817 C 426.505 658.173, 420.653 651.934, 412.043 645.128 C 407.156 641.265, 399 636.394, 399 637.338 M 310.799 640.990 C 304.082 645.209, 292.539 656.386, 287.260 663.784 C 282.790 670.048, 276.004 684.099, 276.047 687 C 276.059 687.825, 277.318 685.337, 278.844 681.470 C 285.313 665.079, 296.409 651.942, 314.035 639.802 C 318.120 636.989, 315.834 637.828, 310.799 640.990 M 490.417 650.784 C 491.286 656.009, 495.973 667.019, 499.875 673 C 504.626 680.284, 513.234 688.908, 520.014 693.177 C 525.834 696.842, 534.994 701.008, 537.185 700.988 C 537.908 700.981, 534.957 699.429, 530.627 697.539 C 520.326 693.042, 516.238 690.114, 508.119 681.420 C 500.725 673.503, 496.527 666.395, 492.513 655 C 491.060 650.875, 490.117 648.978, 490.417 650.784 M 470.086 664 C 470.043 664.275, 471.380 667.875, 473.057 672 C 474.734 676.125, 475.850 678.264, 475.535 676.752 C 474.979 674.083, 470.242 662.998, 470.086 664 M 891.369 665.607 C 890.212 668.839, 882.396 679.294, 877.842 683.703 C 875.454 686.014, 869.716 690.177, 865.090 692.953 C 860.465 695.729, 857.090 697.995, 857.590 697.988 C 859.370 697.965, 870.123 691.430, 875.557 687.069 C 882.664 681.366, 894.231 665.898, 892.605 664.271 C 892.298 663.965, 891.742 664.566, 891.369 665.607 M 839.500 666 C 837.850 666.420, 799.794 666.817, 754.932 666.882 C 685.960 666.982, 672.591 667.229, 668.364 668.485 C 663.782 669.845, 660.739 672.605, 631.932 701.528 C 614.644 718.886, 600.280 733.405, 600.011 733.794 C 598.682 735.713, 609.624 724.988, 634.312 700.171 C 649.266 685.140, 663.300 671.865, 665.500 670.671 C 669.495 668.503, 669.611 668.499, 755 668 C 819.758 667.621, 840.985 667.204, 842.500 666.280 C 844.717 664.928, 843.982 664.860, 839.500 666 M 587.010 670.250 C 594.556 675.386, 594.440 674.849, 595.030 707.321 L 595.560 736.500 595.780 708.210 C 595.985 681.796, 595.869 679.664, 594.031 676.061 C 592.948 673.938, 590.533 671.256, 588.663 670.101 C 584.119 667.293, 582.835 667.409, 587.010 670.250 M 478.712 694 C 479.016 697.575, 479.430 700.688, 479.633 700.917 C 480.301 701.675, 479.778 693.555, 478.961 690.500 C 478.456 688.610, 478.364 689.904, 478.712 694 M 273.596 695.877 C 272.718 699.737, 272.068 706.181, 272.151 710.197 L 272.301 717.500 273.029 708.500 C 273.430 703.550, 274.277 697.303, 274.913 694.617 C 275.548 691.932, 275.871 689.538, 275.630 689.297 C 275.389 689.056, 274.474 692.017, 273.596 695.877 M 238.384 696.500 C 236.698 707.947, 237.472 732.550, 239.846 743 C 247.496 776.670, 268.522 805.271, 298.500 822.783 C 309.027 828.933, 329.875 836.459, 331.601 834.733 C 331.872 834.462, 330.385 833.920, 328.297 833.530 C 317.593 831.528, 299.613 823.248, 289 815.434 C 277.430 806.916, 262.165 790.852, 256.279 781 C 241.573 756.385, 235.073 725.748, 239.079 699.929 C 239.672 696.104, 239.958 692.417, 239.713 691.737 C 239.467 691.057, 238.869 693.200, 238.384 696.500 M 444.747 700.500 C 446.521 713.664, 444.758 732.329, 440.496 745.500 C 439.989 747.068, 440.064 747.172, 440.844 745.983 C 441.391 745.149, 442.857 740.649, 444.102 735.983 C 445.931 729.126, 446.350 725.008, 446.290 714.500 C 446.249 707.350, 445.733 700.150, 445.144 698.500 C 444.229 695.938, 444.171 696.230, 444.747 700.500 M 850 699.500 C 848.075 700.241, 845.375 700.934, 844 701.040 C 842.403 701.163, 842.098 701.391, 843.156 701.671 C 844.782 702.102, 856 699.270, 856 698.429 C 856 697.682, 853.617 698.107, 850 699.500 M 541.500 702.048 C 544.421 702.745, 563.492 703.178, 561.500 702.503 C 560.950 702.317, 555.550 701.977, 549.500 701.749 C 543.450 701.520, 539.850 701.655, 541.500 702.048 M 480.378 713 C 480.378 719.325, 480.541 721.913, 480.739 718.750 C 480.937 715.587, 480.937 710.413, 480.739 707.250 C 480.541 704.087, 480.378 706.675, 480.378 713 M 722.750 702.750 C 744.338 702.900, 779.663 702.900, 801.250 702.750 C 822.838 702.599, 805.175 702.476, 762 702.476 C 718.825 702.476, 701.163 702.599, 722.750 702.750 M 643.121 739.751 C 596.734 786.302, 594.280 788.578, 588.915 790.023 C 579.886 792.454, 570.185 788.315, 565.595 780.072 C 564.194 777.557, 563.038 776.253, 563.024 777.172 C 562.985 779.910, 569.203 787.169, 573.500 789.402 C 579.509 792.524, 588.190 792.274, 594 788.811 C 598.379 786.201, 682.361 703, 680.616 703 C 680.135 703, 663.262 719.538, 643.121 739.751 M 562.451 739.500 C 562.451 759.300, 562.585 767.542, 562.748 757.815 C 562.912 748.088, 562.912 731.888, 562.749 721.815 C 562.586 711.742, 562.452 719.700, 562.451 739.500 M 272.100 723.583 C 272.155 726.288, 272.572 729.625, 273.027 731 C 273.530 732.522, 273.634 730.761, 273.290 726.500 C 272.625 718.237, 271.958 716.604, 272.100 723.583 M 478.605 731.750 C 477.898 738.864, 474.087 754.153, 471.447 760.473 C 470.587 762.532, 470.090 764.424, 470.344 764.677 C 470.996 765.329, 474.618 755.352, 476.920 746.566 C 478.841 739.230, 480.720 725, 479.767 725 C 479.497 725, 478.974 728.038, 478.605 731.750 M 274.071 735.654 C 273.959 739.065, 278.426 751.281, 282.355 758.307 C 286.651 765.990, 295.012 777.321, 295.802 776.532 C 296.111 776.223, 294.979 774.514, 293.286 772.735 C 286.527 765.628, 279.549 752.444, 276.041 740.154 C 274.997 736.494, 274.110 734.469, 274.071 735.654 M 435.239 756.375 C 432.916 760.911, 429.402 766.507, 427.430 768.811 C 425.458 771.115, 424.133 773, 424.487 773 C 425.338 773, 430.014 767.437, 432.407 763.576 C 435.220 759.039, 440.201 748.868, 439.805 748.471 C 439.616 748.282, 437.561 751.839, 435.239 756.375 M 465.039 773.927 C 453.227 795.874, 428.878 818.177, 406.938 827.148 C 402.493 828.965, 399.287 830.596, 399.813 830.771 C 401.525 831.342, 417.483 823.410, 426.285 817.613 C 441.282 807.737, 457.177 790.201, 466.991 772.704 C 468.779 769.517, 470.034 766.700, 469.779 766.446 C 469.524 766.191, 467.391 769.557, 465.039 773.927 M 421.872 775.673 C 419.017 779.155, 405.507 789.220, 399.870 792.066 C 396.642 793.695, 394 795.255, 394 795.531 C 394 796.510, 404.586 790.700, 410.500 786.475 C 416.070 782.495, 425.145 774, 423.825 774 C 423.506 774, 422.627 774.753, 421.872 775.673 M 297 777.676 C 297 778.746, 306.792 787.026, 311.750 790.149 C 316.524 793.156, 315.715 791.739, 310.802 788.487 C 308.493 786.959, 304.443 783.688, 301.802 781.218 C 299.161 778.747, 297 777.154, 297 777.676 M 318.386 793.815 C 319.241 795.199, 334.646 801.009, 337.335 800.962 C 338.526 800.941, 335.675 799.671, 331 798.140 C 326.325 796.609, 321.433 794.781, 320.129 794.078 C 318.825 793.376, 318.041 793.257, 318.386 793.815 M 385 798.637 C 381.081 800.054, 379.890 800.750, 382 800.389 C 385.275 799.829, 394.684 796.099, 392.500 796.227 C 391.950 796.259, 388.575 797.343, 385 798.637 M 368 802 C 363.877 802.641, 363.793 802.707, 367 802.792 C 368.925 802.843, 372.300 802.512, 374.500 802.057 C 377.792 801.376, 377.969 801.236, 375.500 801.265 C 373.850 801.285, 370.475 801.615, 368 802 M 391 832.959 C 387.975 833.968, 385.881 834.841, 386.346 834.897 C 387.566 835.045, 398 831.940, 398 831.429 C 398 830.751, 396.874 830.997, 391 832.959 M 335.500 836.131 C 339.571 837.524, 367.179 838.361, 374 837.298 C 378.132 836.654, 375.022 836.448, 361.500 836.471 C 351.600 836.487, 341.025 836.186, 338 835.802 C 333.586 835.242, 333.093 835.307, 335.500 836.131 M 423.768 848.725 C 425.565 848.947, 428.265 848.943, 429.768 848.715 C 431.271 848.486, 429.800 848.304, 426.500 848.310 C 423.200 848.315, 421.971 848.502, 423.768 848.725 M 436.768 848.725 C 438.565 848.947, 441.265 848.943, 442.768 848.715 C 444.271 848.486, 442.800 848.304, 439.500 848.310 C 436.200 848.315, 434.971 848.502, 436.768 848.725 M 308.500 854 C 315.650 856.702, 322.175 858.905, 323 858.897 C 323.825 858.889, 318.497 856.658, 311.160 853.941 C 303.822 851.223, 297.297 849.020, 296.660 849.044 C 296.022 849.068, 301.350 851.298, 308.500 854 M 448 849.699 C 449.375 849.934, 454.280 851.005, 458.900 852.080 C 463.520 853.154, 467.488 853.846, 467.717 853.616 C 468.348 852.986, 450.606 848.980, 447.876 849.136 C 445.511 849.272, 445.512 849.274, 448 849.699 M 250.500 853.752 C 247.750 854.600, 245.966 855.459, 246.536 855.659 C 247.105 855.860, 250.030 855.151, 253.036 854.085 C 259.517 851.785, 257.661 851.541, 250.500 853.752 M 399.500 855.735 C 389.714 859.537, 375.141 862.925, 368 863.057 C 365.525 863.103, 362.600 863.516, 361.500 863.975 C 358.726 865.133, 369.530 864.193, 379.775 862.386 C 387.812 860.968, 402.934 856.171, 408 853.432 C 412.145 851.191, 409.011 852.040, 399.500 855.735 M 474 856.141 C 499.321 867.806, 509.061 874.031, 522.872 887.377 C 536.887 900.920, 547.883 917.599, 558.883 942 L 560.011 944.500 559.440 942 C 559.126 940.625, 556.149 933.953, 552.824 927.172 C 542.267 905.645, 526.051 886.337, 507.454 873.151 C 498.940 867.115, 479.354 856.824, 474 855.573 L 471.500 854.989 474 856.141 M 227.731 863.764 C 196.804 880.467, 171.138 911.513, 159.497 946.301 C 157.574 952.050, 156.026 957.596, 156.057 958.627 C 156.088 959.657, 157.460 956, 159.105 950.500 C 167.073 923.861, 184.676 897.277, 205.967 879.730 C 215.771 871.649, 219.520 869.140, 230.500 863.308 C 234.900 860.971, 238.050 859.052, 237.500 859.043 C 236.950 859.035, 232.554 861.159, 227.731 863.764 M 325.163 859.496 C 326.168 860.502, 344.630 863.966, 348.500 863.875 C 351.190 863.812, 349.717 863.361, 344 862.498 C 339.325 861.792, 333.475 860.728, 331 860.132 C 325.995 858.927, 324.423 858.756, 325.163 859.496 M 277.500 883.501 C 279.676 884.249, 294.375 884.668, 292.500 883.929 C 291.400 883.495, 287.350 883.144, 283.500 883.149 C 279.650 883.154, 276.950 883.312, 277.500 883.501 M 424.500 883.950 C 423.338 884.420, 425.431 884.565, 429.500 884.297 C 438.645 883.694, 440.040 883.160, 432.500 883.149 C 429.200 883.144, 425.600 883.505, 424.500 883.950 M 445.974 885.533 C 450.085 886.276, 453.604 886.730, 453.793 886.540 C 454.354 885.980, 444.138 883.992, 441.201 884.090 C 439.715 884.140, 441.863 884.789, 445.974 885.533 M 300 887.544 C 313.191 893.721, 334.670 898.652, 351.665 899.407 L 362.500 899.888 352.500 898.978 C 335.408 897.423, 314.658 892.761, 303.630 887.998 C 296.932 885.105, 294.011 884.740, 300 887.544 M 418 885.926 C 415.585 887.319, 399.104 893, 391.500 895.061 C 386.259 896.482, 385.631 896.807, 389 896.357 C 393.203 895.796, 417.675 887.810, 421 885.916 C 422.333 885.156, 422.333 885.061, 421 885.061 C 420.175 885.061, 418.825 885.450, 418 885.926 M 457.500 888.205 C 459.150 888.781, 463.650 890.571, 467.500 892.184 C 471.350 893.796, 474.050 894.667, 473.500 894.120 C 472.184 892.810, 457.548 886.977, 455.833 887.079 C 455.100 887.122, 455.850 887.629, 457.500 888.205 M 251.714 890.570 C 240.881 895.229, 231.654 901.486, 221.938 910.758 C 210.985 921.213, 203.889 930.870, 197.291 944.301 C 192.866 953.308, 187.931 969.675, 188.070 974.878 C 188.109 976.320, 188.992 973.450, 190.033 968.500 C 196.893 935.877, 219.237 907.454, 249.500 892.853 C 260.106 887.736, 261.396 886.407, 251.714 890.570 M 476.367 896.278 C 477.393 896.950, 480.986 899.300, 484.350 901.500 C 492.388 906.756, 504.808 918.638, 510.895 926.895 C 516.377 934.331, 524.141 948.467, 526.057 954.500 C 526.755 956.700, 527.521 957.922, 527.758 957.217 C 528.488 955.042, 518.531 935.996, 511.652 926.409 C 508.064 921.409, 502.614 915.020, 499.541 912.212 C 493.295 906.503, 479.571 896.662, 476.500 895.690 C 474.596 895.087, 474.590 895.115, 476.367 896.278 M 371 898 L 363.500 898.640 370 898.762 C 373.575 898.830, 378.300 898.512, 380.500 898.057 C 385.384 897.047, 382.385 897.029, 371 898 M 561.042 948.500 C 561.032 949.050, 561.913 953.100, 563 957.500 C 564.087 961.900, 564.982 966.362, 564.988 967.417 C 564.995 968.471, 565.296 969.037, 565.658 968.675 C 566.384 967.950, 563.213 951.392, 561.890 949 C 561.434 948.175, 561.052 947.950, 561.042 948.500 M 528.138 959.500 C 528.101 960.050, 528.922 963.425, 529.964 967 C 531.005 970.575, 531.862 972.600, 531.868 971.500 C 531.878 969.410, 528.255 957.755, 528.138 959.500 M 153.223 1029.803 C 152.973 1092.851, 153.109 1094.451, 159.819 1107.500 C 164.336 1116.285, 175.167 1127.338, 183.581 1131.749 C 196.261 1138.397, 185.203 1138.010, 359.460 1137.900 C 446.382 1137.845, 518.539 1137.508, 519.809 1137.150 C 521.079 1136.793, 448.854 1136.500, 359.309 1136.500 L 196.500 1136.500 190.379 1133.875 C 173.710 1126.726, 162.107 1114.139, 156.384 1097 C 154.714 1091.995, 154.498 1086.185, 153.997 1032.500 L 153.447 973.500 153.223 1029.803 M 532.826 1027.111 C 533.053 1064.449, 532.813 1081.982, 532.034 1084.874 C 530.546 1090.400, 525.643 1095.791, 519.507 1098.649 C 516.753 1099.931, 515.114 1100.985, 515.865 1100.990 C 516.615 1100.996, 519.409 1099.814, 522.073 1098.364 C 527.273 1095.534, 531.450 1090.405, 533.023 1084.920 C 534.107 1081.139, 534.220 988.027, 533.151 979 C 532.793 975.975, 532.647 997.625, 532.826 1027.111 M 187.466 1031 C 187.466 1060.425, 187.593 1072.463, 187.749 1057.750 C 187.905 1043.037, 187.905 1018.962, 187.749 1004.250 C 187.593 989.538, 187.466 1001.575, 187.466 1031 M 566.979 1035 L 566.500 1090.500 563.876 1097.676 C 557.483 1115.159, 544.804 1127.861, 527.500 1134.120 C 524.750 1135.114, 523.317 1135.944, 524.315 1135.964 C 527.348 1136.024, 536.155 1131.904, 542.514 1127.449 C 550.332 1121.972, 555.835 1115.923, 560.258 1107.942 C 567.466 1094.935, 567.366 1095.805, 567.756 1043 C 567.949 1016.875, 567.961 991.900, 567.782 987.500 C 567.604 983.100, 567.242 1004.475, 566.979 1035 M 189 1088.633 C 189 1089.202, 190.608 1091.429, 192.572 1093.583 L 196.145 1097.500 193.378 1093.500 C 189.650 1088.112, 189 1087.389, 189 1088.633 M 198.454 1098.461 C 199.528 1099.318, 202.003 1100.462, 203.954 1101.004 C 206.229 1101.636, 262.531 1101.905, 361 1101.754 L 514.500 1101.519 359 1101.009 C 211.847 1100.527, 203.312 1100.403, 200 1098.702 C 197.485 1097.409, 197.050 1097.341, 198.454 1098.461" stroke="none" fill="#183e85" fill-rule="evenodd"/><path d="M 546.815 388.790 C 547.723 389.417, 546.375 390.050, 542.452 390.838 C 539.329 391.465, 536.375 391.732, 535.887 391.430 C 535.399 391.129, 535 391.407, 535 392.048 C 535 392.691, 534.304 392.947, 533.448 392.618 C 532.594 392.291, 532.151 392.435, 532.463 392.939 C 533.197 394.128, 529.373 395.349, 527.854 394.410 C 527.149 393.974, 526.960 394.126, 527.373 394.795 C 528.219 396.163, 524.381 398.353, 522.825 397.392 C 522.078 396.930, 521.970 397.143, 522.510 398.015 C 523.101 398.972, 522.875 399.166, 521.696 398.714 C 520.798 398.369, 519.755 398.587, 519.378 399.198 C 518.933 399.918, 519.152 400.024, 520 399.500 C 520.892 398.949, 521.068 399.080, 520.553 399.914 C 520.138 400.586, 519.183 400.900, 518.431 400.612 C 517.679 400.323, 516.755 400.587, 516.378 401.198 C 515.921 401.936, 516.162 402.025, 517.095 401.463 C 518.295 400.740, 518.294 400.870, 517.090 402.354 C 516.314 403.309, 515.110 403.872, 514.413 403.605 C 513.716 403.338, 512.608 403.767, 511.951 404.559 C 511.293 405.352, 511.123 406, 511.574 406 C 512.024 406, 510.883 407.557, 509.038 409.461 C 507.193 411.365, 505.355 412.720, 504.955 412.472 C 504.554 412.225, 503.764 412.580, 503.198 413.261 C 502.174 414.495, 502 415.047, 502 417.059 C 502 417.641, 501.601 417.871, 501.113 417.570 C 500.625 417.268, 500.288 417.804, 500.363 418.761 C 500.439 419.723, 499.908 420.377, 499.176 420.225 C 498.447 420.074, 498.119 420.383, 498.446 420.912 C 499.292 422.281, 493.836 433.017, 492.663 432.292 C 492.123 431.958, 492.011 432.208, 492.410 432.854 C 493.347 434.370, 492.129 438.198, 490.943 437.465 C 490.422 437.143, 490.275 438.318, 490.599 440.200 C 491.021 442.647, 490.901 443.117, 490.133 442.019 C 489.385 440.950, 489.209 442.201, 489.499 446.519 C 489.816 451.225, 489.725 451.754, 489.073 449 C 488.545 446.768, 488.397 449.666, 488.664 457 C 489.478 479.345, 489.603 630.873, 488.807 630.381 C 488.363 630.107, 488 630.359, 488 630.941 C 488 631.523, 488.505 632, 489.122 632 C 489.901 632, 490.113 634.757, 489.814 640.998 C 489.555 646.419, 489.739 649.500, 490.276 648.748 C 490.835 647.966, 490.975 648.808, 490.652 651 C 490.368 652.925, 490.391 653.867, 490.703 653.093 C 491.418 651.322, 495.208 660.974, 494.516 662.802 C 494.215 663.598, 494.473 663.826, 495.181 663.388 C 495.962 662.905, 496.125 663.231, 495.681 664.388 C 495.319 665.332, 495.421 665.858, 495.907 665.558 C 497.043 664.855, 498.213 667.846, 497.349 669.245 C 496.931 669.921, 497.174 670.010, 498.015 669.490 C 498.975 668.897, 499.165 669.127, 498.706 670.324 C 498.315 671.343, 498.537 671.885, 499.286 671.738 C 499.954 671.607, 500.506 672.256, 500.513 673.179 C 500.520 674.103, 500.929 675.228, 501.423 675.679 C 501.950 676.161, 501.968 675.880, 501.468 675 C 500.734 673.707, 500.849 673.689, 502.308 674.872 C 504.258 676.454, 504.619 678.490, 502.750 677.367 C 501.890 676.851, 501.926 677.141, 502.863 678.297 C 503.613 679.222, 504.552 679.777, 504.951 679.530 C 506.041 678.857, 513.160 686.507, 512.270 687.396 C 511.847 687.820, 512.155 688.017, 512.955 687.833 C 513.755 687.650, 514.430 688.174, 514.455 688.999 C 514.480 689.823, 515.400 690.498, 516.500 690.499 C 517.600 690.499, 518.387 691.063, 518.250 691.750 C 518.112 692.438, 518.337 692.947, 518.750 692.882 C 520.735 692.568, 522.057 693.099, 521.507 693.989 C 521.144 694.576, 521.593 694.710, 522.612 694.319 C 523.868 693.836, 524.109 694.015, 523.510 694.985 C 522.995 695.816, 523.080 696.069, 523.736 695.663 C 524.997 694.884, 535.373 699.294, 534.450 700.217 C 534.094 700.573, 534.817 700.599, 536.057 700.275 C 537.555 699.883, 538.085 700.054, 537.634 700.783 C 537.170 701.534, 538.148 701.736, 540.728 701.422 C 543.079 701.136, 543.826 701.263, 542.711 701.758 C 541.727 702.196, 545.644 702.379, 551.414 702.165 C 561.752 701.782, 561.914 701.811, 562.494 704.138 C 562.818 705.437, 562.952 722.320, 562.792 741.655 C 562.631 760.991, 562.772 776.642, 563.104 776.437 C 563.436 776.231, 564.223 777.195, 564.854 778.578 C 566.314 781.784, 566.296 782.288, 564.750 781.399 C 564.024 780.981, 563.849 781.061, 564.333 781.590 C 564.792 782.090, 565.467 782.506, 565.833 782.514 C 567.322 782.546, 571.888 787.372, 571.311 788.305 C 570.970 788.857, 571.170 789.013, 571.755 788.651 C 573.062 787.844, 576.166 788.922, 575.525 789.960 C 575.269 790.373, 576.284 790.516, 577.780 790.277 C 579.378 790.022, 580.024 790.185, 579.345 790.672 C 578.678 791.150, 580.432 791.500, 583.500 791.500 C 586.592 791.500, 588.327 791.152, 587.655 790.666 C 586.997 790.191, 587.882 790.069, 589.711 790.383 C 591.477 790.686, 593.188 790.504, 593.513 789.979 C 593.854 789.427, 593.342 789.297, 592.302 789.671 C 591.311 790.027, 590.838 789.947, 591.250 789.492 C 591.663 789.038, 593.013 788.574, 594.250 788.462 C 595.488 788.350, 596.404 787.800, 596.287 787.241 C 596.040 786.058, 607.663 774.888, 608.761 775.254 C 609.168 775.389, 609.657 775.050, 609.849 774.500 C 610.741 771.940, 612.168 770, 613.158 770 C 613.839 770, 613.738 770.654, 612.890 771.750 C 611.762 773.206, 611.906 773.184, 613.744 771.616 C 614.959 770.580, 615.709 769.338, 615.411 768.857 C 614.836 767.925, 620.919 762.349, 622.107 762.718 C 622.493 762.838, 623.414 762.189, 624.154 761.276 C 625.101 760.108, 625.130 759.839, 624.250 760.367 C 620.797 762.442, 624.143 758.464, 635.245 747.294 C 642.260 740.236, 648.048 735.188, 648.797 735.476 C 649.516 735.751, 649.890 735.632, 649.630 735.210 C 648.783 733.839, 655.693 726.692, 657.053 727.533 C 657.833 728.015, 658.058 727.903, 657.647 727.237 C 656.778 725.833, 677.399 704.510, 678.793 705.372 C 679.381 705.735, 680.187 705.506, 680.585 704.862 C 681.076 704.068, 680.857 703.953, 679.905 704.506 C 679.132 704.954, 678.773 705.013, 679.107 704.636 C 679.441 704.260, 715.216 703.857, 758.607 703.741 L 837.500 703.530 761 702.992 L 684.500 702.453 764.155 702.477 C 807.966 702.489, 843.291 702.125, 842.655 701.667 C 842.009 701.201, 843.262 701.079, 845.500 701.389 C 847.700 701.694, 848.921 701.582, 848.214 701.141 C 846.469 700.051, 854.197 697.755, 856.559 698.661 C 857.690 699.095, 858.090 698.955, 857.670 698.275 C 856.884 697.003, 859.726 695.713, 861.245 696.651 C 861.921 697.069, 862.010 696.826, 861.490 695.985 C 860.891 695.015, 861.132 694.836, 862.388 695.319 C 863.357 695.691, 863.852 695.569, 863.524 695.039 C 863.205 694.523, 863.827 693.628, 864.906 693.050 C 867.500 691.662, 868.277 691.724, 867.399 693.250 C 866.981 693.976, 867.061 694.151, 867.590 693.667 C 868.090 693.208, 868.500 692.346, 868.500 691.750 C 868.500 691.154, 869.125 690.458, 869.889 690.204 C 870.839 689.887, 871.026 690.177, 870.479 691.120 C 870.007 691.935, 870.052 692.159, 870.590 691.667 C 871.090 691.208, 871.501 690.308, 871.503 689.667 C 871.504 689.025, 872.231 688.493, 873.117 688.485 C 875.074 688.467, 878.154 686.059, 877.525 685.040 C 876.960 684.127, 882.436 678.770, 883.177 679.510 C 883.473 679.806, 884.342 679.276, 885.107 678.332 C 886.029 677.197, 886.077 676.870, 885.250 677.367 C 883.381 678.490, 883.742 676.454, 885.692 674.872 C 887.151 673.689, 887.266 673.707, 886.532 675 C 886.032 675.880, 886.050 676.161, 886.577 675.679 C 887.071 675.228, 887.480 674.103, 887.487 673.179 C 887.494 672.256, 888.010 671.595, 888.632 671.711 C 889.255 671.827, 889.705 671.152, 889.632 670.211 C 889.560 669.270, 889.983 668.586, 890.573 668.691 C 891.163 668.796, 891.613 668.027, 891.573 666.982 C 891.533 665.937, 891.900 665.102, 892.388 665.126 C 893.407 665.177, 894.969 662.982, 894.969 661.500 C 894.969 660.950, 894.484 661.175, 893.890 662 C 892.993 663.248, 892.911 663.192, 893.406 661.668 C 893.733 660.661, 894 659.622, 894 659.359 C 894 659.097, 894.520 659.203, 895.155 659.595 C 895.886 660.048, 896.037 659.869, 895.566 659.107 C 895.158 658.446, 895.369 655.629, 896.037 652.846 C 896.704 650.064, 897.532 648.245, 897.875 648.803 C 898.219 649.362, 898.353 643.512, 898.173 635.803 C 897.905 624.356, 898.088 621.933, 899.173 622.585 C 900.088 623.136, 900.034 622.799, 899 621.500 C 898.126 620.402, 898.021 619.929, 898.750 620.367 C 899.637 620.900, 899.980 620.301, 899.930 618.309 C 899.868 615.838, 899.756 615.741, 899 617.500 C 898.298 619.134, 898.131 618.860, 898.086 616 C 898.045 613.388, 898.276 612.880, 899 614 C 900.260 615.949, 900.261 614.816, 899.003 611.508 C 898.340 609.765, 898.340 609.092, 899.003 609.502 C 899.551 609.841, 900 609.641, 900 609.059 C 900 608.477, 899.550 608, 899 608 C 898.450 608, 898.007 607.212, 898.015 606.250 C 898.028 604.754, 898.172 604.718, 899 606 C 899.709 607.098, 899.947 606.427, 899.885 603.500 C 899.812 600.030, 899.695 599.831, 899 602 L 898.199 604.500 898.100 601.750 C 898.042 600.171, 898.532 598.993, 899.250 598.985 C 900.083 598.974, 900 598.646, 899 598 C 898 597.354, 897.917 597.026, 898.750 597.015 C 899.461 597.007, 899.970 595.813, 899.930 594.250 C 899.866 591.774, 899.767 591.699, 898.932 593.500 C 898.180 595.122, 898.089 594.933, 898.449 592.500 C 899.778 583.520, 899.960 580.572, 899.067 582.500 C 898.357 584.032, 898.124 583.257, 898.070 579.191 C 898.027 575.890, 898.378 574.116, 899 574.500 C 899.612 574.878, 900 573.324, 900 570.500 C 900 567.676, 899.612 566.122, 899 566.500 C 898.450 566.840, 898 566.390, 898 565.500 C 898 564.610, 898.384 564.119, 898.852 564.409 C 899.321 564.699, 899.773 560.225, 899.855 554.468 C 899.948 548.035, 899.619 544, 899.003 544 C 898.451 544, 898.007 543.212, 898.015 542.250 C 898.028 540.754, 898.172 540.718, 899 542 C 899.650 543.005, 899.925 539.212, 899.834 530.500 C 899.741 521.505, 899.484 518.886, 899 522 L 898.300 526.500 898.150 521.191 C 898.056 517.872, 898.375 516.114, 899 516.500 C 899.569 516.852, 900 515.991, 900 514.500 C 900 513.009, 899.569 512.148, 899 512.500 C 898.450 512.840, 898 512.641, 898 512.059 C 898 511.477, 898.458 511, 899.017 511 C 899.699 511, 899.808 502.495, 899.348 485.250 C 898.970 471.087, 898.624 455.784, 898.580 451.241 C 898.536 446.699, 898.325 443.511, 898.111 444.157 C 897.898 444.803, 896.890 442.670, 895.872 439.416 C 894.854 436.162, 894.236 432.914, 894.499 432.198 C 894.762 431.482, 894.565 431.151, 894.061 431.463 C 892.930 432.161, 891.630 428.408, 892.510 426.984 C 892.861 426.416, 892.553 426.074, 891.824 426.225 C 891.092 426.377, 890.561 425.723, 890.637 424.761 C 890.715 423.772, 890.318 423.303, 889.717 423.675 C 889.052 424.086, 888.904 423.692, 889.319 422.612 C 889.710 421.593, 889.576 421.144, 888.989 421.507 C 888.082 422.067, 887.556 420.692, 887.906 418.676 C 887.985 418.222, 887.588 418.136, 887.025 418.485 C 886.461 418.833, 885.944 418.641, 885.875 418.059 C 885.806 417.477, 885.694 416.587, 885.625 416.083 C 885.556 415.579, 885.090 414.792, 884.590 414.333 C 884.054 413.843, 883.987 414.117, 884.426 415 C 884.837 415.825, 884.270 415.388, 883.165 414.028 C 882.060 412.668, 881.329 411.277, 881.539 410.936 C 881.750 410.596, 880.365 408.807, 878.461 406.962 C 876.557 405.117, 875 403.937, 875 404.339 C 875 404.741, 874.087 404.582, 872.972 403.985 C 871.809 403.363, 871.238 402.388, 871.632 401.700 C 872.011 401.040, 871.955 400.831, 871.509 401.234 C 871.063 401.638, 870.057 401.188, 869.275 400.234 C 868.492 399.281, 868.157 399.096, 868.530 399.824 C 869.088 400.911, 868.844 400.920, 867.169 399.874 C 866.047 399.173, 865.320 398.291, 865.554 397.913 C 865.787 397.535, 865.196 397.288, 864.239 397.363 C 863.277 397.439, 862.623 396.908, 862.775 396.176 C 862.926 395.447, 862.584 395.139, 862.016 395.490 C 860.476 396.442, 856.866 395.025, 857.640 393.773 C 858.040 393.126, 857.842 392.980, 857.146 393.410 C 855.686 394.312, 851.789 393.150, 852.487 392.021 C 852.771 391.562, 852.032 391.440, 850.845 391.751 C 849.330 392.147, 848.908 391.958, 849.427 391.117 C 849.967 390.244, 849.428 390.105, 847.435 390.606 C 845.629 391.059, 844.922 390.935, 845.351 390.241 C 845.780 389.547, 844.558 389.333, 841.750 389.611 C 838.410 389.941, 837.928 389.815, 839.500 389.019 C 840.963 388.279, 840.024 388.178, 836 388.643 C 828.601 389.498, 555.545 389.418, 549.927 388.559 C 547.177 388.138, 545.998 388.226, 546.815 388.790 M 547.416 425.412 C 541.905 427.138, 536.973 430.148, 537.709 431.338 C 538.039 431.872, 537.828 432.011, 537.239 431.648 C 536.082 430.933, 530 435.554, 530 437.148 C 530 437.681, 530.563 437.794, 531.250 437.399 C 531.976 436.981, 532.151 437.061, 531.667 437.590 C 531.208 438.090, 530.308 438.511, 529.667 438.524 C 529.025 438.537, 528.562 439.320, 528.637 440.263 C 528.715 441.235, 528.316 441.695, 527.717 441.325 C 527.052 440.914, 526.904 441.308, 527.319 442.388 C 527.681 443.332, 527.598 443.870, 527.135 443.583 C 526.671 443.297, 525.664 444.286, 524.896 445.781 C 523.735 448.043, 523.459 464.804, 523.254 545.500 C 523.080 614.126, 523.318 642.061, 524.070 641 C 524.905 639.819, 524.996 639.979, 524.498 641.750 C 523.737 644.455, 524.777 648.256, 526.061 647.463 C 526.565 647.151, 526.747 647.495, 526.466 648.227 C 526.186 648.959, 526.674 650.444, 527.552 651.529 C 528.430 652.613, 528.820 652.868, 528.420 652.095 C 527.936 651.164, 528.085 650.935, 528.862 651.415 C 529.506 651.813, 529.749 652.598, 529.402 653.159 C 528.532 654.566, 536.131 662.164, 537.776 661.533 C 538.506 661.252, 538.871 661.400, 538.586 661.861 C 537.823 663.095, 542.599 665.366, 544.059 664.463 C 544.921 663.931, 545.057 664.098, 544.498 665.003 C 543.894 665.980, 544.238 666.171, 545.845 665.751 C 547.226 665.390, 547.766 665.569, 547.346 666.249 C 546.902 666.968, 547.953 667.109, 550.595 666.684 C 553.355 666.241, 554.060 666.349, 553 667.054 C 551.980 667.732, 556.833 667.963, 568.156 667.776 C 577.317 667.624, 584.603 667.837, 584.347 668.250 C 583.905 668.963, 584.586 669.178, 588 669.404 C 588.825 669.458, 589.420 669.952, 589.321 670.501 C 589.067 671.925, 592.100 675.056, 593.122 674.424 C 593.592 674.134, 593.681 674.668, 593.319 675.612 C 592.875 676.769, 593.038 677.095, 593.819 676.612 C 594.599 676.130, 594.762 676.456, 594.319 677.612 C 593.954 678.562, 594.071 679.074, 594.580 678.759 C 595.132 678.417, 595.484 689.843, 595.461 707.345 L 595.421 736.500 596 709 L 596.580 681.500 596.540 709.770 C 596.511 730.550, 596.791 737.642, 597.599 736.536 C 598.203 735.708, 599.015 735.348, 599.402 735.735 C 599.789 736.122, 599.780 735.591, 599.383 734.555 C 598.927 733.368, 599.039 732.906, 599.685 733.305 C 600.712 733.940, 605.662 729.426, 605.316 728.169 C 605.214 727.801, 605.838 727.646, 606.701 727.825 C 607.717 728.035, 608.078 727.646, 607.723 726.721 C 607.374 725.812, 611.412 721.152, 618.838 713.896 L 630.500 702.500 619 714.437 C 612.675 721.003, 609.300 724.828, 611.500 722.937 C 613.700 721.047, 626.075 708.701, 639 695.502 C 651.925 682.302, 659.125 674.652, 655 678.502 L 647.500 685.500 654.425 678.299 C 658.233 674.338, 661.687 671.307, 662.100 671.562 C 663.137 672.202, 668.040 669.874, 667.499 668.998 C 667.258 668.608, 668.284 668.484, 669.780 668.723 C 671.378 668.978, 672.024 668.815, 671.345 668.328 C 670.711 667.873, 708.061 667.500, 754.345 667.500 C 800.630 667.500, 839.756 667.149, 841.291 666.721 C 842.826 666.292, 843.812 665.505, 843.483 664.972 C 843.149 664.432, 843.905 664.113, 845.192 664.251 C 846.504 664.393, 847.406 664.002, 847.282 663.345 C 847.162 662.710, 847.747 661.927, 848.584 661.606 C 849.524 661.245, 849.848 661.438, 849.431 662.111 C 848.136 664.207, 852.419 661.248, 855.862 657.668 C 857.947 655.501, 858.933 653.701, 858.458 652.932 C 857.976 652.152, 858.102 651.945, 858.795 652.373 C 860.183 653.231, 862.349 649.351, 861.588 647.370 C 861.277 646.559, 861.446 646.157, 861.963 646.477 C 864.817 648.241, 865.101 637.999, 864.803 544 C 864.636 491.475, 864.115 447.715, 863.645 446.756 C 863.175 445.796, 862.467 445.212, 862.071 445.456 C 861.676 445.701, 861.385 444.910, 861.426 443.700 C 861.470 442.376, 860.972 441.609, 860.176 441.775 C 859.447 441.926, 859.133 441.594, 859.478 441.036 C 860.224 439.828, 855.480 433.587, 852.127 431.365 C 850.383 430.209, 849.942 430.151, 850.464 431.146 C 850.854 431.891, 850.347 431.540, 849.337 430.367 C 846.805 427.427, 843.481 425.878, 841.408 426.674 C 840.269 427.111, 839.908 426.958, 840.358 426.229 C 840.831 425.465, 839.869 425.251, 837.272 425.545 C 834.156 425.898, 833.935 425.818, 836 425.086 C 837.475 424.563, 779.643 424.186, 695 424.167 C 581.206 424.141, 550.654 424.398, 547.416 425.412 M 628.750 425.750 C 664.637 425.895, 723.362 425.895, 759.250 425.750 C 795.137 425.604, 765.775 425.485, 694 425.485 C 622.225 425.485, 592.862 425.604, 628.750 425.750 M 732.768 475.725 C 734.565 475.947, 737.265 475.943, 738.768 475.715 C 740.271 475.486, 738.800 475.304, 735.500 475.310 C 732.200 475.315, 730.971 475.502, 732.768 475.725 M 641.345 477.334 C 641.995 477.804, 640.970 477.914, 639 477.586 C 636.344 477.143, 635.862 477.262, 637 478.080 C 638.182 478.928, 637.924 479.065, 635.780 478.723 C 634.085 478.452, 633.299 478.675, 633.694 479.314 C 634.079 479.937, 633.675 480.089, 632.664 479.701 C 631.748 479.350, 631 479.546, 631 480.138 C 631 480.730, 630.302 480.946, 629.448 480.618 C 628.434 480.229, 628.144 480.425, 628.612 481.181 C 629.087 481.951, 628.780 482.129, 627.696 481.714 C 626.798 481.369, 625.755 481.587, 625.378 482.198 C 624.933 482.918, 625.152 483.024, 626 482.500 C 626.892 481.949, 627.068 482.080, 626.553 482.914 C 626.138 483.586, 625.183 483.900, 624.431 483.612 C 623.679 483.323, 622.755 483.587, 622.378 484.198 C 621.933 484.918, 622.152 485.024, 623 484.500 C 623.892 483.949, 624.068 484.080, 623.553 484.914 C 623.138 485.586, 622.183 485.900, 621.431 485.612 C 620.679 485.323, 619.755 485.587, 619.378 486.198 C 618.936 486.913, 619.191 487.045, 620.095 486.568 C 620.868 486.160, 620.535 486.653, 619.355 487.663 C 618.175 488.673, 615.981 490.850, 614.480 492.500 C 612.979 494.150, 612.347 494.600, 613.077 493.500 C 614.223 491.773, 614.207 491.676, 612.963 492.788 C 612.171 493.497, 611.518 494.847, 611.512 495.788 C 611.505 496.730, 610.954 497.393, 610.286 497.262 C 609.618 497.131, 609.311 497.648, 609.604 498.411 C 609.897 499.174, 609.586 500.138, 608.914 500.553 C 608.080 501.068, 607.949 500.892, 608.500 500 C 609.039 499.127, 608.919 498.932, 608.138 499.415 C 607.494 499.813, 607.243 500.584, 607.580 501.129 C 608.478 502.582, 605.949 508.086, 604.729 507.333 C 604.143 506.970, 603.989 507.173, 604.376 507.800 C 605.268 509.243, 604.039 514.142, 602.953 513.471 C 602.494 513.187, 602.325 514.653, 602.578 516.728 C 602.846 518.937, 602.718 519.790, 602.268 518.787 C 601.846 517.845, 601.500 521.991, 601.500 528 C 601.500 534.009, 601.846 538.155, 602.268 537.213 C 602.704 536.240, 602.825 537.229, 602.547 539.500 C 602.180 542.490, 602.323 543.121, 603.113 542 C 603.903 540.877, 604.022 541.379, 603.586 544 C 603.252 546.001, 603.358 546.949, 603.832 546.214 C 604.878 544.595, 607.422 552.509, 606.392 554.175 C 605.930 554.922, 606.143 555.030, 607.015 554.490 C 607.985 553.891, 608.164 554.132, 607.681 555.388 C 607.238 556.544, 607.401 556.870, 608.181 556.388 C 608.953 555.911, 609.128 556.223, 608.706 557.324 C 608.315 558.343, 608.537 558.885, 609.286 558.738 C 609.954 558.607, 610.514 559.489, 610.530 560.697 C 610.547 561.905, 610.956 563.255, 611.440 563.697 C 611.942 564.154, 611.970 563.895, 611.506 563.095 C 610.940 562.121, 611.065 561.922, 611.914 562.447 C 612.586 562.862, 612.900 563.817, 612.612 564.569 C 612.323 565.321, 612.587 566.245, 613.198 566.622 C 613.911 567.063, 614.047 566.806, 613.578 565.905 C 613.176 565.132, 613.802 565.587, 614.968 566.915 C 616.134 568.243, 616.870 569.898, 616.603 570.592 C 616.337 571.286, 616.880 572.449, 617.809 573.177 C 619.266 574.317, 619.362 574.286, 618.500 572.953 C 617.950 572.102, 618.285 572.261, 619.245 573.307 C 620.204 574.353, 620.772 575.560, 620.506 575.991 C 620.240 576.421, 620.805 577.387, 621.761 578.137 C 623.368 579.397, 623.386 579.353, 622 577.552 C 621.175 576.481, 625 580.016, 630.500 585.408 C 636 590.800, 640.415 595.501, 640.311 595.856 C 639.957 597.058, 644.206 600.858, 645.395 600.402 C 646.045 600.153, 647.909 601.416, 649.538 603.209 C 651.978 605.894, 652.059 606.119, 650 604.484 L 647.500 602.500 649.344 604.683 C 650.358 605.883, 651.775 606.640, 652.493 606.364 C 653.788 605.867, 655.435 607.581, 655.507 609.500 C 655.528 610.050, 656.250 610.384, 657.111 610.243 C 657.973 610.102, 659.538 610.994, 660.589 612.226 C 662.482 614.445, 662.481 614.452, 660.500 612.983 C 658.664 611.622, 658.609 611.639, 659.823 613.191 C 660.551 614.120, 661.679 614.677, 662.330 614.427 C 662.981 614.177, 663.965 614.991, 664.516 616.236 C 665.067 617.481, 666.242 618.382, 667.126 618.237 C 668.010 618.092, 669.356 618.741, 670.117 619.679 C 671.298 621.135, 671.295 621.260, 670.095 620.537 C 669.162 619.975, 668.921 620.064, 669.378 620.802 C 669.755 621.413, 670.679 621.677, 671.431 621.388 C 672.183 621.100, 673.138 621.414, 673.553 622.086 C 674.078 622.935, 673.879 623.060, 672.905 622.494 C 672.086 622.019, 671.843 622.054, 672.321 622.577 C 672.772 623.071, 673.896 623.480, 674.818 623.487 C 675.740 623.494, 676.496 624.025, 676.497 624.667 C 676.499 625.308, 676.910 626.208, 677.410 626.667 C 677.939 627.151, 678.019 626.976, 677.601 626.250 C 676.529 624.387, 678.544 624.739, 680.128 626.692 C 681.296 628.133, 681.292 628.258, 680.095 627.537 C 679.162 626.975, 678.921 627.064, 679.378 627.802 C 679.755 628.413, 680.679 628.677, 681.431 628.388 C 682.183 628.100, 683.138 628.414, 683.553 629.086 C 684.068 629.920, 683.892 630.051, 683 629.500 C 682.127 628.961, 681.932 629.081, 682.415 629.862 C 682.813 630.506, 683.556 630.774, 684.067 630.458 C 685.028 629.865, 689.306 632.361, 688.577 633.090 C 688.351 633.315, 689.142 633.541, 690.333 633.591 C 691.525 633.641, 693.747 633.951, 695.270 634.279 C 696.794 634.607, 697.794 634.476, 697.492 633.988 C 696.814 632.890, 700.699 630.696, 701.952 631.470 C 702.452 631.779, 703.187 631.506, 703.585 630.862 C 704.068 630.081, 703.873 629.961, 703 630.500 C 702.108 631.051, 701.932 630.920, 702.447 630.086 C 702.862 629.414, 703.817 629.100, 704.569 629.388 C 705.321 629.677, 706.245 629.413, 706.622 628.802 C 707.079 628.064, 706.838 627.975, 705.905 628.537 C 704.708 629.258, 704.704 629.133, 705.872 627.692 C 707.456 625.739, 709.471 625.387, 708.399 627.250 C 707.981 627.976, 708.061 628.151, 708.590 627.667 C 709.090 627.208, 709.501 626.308, 709.503 625.667 C 709.504 625.025, 710.404 624.499, 711.503 624.499 C 712.609 624.498, 713.501 623.829, 713.503 622.999 C 713.504 622.169, 714.396 621.499, 715.503 621.499 C 716.609 621.498, 717.501 620.829, 717.503 619.999 C 717.504 619.174, 718.260 618.494, 719.182 618.487 C 720.104 618.480, 721.228 618.071, 721.679 617.577 C 722.148 617.064, 721.964 616.988, 721.250 617.399 C 720.563 617.794, 720 617.690, 720 617.166 C 720 616.012, 722.867 614.800, 723.977 615.486 C 724.415 615.756, 725.387 615.195, 726.137 614.239 C 727.397 612.631, 727.349 612.612, 725.500 613.983 C 723.519 615.452, 723.518 615.445, 725.411 613.226 C 726.462 611.994, 728.027 611.102, 728.889 611.243 C 729.750 611.384, 730.472 611.050, 730.493 610.500 C 730.565 608.581, 732.212 606.867, 733.507 607.364 C 734.225 607.640, 735.642 606.883, 736.656 605.683 L 738.500 603.500 736 605.484 C 733.912 607.142, 733.984 606.936, 736.437 604.234 C 739.317 601.063, 741.848 599.785, 740.367 602.250 C 739.870 603.077, 740.197 603.029, 741.332 602.107 C 742.276 601.342, 742.811 600.478, 742.522 600.189 C 741.867 599.533, 744.981 596, 746.214 596 C 746.711 596, 746.794 596.563, 746.398 597.250 C 746.002 597.938, 746.873 597.411, 748.335 596.079 C 749.796 594.748, 750.761 593.428, 750.478 593.145 C 749.835 592.502, 756.059 586, 757.319 586 C 757.828 586, 757.650 586.788, 756.923 587.750 C 756.196 588.712, 757.715 587.494, 760.300 585.042 C 764.845 580.731, 766.080 579.215, 764 580.500 C 762.199 581.613, 762.953 579.353, 765 577.500 C 766.100 576.505, 767 576.055, 767 576.500 C 767 576.945, 767.870 576.523, 768.933 575.561 C 769.995 574.599, 770.650 573.251, 770.387 572.566 C 770.124 571.881, 770.691 570.686, 771.646 569.910 C 773.159 568.683, 773.274 568.694, 772.532 570 C 772.024 570.894, 772.047 571.163, 772.590 570.667 C 773.090 570.208, 773.556 569.421, 773.625 568.917 C 773.694 568.412, 773.806 567.523, 773.875 566.941 C 773.944 566.359, 774.461 566.167, 775.025 566.515 C 775.588 566.864, 775.985 566.778, 775.906 566.324 C 775.570 564.386, 776.066 562.922, 776.887 563.430 C 777.375 563.732, 777.712 563.196, 777.637 562.239 C 777.562 561.283, 778.046 560.607, 778.714 560.738 C 779.463 560.885, 779.685 560.343, 779.294 559.324 C 778.872 558.223, 779.047 557.911, 779.819 558.388 C 780.599 558.870, 780.762 558.544, 780.319 557.388 C 779.875 556.231, 780.038 555.905, 780.819 556.388 C 781.599 556.870, 781.762 556.544, 781.319 555.388 C 780.836 554.132, 781.015 553.891, 781.985 554.490 C 782.869 555.037, 783.070 554.923, 782.590 554.146 C 781.629 552.590, 782.886 548.811, 784.112 549.569 C 784.700 549.933, 784.836 549.055, 784.459 547.334 C 783.984 545.164, 784.088 544.852, 784.904 546 C 785.560 546.924, 785.975 547.043, 785.985 546.309 C 785.993 545.654, 785.543 544.835, 784.984 544.490 C 784.425 544.144, 784.248 543.408, 784.590 542.854 C 785.194 541.877, 786.501 533.660, 787.349 525.500 C 787.713 522.008, 787.661 521.881, 786.945 524.500 C 786.329 526.752, 786.188 525.939, 786.377 521.241 C 786.534 517.336, 786.291 515.456, 785.730 516.241 C 785.167 517.030, 785.049 516.193, 785.414 514 C 785.770 511.864, 785.660 511.024, 785.131 511.845 C 784.489 512.842, 784.093 512.506, 783.602 510.549 C 783.237 509.096, 783.247 507.409, 783.624 506.800 C 784.070 506.078, 783.846 505.977, 782.985 506.510 C 782.015 507.109, 781.836 506.868, 782.319 505.612 C 782.762 504.456, 782.599 504.130, 781.819 504.612 C 781.038 505.095, 780.875 504.769, 781.319 503.612 C 781.762 502.456, 781.599 502.130, 780.819 502.612 C 780.038 503.095, 779.875 502.769, 780.319 501.612 C 780.762 500.456, 780.599 500.130, 779.819 500.612 C 779.049 501.087, 778.871 500.780, 779.286 499.696 C 779.631 498.798, 779.413 497.755, 778.802 497.378 C 778.089 496.937, 777.952 497.195, 778.420 498.095 C 778.820 498.868, 778.454 498.646, 777.606 497.603 C 776.758 496.559, 776.308 495.311, 776.606 494.828 C 776.905 494.345, 776.778 494.046, 776.324 494.164 C 775.871 494.281, 773.475 492.399, 771 489.982 C 768.525 487.564, 767.175 485.976, 768 486.453 C 768.882 486.963, 769.162 486.951, 768.679 486.423 C 768.228 485.929, 767.103 485.520, 766.179 485.513 C 765.256 485.506, 764.624 484.904, 764.775 484.176 C 764.926 483.447, 764.588 483.136, 764.025 483.485 C 763.461 483.833, 763 483.641, 763 483.059 C 763 482.477, 762.663 482.053, 762.250 482.118 C 760.137 482.452, 758.958 481.878, 759.605 480.830 C 760.083 480.057, 759.794 479.865, 758.754 480.264 C 756.508 481.126, 749.585 478.884, 751.225 477.826 C 751.945 477.361, 750.976 477.257, 749 477.586 C 747.030 477.914, 746.005 477.804, 746.656 477.334 C 747.299 476.870, 742.569 476.500, 736.003 476.500 C 729.310 476.500, 724.433 476.888, 724.745 477.395 C 725.049 477.887, 724.119 478.065, 722.679 477.789 C 721.057 477.479, 720.299 477.674, 720.687 478.302 C 721.070 478.923, 720.477 479.097, 719.155 478.751 C 717.968 478.440, 717.229 478.562, 717.513 479.021 C 718.211 480.150, 714.314 481.312, 712.854 480.410 C 712.077 479.930, 711.963 480.131, 712.510 481.015 C 713.109 481.985, 712.868 482.164, 711.612 481.681 C 710.643 481.309, 710.148 481.431, 710.476 481.961 C 711.261 483.232, 707.270 485.271, 705.729 484.386 C 705.053 483.997, 704.816 484.030, 705.202 484.459 C 705.589 484.887, 705.283 485.860, 704.524 486.619 C 702.802 488.341, 701.628 488.422, 702.633 486.750 C 703.149 485.890, 702.859 485.926, 701.703 486.863 C 700.778 487.613, 700.231 488.565, 700.487 488.980 C 701.110 489.986, 697.335 493.334, 695.230 493.643 C 693.300 493.926, 687.862 490.788, 685.862 488.238 C 684.606 486.635, 684.656 486.613, 686.500 487.952 C 688.212 489.194, 688.314 489.196, 687.212 487.963 C 686.503 487.171, 685.153 486.518, 684.212 486.512 C 683.270 486.505, 682.613 485.937, 682.750 485.250 C 682.888 484.562, 682.663 484.053, 682.250 484.118 C 680.265 484.432, 678.943 483.901, 679.493 483.011 C 679.856 482.424, 679.407 482.290, 678.388 482.681 C 677.231 483.125, 676.905 482.962, 677.388 482.181 C 677.870 481.401, 677.544 481.238, 676.388 481.681 C 675.231 482.125, 674.905 481.962, 675.388 481.181 C 675.870 480.401, 675.544 480.238, 674.388 480.681 C 673.132 481.164, 672.891 480.985, 673.490 480.015 C 674.023 479.154, 673.922 478.930, 673.200 479.376 C 672.591 479.753, 670.904 479.763, 669.451 479.398 C 667.450 478.896, 667.136 478.510, 668.155 477.807 C 669.034 477.201, 668.287 477.094, 666 477.500 C 664.075 477.842, 663.020 477.757, 663.655 477.311 C 664.289 476.865, 659.270 476.500, 652.500 476.500 C 645.669 476.500, 640.705 476.871, 641.345 477.334 M 351.500 593.087 C 352.894 593.747, 351.681 593.875, 347.500 593.510 C 343.030 593.120, 341.882 593.264, 343 594.074 C 344.127 594.891, 343.381 595.014, 340 594.567 C 336.598 594.117, 335.866 594.239, 337 595.069 C 338.144 595.906, 337.552 596.034, 334.500 595.611 C 331.526 595.199, 330.885 595.328, 332 596.113 C 333.131 596.908, 332.688 597.028, 330.200 596.599 C 327.869 596.197, 327.108 596.365, 327.607 597.173 C 328.086 597.948, 327.619 598.134, 326.155 597.751 C 324.772 597.389, 324.234 597.569, 324.655 598.251 C 325.076 598.933, 324.538 599.112, 323.155 598.751 C 321.786 598.393, 321.235 598.571, 321.648 599.239 C 322.078 599.935, 321.373 600.060, 319.565 599.606 C 317.950 599.200, 317.069 599.302, 317.410 599.855 C 318.187 601.112, 315.412 602.095, 313.336 601.299 C 312.326 600.911, 311.921 601.063, 312.305 601.684 C 313.151 603.054, 308.463 605.115, 306.348 604.303 C 305.329 603.912, 304.920 604.061, 305.305 604.684 C 305.653 605.247, 304.798 606.227, 303.405 606.861 C 301.402 607.774, 301.025 607.752, 301.600 606.758 C 302 606.066, 301.150 606.737, 299.711 608.250 C 296.960 611.143, 295.438 611.860, 296.528 609.750 C 296.883 609.063, 296.296 609.577, 295.224 610.894 C 294.152 612.210, 292.794 612.991, 292.206 612.628 C 291.619 612.264, 290.813 612.494, 290.415 613.138 C 289.932 613.919, 290.127 614.039, 291 613.500 C 291.892 612.949, 292.068 613.080, 291.553 613.914 C 291.138 614.586, 290.183 614.900, 289.431 614.612 C 288.679 614.323, 287.755 614.587, 287.378 615.198 C 286.937 615.911, 287.195 616.048, 288.095 615.580 C 288.868 615.180, 288.646 615.546, 287.603 616.394 C 286.559 617.242, 285.373 617.730, 284.966 617.479 C 284.559 617.228, 283.613 617.805, 282.863 618.761 C 281.678 620.274, 281.701 620.370, 283.047 619.500 C 283.898 618.950, 283.739 619.285, 282.693 620.245 C 281.647 621.204, 280.449 621.777, 280.029 621.518 C 279.610 621.259, 278.420 622.049, 277.384 623.274 L 275.500 625.500 277.750 623.595 C 282.329 619.719, 279.743 622.718, 272.234 629.994 C 267.980 634.116, 265.850 635.916, 267.500 633.994 L 270.500 630.500 267.260 633.427 C 265.479 635.037, 264.225 636.559, 264.475 636.809 C 265.376 637.710, 262.873 641.040, 261.795 640.373 C 261.187 639.997, 260.970 640.143, 261.313 640.698 C 261.656 641.252, 261.242 642.559, 260.394 643.603 C 259.546 644.646, 259.182 644.825, 259.586 644 C 260.011 643.133, 259.942 642.846, 259.423 643.321 C 258.929 643.772, 258.520 644.897, 258.513 645.821 C 258.506 646.744, 257.954 647.393, 257.286 647.262 C 256.618 647.131, 256.311 647.648, 256.604 648.411 C 256.897 649.174, 256.586 650.138, 255.914 650.553 C 255.080 651.068, 254.949 650.892, 255.500 650 C 256.039 649.127, 255.919 648.932, 255.138 649.415 C 254.494 649.813, 254.217 650.542, 254.522 651.035 C 255.325 652.335, 251.101 660.180, 249.973 659.483 C 249.430 659.147, 249.305 659.631, 249.681 660.612 C 250.164 661.868, 249.985 662.109, 249.015 661.510 C 248.111 660.950, 247.929 661.076, 248.442 661.906 C 249.254 663.220, 247.177 669.228, 246.134 668.583 C 245.785 668.367, 245.455 669.161, 245.399 670.345 C 245.203 674.529, 240.403 690.071, 239.548 689.291 C 239.067 688.852, 238.989 689.352, 239.372 690.413 C 239.752 691.465, 239.742 695.065, 239.351 698.413 C 238.871 702.511, 238.453 703.745, 238.069 702.191 C 237.756 700.921, 237.500 707.135, 237.500 716 C 237.500 724.865, 237.756 731.079, 238.069 729.809 C 238.453 728.255, 238.871 729.489, 239.351 733.587 C 239.742 736.935, 239.781 740.535, 239.437 741.587 C 238.909 743.201, 238.995 743.266, 239.988 742 C 240.926 740.805, 241.053 741.315, 240.611 744.500 C 240.306 746.700, 240.405 747.942, 240.831 747.260 C 241.305 746.502, 242.467 748.949, 243.826 753.568 C 245.047 757.719, 245.741 761.609, 245.369 762.212 C 244.931 762.921, 245.159 763.020, 246.015 762.490 C 246.985 761.891, 247.164 762.132, 246.681 763.388 C 246.318 764.334, 246.434 764.850, 246.939 764.537 C 248.128 763.803, 249.349 767.627, 248.410 769.146 C 247.971 769.855, 248.126 770.040, 248.807 769.619 C 250.188 768.766, 254.368 776.595, 253.383 778.189 C 252.930 778.922, 253.149 779.026, 254.015 778.490 C 254.972 777.899, 255.166 778.125, 254.714 779.304 C 254.369 780.202, 254.587 781.245, 255.198 781.622 C 255.918 782.067, 256.024 781.848, 255.500 781 C 254.949 780.108, 255.080 779.932, 255.914 780.447 C 256.586 780.862, 256.886 781.855, 256.580 782.653 C 256.269 783.463, 256.459 783.834, 257.011 783.493 C 257.555 783.157, 258.056 783.359, 258.125 783.941 C 258.194 784.523, 258.306 785.412, 258.375 785.917 C 258.444 786.421, 258.910 787.208, 259.410 787.667 C 259.953 788.163, 259.976 787.894, 259.468 787 C 258.732 785.703, 258.847 785.687, 260.321 786.883 C 261.259 787.644, 261.908 788.852, 261.763 789.568 C 261.618 790.283, 261.950 790.930, 262.500 791.006 C 263.881 791.195, 267 794.112, 267 795.214 C 267 795.711, 266.438 795.794, 265.750 795.398 C 265.063 795.002, 265.591 795.875, 266.924 797.339 C 269.867 800.569, 271.070 800.901, 268.412 797.750 C 266.662 795.675, 266.725 795.686, 269.226 797.895 C 270.718 799.213, 271.655 800.788, 271.309 801.395 C 270.963 802.003, 271.058 802.156, 271.520 801.736 C 272.557 800.794, 278.138 805.968, 277.390 807.178 C 277.094 807.657, 277.427 807.926, 278.130 807.775 C 278.834 807.624, 279.440 808.175, 279.477 809 C 279.514 809.825, 280.288 810.376, 281.197 810.223 C 282.832 809.950, 284.455 811.567, 284.485 813.499 C 284.493 814.048, 285.399 814.498, 286.497 814.499 C 287.604 814.499, 288.496 815.169, 288.497 815.999 C 288.499 816.829, 289.391 817.498, 290.500 817.499 C 291.600 817.499, 292.393 818.046, 292.262 818.714 C 292.131 819.382, 292.648 819.689, 293.411 819.396 C 294.174 819.103, 295.138 819.414, 295.553 820.086 C 296.068 820.920, 295.892 821.051, 295 820.500 C 294.152 819.976, 293.933 820.082, 294.378 820.802 C 294.755 821.413, 295.798 821.631, 296.696 821.286 C 297.780 820.871, 298.087 821.049, 297.612 821.819 C 297.130 822.599, 297.456 822.762, 298.612 822.319 C 299.868 821.836, 300.109 822.015, 299.510 822.985 C 298.982 823.837, 299.079 824.069, 299.780 823.636 C 301.120 822.807, 310.097 827.033, 309.399 828.164 C 309.122 828.611, 309.668 828.681, 310.612 828.319 C 311.708 827.898, 312.088 828.049, 311.663 828.737 C 311.232 829.434, 311.759 829.614, 313.155 829.249 C 314.762 828.829, 315.106 829.020, 314.502 829.997 C 313.962 830.870, 314.081 831.068, 314.854 830.590 C 316.276 829.711, 320.219 830.836, 319.545 831.928 C 319.278 832.358, 320.284 832.516, 321.780 832.277 C 323.924 831.935, 324.182 832.072, 323 832.920 C 321.862 833.738, 322.344 833.857, 325 833.414 C 327.666 832.970, 328.143 833.090, 327 833.914 C 325.857 834.739, 326.334 834.858, 329 834.414 C 331.725 833.961, 332.168 834.080, 331 834.953 C 329.844 835.817, 330.416 835.934, 333.500 835.462 C 336.212 835.047, 337.054 835.162, 336.115 835.818 C 335.169 836.478, 336.279 836.656, 339.615 836.380 C 342.333 836.155, 343.742 836.313, 342.792 836.738 C 341.853 837.157, 348.969 837.500, 358.607 837.500 C 368.245 837.500, 375.089 837.169, 373.815 836.764 C 372.520 836.353, 373.923 836.231, 377 836.489 C 381.044 836.827, 382.103 836.669, 381 835.892 C 379.876 835.099, 380.446 834.966, 383.272 835.358 C 385.867 835.718, 386.833 835.539, 386.366 834.783 C 385.919 834.061, 386.425 833.878, 387.845 834.249 C 389.214 834.607, 389.765 834.429, 389.352 833.761 C 388.921 833.063, 389.678 832.936, 391.601 833.385 C 393.857 833.911, 394.167 833.815, 393 832.952 C 391.801 832.066, 392.046 831.931, 394.220 832.277 C 395.807 832.531, 396.692 832.310, 396.345 831.748 C 395.985 831.166, 396.640 831.068, 398 831.500 C 399.453 831.961, 400.024 831.847, 399.611 831.179 C 398.822 829.903, 402.543 828.600, 404.146 829.590 C 404.842 830.020, 405.040 829.874, 404.640 829.227 C 403.830 827.916, 407.510 826.579, 409.146 827.590 C 409.923 828.070, 410.037 827.869, 409.490 826.985 C 408.891 826.015, 409.132 825.836, 410.388 826.319 C 411.544 826.762, 411.870 826.599, 411.388 825.819 C 410.905 825.038, 411.231 824.875, 412.388 825.319 C 413.544 825.762, 413.870 825.599, 413.388 824.819 C 412.905 824.038, 413.231 823.875, 414.388 824.319 C 415.544 824.762, 415.870 824.599, 415.388 823.819 C 414.905 823.038, 415.231 822.875, 416.388 823.319 C 417.544 823.762, 417.870 823.599, 417.388 822.819 C 416.913 822.049, 417.220 821.871, 418.304 822.286 C 419.202 822.631, 420.245 822.413, 420.622 821.802 C 421.064 821.087, 420.809 820.955, 419.905 821.432 C 419.132 821.840, 419.625 821.245, 421 820.109 C 422.375 818.974, 423.924 818.034, 424.441 818.022 C 424.959 818.010, 424.509 818.700, 423.441 819.555 C 421.575 821.050, 421.587 821.068, 423.740 820.025 C 424.972 819.429, 425.872 818.391, 425.740 817.720 C 425.608 817.049, 426.270 816.560, 427.211 816.632 C 428.152 816.705, 428.827 816.255, 428.711 815.632 C 428.595 815.010, 429.175 814.491, 430 814.481 C 430.825 814.470, 431.651 814.020, 431.835 813.481 C 432.527 811.455, 434.363 809.925, 435.554 810.382 C 436.232 810.643, 437.813 809.763, 439.068 808.428 C 440.322 807.092, 440.954 806, 440.471 806 C 439.989 806, 441.334 804.219, 443.460 802.041 C 445.586 799.864, 447.636 798.275, 448.017 798.511 C 448.398 798.746, 449.787 797.755, 451.105 796.308 C 452.422 794.861, 452.938 794.002, 452.250 794.398 C 451.563 794.794, 451 794.711, 451 794.214 C 451 793.207, 453.953 790.319, 455.493 789.821 C 456.039 789.645, 456.371 788.998, 456.230 788.383 C 456.089 787.769, 456.767 786.644, 457.737 785.883 C 459.375 784.598, 459.394 784.642, 458 786.500 C 456.621 788.338, 456.637 788.393, 458.191 787.177 C 459.120 786.449, 459.652 785.257, 459.372 784.528 C 459.093 783.799, 459.414 782.862, 460.086 782.447 C 460.920 781.932, 461.051 782.108, 460.500 783 C 459.976 783.848, 460.082 784.067, 460.802 783.622 C 461.413 783.245, 461.677 782.321, 461.388 781.569 C 461.100 780.817, 461.414 779.862, 462.086 779.447 C 462.920 778.932, 463.051 779.108, 462.500 780 C 461.961 780.873, 462.081 781.068, 462.862 780.585 C 463.506 780.187, 463.784 779.460, 463.480 778.968 C 462.675 777.666, 467.897 767.819, 469.024 768.515 C 469.571 768.853, 469.696 768.372, 469.319 767.388 C 468.833 766.123, 469.013 765.890, 470 766.500 C 470.955 767.090, 471.172 766.889, 470.753 765.800 C 470.099 764.093, 475.458 747.168, 476.201 748.595 C 476.460 749.093, 476.512 748.877, 476.316 748.116 C 476.120 747.354, 476.252 745.172, 476.610 743.267 C 477.093 740.690, 477.507 740.148, 478.224 741.151 C 478.927 742.133, 479.016 741.973, 478.553 740.559 C 478.203 739.492, 478.249 735.442, 478.655 731.559 C 479.202 726.327, 479.536 725.263, 479.947 727.448 C 480.251 729.069, 480.500 722.858, 480.500 713.644 C 480.500 704.431, 480.173 697.930, 479.773 699.197 C 479.338 700.573, 479.182 699.354, 479.384 696.165 C 479.608 692.632, 479.405 691.281, 478.781 692.165 C 478.165 693.038, 478.044 691.942, 478.433 689 C 478.883 685.602, 478.760 684.867, 477.933 686 C 477.081 687.168, 476.976 686.872, 477.459 684.666 C 477.907 682.621, 477.750 682.036, 476.894 682.565 C 476.035 683.097, 475.897 682.546, 476.394 680.565 C 476.895 678.572, 476.756 678.033, 475.883 678.573 C 475.042 679.092, 474.853 678.670, 475.249 677.155 C 475.611 675.772, 475.431 675.234, 474.749 675.655 C 474.067 676.076, 473.888 675.538, 474.249 674.155 C 474.614 672.759, 474.434 672.232, 473.737 672.663 C 473.049 673.088, 472.898 672.708, 473.319 671.612 C 473.759 670.464, 473.598 670.131, 472.831 670.604 C 472.051 671.086, 471.865 670.623, 472.249 669.155 C 472.560 667.968, 472.453 667.220, 472.012 667.493 C 471.005 668.115, 469.796 665.139, 470.556 663.910 C 470.865 663.409, 470.593 663, 469.952 663 C 469.309 663, 469.053 662.304, 469.382 661.448 C 469.771 660.434, 469.575 660.144, 468.819 660.612 C 468.038 661.095, 467.875 660.769, 468.319 659.612 C 468.762 658.456, 468.599 658.130, 467.819 658.612 C 467.049 659.087, 466.871 658.780, 467.286 657.696 C 467.631 656.798, 467.413 655.755, 466.802 655.378 C 466.082 654.933, 465.976 655.152, 466.500 656 C 467.051 656.892, 466.920 657.068, 466.086 656.553 C 465.414 656.138, 465.114 655.145, 465.420 654.347 C 465.727 653.549, 465.555 653.157, 465.039 653.476 C 463.904 654.177, 461.675 650.335, 462.470 649.048 C 462.779 648.548, 462.506 647.813, 461.862 647.415 C 461.081 646.932, 460.961 647.127, 461.500 648 C 462.051 648.892, 461.920 649.068, 461.086 648.553 C 460.414 648.138, 460.100 647.183, 460.388 646.431 C 460.677 645.679, 460.413 644.755, 459.802 644.378 C 459.064 643.921, 458.975 644.162, 459.537 645.095 C 460.260 646.295, 460.130 646.294, 458.646 645.090 C 457.691 644.314, 457.135 643.091, 457.411 642.372 C 457.687 641.653, 457.413 640.755, 456.802 640.378 C 456.064 639.921, 455.975 640.162, 456.537 641.095 C 457.258 642.292, 457.133 642.296, 455.692 641.128 C 453.739 639.544, 453.387 637.529, 455.250 638.602 C 455.938 638.998, 455.409 638.125, 454.076 636.661 C 451.131 633.428, 449.953 633.110, 452.554 636.250 C 453.579 637.487, 452.945 637.113, 451.145 635.417 C 449.345 633.721, 447.729 631.471, 447.553 630.417 C 447.378 629.363, 446.843 628.575, 446.366 628.667 C 445.888 628.759, 443.472 627.015, 440.998 624.791 C 438.524 622.567, 437.400 621.366, 438.500 622.123 C 440.335 623.386, 440.387 623.356, 439.137 621.761 C 438.387 620.805, 437.421 620.240, 436.991 620.506 C 436.560 620.772, 435.353 620.204, 434.307 619.245 C 433.261 618.285, 433.102 617.950, 433.953 618.500 C 435.286 619.362, 435.317 619.266, 434.177 617.809 C 433.449 616.880, 432.284 616.338, 431.587 616.605 C 430.890 616.872, 429.686 616.309, 428.910 615.354 C 427.999 614.231, 427.942 613.882, 428.750 614.367 C 429.438 614.780, 430 614.882, 430 614.594 C 430 614.306, 429.046 613.560, 427.879 612.935 C 426.161 612.016, 425.913 612.057, 426.571 613.150 C 427.635 614.917, 424.273 612.446, 421.663 609.543 C 420.653 608.419, 420.153 608.121, 420.552 608.880 C 421.040 609.807, 420.823 610.094, 419.889 609.755 C 419.125 609.477, 418.607 608.760, 418.738 608.161 C 418.875 607.532, 418.278 607.340, 417.324 607.706 C 416.223 608.128, 415.911 607.953, 416.388 607.181 C 416.855 606.426, 416.567 606.229, 415.560 606.615 C 414.652 606.964, 413.764 606.550, 413.404 605.609 C 413.066 604.731, 412.428 604.235, 411.985 604.509 C 410.833 605.221, 407.915 603.946, 408.507 602.988 C 408.780 602.547, 408.032 602.440, 406.845 602.751 C 405.377 603.135, 404.914 602.949, 405.396 602.169 C 405.869 601.402, 405.536 601.241, 404.388 601.681 C 403.292 602.102, 402.912 601.951, 403.337 601.263 C 403.768 600.566, 403.241 600.386, 401.845 600.751 C 400.462 601.112, 399.924 600.933, 400.345 600.251 C 400.766 599.569, 400.228 599.389, 398.845 599.751 C 397.462 600.112, 396.924 599.933, 397.345 599.251 C 397.766 598.569, 397.228 598.389, 395.845 598.751 C 394.226 599.174, 393.892 598.983, 394.508 597.988 C 395.105 597.021, 394.873 596.835, 393.653 597.303 C 391.326 598.196, 385.448 596.959, 387.117 595.927 C 387.821 595.493, 386.394 595.338, 383.948 595.584 C 380.637 595.917, 380.011 595.788, 381.500 595.079 C 382.956 594.385, 382.141 594.250, 378.500 594.581 C 374.937 594.906, 374.075 594.770, 375.500 594.108 C 376.863 593.476, 375.112 593.306, 370 593.575 C 364.857 593.846, 363.286 593.692, 365 593.085 C 366.796 592.448, 364.967 592.191, 358.500 592.170 C 352.114 592.149, 350.081 592.416, 351.500 593.087 M 899.370 634 C 899.370 639.775, 899.535 642.138, 899.737 639.250 C 899.939 636.362, 899.939 631.638, 899.737 628.750 C 899.535 625.862, 899.370 628.225, 899.370 634 M 352 627.939 C 353.571 628.404, 351.714 628.651, 347 628.602 C 338.830 628.518, 330.531 630.432, 331.595 632.154 C 332.014 632.832, 331.536 632.987, 330.266 632.584 C 327.765 631.791, 324.801 632.868, 325.660 634.259 C 326.030 634.857, 325.831 635.014, 325.199 634.623 C 324.077 633.929, 317 636.399, 317 637.484 C 317 637.807, 317.939 637.568, 319.086 636.954 C 320.233 636.340, 321.352 636.019, 321.573 636.240 C 321.794 636.461, 320.374 637.405, 318.418 638.338 C 316.257 639.368, 315.154 639.560, 315.608 638.826 C 316.626 637.177, 308.988 641.804, 306.500 644.343 L 304.500 646.383 306.500 644.942 C 308.329 643.623, 308.387 643.645, 307.177 645.191 C 306.449 646.120, 305.319 646.676, 304.665 646.425 C 303.103 645.825, 289.798 659.259, 290.194 661.036 C 290.362 661.791, 289.825 662.440, 289 662.479 C 288.175 662.517, 287.560 663.307, 287.632 664.235 C 287.705 665.163, 287.255 665.827, 286.632 665.711 C 286.010 665.595, 285.562 666.283, 285.637 667.239 C 285.712 668.196, 285.398 668.746, 284.937 668.461 C 283.763 667.735, 281.756 671.797, 282.608 673.175 C 283.070 673.922, 282.857 674.030, 281.985 673.490 C 281.015 672.891, 280.836 673.132, 281.319 674.388 C 281.682 675.334, 281.566 675.850, 281.061 675.537 C 279.872 674.803, 278.651 678.627, 279.590 680.146 C 280.020 680.842, 279.874 681.040, 279.227 680.640 C 277.916 679.830, 276.579 683.510, 277.590 685.146 C 278.066 685.916, 277.870 686.038, 277.009 685.505 C 276.009 684.888, 275.867 685.334, 276.394 687.435 C 276.810 689.091, 276.703 689.934, 276.122 689.575 C 274.288 688.442, 272.015 702.485, 272.063 714.661 C 272.116 728.019, 272.754 733.270, 274.217 732.366 C 274.834 731.985, 274.954 732.569, 274.533 733.897 C 273.619 736.774, 274.860 742.205, 276.236 741.354 C 276.890 740.950, 277.016 741.164, 276.560 741.902 C 275.471 743.665, 276.822 748.228, 278.184 747.386 C 278.874 746.960, 279.031 747.141, 278.590 747.854 C 277.651 749.373, 278.872 753.197, 280.061 752.463 C 280.565 752.151, 280.750 752.489, 280.472 753.213 C 279.896 754.713, 288.970 769.951, 291.701 772.070 C 293.177 773.215, 293.141 773.020, 291.500 770.983 L 289.500 768.500 291.726 770.384 C 292.951 771.420, 293.700 772.677, 293.390 773.177 C 292.652 774.372, 294.968 777.138, 296.113 776.430 C 296.601 776.129, 297 776.558, 297 777.384 C 297 779.019, 300.889 782.187, 302.029 781.482 C 302.416 781.243, 303.580 782.049, 304.616 783.274 L 306.500 785.500 304 783.507 L 301.500 781.514 303.952 784.287 C 305.301 785.811, 306.974 786.840, 307.670 786.573 C 308.366 786.306, 309.245 786.587, 309.622 787.198 C 310.063 787.911, 309.805 788.048, 308.905 787.580 C 306.894 786.537, 311.125 789.941, 313.371 791.173 C 314.833 791.975, 315.090 791.905, 314.547 790.850 C 314.164 790.107, 314.492 790.281, 315.275 791.234 C 316.057 792.188, 316.991 792.676, 317.349 792.318 C 317.707 791.960, 318 792.217, 318 792.890 C 318 794.479, 326.701 798.329, 328.625 797.590 C 329.438 797.278, 329.851 797.431, 329.543 797.931 C 328.659 799.360, 335.661 801.226, 339.253 800.518 C 341.810 800.014, 342.181 800.121, 341 801.020 C 339.836 801.906, 340.507 802.028, 344 801.567 C 346.475 801.239, 347.965 801.325, 347.310 801.758 C 346.656 802.190, 352.010 802.563, 359.208 802.587 C 366.407 802.611, 371.442 802.292, 370.398 801.878 C 369.354 801.465, 370.750 801.360, 373.500 801.646 C 376.833 801.992, 378.048 801.846, 377.144 801.208 C 376.190 800.535, 376.935 800.281, 379.656 800.352 C 383.922 800.464, 393.305 797.302, 392.512 796.020 C 392.237 795.574, 392.707 794.943, 393.558 794.616 C 394.494 794.257, 394.847 794.438, 394.453 795.076 C 393.651 796.374, 404.741 790.790, 407.500 788.507 C 408.600 787.596, 408.825 787.182, 408 787.586 C 407.133 788.011, 406.846 787.942, 407.321 787.423 C 407.772 786.929, 408.896 786.520, 409.818 786.513 C 410.740 786.506, 411.506 785.825, 411.520 785 C 411.534 784.175, 412.228 783.611, 413.064 783.746 C 413.900 783.881, 416.814 781.633, 419.542 778.749 L 424.500 773.507 420 777.503 L 415.500 781.500 419.453 777.250 C 421.627 774.913, 423.990 773, 424.703 773 C 425.416 773, 426.056 772.550, 426.125 772 C 426.194 771.450, 426.306 770.573, 426.375 770.050 C 426.444 769.528, 427.153 768.515, 427.952 767.800 C 429.221 766.664, 429.221 766.744, 427.952 768.442 C 426.947 769.786, 426.898 770.145, 427.791 769.608 C 429.947 768.311, 434.118 761, 433.382 759.808 C 432.930 759.078, 433.150 758.975, 434.015 759.510 C 434.975 760.103, 435.165 759.873, 434.706 758.676 C 434.315 757.657, 434.537 757.115, 435.286 757.262 C 435.958 757.394, 436.467 756.519, 436.426 755.300 C 436.385 754.082, 436.796 753.374, 437.346 753.714 C 437.939 754.081, 438.074 753.637, 437.681 752.612 C 437.290 751.593, 437.424 751.144, 438.011 751.507 C 438.949 752.087, 439.168 751.653, 439.400 748.750 C 439.455 748.063, 440.006 746.962, 440.625 746.304 C 443.144 743.625, 446.409 726.654, 446.455 716 C 446.505 704.236, 445.375 695.650, 443.896 696.564 C 443.293 696.937, 443.182 696.122, 443.606 694.435 C 444.060 692.627, 443.935 691.922, 443.239 692.352 C 442.571 692.765, 442.393 692.214, 442.751 690.845 C 443.147 689.330, 442.958 688.908, 442.117 689.427 C 441.244 689.967, 441.105 689.428, 441.606 687.435 C 442.087 685.516, 441.954 684.911, 441.157 685.403 C 440.431 685.852, 440.234 685.554, 440.610 684.574 C 441.163 683.132, 434.091 668.662, 431.777 666.500 C 431.032 665.804, 430.952 665.956, 431.514 667 C 431.984 667.875, 431.946 668.158, 431.423 667.679 C 430.929 667.228, 430.520 666.103, 430.513 665.179 C 430.506 664.256, 429.954 663.607, 429.286 663.738 C 428.618 663.869, 428.301 663.379, 428.581 662.648 C 428.862 661.918, 428.309 660.686, 427.354 659.910 C 425.841 658.682, 425.730 658.694, 426.500 660 C 427.262 661.294, 427.151 661.311, 425.692 660.128 C 423.860 658.642, 423.372 657.494, 425 658.500 C 426.930 659.693, 425.969 657.913, 422.809 654.440 C 421.054 652.511, 419.076 651.140, 418.415 651.394 C 417.754 651.648, 416.153 650.651, 414.856 649.178 L 412.500 646.500 415.500 648.996 L 418.500 651.493 415.562 648.246 C 413.946 646.460, 411.932 645.111, 411.085 645.249 C 410.238 645.387, 409.524 644.825, 409.498 644 C 409.473 643.175, 408.680 642.562, 407.737 642.637 C 406.793 642.712, 406.258 642.392, 406.546 641.925 C 406.835 641.459, 405.255 640.150, 403.035 639.018 C 400.816 637.886, 399 637.280, 399 637.671 C 399 638.062, 398.390 637.548, 397.645 636.529 C 396.792 635.363, 395.660 634.917, 394.593 635.326 C 393.660 635.684, 393.139 635.584, 393.435 635.105 C 394.138 633.968, 388.443 631.608, 387.060 632.463 C 386.477 632.823, 386 632.659, 386 632.098 C 386 630.612, 378.544 628.841, 375.287 629.552 C 373.065 630.038, 372.804 629.931, 374 629.023 C 375.151 628.149, 373.990 628.006, 369 628.407 C 364.694 628.753, 363.344 628.637, 365 628.064 C 366.756 627.457, 364.823 627.199, 358.500 627.199 C 353.023 627.199, 350.479 627.489, 352 627.939 M 551.768 703.725 C 553.565 703.947, 556.265 703.943, 557.768 703.715 C 559.271 703.486, 557.800 703.304, 554.500 703.310 C 551.200 703.315, 549.971 703.502, 551.768 703.725 M 354.728 838.722 C 356.503 838.943, 359.653 838.946, 361.728 838.730 C 363.802 838.513, 362.350 838.333, 358.500 838.328 C 354.650 838.324, 352.952 838.501, 354.728 838.722 M 279 848.085 C 280.744 848.702, 279.685 848.821, 275.500 848.478 C 271.022 848.112, 269.881 848.263, 271 849.074 C 272.127 849.891, 271.381 850.014, 268 849.567 C 264.647 849.123, 263.882 849.246, 265 850.046 C 266.133 850.858, 265.644 850.969, 263 850.500 C 260.283 850.018, 259.835 850.129, 261 851 C 262.165 851.871, 261.717 851.982, 259 851.500 C 256.885 851.125, 255.998 851.225, 256.759 851.754 C 258.239 852.783, 247.590 856.483, 245.992 855.495 C 245.446 855.158, 245 855.407, 245 856.048 C 245 856.691, 244.304 856.947, 243.448 856.618 C 242.434 856.229, 242.144 856.425, 242.612 857.181 C 243.090 857.955, 242.775 858.128, 241.664 857.701 C 240.749 857.350, 240 857.485, 240 858 C 240 858.515, 239.251 858.650, 238.336 858.299 C 237.292 857.898, 236.917 858.057, 237.330 858.725 C 238.116 859.997, 235.274 861.287, 233.755 860.349 C 233.079 859.931, 232.990 860.174, 233.510 861.015 C 234.109 861.985, 233.868 862.164, 232.612 861.681 C 231.456 861.238, 231.130 861.401, 231.612 862.181 C 232.095 862.962, 231.769 863.125, 230.612 862.681 C 229.456 862.238, 229.130 862.401, 229.612 863.181 C 230.095 863.962, 229.769 864.125, 228.612 863.681 C 227.456 863.238, 227.130 863.401, 227.612 864.181 C 228.095 864.962, 227.769 865.125, 226.612 864.681 C 225.456 864.238, 225.130 864.401, 225.612 865.181 C 226.087 865.951, 225.780 866.129, 224.696 865.714 C 223.798 865.369, 222.755 865.587, 222.378 866.198 C 221.933 866.918, 222.152 867.024, 223 866.500 C 223.892 865.949, 224.068 866.080, 223.553 866.914 C 223.138 867.586, 222.174 867.897, 221.411 867.604 C 220.648 867.311, 220.131 867.618, 220.262 868.286 C 220.393 868.954, 219.717 869.438, 218.761 869.363 C 217.804 869.288, 217.268 869.625, 217.570 870.113 C 218.067 870.918, 216.659 871.420, 214.750 871.118 C 214.337 871.053, 214.112 871.562, 214.250 872.250 C 214.387 872.937, 213.730 873.505, 212.788 873.512 C 211.847 873.518, 210.497 874.171, 209.788 874.963 C 208.667 876.216, 208.760 876.217, 210.500 874.969 C 212.486 873.544, 212.487 873.550, 210.563 875.803 C 209.498 877.050, 208.068 877.856, 207.386 877.595 C 206.081 877.094, 203.648 879.315, 204.533 880.200 C 205.232 880.899, 202.471 883.108, 200.544 883.391 C 198.604 883.675, 191.916 890.056, 192.525 891.041 C 193.176 892.093, 188.997 897.116, 187.989 896.493 C 186.979 895.869, 185.564 897.883, 185.526 899.997 C 185.512 900.821, 184.825 901.506, 184 901.520 C 183.175 901.534, 182.618 902.262, 182.763 903.139 C 182.908 904.016, 182.259 905.356, 181.321 906.117 C 179.847 907.313, 179.732 907.297, 180.468 906 C 180.976 905.106, 180.953 904.837, 180.410 905.333 C 179.910 905.792, 179.444 906.579, 179.375 907.083 C 179.306 907.587, 179.194 908.477, 179.125 909.059 C 179.056 909.641, 178.539 909.833, 177.975 909.485 C 177.412 909.136, 177.015 909.222, 177.094 909.676 C 177.430 911.614, 176.934 913.078, 176.113 912.570 C 175.625 912.268, 175.288 912.804, 175.363 913.761 C 175.438 914.717, 174.990 915.405, 174.368 915.289 C 173.745 915.173, 173.295 915.848, 173.368 916.789 C 173.440 917.730, 173.017 918.414, 172.427 918.309 C 171.837 918.204, 171.387 919.104, 171.427 920.309 C 171.467 921.520, 170.957 922.394, 170.286 922.262 C 169.537 922.115, 169.315 922.657, 169.706 923.676 C 170.128 924.777, 169.953 925.089, 169.181 924.612 C 168.401 924.130, 168.238 924.456, 168.681 925.612 C 169.125 926.769, 168.962 927.095, 168.181 926.612 C 167.401 926.130, 167.238 926.456, 167.681 927.612 C 168.125 928.769, 167.962 929.095, 167.181 928.612 C 166.401 928.130, 166.238 928.456, 166.681 929.612 C 167.125 930.769, 166.962 931.095, 166.181 930.612 C 165.401 930.130, 165.238 930.456, 165.681 931.612 C 166.125 932.769, 165.962 933.095, 165.181 932.612 C 164.401 932.130, 164.238 932.456, 164.681 933.612 C 165.102 934.708, 164.951 935.088, 164.263 934.663 C 163.566 934.232, 163.386 934.759, 163.751 936.155 C 164.135 937.623, 163.949 938.086, 163.169 937.604 C 162.402 937.131, 162.241 937.464, 162.681 938.612 C 163.102 939.708, 162.951 940.088, 162.263 939.663 C 161.566 939.232, 161.386 939.759, 161.751 941.155 C 162.112 942.538, 161.933 943.076, 161.251 942.655 C 160.569 942.234, 160.389 942.772, 160.751 944.155 C 161.112 945.538, 160.933 946.076, 160.251 945.655 C 159.569 945.234, 159.389 945.772, 159.751 947.155 C 160.171 948.762, 159.980 949.106, 159.003 948.502 C 158.124 947.959, 157.932 948.080, 158.420 948.870 C 158.820 949.518, 158.841 951.448, 158.465 953.158 C 157.960 955.460, 157.552 955.908, 156.893 954.883 C 156.329 954.007, 156.216 954.783, 156.586 957 C 157.039 959.725, 156.920 960.168, 156.047 959 C 155.183 957.844, 155.066 958.416, 155.538 961.500 C 155.988 964.445, 155.873 965.104, 155.100 964 C 154.332 962.902, 154.169 963.973, 154.491 968 C 154.764 971.406, 154.659 972.377, 154.216 970.551 C 153.822 968.928, 153.500 995.348, 153.500 1029.261 C 153.500 1063.174, 153.846 1090.151, 154.268 1089.210 C 154.704 1088.240, 154.825 1089.230, 154.547 1091.500 C 154.180 1094.490, 154.323 1095.121, 155.113 1094 C 155.903 1092.877, 156.022 1093.379, 155.586 1096 C 155.230 1098.136, 155.340 1098.976, 155.869 1098.155 C 156.511 1097.158, 156.907 1097.494, 157.398 1099.451 C 157.763 1100.904, 157.753 1102.591, 157.376 1103.200 C 156.930 1103.922, 157.154 1104.023, 158.015 1103.490 C 158.985 1102.891, 159.164 1103.132, 158.681 1104.388 C 158.238 1105.544, 158.401 1105.870, 159.181 1105.388 C 159.962 1104.905, 160.125 1105.231, 159.681 1106.388 C 159.238 1107.544, 159.401 1107.870, 160.181 1107.388 C 160.962 1106.905, 161.125 1107.231, 160.681 1108.388 C 160.290 1109.407, 160.424 1109.856, 161.011 1109.493 C 161.901 1108.943, 162.432 1110.265, 162.118 1112.250 C 162.053 1112.663, 162.562 1112.888, 163.250 1112.750 C 163.937 1112.613, 164.438 1113.283, 164.363 1114.239 C 164.288 1115.196, 164.565 1115.769, 164.979 1115.513 C 166.054 1114.849, 169.312 1118.687, 168.622 1119.803 C 168.306 1120.314, 168.937 1121.538, 170.024 1122.521 C 171.111 1123.505, 172 1124.005, 172 1123.632 C 172 1123.259, 173.121 1123.688, 174.491 1124.586 C 175.862 1125.484, 176.754 1126.588, 176.475 1127.040 C 176.196 1127.492, 176.494 1128.187, 177.138 1128.585 C 177.912 1129.063, 178.040 1128.873, 177.515 1128.025 C 176.986 1127.169, 177.185 1126.895, 178.111 1127.204 C 178.875 1127.458, 179.500 1128.154, 179.500 1128.750 C 179.500 1129.346, 179.910 1130.208, 180.410 1130.667 C 180.948 1131.159, 180.993 1130.935, 180.521 1130.120 C 179.971 1129.171, 180.155 1128.898, 181.111 1129.245 C 181.875 1129.523, 182.393 1130.240, 182.262 1130.839 C 182.125 1131.468, 182.722 1131.660, 183.676 1131.294 C 184.777 1130.872, 185.089 1131.047, 184.612 1131.819 C 184.130 1132.599, 184.456 1132.762, 185.612 1132.319 C 186.868 1131.836, 187.109 1132.015, 186.510 1132.985 C 185.960 1133.874, 186.077 1134.071, 186.865 1133.583 C 187.511 1133.184, 189.659 1133.392, 191.639 1134.046 C 194.259 1134.911, 194.866 1135.467, 193.870 1136.089 C 193.050 1136.600, 194.106 1136.721, 196.500 1136.389 C 198.738 1136.079, 199.991 1136.201, 199.345 1136.667 C 198.711 1137.125, 270.555 1137.500, 359 1137.500 C 447.445 1137.500, 519.289 1137.125, 518.655 1136.666 C 518 1136.193, 518.930 1136.078, 520.800 1136.401 C 523.111 1136.799, 523.890 1136.631, 523.401 1135.840 C 522.925 1135.069, 523.536 1134.869, 525.321 1135.211 C 526.761 1135.486, 527.722 1135.358, 527.455 1134.928 C 526.781 1133.836, 530.724 1132.711, 532.146 1133.590 C 532.923 1134.070, 533.037 1133.869, 532.490 1132.985 C 531.891 1132.015, 532.132 1131.836, 533.388 1132.319 C 534.332 1132.681, 534.858 1132.579, 534.558 1132.093 C 533.855 1130.957, 536.846 1129.787, 538.245 1130.651 C 538.921 1131.069, 539.010 1130.826, 538.490 1129.985 C 537.899 1129.028, 538.125 1128.834, 539.304 1129.286 C 540.202 1129.631, 541.245 1129.413, 541.622 1128.802 C 542.067 1128.082, 541.848 1127.976, 541 1128.500 C 540.108 1129.051, 539.932 1128.920, 540.447 1128.086 C 540.862 1127.414, 541.799 1127.093, 542.528 1127.372 C 543.257 1127.652, 544.392 1127.233, 545.049 1126.441 C 545.707 1125.648, 545.895 1125, 545.467 1125 C 545.040 1125, 545.505 1124.100, 546.500 1123 C 548.493 1120.798, 550.540 1120.268, 549.398 1122.250 C 549.002 1122.938, 549.861 1122.422, 551.308 1121.105 C 552.755 1119.787, 553.688 1118.305, 553.383 1117.811 C 552.692 1116.693, 554.943 1113.847, 556 1114.500 C 556.426 1114.763, 556.712 1114.196, 556.637 1113.239 C 556.562 1112.283, 557.046 1111.607, 557.714 1111.738 C 558.463 1111.885, 558.685 1111.343, 558.294 1110.324 C 557.900 1109.297, 558.060 1108.919, 558.717 1109.325 C 559.318 1109.697, 559.715 1109.228, 559.637 1108.239 C 559.562 1107.283, 560.046 1106.607, 560.714 1106.738 C 561.463 1106.885, 561.685 1106.343, 561.294 1105.324 C 560.835 1104.127, 561.025 1103.897, 561.985 1104.490 C 562.869 1105.037, 563.070 1104.923, 562.590 1104.146 C 561.688 1102.686, 562.850 1098.789, 563.979 1099.487 C 564.438 1099.771, 564.560 1099.032, 564.249 1097.845 C 563.903 1096.523, 564.077 1095.930, 564.698 1096.313 C 565.322 1096.699, 565.544 1095.895, 565.277 1094.220 C 564.964 1092.258, 565.114 1091.886, 565.814 1092.885 C 566.481 1093.836, 566.668 1092.740, 566.412 1089.385 C 566.184 1086.403, 566.324 1085.398, 566.770 1086.806 C 567.171 1088.074, 567.500 1063.122, 567.500 1031.358 C 567.500 999.593, 567.179 974.931, 566.787 976.552 C 566.362 978.312, 566.229 976.907, 566.459 973.068 C 566.728 968.569, 566.542 967.066, 565.839 968.068 C 565.126 969.084, 564.996 968.337, 565.389 965.500 C 565.801 962.529, 565.672 961.886, 564.889 963 C 564.106 964.114, 563.977 963.471, 564.389 960.500 C 564.724 958.080, 564.603 957.045, 564.082 957.880 C 562.982 959.643, 560.745 949.827, 561.688 947.371 C 562.154 946.156, 561.976 945.897, 561.063 946.461 C 560.106 947.053, 559.965 946.686, 560.500 945 C 560.961 943.547, 560.847 942.976, 560.179 943.389 C 558.903 944.178, 557.600 940.457, 558.590 938.854 C 559.020 938.158, 558.874 937.960, 558.227 938.360 C 556.916 939.170, 555.579 935.490, 556.590 933.854 C 557.070 933.077, 556.869 932.963, 555.985 933.510 C 555.015 934.109, 554.836 933.868, 555.319 932.612 C 555.762 931.456, 555.599 931.130, 554.819 931.612 C 554.038 932.095, 553.875 931.769, 554.319 930.612 C 554.762 929.456, 554.599 929.130, 553.819 929.612 C 553.038 930.095, 552.875 929.769, 553.319 928.612 C 553.762 927.456, 553.599 927.130, 552.819 927.612 C 552.038 928.095, 551.875 927.769, 552.319 926.612 C 552.762 925.456, 552.599 925.130, 551.819 925.612 C 551.038 926.095, 550.875 925.769, 551.319 924.612 C 551.762 923.456, 551.599 923.130, 550.819 923.612 C 550.018 924.107, 549.883 923.746, 550.383 922.445 C 550.780 921.409, 550.785 920.882, 550.393 921.274 C 549.327 922.340, 546.771 918.194, 547.602 916.748 C 547.997 916.062, 547.951 915.835, 547.500 916.244 C 546.427 917.216, 543.694 913.305, 544.516 911.973 C 544.864 911.411, 544.553 911.074, 543.824 911.225 C 543.075 911.381, 542.499 910.631, 542.499 909.500 C 542.498 908.391, 541.829 907.499, 540.999 907.497 C 540.169 907.496, 539.499 906.604, 539.499 905.497 C 539.498 904.391, 538.829 903.499, 537.999 903.497 C 537.174 903.496, 536.479 902.596, 536.453 901.497 C 536.428 900.399, 535.879 899.608, 535.233 899.740 C 534.588 899.872, 533.580 899.085, 532.995 897.990 C 532.409 896.896, 532.240 896, 532.620 896 C 532.999 896, 532.505 895.111, 531.521 894.024 C 530.538 892.937, 529.419 892.241, 529.035 892.479 C 528.651 892.716, 526.140 890.680, 523.456 887.955 C 520.771 885.230, 518.966 883, 519.443 883 C 519.920 883, 519.523 882.130, 518.561 881.067 C 517.599 880.005, 516.251 879.350, 515.566 879.613 C 514.881 879.876, 513.686 879.309, 512.910 878.354 C 511.682 876.841, 511.694 876.730, 513 877.500 C 514.294 878.262, 514.311 878.151, 513.128 876.692 C 511.642 874.860, 510.494 874.372, 511.500 876 C 512.695 877.933, 510.288 876.975, 508.405 874.767 C 506.519 872.557, 506.520 872.549, 508.500 874.017 C 510.336 875.378, 510.391 875.361, 509.177 873.809 C 508.449 872.880, 507.257 872.348, 506.528 872.628 C 505.799 872.907, 504.862 872.586, 504.447 871.914 C 503.932 871.080, 504.108 870.949, 505 871.500 C 505.848 872.024, 506.067 871.918, 505.622 871.198 C 505.245 870.587, 504.321 870.323, 503.569 870.612 C 502.817 870.900, 501.862 870.586, 501.447 869.914 C 500.932 869.080, 501.108 868.949, 502 869.500 C 502.848 870.024, 503.067 869.918, 502.622 869.198 C 502.245 868.587, 501.375 868.303, 500.689 868.566 C 500.004 868.829, 498.556 868.326, 497.471 867.448 C 496.387 866.570, 496.132 866.180, 496.905 866.580 C 497.805 867.048, 498.063 866.911, 497.622 866.198 C 497.245 865.587, 496.202 865.369, 495.304 865.714 C 494.220 866.129, 493.913 865.951, 494.388 865.181 C 494.870 864.401, 494.544 864.238, 493.388 864.681 C 492.231 865.125, 491.905 864.962, 492.388 864.181 C 492.870 863.401, 492.544 863.238, 491.388 863.681 C 490.231 864.125, 489.905 863.962, 490.388 863.181 C 490.870 862.401, 490.544 862.238, 489.388 862.681 C 488.231 863.125, 487.905 862.962, 488.388 862.181 C 488.870 861.401, 488.544 861.238, 487.388 861.681 C 486.231 862.125, 485.905 861.962, 486.388 861.181 C 486.870 860.401, 486.544 860.238, 485.388 860.681 C 484.132 861.164, 483.891 860.985, 484.490 860.015 C 485.037 859.131, 484.923 858.930, 484.146 859.410 C 482.627 860.349, 478.803 859.128, 479.537 857.939 C 479.850 857.434, 479.334 857.318, 478.388 857.681 C 477.132 858.164, 476.891 857.985, 477.490 857.015 C 478.037 856.131, 477.923 855.930, 477.146 856.410 C 475.543 857.400, 471.822 856.097, 472.611 854.821 C 473.024 854.153, 472.453 854.039, 471 854.500 C 469.314 855.035, 468.947 854.894, 469.539 853.937 C 470.101 853.028, 469.846 852.845, 468.653 853.303 C 466.217 854.238, 460.466 852.958, 462.169 851.860 C 462.969 851.345, 462.104 851.235, 460 851.586 C 457.379 852.022, 456.877 851.903, 458 851.113 C 459.115 850.328, 458.474 850.199, 455.500 850.611 C 452.635 851.008, 451.911 850.878, 452.948 850.151 C 453.988 849.423, 453.141 849.263, 449.948 849.584 C 446.742 849.907, 446.058 849.776, 447.500 849.117 C 448.844 848.502, 446.876 848.317, 441.500 848.551 C 435.809 848.799, 434.510 848.664, 437 848.082 C 439.649 847.462, 438.311 847.269, 431.500 847.289 C 423.658 847.311, 423.144 847.411, 427.500 848.066 C 432.314 848.790, 432.251 848.810, 425.819 848.616 C 421.859 848.496, 419.374 848.796, 419.718 849.353 C 420.062 849.910, 419.187 850.013, 417.565 849.606 C 415.891 849.186, 415.064 849.295, 415.431 849.888 C 416.233 851.186, 412.737 852.220, 410.477 851.353 C 409.326 850.911, 408.908 851.042, 409.323 851.714 C 410.152 853.055, 404.529 855.445, 402.906 854.442 C 402.076 853.929, 401.950 854.111, 402.510 855.015 C 403.109 855.985, 402.868 856.164, 401.612 855.681 C 400.464 855.241, 400.131 855.402, 400.604 856.169 C 401.086 856.949, 400.623 857.135, 399.155 856.751 C 397.772 856.389, 397.234 856.569, 397.655 857.251 C 398.076 857.933, 397.538 858.112, 396.155 857.751 C 394.772 857.389, 394.234 857.569, 394.655 858.251 C 395.076 858.933, 394.538 859.112, 393.155 858.751 C 391.786 858.393, 391.235 858.571, 391.648 859.239 C 392.079 859.937, 391.322 860.064, 389.399 859.615 C 387.136 859.087, 386.829 859.184, 388 860.054 C 389.164 860.918, 388.715 861.038, 386 860.586 C 383.336 860.142, 382.858 860.261, 384 861.084 C 385.134 861.902, 384.523 862.030, 381.500 861.611 C 378.539 861.201, 377.890 861.329, 379 862.106 C 380.093 862.871, 379.009 863.017, 375 862.644 C 371.349 862.304, 370.340 862.413, 372 862.966 C 374.043 863.648, 373.587 863.821, 369.500 863.914 C 366.750 863.976, 363.375 864.255, 362 864.534 C 359.754 864.990, 359.703 864.936, 361.500 864.003 C 362.959 863.246, 361.110 863.108, 354.657 863.496 C 344.841 864.084, 331.865 862.388, 334.138 860.812 C 335.088 860.155, 334.812 860.063, 333.228 860.509 C 330.147 861.377, 324.799 860.134, 325.655 858.749 C 326.091 858.044, 325.713 857.896, 324.585 858.329 C 322.237 859.230, 317.850 858.052, 318.661 856.739 C 319.043 856.121, 318.827 855.989, 318.135 856.417 C 316.475 857.443, 309.827 855.089, 310.645 853.765 C 311.041 853.125, 310.838 852.982, 310.146 853.410 C 308.510 854.421, 304.830 853.084, 305.640 851.773 C 306.034 851.136, 305.843 850.979, 305.175 851.392 C 304.551 851.777, 302.216 851.546, 299.985 850.877 C 297.228 850.051, 296.341 849.398, 297.214 848.838 C 297.932 848.378, 296.291 848.239, 293.500 848.525 C 289.915 848.892, 289.066 848.768, 290.500 848.089 C 291.941 847.406, 290.263 847.149, 284.500 847.170 C 278.615 847.192, 277.161 847.433, 279 848.085 M 278.500 884.067 C 279.901 884.716, 279.190 884.812, 276.123 884.387 C 272.826 883.931, 271.932 884.081, 272.499 884.998 C 273.040 885.874, 272.650 886.024, 271.103 885.533 C 268.299 884.643, 262.796 885.860, 263.617 887.189 C 264.023 887.846, 263.442 887.958, 262 887.500 C 260.314 886.965, 259.947 887.106, 260.539 888.063 C 261.103 888.975, 260.845 889.154, 259.634 888.690 C 257.598 887.908, 249.783 890.840, 250.558 892.095 C 250.858 892.580, 250.441 892.723, 249.630 892.412 C 247.649 891.651, 243.769 893.817, 244.627 895.205 C 245.032 895.861, 244.852 896.027, 244.184 895.614 C 242.773 894.741, 236.738 897.767, 237.484 898.973 C 237.786 899.462, 237.506 900.187, 236.862 900.585 C 236.088 901.063, 235.960 900.873, 236.485 900.025 C 237.014 899.169, 236.815 898.895, 235.889 899.204 C 235.125 899.458, 234.500 900.154, 234.500 900.750 C 234.500 901.346, 234.090 902.208, 233.590 902.667 C 233.061 903.151, 232.981 902.976, 233.399 902.250 C 233.794 901.563, 233.697 901, 233.181 901 C 231.919 901, 229.876 903.542, 230.575 904.242 C 230.882 904.549, 230.584 905.139, 229.912 905.554 C 229.132 906.037, 228.949 905.892, 229.405 905.155 C 229.797 904.520, 229.745 904, 229.288 904 C 227.688 904, 210.888 921.669, 211.193 923.032 C 211.362 923.789, 210.825 924.440, 210 924.479 C 209.175 924.517, 208.560 925.307, 208.632 926.235 C 208.705 927.163, 208.255 927.827, 207.632 927.711 C 207.010 927.595, 206.560 928.270, 206.632 929.211 C 206.705 930.152, 206.255 930.827, 205.632 930.711 C 205.010 930.595, 204.560 931.270, 204.632 932.211 C 204.705 933.152, 204.311 933.827, 203.757 933.711 C 203.203 933.595, 202.523 934.125, 202.245 934.889 C 201.898 935.845, 202.171 936.029, 203.120 935.479 C 203.935 935.007, 204.159 935.052, 203.667 935.590 C 203.208 936.090, 202.308 936.508, 201.667 936.517 C 201.025 936.526, 200.533 937.517, 200.574 938.717 C 200.615 939.918, 200.342 940.711, 199.968 940.480 C 198.911 939.827, 192.305 954.762, 190.490 961.909 C 189.595 965.434, 189.132 969.484, 189.462 970.909 C 189.935 972.954, 189.829 973.184, 188.961 972 C 188.136 970.873, 187.992 971.994, 188.383 976.500 C 188.729 980.480, 188.617 981.658, 188.052 980 C 187.559 978.556, 187.164 1000.098, 187.115 1031 C 187.055 1069.112, 187.337 1084.069, 188.096 1083 C 188.912 1081.852, 189.016 1082.164, 188.541 1084.334 C 188.137 1086.175, 188.284 1086.943, 188.958 1086.526 C 189.583 1086.140, 189.898 1086.804, 189.749 1088.192 C 189.601 1089.566, 189.991 1090.404, 190.714 1090.262 C 191.382 1090.131, 191.706 1090.603, 191.435 1091.310 C 191.163 1092.017, 192.189 1093.699, 193.713 1095.048 L 196.486 1097.500 194.558 1095 C 193.498 1093.625, 194.232 1094.151, 196.189 1096.168 C 198.153 1098.192, 201.486 1100.319, 203.624 1100.913 C 208.688 1102.319, 515.464 1102.317, 512.500 1100.911 C 510.932 1100.167, 511.216 1100.071, 513.814 1100.469 C 516.836 1100.931, 525 1097.977, 525 1096.421 C 525 1096.124, 524.480 1096.203, 523.845 1096.595 C 523.146 1097.028, 522.962 1096.871, 523.378 1096.198 C 523.755 1095.587, 524.690 1095.328, 525.455 1095.621 C 526.648 1096.079, 529.840 1092.163, 529.086 1091.167 C 528.947 1090.983, 529.168 1090.533, 529.577 1090.167 C 529.986 1089.800, 529.990 1090.175, 529.586 1091 C 529.182 1091.825, 529.564 1091.621, 530.435 1090.546 C 533.659 1086.569, 533.989 1081.360, 533.987 1034.500 C 533.986 987.163, 533.395 971.073, 531.838 976 C 531.335 977.594, 531.236 976.688, 531.565 973.500 C 531.941 969.865, 531.799 968.909, 531.043 970 C 530.277 971.105, 530.175 970.603, 530.657 968.095 C 531.098 965.801, 530.965 964.903, 530.249 965.346 C 529.569 965.766, 529.390 965.226, 529.751 963.845 C 530.112 962.462, 529.933 961.924, 529.251 962.345 C 528.569 962.766, 528.389 962.228, 528.751 960.845 C 529.162 959.274, 528.971 958.900, 528.050 959.469 C 527.132 960.036, 526.958 959.707, 527.416 958.266 C 528.209 955.765, 527.132 952.801, 525.741 953.660 C 525.097 954.058, 524.992 953.823, 525.468 953.051 C 526.385 951.568, 522.092 941.825, 520.857 942.588 C 520.398 942.872, 520.319 942.332, 520.681 941.388 C 521.096 940.308, 520.948 939.914, 520.283 940.325 C 519.682 940.697, 519.285 940.228, 519.363 939.239 C 519.439 938.277, 518.908 937.623, 518.176 937.775 C 517.427 937.930, 517.149 937.568, 517.535 936.943 C 518.129 935.982, 511.494 925, 510.319 925 C 510.079 925, 510.203 925.520, 510.595 926.155 C 511.028 926.854, 510.871 927.038, 510.198 926.622 C 509.587 926.245, 509.313 925.347, 509.589 924.628 C 509.865 923.909, 509.309 922.686, 508.354 921.910 C 507.231 920.999, 506.882 920.942, 507.367 921.750 C 508.462 923.572, 507.471 923.279, 505.872 921.308 C 504.940 920.158, 504.901 919.857, 505.750 920.367 C 508.618 922.090, 506.648 919.085, 501.719 914.216 C 496.706 909.266, 494.015 907.518, 495.613 910.250 C 496.015 910.938, 495.366 910.643, 494.172 909.595 C 491.580 907.322, 491.255 906.178, 493.750 908.110 C 495.129 909.178, 495.089 908.984, 493.563 907.197 C 492.498 905.950, 491.050 905.151, 490.345 905.421 C 489.641 905.691, 488.755 905.413, 488.378 904.802 C 487.937 904.089, 488.195 903.952, 489.095 904.420 C 489.868 904.820, 489.646 904.454, 488.603 903.606 C 487.559 902.758, 486.311 902.308, 485.828 902.606 C 485.345 902.905, 485.074 902.553, 485.225 901.824 C 485.376 901.096, 484.744 900.494, 483.821 900.487 C 482.897 900.480, 481.772 900.071, 481.321 899.577 C 480.843 899.054, 481.086 899.019, 481.905 899.494 C 482.879 900.060, 483.078 899.935, 482.553 899.086 C 482.138 898.414, 481.174 898.103, 480.411 898.396 C 479.648 898.689, 479.131 898.451, 479.262 897.868 C 479.393 897.285, 478.465 896.407, 477.199 895.917 C 475.474 895.249, 475.077 895.336, 475.613 896.263 C 476.006 896.944, 475.107 896.216, 473.615 894.646 C 471.820 892.757, 470.243 891.965, 468.950 892.303 C 467.876 892.584, 467.226 892.444, 467.505 891.992 C 468.233 890.813, 459.396 887.637, 457.922 888.548 C 457.083 889.067, 456.947 888.895, 457.495 888.009 C 458.112 887.009, 457.666 886.867, 455.565 887.394 C 453.908 887.810, 453.066 887.703, 453.425 887.121 C 454.207 885.856, 448.667 884.676, 445.772 885.491 C 443.920 886.013, 443.777 885.919, 445 884.985 C 446.159 884.099, 445.136 883.959, 440.500 884.368 C 436.629 884.710, 435.210 884.587, 436.500 884.020 C 437.971 883.373, 437.046 883.126, 433 883.084 C 426.453 883.017, 422.791 883.852, 423.636 885.221 C 424.007 885.821, 423.464 885.965, 422.266 885.584 C 419.765 884.791, 416.801 885.868, 417.660 887.259 C 418.041 887.875, 417.828 888.012, 417.146 887.590 C 415.686 886.688, 411.789 887.850, 412.487 888.979 C 412.771 889.438, 412.032 889.560, 410.845 889.249 C 409.238 888.829, 408.894 889.020, 409.498 889.997 C 410.035 890.866, 409.919 891.068, 409.156 890.596 C 407.594 889.631, 393.948 894.106, 394.707 895.335 C 395.047 895.885, 394.790 895.989, 394.118 895.573 C 393.463 895.168, 391.084 895.148, 388.832 895.528 C 385.934 896.018, 385.141 896.478, 386.119 897.103 C 386.970 897.647, 385.581 897.790, 382.500 897.475 C 379.313 897.149, 378.205 897.271, 379.443 897.813 C 380.649 898.340, 377.994 898.567, 372.443 898.412 C 365.340 898.213, 364.426 898.330, 368 898.981 C 370.687 899.470, 367.868 899.538, 361 899.150 C 354.675 898.792, 346.436 898.515, 342.692 898.533 C 338.948 898.552, 336.621 898.308, 337.521 897.993 C 338.422 897.677, 335.058 896.632, 330.045 895.671 C 325.033 894.710, 320.428 894.236, 319.811 894.617 C 319.085 895.066, 318.973 894.852, 319.495 894.009 C 320.115 893.006, 319.636 892.863, 317.399 893.385 C 315.494 893.829, 314.974 893.745, 315.883 893.139 C 316.921 892.447, 316.491 892.047, 314.158 891.535 C 312.448 891.159, 310.518 891.180, 309.870 891.580 C 309.080 892.068, 308.959 891.876, 309.502 890.997 C 310.106 890.020, 309.762 889.829, 308.155 890.249 C 306.968 890.560, 306.217 890.458, 306.486 890.023 C 307.199 888.869, 301.338 886.673, 299.906 887.558 C 299.080 888.069, 298.950 887.889, 299.502 886.997 C 300.106 886.020, 299.762 885.829, 298.155 886.249 C 296.831 886.595, 296.240 886.421, 296.624 885.800 C 297.021 885.157, 296.427 885.047, 295 885.500 C 293.599 885.945, 292.981 885.839, 293.364 885.221 C 294.245 883.795, 290.481 883.019, 283 883.084 C 278.207 883.126, 277.025 883.384, 278.500 884.067 M 219.469 914.250 L 213.500 920.500 219.750 914.531 C 225.556 908.987, 226.458 908, 225.719 908 C 225.564 908, 222.751 910.813, 219.469 914.250 M 152.465 1031 C 152.465 1059.875, 152.593 1071.688, 152.749 1057.250 C 152.905 1042.812, 152.905 1019.187, 152.749 1004.750 C 152.593 990.313, 152.465 1002.125, 152.465 1031 M 532.464 1033 C 532.464 1060.775, 532.592 1072.138, 532.749 1058.250 C 532.906 1044.363, 532.906 1021.638, 532.749 1007.750 C 532.592 993.863, 532.464 1005.225, 532.464 1033" stroke="none" fill="#235eba" fill-rule="evenodd"/></svg>