<svg xmlns="http://www.w3.org/2000/svg" width="1024" height="1024" viewBox="0 0 1024 1024" version="1.1"><path d="M 481.950 106.907 C 474.597 107.573, 470.854 109.551, 467.956 114.304 C 466.226 117.142, 466.007 119.415, 466.004 134.593 C 466 150.395, 465.830 152.005, 463.750 155.914 C 461.141 160.817, 461.895 160.351, 438.596 171.462 C 415.740 182.362, 414.457 182.471, 405.789 174.250 C 402.455 171.088, 397.257 165.925, 394.239 162.779 C 385.845 154.029, 378.609 151.301, 371.733 154.295 C 367.479 156.147, 325.295 198.759, 322.979 203.544 C 318.761 212.256, 320.675 216.711, 334.372 230.063 C 345.732 241.137, 348.451 245.236, 347.407 249.712 C 346.039 255.579, 331.641 290.654, 329.333 293.742 C 328 295.525, 325.918 297.216, 324.705 297.500 C 323.492 297.783, 314.850 298.147, 305.500 298.308 C 286.253 298.640, 283.814 299.345, 279.847 305.726 C 277.520 309.468, 277.497 309.792, 277.200 343.975 C 276.862 382.851, 277.128 384.707, 283.760 389.767 C 287.301 392.469, 287.553 392.506, 306.092 393 C 327.452 393.570, 327.705 393.666, 331.811 402.775 C 340.378 421.778, 347 439.322, 347 443.012 C 347 447.442, 347.882 446.300, 330.121 464.878 C 321.425 473.975, 319.123 479.093, 320.943 485.283 C 321.971 488.776, 326.075 493.419, 344.842 512.325 C 357.304 524.878, 368.625 535.727, 370 536.434 C 373.827 538.400, 379.146 538.901, 382.785 537.639 C 384.743 536.960, 391.007 531.586, 398.285 524.339 C 414.575 508.122, 412.731 508.372, 435.678 519.264 C 445.480 523.917, 455.075 528.463, 457 529.367 C 458.925 530.270, 461.594 532.616, 462.930 534.580 C 465.211 537.930, 465.387 539.179, 465.790 554.825 C 466.285 574.036, 467.242 576.843, 474.405 580.096 C 478.135 581.790, 481.511 581.958, 512.290 581.978 C 543.939 581.999, 546.324 581.875, 549.934 580.033 C 556.564 576.652, 558 572.131, 558 554.652 C 558 539.306, 558.835 535.174, 562.612 531.827 C 565.926 528.890, 603.343 511.756, 607.500 511.272 C 612.335 510.709, 614.808 512.471, 626.539 524.842 C 635.817 534.626, 638.848 536.947, 643.826 538.084 C 651.707 539.882, 653.770 538.482, 676.864 515.647 C 688.627 504.016, 699.545 492.499, 701.126 490.054 C 707.106 480.805, 704.427 474.111, 689.135 460.087 C 679.037 450.826, 675.998 446.730, 676.003 442.382 C 676.008 437.649, 691.680 399.961, 695.082 396.500 L 698.031 393.500 716.766 393 C 737.787 392.439, 740.543 391.639, 744.465 384.965 C 746.386 381.694, 746.517 379.598, 746.800 347.526 C 747.131 310.137, 746.876 308.130, 741.094 302.590 C 737.131 298.793, 732.899 298.052, 715 298.020 C 698.141 297.990, 694.890 297.116, 692.297 291.913 C 688.242 283.779, 676.003 251.246, 676.015 248.637 C 676.036 244.483, 675.945 244.602, 689.776 230.606 C 699.076 221.196, 702.069 217.503, 703.050 214.228 C 705.517 205.993, 704.432 204.418, 678.418 178.470 C 646.484 146.619, 647.270 146.802, 627.028 166.511 C 619.740 173.607, 613.163 179.172, 611.601 179.564 C 606.664 180.803, 601.683 179.287, 585.500 171.619 C 561.741 160.361, 562.741 160.979, 560.250 156.038 C 558.190 151.952, 557.999 150.182, 557.984 135.038 C 557.968 119.779, 557.794 118.197, 555.734 114.575 C 554.341 112.128, 551.840 109.774, 549.093 108.325 C 544.759 106.039, 544.214 106.003, 516.593 106.157 C 501.142 106.244, 485.553 106.581, 481.950 106.907 M 476 108.706 C 475.175 109.008, 473.445 110.210, 472.155 111.377 C 467.474 115.615, 467 117.844, 467 135.635 C 467 158.101, 466.461 159.303, 453.647 165.428 C 422.436 180.347, 420.896 181, 416.936 181 C 411.105 181, 408.740 179.390, 396.607 167.160 C 387.843 158.326, 384.860 155.941, 381.348 154.957 C 373.197 152.675, 370.706 154.411, 346.553 179.199 C 316.227 210.323, 316.263 210.147, 336.016 230.476 C 343.213 237.883, 348.169 243.826, 348.608 245.576 C 349.427 248.836, 347.660 254.484, 339.878 273.500 C 332.508 291.506, 330.116 295.880, 326.600 297.776 C 324.143 299.101, 319.644 299.557, 304.901 299.974 C 284.812 300.542, 284.656 300.585, 280.988 306.520 C 279.038 309.675, 278.952 311.327, 278.973 345.336 C 278.985 364.873, 279.407 381.942, 279.911 383.267 C 281.311 386.948, 286.702 390.989, 290.327 391.074 C 324.768 391.877, 325.056 391.908, 328.719 395.260 C 330.689 397.062, 337.434 411.951, 346.217 433.882 C 350.597 444.822, 350.188 445.923, 336.550 459.911 C 330.336 466.285, 324.520 472.940, 323.626 474.700 C 321.587 478.714, 321.545 484.238, 323.520 488.401 C 325.434 492.433, 368.052 534.689, 371.545 536.017 C 374.921 537.301, 380.166 537.268, 383.656 535.941 C 385.188 535.358, 391.912 529.473, 398.599 522.862 C 414.981 506.666, 412.865 506.844, 439.214 519.458 C 450.371 524.800, 460.673 530.279, 462.107 531.635 C 465.989 535.306, 467 540.258, 467.002 555.616 C 467.003 571.490, 468.088 575.030, 474 578.466 C 477.336 580.404, 479.121 580.500, 512 580.500 C 551.306 580.500, 551.526 580.460, 555.057 572.684 C 556.645 569.184, 556.960 566.071, 556.978 553.651 C 557.002 537.369, 557.949 533.587, 562.873 530.101 C 566.156 527.777, 596.784 513.316, 603.411 510.961 C 607.205 509.613, 609.024 509.447, 611.411 510.232 C 613.155 510.805, 619.726 516.373, 626.500 523.015 C 633.100 529.488, 639.483 535.282, 640.684 535.892 C 643.740 537.442, 650.585 537.273, 653.800 535.567 C 658.546 533.047, 699.788 490.836, 701.463 486.782 C 704.746 478.839, 703.304 476.086, 687.387 459.914 C 671.878 444.156, 672.125 446.322, 682.750 419.319 C 688.933 403.605, 691.242 398.868, 694.171 395.890 L 697.842 392.158 716.719 391.829 C 737.583 391.465, 739.180 391.033, 743.044 384.696 C 744.878 381.688, 744.993 379.425, 744.996 346.136 C 745 311.362, 744.963 310.706, 742.761 306.788 C 739.266 300.569, 737.302 300.001, 719.300 299.994 C 710.610 299.991, 701.899 299.544, 699.943 299.001 C 694.701 297.544, 691.425 293.462, 687.461 283.446 C 685.514 278.526, 683.511 273.600, 683.010 272.500 C 680.889 267.843, 675.247 253.310, 674.699 251.092 C 673.618 246.713, 676.970 241.635, 688.952 229.500 C 702.498 215.781, 704.351 212.203, 701.492 205.287 C 699.541 200.567, 658.231 158.762, 652.650 155.860 C 649.694 154.322, 647.844 154.020, 644.676 154.555 C 641.145 155.151, 638.812 156.941, 628.477 166.982 C 621.837 173.434, 615.373 179.265, 614.112 179.940 C 610.722 181.754, 604.105 181.422, 599 179.180 C 596.525 178.093, 586.942 173.562, 577.705 169.111 C 556.383 158.836, 557.054 159.911, 557.020 136 C 556.994 117.399, 556.166 114.321, 550.102 110.270 C 546.727 108.015, 546.475 108.001, 512.102 108.079 C 493.071 108.122, 476.825 108.405, 476 108.706 M 494.814 221.011 C 465.672 225.628, 440.523 239.540, 420.169 262.302 C 406.794 277.260, 398.134 292.162, 392.126 310.558 C 387.059 326.071, 385.604 334.810, 385.639 349.500 C 385.694 373.051, 392.460 394.758, 406.314 415.833 C 438.011 464.054, 497.623 484.517, 553.500 466.359 C 598.046 451.883, 631.461 412.064, 638.555 365.004 C 643.595 331.572, 633.361 296.646, 609.576 266.112 C 599.278 252.891, 578.208 236.882, 561.793 229.805 C 546.742 223.316, 535.057 220.910, 516.500 220.481 C 507.700 220.277, 497.941 220.516, 494.814 221.011 M 494.500 222.474 C 461.618 227.717, 434.398 244.374, 413.636 271.956 C 375.636 322.439, 378.705 388.325, 421.114 432.499 C 439.023 451.153, 458.753 462.509, 482.549 467.859 C 495.385 470.744, 499.681 471.177, 514.681 471.098 C 563.705 470.838, 605.537 444.183, 626.417 399.900 C 634.793 382.136, 638 367.766, 638 348 C 638 340.748, 637.332 331.605, 636.455 326.860 C 627.456 278.177, 590.673 237.372, 544.673 225.047 C 529.575 221.001, 510.022 219.998, 494.500 222.474 M 571.808 291.361 C 566.593 293.287, 565.128 294.646, 532.111 328.177 C 515.825 344.716, 501.150 358.850, 499.500 359.585 C 496.863 360.760, 496.772 360.926, 498.748 360.961 C 500.395 360.990, 509.212 352.687, 531.748 329.890 C 548.661 312.780, 564.228 297.410, 566.340 295.735 C 570.358 292.548, 577.301 291.106, 582.427 292.392 C 586.168 293.331, 592.055 298.912, 594.135 303.491 C 596.567 308.846, 596.460 312.839, 593.750 317.825 C 590.678 323.476, 510.085 405.241, 505.252 407.609 C 500.774 409.803, 493.491 409.835, 489.402 407.678 C 485.171 405.447, 438.314 358.006, 437.062 354.685 C 434.179 347.041, 437 337.390, 443.586 332.366 C 448.048 328.963, 455.539 327.766, 460.176 329.716 C 461.944 330.460, 470.250 337.803, 478.632 346.034 C 487.015 354.265, 494.298 361, 494.818 361 C 496.654 361, 464.884 330.474, 461.219 328.717 C 458.571 327.448, 456.086 327.080, 452.592 327.439 C 438.446 328.893, 430.082 344.980, 437.198 357.046 C 438.642 359.496, 450.562 372.143, 463.686 385.151 C 484.433 405.713, 488.128 408.957, 491.982 409.995 C 497.579 411.502, 503.560 410.574, 507.466 407.591 C 510.225 405.485, 568.764 347.019, 587.160 327.997 C 591.715 323.287, 595.309 318.595, 596.026 316.420 C 600.751 302.103, 585.487 286.309, 571.808 291.361 M 287.619 415.034 C 282.850 416.462, 279.950 420, 274.941 430.500 C 258.670 464.606, 254.031 506.299, 262.422 543 C 265.481 556.381, 269.332 566.710, 276.821 581.618 C 287.023 601.931, 292.840 610.088, 320.953 643.500 C 354.348 683.190, 367.849 709.657, 376.554 752.493 C 378.565 762.390, 381.117 772.911, 382.226 775.874 C 384.843 782.870, 389.725 788.177, 396.258 791.130 L 401.500 793.500 511 793.500 C 616.008 793.500, 620.701 793.422, 625.404 791.609 C 631.984 789.071, 637.832 783.598, 640.575 777.412 C 641.816 774.613, 644.641 763.138, 646.852 751.912 C 655.429 708.353, 669.739 680.921, 705.841 638.833 C 727.154 613.984, 738.386 598.110, 747.539 579.899 C 770.447 534.320, 771.691 482.747, 751.037 434.840 C 743.360 417.033, 738.978 413.480, 725.533 414.158 C 716.844 414.597, 711.858 417.433, 709.514 423.270 C 707.024 429.471, 707.646 432.255, 714.424 445.243 C 726.632 468.634, 730.244 482.565, 730.309 506.500 C 730.369 528.869, 726.293 546.501, 716.601 565.798 C 708.411 582.107, 702.552 589.978, 677.006 619 C 654.653 644.394, 642.342 662.290, 631.945 684.500 C 623.788 701.925, 620.390 712.884, 613.961 742.500 C 611.700 752.913, 609.972 755.941, 605.151 757.936 C 603.277 758.712, 575.491 758.955, 510.315 758.767 L 418.131 758.500 415.103 755.599 C 412.951 753.537, 411.741 751.080, 410.917 747.099 C 403.055 709.121, 398.896 696.699, 386.345 673.716 C 375.706 654.235, 362.825 636.839, 343.980 616.500 C 320.117 590.747, 308.197 572.605, 300.163 549.814 C 295.834 537.534, 293.940 526.639, 293.327 510.500 C 292.337 484.457, 296.382 468.791, 311.361 440.667 C 317.372 429.380, 315.822 420.532, 307.016 415.852 C 303.265 413.858, 292.992 413.426, 287.619 415.034 M 283.269 418.750 C 276.914 424.689, 266.419 452.070, 262.858 472 C 260.254 486.577, 259.270 514.898, 260.931 527.500 C 262.616 540.289, 266.263 553.968, 271.380 566.701 C 280.870 590.316, 292.397 608.016, 317.486 637.500 C 340.032 663.997, 350.850 679.518, 360.922 699.818 C 368.620 715.335, 373.276 729.795, 377.989 752.823 C 380.133 763.297, 382.866 774.143, 384.063 776.925 C 386.705 783.066, 392.023 788.073, 398.596 790.609 C 403.297 792.422, 407.963 792.500, 511.500 792.500 C 628.936 792.500, 623.010 792.778, 631.675 786.859 C 638.690 782.067, 641.214 774.910, 647.491 742 C 651.061 723.285, 662.542 696.119, 674.750 677.500 C 681.201 667.660, 696.057 648.246, 704.975 638 C 733.946 604.713, 749.719 578.875, 757.409 552.104 C 762.838 533.207, 763.501 527.950, 763.477 504 C 763.457 484.368, 763.163 480.161, 761.173 471 C 756.065 447.482, 746.667 424.263, 739.979 418.636 C 737.092 416.206, 736.128 416, 727.673 416.004 C 716.328 416.008, 713.081 417.602, 710.467 424.448 C 708.247 430.260, 709.154 433.753, 716.039 445.916 C 727.225 465.677, 731.418 482.142, 731.467 506.500 C 731.548 546.166, 719.688 572.877, 684.384 612.537 C 655.276 645.238, 645.693 658.715, 633.902 683.534 C 626.066 700.030, 620.851 715.921, 616.939 735.228 C 613.522 752.096, 612.077 755.461, 606.965 758.465 C 603.560 760.465, 601.961 760.505, 514.203 760.776 C 450.393 760.973, 423.714 760.731, 420.728 759.927 C 418.339 759.283, 415.225 757.398, 413.459 755.525 C 410.827 752.735, 410.114 750.786, 408.648 742.375 C 400.345 694.758, 382.127 660.191, 342.045 616 C 321.634 593.497, 313.886 582.989, 306.084 567.227 C 296.747 548.366, 293.037 533.361, 292.268 511.357 C 291.365 485.507, 294.321 472.073, 306.164 448.205 C 313.627 433.165, 314.209 431.550, 313.723 427.239 C 313.304 423.515, 312.471 421.903, 309.613 419.284 C 306.066 416.034, 305.927 416, 296.120 416 C 286.691 416, 286.069 416.133, 283.269 418.750 M 412.256 827.560 C 408.065 829.648, 406.648 831.065, 404.560 835.256 C 401.537 841.322, 401.376 845.030, 403.896 850.579 C 406.059 855.341, 409.815 858.578, 414.885 860.051 C 417.330 860.761, 449.273 861.003, 513.573 860.800 L 608.647 860.500 612.912 857.677 C 623.121 850.921, 623.457 835.963, 613.553 829.177 C 611.762 827.950, 608.770 826.508, 606.905 825.973 C 604.816 825.374, 567.763 825, 510.453 825 L 417.393 825 412.256 827.560 M 412.020 828.752 C 407.743 830.900, 404.389 835.737, 403.491 841.051 C 402.618 846.222, 406.078 853.555, 410.898 856.749 L 414.296 859 511.198 859 C 592.472 859, 608.535 858.773, 610.800 857.595 C 617.658 854.027, 621.007 846.452, 619.008 839.030 C 617.780 834.471, 613.391 829.479, 609.212 827.890 C 607.902 827.392, 564.712 827.001, 511.185 827.002 C 422.084 827.003, 415.261 827.123, 412.020 828.752 M 435.961 889.751 C 429.493 893.131, 426.571 898.033, 426.571 905.509 C 426.571 915.262, 432.971 921.160, 444.951 922.450 C 448.499 922.832, 452.099 923.520, 452.951 923.979 C 453.803 924.439, 458.590 928.858, 463.590 933.801 C 470.985 941.113, 474.247 943.536, 481.090 946.799 C 492.530 952.256, 501.389 954.322, 513 954.243 C 533.984 954.101, 549.940 946.605, 567 928.874 C 572.197 923.472, 572.830 923.121, 578.500 922.500 C 587.338 921.531, 590.558 920.268, 593.908 916.452 C 600.305 909.166, 599.992 899.249, 593.160 892.748 C 591.147 890.832, 587.970 888.755, 586.101 888.133 C 583.698 887.332, 561.973 887, 511.965 887 L 441.228 887 435.961 889.751 M 442.814 889.007 C 439.303 889.320, 436.052 890.303, 434.314 891.578 C 425.881 897.764, 425.889 912.950, 434.330 918.481 C 435.664 919.355, 440.105 920.445, 444.200 920.905 C 448.295 921.364, 452.512 922.216, 453.572 922.799 C 454.633 923.382, 458.650 927.107, 462.500 931.078 C 478.373 947.448, 495.549 954.087, 518.232 952.621 C 536.032 951.471, 549.490 944.887, 563.575 930.439 C 572.016 921.780, 571.658 921.961, 583.292 920.476 C 588.747 919.780, 593.980 915.876, 596.003 910.993 C 597.743 906.791, 596.790 898.919, 594.080 895.113 C 589.526 888.716, 592.811 888.989, 517.267 888.733 C 479.445 888.605, 445.941 888.728, 442.814 889.007" stroke="none" fill="#050c59" fill-rule="evenodd"/><path d="M 479.768 106.725 C 481.565 106.947, 484.265 106.943, 485.768 106.715 C 487.271 106.486, 485.800 106.304, 482.500 106.310 C 479.200 106.315, 477.971 106.502, 479.768 106.725 M 476 108.693 C 475.175 109.002, 473.445 110.210, 472.155 111.377 C 467.474 115.615, 467 117.844, 467 135.635 C 467 150.563, 466.775 152.834, 464.911 156.684 C 463.762 159.058, 462.385 161, 461.852 161 C 461.318 161, 461.203 160.480, 461.595 159.845 C 462.041 159.124, 461.869 158.963, 461.138 159.415 C 460.494 159.813, 460.234 160.570, 460.561 161.098 C 460.887 161.626, 457.182 163.896, 452.327 166.144 C 447.472 168.391, 438.431 172.653, 432.236 175.615 C 420.223 181.358, 415.259 182.249, 410.200 179.570 C 408.715 178.784, 402.598 173.199, 396.607 167.160 C 382.770 153.213, 380.300 152.245, 369.586 156.568 C 368.105 157.165, 367.852 157.019, 368.468 155.920 C 368.907 155.139, 363.580 160.118, 356.633 166.985 C 349.685 173.852, 344 179.695, 344 179.969 C 344 180.244, 349.512 175.077, 356.250 168.486 C 363.821 161.080, 362.393 162.710, 352.512 172.752 C 337.407 188.102, 331.484 193.576, 338.987 185.250 C 340.846 183.188, 337.784 186.081, 332.183 191.680 C 326.583 197.279, 322 202.409, 322 203.080 C 322 203.751, 323.296 202.545, 324.879 200.400 C 328.416 195.609, 336 188.231, 336 189.581 C 336 190.124, 333.525 193.012, 330.500 196 C 323.614 202.801, 321.394 208.035, 322.948 213.808 C 323.557 216.067, 324.492 218.186, 325.027 218.517 C 325.562 218.847, 325.985 219.654, 325.967 220.309 C 325.948 220.964, 325.048 220.438, 323.967 219.139 C 322.885 217.841, 322 217.209, 322 217.734 C 322 218.965, 325.508 222.159, 326.152 221.515 C 327.181 220.486, 347.860 242.592, 348.590 245.504 C 349.432 248.857, 347.687 254.451, 339.856 273.500 C 332.762 290.758, 331.091 294.174, 330.057 293.535 C 329.552 293.223, 328.828 293.469, 328.449 294.082 C 328.070 294.696, 326.351 295.810, 324.630 296.560 C 322.908 297.309, 322.227 297.939, 323.115 297.961 C 324.003 297.982, 325.916 297.067, 327.365 295.927 C 328.814 294.788, 330 294.326, 330 294.902 C 330 296.471, 324.041 299.244, 321.882 298.679 C 320.845 298.408, 320.249 298.595, 320.558 299.093 C 320.884 299.621, 314.506 300.006, 305.309 300.014 C 296.614 300.021, 288.375 300.285, 287 300.600 C 284.961 301.068, 284.776 300.959, 286 300.011 C 287.333 298.977, 287.333 298.893, 286 299.257 C 285.175 299.482, 284.487 300.079, 284.471 300.583 C 284.455 301.087, 283.207 303.339, 281.697 305.586 L 278.951 309.673 278.973 345.248 C 278.985 364.815, 279.287 381.651, 279.644 382.662 C 280.001 383.673, 281.436 385.738, 282.834 387.250 C 284.231 388.763, 284.910 390, 284.342 390 C 282.821 390, 280.295 386.917, 278.583 382.970 C 277.756 381.062, 277.061 380.221, 277.039 381.102 C 276.985 383.304, 280.975 388.953, 283.957 390.898 C 285.703 392.036, 286.173 392.107, 285.582 391.143 C 284.948 390.109, 285.240 389.942, 286.807 390.439 C 287.939 390.798, 296.391 391.288, 305.589 391.528 C 323.864 392.005, 325.439 392.259, 328.719 395.260 C 330.689 397.062, 337.434 411.951, 346.217 433.882 C 350.555 444.715, 350.108 445.979, 337.308 459.105 C 331.507 465.053, 326.296 469.826, 325.729 469.710 C 324.411 469.442, 319.993 475.781, 320.022 477.898 C 320.034 478.779, 320.942 477.520, 322.040 475.101 C 323.137 472.682, 324.286 470.952, 324.592 471.258 C 324.897 471.564, 324.439 473.184, 323.574 474.857 C 321.579 478.715, 321.562 484.274, 323.532 488.426 C 324.374 490.201, 331.012 497.532, 338.282 504.717 C 345.552 511.901, 352.838 519.292, 354.473 521.140 C 356.109 522.988, 349.874 517.075, 340.619 508 C 330.262 497.845, 323.070 489.962, 321.917 487.500 C 320.887 485.300, 320.034 484.085, 320.022 484.800 C 319.968 487.992, 324.293 492.933, 346.176 514.680 C 368.896 537.260, 372.197 539.860, 376.671 538.705 C 377.871 538.394, 377.538 538.192, 375.700 538.116 C 371.823 537.955, 368.115 535.831, 364 531.412 L 360.500 527.654 365.612 531.868 C 371.122 536.408, 375.509 537.690, 381.620 536.544 C 384.639 535.977, 387.780 533.458, 398.087 523.338 C 415.128 506.607, 412.825 506.824, 439.214 519.461 C 459.874 529.355, 463.374 531.574, 465.300 536 C 465.899 537.375, 466.665 545.925, 467.003 555 C 467.340 564.075, 468.004 572.361, 468.478 573.414 C 469.156 574.919, 469.036 575.152, 467.920 574.504 C 467.078 574.015, 466.839 574.050, 467.333 574.590 C 467.792 575.090, 468.467 575.521, 468.833 575.548 C 469.200 575.574, 471.060 576.573, 472.967 577.769 C 478.008 580.929, 481.279 581.163, 515.500 580.815 C 544.081 580.525, 546.773 580.347, 550 578.542 C 551.925 577.465, 553.874 576.565, 554.331 576.542 C 555.587 576.479, 558.005 572.826, 557.961 571.059 C 557.939 570.201, 557.257 571.031, 556.446 572.901 C 555.634 574.772, 554.745 576.079, 554.472 575.805 C 554.198 575.531, 554.655 573.677, 555.487 571.686 C 556.604 569.013, 557 564.233, 557 553.433 C 557 537.380, 557.956 533.582, 562.873 530.101 C 566.156 527.777, 596.784 513.316, 603.411 510.961 C 607.229 509.604, 609.009 509.445, 611.411 510.247 C 614.898 511.410, 619.174 514.909, 618.480 516.032 C 618.228 516.440, 618.692 517.329, 619.511 518.009 C 620.330 518.689, 621 518.862, 621 518.395 C 621 517.927, 624.802 521.327, 629.449 525.950 C 634.096 530.573, 637.689 534.694, 637.433 535.108 C 637.177 535.523, 637.494 536.187, 638.138 536.585 C 638.923 537.070, 639.039 536.872, 638.490 535.985 C 637.866 534.975, 638.127 534.858, 639.586 535.492 C 642.505 536.760, 648.698 537.291, 651.760 536.535 C 653.503 536.105, 662.779 527.616, 677.250 513.208 C 689.762 500.750, 700.015 490.995, 700.033 491.529 C 700.052 492.063, 700.952 491.438, 702.033 490.139 C 703.115 488.841, 703.982 487.266, 703.960 486.639 C 703.938 486.013, 703.228 486.777, 702.382 488.338 C 700.260 492.253, 699.640 491.107, 701.487 486.686 C 703.408 482.088, 703.394 479.663, 701.426 475.857 C 699.423 471.983, 700.321 470.859, 702.382 474.662 C 703.228 476.223, 703.938 477.038, 703.960 476.473 C 704.022 474.887, 700.960 470.907, 700.091 471.444 C 699.667 471.706, 693.847 466.386, 687.160 459.621 C 671.913 444.199, 672.141 446.283, 682.750 419.319 C 689.068 403.261, 691.207 398.904, 694.327 395.734 L 698.154 391.846 717.049 392.173 C 727.441 392.353, 735.169 392.194, 734.222 391.820 C 732.661 391.204, 732.656 391.134, 734.168 391.070 C 735.086 391.032, 736.661 390.733, 737.668 390.406 C 739.225 389.900, 739.275 389.987, 738 390.982 C 736.971 391.785, 736.916 392.042, 737.825 391.801 C 738.554 391.608, 739.143 391.011, 739.136 390.475 C 739.128 389.939, 739.938 388.600, 740.936 387.500 C 744.889 383.142, 745 382.001, 744.996 345.816 C 744.993 311.976, 744.907 310.359, 742.942 307.137 C 741.815 305.288, 741.117 303.549, 741.392 303.274 C 741.667 302.999, 742.815 304.288, 743.942 306.137 C 745.070 307.987, 745.994 308.931, 745.996 308.235 C 745.998 307.540, 744.385 305.290, 742.411 303.235 C 740.437 301.181, 739.161 300.139, 739.575 300.920 C 740.164 302.030, 739.911 302.147, 738.414 301.455 C 737.361 300.969, 728.175 300.326, 718 300.026 C 706.915 299.699, 698.698 299.020, 697.500 298.332 C 693.520 296.047, 690.922 292.193, 687.454 283.429 C 685.511 278.518, 683.511 273.600, 683.010 272.500 C 680.889 267.843, 675.247 253.310, 674.699 251.092 C 673.618 246.713, 676.970 241.635, 688.952 229.500 C 702.847 215.427, 704.494 212.089, 701.163 204.738 C 700.106 202.407, 697.182 198.513, 694.664 196.084 C 692.147 193.656, 690.362 191.224, 690.698 190.680 C 691.034 190.136, 690.868 189.964, 690.328 190.297 C 689.028 191.100, 676.718 178.637, 677.722 177.534 C 678.150 177.064, 678.018 176.953, 677.430 177.288 C 676.841 177.622, 671.891 173.387, 666.430 167.877 C 660.968 162.366, 654.925 157.009, 653 155.973 C 650.982 154.886, 650.209 154.070, 651.173 154.044 C 652.094 154.020, 655.019 155.643, 657.673 157.651 C 660.328 159.659, 661.630 160.320, 660.566 159.119 C 659.502 157.918, 657.181 156.039, 655.408 154.943 C 652.188 152.953, 648.967 153.106, 640.625 155.644 C 639.326 156.039, 638.979 155.843, 639.495 155.007 C 640.056 154.101, 639.776 154.057, 638.371 154.833 C 636 156.142, 613.975 178.515, 616 177.557 C 616.825 177.167, 616.438 177.782, 615.139 178.924 C 612.879 180.911, 610.289 181.454, 605.129 181.023 C 602.235 180.781, 599.091 179.416, 577.805 169.159 C 563.705 162.364, 560.830 160.600, 559.309 157.807 C 557.828 155.089, 557.408 151.207, 556.954 136 C 556.650 125.825, 556.055 116.600, 555.631 115.500 C 555.172 114.307, 555.481 114.509, 556.395 116 C 557.239 117.375, 557.945 118.024, 557.965 117.441 C 557.984 116.859, 557.339 115.509, 556.532 114.441 C 555.724 113.374, 555.049 112.907, 555.032 113.405 C 555.014 113.903, 554.111 113.505, 553.024 112.521 C 551.937 111.538, 551.269 110.374, 551.540 109.935 C 551.811 109.497, 551.506 108.813, 550.862 108.415 C 550.077 107.930, 549.961 108.128, 550.510 109.015 C 551.142 110.038, 550.892 110.130, 549.414 109.420 C 547.364 108.435, 478.513 107.753, 476 108.693 M 465.411 135 C 465.411 144.625, 465.561 148.563, 465.745 143.750 C 465.928 138.937, 465.928 131.062, 465.745 126.250 C 465.561 121.438, 465.411 125.375, 465.411 135 M 558.407 136 C 558.407 145.075, 558.559 148.787, 558.744 144.250 C 558.929 139.713, 558.929 132.287, 558.744 127.750 C 558.559 123.213, 558.407 126.925, 558.407 136 M 387.600 156.842 C 389.745 158.406, 393.377 161.732, 395.671 164.235 C 397.966 166.737, 400.441 169.098, 401.171 169.481 C 401.902 169.864, 398.802 166.538, 394.282 162.089 C 389.762 157.640, 385.532 154, 384.882 154 C 384.232 154, 385.455 155.279, 387.600 156.842 M 627 166.500 C 621.245 172.275, 616.986 177, 617.536 177 C 618.086 177, 623.245 172.275, 629 166.500 C 634.755 160.725, 639.014 156, 638.464 156 C 637.914 156, 632.755 160.725, 627 166.500 M 663.791 163.500 C 664.375 164.600, 667.460 167.975, 670.648 171 L 676.443 176.500 670.016 169.500 C 666.481 165.650, 663.395 162.275, 663.159 162 C 662.923 161.725, 663.207 162.400, 663.791 163.500 M 432.500 173.223 C 428.100 175.490, 422.925 177.923, 421 178.629 C 418.882 179.405, 418.290 179.909, 419.500 179.905 C 420.600 179.901, 426.225 177.469, 432 174.500 C 437.775 171.531, 442.050 169.102, 441.500 169.101 C 440.950 169.101, 436.900 170.955, 432.500 173.223 M 594 175.500 C 597.575 177.372, 600.950 178.903, 601.500 178.903 C 602.050 178.903, 599.575 177.372, 596 175.500 C 592.425 173.628, 589.050 172.097, 588.500 172.097 C 587.950 172.097, 590.425 173.628, 594 175.500 M 695.069 194.435 C 696.482 196.121, 698.845 198.997, 700.319 200.827 C 701.794 202.656, 702.999 203.781, 702.998 203.327 C 702.997 202.872, 700.635 199.996, 697.748 196.935 C 694.862 193.875, 693.656 192.750, 695.069 194.435 M 702.620 215.379 C 702.201 217.047, 697.451 222.886, 691.237 229.371 L 680.572 240.500 690.338 231 C 700.344 221.265, 704.482 215.946, 703.752 213.756 C 703.525 213.074, 703.015 213.804, 702.620 215.379 M 497.500 220.608 C 482.315 222.839, 460.210 229.912, 461.565 232.106 C 461.862 232.585, 461.421 232.715, 460.587 232.395 C 458.799 231.709, 447.737 237.766, 448.506 239.010 C 448.796 239.479, 448.506 240.187, 447.862 240.585 C 447.088 241.063, 446.960 240.873, 447.485 240.025 C 448.014 239.169, 447.815 238.895, 446.889 239.204 C 446.125 239.458, 445.500 240.154, 445.500 240.750 C 445.500 241.346, 445.090 242.208, 444.590 242.667 C 444.061 243.151, 443.981 242.976, 444.399 242.250 C 445.471 240.387, 443.456 240.739, 441.872 242.692 C 440.689 244.151, 440.706 244.262, 442 243.500 C 443.294 242.738, 443.311 242.849, 442.128 244.308 C 440.642 246.140, 439.494 246.628, 440.500 245 C 441.695 243.067, 439.288 244.025, 437.405 246.233 C 435.519 248.443, 435.520 248.451, 437.500 247 C 439.480 245.549, 439.481 245.557, 437.595 247.767 C 435.643 250.055, 434.394 250.790, 435.500 249 C 436.803 246.892, 434.235 248.127, 431.924 250.720 C 430.080 252.789, 429.978 253.102, 431.500 252.028 C 432.600 251.252, 430.362 253.853, 426.527 257.808 C 422.692 261.764, 419.331 265, 419.058 265 C 418.786 265, 421.234 262.300, 424.500 259 C 427.766 255.700, 429.981 253, 429.423 253 C 428.378 253, 416 266.361, 416 267.488 C 416 267.835, 416.563 267.800, 417.250 267.412 C 418.171 266.892, 418.158 267.074, 417.200 268.103 C 416.485 268.871, 415.372 269.500, 414.728 269.500 C 413.223 269.500, 406.230 279.745, 400.498 290.346 C 395.401 299.772, 388.845 318.926, 386.925 330 C 384.272 345.303, 385.402 364.024, 390.008 381.096 C 393.318 393.365, 404.900 416.798, 407.010 415.494 C 407.478 415.204, 408.187 415.494, 408.585 416.138 C 409.063 416.912, 408.873 417.040, 408.025 416.515 C 407.169 415.986, 406.895 416.185, 407.204 417.111 C 407.458 417.875, 408.154 418.500, 408.750 418.500 C 409.346 418.500, 410.208 418.910, 410.667 419.410 C 411.159 419.948, 410.935 419.993, 410.120 419.521 C 409.171 418.971, 408.898 419.155, 409.245 420.111 C 409.523 420.875, 410.203 421.405, 410.756 421.290 C 411.309 421.174, 412.603 422.074, 413.631 423.290 L 415.500 425.500 413.250 423.595 C 410.069 420.902, 410.440 423.141, 413.661 426.076 C 415.125 427.409, 415.959 427.825, 415.514 427 C 415.070 426.175, 416.572 427.279, 418.853 429.453 C 421.134 431.627, 423 433.628, 423 433.899 C 423 434.170, 421.425 432.866, 419.500 431 C 417.575 429.134, 416 428.046, 416 428.581 C 416 429.818, 429.236 443, 430.478 443 C 430.988 443, 429.627 441.087, 427.453 438.750 L 423.500 434.500 427.732 438.435 C 430.059 440.599, 431.746 442.588, 431.479 442.854 C 430.836 443.497, 434.044 447, 435.277 447 C 435.810 447, 435.627 446.212, 434.872 445.250 C 433.624 443.659, 433.661 443.626, 435.274 444.893 C 436.250 445.658, 436.816 446.517, 436.533 446.800 C 435.846 447.487, 437.977 450, 439.245 450 C 439.795 450, 439.627 449.212, 438.872 448.250 C 437.634 446.671, 437.668 446.632, 439.218 447.846 C 440.163 448.586, 440.838 449.655, 440.718 450.221 C 440.598 450.787, 441.125 451.477, 441.889 451.755 C 442.845 452.102, 443.029 451.829, 442.479 450.880 C 442.007 450.065, 442.052 449.841, 442.590 450.333 C 443.090 450.792, 443.500 451.692, 443.500 452.333 C 443.500 454.196, 465.646 464.704, 475.488 467.510 C 502.076 475.092, 527.863 474.709, 553.500 466.351 C 567.857 461.670, 593.088 447.569, 591.552 445.084 C 590.771 443.821, 595.717 439.707, 597.036 440.522 C 597.766 440.974, 600.667 438.695, 604.610 434.575 C 610.748 428.159, 613.421 423.648, 608.750 427.588 C 606.724 429.297, 606.741 429.213, 608.924 426.743 C 611.488 423.843, 612.607 423.165, 611.387 425.250 C 610.985 425.938, 611.634 425.643, 612.828 424.595 C 615.406 422.334, 615.781 420.143, 613.250 422.128 C 611.666 423.370, 611.630 423.335, 612.863 421.761 C 613.613 420.805, 614.595 420.250, 615.045 420.528 C 615.495 420.806, 616.569 420.026, 617.432 418.794 C 619.318 416.101, 619.466 414.614, 617.750 415.601 C 617.024 416.019, 616.849 415.939, 617.333 415.410 C 617.792 414.910, 618.643 414.500, 619.225 414.500 C 621.064 414.500, 629.758 396.996, 633.469 385.825 C 644.034 354.023, 641.413 322.820, 625.530 291.312 C 619.636 279.619, 612.861 269.373, 611.246 269.710 C 610.692 269.826, 609.397 268.926, 608.369 267.710 L 606.500 265.500 608.750 267.405 C 610.083 268.534, 611 268.826, 611 268.123 C 611 265.714, 586.739 242.928, 585.497 244.170 C 585.248 244.419, 587.172 246.256, 589.772 248.252 C 592.372 250.248, 597.425 254.935, 601 258.667 L 607.500 265.453 599.500 257.919 C 595.100 253.775, 589.817 249.123, 587.760 247.581 C 585.703 246.039, 584.254 244.399, 584.540 243.936 C 584.826 243.473, 582.690 241.498, 579.793 239.547 C 574.394 235.910, 572.336 235.116, 573.595 237.155 C 574.041 237.876, 573.869 238.037, 573.138 237.585 C 572.494 237.187, 572.216 236.460, 572.519 235.969 C 573.683 234.085, 556.647 226.935, 542.500 223.371 C 534.382 221.326, 529.488 220.787, 516.500 220.509 C 507.700 220.321, 499.150 220.365, 497.500 220.608 M 507.250 221.739 C 510.413 221.937, 515.587 221.937, 518.750 221.739 C 521.913 221.541, 519.325 221.378, 513 221.378 C 506.675 221.378, 504.087 221.541, 507.250 221.739 M 339.709 236.187 C 343.353 240.179, 346.113 244.209, 346.557 246.187 C 346.966 248.009, 347.488 248.958, 347.718 248.295 C 348.509 246.016, 344.947 240.379, 339.281 234.944 L 333.605 229.500 339.709 236.187 M 677.697 242.935 C 676.764 244.515, 676.060 247.539, 676.134 249.654 C 676.267 253.488, 676.269 253.485, 676.917 248.863 C 677.274 246.313, 678.178 243.490, 678.926 242.589 C 679.673 241.689, 680.085 240.751, 679.840 240.507 C 679.595 240.262, 678.631 241.355, 677.697 242.935 M 568.875 291.500 C 568.806 291.775, 568.687 292.337, 568.610 292.750 C 568.323 294.283, 566.848 296, 565.819 296 C 565.178 296, 565.295 295.303, 566.110 294.250 C 567.238 292.794, 567.094 292.816, 565.256 294.384 C 564.041 295.420, 563.246 296.588, 563.488 296.981 C 563.730 297.373, 562.595 298.972, 560.964 300.534 C 559.334 302.096, 558 302.981, 558 302.500 C 558 302.019, 556.666 302.904, 555.036 304.466 C 553.405 306.028, 552.266 307.622, 552.505 308.008 C 552.743 308.394, 551.827 309.753, 550.469 311.029 C 549.111 312.305, 548 312.990, 548 312.552 C 548 312.114, 547.330 312.311, 546.511 312.991 C 545.692 313.671, 545.228 314.560, 545.480 314.968 C 545.732 315.376, 544.827 316.753, 543.469 318.029 C 542.111 319.305, 541 319.990, 541 319.552 C 541 319.114, 540.330 319.311, 539.511 319.991 C 538.692 320.671, 538.228 321.560, 538.480 321.968 C 538.732 322.376, 537.827 323.753, 536.469 325.029 C 535.111 326.305, 534 326.938, 534 326.436 C 534 325.934, 526.602 332.911, 517.560 341.940 C 508.518 350.970, 501.205 358.829, 501.310 359.405 C 501.414 359.981, 500.488 360.607, 499.250 360.796 C 498.012 360.985, 497 360.658, 497 360.070 C 497 359.481, 496.523 359, 495.941 359 C 495.359 359, 495.160 359.450, 495.500 360 C 496.544 361.689, 494.331 361.106, 492.872 359.308 C 491.690 357.850, 491.708 357.730, 493 358.440 C 493.825 358.893, 488.206 352.904, 480.513 345.132 C 472.821 337.359, 466.302 331, 466.027 331 C 465.753 331, 471.590 337.075, 479 344.500 C 486.410 351.925, 492.022 358, 491.472 358 C 490.921 358, 484.628 352.102, 477.486 344.894 C 470.344 337.686, 462.827 331.014, 460.783 330.069 C 455.584 327.665, 448.407 328.688, 443.346 332.555 C 441.230 334.171, 439.200 335.495, 438.833 335.497 C 438.467 335.499, 437.792 335.910, 437.333 336.410 C 436.849 336.939, 437.024 337.019, 437.750 336.601 C 439.373 335.667, 439.284 336.880, 437.500 340 C 435.614 343.300, 435.627 351.761, 437.524 355.399 C 438.355 356.993, 438.838 358.495, 438.596 358.737 C 438.354 358.979, 437.464 357.900, 436.618 356.338 C 435.772 354.777, 435.062 353.962, 435.040 354.527 C 434.979 356.087, 438.033 360.097, 438.882 359.573 C 439.292 359.319, 450.395 369.887, 463.556 383.056 C 476.717 396.225, 487.081 407, 486.589 407 C 486.096 407, 480.474 401.946, 474.096 395.768 L 462.500 384.536 472.500 394.839 C 481.851 404.473, 489.438 411.136, 487.517 408.027 C 486.866 406.975, 487.113 406.841, 488.586 407.446 C 493.369 409.409, 498.435 410.044, 501.311 409.041 C 505.234 407.674, 506.275 407.727, 505.399 409.250 C 504.981 409.976, 505.061 410.151, 505.590 409.667 C 506.090 409.208, 506.500 408.346, 506.500 407.750 C 506.500 407.154, 507.125 406.458, 507.889 406.204 C 508.850 405.883, 509.022 406.166, 508.447 407.120 C 507.744 408.288, 507.874 408.291, 509.297 407.137 C 510.222 406.387, 510.772 405.440, 510.520 405.032 C 509.979 404.157, 514.424 399.757, 515.133 400.466 C 515.399 400.733, 518.066 398.374, 521.059 395.225 L 526.500 389.500 520.523 395 C 517.236 398.025, 514.761 400.183, 515.023 399.796 C 516.108 398.194, 558.390 356, 558.911 356 C 559.222 356, 552.058 363.538, 542.991 372.750 C 533.924 381.962, 539.666 376.453, 555.752 360.506 C 571.839 344.560, 585 331.328, 585 331.101 C 585 330.440, 581.583 333.707, 570.270 345.188 C 564.424 351.120, 559.406 355.739, 559.119 355.452 C 558.338 354.671, 586.120 327.137, 587.398 327.424 C 588.004 327.561, 588.130 327.472, 587.677 327.228 C 587.224 326.984, 587.852 325.722, 589.072 324.423 C 590.292 323.124, 591.624 322.268, 592.032 322.520 C 592.440 322.772, 593.387 322.195, 594.137 321.239 C 595.370 319.665, 595.334 319.630, 593.750 320.872 C 591.532 322.612, 591.556 322.294, 594 317.500 C 596.387 312.818, 596.525 309.192, 594.500 304.346 C 592.697 300.030, 592.664 299.674, 594.155 300.595 C 594.876 301.041, 595.037 300.869, 594.585 300.138 C 594.187 299.494, 593.512 299.184, 593.084 299.448 C 592.108 300.051, 586.761 294.572, 587.553 293.781 C 587.872 293.462, 587.584 292.861, 586.912 292.446 C 586.076 291.929, 585.949 292.108, 586.510 293.015 C 587.142 294.038, 586.892 294.130, 585.414 293.420 C 584.361 292.914, 580.268 292.508, 576.319 292.517 C 572.369 292.526, 569.669 292.195, 570.319 291.782 C 571.207 291.217, 571.190 291.027, 570.250 291.015 C 569.563 291.007, 568.944 291.225, 568.875 291.500 M 517.500 343 C 508.713 351.800, 501.968 358.993, 502.512 358.984 C 503.055 358.975, 510.398 351.775, 518.829 342.984 C 527.260 334.193, 534.005 327, 533.817 327 C 533.630 327, 526.287 334.200, 517.500 343 M 455.500 378 C 458.766 381.300, 461.662 384, 461.937 384 C 462.212 384, 459.766 381.300, 456.500 378 C 453.234 374.700, 450.338 372, 450.063 372 C 449.788 372, 452.234 374.700, 455.500 378 M 694.882 396.882 C 692.747 399.018, 691 401.334, 691 402.030 C 691 402.726, 692.021 401.767, 693.270 399.898 C 694.518 398.029, 697.106 395.713, 699.020 394.752 C 701.275 393.619, 701.843 393.003, 700.632 393.002 C 699.605 393.001, 697.018 394.747, 694.882 396.882 M 281.258 418.341 C 279.741 419.974, 279.121 420.952, 279.880 420.515 C 281.483 419.593, 281.635 419.177, 276.591 429.500 C 270.944 441.059, 265.224 458.762, 262.858 472 C 260.254 486.577, 259.270 514.898, 260.931 527.500 C 264.036 551.062, 273.010 575.042, 287.168 597.608 C 291.152 603.958, 291.805 605.615, 289.845 604.405 C 289.124 603.959, 288.963 604.131, 289.415 604.862 C 289.813 605.506, 290.515 605.800, 290.975 605.516 C 291.435 605.231, 293.429 607.250, 295.406 610.002 C 299.365 615.513, 299.914 616.961, 297.250 614.872 C 295.659 613.624, 295.626 613.661, 296.893 615.274 C 297.658 616.250, 298.517 616.816, 298.800 616.533 C 299.487 615.846, 302 617.977, 302 619.245 C 302 619.795, 301.212 619.627, 300.250 618.872 C 298.659 617.624, 298.626 617.661, 299.893 619.274 C 300.658 620.250, 301.525 620.808, 301.818 620.515 C 302.503 619.831, 307 624.026, 307 625.349 C 307 625.899, 305.781 625.258, 304.290 623.924 C 302.800 622.591, 303.984 624.329, 306.921 627.786 C 309.858 631.244, 312.503 633.830, 312.799 633.534 C 313.492 632.841, 317 635.994, 317 637.310 C 317 637.860, 315.988 637.456, 314.750 636.412 C 312.717 634.698, 312.734 634.779, 314.921 637.253 C 316.252 638.760, 317.569 639.765, 317.846 639.487 C 318.511 638.823, 323 643.058, 323 644.349 C 323 644.899, 321.762 644.259, 320.250 642.928 C 317.587 640.584, 317.592 640.609, 320.427 643.743 C 322.037 645.523, 323.579 646.755, 323.853 646.480 C 324.513 645.821, 329 650.065, 329 651.349 C 329 651.899, 327.783 651.258, 326.296 649.924 C 324.799 648.582, 325.511 649.845, 327.890 652.751 C 330.254 655.639, 332.546 657.781, 332.983 657.511 C 333.784 657.015, 339 663.199, 339 664.646 C 339 665.074, 337.618 663.866, 335.928 661.962 L 332.856 658.500 335.539 662.240 C 337.015 664.297, 338.621 665.734, 339.107 665.434 C 340.438 664.611, 354.251 686.373, 360.882 699.739 C 368.620 715.334, 373.270 729.764, 377.989 752.823 C 380.133 763.297, 382.866 774.143, 384.063 776.925 C 386.705 783.066, 392.023 788.073, 398.596 790.609 C 403.297 792.422, 407.963 792.500, 511.500 792.500 C 626.255 792.500, 623.378 792.612, 630.154 787.861 C 633.489 785.523, 634.643 785.476, 632.916 787.750 C 632.185 788.712, 633.255 787.949, 635.294 786.054 C 639.026 782.584, 640.428 780.577, 637.337 783.128 C 636.423 783.882, 635.883 784.050, 636.138 783.500 C 636.393 782.950, 637.605 780.380, 638.831 777.788 C 640.919 773.373, 643.694 761.906, 647.491 742 C 650.762 724.857, 660.186 701.403, 670.997 683.506 C 673.831 678.814, 676.532 675.211, 676.998 675.499 C 677.465 675.787, 678.819 674.556, 680.006 672.762 L 682.165 669.500 679.588 672.500 C 678.170 674.150, 677.008 675.119, 677.005 674.654 C 676.996 673.121, 681.136 667.966, 681.965 668.478 C 682.412 668.755, 683.985 667.297, 685.461 665.240 L 688.144 661.500 685.072 664.962 C 683.382 666.866, 682 668.074, 682 667.646 C 682 666.220, 687.210 660.012, 687.998 660.499 C 688.424 660.762, 689.387 660.195, 690.137 659.239 C 691.370 657.665, 691.334 657.630, 689.750 658.872 C 687.219 660.857, 687.594 658.666, 690.172 656.405 C 691.366 655.357, 692.015 655.063, 691.613 655.750 C 689.816 658.823, 692.218 656.404, 698.068 649.250 C 701.553 644.988, 703.398 642.371, 702.168 643.436 C 700.938 644.501, 698.287 647.528, 696.277 650.164 C 694.267 652.800, 692.439 654.772, 692.214 654.547 C 691.491 653.825, 703.088 639.936, 703.962 640.477 C 704.426 640.763, 707.199 638.185, 710.125 634.749 C 713.051 631.312, 714.445 629.357, 713.223 630.405 C 712 631.453, 711 631.965, 711 631.544 C 711 630.116, 719.182 620.995, 720.006 621.504 C 720.456 621.782, 722.318 620.095, 724.143 617.755 C 725.968 615.415, 726.683 614.118, 725.731 614.872 C 724.779 615.627, 724 615.795, 724 615.245 C 724 613.977, 726.513 611.846, 727.200 612.533 C 727.483 612.816, 728.342 612.250, 729.107 611.274 C 730.374 609.661, 730.341 609.624, 728.750 610.872 C 727.788 611.627, 727 611.993, 727 611.685 C 727 610.602, 740.314 591.500, 741.069 591.500 C 741.490 591.500, 742.208 591.090, 742.667 590.590 C 743.151 590.061, 742.976 589.981, 742.250 590.399 C 740.724 591.277, 740.662 590.500, 742.050 587.906 C 742.628 586.827, 743.523 586.205, 744.039 586.524 C 744.555 586.843, 744.713 586.417, 744.391 585.577 C 744.069 584.738, 744.718 582.575, 745.833 580.771 C 749.009 575.632, 754.697 561.546, 757.409 552.104 C 762.838 533.207, 763.501 527.950, 763.477 504 C 763.457 484.368, 763.163 480.161, 761.173 471 C 757.636 454.717, 752.903 440.694, 746.992 428.983 C 743.727 422.517, 743.438 421.535, 745.100 422.562 C 746.875 423.659, 744.399 419.560, 742.305 417.935 C 740.577 416.594, 740.574 416.622, 742.250 418.596 C 744.860 421.671, 744.363 422.690, 741.544 420.042 C 740.194 418.773, 739.181 417.274, 739.294 416.712 C 739.552 415.433, 719.298 415.770, 716.840 417.086 C 714.189 418.504, 713.280 418.103, 715.441 416.468 C 716.509 415.661, 716.916 415, 716.346 415 C 715.266 415, 712.063 418.128, 712.249 419 C 712.308 419.275, 711.534 421.652, 710.530 424.283 C 708.240 430.277, 709.102 433.662, 716.039 445.916 C 727.225 465.677, 731.418 482.142, 731.467 506.500 C 731.504 524.619, 729.796 535.750, 724.810 549.880 C 721.008 560.657, 714.233 574.262, 713.038 573.523 C 712.543 573.218, 711.813 573.494, 711.415 574.138 C 710.963 574.869, 711.124 575.041, 711.845 574.595 C 713.557 573.538, 713.255 574.852, 710.915 578.638 C 709.768 580.494, 708.449 581.777, 707.984 581.490 C 707.519 581.203, 706.813 581.494, 706.415 582.138 C 705.937 582.912, 706.127 583.040, 706.975 582.515 C 707.837 581.983, 708.093 582.179, 707.755 583.111 C 707.477 583.875, 706.787 584.402, 706.221 584.282 C 705.655 584.162, 704.586 584.837, 703.846 585.782 C 702.632 587.332, 702.671 587.366, 704.250 586.128 C 707.060 583.924, 706.267 586.274, 702.932 590.038 C 701.244 591.942, 700.196 592.825, 700.603 592 C 701.100 590.994, 700.628 591.127, 699.172 592.405 C 696.746 594.533, 696.148 595.952, 698.500 594 C 699.337 593.306, 700 593.197, 700 593.755 C 700 594.995, 697.494 597.160, 696.829 596.495 C 696.561 596.227, 695.252 597.244, 693.921 598.754 L 691.500 601.500 694.250 599.076 C 695.763 597.742, 697 597.101, 697 597.651 C 697 598.942, 692.511 603.177, 691.846 602.513 C 691.569 602.235, 690.252 603.240, 688.921 604.747 C 686.734 607.221, 686.717 607.302, 688.750 605.588 C 689.987 604.544, 691 604.126, 691 604.658 C 691 605.925, 685.510 611.177, 684.862 610.529 C 684.588 610.255, 682.819 611.710, 680.932 613.763 L 677.500 617.496 680.750 614.561 C 682.538 612.947, 684 612.072, 684 612.617 C 684 613.908, 677.522 620.188, 676.866 619.533 C 676.589 619.256, 674.819 620.706, 672.932 622.755 C 670.684 625.196, 670.448 625.648, 672.250 624.066 C 673.763 622.738, 675 622.101, 675 622.651 C 675 623.935, 670.513 628.179, 669.853 627.520 C 669.579 627.245, 668.037 628.477, 666.427 630.257 C 663.592 633.391, 663.587 633.416, 666.250 631.072 C 667.763 629.741, 669 629.096, 669 629.639 C 669 630.965, 663.504 636.171, 662.823 635.490 C 662.527 635.194, 661.658 635.750, 660.893 636.726 C 659.626 638.339, 659.659 638.376, 661.250 637.128 C 662.212 636.373, 663 636.069, 663 636.452 C 663 637.886, 649.682 654.921, 648.926 654.454 C 648.493 654.186, 647.813 654.494, 647.415 655.138 C 646.963 655.869, 647.124 656.041, 647.845 655.595 C 649.836 654.365, 649.140 656.003, 644.531 663.398 C 637.850 674.117, 628.239 694.989, 623.888 708.228 C 621.768 714.679, 618.641 726.829, 616.939 735.228 C 613.522 752.096, 612.077 755.461, 606.965 758.465 C 603.560 760.465, 601.961 760.505, 514.203 760.776 C 450.393 760.973, 423.714 760.731, 420.728 759.927 C 418.339 759.283, 415.225 757.398, 413.459 755.525 C 410.827 752.735, 410.114 750.786, 408.648 742.375 C 403.267 711.515, 392.979 685, 376.438 659.360 C 370.610 650.325, 370.005 648.974, 372.750 651.128 C 374.334 652.370, 374.370 652.335, 373.137 650.761 C 372.387 649.805, 371.409 649.247, 370.963 649.523 C 370.518 649.798, 369.219 648.711, 368.076 647.107 C 365.541 643.546, 365.403 642.287, 367.750 644.128 C 368.712 644.882, 367.843 643.475, 365.817 641 C 363.792 638.525, 361.697 636.598, 361.162 636.718 C 360.153 636.945, 351 626.765, 351 625.416 C 351 624.996, 352.238 625.741, 353.750 627.072 C 356.413 629.416, 356.408 629.391, 353.573 626.257 C 351.963 624.477, 350.418 623.249, 350.139 623.528 C 349.477 624.190, 343 617.911, 343 616.608 C 343 616.058, 344.575 617.134, 346.500 619 C 348.425 620.866, 350 622.177, 350 621.915 C 350 621.652, 347.195 618.751, 343.766 615.469 C 340.337 612.186, 338.846 610.962, 340.453 612.750 C 342.060 614.538, 343.074 616, 342.708 616 C 341.838 616, 333.616 607.123, 333.113 605.641 C 332.900 605.013, 334.025 605.621, 335.613 606.991 C 337.892 608.956, 337.774 608.693, 335.054 605.741 C 331.471 601.852, 329.772 600.711, 332.089 603.750 C 332.823 604.712, 331.978 604.178, 330.212 602.563 C 326.603 599.263, 325.751 596.632, 329.250 599.595 L 331.500 601.500 329.589 599.244 C 328.539 598.003, 327.455 597.212, 327.181 597.485 C 326.509 598.158, 324 596.005, 324 594.755 C 324 594.205, 324.788 594.365, 325.750 595.110 C 327.175 596.214, 327.146 596.050, 325.595 594.233 C 323.514 591.794, 322.454 591.269, 323.613 593.250 C 324.015 593.938, 323.366 593.643, 322.172 592.595 C 319.594 590.334, 319.219 588.143, 321.750 590.128 C 323.334 591.370, 323.370 591.335, 322.137 589.761 C 321.387 588.805, 320.395 588.256, 319.934 588.541 C 319.472 588.827, 317.498 586.690, 315.547 583.793 C 311.910 578.394, 311.116 576.336, 313.155 577.595 C 313.876 578.041, 314.037 577.869, 313.585 577.138 C 313.187 576.494, 312.462 576.214, 311.973 576.516 C 311.485 576.818, 310.391 575.723, 309.543 574.082 C 307.755 570.625, 307.602 569.636, 308.989 570.493 C 309.566 570.850, 309.716 570.424, 309.349 569.468 C 308.899 568.295, 308.513 568.170, 307.984 569.026 C 306.500 571.427, 297.282 547.865, 294.476 534.500 C 293.553 530.100, 292.559 519.685, 292.268 511.357 C 291.364 485.502, 294.320 472.075, 306.171 448.190 C 313.949 432.517, 314.241 431.678, 313.658 426.690 C 313.217 422.919, 313.338 421.910, 314.102 423 C 315.036 424.333, 315.102 424.333, 314.701 423 C 314.453 422.175, 313.803 421.593, 313.258 421.706 C 312.712 421.819, 311.227 420.806, 309.958 419.456 C 307.310 416.637, 308.329 416.140, 311.404 418.750 C 313.378 420.426, 313.406 420.423, 312.065 418.695 C 310.600 416.807, 306.344 414.129, 307.321 415.710 C 307.642 416.229, 305.334 416.486, 301.941 416.310 C 298.674 416.139, 293.304 415.859, 290.008 415.687 C 284.462 415.397, 283.811 415.594, 281.258 418.341 M 708.449 423.468 C 707.652 425.375, 707.049 428.188, 707.110 429.718 C 707.193 431.847, 707.414 431.513, 708.049 428.297 C 708.506 425.985, 709.373 423.172, 709.975 422.047 C 710.577 420.921, 710.807 420, 710.484 420 C 710.162 420, 709.246 421.561, 708.449 423.468 M 686 456.959 C 690.125 460.927, 694.850 465.371, 696.500 466.834 C 698.974 469.029, 698.887 468.823, 696 465.659 C 694.075 463.548, 689.350 459.104, 685.500 455.783 L 678.500 449.746 686 456.959 M 334.403 459.250 C 332.195 461.587, 329.751 464.400, 328.972 465.500 C 327.726 467.259, 335.429 459.531, 338.192 456.250 C 340.677 453.300, 338.082 455.354, 334.403 459.250 M 293.389 505.500 C 293.390 512.650, 293.550 515.444, 293.742 511.708 C 293.935 507.973, 293.934 502.123, 293.739 498.708 C 293.545 495.294, 293.387 498.350, 293.389 505.500 M 685.986 506.750 L 672.500 520.500 686.250 507.014 C 693.813 499.597, 700 493.409, 700 493.264 C 700 492.547, 698.514 493.977, 685.986 506.750 M 730.336 507 C 730.336 511.125, 730.513 512.813, 730.728 510.750 C 730.944 508.688, 730.944 505.313, 730.728 503.250 C 730.513 501.188, 730.336 502.875, 730.336 507 M 608.663 511.931 C 610.953 512.305, 613.450 513.036, 614.211 513.556 C 614.972 514.075, 614.736 513.712, 613.686 512.750 C 612.523 511.683, 610.358 511.049, 608.139 511.125 L 604.500 511.250 608.663 511.931 M 402.583 520.250 L 394.444 528.500 401.972 521.373 C 406.112 517.453, 410.400 513.754, 411.500 513.153 C 412.702 512.497, 412.946 512.049, 412.111 512.030 C 411.347 512.014, 407.059 515.712, 402.583 520.250 M 587 519.500 C 583.425 521.372, 580.950 522.903, 581.500 522.903 C 582.050 522.903, 585.425 521.372, 589 519.500 C 592.575 517.628, 595.050 516.097, 594.500 516.097 C 593.950 516.097, 590.575 517.628, 587 519.500 M 663.395 528.684 C 658.205 533.925, 654.070 537.218, 651.895 537.844 C 649.637 538.493, 649.203 538.850, 650.600 538.910 C 651.755 538.959, 654.455 537.701, 656.600 536.113 C 660.939 532.902, 672.636 521.209, 671.943 520.776 C 671.699 520.624, 667.853 524.183, 663.395 528.684 M 627.469 526.947 C 630.751 530.276, 633.632 533, 633.869 533 C 634.711 533, 624.477 522.240, 623 521.573 C 622.175 521.200, 624.186 523.618, 627.469 526.947 M 565.367 529.918 C 562.164 531.871, 558.997 535.631, 559.004 537.473 C 559.006 538.038, 559.886 537.059, 560.960 535.299 C 562.033 533.538, 564.281 531.389, 565.956 530.523 C 567.630 529.657, 569 528.735, 569 528.474 C 569 527.756, 568.749 527.855, 565.367 529.918 M 558.402 554 C 558.402 562.525, 558.556 566.013, 558.743 561.750 C 558.931 557.487, 558.931 550.513, 558.743 546.250 C 558.556 541.987, 558.402 545.475, 558.402 554 M 465.392 557 C 465.392 564.425, 465.549 567.462, 465.742 563.750 C 465.934 560.038, 465.934 553.962, 465.742 550.250 C 465.549 546.538, 465.392 549.575, 465.392 557 M 748.208 578.532 C 746.454 582.089, 745.233 585, 745.495 585 C 746.165 585, 752.211 572.878, 751.764 572.431 C 751.563 572.229, 749.962 574.975, 748.208 578.532 M 272 573.356 C 272 574.443, 279.965 590, 280.522 590 C 280.970 590, 273.321 574.101, 272.384 573.083 C 272.173 572.854, 272 572.977, 272 573.356 M 495.250 582.748 C 504.462 582.913, 519.538 582.913, 528.750 582.748 C 537.962 582.583, 530.425 582.448, 512 582.448 C 493.575 582.448, 486.038 582.583, 495.250 582.748 M 734.639 602 C 732.079 605.850, 730.196 609, 730.455 609 C 730.714 609, 732.664 606.413, 734.789 603.250 C 739.494 596.247, 740.237 595, 739.706 595 C 739.479 595, 737.199 598.150, 734.639 602 M 707.196 635.298 C 703.930 638.667, 702.754 641.279, 705.547 638.961 C 707.196 637.592, 711.388 632, 710.764 632 C 710.560 632, 708.954 633.484, 707.196 635.298 M 656.267 642.750 C 652.072 648.171, 648.794 653, 649.309 653 C 649.554 653, 652.053 649.850, 654.862 646 C 660.234 638.637, 661.228 636.338, 656.267 642.750 M 643.702 660.750 C 643.473 661.163, 642.022 663.750, 640.478 666.500 C 638.934 669.250, 638.135 671.050, 638.702 670.500 C 640.149 669.097, 645.306 660, 644.654 660 C 644.359 660, 643.931 660.337, 643.702 660.750 M 342.592 672.250 C 344.622 675.413, 346.470 678, 346.698 678 C 347.368 678, 343.750 672.204, 341.226 669.235 C 339.947 667.731, 340.562 669.087, 342.592 672.250 M 351.602 686.500 C 353.102 689.250, 354.755 691.950, 355.275 692.500 C 356.756 694.067, 352.352 685.738, 350.515 683.500 C 349.613 682.400, 350.101 683.750, 351.602 686.500 M 459.826 794.750 C 488.606 794.897, 535.406 794.897, 563.826 794.750 C 592.247 794.602, 568.700 794.482, 511.500 794.482 C 454.300 794.482, 431.047 794.602, 459.826 794.750 M 609.655 826.674 C 610.290 827.128, 566.395 827.500, 512.111 827.500 C 415.539 827.500, 413.349 827.542, 410.456 829.472 C 408.830 830.557, 407.157 831.343, 406.738 831.218 C 405.732 830.920, 402.002 837.080, 402.026 839 C 402.036 839.825, 402.912 838.587, 403.973 836.250 C 405.034 833.913, 406.161 832, 406.477 832 C 406.793 832, 406.378 833.303, 405.554 834.895 C 404.731 836.487, 403.794 839.525, 403.472 841.645 C 402.717 846.620, 406.147 853.585, 410.912 856.752 L 414.324 859.019 511.912 858.760 C 568.661 858.609, 610.301 858.115, 611.414 857.580 C 612.892 856.870, 613.142 856.962, 612.510 857.985 C 611.961 858.872, 612.077 859.070, 612.862 858.585 C 613.506 858.187, 613.814 857.508, 613.547 857.076 C 613.280 856.644, 614.173 855.247, 615.531 853.971 C 616.889 852.695, 618.014 852.067, 618.032 852.576 C 618.049 853.084, 618.724 852.626, 619.532 851.559 C 620.339 850.491, 620.980 848.916, 620.955 848.059 C 620.930 847.201, 620.292 847.850, 619.536 849.500 C 617.864 853.151, 617.574 851.519, 619.112 847.110 C 620.185 844.030, 619.635 839.889, 617.449 834.586 C 616.835 833.096, 616.975 832.855, 618.080 833.496 C 618.922 833.985, 619.161 833.950, 618.667 833.410 C 618.208 832.910, 617.308 832.500, 616.667 832.500 C 616.025 832.500, 615.500 831.960, 615.500 831.300 C 615.500 830.640, 614.847 829.515, 614.048 828.800 C 612.795 827.678, 612.778 827.739, 613.921 829.250 C 614.649 830.212, 614.795 831, 614.245 831 C 613.056 831, 610.359 827.941, 610.825 827.121 C 611.004 826.807, 610.554 826.392, 609.825 826.199 C 608.885 825.950, 608.836 826.088, 609.655 826.674 M 402.039 847.800 C 401.977 849.878, 404.595 854.335, 407.148 856.495 L 409.500 858.486 407.304 855.986 C 406.096 854.611, 404.426 851.914, 403.593 849.993 C 402.760 848.072, 402.061 847.085, 402.039 847.800 M 435.201 889.019 C 433.386 890.126, 432.143 891.423, 432.439 891.902 C 433.067 892.918, 430.586 895.252, 429.758 894.425 C 429.451 894.118, 428.861 894.416, 428.446 895.088 C 427.941 895.905, 428.108 896.051, 428.953 895.529 C 429.912 894.936, 430.009 895.318, 429.357 897.125 C 428.235 900.234, 428.290 910.969, 429.440 913.414 C 430.118 914.857, 430.027 915.135, 429.070 914.543 C 428.068 913.924, 428.040 914.206, 428.935 915.879 C 430.308 918.443, 431.181 918.679, 430.308 916.250 C 429.811 914.865, 430.202 914.975, 432.180 916.774 C 435.088 919.419, 439.950 921, 445.178 921 C 447.209 921, 450.137 921.476, 451.685 922.057 C 454.691 923.186, 464 931.766, 464 933.409 C 464 933.950, 462.425 932.866, 460.500 931 C 458.575 929.134, 457 927.823, 457 928.085 C 457 928.348, 459.805 931.249, 463.234 934.531 C 466.663 937.814, 468.154 939.038, 466.547 937.250 C 464.940 935.462, 464.076 934, 464.626 934 C 465.961 934, 471.175 939.492, 470.490 940.177 C 470.194 940.473, 470.750 941.342, 471.726 942.107 C 473.339 943.374, 473.376 943.341, 472.128 941.750 C 470.193 939.284, 471.240 939.562, 476.541 942.924 C 488.350 950.413, 502.276 953.652, 518.232 952.621 C 531.912 951.737, 546.582 946.147, 554.746 938.706 C 555.981 937.580, 557.246 936.913, 557.557 937.224 C 557.868 937.534, 556.069 939.262, 553.561 941.064 C 548.915 944.400, 547.592 945.837, 550.750 944.117 C 553.995 942.350, 561.018 935.839, 560.531 935.050 C 559.974 934.149, 563.416 930.749, 564.146 931.479 C 564.412 931.746, 566.401 930.060, 568.565 927.733 L 572.500 923.503 568.750 926.947 C 566.688 928.842, 565 929.901, 565 929.300 C 565 928.699, 566.565 926.833, 568.479 925.153 C 571.854 922.189, 573.201 921.763, 583.245 920.483 C 588.468 919.818, 593.137 916.569, 595.536 911.931 C 597.422 908.283, 597.401 901.293, 595.494 897.636 C 593.564 893.935, 593.611 893.460, 595.750 895.084 C 596.712 895.815, 595.949 894.745, 594.054 892.706 C 590.683 889.081, 589.264 888.001, 590.500 890 C 591.292 891.282, 590.376 891.271, 587.945 889.971 C 586.681 889.294, 560.902 888.916, 512.662 888.867 C 446.729 888.800, 438.982 888.958, 436.151 890.422 C 434.418 891.318, 433 891.793, 433 891.477 C 433 891.161, 434.913 890.034, 437.250 888.973 C 439.587 887.912, 440.825 887.036, 440 887.026 C 439.175 887.016, 437.015 887.913, 435.201 889.019" stroke="none" fill="#0b3baa" fill-rule="evenodd"/></svg>