<svg xmlns="http://www.w3.org/2000/svg" width="1024" height="1024" viewBox="0 0 1024 1024" version="1.1"><path d="M 322.500 159.734 C 403.362 160.356, 637.917 160.443, 635.811 159.850 C 634.540 159.492, 555.875 159.261, 461 159.336 C 366.125 159.411, 303.800 159.591, 322.500 159.734 M 643.500 163.685 C 647.178 165.592, 662.471 180.189, 701.340 218.889 C 731.558 248.976, 755.105 273.213, 756.340 275.500 C 758.335 279.194, 758.541 281.375, 759.042 304 L 759.584 328.500 759.782 305 C 759.977 281.855, 759.943 281.417, 757.478 276 C 755.329 271.275, 747.614 263.192, 702.738 218.646 C 654.592 170.854, 643.663 160.901, 639.500 161.056 C 638.950 161.076, 640.750 162.260, 643.500 163.685 M 262.500 165.954 C 244.010 175.048, 231.534 190.697, 227.531 209.815 C 226.175 216.294, 226.002 252.116, 226.017 522.815 C 226.037 860.002, 225.557 835.269, 232.350 849.471 C 240.275 866.041, 255.899 878.810, 273.983 883.495 C 279.892 885.027, 297.071 885.180, 479.465 885.333 C 588.934 885.425, 682.550 885.235, 687.500 884.912 C 692.450 884.588, 602.450 884.245, 487.500 884.148 L 278.500 883.973 270.223 881.092 C 258.714 877.086, 251.910 872.707, 243.884 864.143 C 236.060 855.795, 230.675 845.671, 228.435 835.104 C 226.264 824.863, 226.313 220.397, 228.485 210.069 C 231.273 196.818, 239.898 183.049, 250.781 174.476 C 255.591 170.686, 266.321 164.729, 272 162.695 C 273.333 162.218, 273.333 162.150, 272 162.088 C 271.175 162.050, 266.900 163.789, 262.500 165.954 M 368.250 195.750 C 414.312 195.894, 489.687 195.894, 535.750 195.750 C 581.812 195.606, 544.125 195.488, 452 195.488 C 359.875 195.488, 322.187 195.606, 368.250 195.750 M 275.838 198.521 C 270.025 201.548, 264.272 208.447, 262.415 214.615 C 261.208 218.625, 261 263.953, 261 522.477 C 261 865.547, 260.120 832.250, 269.435 841.565 C 278.675 850.806, 257.144 850.008, 495.432 849.944 C 693.426 849.891, 705.749 849.787, 709.829 848.131 C 716.158 845.563, 720.140 841.992, 723.473 835.899 C 726.399 830.548, 726.430 830.320, 727.011 810 C 727.400 796.404, 728.030 788.631, 728.882 786.919 C 729.589 785.500, 732.042 783.105, 734.333 781.596 C 737.930 779.229, 739.288 778.907, 744.263 779.242 C 750.398 779.655, 753.780 781.488, 757.438 786.382 C 759.344 788.932, 759.522 790.744, 759.794 810.321 C 760.049 828.675, 759.829 832.501, 758.147 839 C 755.860 847.838, 756.124 849.465, 758.609 841.849 C 759.999 837.590, 760.437 831.861, 760.759 813.728 L 761.164 790.956 758.680 786.717 C 752.599 776.341, 737.351 774.853, 729.743 783.893 C 726.409 787.855, 726.176 789.418, 725.616 811.591 C 725.111 831.586, 724.307 834.988, 718.699 840.838 C 716.940 842.673, 713.700 845.148, 711.500 846.338 L 707.500 848.500 494.500 848.500 L 281.500 848.500 276.351 845.784 C 273.519 844.291, 269.794 841.366, 268.072 839.284 C 261.530 831.374, 261.996 855.887, 262.044 522.068 C 262.092 192.774, 261.697 215.373, 267.539 206.944 C 270.455 202.736, 274.989 199.487, 280.882 197.381 C 282.983 196.630, 283.662 196.089, 282.500 196.090 C 281.400 196.092, 278.402 197.186, 275.838 198.521 M 618.096 226 C 618.029 258.257, 618.710 264.283, 623.588 274.594 C 627.373 282.595, 638.563 293.655, 647 297.735 C 657.629 302.875, 660.264 303.212, 693.750 303.718 L 725 304.191 725.006 332.846 C 725.009 350.560, 725.430 363.009, 726.109 365.453 C 728.275 373.258, 737.458 379.075, 745.292 377.605 C 752.053 376.337, 760.119 368.613, 759.914 363.602 C 759.844 361.884, 759.679 361.995, 759.012 364.209 C 757.794 368.248, 754.213 372.839, 750.971 374.515 C 749.360 375.348, 745.444 376, 742.053 376 C 736.530 376, 735.665 375.692, 732.075 372.449 C 726.523 367.433, 726 363.868, 726 331.046 L 726 303.191 694.750 302.749 C 669.446 302.391, 662.374 301.987, 657.581 300.622 C 640.277 295.696, 627.224 283.452, 621.783 267.042 C 619.781 261.005, 619.588 258.108, 619.278 229.500 C 619.093 212.450, 618.765 198.050, 618.550 197.500 C 618.334 196.950, 618.130 209.775, 618.096 226 M 652.188 237.538 C 652.013 253.425, 652.152 254.877, 654.250 259.031 C 655.646 261.796, 658.207 264.626, 661 266.490 C 665.490 269.487, 665.534 269.494, 681 269.624 L 696.500 269.755 681.500 269.123 C 664.536 268.409, 660.634 267.055, 655.983 260.273 C 653.628 256.840, 653.471 255.719, 652.938 238.576 L 652.376 220.500 652.188 237.538 M 658.041 224.700 C 664.543 232.104, 693.605 261.251, 697.500 264.273 C 699.700 265.980, 691.163 256.941, 678.528 244.188 C 665.894 231.435, 655.385 221, 655.175 221 C 654.965 221, 656.255 222.665, 658.041 224.700 M 329.168 296.135 C 318.756 301.314, 316.100 314.949, 323.871 323.339 C 329.964 329.919, 322.638 329.472, 429.304 329.774 C 498.413 329.970, 527.298 329.728, 530.268 328.928 C 538.537 326.701, 545.111 316.735, 543.605 308.708 C 542.717 303.977, 539.216 299.032, 534.997 296.554 C 531.541 294.524, 530.330 294.497, 432.500 294.240 L 333.500 293.981 329.168 296.135 M 330.500 296.405 C 326.231 298.328, 322.378 302.843, 320.997 307.540 C 318.886 314.721, 322.548 323.164, 329.288 326.649 C 332.087 328.096, 342.348 328.252, 431.783 328.206 L 531.167 328.155 534.962 325.644 C 539.171 322.859, 543.013 316.048, 542.978 311.434 C 542.941 306.508, 539.572 300.518, 535.368 297.905 L 531.500 295.500 432.500 295.277 C 351.112 295.093, 332.966 295.294, 330.500 296.405 M 759.345 343.596 C 759.260 348.218, 759.598 352, 760.095 352 C 761.179 352, 761.327 336.320, 760.250 335.655 C 759.837 335.400, 759.430 338.974, 759.345 343.596 M 329.500 390.406 C 316.847 396.054, 315.964 414.373, 328.003 421.446 C 331.478 423.487, 332.352 423.502, 466.862 423.764 L 602.224 424.028 606.702 421.792 C 612.975 418.659, 615.346 414.930, 615.822 407.449 C 616.289 400.119, 614.691 396.392, 609.329 392.302 L 605.656 389.500 469.078 389.283 C 356.778 389.105, 331.967 389.305, 329.500 390.406 M 329.415 391.421 C 322.992 394.218, 319.202 402.493, 320.895 410.027 C 322.023 415.048, 325.128 418.631, 330.500 421.110 C 334.325 422.875, 340.347 422.957, 468.038 422.978 L 601.576 423 606.030 420.750 C 612.336 417.565, 615 413.150, 615 405.887 C 615 400.788, 614.611 399.627, 611.852 396.484 C 605.705 389.483, 617.171 389.996, 467.800 390.039 C 356.820 390.071, 331.946 390.320, 329.415 391.421 M 739.500 407.929 C 735.103 408.990, 732.534 410.577, 729.634 414.023 C 725.529 418.902, 724.815 423.602, 725.173 443.394 C 725.491 461.009, 725.574 461.625, 728.216 466.120 C 731.574 471.833, 736.506 474.491, 743.648 474.437 C 751.213 474.380, 758.012 469.222, 759.540 462.381 C 760.047 460.109, 759.717 460.402, 757.979 463.766 C 752.622 474.136, 740.757 476.715, 732.062 469.399 C 727.319 465.408, 726 459.229, 726 441 C 726 421.314, 727.248 416.282, 733.197 411.972 C 735.454 410.338, 738.331 409, 739.591 409 C 740.851 409, 742.160 408.550, 742.500 408 C 742.840 407.450, 742.979 407.046, 742.809 407.102 C 742.639 407.159, 741.150 407.531, 739.500 407.929 M 748.993 409.593 C 750.914 410.426, 753.611 412.096, 754.986 413.304 L 757.486 415.500 755.495 413.148 C 753.335 410.595, 748.878 407.977, 746.800 408.039 C 746.085 408.061, 747.072 408.760, 748.993 409.593 M 758.196 418.250 C 759.033 419.736, 759.661 427.121, 760.047 440 L 760.632 459.500 760.816 441.616 C 760.992 424.495, 759.994 416, 757.807 416 C 757.324 416, 757.500 417.012, 758.196 418.250 M 639.655 455.459 C 632.137 458.139, 627.614 464.512, 627.781 472.187 C 627.838 474.765, 628.547 478.140, 629.357 479.687 C 630.167 481.234, 635.932 487.521, 642.168 493.658 C 651.350 502.694, 654.232 504.953, 657.317 505.532 C 666.437 507.243, 674.570 503.360, 678.087 495.616 C 682.388 486.145, 680.013 480.911, 665.036 466.851 C 651.445 454.094, 647.921 452.512, 639.655 455.459 M 835.500 455.916 C 830.948 458.047, 812.064 476.859, 809.617 481.700 C 807.587 485.718, 807.561 490.013, 809.538 494.746 C 813.216 503.549, 820.934 507.363, 830.995 505.351 C 835.607 504.429, 858.237 482.037, 859.966 476.685 C 862.446 469.007, 858.232 459.743, 850.573 456.035 C 845.370 453.516, 840.705 453.480, 835.500 455.916 M 641.646 456.146 C 636.502 457.302, 632.599 460.218, 630.623 464.381 C 628.790 468.245, 628.510 474.580, 629.998 478.496 C 631.374 482.114, 650.404 501.489, 654.483 503.425 C 658.573 505.366, 664.002 505.444, 668.357 503.624 C 672.578 501.861, 677.812 495.517, 678.626 491.180 C 679.854 484.632, 677.695 480.892, 666.127 469.534 C 660.160 463.676, 654.428 458.303, 653.389 457.593 C 650.646 455.720, 646.057 455.155, 641.646 456.146 M 836.500 456.364 C 834.850 457.135, 828.254 463.106, 821.842 469.633 C 809.070 482.634, 807.623 485.459, 809.878 492.987 C 811.310 497.768, 817.719 503.669, 822.440 504.555 C 830.327 506.034, 832.592 504.757, 846.175 491.175 C 860.661 476.689, 861.784 474.393, 858.384 466.232 C 854.728 457.455, 844.261 452.735, 836.500 456.364 M 332.140 484.299 C 324.157 485.878, 317.963 495.478, 319.486 503.909 C 320.482 509.422, 324.583 514.908, 329.316 517.057 C 333.331 518.879, 337.292 518.956, 427.500 518.956 C 517.034 518.956, 521.695 518.868, 525.599 517.095 C 535.855 512.437, 538.752 498.801, 531.355 490.010 C 525.823 483.435, 532.158 483.830, 429.459 483.657 C 378.154 483.571, 334.361 483.859, 332.140 484.299 M 329.500 485.959 C 325.954 487.436, 321.862 492.668, 320.898 496.958 C 319.041 505.225, 324.317 514.883, 331.832 516.970 C 334.203 517.629, 368.216 517.983, 428 517.972 C 515.622 517.957, 520.711 517.859, 524.500 516.119 C 529.294 513.918, 531.389 511.706, 533.528 506.586 C 536.360 499.810, 533.313 490.990, 526.759 486.995 C 523.565 485.047, 521.587 485.009, 427.500 485.067 C 374.700 485.100, 330.600 485.501, 329.500 485.959 M 734.273 496.099 C 705.973 498.808, 678.866 518.529, 666.423 545.461 C 660.738 557.765, 658.806 566.653, 658.699 581 C 658.596 594.828, 659.762 601.723, 664.136 613.144 C 667.621 622.243, 673.149 631.056, 680.966 639.972 C 688.392 648.442, 692.861 655.126, 695.680 661.976 C 696.930 665.014, 697.963 666.684, 697.976 665.687 C 698.036 661.098, 690.570 649.479, 677.935 634.500 C 671.676 627.080, 664.662 613.099, 661.881 602.500 C 658.942 591.297, 658.903 572.698, 661.796 561.368 C 669.678 530.501, 693.136 506.765, 723.410 499.023 C 729.193 497.544, 734.548 497, 743.327 497 C 749.930 497, 755.146 496.835, 754.917 496.632 C 753.964 495.792, 740.985 495.457, 734.273 496.099 M 762.919 499.053 C 766.999 500.121, 770.499 500.834, 770.696 500.637 C 771.226 500.107, 759.688 496.991, 757.434 497.055 C 756.370 497.085, 758.839 497.984, 762.919 499.053 M 779.776 505.192 C 797.674 514.508, 810.177 526.833, 818.422 543.290 C 825.216 556.848, 827.309 565.787, 827.253 581 C 827.172 603.092, 821.011 619.098, 805.212 638.253 C 794.662 651.045, 789.840 659.715, 786.653 671.626 C 781.644 690.341, 782.452 690, 743.188 690 C 724.142 690, 713.424 689.608, 710.775 688.815 C 705.666 687.284, 702.632 683.191, 700.572 675.054 C 699.051 669.044, 698 666.408, 698 668.605 C 698 669.121, 698.849 672.606, 699.887 676.349 C 702.051 684.152, 705.581 688.511, 710.943 690.001 C 712.918 690.549, 727.775 690.991, 744.349 690.994 C 782.950 691.002, 782.228 691.289, 787.052 673.982 C 790.608 661.227, 794.745 652.984, 802.218 643.772 C 813.269 630.147, 815.842 626.502, 819.351 619.500 C 833.003 592.259, 831.581 560.571, 815.585 535.566 C 811.338 528.926, 801.559 518.438, 794.747 513.216 C 788.983 508.798, 777.924 502.576, 774 501.543 C 772.625 501.181, 775.224 502.823, 779.776 505.192 M 406.523 582.050 C 398.166 583.357, 397.183 584.123, 405 583.237 C 424.421 581.035, 448.013 583.016, 462.750 588.086 C 465.818 589.141, 468.508 589.825, 468.728 589.605 C 469.346 588.987, 457.352 585.226, 449 583.419 C 440.154 581.505, 415.159 580.699, 406.523 582.050 M 382.970 587.898 C 341.359 603.373, 313.461 636.778, 306.434 679.543 C 304.253 692.820, 304.974 716.890, 307.907 728.693 C 319.466 775.213, 357.074 810.202, 404.385 818.452 C 413.725 820.081, 432.385 820.400, 440 819.061 C 442.631 818.598, 438.445 818.483, 429.918 818.783 C 413.380 819.366, 401.768 817.789, 386.835 812.932 C 345.818 799.593, 314.968 763.491, 307.423 720 C 305.445 708.598, 305.917 685.454, 308.351 674.500 C 317.542 633.140, 345.774 601.540, 385.579 588.062 C 390.485 586.401, 393.600 585.054, 392.500 585.069 C 391.400 585.085, 387.111 586.357, 382.970 587.898 M 478.634 594.823 C 509.298 610.803, 530.889 637.632, 539.703 670.706 C 542.017 679.392, 542.323 682.481, 542.404 698 C 542.521 720.538, 539.936 732.939, 531.459 750.500 C 525.116 763.642, 519.737 771.283, 509.030 782.358 C 495.175 796.690, 477.149 808.068, 459.471 813.641 C 456.475 814.585, 454.215 815.548, 454.448 815.782 C 455.237 816.571, 468.453 811.741, 476.492 807.726 C 503.164 794.404, 524.778 771.209, 535.506 744.393 C 540.813 731.128, 543.110 719.653, 543.693 703.500 C 544.305 686.536, 542.966 676.789, 537.963 661.777 C 528.372 632.998, 506.821 608.047, 479.770 594.403 C 474.968 591.981, 470.693 590.014, 470.270 590.032 C 469.846 590.049, 473.610 592.205, 478.634 594.823 M 409.075 616.087 C 378.527 622.081, 352.671 645.045, 342.828 674.924 C 340.035 683.402, 339.637 686.047, 339.353 698 C 339.130 707.406, 339.479 713.397, 340.506 717.755 C 347.357 746.842, 366.917 769.382, 394.716 780.223 C 403.338 783.586, 417.290 786.057, 426.500 785.853 C 431.391 785.745, 430.676 785.570, 422.634 784.907 C 409.859 783.854, 403.261 782.466, 393.791 778.839 C 372.984 770.870, 354.240 752.362, 346.142 731.792 C 341.338 719.587, 340.495 714.640, 340.559 699 C 340.613 685.935, 340.885 683.730, 343.313 676.717 C 353.709 646.693, 373.525 627.337, 402.500 618.905 C 413.046 615.836, 434.182 615.515, 443.500 618.281 C 459.551 623.047, 472.054 630.066, 482.829 640.360 C 494.999 651.985, 503.034 665.739, 507.107 681.916 C 508.896 689.018, 509.149 692.295, 508.732 702.916 C 508.133 718.191, 506.553 724.413, 499.883 737.781 C 488.315 760.963, 465.886 777.832, 439 783.571 L 432.500 784.958 438.500 784.376 C 448.325 783.423, 464.153 776.615, 474.946 768.700 C 482.121 763.439, 491.233 754.018, 496.154 746.773 C 507.140 730.598, 512.643 707.939, 509.932 690.048 C 504.331 653.101, 476.909 624.371, 439.685 616.450 C 432.311 614.881, 416.196 614.690, 409.075 616.087 M 463.500 656.408 C 461.850 657.139, 459.375 658.829, 458 660.162 C 452.836 665.171, 412.797 710.130, 413.169 710.502 C 413.382 710.716, 417.819 706.151, 423.029 700.359 C 428.238 694.567, 435.457 686.604, 439.072 682.664 C 442.686 678.724, 449.017 671.675, 453.141 667 C 461.484 657.541, 465.452 655.401, 472.479 656.571 C 477.398 657.390, 483.382 663.204, 485.055 668.789 C 487.220 676.016, 485.446 679.199, 469.233 697.182 C 461.130 706.170, 449.100 719.582, 442.500 726.986 C 426.310 745.150, 422.447 748.948, 418.909 750.181 C 417.253 750.759, 416.097 751.431, 416.341 751.674 C 417.940 753.274, 424.816 747.940, 433.557 738.320 C 486.748 679.778, 488.069 678.095, 486.596 670.729 C 484.304 659.272, 472.939 652.225, 463.500 656.408 M 374.500 687.502 C 366.451 690.348, 361.582 699.323, 363.896 707.048 C 365.325 711.817, 374.628 722.545, 391.061 738.374 C 402.464 749.358, 406.648 752.095, 411.718 751.885 C 414.222 751.782, 414.150 751.699, 411 751.064 C 404.714 749.795, 401.728 747.404, 383.853 729.327 C 369.151 714.458, 366.016 710.773, 365.064 707.238 C 363.478 701.348, 365.234 695.924, 370.172 691.463 C 373.578 688.387, 374.627 688, 379.569 688 C 382.628 688, 386.114 688.499, 387.316 689.109 C 388.517 689.719, 394.337 694.999, 400.250 700.842 C 406.163 706.685, 411 711.133, 411 710.726 C 411 709.031, 390.180 689.654, 386.500 687.924 C 381.748 685.690, 379.816 685.622, 374.500 687.502 M 709.071 709.752 C 704 712.337, 701.726 715.994, 701.834 721.389 C 702.005 729.887, 706.839 735.447, 719.232 741.398 C 728.269 745.737, 733.423 746.944, 743.040 746.976 C 752.034 747.005, 760.216 745.068, 768.848 740.867 C 776.036 737.369, 784.002 730.299, 783.996 727.421 C 783.993 725.985, 783.481 726.339, 781.966 728.824 C 779.168 733.413, 775.537 736.396, 768.465 739.912 C 752.043 748.079, 734.977 748.065, 718.743 739.871 C 706.700 733.792, 703 729.592, 703 722 C 703 717.143, 705.150 712.557, 708.260 710.780 C 711.828 708.741, 771.549 708.367, 776.302 710.353 C 780.562 712.133, 782.767 715.249, 783.920 721.120 C 784.763 725.411, 784.783 725.429, 784.889 722 C 785.039 717.132, 782.145 712.009, 778.016 709.835 C 774.853 708.169, 771.670 708, 743.516 708.002 C 715.963 708.003, 712.117 708.198, 709.071 709.752 M 751.500 854.698 C 741.411 871.029, 723.431 882.139, 704.093 883.993 L 696.500 884.720 702.540 884.860 C 715.706 885.165, 731.916 877.963, 742.932 866.913 C 748.779 861.049, 756.916 849.537, 755.889 848.584 C 755.675 848.385, 753.700 851.137, 751.500 854.698" stroke="none" fill="#042679" fill-rule="evenodd"/><path d="M 280 160.358 C 280 160.831, 278.762 160.929, 277.250 160.578 C 275.111 160.081, 274.834 160.182, 276 161.030 C 277.144 161.863, 276.670 161.974, 274 161.500 C 271.926 161.132, 271.005 161.231, 271.740 161.742 C 273.316 162.840, 266.550 165.458, 264.851 164.408 C 264.077 163.930, 263.963 164.132, 264.510 165.015 C 265.103 165.975, 264.873 166.165, 263.676 165.706 C 262.657 165.315, 262.115 165.537, 262.262 166.286 C 262.394 166.957, 261.520 167.467, 260.309 167.427 C 259.104 167.387, 258.204 167.781, 258.309 168.302 C 258.414 168.823, 257.875 169.477, 257.111 169.755 C 256.155 170.102, 255.971 169.829, 256.521 168.880 C 256.993 168.065, 256.948 167.841, 256.410 168.333 C 255.910 168.792, 255.500 169.654, 255.500 170.250 C 255.500 170.846, 254.875 171.542, 254.111 171.796 C 253.185 172.105, 252.986 171.831, 253.515 170.975 C 254.051 170.108, 253.912 169.936, 253.088 170.446 C 252.416 170.861, 252.118 171.451, 252.425 171.758 C 253.124 172.458, 251.081 175, 249.819 175 C 249.303 175, 249.211 174.438, 249.613 173.750 C 250.015 173.063, 249.377 173.348, 248.195 174.384 C 247.014 175.420, 246.248 176.592, 246.493 176.988 C 247.049 177.888, 242.549 182.216, 241.818 181.485 C 241.525 181.192, 240.658 181.724, 239.893 182.668 C 238.971 183.803, 238.923 184.130, 239.750 183.633 C 240.438 183.220, 241 183.303, 241 183.819 C 241 184.896, 237.907 187.667, 237.263 187.167 C 237.027 186.983, 236.533 187.168, 236.167 187.577 C 235.800 187.986, 236.121 187.961, 236.880 187.521 C 237.823 186.974, 238.113 187.161, 237.796 188.111 C 237.542 188.875, 236.846 189.500, 236.250 189.500 C 235.654 189.500, 234.792 189.910, 234.333 190.410 C 233.849 190.939, 234.024 191.019, 234.750 190.601 C 236.523 189.581, 236.397 190.008, 232.589 197.955 C 230.713 201.870, 228.838 207.419, 228.423 210.286 C 227.863 214.157, 227.518 214.905, 227.084 213.191 C 226.763 211.921, 226.500 351.110, 226.500 522.500 C 226.500 693.890, 226.753 833.079, 227.063 831.809 C 227.485 830.075, 227.793 830.690, 228.298 834.280 C 228.667 836.908, 229.920 841.268, 231.082 843.968 C 232.243 846.668, 232.856 849.425, 232.442 850.093 C 231.929 850.924, 232.110 851.050, 233.015 850.490 C 233.985 849.891, 234.164 850.132, 233.681 851.388 C 233.238 852.544, 233.401 852.870, 234.181 852.388 C 234.953 851.911, 235.128 852.223, 234.706 853.324 C 234.340 854.278, 234.532 854.875, 235.161 854.738 C 235.760 854.607, 236.477 855.125, 236.755 855.889 C 237.102 856.845, 236.829 857.029, 235.880 856.479 C 235.065 856.007, 234.841 856.052, 235.333 856.590 C 235.792 857.090, 236.467 857.507, 236.833 857.515 C 238.119 857.545, 240 859.128, 240 860.181 C 240 860.827, 239.311 860.717, 238.250 859.903 C 237.287 859.165, 237.591 859.784, 238.924 861.280 C 241.619 864.303, 243.002 864.983, 240.898 862.250 C 240.156 861.288, 242.464 863.233, 246.025 866.574 C 253.917 873.978, 259.651 877.412, 270.333 881.130 L 278.500 883.973 487.500 884.173 C 602.450 884.283, 692.675 884.655, 688 885 C 680.737 885.536, 681.610 885.630, 694 885.646 C 704.043 885.658, 706.656 885.460, 702.500 885 L 696.500 884.336 702.040 884.168 C 709.527 883.941, 718.167 881.619, 726 877.728 C 734.215 873.648, 734.961 873.386, 732.500 875.440 C 730.545 877.072, 730.553 877.085, 732.836 875.974 C 734.120 875.349, 734.912 874.578, 734.594 874.261 C 733.880 873.547, 735.901 871, 737.181 871 C 737.697 871, 737.780 871.563, 737.367 872.250 C 736.851 873.110, 737.141 873.074, 738.297 872.137 C 739.222 871.387, 739.775 870.446, 739.528 870.045 C 738.973 869.147, 745.428 862.761, 746.155 863.489 C 746.443 863.777, 747.539 863.032, 748.589 861.834 C 749.640 860.636, 749.879 860.021, 749.120 860.467 C 748.173 861.024, 747.886 860.843, 748.204 859.889 C 748.458 859.125, 749.154 858.500, 749.750 858.500 C 750.346 858.500, 751.208 858.090, 751.667 857.590 C 752.159 857.052, 751.935 857.007, 751.120 857.479 C 750.177 858.026, 749.887 857.839, 750.204 856.889 C 750.458 856.125, 751.154 855.500, 751.750 855.500 C 752.346 855.500, 753.208 855.090, 753.667 854.590 C 754.159 854.052, 753.935 854.007, 753.120 854.479 C 752.171 855.029, 751.898 854.845, 752.245 853.889 C 752.523 853.125, 753.290 852.624, 753.949 852.775 C 754.609 852.926, 754.866 852.592, 754.520 852.033 C 754.175 851.473, 754.352 850.225, 754.915 849.258 C 755.479 848.291, 755.960 847.950, 755.985 848.500 C 756.043 849.764, 757.969 846.852, 757.969 845.500 C 757.969 844.950, 757.497 845.175, 756.919 846 C 756.124 847.136, 756.049 846.893, 756.608 845 C 757.015 843.625, 757.882 840.250, 758.536 837.500 C 759.358 834.043, 759.878 833.117, 760.223 834.500 C 760.496 835.600, 760.576 835.150, 760.400 833.500 C 760.223 831.850, 759.984 820.734, 759.867 808.797 C 759.746 796.339, 759.275 787.330, 758.761 787.648 C 758.269 787.952, 758.009 787.510, 758.183 786.666 C 758.357 785.822, 758.232 785.214, 757.904 785.316 C 756.853 785.641, 754.003 782.804, 754.528 781.955 C 755.086 781.052, 751.158 777.977, 749.527 778.040 C 748.962 778.062, 749.737 778.751, 751.250 779.572 C 755.103 781.662, 754.678 782.181, 750.532 780.449 C 745.113 778.185, 738.874 778.596, 734.595 781.500 C 730.032 784.597, 729.123 784.672, 731.588 781.750 C 733.297 779.724, 733.213 779.741, 730.743 781.924 C 728.005 784.345, 727.108 785.669, 729 784.500 C 730.345 783.669, 730.260 784.673, 728.762 787.316 C 727.949 788.750, 727.328 796.541, 726.952 810 C 726.440 828.345, 726.155 830.933, 724.238 834.616 C 721.657 839.575, 717.226 845, 715.756 845 C 715.170 845, 715.547 843.987, 716.595 842.750 L 718.500 840.500 716.290 842.369 C 715.074 843.397, 714.174 844.747, 714.290 845.369 C 714.405 845.991, 713.510 846.467, 712.300 846.426 C 711.090 846.385, 710.302 846.679, 710.549 847.079 C 712.249 849.831, 699.755 850, 495.032 850 C 257.211 850, 278.672 850.802, 269.435 841.565 C 260.120 832.250, 261 865.545, 261 522.500 C 261 197.228, 260.782 211.855, 265.695 207.870 C 267.151 206.689, 267.262 206.707, 266.500 208 C 265.738 209.294, 265.849 209.311, 267.308 208.128 C 269.140 206.642, 269.628 205.494, 268 206.500 C 265.922 207.784, 267.112 205.270, 269.750 202.801 C 276.509 196.478, 262.277 196.964, 447.255 196.733 L 615.500 196.523 450 196.007 L 284.500 195.491 452 195.261 C 546.318 195.131, 618.904 195.408, 618.137 195.894 C 617.300 196.425, 617.184 196.901, 617.836 197.129 C 618.546 197.377, 619.006 207.949, 619.224 229 L 619.550 260.500 622.344 268 C 623.881 272.125, 625.204 276.266, 625.283 277.202 C 625.363 278.139, 625.628 278.705, 625.872 278.461 C 626.505 277.829, 629 280.050, 629 281.245 C 629 281.795, 628.212 281.627, 627.250 280.872 C 625.659 279.624, 625.626 279.661, 626.893 281.274 C 627.658 282.250, 628.517 282.816, 628.800 282.533 C 629.487 281.846, 632 283.977, 632 285.245 C 632 285.803, 631.337 285.694, 630.500 285 C 627.330 282.369, 629.208 284.784, 633.644 289.042 C 636.199 291.494, 637.936 292.879, 637.505 292.120 C 636.972 291.182, 637.166 290.889, 638.111 291.204 C 638.875 291.458, 639.500 292.154, 639.500 292.750 C 639.500 293.346, 639.910 294.208, 640.410 294.667 C 640.948 295.159, 640.993 294.935, 640.521 294.120 C 639.602 292.535, 639.721 292.576, 646.733 296.264 C 657.206 301.772, 660.886 302.270, 694.685 302.748 L 725.871 303.190 726.382 334.345 C 726.908 366.497, 727.083 370.067, 728.097 369.440 C 729.071 368.838, 734.094 374.572, 733.294 375.372 C 732.891 375.776, 733.409 375.780, 734.445 375.383 C 735.520 374.970, 736.084 375.055, 735.759 375.580 C 735.422 376.125, 738.176 376.296, 742.512 376 C 748.140 375.616, 750.582 374.948, 753.060 373.115 C 754.834 371.803, 755.947 371.276, 755.534 371.946 C 755.120 372.615, 753.368 374.024, 751.641 375.077 C 749.913 376.131, 749.069 376.994, 749.765 376.996 C 750.460 376.998, 752.710 375.385, 754.765 373.411 C 756.819 371.437, 757.879 370.150, 757.120 370.550 C 756.199 371.036, 755.895 370.816, 756.204 369.889 C 756.458 369.125, 757.267 368.500, 758 368.500 C 758.733 368.500, 759.518 367.825, 759.743 367 C 760.107 365.667, 760.022 365.667, 758.982 367 C 757.987 368.275, 757.900 368.225, 758.406 366.668 C 758.733 365.661, 759.032 364.086, 759.070 363.168 C 759.127 361.831, 759.315 361.897, 760.018 363.500 C 760.740 365.144, 760.868 364.934, 760.740 362.319 C 760.655 360.570, 760.228 359.359, 759.793 359.628 C 759.357 359.898, 759.032 358.854, 759.070 357.309 C 759.132 354.838, 759.244 354.741, 760 356.500 C 760.720 358.176, 760.871 357.974, 760.930 355.250 C 760.968 353.462, 760.593 352, 760.095 352 C 759.598 352, 759.260 348.218, 759.345 343.596 C 759.430 338.974, 759.837 335.400, 760.250 335.655 C 760.663 335.910, 760.900 323.829, 760.778 308.809 L 760.556 281.500 760 305 L 759.444 328.500 759.200 305 C 758.983 284.057, 758.741 281.026, 756.982 277.149 C 755.896 274.756, 755.226 272.444, 755.493 272.012 C 755.760 271.580, 755.308 270.671, 754.489 269.991 C 753.670 269.311, 753 269.144, 753 269.620 C 753 270.096, 742 259.492, 728.556 246.056 C 715.112 232.620, 704.381 221.192, 704.711 220.659 C 705.040 220.127, 704.855 219.972, 704.300 220.315 C 703.745 220.658, 702.247 219.827, 700.971 218.469 C 699.695 217.111, 699.025 216, 699.481 216 C 699.937 216, 699.505 215.111, 698.521 214.024 C 697.538 212.937, 696.421 212.240, 696.040 212.475 C 695.175 213.010, 682.754 200.579, 683.454 199.880 C 683.734 199.599, 682.059 197.599, 679.732 195.435 L 675.500 191.500 679.495 196 C 683.020 199.972, 682.815 199.858, 677.745 195.034 C 672.132 189.694, 670.251 187.383, 673.750 190.128 C 675.334 191.370, 675.370 191.335, 674.137 189.761 C 673.387 188.805, 672.440 188.228, 672.032 188.480 C 671.161 189.018, 666.756 184.578, 667.461 183.873 C 667.724 183.609, 664.258 179.817, 659.759 175.447 C 655.259 171.076, 652.417 168.512, 653.444 169.750 C 654.470 170.988, 654.874 172, 654.342 172 C 653.285 172, 647.899 166.677, 647.652 165.390 C 647.569 164.951, 646.825 164.538, 646 164.472 C 644.340 164.338, 638.025 161.104, 639.300 161.040 C 639.739 161.018, 641.427 161.687, 643.050 162.526 C 644.672 163.365, 646 163.826, 646 163.551 C 646 162.128, 639.773 160.078, 636.821 160.530 C 634.851 160.831, 634.197 160.725, 635.212 160.269 C 636.154 159.846, 556.616 159.500, 458.462 159.500 C 359.778 159.500, 280 159.884, 280 160.358 M 655.113 172.750 C 655.175 173.162, 657.988 175.961, 661.363 178.970 L 667.500 184.439 661.531 178.220 C 655.456 171.889, 654.914 171.427, 655.113 172.750 M 652 237.955 C 652 253.230, 652.183 254.938, 654.260 259.038 C 655.503 261.492, 657.111 263.376, 657.834 263.225 C 658.557 263.074, 658.878 263.389, 658.546 263.925 C 657.800 265.133, 661.668 267.323, 663.045 266.472 C 663.598 266.131, 663.926 266.422, 663.775 267.120 C 663.346 269.102, 668.378 269.771, 683 269.675 L 696.500 269.586 683 268.971 L 669.500 268.356 685.659 268.428 C 694.547 268.468, 701.297 268.169, 700.659 267.765 C 700.022 267.361, 699.926 267.024, 700.446 267.015 C 700.967 267.007, 699.866 265.425, 698 263.500 C 694.267 259.649, 691.566 258.662, 694.579 262.250 C 695.619 263.488, 695.013 263.178, 693.234 261.563 C 690.049 258.670, 689.042 257.290, 691 258.500 C 691.550 258.840, 692 258.739, 692 258.275 C 692 256.949, 681.466 246.887, 680.692 247.474 C 680.312 247.763, 680.237 247.688, 680.527 247.306 C 681.318 246.265, 669.810 234.999, 668.674 235.702 C 668.133 236.036, 667.975 235.850, 668.322 235.288 C 668.669 234.727, 667.959 233.420, 666.744 232.384 C 664.562 230.523, 664.553 230.525, 666.017 232.500 C 667.388 234.349, 667.369 234.397, 665.761 233.137 C 664.805 232.387, 664.223 231.449, 664.468 231.052 C 665.197 229.871, 656.220 221.645, 654.025 221.483 C 652.067 221.339, 652 221.883, 652 237.955 M 653.328 235.500 C 653.333 239.350, 653.513 240.802, 653.730 238.728 C 653.946 236.653, 653.943 233.503, 653.722 231.728 C 653.501 229.952, 653.324 231.650, 653.328 235.500 M 332 294.992 C 333.250 295.977, 333.125 296.091, 331.249 295.680 C 329.934 295.392, 329.248 295.591, 329.599 296.160 C 329.930 296.696, 329.510 296.991, 328.666 296.817 C 327.822 296.643, 327.070 296.950, 326.994 297.500 C 326.777 299.091, 323.865 301.941, 322.694 301.710 C 322.106 301.595, 321.562 302.400, 321.484 303.500 C 321.063 309.439, 321.018 309.572, 319.954 308 C 319.208 306.897, 319.105 307.294, 319.567 309.500 C 320.488 313.907, 321.677 318.240, 322.561 320.414 C 323.166 321.901, 323.023 322.145, 321.920 321.509 C 321.139 321.059, 321.789 322.076, 323.365 323.770 C 325.149 325.688, 326.814 326.625, 327.779 326.255 C 328.790 325.866, 329.080 326.062, 328.612 326.819 C 328.130 327.599, 328.456 327.762, 329.612 327.319 C 330.562 326.954, 331.074 327.071, 330.759 327.580 C 330.415 328.138, 370.093 328.500, 431.500 328.500 C 492.907 328.500, 532.585 328.138, 532.240 327.580 C 531.928 327.074, 532.415 326.945, 533.324 327.294 C 534.278 327.660, 534.875 327.468, 534.738 326.839 C 534.607 326.240, 535.125 325.523, 535.889 325.245 C 536.845 324.898, 537.029 325.171, 536.478 326.120 C 536.038 326.879, 536.875 326.409, 538.339 325.076 C 541.099 322.561, 541.831 321.368, 539.870 322.580 C 539.185 323.004, 538.923 322.732, 539.204 321.889 C 539.458 321.125, 540.267 320.500, 541 320.500 C 541.733 320.500, 542.518 319.825, 542.743 319 C 543.107 317.667, 543.022 317.667, 541.982 319 C 540.987 320.275, 540.900 320.225, 541.406 318.668 C 541.733 317.661, 542.007 316.311, 542.015 315.668 C 542.027 314.789, 542.212 314.786, 542.765 315.655 C 543.169 316.290, 543.470 313.921, 543.434 310.389 C 543.394 306.480, 542.857 303.485, 542.062 302.734 C 540.992 301.724, 540.959 301.897, 541.878 303.684 C 542.495 304.886, 542.982 306.461, 542.961 307.184 C 542.939 307.908, 542.267 306.991, 541.466 305.147 C 540.665 303.302, 540.240 301.421, 540.521 300.966 C 541.133 299.975, 539.096 298.563, 537 298.526 C 536.175 298.512, 535.607 297.954, 535.738 297.286 C 535.885 296.537, 535.343 296.315, 534.324 296.706 C 533.254 297.117, 532.914 296.948, 533.361 296.226 C 533.865 295.410, 507.277 295.089, 434.036 295.029 C 379.029 294.983, 333.231 294.691, 332.262 294.379 C 330.749 293.892, 330.712 293.978, 332 294.992 M 400.250 388.750 C 437.513 388.895, 498.488 388.895, 535.750 388.750 C 573.013 388.605, 542.525 388.486, 468 388.486 C 393.475 388.486, 362.988 388.605, 400.250 388.750 M 331.345 390.337 C 332.041 390.841, 331.606 390.977, 330.249 390.680 C 328.800 390.363, 328.235 390.571, 328.663 391.263 C 329.074 391.929, 328.734 392.112, 327.770 391.742 C 326.155 391.122, 321.490 395.157, 322.572 396.239 C 322.896 396.563, 322.601 397.877, 321.915 399.158 C 320.468 401.862, 320.038 414.095, 321.420 413.241 C 321.945 412.916, 322.030 413.481, 321.617 414.555 C 321.220 415.591, 321.208 416.125, 321.591 415.742 C 321.974 415.359, 323.806 416.379, 325.662 418.008 C 327.518 419.638, 330.250 421.276, 331.732 421.648 C 333.817 422.171, 334.048 422.457, 332.750 422.912 C 331.828 423.235, 391.837 423.381, 466.103 423.236 C 582.879 423.007, 601.613 422.771, 604.688 421.486 C 609.215 419.595, 609.868 419.611, 607.441 421.555 C 605.591 423.038, 605.609 423.057, 607.836 421.974 C 609.120 421.349, 609.907 420.573, 609.583 420.250 C 608.775 419.442, 612.073 415.927, 613.065 416.540 C 613.503 416.811, 614.187 416.506, 614.585 415.862 C 615.070 415.077, 614.872 414.961, 613.985 415.510 C 612.974 416.134, 612.859 415.874, 613.498 414.414 C 614.751 411.551, 615.674 399.083, 614.583 399.758 C 614.055 400.084, 613.969 399.523, 614.383 398.445 C 614.780 397.409, 614.776 396.891, 614.372 397.294 C 613.478 398.189, 607.875 393.011, 608.552 391.916 C 608.816 391.488, 608.506 390.813, 607.862 390.415 C 607.077 389.930, 606.961 390.128, 607.510 391.015 C 608.112 391.990, 607.866 392.163, 606.582 391.670 C 605.622 391.301, 604.536 390.993, 604.168 390.985 C 603.801 390.976, 604.020 390.639, 604.655 390.235 C 605.289 389.831, 543.795 389.500, 468 389.500 C 392.205 389.500, 330.711 389.877, 331.345 390.337 M 742.459 408.067 C 742.096 408.653, 740.162 408.991, 738.161 408.817 C 735.543 408.589, 734.519 408.897, 734.511 409.917 C 734.505 410.696, 733.875 411.542, 733.111 411.796 C 732.160 412.113, 731.974 411.824, 732.522 410.880 C 732.962 410.121, 732.157 410.560, 730.733 411.856 C 729.155 413.293, 728.378 414.821, 728.742 415.770 C 729.071 416.627, 728.926 417.072, 728.420 416.760 C 727.201 416.006, 727.046 417.574, 726.377 437.500 C 725.964 449.833, 726.168 456.010, 727.122 460 C 727.845 463.025, 728.452 466.175, 728.470 467 C 728.488 467.825, 728.770 468.275, 729.098 468 C 729.963 467.273, 733.071 470.076, 732.473 471.044 C 732.195 471.494, 732.494 472.187, 733.138 472.585 C 733.923 473.070, 734.039 472.872, 733.490 471.985 C 732.871 470.982, 733.138 470.849, 734.586 471.439 C 735.639 471.867, 737.962 472.639, 739.750 473.155 C 742.819 474.042, 746.257 473.536, 751.414 471.439 C 752.899 470.835, 753.146 470.978, 752.517 472.080 C 751.847 473.254, 751.948 473.275, 753.103 472.200 C 753.871 471.485, 754.500 470.360, 754.500 469.700 C 754.500 469.040, 755.040 468.500, 755.700 468.500 C 756.360 468.500, 757.485 467.847, 758.200 467.048 C 759.322 465.795, 759.261 465.778, 757.750 466.921 C 755.534 468.597, 755.557 468.293, 758 463.500 C 759.100 461.342, 760 460.197, 760 460.955 C 760 461.713, 760.126 462.146, 760.279 461.917 C 761.176 460.580, 759.273 420.212, 758.225 418.331 C 757.366 416.790, 757.335 416.055, 758.116 415.795 C 759.436 415.355, 751.534 407.998, 749.747 408.004 C 749.061 408.006, 749.850 408.833, 751.500 409.842 C 753.150 410.850, 755.175 412.532, 756 413.577 C 756.825 414.623, 756.003 414.246, 754.173 412.739 C 752.343 411.232, 749.713 409.715, 748.328 409.367 C 746.459 408.898, 746.157 408.516, 747.155 407.883 C 748.091 407.290, 747.681 407.026, 745.809 407.015 C 744.329 407.007, 742.821 407.480, 742.459 408.067 M 838 455.056 C 839.225 455.969, 839.088 456.083, 837.249 455.680 C 835.800 455.363, 835.235 455.571, 835.663 456.263 C 836.099 456.969, 835.680 457.091, 834.445 456.617 C 833.409 456.220, 832.898 456.231, 833.310 456.644 C 834.318 457.651, 819.915 472.065, 818.670 471.296 C 818.131 470.963, 817.967 471.137, 818.304 471.683 C 818.963 472.750, 812.143 479.940, 810.525 479.884 C 809.989 479.865, 809.392 480.446, 809.199 481.175 C 808.958 482.084, 809.215 482.029, 810.018 481 C 810.995 479.748, 811.079 479.831, 810.524 481.500 C 810.159 482.600, 809.637 484.850, 809.364 486.500 C 809.091 488.150, 808.659 490.625, 808.404 492 C 808.045 493.930, 808.171 494.158, 808.954 493 C 809.545 492.127, 809.976 491.988, 809.985 492.668 C 809.993 493.311, 810.267 494.661, 810.594 495.668 C 811.100 497.225, 811.013 497.275, 810.018 496 C 809.215 494.971, 808.958 494.916, 809.199 495.825 C 809.392 496.554, 809.918 497.072, 810.368 496.977 C 811.594 496.719, 817.005 502.182, 816.436 503.103 C 816.166 503.541, 816.827 504.372, 817.906 504.950 C 820.920 506.563, 821.827 506.126, 819 504.423 L 816.500 502.917 819 503.708 C 822.301 504.754, 829.896 504.718, 832.875 503.643 C 834.704 502.983, 835.067 503.082, 834.454 504.074 C 834.016 504.783, 835.310 504.103, 837.329 502.563 C 841.871 499.098, 842.163 498.071, 837.750 501.080 C 835.962 502.299, 839.427 498.294, 845.450 492.181 C 851.472 486.068, 856.606 481.273, 856.858 481.525 C 857.521 482.187, 860 479.948, 860 478.686 C 860 478.099, 859.339 478.491, 858.530 479.559 C 857.199 481.316, 857.172 481.195, 858.239 478.278 C 858.887 476.506, 859.661 475.449, 859.959 475.929 C 860.256 476.409, 860.525 474.318, 860.555 471.281 C 860.586 468.245, 860.324 466.577, 859.973 467.576 C 859.373 469.286, 859.303 469.279, 858.781 467.446 C 858.476 466.376, 857.874 464.639, 857.444 463.586 C 856.831 462.090, 856.970 461.859, 858.080 462.528 C 859.289 463.257, 859.298 463.134, 858.137 461.703 C 857.387 460.778, 856.405 460.249, 855.956 460.527 C 855.171 461.012, 853.547 459.219, 853.515 457.833 C 853.507 457.467, 853.090 456.792, 852.590 456.333 C 852.052 455.841, 852.007 456.065, 852.479 456.880 C 853.029 457.829, 852.845 458.102, 851.889 457.755 C 851.125 457.477, 850.572 456.856, 850.659 456.375 C 850.747 455.894, 848.722 455.404, 846.159 455.287 C 843.597 455.170, 840.375 454.819, 839 454.507 C 836.997 454.052, 836.798 454.161, 838 455.056 M 641.996 456.176 C 640.073 456.592, 637.943 456.738, 637.262 456.502 C 636.581 456.265, 636.131 456.562, 636.262 457.161 C 636.393 457.760, 635.875 458.477, 635.111 458.755 C 634.155 459.102, 633.971 458.829, 634.522 457.880 C 634.962 457.121, 634.125 457.591, 632.661 458.924 C 629.901 461.439, 629.169 462.632, 631.130 461.420 C 631.822 460.992, 632.064 461.260, 631.755 462.111 C 631.477 462.875, 630.822 463.414, 630.299 463.308 C 629.754 463.198, 629.348 466.933, 629.348 472.051 C 629.348 476.965, 629.566 480.768, 629.832 480.501 C 630.476 479.857, 633 481.992, 633 483.181 C 633 483.697, 632.438 483.806, 631.750 483.425 C 631.063 483.044, 635.217 487.518, 640.982 493.366 C 651.107 503.637, 652.907 505.276, 651.420 502.870 C 650.992 502.178, 651.260 501.936, 652.111 502.245 C 652.875 502.523, 653.414 503.178, 653.308 503.701 C 653.071 504.875, 666.751 504.725, 669.414 503.524 C 670.880 502.862, 671.136 502.970, 670.510 503.985 C 669.949 504.892, 670.076 505.071, 670.912 504.554 C 671.584 504.139, 671.888 503.555, 671.589 503.256 C 670.924 502.590, 677.117 495.414, 678.096 495.716 C 678.480 495.835, 678.577 494.935, 678.311 493.716 C 677.914 491.901, 678.028 491.771, 678.944 493 C 679.846 494.212, 679.971 494.019, 679.596 492 C 679.341 490.625, 678.909 488.150, 678.636 486.500 C 678.363 484.850, 677.841 482.600, 677.476 481.500 C 676.921 479.831, 677.005 479.748, 677.982 481 C 679.022 482.333, 679.107 482.333, 678.743 481 C 678.518 480.175, 677.921 479.493, 677.417 479.485 C 675.601 479.454, 673.874 477.771, 674.360 476.505 C 674.632 475.794, 673.654 474.153, 672.185 472.856 C 669.643 470.613, 669.606 470.608, 671.412 472.750 C 672.456 473.988, 672.887 475, 672.371 475 C 671.101 475, 660.815 464.518, 661.456 463.877 C 661.735 463.598, 660.105 461.599, 657.835 459.435 C 655.564 457.271, 654.060 456.121, 654.492 456.880 C 655.031 457.825, 654.841 458.100, 653.889 457.755 C 653.125 457.477, 652.573 456.856, 652.663 456.375 C 652.867 455.284, 646.656 455.168, 641.996 456.176 M 340.776 483.733 C 343.128 483.945, 346.728 483.942, 348.776 483.727 C 350.824 483.512, 348.900 483.339, 344.500 483.343 C 340.100 483.346, 338.424 483.522, 340.776 483.733 M 367.728 483.722 C 369.503 483.943, 372.653 483.946, 374.728 483.730 C 376.802 483.513, 375.350 483.333, 371.500 483.328 C 367.650 483.324, 365.952 483.501, 367.728 483.722 M 396.750 483.732 C 399.087 483.943, 402.913 483.943, 405.250 483.732 C 407.587 483.522, 405.675 483.349, 401 483.349 C 396.325 483.349, 394.413 483.522, 396.750 483.732 M 467.280 483.736 C 469.909 483.943, 473.959 483.940, 476.280 483.731 C 478.601 483.521, 476.450 483.352, 471.500 483.355 C 466.550 483.358, 464.651 483.530, 467.280 483.736 M 497.250 483.745 C 502.063 483.928, 509.938 483.928, 514.750 483.745 C 519.563 483.561, 515.625 483.411, 506 483.411 C 496.375 483.411, 492.438 483.561, 497.250 483.745 M 330.345 485.295 C 331.023 485.761, 330.471 485.968, 329.011 485.795 C 327.352 485.598, 326.503 486, 326.465 487 C 326.434 487.825, 325.867 488.387, 325.205 488.250 C 324.542 488.113, 324.113 488.542, 324.250 489.205 C 324.387 489.867, 323.825 490.440, 323 490.477 C 322.114 490.517, 321.630 491.293, 321.817 492.373 C 321.991 493.378, 321.766 493.973, 321.317 493.696 C 320.060 492.919, 320.515 505.225, 321.834 507.690 C 323.311 510.449, 323.314 511.312, 321.845 510.405 C 321.108 509.949, 320.963 510.132, 321.446 510.912 C 321.861 511.584, 322.459 511.874, 322.776 511.557 C 323.598 510.735, 328.044 515.119, 327.417 516.134 C 327.131 516.598, 327.668 516.681, 328.612 516.319 C 329.742 515.885, 330.091 516.043, 329.635 516.781 C 329.125 517.607, 354.177 517.922, 424.524 517.975 C 515.643 518.044, 520.301 517.960, 524.303 516.186 C 526.611 515.162, 529.113 513.582, 529.863 512.674 C 530.613 511.765, 531.595 511.249, 532.044 511.527 C 532.494 511.805, 533.187 511.506, 533.585 510.862 C 534.070 510.077, 533.872 509.961, 532.985 510.510 C 531.982 511.129, 531.850 510.863, 532.444 509.414 C 532.874 508.361, 533.463 506.674, 533.752 505.665 C 534.041 504.656, 534.553 504.275, 534.889 504.818 C 535.225 505.360, 535.535 503.516, 535.577 500.720 C 535.619 497.924, 535.356 496.484, 534.993 497.521 C 534.461 499.036, 534.168 498.728, 533.498 495.953 C 533.040 494.054, 532.622 491.978, 532.569 491.340 C 532.424 489.592, 528.855 485.971, 527.874 486.578 C 527.402 486.870, 526.225 486.600, 525.258 485.979 C 523.660 484.952, 523.679 484.906, 525.470 485.477 C 526.553 485.823, 527.184 485.850, 526.871 485.538 C 526.559 485.226, 481.954 484.865, 427.747 484.735 C 373.541 484.606, 329.711 484.858, 330.345 485.295 M 641.500 493 C 646.427 497.950, 650.683 502, 650.958 502 C 651.233 502, 647.427 497.950, 642.500 493 C 637.573 488.050, 633.317 484, 633.042 484 C 632.767 484, 636.573 488.050, 641.500 493 M 849.586 489.547 C 846.333 492.549, 843.883 495.217, 844.143 495.476 C 844.402 495.735, 847.275 493.259, 850.526 489.974 C 857.888 482.534, 857.417 482.321, 849.586 489.547 M 728 496.858 C 729.746 497.108, 728.239 497.828, 723 499.246 C 718.875 500.362, 714.530 501.326, 713.345 501.388 C 712.161 501.450, 711.447 501.914, 711.760 502.420 C 712.074 502.929, 711.562 503.046, 710.612 502.681 C 709.668 502.319, 709.125 502.394, 709.405 502.847 C 710.105 503.979, 703.125 507.195, 701.777 506.362 C 701.146 505.972, 700.977 506.154, 701.373 506.795 C 702.234 508.187, 698.382 510.336, 696.729 509.386 C 696.053 508.997, 695.834 509.048, 696.241 509.498 C 697.087 510.431, 695.263 513, 693.755 513 C 693.205 513, 693.351 512.212, 694.079 511.250 C 695.222 509.739, 695.205 509.678, 693.952 510.800 C 693.153 511.515, 692.489 512.640, 692.476 513.300 C 692.463 513.960, 691.718 514.445, 690.821 514.377 C 689.924 514.309, 686.335 517.209, 682.845 520.820 C 679.355 524.431, 677.288 526.794, 678.250 526.070 C 680.770 524.176, 680.410 526.330, 677.828 528.595 C 676.634 529.643, 675.985 529.938, 676.387 529.250 C 677.449 527.434, 676.473 527.719, 674.872 529.692 C 673.708 531.128, 673.709 531.258, 674.880 530.553 C 675.834 529.978, 676.117 530.150, 675.796 531.111 C 675.542 531.875, 674.846 532.500, 674.250 532.500 C 673.654 532.500, 672.792 532.910, 672.333 533.410 C 671.841 533.948, 672.065 533.993, 672.880 533.521 C 673.823 532.974, 674.113 533.161, 673.796 534.111 C 673.542 534.875, 672.846 535.500, 672.250 535.500 C 671.654 535.500, 670.792 535.910, 670.333 536.410 C 669.841 536.948, 670.065 536.993, 670.880 536.521 C 671.829 535.971, 672.102 536.155, 671.755 537.111 C 671.477 537.875, 670.760 538.393, 670.161 538.262 C 669.532 538.125, 669.340 538.722, 669.706 539.676 C 670.128 540.777, 669.953 541.089, 669.181 540.612 C 668.401 540.130, 668.238 540.456, 668.681 541.612 C 669.125 542.769, 668.962 543.095, 668.181 542.612 C 667.401 542.130, 667.238 542.456, 667.681 543.612 C 668.125 544.769, 667.962 545.095, 667.181 544.612 C 666.401 544.130, 666.238 544.456, 666.681 545.612 C 667.125 546.769, 666.962 547.095, 666.181 546.612 C 665.461 546.167, 665.219 546.408, 665.543 547.251 C 665.829 547.996, 665.403 550.184, 664.597 552.113 C 661.297 560.012, 659.763 569.514, 659.772 582 C 659.783 596.408, 661.817 605.826, 667.516 617.854 C 671.412 626.077, 671.511 626.412, 669.750 625.399 C 669.024 624.981, 668.849 625.061, 669.333 625.590 C 669.792 626.090, 670.654 626.500, 671.250 626.500 C 671.846 626.500, 672.542 627.125, 672.796 627.889 C 673.113 628.839, 672.823 629.026, 671.880 628.479 C 671.065 628.007, 670.841 628.052, 671.333 628.590 C 671.792 629.090, 672.654 629.500, 673.250 629.500 C 673.846 629.500, 674.542 630.125, 674.796 630.889 C 675.113 631.839, 674.823 632.026, 673.880 631.479 C 673.065 631.007, 672.841 631.052, 673.333 631.590 C 673.792 632.090, 674.467 632.507, 674.833 632.515 C 676.087 632.544, 678 634.117, 678 635.118 C 678 635.668, 677.438 635.797, 676.750 635.404 C 676.063 635.012, 676.822 636.110, 678.437 637.845 C 682.045 641.720, 683.270 642.051, 679.938 638.250 C 678.612 636.737, 679.434 637.279, 681.764 639.453 C 686.123 643.521, 687.770 646.803, 683.750 643.412 C 681.724 641.703, 681.741 641.787, 683.924 644.257 C 686.480 647.148, 687.629 647.851, 686.367 645.750 C 685.857 644.901, 686.158 644.940, 687.308 645.872 C 689.261 647.456, 689.613 649.471, 687.750 648.399 C 687.024 647.981, 686.849 648.061, 687.333 648.590 C 687.792 649.090, 688.654 649.500, 689.250 649.500 C 689.846 649.500, 690.542 650.125, 690.796 650.889 C 691.105 651.815, 690.831 652.014, 689.975 651.485 C 689.127 650.960, 688.937 651.088, 689.415 651.862 C 689.813 652.506, 690.535 652.788, 691.019 652.488 C 692.225 651.743, 694.262 655.767, 693.392 657.175 C 692.969 657.859, 693.137 658.033, 693.815 657.614 C 695.364 656.657, 698.253 663.857, 697.508 666.822 C 697.093 668.479, 697.268 668.952, 698.106 668.435 C 698.968 667.902, 699.107 668.493, 698.615 670.601 C 698.171 672.506, 698.255 673.026, 698.861 672.117 C 700.083 670.284, 701.412 676.021, 700.509 679.228 C 699.986 681.084, 700.080 681.225, 701.021 680 C 701.976 678.758, 702.090 678.880, 701.689 680.716 C 701.423 681.935, 701.665 682.835, 702.228 682.716 C 702.790 682.597, 703.477 683.125, 703.755 683.889 C 704.102 684.845, 703.829 685.029, 702.880 684.478 C 702.121 684.038, 702.560 684.843, 703.856 686.267 C 705.153 687.690, 706.757 688.647, 707.422 688.392 C 708.087 688.137, 709.726 688.366, 711.065 688.901 C 713.062 689.698, 713.155 689.885, 711.583 689.937 C 710.529 689.971, 709.854 690.112, 710.083 690.250 C 711.172 690.903, 774.802 689.261, 776.906 688.526 C 778.776 687.873, 779.132 687.978, 778.502 688.997 C 777.961 689.873, 778.080 690.068, 778.862 689.585 C 779.506 689.187, 779.726 688.366, 779.352 687.761 C 778.921 687.063, 779.254 686.883, 780.263 687.271 C 781.158 687.614, 782.432 687.167, 783.177 686.249 C 784.137 685.064, 784.157 684.822, 783.250 685.367 C 781.706 686.295, 781.663 685.499, 783.109 682.796 C 783.719 681.656, 785.284 676.741, 786.587 671.872 C 789.362 661.503, 793.555 652.607, 795.190 653.617 C 795.863 654.034, 796.030 653.857, 795.608 653.175 C 794.757 651.797, 796.763 647.735, 797.937 648.461 C 798.397 648.745, 799.387 648.195, 800.137 647.239 C 801.370 645.665, 801.334 645.630, 799.750 646.872 C 797.219 648.857, 797.594 646.666, 800.172 644.405 C 801.547 643.199, 802.034 643.050, 801.500 644 C 800.966 644.950, 801.453 644.801, 802.828 643.595 C 805.254 641.467, 805.852 640.048, 803.500 642 C 802.675 642.685, 802 642.810, 802 642.277 C 802 641.018, 805.509 637.843, 806.171 638.504 C 806.450 638.784, 807.539 638.032, 808.589 636.834 C 809.640 635.636, 809.938 634.985, 809.250 635.387 C 808.563 635.789, 808 635.697, 808 635.181 C 808 633.961, 810.532 631.865, 811.200 632.533 C 811.483 632.816, 812.342 632.276, 813.107 631.332 C 814.276 629.893, 814.278 629.750, 813.120 630.447 C 812.166 631.022, 811.883 630.850, 812.204 629.889 C 812.458 629.125, 813.154 628.500, 813.750 628.500 C 814.346 628.500, 815.208 628.090, 815.667 627.590 C 816.151 627.061, 815.976 626.981, 815.250 627.399 C 813.412 628.457, 813.620 627.865, 817.914 619.827 C 824.424 607.643, 826.675 597.984, 828.363 575 C 828.678 570.717, 828.567 569.523, 828.039 571.500 L 827.237 574.500 827.118 571.410 C 826.922 566.278, 823.142 552.901, 819.977 546.138 C 816.642 539.010, 816.524 538.588, 818.155 539.595 C 818.876 540.041, 819.037 539.869, 818.585 539.138 C 818.187 538.494, 817.465 538.212, 816.981 538.512 C 815.840 539.217, 813.715 535.270, 814.528 533.955 C 814.869 533.402, 814.553 533.074, 813.824 533.225 C 813.096 533.376, 812.495 532.730, 812.488 531.788 C 812.482 530.847, 811.829 529.497, 811.037 528.788 C 809.785 527.669, 809.782 527.762, 811.018 529.500 C 812.094 531.014, 811.779 530.911, 809.720 529.076 C 806.736 526.416, 805.942 523.957, 808.750 526.075 C 809.712 526.801, 808.250 525.020, 805.500 522.117 C 800.186 516.508, 792 509.566, 793.427 511.880 C 794.020 512.841, 793.857 513.119, 792.889 512.796 C 792.125 512.542, 791.500 511.846, 791.500 511.250 C 791.500 510.654, 791.090 509.792, 790.590 509.333 C 790.061 508.849, 789.981 509.024, 790.399 509.750 C 791.405 511.498, 790.880 511.351, 785.621 508.412 C 783.075 506.989, 781.241 505.419, 781.547 504.923 C 781.853 504.428, 781.332 504.319, 780.388 504.681 C 779.132 505.164, 778.891 504.985, 779.490 504.015 C 780.050 503.111, 779.924 502.929, 779.094 503.442 C 777.471 504.445, 771.848 502.055, 772.677 500.714 C 773.080 500.062, 772.702 499.900, 771.686 500.290 C 770.782 500.637, 766.779 500.092, 762.789 499.078 C 758.799 498.065, 756.395 497.071, 757.446 496.868 C 758.498 496.666, 751.740 496.500, 742.429 496.500 C 733.118 496.500, 726.625 496.661, 728 496.858 M 795 514.186 C 795.825 515.009, 798.975 517.877, 802 520.558 L 807.500 525.433 803.500 521.133 C 801.300 518.768, 798.150 515.900, 796.500 514.761 C 794.850 513.621, 794.175 513.362, 795 514.186 M 380.674 519.750 C 406.070 519.898, 447.920 519.898, 473.674 519.750 C 499.428 519.601, 478.650 519.480, 427.500 519.480 C 376.350 519.480, 355.278 519.601, 380.674 519.750 M 419.280 580.736 C 421.909 580.943, 425.959 580.940, 428.280 580.731 C 430.601 580.521, 428.450 580.352, 423.500 580.355 C 418.550 580.358, 416.651 580.530, 419.280 580.736 M 409 582.034 C 412.200 582.522, 412.005 582.630, 406.722 583.296 C 403.544 583.696, 399.719 583.757, 398.222 583.431 C 396.065 582.961, 395.811 583.070, 397 583.956 C 398.162 584.823, 397.600 584.962, 394.500 584.576 C 392.300 584.302, 391.334 584.327, 392.352 584.632 C 393.579 584.999, 391.306 586.160, 385.624 588.070 C 380.904 589.656, 373.865 592.554, 369.980 594.510 C 366.095 596.466, 362.416 597.757, 361.804 597.379 C 361.176 596.991, 360.969 597.141, 361.329 597.723 C 362.078 598.935, 354.352 604.335, 353.034 603.521 C 352.541 603.217, 351.813 603.494, 351.415 604.138 C 350.922 604.934, 351.140 605.045, 352.095 604.483 C 352.868 604.028, 352.643 604.634, 351.595 605.828 C 349.332 608.408, 347.161 608.775, 349.097 606.250 C 349.835 605.288, 349.216 605.591, 347.720 606.924 C 344.695 609.621, 344.021 610.996, 346.750 608.903 C 347.712 608.165, 347.409 608.784, 346.076 610.280 C 343.416 613.264, 340.960 614.057, 343.072 611.250 C 343.796 610.288, 341.601 612.186, 338.194 615.469 C 334.787 618.751, 332 621.642, 332 621.893 C 332 622.144, 333.125 621.292, 334.500 620 C 335.875 618.708, 337 618.101, 337 618.651 C 337 619.954, 332.508 624.174, 331.836 623.503 C 331.553 623.220, 330.461 623.995, 329.411 625.227 C 327.864 627.039, 327.833 627.207, 329.250 626.110 C 330.212 625.365, 331 625.205, 331 625.755 C 331 627.023, 328.487 629.154, 327.800 628.467 C 327.517 628.184, 326.658 628.750, 325.893 629.726 C 324.626 631.339, 324.659 631.376, 326.250 630.128 C 327.293 629.310, 328 629.185, 328 629.819 C 328 630.872, 326.119 632.455, 324.833 632.485 C 324.467 632.493, 323.792 632.910, 323.333 633.410 C 322.841 633.948, 323.065 633.993, 323.880 633.521 C 324.823 632.974, 325.113 633.161, 324.796 634.111 C 324.542 634.875, 323.846 635.500, 323.250 635.500 C 322.654 635.500, 321.792 635.910, 321.333 636.410 C 320.849 636.939, 321.024 637.019, 321.750 636.601 C 323.395 635.655, 323.327 636.467, 321.457 640.082 C 320.609 641.723, 319.489 642.802, 318.969 642.481 C 318.430 642.148, 318.306 642.635, 318.681 643.612 C 319.125 644.769, 318.962 645.095, 318.181 644.612 C 317.401 644.130, 317.238 644.456, 317.681 645.612 C 318.046 646.562, 317.929 647.074, 317.420 646.760 C 316.914 646.447, 316.435 647.161, 316.357 648.345 C 316.278 649.530, 314.786 654.325, 313.042 659 C 308.266 671.801, 306.900 679.736, 306.070 699.500 C 305.655 709.400, 305.469 717.687, 305.657 717.917 C 305.846 718.146, 306.040 717.246, 306.090 715.917 C 306.139 714.587, 306.822 717.056, 307.607 721.403 C 309.610 732.496, 314.334 746.061, 319.586 755.796 C 322.047 760.360, 323.788 764.533, 323.456 765.071 C 323.123 765.609, 323.391 765.926, 324.051 765.775 C 324.710 765.624, 325.477 766.125, 325.755 766.889 C 326.102 767.845, 325.829 768.029, 324.880 767.479 C 324.065 767.007, 323.841 767.052, 324.333 767.590 C 324.792 768.090, 325.654 768.500, 326.250 768.500 C 326.846 768.500, 327.542 769.125, 327.796 769.889 C 328.119 770.857, 327.841 771.020, 326.880 770.427 C 326.121 769.959, 327.002 771.473, 328.838 773.793 C 330.674 776.112, 332.535 777.787, 332.974 777.516 C 334.039 776.858, 336.321 779.672, 335.629 780.791 C 335.331 781.274, 337.200 783.656, 339.784 786.084 C 342.367 788.513, 343.163 789.038, 341.553 787.250 C 339.943 785.462, 339.072 784, 339.617 784 C 340.934 784, 347.182 790.485, 346.511 791.155 C 346.223 791.443, 346.968 792.539, 348.166 793.589 C 349.364 794.640, 350.015 794.938, 349.613 794.250 C 349.211 793.563, 349.303 793, 349.819 793 C 350.885 793, 353.586 796, 353.333 796.904 C 353.242 797.232, 353.426 797.725, 353.744 798 C 354.061 798.275, 353.961 797.879, 353.521 797.120 C 352.971 796.171, 353.155 795.898, 354.111 796.245 C 354.875 796.523, 355.402 797.213, 355.282 797.779 C 355.162 798.345, 355.837 799.414, 356.782 800.154 C 358.332 801.368, 358.366 801.329, 357.128 799.750 C 355.415 797.566, 356.327 797.513, 359.527 799.609 C 360.878 800.495, 361.754 801.588, 361.475 802.040 C 361.196 802.492, 361.494 803.187, 362.138 803.585 C 362.912 804.063, 363.040 803.873, 362.515 803.025 C 361.983 802.163, 362.179 801.907, 363.111 802.245 C 363.875 802.523, 364.376 803.290, 364.225 803.949 C 364.074 804.609, 364.383 804.881, 364.912 804.554 C 366.281 803.708, 377.017 809.164, 376.292 810.337 C 375.961 810.871, 376.167 811.015, 376.749 810.655 C 377.331 810.295, 381.754 811.287, 386.577 812.859 C 391.400 814.431, 394.931 815.932, 394.423 816.195 C 393.916 816.457, 394.141 816.505, 394.925 816.300 C 395.709 816.096, 399.723 816.495, 403.846 817.188 C 409.730 818.177, 410.821 818.607, 408.921 819.188 C 407.304 819.684, 407.828 819.780, 410.500 819.479 C 412.700 819.231, 421.766 818.909, 430.647 818.764 C 439.593 818.618, 446.282 818.128, 445.647 817.666 C 445.002 817.197, 446.033 817.087, 448 817.414 C 450.651 817.856, 451.136 817.737, 450 816.924 C 448.877 816.120, 449.506 816.004, 452.500 816.462 C 454.818 816.817, 455.971 816.716, 455.241 816.223 C 454.399 815.653, 455.890 814.771, 459.741 813.561 C 462.908 812.566, 469.775 809.673, 475 807.131 C 487.097 801.248, 486.412 801.510, 485.479 803.120 C 485.007 803.935, 485.052 804.159, 485.590 803.667 C 486.090 803.208, 486.500 802.346, 486.500 801.750 C 486.500 801.154, 487.125 800.458, 487.889 800.204 C 488.839 799.887, 489.026 800.177, 488.479 801.120 C 488.007 801.935, 488.052 802.159, 488.590 801.667 C 489.090 801.208, 489.500 800.346, 489.500 799.750 C 489.500 799.154, 490.125 798.458, 490.889 798.204 C 491.839 797.887, 492.026 798.177, 491.479 799.120 C 491.007 799.935, 491.052 800.159, 491.590 799.667 C 492.090 799.208, 492.500 798.346, 492.500 797.750 C 492.500 797.154, 493.125 796.458, 493.889 796.204 C 494.815 795.895, 495.014 796.169, 494.485 797.025 C 493.949 797.892, 494.088 798.064, 494.912 797.554 C 495.584 797.139, 495.882 796.549, 495.575 796.242 C 494.876 795.542, 496.919 793, 498.181 793 C 498.697 793, 498.780 793.563, 498.367 794.250 C 497.851 795.110, 498.141 795.074, 499.297 794.137 C 500.222 793.387, 500.780 792.453, 500.539 792.062 C 499.984 791.165, 514.417 776.750, 515.143 777.476 C 515.438 777.771, 516.539 777.032, 517.589 775.834 C 518.640 774.636, 518.938 773.985, 518.250 774.387 C 516.385 775.478, 516.740 773.456, 518.692 771.872 C 520.151 770.689, 520.262 770.706, 519.500 772 C 518.738 773.294, 518.849 773.311, 520.308 772.128 C 522.140 770.642, 522.628 769.494, 521 770.500 C 520.450 770.840, 520 770.886, 520 770.603 C 520 769.521, 525.191 762.500, 525.992 762.500 C 526.455 762.500, 527.208 762.090, 527.667 761.590 C 528.159 761.052, 527.935 761.007, 527.120 761.479 C 526.361 761.919, 525.916 761.878, 526.130 761.389 C 526.344 760.900, 528.608 756.225, 531.162 751 C 539.813 733.293, 542.492 720.827, 542.444 698.500 C 542.404 680.089, 540.845 670.953, 535.435 657.429 C 534.024 653.904, 533.194 650.495, 533.590 649.855 C 534.070 649.077, 533.870 648.963, 532.985 649.510 C 532.015 650.109, 531.836 649.868, 532.319 648.612 C 532.762 647.456, 532.599 647.130, 531.819 647.612 C 531.038 648.095, 530.875 647.769, 531.319 646.612 C 531.762 645.456, 531.599 645.130, 530.819 645.612 C 530.038 646.095, 529.875 645.769, 530.319 644.612 C 530.762 643.456, 530.599 643.130, 529.819 643.612 C 529.047 644.089, 528.872 643.777, 529.294 642.676 C 529.660 641.722, 529.468 641.125, 528.839 641.262 C 528.240 641.393, 527.523 640.875, 527.245 640.111 C 526.907 639.179, 527.163 638.983, 528.025 639.515 C 528.873 640.040, 529.063 639.912, 528.585 639.138 C 528.187 638.494, 527.465 638.212, 526.981 638.512 C 525.928 639.162, 523.685 635.319, 524.422 634.127 C 525.119 632.999, 522.466 629.500, 520.914 629.500 C 520.228 629.500, 519.458 628.875, 519.204 628.111 C 518.886 627.157, 519.173 626.976, 520.120 627.533 C 520.879 627.979, 520.643 627.366, 519.595 626.172 C 517.321 623.579, 516.187 623.260, 518.097 625.750 C 518.835 626.712, 518.216 626.409, 516.720 625.076 C 513.948 622.605, 512.985 620.316, 515.250 621.580 C 515.938 621.963, 513.588 619.290, 510.029 615.639 C 506.470 611.987, 503.363 609, 503.124 609 C 502.885 609, 503.505 609.900, 504.500 611 C 505.495 612.100, 505.860 613, 505.310 613 C 504.027 613, 500.833 609.500, 501.504 608.829 C 501.784 608.550, 501.005 607.461, 499.773 606.411 C 497.961 604.864, 497.793 604.833, 498.890 606.250 C 499.635 607.212, 499.795 608, 499.245 608 C 497.935 608, 495.857 605.476, 496.575 604.758 C 496.882 604.451, 496.584 603.861, 495.912 603.446 C 495.132 602.963, 494.949 603.108, 495.405 603.845 C 496.518 605.648, 494.407 605.200, 492.872 603.308 C 491.940 602.158, 491.901 601.857, 492.750 602.367 C 494.572 603.462, 494.279 602.471, 492.308 600.872 C 490.872 599.708, 490.742 599.709, 491.447 600.880 C 492.025 601.839, 491.855 602.106, 490.889 601.755 C 490.125 601.477, 489.595 600.797, 489.711 600.243 C 489.827 599.689, 489.152 599.295, 488.211 599.368 C 487.270 599.440, 486.624 598.904, 486.775 598.176 C 486.926 597.447, 486.616 597.120, 486.085 597.447 C 484.709 598.298, 469.994 590.819, 470.723 589.640 C 471.073 589.074, 470.643 588.923, 469.705 589.283 C 468.812 589.626, 465.709 589.099, 462.809 588.114 C 459.532 587, 458.097 586.097, 459.018 585.728 C 459.833 585.402, 458.925 585.368, 457 585.652 C 454.187 586.067, 453.795 585.937, 455 584.990 C 456.265 583.996, 456.198 583.910, 454.576 584.441 C 453.518 584.787, 450.595 584.762, 448.080 584.385 C 444.524 583.851, 443.951 583.531, 445.504 582.945 C 446.624 582.521, 444.867 582.352, 441.500 582.560 C 437.759 582.790, 436.605 582.660, 438.433 582.215 C 440.046 581.822, 433.296 581.500, 423.433 581.500 C 413.570 581.500, 407.075 581.740, 409 582.034 M 409.069 616.088 C 402.414 617.394, 391.923 621.066, 392.443 621.908 C 392.695 622.315, 391.910 622.615, 390.700 622.574 C 389.481 622.533, 388.606 623.042, 388.738 623.714 C 388.870 624.385, 388.351 624.688, 387.578 624.392 C 385.814 623.715, 379.745 626.779, 380.484 627.973 C 380.786 628.462, 380.506 629.187, 379.862 629.585 C 379.131 630.037, 378.959 629.876, 379.405 629.155 C 380.518 627.352, 378.407 627.800, 376.872 629.692 C 375.704 631.133, 375.708 631.258, 376.905 630.537 C 377.838 629.975, 378.079 630.064, 377.622 630.802 C 377.245 631.413, 376.321 631.677, 375.569 631.388 C 374.817 631.100, 373.862 631.414, 373.447 632.086 C 372.963 632.868, 373.107 633.052, 373.845 632.595 C 375.597 631.513, 375.225 632.572, 373.308 634.128 C 372.158 635.060, 371.857 635.099, 372.367 634.250 C 374.308 631.020, 370.758 633.700, 363.727 640.772 C 356.529 648.012, 353.148 652.725, 358.250 648.405 L 360.500 646.500 358.631 648.710 C 357.603 649.926, 356.309 650.826, 355.756 650.710 C 355.203 650.595, 354.523 651.125, 354.245 651.889 C 353.907 652.821, 354.163 653.017, 355.025 652.485 C 355.873 651.960, 356.063 652.088, 355.585 652.862 C 355.187 653.506, 354.465 653.788, 353.981 653.488 C 352.775 652.743, 350.738 656.767, 351.608 658.175 C 352.030 658.857, 351.863 659.034, 351.190 658.617 C 349.727 657.713, 346.015 665.104, 342.460 676 C 338.714 687.478, 338.031 708.407, 341.027 719.830 C 343.461 729.106, 349.163 742.500, 350.679 742.500 C 351.314 742.500, 352.208 742.910, 352.667 743.410 C 353.151 743.939, 352.976 744.019, 352.250 743.601 C 350.301 742.480, 350.780 744.528, 353.076 747.139 C 354.218 748.438, 354.867 748.938, 354.517 748.250 C 353.607 746.458, 354.519 746.709, 356.128 748.692 C 357.292 750.128, 357.291 750.258, 356.120 749.553 C 355.161 748.975, 354.894 749.145, 355.245 750.111 C 355.523 750.875, 356.203 751.405, 356.756 751.290 C 357.309 751.174, 358.603 752.074, 359.631 753.290 L 361.500 755.500 359.250 753.595 C 354.515 749.586, 357.285 753.841, 363.277 759.779 C 369.143 765.592, 372.081 767.647, 370.387 764.750 C 369.985 764.063, 370.634 764.357, 371.828 765.405 C 374.420 767.678, 374.745 768.822, 372.250 766.890 C 370.825 765.786, 370.854 765.950, 372.405 767.767 C 374.369 770.069, 376.673 770.897, 375.405 768.845 C 374.959 768.124, 375.131 767.963, 375.862 768.415 C 376.506 768.813, 376.791 769.530, 376.495 770.008 C 375.788 771.153, 386.723 777.225, 395.524 780.575 C 403.607 783.651, 417.864 786.062, 426.500 785.813 L 432.500 785.640 425 784.994 C 418.640 784.446, 419.476 784.347, 430.500 784.341 C 442.019 784.334, 444.242 784.044, 450.013 781.800 C 462.936 776.776, 478.212 767.778, 480.619 763.772 C 481.137 762.911, 480.757 762.966, 479.442 763.942 C 478.374 764.735, 480.638 762.147, 484.473 758.192 C 488.308 754.236, 491.669 751, 491.942 751 C 492.214 751, 489.766 753.700, 486.500 757 C 483.234 760.300, 481.056 763, 481.659 763 C 483.414 763, 498 745.627, 498 743.537 C 498 743.177, 497.480 743.203, 496.845 743.595 C 496.124 744.041, 495.963 743.869, 496.415 743.138 C 496.813 742.494, 497.540 742.216, 498.031 742.519 C 499.226 743.257, 503.284 735.182, 502.606 733.415 C 502.312 732.650, 502.579 732.131, 503.200 732.262 C 506.028 732.859, 511.018 708.797, 510.498 697.069 C 510.059 687.158, 508.125 678.239, 506.824 680.120 C 506.146 681.099, 506.054 680.844, 506.504 679.244 C 507.585 675.402, 499.950 657.295, 497.807 658.619 C 497.115 659.047, 496.972 658.854, 497.432 658.111 C 498.316 656.680, 495.299 651.697, 494.025 652.484 C 493.537 652.786, 492.813 652.506, 492.415 651.862 C 491.963 651.131, 492.124 650.959, 492.845 651.405 C 494.648 652.518, 494.200 650.407, 492.308 648.872 C 490.849 647.689, 490.734 647.707, 491.469 649 C 491.939 649.825, 491.125 649.409, 489.661 648.076 C 488.198 646.742, 487 645.435, 487 645.171 C 487 644.906, 487.900 645.505, 489 646.500 C 493.371 650.456, 490.669 646.105, 485.719 641.216 C 480.428 635.991, 477.021 634.022, 480.588 638.250 C 482.297 640.276, 482.213 640.259, 479.743 638.076 C 476.852 635.520, 476.149 634.371, 478.250 635.633 C 479.099 636.143, 479.060 635.842, 478.128 634.692 C 476.669 632.894, 474.456 632.311, 475.500 634 C 476.506 635.628, 475.358 635.140, 473.872 633.308 C 472.689 631.849, 472.706 631.738, 474 632.500 C 475.294 633.262, 475.311 633.151, 474.128 631.692 C 472.593 629.800, 470.482 629.352, 471.595 631.155 C 472.041 631.876, 471.869 632.037, 471.138 631.585 C 470.494 631.187, 470.212 630.465, 470.512 629.981 C 471.257 628.775, 467.233 626.738, 465.825 627.608 C 465.144 628.029, 464.966 627.863, 465.381 627.193 C 466.683 625.086, 452.599 619.198, 439.685 616.450 C 432.308 614.881, 416.196 614.690, 409.069 616.088 M 459.219 658.455 C 457.506 660.493, 457.508 660.493, 459.756 658.589 C 464.334 654.713, 462.435 657.651, 457.553 662 C 454.774 664.475, 453.393 665.375, 454.484 664 C 456.142 661.912, 455.936 661.984, 453.234 664.437 C 450.005 667.370, 448.660 669.357, 451.500 667 C 452.325 666.315, 453 666.190, 453 666.723 C 453 667.959, 449.496 671.163, 448.850 670.517 C 448.583 670.249, 446.819 671.706, 444.932 673.755 C 442.684 676.196, 442.448 676.648, 444.250 675.066 C 445.762 673.738, 447 673.088, 447 673.623 C 447 674.912, 439.518 682.185, 438.864 681.531 C 438.584 681.250, 437.037 682.461, 435.427 684.222 C 433.817 685.983, 433.288 686.823, 434.250 686.089 C 437.406 683.683, 436.018 686.422, 432.269 690 C 430.251 691.925, 429.233 692.600, 430.007 691.500 C 430.780 690.400, 429.745 691.051, 427.706 692.946 C 425.668 694.842, 424 696.607, 424 696.870 C 424 697.133, 425.125 696.292, 426.500 695 C 427.875 693.708, 429 693.088, 429 693.623 C 429 694.912, 421.518 702.185, 420.864 701.531 C 420.584 701.250, 419.037 702.436, 417.427 704.165 C 415.817 705.894, 415.063 706.988, 415.750 706.596 C 417.553 705.566, 417.290 707.514, 415.417 709.069 C 412.835 711.211, 410.217 710.836, 407.428 707.924 C 405.985 706.419, 404.849 704.920, 404.902 704.593 C 404.956 704.267, 404.822 704.112, 404.605 704.250 C 403.877 704.711, 400.041 700.742, 400.499 700.001 C 401.118 699, 388.503 686.999, 386.837 687.004 C 386.101 687.006, 386.850 687.853, 388.500 688.887 C 390.150 689.921, 393.525 692.944, 396 695.605 C 400.207 700.129, 400.101 700.075, 394.378 694.773 C 391.011 691.654, 387.186 688.871, 385.878 688.587 C 381.346 687.606, 373.184 687.493, 373.758 688.420 C 374.083 688.945, 373.520 689.030, 372.445 688.617 C 371.409 688.220, 370.891 688.224, 371.294 688.628 C 372.094 689.427, 367.072 695.161, 366.097 694.563 C 365.539 694.220, 365.058 697.123, 364.700 703 C 364.616 704.375, 364.888 706.850, 365.304 708.500 C 365.886 710.806, 365.805 711.153, 364.954 710 C 363.971 708.667, 363.893 708.667, 364.257 710 C 364.482 710.825, 365.267 711.500, 366 711.500 C 366.733 711.500, 367.542 712.125, 367.796 712.889 C 368.112 713.836, 367.820 714.027, 366.880 713.489 C 366.121 713.055, 367.034 714.325, 368.908 716.311 C 370.783 718.297, 372.619 719.735, 372.988 719.507 C 374.079 718.833, 384.124 729.535, 383.276 730.468 C 382.849 730.937, 382.983 731.046, 383.574 730.710 C 384.717 730.060, 399.426 744.241, 398.534 745.133 C 398.245 745.422, 399.204 746.748, 400.665 748.079 C 402.127 749.411, 402.998 749.938, 402.602 749.250 C 401.667 747.627, 402.880 747.716, 406 749.500 C 407.375 750.286, 409.850 750.998, 411.500 751.083 L 414.500 751.237 411.500 752 L 408.500 752.763 411.821 752.882 C 413.656 752.947, 415.849 752.294, 416.721 751.422 C 417.588 750.555, 419.176 750.074, 420.248 750.355 C 421.320 750.635, 421.932 750.599, 421.608 750.274 C 420.865 749.531, 422.904 747, 424.245 747 C 424.795 747, 424.651 747.788, 423.925 748.750 C 423.199 749.712, 424.944 748.267, 427.803 745.538 C 432.736 740.828, 435.246 737.657, 431 741.500 C 426.744 745.352, 429.258 741.173, 433.733 736.958 C 436.363 734.482, 437.369 733.833, 435.997 735.500 C 434.223 737.654, 434.722 737.386, 437.764 734.547 C 440.094 732.373, 442 730.391, 442 730.142 C 442 729.893, 441.100 730.505, 440 731.500 C 435.744 735.352, 438.258 731.173, 442.733 726.958 C 445.345 724.498, 446.358 723.845, 444.993 725.500 C 442.742 728.230, 442.856 728.189, 446.259 725.054 C 449.896 721.703, 451.513 719.499, 448.500 722 C 445.295 724.660, 447.205 721.203, 450.741 717.946 C 454.144 714.811, 454.258 714.770, 452.007 717.500 C 450.642 719.155, 451.655 718.502, 454.267 716.042 C 456.870 713.590, 459 711.374, 459 711.117 C 459 710.861, 457.875 711.708, 456.500 713 C 455.125 714.292, 454 714.908, 454 714.370 C 454 713.082, 460.484 706.817, 461.139 707.472 C 461.418 707.751, 462.963 706.539, 464.573 704.778 C 466.183 703.017, 466.712 702.177, 465.750 702.911 C 462.290 705.549, 464.089 702.323, 468.236 698.453 C 471.260 695.632, 471.763 695.359, 469.996 697.500 C 467.745 700.227, 467.860 700.186, 471.259 697.054 C 474.896 693.703, 476.513 691.499, 473.500 694 C 472.675 694.685, 472 694.818, 472 694.297 C 472 693.055, 476.502 688.835, 477.143 689.476 C 477.414 689.748, 479.181 688.334, 481.068 686.335 C 482.956 684.335, 483.879 683.055, 483.120 683.489 C 482.180 684.027, 481.888 683.836, 482.204 682.889 C 482.458 682.125, 483.267 681.500, 484 681.500 C 484.733 681.500, 485.518 680.825, 485.743 680 C 486.107 678.667, 486.025 678.667, 485.011 680 C 484.057 681.253, 483.956 681.171, 484.397 679.500 C 485.856 673.977, 486.839 668.506, 486.444 668.110 C 486.200 667.866, 486 668.287, 486 669.045 C 486 669.803, 485.107 668.671, 484.015 666.530 C 481.734 662.055, 482.062 660.381, 484.382 664.662 C 485.228 666.223, 485.938 667.038, 485.960 666.473 C 486.025 664.800, 482.937 660.921, 482.001 661.500 C 481.097 662.058, 479.558 660.216, 479.493 658.500 C 479.472 657.950, 478.633 657.643, 477.627 657.817 C 476.622 657.991, 476.026 657.766, 476.304 657.317 C 476.581 656.868, 473.238 656.480, 468.874 656.455 C 462.075 656.417, 460.692 656.703, 459.219 658.455 M 304.370 700 C 304.370 705.775, 304.535 708.138, 304.737 705.250 C 304.939 702.362, 304.939 697.638, 304.737 694.750 C 304.535 691.862, 304.370 694.225, 304.370 700 M 544.343 698.500 C 544.346 702.900, 544.522 704.576, 544.733 702.224 C 544.945 699.872, 544.942 696.272, 544.727 694.224 C 544.512 692.176, 544.339 694.100, 544.343 698.500 M 708.671 710.277 C 709.075 710.930, 708.722 711.107, 707.758 710.737 C 706.830 710.381, 705.434 710.996, 704.344 712.239 C 703.323 713.404, 703.134 713.970, 703.920 713.508 C 705.043 712.847, 705.153 713.072, 704.444 714.586 C 703.546 716.505, 703.407 725.491, 704.208 729.795 C 704.443 731.057, 705.928 733.307, 707.507 734.795 C 709.086 736.283, 709.788 736.712, 709.067 735.750 C 708.345 734.788, 708.205 734, 708.755 734 C 710.084 734, 712.138 736.528, 711.406 737.261 C 711.088 737.578, 711.880 738.349, 713.164 738.974 C 715.391 740.057, 715.409 740.038, 713.559 738.555 C 710.643 736.219, 712.096 736.645, 720.049 740.456 C 724.015 742.357, 729.564 744.354, 732.380 744.895 C 737.257 745.831, 757.676 747.064, 753.500 746.171 C 752.196 745.892, 753.357 745.265, 756.841 744.369 C 759.779 743.613, 762.661 743.290, 763.245 743.652 C 763.847 744.023, 764.018 743.838, 763.640 743.227 C 762.830 741.916, 766.510 740.579, 768.146 741.590 C 768.923 742.070, 769.037 741.869, 768.490 740.985 C 767.891 740.015, 768.132 739.836, 769.388 740.319 C 770.357 740.691, 770.852 740.569, 770.524 740.039 C 769.823 738.904, 773.665 736.675, 774.952 737.470 C 775.452 737.779, 776.187 737.506, 776.585 736.862 C 777.078 736.066, 776.860 735.955, 775.905 736.517 C 775.132 736.972, 775.357 736.366, 776.405 735.172 C 778.668 732.592, 780.839 732.225, 778.903 734.750 C 778.165 735.712, 778.784 735.409, 780.280 734.076 C 783.109 731.554, 784.129 729.818, 781.500 732 C 779.460 733.693, 779.616 732.678, 781.996 728.774 C 783.094 726.973, 783.994 726.137, 783.996 726.917 C 783.998 727.696, 784.227 728.106, 784.505 727.829 C 785.422 726.911, 783.012 716.666, 781.266 714.059 C 780.323 712.651, 779.540 711.200, 779.526 710.833 C 779.512 710.467, 779.090 709.792, 778.590 709.333 C 778.050 708.839, 778.015 709.078, 778.504 709.920 C 779.157 711.045, 778.931 711.149, 777.414 710.420 C 774.601 709.068, 707.838 708.929, 708.671 710.277 M 740.768 747.725 C 742.565 747.947, 745.265 747.943, 746.768 747.715 C 748.271 747.486, 746.800 747.304, 743.500 747.310 C 740.200 747.315, 738.971 747.502, 740.768 747.725 M 725.385 804 C 725.385 810.875, 725.545 813.688, 725.740 810.250 C 725.936 806.813, 725.936 801.188, 725.740 797.750 C 725.545 794.313, 725.385 797.125, 725.385 804 M 761.417 810.500 C 761.418 820.950, 761.566 825.089, 761.746 819.698 C 761.926 814.307, 761.925 805.757, 761.744 800.698 C 761.563 795.639, 761.416 800.050, 761.417 810.500 M 420.280 820.736 C 422.909 820.943, 426.959 820.940, 429.280 820.731 C 431.601 820.521, 429.450 820.352, 424.500 820.355 C 419.550 820.358, 417.651 820.530, 420.280 820.736 M 389.330 848.750 C 447.536 848.893, 542.486 848.893, 600.330 848.750 C 658.173 848.607, 610.550 848.491, 494.500 848.491 C 378.450 848.491, 331.123 848.607, 389.330 848.750 M 283.250 885.728 C 285.313 885.944, 288.688 885.944, 290.750 885.728 C 292.813 885.513, 291.125 885.336, 287 885.336 C 282.875 885.336, 281.188 885.513, 283.250 885.728 M 297.728 885.722 C 299.503 885.943, 302.653 885.946, 304.728 885.730 C 306.802 885.513, 305.350 885.333, 301.500 885.328 C 297.650 885.324, 295.952 885.501, 297.728 885.722 M 327.250 885.735 C 329.863 885.941, 334.137 885.941, 336.750 885.735 C 339.363 885.529, 337.225 885.360, 332 885.360 C 326.775 885.360, 324.637 885.529, 327.250 885.735 M 378.250 885.735 C 380.863 885.941, 385.137 885.941, 387.750 885.735 C 390.363 885.529, 388.225 885.360, 383 885.360 C 377.775 885.360, 375.637 885.529, 378.250 885.735 M 404.287 885.740 C 407.469 885.939, 412.419 885.937, 415.287 885.736 C 418.154 885.535, 415.550 885.372, 409.500 885.374 C 403.450 885.376, 401.104 885.541, 404.287 885.740 M 423.750 885.723 C 425.538 885.945, 428.462 885.945, 430.250 885.723 C 432.038 885.502, 430.575 885.320, 427 885.320 C 423.425 885.320, 421.962 885.502, 423.750 885.723 M 467.280 885.736 C 469.909 885.943, 473.959 885.940, 476.280 885.731 C 478.601 885.521, 476.450 885.352, 471.500 885.355 C 466.550 885.358, 464.651 885.530, 467.280 885.736 M 490.728 885.722 C 492.503 885.943, 495.653 885.946, 497.728 885.730 C 499.802 885.513, 498.350 885.333, 494.500 885.328 C 490.650 885.324, 488.952 885.501, 490.728 885.722 M 598.776 885.733 C 601.128 885.945, 604.728 885.942, 606.776 885.727 C 608.824 885.512, 606.900 885.339, 602.500 885.343 C 598.100 885.346, 596.424 885.522, 598.776 885.733" stroke="none" fill="#115fc1" fill-rule="evenodd"/></svg>