<svg xmlns="http://www.w3.org/2000/svg" width="1024" height="1024" viewBox="0 0 1024 1024" version="1.1"><path d="M 588.500 225.929 C 585.561 227.425, 579.063 234.515, 564 252.661 C 552.725 266.245, 537.865 284.140, 530.978 292.429 C 511.004 316.467, 511.666 315.474, 511.183 322.153 C 510.825 327.101, 511.128 328.562, 513.111 331.457 C 516.077 335.786, 518.751 337.001, 525.297 336.996 C 532.197 336.991, 535.268 334.979, 543.059 325.357 C 546.558 321.036, 555.093 310.750, 562.025 302.500 C 574.415 287.755, 576.563 285, 575.669 285 C 575.190 285, 562.313 300.233, 547.422 318.415 C 534.369 334.354, 532.288 336, 525.188 336 C 516.345 336, 512 331.635, 512 322.751 C 512 317.252, 513.551 314.919, 531.500 293.413 C 539.200 284.188, 554.386 265.932, 565.247 252.845 C 576.107 239.758, 586.007 228.395, 587.247 227.593 C 594.766 222.729, 601.558 225.161, 610.255 235.831 C 613.690 240.045, 629.302 258.795, 644.948 277.497 C 660.594 296.198, 674.432 313.025, 675.698 314.890 C 681.336 323.191, 676.200 334.831, 666.235 336.337 C 659.433 337.365, 656.742 335.634, 646.834 323.859 C 627.887 301.341, 613.260 284.459, 611.433 283 C 609.479 281.439, 622.894 297.549, 643.380 321.365 C 658.144 338.530, 661.395 340.273, 670.729 336.036 C 676.177 333.563, 678.991 329.018, 678.996 322.684 C 678.998 320.036, 678.551 317.029, 678.001 316.003 C 677.452 314.976, 667.307 302.519, 655.457 288.318 C 643.607 274.118, 629.994 257.803, 625.206 252.062 C 602.934 225.360, 602.705 225.141, 596.288 224.357 C 593.709 224.041, 591.223 224.543, 588.500 225.929 M 580.189 397.500 C 579.964 483.324, 579.584 513.375, 578.694 515.951 C 577.243 520.143, 572.314 523.273, 567.161 523.273 C 564.944 523.273, 561.129 522.022, 557.596 520.136 C 548.756 515.419, 539.899 516.161, 532.527 522.238 C 520.545 532.115, 521.815 549.110, 535.330 559.752 C 537.396 561.379, 547.322 563.959, 549.675 563.481 C 550.679 563.277, 553.164 562.844, 555.198 562.520 C 557.350 562.176, 561.401 560.046, 564.887 557.426 C 568.611 554.626, 572.988 552.373, 576.456 551.470 C 589.687 548.023, 599.960 539.776, 605.075 528.494 C 606.684 524.947, 607.976 521.022, 607.946 519.772 C 607.917 518.522, 607.077 520.049, 606.081 523.164 C 603.644 530.784, 600.876 535.027, 594.748 540.537 C 588.537 546.121, 584.014 548.526, 575.749 550.641 C 572.002 551.599, 568.188 553.390, 566.222 555.113 C 556.349 563.771, 542.928 564.519, 533.721 556.924 C 523.852 548.783, 522.555 534.936, 530.804 525.787 C 538.506 517.244, 546.571 515.995, 558.245 521.539 C 564.976 524.736, 566.108 524.986, 569.944 524.124 C 575.149 522.954, 578.702 519.771, 580.059 515.060 C 580.741 512.693, 580.985 473.117, 580.788 397 L 580.491 282.500 580.189 397.500 M 608.392 315 C 608.392 322.425, 608.549 325.462, 608.742 321.750 C 608.934 318.038, 608.934 311.962, 608.742 308.250 C 608.549 304.538, 608.392 307.575, 608.392 315 M 608.480 422.500 C 608.480 474.200, 608.601 495.203, 608.750 469.174 C 608.898 443.145, 608.898 400.845, 608.750 375.174 C 608.601 349.503, 608.480 370.800, 608.480 422.500 M 473.504 343.113 C 460.092 344.431, 460.904 344.819, 476 344.306 C 488.438 343.883, 489.761 344.012, 492.810 345.945 C 499.543 350.214, 500.954 361.308, 495.488 367.012 C 493.981 368.585, 491.343 370.566, 489.624 371.413 C 487.906 372.261, 487.220 372.965, 488.100 372.977 C 490.758 373.015, 497.574 367.442, 498.959 364.100 C 500.632 360.059, 499.795 352.542, 497.298 349.198 C 492.575 342.872, 487.962 341.692, 473.504 343.113 M 440.801 348.018 C 371.561 362.313, 309.198 392.659, 250 440.861 C 215.898 468.629, 172.277 513.386, 156.919 536.364 C 148.182 549.437, 151.342 555.219, 189.998 596.870 C 216.019 624.907, 251.338 655.274, 280.500 674.681 C 302.559 689.361, 332.987 706.088, 353.618 714.876 C 359.053 717.191, 364.850 719.725, 366.500 720.508 C 383.377 728.513, 422.118 740.075, 451.500 745.874 C 489.274 753.330, 531.896 755.766, 558.500 751.989 C 563.460 751.284, 562.766 751.216, 554.500 751.593 C 512.369 753.513, 489.276 752.013, 452 744.934 C 415.084 737.924, 371.273 723.138, 337.500 706.290 C 295.952 685.563, 259.382 660.717, 226 630.537 C 198.854 605.994, 161.298 565.212, 155.477 553.955 C 154.664 552.384, 154 549.139, 154 546.743 C 154 541.864, 158.049 535.426, 170.496 520.512 C 214.113 468.250, 269.622 421.742, 323.824 392.045 C 342.414 381.860, 364.281 372.053, 384 365.057 C 410.527 355.647, 422.765 352.499, 457.500 346.150 C 462.455 345.245, 462.464 345.236, 458.500 345.213 C 456.300 345.200, 448.335 346.462, 440.801 348.018 M 651.379 369.437 C 647.605 371.079, 643.463 376.346, 642.548 380.666 C 641.660 384.860, 643.429 391.121, 646.239 393.730 C 647.482 394.884, 655.025 398.610, 663 402.010 C 693.668 415.082, 720.265 430.366, 750.386 452.226 C 778.971 472.971, 811.306 501.573, 831.700 524.151 C 851.990 546.616, 856.959 551.369, 843.040 535 C 814.867 501.867, 768.136 461.376, 728.500 435.757 C 706.890 421.789, 681.042 408.128, 660.642 399.894 C 648.781 395.106, 645.542 392.623, 644.033 387.158 C 641.922 379.513, 646.465 372.154, 654.900 369.556 C 658.079 368.577, 658.728 368.130, 657 368.109 C 655.625 368.092, 653.096 368.690, 651.379 369.437 M 670 373.277 C 729.003 398.208, 786.922 437.963, 837.093 487.969 C 856.186 507, 872.148 525.020, 879.074 535.364 C 885.502 544.966, 884.615 550.378, 874.623 562.500 C 865.845 573.149, 839.265 601.594, 827.340 613.099 C 786.323 652.673, 739.287 686.707, 693.623 709.855 C 653.383 730.253, 611.753 743.924, 574 749.139 C 568.775 749.860, 565.491 750.603, 566.703 750.789 C 569.875 751.275, 592.482 747.360, 606.500 743.897 C 668.302 728.627, 728.713 697.091, 788.569 648.851 C 811.301 630.530, 840.814 602.194, 862.882 577.500 C 882.647 555.383, 884.457 552.519, 883.784 544.406 C 883.408 539.870, 882.548 538.077, 877.584 531.482 C 844.336 487.308, 785.582 436.071, 730 402.779 C 707.722 389.435, 670.926 371.284, 662.500 369.482 C 660.850 369.129, 664.225 370.836, 670 373.277 M 477.140 374.147 C 471.777 375.691, 473.959 375.959, 480 374.499 C 483.025 373.768, 484.375 373.172, 483 373.175 C 481.625 373.178, 478.988 373.615, 477.140 374.147 M 465 377.509 C 444.510 384.979, 422.342 400.131, 407.641 416.713 C 383.212 444.269, 368.535 476.455, 363.049 514.500 C 361.705 523.822, 361.727 554.882, 363.084 564.678 C 369.405 610.286, 393.075 653.149, 427.653 681.600 C 455.404 704.434, 479.950 715.743, 513.500 721.154 C 524.988 723.006, 560.595 722.742, 574.858 720.698 C 586.390 719.045, 616.482 712.149, 615.677 711.343 C 615.434 711.101, 609.671 712.238, 602.868 713.869 C 585.372 718.065, 581.223 718.811, 566 720.491 C 527.909 724.695, 493.810 719.407, 464.500 704.752 C 434.122 689.562, 407.168 664.760, 389.611 635.842 C 379.120 618.561, 372.036 600.908, 366.849 579.119 C 364.185 567.925, 363.783 564.170, 363.291 545.861 C 362.576 519.220, 364.603 503.725, 371.711 481.500 C 387.173 433.148, 423.632 393.141, 465.500 378.583 C 469.350 377.244, 471.600 376.168, 470.500 376.191 C 469.400 376.214, 466.925 376.807, 465 377.509 M 392.662 390.681 C 388.352 392.043, 385.007 393.340, 385.230 393.563 C 385.453 393.786, 389.655 392.671, 394.568 391.086 C 399.480 389.500, 402.825 388.203, 402 388.203 C 401.175 388.204, 396.973 389.318, 392.662 390.681 M 529 391.656 C 521.330 392.833, 506.265 396.680, 497.795 399.624 C 462.480 411.899, 430.105 440.385, 413.570 473.728 C 411.178 478.553, 408.944 483.625, 408.606 485 C 408.268 486.375, 409.947 483.450, 412.336 478.500 C 421.149 460.240, 429.840 448.197, 444.130 434.444 C 471.426 408.173, 503.972 393.902, 540.220 392.309 L 553.941 391.706 557.970 395.735 C 561.575 399.339, 562 400.279, 561.996 404.632 C 561.992 410.657, 559.173 415.623, 554.728 417.439 C 552.953 418.165, 546.822 419.078, 541.104 419.470 C 520.279 420.895, 498.412 428.168, 480.908 439.491 C 471.469 445.597, 452.717 464.394, 446.505 473.978 C 439.488 484.802, 433.439 498.171, 430.411 509.549 C 427.388 520.905, 425.972 539.891, 427.247 551.970 C 430.053 578.566, 442.792 604.741, 462.737 624.894 C 474.978 637.263, 483.449 643.572, 496.355 649.934 C 515.790 659.514, 531.510 662.590, 556.500 661.704 C 570.362 661.212, 573.970 660.718, 583.500 658.007 C 621.262 647.264, 651.844 618.945, 665.042 582.500 C 670.109 568.507, 671.217 562.095, 671.727 543.808 C 672.156 528.430, 671.944 524.768, 670.103 515.808 C 664.751 489.762, 652.744 466.062, 636.345 449.177 C 628.058 440.644, 626.097 436.265, 627.993 430.523 C 631.037 421.297, 641.796 418.158, 650.102 424.072 C 653.791 426.699, 665.272 440.393, 671.457 449.544 C 677.707 458.790, 687.226 478.343, 690.909 489.500 C 696.731 507.137, 698.316 517.559, 698.361 538.500 C 698.407 560.532, 697.001 570.072, 691.061 588.024 C 678.456 626.114, 653.676 655.343, 618 674.202 C 609.338 678.781, 596.847 683.306, 582.500 687.062 C 570.738 690.142, 541.207 690.922, 527.440 688.517 C 472.956 678.998, 429.445 644.115, 409.990 594.356 C 402.890 576.196, 400.855 565.947, 400.275 545.432 C 399.684 524.537, 400.759 514.185, 405.085 499.116 C 408.343 487.767, 408.377 483.801, 405.126 494.326 C 398.320 516.362, 396.786 548.250, 401.462 570.500 C 411.042 616.088, 443.398 656.779, 486.045 676.871 C 517.657 691.765, 551.806 695.371, 585 687.322 C 613.956 680.300, 634.018 668.979, 655.545 647.512 C 678.038 625.082, 691.768 598.982, 697.636 567.500 C 699.946 555.110, 700.239 524.331, 698.150 513.500 C 691.512 479.075, 677.714 451.422, 655.573 428.173 C 649.421 421.712, 646.367 420, 641 420 C 633.716 420, 628.101 424.563, 626.546 431.747 C 625.396 437.056, 627.745 441.857, 635.461 449.971 C 651.007 466.319, 662.286 487.684, 668.201 511.989 C 671.122 523.992, 671.801 548.091, 669.579 560.901 C 666.499 578.656, 658.028 598.751, 647.828 612.500 C 641.035 621.657, 627.613 634.652, 618.936 640.474 C 608.676 647.357, 592.868 654.513, 581 657.646 C 571.231 660.225, 569.107 660.421, 550.500 660.451 C 531.862 660.482, 529.785 660.298, 520 657.744 C 507.345 654.442, 488.485 645.420, 478.500 637.892 C 455.669 620.680, 438.284 594.926, 431.320 568 C 428.263 556.179, 427.177 535.666, 428.920 522.635 C 432.153 498.456, 444.236 474.613, 462.446 456.476 C 473.956 445.014, 481.885 439.378, 496.127 432.538 C 512.115 424.858, 532.211 420, 547.989 420 C 557.044 420, 563 414.014, 563 404.913 C 563 399.690, 560.016 394.326, 555.970 392.279 C 553.651 391.106, 535.342 390.683, 529 391.656 M 394.508 400.185 C 372.895 423.160, 356.858 450.367, 348.345 478.500 C 326.693 550.055, 343.901 626.803, 393.445 679.651 C 405.901 692.938, 424.961 708.373, 426.729 706.605 C 427.035 706.298, 426.434 705.737, 425.393 705.358 C 421.289 703.865, 406.922 691.664, 395.961 680.362 C 366.794 650.290, 348.041 611.497, 342.611 570 C 340.237 551.863, 339.794 539.590, 340.968 524.500 C 344.683 476.736, 362.670 435.579, 394.356 402.339 C 399.776 396.653, 403.760 392, 403.209 392 C 402.659 392, 398.743 395.683, 394.508 400.185 M 370 399.391 C 348.684 408.443, 336.676 414.760, 314 428.849 C 273.341 454.110, 229.968 492.583, 195.110 534.305 C 188.176 542.606, 185.631 546, 186.342 546 C 186.593 546, 191.211 540.712, 196.605 534.250 C 216.787 510.072, 244.950 482.117, 268.500 462.888 C 301.862 435.648, 335.809 414.999, 372.930 399.365 C 378.667 396.949, 383.580 394.754, 383.847 394.486 C 385.105 393.229, 381.522 394.498, 370 399.391 M 530.500 455.477 C 500.002 461.128, 472.723 486.752, 464.999 517.005 C 458.736 541.534, 463.180 567.143, 477.320 588 C 481.841 594.670, 493.627 606.552, 500.808 611.679 C 508.675 617.297, 518.963 622.026, 530 625.098 C 537.342 627.141, 540.611 627.453, 554 627.387 C 565.675 627.328, 570.610 626.907, 574 625.677 C 579.034 623.852, 577.284 623.923, 566 626.003 C 552.799 628.437, 532.212 625.759, 517.192 619.656 C 498.455 612.043, 479.560 593.540, 470.805 574.231 C 465.608 562.768, 463.847 553.992, 463.835 539.500 C 463.823 523.707, 465.670 514.601, 471.115 503.610 C 485.101 475.380, 509.792 457.878, 539 455.489 C 545.136 454.987, 547.124 455.205, 549.929 456.688 C 554.995 459.365, 557.216 462.966, 557.301 468.641 C 557.435 477.562, 552.935 481.444, 540 483.567 C 515.058 487.660, 498.138 503.318, 492.414 527.600 C 487.548 548.245, 497.203 573.518, 514.867 586.373 C 526.788 595.049, 539.584 599.183, 554.256 599.097 C 573.544 598.985, 592.749 588.895, 603.320 573.322 C 610.091 563.345, 613.048 554.622, 613.939 542 C 614.802 529.767, 616.595 524.827, 621.190 522.026 C 626.423 518.835, 632.275 519.302, 636.542 523.250 C 641.229 527.586, 642.478 534.626, 640.924 547.933 C 636.987 581.633, 616.630 607.984, 584 621.618 C 580.975 622.881, 579.076 623.934, 579.780 623.958 C 581.847 624.026, 593.083 619.079, 598.500 615.716 C 623.069 600.462, 638.878 576.269, 642.038 549.093 C 644.463 528.231, 640.155 519.014, 627.973 519.004 C 618.934 518.996, 613.247 526.245, 613.069 538 C 612.808 555.145, 607.171 568.862, 595.632 580.429 C 584.142 591.949, 569.427 598.020, 553.090 597.983 C 535.708 597.943, 522.356 592.399, 509.886 580.044 C 496.214 566.498, 490.147 548.948, 492.932 531.002 C 496.838 505.828, 516.578 486.943, 541.675 484.372 C 552.262 483.287, 558.385 477.722, 558.385 469.183 C 558.385 462.756, 555.262 457.722, 549.961 455.601 C 545.268 453.723, 540.143 453.691, 530.500 455.477 M 835.490 563.595 C 786.416 618.346, 726.241 663.558, 665 691.691 C 650.574 698.318, 626.132 707.953, 619.703 709.547 C 618.165 709.928, 617.124 710.458, 617.390 710.723 C 618.087 711.421, 632.446 706.529, 647.506 700.463 C 680.792 687.056, 714.234 668.311, 748 644.135 C 775.029 624.782, 815.262 588.218, 838.377 562 C 849.442 549.449, 851.471 547, 850.805 547 C 850.562 547, 843.671 554.468, 835.490 563.595 M 186.928 550.899 C 190.744 556.258, 214.117 581.387, 227.366 594.375 C 240.660 607.407, 261.267 625.140, 277.240 637.292 C 313.103 664.578, 362.598 690.055, 406.774 703.970 C 414.074 706.270, 420.511 707.996, 421.077 707.808 C 421.644 707.619, 417.696 706.159, 412.304 704.563 C 375.831 693.767, 330.620 672.445, 298 650.656 C 264.189 628.071, 227.079 595.178, 198.270 562.256 C 186.159 548.417, 182.681 544.934, 186.928 550.899" stroke="none" fill="#0b327b" fill-rule="evenodd"/><path d="M 585.734 226.535 C 583.680 227.930, 582 229.287, 582 229.550 C 582 229.813, 583.778 228.852, 585.950 227.414 C 588.123 225.976, 590.485 225.035, 591.200 225.321 C 592.027 225.653, 591.856 225.871, 590.728 225.921 C 589.753 225.964, 586.831 227.912, 584.234 230.250 C 581.637 232.588, 580.171 233.600, 580.976 232.500 C 582.060 231.018, 581.735 231.128, 579.720 232.924 C 576.891 235.446, 575.871 237.182, 578.500 235 C 580.876 233.028, 580.242 235.478, 577.828 237.595 C 576.443 238.809, 575.958 238.956, 576.489 238 C 576.948 237.175, 576.125 237.591, 574.661 238.924 C 573.198 240.258, 572 241.565, 572 241.829 C 572 242.094, 572.900 241.495, 574 240.500 C 575.100 239.505, 576 239.126, 576 239.658 C 576 240.190, 574.555 241.948, 572.788 243.563 C 571.022 245.178, 570.221 245.600, 571.008 244.500 C 572.087 242.993, 571.769 243.098, 569.720 244.924 C 566.891 247.446, 565.871 249.182, 568.500 247 C 571.193 244.765, 570.075 247.585, 567.280 250.076 C 565.253 251.883, 564.930 251.991, 566.013 250.500 C 567.451 248.520, 567.443 248.519, 565.233 250.405 C 562.945 252.357, 562.210 253.606, 564 252.500 C 566.108 251.197, 564.873 253.765, 562.280 256.076 C 560.239 257.895, 559.920 258.001, 561 256.500 C 562.080 254.999, 561.761 255.105, 559.720 256.924 C 556.891 259.446, 555.871 261.182, 558.500 259 C 560.876 257.028, 560.242 259.478, 557.828 261.595 C 556.443 262.809, 555.958 262.956, 556.489 262 C 556.948 261.175, 556.125 261.591, 554.661 262.924 C 553.198 264.258, 552 265.565, 552 265.829 C 552 266.094, 552.900 265.495, 554 264.500 C 555.100 263.505, 556 263.131, 556 263.671 C 556 264.980, 551.497 269.163, 550.818 268.485 C 550.525 268.192, 549.658 268.750, 548.893 269.726 C 547.626 271.339, 547.659 271.376, 549.250 270.128 C 550.212 269.373, 551 269.190, 551 269.723 C 551 270.982, 547.491 274.157, 546.829 273.496 C 546.550 273.216, 545.461 273.995, 544.411 275.227 C 542.864 277.039, 542.833 277.207, 544.250 276.110 C 546.778 274.153, 546.407 276.333, 543.828 278.595 C 542.453 279.801, 541.966 279.950, 542.500 279 C 543.034 278.050, 542.547 278.199, 541.172 279.405 C 538.746 281.533, 538.148 282.952, 540.500 281 C 543.193 278.765, 542.075 281.585, 539.280 284.076 C 537.231 285.902, 536.913 286.007, 537.992 284.500 C 538.779 283.400, 537.978 283.822, 536.212 285.437 C 534.445 287.052, 533 288.585, 533 288.842 C 533 289.099, 533.900 288.495, 535 287.500 C 536.100 286.505, 537 286.140, 537 286.690 C 537 287.973, 533.500 291.167, 532.829 290.496 C 532.550 290.216, 531.461 290.995, 530.411 292.227 C 528.864 294.039, 528.833 294.207, 530.250 293.110 C 531.212 292.365, 532 292.190, 532 292.723 C 532 293.982, 528.491 297.157, 527.829 296.496 C 527.550 296.216, 526.461 296.995, 525.411 298.227 C 523.864 300.039, 523.833 300.207, 525.250 299.110 C 526.212 298.365, 527 298.190, 527 298.723 C 527 299.982, 523.491 303.157, 522.829 302.496 C 522.550 302.216, 521.461 303.003, 520.411 304.244 L 518.500 306.500 520.750 304.595 C 524.149 301.717, 523.447 304.201, 519.911 307.563 C 514.405 312.798, 511.753 318.385, 512.226 323.752 C 512.457 326.364, 513.027 329.361, 513.493 330.414 C 514.160 331.922, 514.038 332.146, 512.920 331.472 C 511.716 330.747, 511.705 330.869, 512.846 332.276 C 513.586 333.189, 514.711 333.838, 515.346 333.718 C 515.981 333.598, 516.393 334.046, 516.262 334.714 C 516.115 335.463, 516.657 335.685, 517.676 335.294 C 518.585 334.945, 519.071 335.075, 518.758 335.583 C 518.419 336.131, 520.979 336.299, 525.059 335.996 C 531.516 335.516, 532.192 335.228, 536.276 331.220 C 538.666 328.874, 540.860 327.193, 541.150 327.484 C 541.441 327.774, 542.539 327.005, 543.589 325.773 C 545.136 323.961, 545.167 323.793, 543.750 324.890 C 542.788 325.635, 542 325.958, 542 325.607 C 542 324.856, 554.091 310, 554.702 310 C 555.433 310, 553.762 312.357, 549.071 317.940 C 546.557 320.932, 544.984 323.092, 545.575 322.740 C 546.166 322.387, 549.519 318.589, 553.027 314.299 C 556.535 310.010, 558.414 307.357, 557.202 308.405 C 553.718 311.419, 554.643 308.701, 558.212 305.437 C 559.978 303.822, 560.823 303.288, 560.089 304.250 C 557.879 307.149, 559.425 306.221, 562.563 302.766 C 564.178 300.987, 564.487 300.381, 563.250 301.421 C 559.758 304.353, 560.600 301.740, 564.212 298.437 C 565.978 296.822, 566.779 296.400, 565.992 297.500 C 564.913 299.007, 565.231 298.902, 567.280 297.076 C 570.109 294.554, 571.129 292.818, 568.500 295 C 566.124 296.972, 566.758 294.522, 569.172 292.405 C 570.547 291.199, 571.034 291.050, 570.500 292 C 569.966 292.950, 570.453 292.801, 571.828 291.595 C 574.254 289.467, 574.852 288.048, 572.500 290 C 569.859 292.192, 570.897 289.442, 573.661 286.924 C 575.125 285.591, 575.948 285.175, 575.489 286 C 574.958 286.956, 575.443 286.809, 576.828 285.595 L 579 283.690 579.244 398.595 L 579.487 513.500 580 398 L 580.513 282.500 580.756 397.782 C 581.017 520.993, 581.166 516.926, 576.210 521.340 C 575.073 522.352, 572.243 523.607, 569.920 524.129 C 566.113 524.985, 564.962 524.729, 558.245 521.539 C 550.031 517.639, 545.080 517.104, 539.346 519.500 C 535.030 521.303, 534.674 521.336, 535.595 519.845 C 536.041 519.124, 535.869 518.963, 535.138 519.415 C 534.494 519.813, 534.182 520.486, 534.445 520.911 C 534.707 521.335, 533.365 523.193, 531.461 525.038 C 529.557 526.883, 527.986 527.967, 527.968 527.446 C 527.951 526.926, 527.276 527.374, 526.468 528.441 C 525.661 529.509, 525.016 530.859, 525.035 531.441 C 525.055 532.024, 525.714 531.375, 526.500 530 C 528.326 526.806, 528.334 527.489, 526.529 532.500 C 525.736 534.700, 525.068 535.637, 525.044 534.583 C 525.020 533.529, 524.783 532.884, 524.518 533.149 C 523.742 533.925, 526.131 546.247, 527.630 549.200 C 529.328 552.548, 529.358 553.333, 527.750 552.367 C 526.890 551.851, 526.926 552.141, 527.863 553.297 C 528.613 554.222, 529.565 554.769, 529.980 554.513 C 530.857 553.970, 533.859 557.041, 533.854 558.475 C 533.852 559.011, 534.446 559.608, 535.175 559.801 C 536.053 560.034, 535.993 559.794, 535 559.091 C 532.548 557.358, 534.852 557.857, 537.595 559.654 C 539.110 560.647, 543.016 561.494, 547.366 561.773 C 555.412 562.289, 559.838 560.715, 566.307 555.035 C 568.229 553.348, 571.770 551.612, 574.569 550.985 C 577.263 550.381, 581.445 549.012, 583.861 547.943 C 590.045 545.208, 590.517 545.668, 584.500 548.566 C 581.750 549.891, 580.080 550.980, 580.790 550.987 C 582.710 551.006, 590.287 546.954, 589.606 546.272 C 588.864 545.531, 590.906 543, 592.245 543 C 592.795 543, 592.627 543.770, 591.872 544.711 C 589.743 547.366, 596.081 542.714, 598.484 539.858 C 600.010 538.045, 599.766 538.135, 597.430 540.250 C 593.080 544.186, 591.977 543.651, 595.962 539.539 C 597.807 537.635, 599.645 536.280, 600.045 536.528 C 600.446 536.775, 601.387 536.222, 602.137 535.297 C 603.074 534.141, 603.110 533.851, 602.250 534.367 C 600.593 535.362, 600.617 535.271, 603.483 529.623 C 604.844 526.941, 606.273 523.116, 606.660 521.123 C 607.267 517.991, 607.440 517.813, 607.931 519.805 C 608.244 521.073, 608.500 468.686, 608.500 403.389 C 608.500 308.986, 608.757 284.581, 609.756 284.248 C 610.447 284.018, 610.720 283.305, 610.362 282.665 C 610.004 282.024, 611.801 283.506, 614.356 285.958 C 619.054 290.469, 620.897 293.903, 616.750 290.421 C 615.513 289.381, 615.822 289.987, 617.437 291.766 C 620.571 295.217, 622.132 296.156, 619.903 293.250 C 619.165 292.288, 619.784 292.591, 621.280 293.924 C 624.259 296.579, 625.068 299.064, 622.250 296.903 C 621.288 296.165, 621.591 296.784, 622.924 298.280 C 625.625 301.310, 626.982 301.970, 624.916 299.250 C 624.185 298.288, 625.255 299.051, 627.294 300.946 C 631.545 304.899, 632.410 307.592, 628.250 303.924 L 625.500 301.500 627.921 304.246 C 629.252 305.756, 630.571 306.763, 630.851 306.482 C 631.513 305.821, 637 311.068, 637 312.361 C 637 312.904, 635.763 312.258, 634.250 310.924 L 631.500 308.500 633.921 311.246 C 635.252 312.756, 636.561 313.773, 636.829 313.505 C 637.475 312.858, 640 314.989, 640 316.181 C 640 316.697, 639.438 316.794, 638.750 316.398 C 638.063 316.002, 638.591 316.875, 639.924 318.339 C 642.867 321.570, 644.064 321.899, 641.421 318.750 C 640.381 317.512, 640.987 317.822, 642.766 319.437 C 646.133 322.495, 647.307 325.241, 644.250 322.911 C 643.288 322.177, 643.844 323.134, 645.486 325.038 C 652.983 333.732, 655.298 335.823, 656.789 335.251 C 657.636 334.926, 658.072 335.074, 657.759 335.580 C 657.435 336.106, 660.110 336.500, 664 336.500 C 667.889 336.500, 670.565 336.106, 670.240 335.580 C 669.916 335.055, 670.481 334.970, 671.555 335.383 C 672.591 335.780, 673.128 335.794, 672.747 335.414 C 672.367 335.034, 673.168 333.400, 674.528 331.784 C 678.289 327.315, 678.998 321.440, 676.482 315.586 C 675.856 314.129, 675.976 313.867, 676.985 314.490 C 679.008 315.741, 677.371 313.333, 671.698 306.714 C 668.971 303.531, 666.497 301.170, 666.201 301.466 C 665.518 302.149, 662 299.015, 662 297.723 C 662 297.190, 662.788 297.365, 663.750 298.110 C 665.167 299.207, 665.136 299.039, 663.589 297.227 C 662.539 295.995, 661.450 295.216, 661.171 295.496 C 660.509 296.157, 657 292.982, 657 291.723 C 657 291.190, 657.788 291.365, 658.750 292.110 C 660.167 293.207, 660.136 293.039, 658.589 291.227 C 657.539 289.995, 656.450 289.216, 656.171 289.496 C 655.500 290.167, 652 286.973, 652 285.690 C 652 285.140, 653.013 285.544, 654.250 286.588 C 656.283 288.302, 656.266 288.221, 654.079 285.747 C 652.748 284.240, 651.435 283.232, 651.161 283.506 C 650.497 284.170, 647 280.962, 647 279.690 C 647 279.140, 648.013 279.544, 649.250 280.588 C 651.283 282.302, 651.266 282.221, 649.079 279.747 C 647.748 278.240, 646.435 277.232, 646.161 277.506 C 645.507 278.160, 642 274.971, 642 273.723 C 642 273.190, 642.788 273.359, 643.750 274.097 C 644.712 274.835, 644.409 274.216, 643.076 272.720 C 640.379 269.695, 639.004 269.021, 641.097 271.750 C 641.835 272.712, 641.216 272.409, 639.720 271.076 C 636.741 268.421, 635.932 265.936, 638.750 268.097 C 639.712 268.835, 639.409 268.216, 638.076 266.720 C 635.379 263.695, 634.004 263.021, 636.097 265.750 C 636.835 266.712, 636.216 266.409, 634.720 265.076 C 631.748 262.427, 630.919 259.908, 633.750 262.128 C 635.341 263.376, 635.374 263.339, 634.107 261.726 C 633.342 260.750, 632.475 260.192, 632.182 260.485 C 631.513 261.154, 627 256.989, 627 255.703 C 627 255.182, 627.788 255.365, 628.750 256.110 C 630.167 257.207, 630.136 257.039, 628.589 255.227 C 627.539 253.995, 626.450 253.216, 626.171 253.496 C 625.509 254.157, 622 250.982, 622 249.723 C 622 249.190, 622.788 249.359, 623.750 250.097 C 624.712 250.835, 624.409 250.216, 623.076 248.720 C 620.377 245.692, 619.013 245.026, 621.089 247.750 C 621.823 248.713, 620.978 248.178, 619.212 246.563 C 615.603 243.263, 614.751 240.632, 618.250 243.595 L 620.500 245.500 618.589 243.244 C 617.539 242.003, 616.450 241.216, 616.171 241.496 C 615.528 242.138, 612 239, 612 237.786 C 612 237.289, 612.563 237.220, 613.250 237.633 C 614.077 238.130, 614.029 237.803, 613.107 236.668 C 612.342 235.724, 611.483 235.184, 611.200 235.467 C 610.513 236.154, 608 234.023, 608 232.755 C 608 232.205, 608.788 232.351, 609.750 233.080 C 610.712 233.809, 609.721 232.514, 607.547 230.203 C 603.706 226.119, 602.237 224.957, 603.500 227 C 604.308 228.308, 603.896 228.266, 599.872 226.627 C 592.986 223.822, 589.757 223.801, 585.734 226.535 M 667.884 304.500 C 671.157 309.247, 675.947 314.597, 675.941 313.500 C 675.939 312.950, 673.659 310.025, 670.876 307 C 668.093 303.975, 666.746 302.850, 667.884 304.500 M 648.640 327.538 C 650.367 329.717, 652.827 332.400, 654.107 333.500 C 655.386 334.600, 654.495 333.139, 652.126 330.253 C 649.757 327.367, 647.297 324.684, 646.659 324.291 C 646.022 323.898, 646.913 325.359, 648.640 327.538 M 537.416 332.093 C 534.457 335.362, 531.968 336.403, 525.500 337.073 L 519.500 337.695 524.800 337.848 C 527.714 337.931, 531.314 337.368, 532.800 336.595 C 535.337 335.275, 540.959 330, 539.829 330 C 539.544 330, 538.458 330.942, 537.416 332.093 M 467.500 344.139 C 469.419 344.630, 467.978 344.767, 463.500 344.519 C 459.051 344.272, 457.593 344.409, 459.500 344.894 C 462.185 345.577, 461.870 345.739, 456.500 346.431 C 448.645 347.443, 428.475 351.579, 419 354.121 C 377.870 365.153, 338.132 382.243, 303.892 403.625 C 295.221 409.039, 293.318 409.912, 294.556 407.910 C 294.926 407.310, 293.378 408.045, 291.115 409.543 C 286.107 412.857, 285.617 414.018, 290.500 411 C 295.171 408.113, 294.989 409.256, 290.268 412.464 C 286.246 415.197, 284.438 415.718, 285.622 413.803 C 286.028 413.145, 284.904 413.644, 283.123 414.912 C 281.342 416.181, 280.132 417.465, 280.434 417.767 C 281.145 418.479, 279.056 421, 277.755 421 C 277.205 421, 277.351 420.212, 278.079 419.250 C 279.222 417.739, 279.205 417.678, 277.952 418.800 C 277.153 419.515, 276.500 420.603, 276.500 421.217 C 276.500 421.831, 275.875 422.542, 275.111 422.796 C 274.185 423.105, 273.986 422.831, 274.515 421.975 C 275.051 421.108, 274.912 420.936, 274.088 421.446 C 273.416 421.861, 273.118 422.451, 273.425 422.758 C 274.124 423.458, 272.081 426, 270.819 426 C 270.303 426, 270.203 425.480, 270.595 424.845 C 271.051 424.108, 270.868 423.963, 270.088 424.446 C 269.416 424.861, 269.118 425.451, 269.425 425.758 C 270.143 426.476, 268.065 429, 266.755 429 C 266.205 429, 266.351 428.212, 267.079 427.250 C 268.222 425.739, 268.205 425.678, 266.952 426.800 C 266.153 427.515, 265.500 428.603, 265.500 429.217 C 265.500 429.831, 264.875 430.542, 264.111 430.796 C 263.268 431.077, 262.996 430.815, 263.420 430.130 C 264.490 428.398, 263.417 428.788, 261.872 430.692 C 260.689 432.151, 260.707 432.265, 262 431.520 C 262.937 430.980, 262.786 431.471, 261.595 432.828 C 259.333 435.407, 257.153 435.778, 259.110 433.250 C 260.214 431.825, 260.050 431.854, 258.233 433.405 C 255.800 435.480, 255.257 436.564, 257.250 435.367 C 258.099 434.857, 258.060 435.158, 257.128 436.308 C 255.544 438.260, 253.522 438.615, 254.613 436.750 C 255.015 436.063, 254.366 436.357, 253.172 437.405 C 250.579 439.679, 250.260 440.813, 252.750 438.903 C 253.713 438.165, 253.409 438.784, 252.076 440.280 C 249.433 443.245, 246.899 444.086, 249.128 441.258 C 249.882 440.301, 248.119 441.483, 245.210 443.885 C 242.300 446.288, 240.167 448.500, 240.469 448.802 C 241.159 449.492, 236.997 454, 235.671 454 C 235.131 454, 235.547 452.998, 236.595 451.773 C 237.643 450.549, 235.238 452.395, 231.250 455.876 C 227.263 459.358, 224 462.440, 224 462.725 C 224 463.011, 224.788 462.650, 225.750 461.923 C 226.713 461.196, 225.494 462.715, 223.042 465.300 C 220.590 467.885, 218.115 469.987, 217.542 469.971 C 216.969 469.955, 217.970 468.605, 219.766 466.971 C 221.562 465.337, 222.682 464, 222.255 464 C 221.828 464, 213.608 471.979, 203.989 481.732 C 194.370 491.484, 188.412 497.693, 190.750 495.529 C 193.088 493.365, 195 492.040, 195 492.585 C 195 493.890, 185.531 503.198, 184.873 502.539 C 184.592 502.259, 182.819 503.710, 180.932 505.763 L 177.500 509.496 180.750 506.561 C 182.537 504.947, 184 504.072, 184 504.617 C 184 505.922, 177.518 512.185, 176.855 511.522 C 176.572 511.239, 175.252 512.240, 173.921 513.747 C 171.734 516.221, 171.717 516.302, 173.750 514.588 C 177.246 511.639, 176.398 514.262, 172.788 517.563 C 171.022 519.178, 170.221 519.600, 171.008 518.500 C 172.087 516.993, 171.769 517.098, 169.720 518.924 C 166.891 521.446, 165.871 523.182, 168.500 521 C 169.337 520.306, 170 520.197, 170 520.755 C 170 522.023, 167.487 524.154, 166.800 523.467 C 166.517 523.184, 165.658 523.724, 164.893 524.668 C 163.971 525.803, 163.923 526.130, 164.750 525.633 C 165.438 525.220, 166 525.303, 166 525.819 C 166 527.039, 163.468 529.135, 162.800 528.467 C 162.517 528.184, 161.658 528.724, 160.893 529.668 C 159.724 531.107, 159.722 531.250, 160.880 530.553 C 161.834 529.978, 162.117 530.150, 161.796 531.111 C 161.542 531.875, 160.831 532.500, 160.217 532.500 C 159.603 532.500, 158.515 533.153, 157.800 533.952 C 156.678 535.205, 156.739 535.222, 158.250 534.079 C 159.323 533.268, 160 533.167, 160 533.819 C 160 534.872, 158.119 536.455, 156.833 536.485 C 156.467 536.493, 155.792 536.910, 155.333 537.410 C 154.841 537.948, 155.065 537.993, 155.880 537.521 C 156.829 536.971, 157.102 537.155, 156.755 538.111 C 156.477 538.875, 155.760 539.393, 155.161 539.262 C 154.532 539.125, 154.340 539.722, 154.706 540.676 C 155.063 541.608, 154.926 542.072, 154.391 541.741 C 152.739 540.721, 154.423 552.471, 156.350 555.411 C 157.345 556.931, 157.931 558.402, 157.652 558.681 C 157.373 558.960, 156.232 557.459, 155.116 555.344 C 154.001 553.230, 153.070 551.950, 153.048 552.500 C 152.984 554.090, 157.044 560.289, 157.712 559.621 C 158.465 558.868, 161 560.890, 161 562.245 C 161 562.795, 160.213 562.627, 159.250 561.872 C 157.659 560.624, 157.626 560.661, 158.893 562.274 C 159.658 563.250, 160.522 563.811, 160.811 563.522 C 161.486 562.848, 165 565.998, 165 567.277 C 165 567.810, 164.212 567.635, 163.250 566.890 C 161.825 565.786, 161.854 565.950, 163.405 567.767 C 165.486 570.206, 166.546 570.731, 165.387 568.750 C 164.985 568.063, 165.634 568.357, 166.828 569.405 C 169.407 571.667, 169.778 573.847, 167.250 571.890 C 165.772 570.745, 165.791 570.876, 167.369 572.728 C 168.397 573.934, 169.747 574.826, 170.369 574.710 C 170.991 574.595, 171.350 575.175, 171.167 576 C 170.983 576.825, 171.172 577.162, 171.586 576.748 C 172.435 575.898, 176 578.774, 176 580.310 C 176 580.860, 174.988 580.460, 173.750 579.421 C 172.501 578.372, 172.802 578.965, 174.427 580.755 C 176.037 582.528, 177.582 583.751, 177.861 583.472 C 178.516 582.817, 185 589.082, 185 590.370 C 185 590.908, 183.762 590.266, 182.250 588.944 C 180.738 587.621, 181.733 588.892, 184.462 591.769 C 189.880 597.480, 192.158 598.987, 187.456 593.750 C 185.851 591.962, 188.017 593.864, 192.269 597.975 C 199.770 605.227, 203.298 610.333, 196.750 604.459 C 194.963 602.855, 197.541 605.696, 202.479 610.772 C 207.418 615.847, 211.679 620, 211.948 620 C 212.217 620, 209.766 617.300, 206.500 614 C 203.234 610.700, 201.011 608, 201.558 608 C 202.864 608, 216.209 621.457, 215.554 622.113 C 215.276 622.390, 217.623 625.066, 220.769 628.059 C 224.401 631.514, 225.048 631.949, 222.542 629.250 C 220.370 626.913, 219.040 625, 219.585 625 C 220.129 625, 222.808 627.339, 225.538 630.197 C 228.267 633.056, 229.600 634.761, 228.500 633.986 C 227.400 633.211, 227.822 634.022, 229.437 635.788 C 231.052 637.555, 232.585 639, 232.842 639 C 233.099 639, 232.495 638.100, 231.500 637 C 230.505 635.900, 230.131 635, 230.671 635 C 231.948 635, 236.172 639.495, 235.513 640.154 C 235.235 640.431, 236.230 641.748, 237.724 643.079 C 239.217 644.411, 239.835 644.712, 239.097 643.750 C 236.936 640.932, 239.421 641.741, 242.076 644.720 C 243.895 646.761, 244.001 647.080, 242.500 646 C 240.999 644.920, 241.105 645.239, 242.924 647.280 C 245.446 650.109, 247.182 651.129, 245 648.500 C 243.028 646.124, 245.478 646.758, 247.595 649.172 C 248.801 650.547, 248.950 651.034, 248 650.500 C 247.050 649.966, 247.199 650.453, 248.405 651.828 C 250.533 654.254, 251.952 654.852, 250 652.500 C 248.028 650.124, 250.478 650.758, 252.595 653.172 C 253.786 654.529, 253.937 655.020, 253 654.480 C 251.707 653.735, 251.689 653.849, 252.872 655.308 C 254.417 657.212, 255.490 657.602, 254.420 655.870 C 253.992 655.178, 254.260 654.936, 255.111 655.245 C 255.875 655.523, 256.402 656.213, 256.282 656.779 C 256.162 657.345, 256.837 658.414, 257.782 659.154 C 259.332 660.368, 259.366 660.329, 258.128 658.750 C 257.373 657.788, 257.205 657, 257.755 657 C 259.023 657, 261.154 659.513, 260.467 660.200 C 260.184 660.483, 260.750 661.342, 261.726 662.107 C 263.339 663.374, 263.376 663.341, 262.128 661.750 C 261.373 660.788, 261.190 660, 261.723 660 C 262.859 660, 266.576 663.915, 266.333 664.855 C 266.242 665.210, 266.426 665.725, 266.744 666 C 267.061 666.275, 266.961 665.879, 266.521 665.120 C 265.974 664.177, 266.161 663.887, 267.111 664.204 C 267.875 664.458, 268.500 665.169, 268.500 665.783 C 268.500 666.397, 269.153 667.485, 269.952 668.200 C 271.205 669.322, 271.222 669.261, 270.079 667.750 C 269.268 666.677, 269.167 666, 269.819 666 C 270.872 666, 272.455 667.881, 272.485 669.167 C 272.493 669.533, 272.910 670.208, 273.410 670.667 C 273.948 671.159, 273.993 670.935, 273.521 670.120 C 272.974 669.177, 273.161 668.887, 274.111 669.204 C 274.875 669.458, 275.500 670.154, 275.500 670.750 C 275.500 671.346, 275.910 672.208, 276.410 672.667 C 276.939 673.151, 277.019 672.976, 276.601 672.250 C 275.614 670.534, 277.101 670.682, 279.794 672.568 C 281.026 673.431, 281.794 674.525, 281.500 674.999 C 281.207 675.474, 281.494 676.187, 282.138 676.585 C 282.869 677.037, 283.041 676.876, 282.595 676.155 C 281.585 674.520, 283.160 674.724, 285.794 676.568 C 287.026 677.431, 287.794 678.525, 287.500 678.999 C 287.207 679.474, 287.494 680.187, 288.138 680.585 C 288.869 681.037, 289.041 680.876, 288.595 680.155 C 288.203 679.520, 288.090 679, 288.345 679 C 288.599 679, 294.363 682.296, 301.154 686.324 C 307.944 690.352, 317.893 696.011, 323.263 698.899 C 329.129 702.054, 332.759 704.581, 332.358 705.230 C 331.937 705.911, 332.165 706.016, 332.978 705.514 C 333.760 705.030, 337.646 706.332, 342.882 708.832 C 352.975 713.649, 371.850 721.684, 380.737 724.945 C 384.167 726.204, 386.731 727.626, 386.435 728.106 C 386.139 728.585, 386.561 728.722, 387.374 728.410 C 388.187 728.098, 394.398 729.664, 401.176 731.890 C 423.397 739.188, 452.713 745.797, 477.500 749.096 C 485.267 750.130, 486.719 750.547, 484 750.964 C 480.694 751.470, 506.516 752.342, 525 752.348 C 543.278 752.353, 570.187 751.472, 567.419 750.958 C 565.362 750.576, 567.304 750.034, 574 749.121 C 611.513 744.009, 651.025 731.084, 692.335 710.412 C 702.694 705.228, 711.651 701.285, 712.240 701.648 C 712.854 702.028, 713.019 701.840, 712.627 701.205 C 712.251 700.597, 712.827 699.628, 713.906 699.050 C 716.457 697.685, 717.291 697.720, 716.405 699.155 C 715.959 699.876, 716.131 700.037, 716.862 699.585 C 717.506 699.187, 717.804 698.492, 717.525 698.040 C 717.245 697.588, 720.275 695.297, 724.258 692.948 C 728.241 690.600, 733.936 686.951, 736.913 684.839 C 742.444 680.916, 744.680 680.023, 743.399 682.250 C 742.981 682.976, 743.061 683.151, 743.590 682.667 C 744.090 682.208, 744.500 681.346, 744.500 680.750 C 744.500 680.154, 745.125 679.458, 745.889 679.204 C 746.839 678.887, 747.026 679.177, 746.479 680.120 C 746.007 680.935, 746.052 681.159, 746.590 680.667 C 747.090 680.208, 747.500 679.346, 747.500 678.750 C 747.500 678.154, 748.125 677.458, 748.889 677.204 C 749.839 676.887, 750.026 677.177, 749.479 678.120 C 749.007 678.935, 749.052 679.159, 749.590 678.667 C 750.090 678.208, 750.500 677.346, 750.500 676.750 C 750.500 676.154, 751.125 675.458, 751.889 675.204 C 752.839 674.887, 753.026 675.177, 752.479 676.120 C 752.007 676.935, 752.052 677.159, 752.590 676.667 C 753.090 676.208, 753.500 675.346, 753.500 674.750 C 753.500 674.154, 754.125 673.458, 754.889 673.204 C 755.815 672.895, 756.014 673.169, 755.485 674.025 C 754.960 674.873, 755.088 675.063, 755.862 674.585 C 756.506 674.187, 756.795 673.477, 756.505 673.007 C 756.214 672.537, 757.289 671.219, 758.893 670.076 C 763 667.152, 764.094 667.499, 760.500 670.588 L 757.500 673.165 760.808 670.974 C 762.627 669.768, 763.868 668.535, 763.566 668.233 C 762.855 667.521, 764.944 665, 766.245 665 C 766.795 665, 766.635 665.788, 765.890 666.750 C 764.786 668.175, 764.950 668.146, 766.767 666.595 C 769.200 664.520, 769.743 663.436, 767.750 664.633 C 766.901 665.143, 766.940 664.842, 767.872 663.692 C 769.456 661.739, 771.471 661.387, 770.399 663.250 C 769.981 663.976, 770.061 664.151, 770.590 663.667 C 771.090 663.208, 771.507 662.533, 771.515 662.167 C 771.545 660.881, 773.128 659, 774.181 659 C 774.815 659, 774.690 659.707, 773.872 660.750 C 772.624 662.341, 772.661 662.374, 774.274 661.107 C 775.250 660.342, 775.816 659.483, 775.533 659.200 C 774.846 658.513, 776.977 656, 778.245 656 C 778.795 656, 778.627 656.776, 777.872 657.724 C 777.118 658.672, 778.649 657.709, 781.275 655.583 C 783.902 653.457, 785.818 651.485, 785.534 651.201 C 784.847 650.513, 786.975 648, 788.245 648 C 788.795 648, 788.635 648.788, 787.890 649.750 C 786.786 651.175, 786.950 651.146, 788.767 649.595 C 791.206 647.514, 791.731 646.454, 789.750 647.613 C 789.063 648.015, 789.357 647.366, 790.405 646.172 C 792.668 643.592, 794.839 643.225, 792.903 645.750 C 792.165 646.712, 792.783 646.411, 794.276 645.079 C 795.770 643.748, 796.768 642.435, 796.494 642.161 C 795.840 641.507, 799.029 638, 800.277 638 C 800.810 638, 800.641 638.787, 799.903 639.750 C 799.165 640.712, 799.783 640.411, 801.276 639.079 C 802.770 637.748, 803.763 636.429, 803.482 636.149 C 802.821 635.487, 808.068 630, 809.361 630 C 809.904 630, 809.265 631.237, 807.941 632.750 C 806.617 634.263, 807.664 633.494, 810.267 631.042 C 815.350 626.254, 816.791 624.085, 812.250 628.056 C 810.737 629.379, 811.733 628.108, 814.462 625.231 C 819.558 619.859, 823.251 617.818, 818.951 622.750 C 817.632 624.263, 820.028 622.136, 824.276 618.025 C 828.524 613.914, 832 610.329, 832 610.059 C 832 609.789, 829.413 612.025, 826.250 615.028 C 823.087 618.031, 824.518 616.351, 829.428 611.295 C 834.339 606.239, 838.796 602.374, 839.333 602.706 C 839.870 603.038, 840.035 602.865, 839.699 602.323 C 839.364 601.780, 841.431 599.123, 844.291 596.418 C 848.745 592.208, 848.925 592.112, 845.544 595.750 C 838.764 603.046, 842.170 600.393, 850.025 592.261 C 854.136 588.004, 855.587 586.295, 853.250 588.464 C 845.996 595.192, 848.588 590.844, 856.225 583.473 C 860.198 579.638, 862.340 577.850, 860.984 579.500 C 858.735 582.237, 858.847 582.198, 862.259 579.054 C 865.896 575.703, 867.513 573.499, 864.500 576 C 863.675 576.685, 863 576.810, 863 576.277 C 863 575.036, 866.505 571.838, 867.154 572.487 C 867.425 572.758, 868.963 571.564, 870.573 569.835 C 872.183 568.106, 872.938 567.012, 872.250 567.404 C 871.562 567.797, 871 567.697, 871 567.181 C 871 565.979, 873.527 563.861, 874.181 564.515 C 874.455 564.788, 875.539 564.005, 876.589 562.773 C 878.136 560.961, 878.167 560.793, 876.750 561.890 C 874.222 563.847, 874.593 561.667, 877.172 559.405 C 878.366 558.357, 879.015 558.063, 878.613 558.750 C 877.551 560.566, 878.527 560.281, 880.128 558.308 C 881.060 557.158, 881.099 556.857, 880.250 557.367 C 878.510 558.412, 878.677 557.661, 881.097 553.561 C 883.249 549.913, 883.440 542.951, 881.507 538.586 C 880.843 537.084, 880.966 536.850, 882.080 537.496 C 882.922 537.985, 883.161 537.950, 882.667 537.410 C 882.208 536.910, 881.346 536.500, 880.750 536.500 C 880.154 536.500, 879.458 535.875, 879.204 535.111 C 878.883 534.150, 879.166 533.978, 880.120 534.553 C 881.291 535.258, 881.292 535.128, 880.128 533.692 C 878.529 531.721, 877.538 531.428, 878.633 533.250 C 879.143 534.099, 878.842 534.060, 877.692 533.128 C 875.742 531.546, 875.381 529.510, 877.250 530.633 C 878.099 531.143, 878.060 530.842, 877.128 529.692 C 875.529 527.721, 874.538 527.428, 875.633 529.250 C 876.143 530.099, 875.842 530.060, 874.692 529.128 C 872.740 527.544, 872.385 525.522, 874.250 526.613 C 874.938 527.015, 874.640 526.364, 873.589 525.166 C 872.539 523.968, 871.450 523.216, 871.171 523.496 C 870.509 524.157, 867 520.982, 867 519.723 C 867 519.190, 867.788 519.365, 868.750 520.110 C 870.167 521.207, 870.136 521.039, 868.589 519.227 C 867.539 517.995, 866.450 517.216, 866.171 517.496 C 865.509 518.157, 862 514.982, 862 513.723 C 862 513.190, 862.788 513.356, 863.750 514.089 C 864.712 514.823, 864.183 513.983, 862.573 512.222 C 860.963 510.461, 859.419 509.247, 859.142 509.524 C 858.491 510.175, 853 504.931, 853 503.658 C 853 503.126, 854.013 503.534, 855.250 504.567 C 856.487 505.599, 855.494 504.318, 853.042 501.722 C 848.031 496.414, 846.020 495.222, 850.561 500.250 L 853.496 503.500 849.787 500.092 C 847.747 498.217, 846.355 496.235, 846.693 495.687 C 847.032 495.139, 846.855 494.972, 846.300 495.315 C 845.745 495.658, 844.247 494.827, 842.971 493.469 C 841.695 492.111, 841.010 491, 841.448 491 C 841.886 491, 841.689 490.330, 841.009 489.511 C 840.329 488.692, 839.443 488.226, 839.040 488.475 C 838.168 489.014, 832.752 483.581, 833.458 482.876 C 833.725 482.609, 830.710 479.265, 826.758 475.445 C 822.807 471.625, 820.414 469.512, 821.442 470.750 C 824.757 474.743, 821.535 473.138, 817.453 468.764 C 814.622 465.730, 814.351 465.229, 816.500 467 C 818.649 468.771, 818.378 468.270, 815.547 465.236 C 813.373 462.906, 811.391 461, 811.142 461 C 810.893 461, 811.505 461.900, 812.500 463 C 813.495 464.100, 813.874 465, 813.342 465 C 812.810 465, 811.052 463.555, 809.437 461.788 C 807.822 460.022, 807.288 459.177, 808.250 459.911 C 811.149 462.121, 810.221 460.575, 806.766 457.437 C 804.987 455.822, 804.381 455.512, 805.421 456.750 C 806.460 457.988, 806.860 459, 806.310 459 C 804.990 459, 801.842 455.491, 802.538 454.795 C 802.836 454.497, 800.700 452.288, 797.790 449.885 C 794.881 447.483, 793.118 446.301, 793.872 447.258 C 796.101 450.086, 793.567 449.245, 790.924 446.280 C 789.117 444.253, 789.009 443.930, 790.500 445.013 C 792.480 446.451, 792.481 446.443, 790.595 444.233 C 788.643 441.945, 787.394 441.210, 788.500 443 C 789.544 444.689, 787.331 444.106, 785.872 442.308 C 784.940 441.158, 784.901 440.857, 785.750 441.367 C 787.572 442.462, 787.279 441.471, 785.308 439.872 C 784.158 438.940, 783.857 438.901, 784.367 439.750 C 785.769 442.084, 783.514 440.983, 779.500 437.374 L 775.500 433.777 779.250 436.439 C 784.319 440.038, 784.011 438.968, 778.788 434.834 C 776.471 433, 774.959 432.121, 775.427 432.880 C 776.023 433.845, 775.862 434.108, 774.889 433.755 C 774.125 433.477, 773.604 432.769, 773.732 432.180 C 773.859 431.592, 772.509 430.148, 770.732 428.972 L 767.500 426.835 770.500 429.412 C 772.150 430.830, 773.050 431.980, 772.500 431.968 C 771.950 431.956, 769.925 430.570, 768 428.889 C 766.075 427.207, 765.063 426.121, 765.750 426.475 C 767.543 427.398, 767.291 426.481, 765.308 424.872 C 763.872 423.708, 763.742 423.709, 764.447 424.880 C 765.022 425.834, 764.850 426.117, 763.889 425.796 C 763.125 425.542, 762.500 424.846, 762.500 424.250 C 762.500 423.654, 762.090 422.792, 761.590 422.333 C 761.061 421.849, 760.981 422.024, 761.399 422.750 C 762.534 424.724, 761.308 424.238, 756.741 420.904 C 754.409 419.201, 752.624 417.368, 752.775 416.830 C 752.926 416.292, 752.598 416.131, 752.045 416.472 C 750.730 417.285, 746.783 415.160, 747.488 414.019 C 747.788 413.535, 747.506 412.813, 746.862 412.415 C 746.088 411.937, 745.960 412.127, 746.485 412.975 C 747.014 413.831, 746.815 414.105, 745.889 413.796 C 745.125 413.542, 744.500 412.846, 744.500 412.250 C 744.500 411.654, 744.090 410.792, 743.590 410.333 C 743.052 409.841, 743.007 410.065, 743.479 410.880 C 744.026 411.823, 743.839 412.113, 742.889 411.796 C 742.125 411.542, 741.500 410.846, 741.500 410.250 C 741.500 409.654, 741.090 408.792, 740.590 408.333 C 740.061 407.849, 739.981 408.024, 740.399 408.750 C 741.517 410.692, 740.743 410.353, 731.590 404.883 C 726.781 402.009, 723.308 399.310, 723.668 398.728 C 724.027 398.148, 723.827 397.989, 723.215 398.367 C 721.819 399.230, 696.804 386.126, 697.548 384.922 C 697.854 384.427, 697.332 384.319, 696.388 384.681 C 695.231 385.125, 694.905 384.962, 695.388 384.181 C 695.870 383.401, 695.544 383.238, 694.388 383.681 C 693.363 384.074, 692.919 383.939, 693.286 383.346 C 693.626 382.796, 692.918 382.385, 691.700 382.426 C 690.481 382.467, 689.606 381.958, 689.738 381.286 C 689.869 380.617, 689.351 380.312, 688.585 380.606 C 687.820 380.899, 685.275 380.160, 682.929 378.964 C 680.583 377.767, 674.352 375.004, 669.082 372.823 C 663.812 370.642, 660.850 369.121, 662.500 369.442 C 664.978 369.926, 665.185 369.836, 663.687 368.929 C 661.576 367.650, 653.346 369.264, 650.331 371.548 C 647.756 373.501, 646.498 373.332, 648.110 371.250 C 649.122 369.943, 648.877 370.004, 647.140 371.489 C 645.861 372.583, 644.376 374.383, 643.840 375.489 C 643.145 376.923, 643.452 376.783, 644.911 375 C 647.377 371.985, 647.660 373.064, 645.333 376.614 C 644.417 378.013, 643.667 381.112, 643.667 383.500 C 643.667 385.888, 644.417 388.987, 645.333 390.386 C 647.479 393.660, 647.450 394.567, 645.250 392.992 C 644.288 392.303, 644.970 393.148, 646.766 394.870 C 648.562 396.591, 650.587 397.982, 651.266 397.960 C 651.945 397.938, 651.223 397.228, 649.662 396.382 C 648.100 395.536, 647.077 394.590, 647.387 394.279 C 647.698 393.969, 648.525 394.178, 649.226 394.744 C 649.927 395.310, 656.125 398.097, 663 400.938 C 679.626 407.807, 700.568 418.519, 700.225 419.979 C 700.074 420.622, 700.396 420.873, 700.941 420.537 C 702.264 419.719, 710.223 423.831, 709.519 424.969 C 709.216 425.460, 709.494 426.187, 710.138 426.585 C 710.869 427.037, 711.041 426.876, 710.595 426.155 C 709.511 424.400, 710.714 424.748, 715.572 427.595 C 718.008 429.022, 719.768 430.566, 719.484 431.026 C 719.200 431.486, 719.494 432.187, 720.138 432.585 C 720.869 433.037, 721.041 432.876, 720.595 432.155 C 719.489 430.364, 720.562 430.749, 725.989 434.088 C 728.750 435.787, 730.774 437.556, 730.488 438.019 C 730.202 438.483, 730.494 439.187, 731.138 439.585 C 731.912 440.063, 732.040 439.873, 731.515 439.025 C 730.986 438.169, 731.185 437.895, 732.111 438.204 C 732.875 438.458, 733.500 439.154, 733.500 439.750 C 733.500 440.346, 733.910 441.208, 734.410 441.667 C 734.948 442.159, 734.993 441.935, 734.521 441.120 C 733.974 440.177, 734.161 439.887, 735.111 440.204 C 735.875 440.458, 736.500 441.154, 736.500 441.750 C 736.500 442.346, 736.910 443.208, 737.410 443.667 C 737.948 444.159, 737.993 443.935, 737.521 443.120 C 736.971 442.171, 737.155 441.898, 738.111 442.245 C 738.875 442.523, 739.402 443.213, 739.282 443.779 C 739.162 444.345, 739.837 445.414, 740.782 446.154 C 742.332 447.368, 742.366 447.329, 741.128 445.750 C 740.310 444.707, 740.185 444, 740.819 444 C 741.872 444, 743.455 445.881, 743.485 447.167 C 743.493 447.533, 743.910 448.208, 744.410 448.667 C 744.939 449.151, 745.019 448.976, 744.601 448.250 C 743.529 446.387, 745.544 446.739, 747.128 448.692 C 748.060 449.842, 748.099 450.143, 747.250 449.633 C 745.428 448.538, 745.721 449.529, 747.692 451.128 C 748.842 452.060, 749.143 452.099, 748.633 451.250 C 747.510 449.381, 749.546 449.742, 751.128 451.692 C 752.296 453.133, 752.292 453.258, 751.095 452.537 C 750.135 451.959, 749.920 452.061, 750.415 452.862 C 750.813 453.506, 751.544 453.782, 752.041 453.475 C 753.191 452.764, 758.144 455.958, 757.502 456.996 C 757.238 457.424, 757.805 458.387, 758.761 459.137 C 760.335 460.370, 760.370 460.334, 759.128 458.750 C 757.143 456.219, 759.334 456.594, 761.595 459.172 C 762.801 460.547, 762.950 461.034, 762 460.500 C 761.050 459.966, 761.199 460.453, 762.405 461.828 C 764.533 464.254, 765.952 464.852, 764 462.500 C 763.306 461.663, 763.197 461, 763.755 461 C 765.023 461, 767.154 463.513, 766.467 464.200 C 766.184 464.483, 766.750 465.342, 767.726 466.107 C 769.339 467.374, 769.376 467.341, 768.128 465.750 C 766.143 463.219, 768.334 463.594, 770.595 466.172 C 771.801 467.547, 771.950 468.034, 771 467.500 C 770.050 466.966, 770.199 467.453, 771.405 468.828 C 773.533 471.254, 774.952 471.852, 773 469.500 C 772.315 468.675, 772.037 468, 772.381 468 C 773.184 468, 790 482.069, 790 482.740 C 790 483.360, 788.155 481.951, 780.750 475.675 C 777.587 472.995, 775 471.022, 775 471.290 C 775 471.558, 779.612 475.722, 785.250 480.543 C 790.888 485.365, 794.178 487.890, 792.563 486.155 C 790.948 484.420, 790.064 483, 790.601 483 C 791.137 483, 793.808 485.349, 796.538 488.219 C 799.267 491.090, 800.487 492.595, 799.250 491.564 C 795.838 488.722, 796.560 490.224, 800.212 493.563 C 801.978 495.178, 802.823 495.712, 802.089 494.750 C 801.356 493.788, 801.172 493, 801.681 493 C 802.907 493, 809.174 499.493, 808.550 500.116 C 808.284 500.383, 812.776 505.295, 818.533 511.033 C 824.290 516.770, 829 521.043, 829 520.529 C 829 520.015, 830.800 521.352, 833 523.500 C 837.494 527.888, 838.508 530.672, 834.250 526.934 C 832.448 525.352, 832.684 525.804, 834.932 528.245 C 836.819 530.294, 838.586 531.748, 838.857 531.476 C 839.498 530.835, 844 535.055, 844 536.297 C 844 536.818, 843.212 536.635, 842.250 535.890 C 840.794 534.762, 840.816 534.906, 842.384 536.744 C 843.420 537.959, 844.634 538.726, 845.083 538.449 C 846.213 537.750, 850.337 543.531, 850.524 546.077 C 850.616 547.325, 848.881 550.038, 846.204 552.831 C 843.744 555.399, 842.536 556.487, 843.520 555.250 C 846.191 551.892, 844.800 552.534, 841.437 556.212 C 839.822 557.978, 839.288 558.823, 840.250 558.089 C 841.212 557.356, 842 557.182, 842 557.703 C 842 558.925, 837.503 563.170, 836.875 562.542 C 836.309 561.976, 805.919 593.567, 805.927 594.713 C 805.935 595.864, 796.750 605, 795.585 605 C 795.040 605, 796.371 603.087, 798.544 600.750 C 801.849 597.193, 801.638 597.309, 797.247 601.462 C 792.022 606.404, 790.419 608.445, 793.750 605.916 C 794.712 605.185, 793.949 606.255, 792.054 608.294 C 788.098 612.548, 785.421 613.404, 789.062 609.250 C 790.388 607.737, 789.566 608.279, 787.236 610.453 C 782.771 614.619, 781.422 616.635, 785.250 613.421 C 786.487 612.381, 786.178 612.987, 784.563 614.766 C 781.507 618.131, 778.749 619.312, 781.097 616.250 C 781.835 615.288, 781.216 615.591, 779.720 616.924 C 776.700 619.616, 776.012 621.010, 778.750 618.890 C 780.175 617.786, 780.146 617.950, 778.595 619.767 C 776.580 622.129, 774.350 622.872, 775.645 620.750 C 776.065 620.063, 774.066 621.454, 771.204 623.843 C 766.275 627.957, 764.502 629.994, 767.250 628.387 C 767.938 627.985, 767.643 628.634, 766.595 629.828 C 764.333 632.407, 762.153 632.778, 764.110 630.250 C 765.207 628.833, 765.039 628.864, 763.227 630.411 C 761.995 631.461, 761.216 632.550, 761.496 632.829 C 762.167 633.500, 758.973 637, 757.690 637 C 757.140 637, 757.547 635.987, 758.595 634.750 L 760.500 632.500 758.290 634.369 C 757.074 635.397, 756.174 636.588, 756.290 637.015 C 756.553 637.986, 747.041 645.374, 746.379 644.712 C 746.113 644.446, 747.443 643.271, 749.335 642.102 C 751.227 640.933, 753.388 639.230, 754.138 638.319 C 754.887 637.408, 753.137 638.356, 750.249 640.426 C 747.361 642.495, 745.204 644.521, 745.456 644.928 C 745.707 645.335, 743.254 647.543, 740.005 649.834 C 733.933 654.116, 732.351 654.859, 733.595 652.845 C 734.041 652.124, 733.869 651.963, 733.138 652.415 C 732.494 652.813, 732.185 653.491, 732.452 653.922 C 732.718 654.352, 730.813 656.058, 728.218 657.712 C 710.900 668.749, 710.247 669.104, 711.601 666.750 C 712.019 666.024, 711.939 665.849, 711.410 666.333 C 710.910 666.792, 710.500 667.597, 710.500 668.122 C 710.500 670.676, 670.594 691.163, 647.506 700.463 C 633.104 706.263, 618.095 711.428, 617.466 710.800 C 617.243 710.576, 620.907 709.140, 625.609 707.609 C 630.311 706.077, 633.977 704.644, 633.757 704.424 C 633.536 704.203, 628.893 705.519, 623.438 707.348 C 617.982 709.177, 614.190 710.899, 615.010 711.176 C 617.174 711.906, 588.173 718.788, 574.858 720.704 C 567.201 721.806, 556.494 722.345, 542 722.358 C 519.726 722.380, 509.770 721.290, 493.006 716.995 C 483.202 714.484, 466.434 707.574, 466.738 706.170 C 466.876 705.533, 466.283 705.338, 465.324 705.706 C 464.223 706.128, 463.911 705.953, 464.388 705.181 C 464.830 704.466, 464.595 704.218, 463.771 704.534 C 462.098 705.176, 450.793 699.144, 451.507 697.989 C 451.796 697.521, 451.506 696.813, 450.862 696.415 C 450.131 695.963, 449.959 696.124, 450.405 696.845 C 450.797 697.480, 450.753 698, 450.306 698 C 449.012 698, 439.500 690.985, 439.500 690.031 C 439.500 689.555, 439.090 688.792, 438.590 688.333 C 438.061 687.849, 437.981 688.024, 438.399 688.750 C 439.778 691.146, 437.469 689.912, 433 685.864 L 428.500 681.789 432.750 684.978 C 438.659 689.413, 438.067 688.203, 431.750 682.934 C 428.863 680.526, 427.118 679.330, 427.872 680.278 C 428.627 681.225, 428.810 682, 428.277 682 C 427.058 682, 423.833 678.501, 424.467 677.866 C 424.726 677.607, 421.027 673.593, 416.247 668.947 C 411.467 664.301, 408.661 661.850, 410.011 663.500 C 411.405 665.203, 410.421 664.573, 407.733 662.042 C 402.746 657.344, 401.032 653.916, 405.750 658.076 L 408.500 660.500 406.079 657.754 C 404.748 656.244, 403.439 655.227, 403.171 655.495 C 402.506 656.160, 400 653.995, 400 652.755 C 400 652.205, 400.788 652.365, 401.750 653.110 C 403.175 654.214, 403.146 654.050, 401.595 652.233 C 399.520 649.800, 398.436 649.257, 399.633 651.250 C 400.143 652.099, 399.842 652.060, 398.692 651.128 C 396.739 649.544, 396.387 647.529, 398.250 648.601 C 398.976 649.019, 399.151 648.939, 398.667 648.410 C 398.208 647.910, 397.346 647.500, 396.750 647.500 C 396.154 647.500, 395.458 646.875, 395.204 646.111 C 394.883 645.150, 395.166 644.978, 396.120 645.553 C 397.291 646.258, 397.292 646.128, 396.128 644.692 C 394.572 642.775, 393.513 642.403, 394.595 644.155 C 395.035 644.866, 394.870 645.038, 394.166 644.603 C 392.122 643.339, 387.825 635.092, 388.577 633.875 C 389.027 633.147, 388.881 632.956, 388.197 633.378 C 386.822 634.228, 383.637 628.396, 384.614 626.816 C 385.044 626.120, 384.858 625.970, 384.125 626.422 C 381.694 627.925, 370.871 600.901, 366.507 582.433 C 362.562 565.738, 361.740 556.423, 362.243 534.121 C 362.639 516.569, 363.112 511.640, 365.424 501 C 369.664 481.486, 379.295 455.155, 381.965 455.775 C 382.616 455.926, 382.874 455.605, 382.538 455.062 C 381.720 453.737, 386.829 443.776, 387.967 444.479 C 388.459 444.784, 389.187 444.506, 389.585 443.862 C 390.063 443.088, 389.873 442.960, 389.025 443.485 C 388.169 444.014, 387.895 443.815, 388.204 442.889 C 388.458 442.125, 389.154 441.500, 389.750 441.500 C 390.346 441.500, 391.208 441.090, 391.667 440.590 C 392.151 440.061, 391.976 439.981, 391.250 440.399 C 389.534 441.386, 389.682 439.899, 391.568 437.206 C 392.431 435.974, 393.525 435.206, 393.999 435.500 C 394.474 435.793, 395.187 435.506, 395.585 434.862 C 396.037 434.131, 395.876 433.959, 395.155 434.405 C 393.352 435.518, 393.800 433.407, 395.692 431.872 C 397.151 430.689, 397.266 430.707, 396.532 432 C 396.032 432.880, 396.050 433.161, 396.577 432.679 C 397.071 432.228, 397.480 431.104, 397.487 430.182 C 397.494 429.260, 398.025 428.504, 398.667 428.503 C 399.308 428.501, 400.208 428.090, 400.667 427.590 C 401.151 427.061, 400.976 426.981, 400.250 427.399 C 399.563 427.794, 399 427.697, 399 427.181 C 399 425.976, 401.528 423.861, 402.184 424.518 C 402.459 424.793, 405.075 422.270, 407.996 418.911 C 410.917 415.552, 417.176 409.422, 421.904 405.289 C 426.632 401.156, 430.500 397.300, 430.500 396.720 C 430.500 396.141, 431.125 395.458, 431.889 395.204 C 432.815 394.895, 433.014 395.169, 432.485 396.025 C 431.960 396.873, 432.088 397.063, 432.862 396.585 C 433.506 396.187, 433.805 395.493, 433.526 395.042 C 432.799 393.866, 444.130 386.727, 453.500 382.459 C 464.939 377.248, 469.531 375.844, 472.614 376.618 C 474.448 377.078, 475.083 376.944, 474.619 376.193 C 473.638 374.605, 481.256 372.787, 485.765 373.532 C 488.717 374.020, 489.186 373.906, 488 372.988 C 486.754 372.023, 486.875 371.909, 488.716 372.311 C 489.935 372.577, 490.835 372.335, 490.716 371.772 C 490.597 371.210, 491.125 370.523, 491.889 370.245 C 492.795 369.916, 493.014 370.169, 492.519 370.970 C 491.933 371.917, 492.228 371.949, 493.802 371.106 C 496.122 369.864, 500 365.241, 500 363.717 C 500 363.160, 498.988 364.199, 497.750 366.025 C 496.512 367.851, 494.825 369.552, 494 369.805 C 493.175 370.057, 493.850 368.825, 495.500 367.066 C 498.071 364.327, 498.488 363.128, 498.419 358.685 C 498.297 350.930, 497.557 348.102, 495.021 345.686 C 493.758 344.484, 493.038 344.063, 493.421 344.750 C 494.240 346.218, 493.522 346.339, 491.184 345.126 C 490.258 344.646, 483.875 344.054, 477 343.812 C 470.125 343.570, 465.850 343.717, 467.500 344.139 M 498.475 350.851 C 498.897 351.594, 499.616 354.519, 500.072 357.351 L 500.901 362.500 500.592 357.191 C 500.421 354.271, 499.703 351.346, 498.994 350.691 C 497.985 349.757, 497.872 349.792, 498.475 350.851 M 333.750 384.563 C 330.038 386.469, 327 388.252, 327 388.526 C 327 388.973, 340.900 382.316, 341.917 381.383 C 343.284 380.126, 339.594 381.564, 333.750 384.563 M 393.137 390.546 C 386.039 392.808, 381.865 394.904, 387 393.626 C 388.375 393.284, 387.700 393.870, 385.500 394.928 C 380.823 397.177, 378.362 397.579, 382 395.500 C 386.722 392.801, 382.949 394.008, 370.810 399.079 C 355.435 405.503, 338.006 414.227, 325.908 421.556 C 320.734 424.690, 315.038 428.142, 313.251 429.225 C 311.465 430.309, 310.235 431.571, 310.518 432.029 C 310.801 432.487, 310.506 433.187, 309.862 433.585 C 309.131 434.037, 308.959 433.876, 309.405 433.155 C 309.797 432.520, 309.721 432, 309.235 432 C 307.851 432, 298.500 438.898, 298.500 439.919 C 298.500 440.422, 298.090 441.208, 297.590 441.667 C 297.052 442.159, 297.007 441.935, 297.479 441.120 C 298.026 440.177, 297.839 439.887, 296.889 440.204 C 296.125 440.458, 295.500 441.154, 295.500 441.750 C 295.500 442.346, 295.090 443.208, 294.590 443.667 C 294.061 444.151, 293.981 443.976, 294.399 443.250 C 295.471 441.387, 293.456 441.739, 291.872 443.692 C 290.689 445.151, 290.706 445.262, 292 444.500 C 293.294 443.738, 293.311 443.849, 292.128 445.308 C 290.642 447.140, 289.494 447.628, 290.500 446 C 291.544 444.311, 289.331 444.894, 287.872 446.692 C 286.689 448.151, 286.706 448.262, 288 447.500 C 289.294 446.738, 289.311 446.849, 288.128 448.308 C 286.642 450.140, 285.494 450.628, 286.500 449 C 287.544 447.311, 285.331 447.894, 283.872 449.692 C 282.689 451.151, 282.706 451.262, 284 450.500 C 285.294 449.738, 285.311 449.849, 284.128 451.308 C 282.583 453.212, 281.510 453.602, 282.580 451.870 C 283.008 451.178, 282.740 450.936, 281.889 451.245 C 281.125 451.523, 280.598 452.213, 280.718 452.779 C 280.838 453.345, 280.163 454.414, 279.218 455.154 C 277.668 456.368, 277.634 456.329, 278.872 454.750 C 280.857 452.219, 278.666 452.594, 276.405 455.172 C 275.199 456.547, 275.050 457.034, 276 456.500 C 276.950 455.966, 276.801 456.453, 275.595 457.828 C 273.467 460.254, 272.048 460.852, 274 458.500 C 276.235 455.807, 273.415 456.925, 270.924 459.720 C 269.117 461.747, 269.009 462.070, 270.500 460.987 C 272.480 459.549, 272.481 459.557, 270.595 461.767 C 268.643 464.055, 267.394 464.790, 268.500 463 C 270.127 460.368, 266.705 462.721, 258.500 469.878 C 253.550 474.196, 249.590 478.173, 249.701 478.716 C 249.811 479.259, 248.237 481.233, 246.203 483.102 L 242.504 486.500 245.439 483.250 C 247.053 481.462, 247.888 480, 247.294 480 C 245.892 480, 202 524.843, 202 526.274 C 202 526.872, 205.190 524.018, 209.088 519.931 L 216.176 512.500 208.946 520.750 C 202.169 528.481, 199.873 530.680, 201.633 527.750 C 202.118 526.942, 201.769 526.999, 200.646 527.910 C 199.691 528.686, 199.124 529.881, 199.387 530.566 C 199.650 531.251, 198.883 532.642, 197.683 533.656 L 195.500 535.500 197.479 533 C 198.696 531.462, 198.022 531.826, 195.729 533.946 C 192.148 537.256, 190.648 539.930, 193.250 538.367 C 194.099 537.857, 194.060 538.158, 193.128 539.308 C 191.518 541.292, 190.611 541.540, 191.509 539.750 C 191.855 539.063, 190.807 539.997, 189.182 541.826 C 187.178 544.082, 186.402 545.822, 186.771 547.233 C 187.188 548.829, 186.988 549.115, 185.908 548.462 C 185.133 547.994, 185.706 549.161, 187.179 551.055 C 188.653 552.950, 190.274 554.410, 190.781 554.299 C 191.288 554.189, 193.233 555.763, 195.102 557.797 L 198.500 561.496 195.250 558.561 C 193.463 556.947, 192 555.990, 192 556.435 C 192 557.591, 214.304 581.801, 215.469 581.910 C 216.001 581.959, 213.970 579.413, 210.954 576.250 C 204.496 569.477, 197.402 561.392, 201.083 565 C 202.486 566.375, 212.143 576.275, 222.542 587 C 232.942 597.725, 238.146 603.350, 234.108 599.500 C 230.070 595.650, 226.931 593.031, 227.133 593.680 C 227.868 596.041, 261.536 626, 263.456 626 C 263.820 626, 263.789 625.438, 263.387 624.750 C 262.985 624.063, 263.634 624.357, 264.828 625.405 C 267.421 627.679, 267.740 628.813, 265.250 626.903 C 264.288 626.165, 264.591 626.784, 265.924 628.280 C 268.577 631.256, 271.076 632.073, 268.890 629.250 C 267.786 627.825, 267.950 627.854, 269.767 629.405 C 272.225 631.502, 272.695 632.485, 270.750 631.459 C 270.063 631.097, 271.300 632.403, 273.500 634.363 C 275.700 636.322, 277.933 637.942, 278.462 637.962 C 278.991 637.983, 277.866 636.618, 275.962 634.928 L 272.500 631.856 276.277 634.567 C 278.355 636.059, 279.821 637.512, 279.536 637.797 C 278.847 638.486, 280.974 641, 282.245 641 C 282.795 641, 282.627 640.212, 281.872 639.250 C 280.630 637.666, 280.665 637.630, 282.239 638.863 C 283.195 639.613, 283.772 640.560, 283.521 640.967 C 283 641.809, 291.876 648.457, 292.581 647.752 C 292.834 647.499, 291.232 646.095, 289.020 644.632 C 286.809 643.169, 285 641.731, 285 641.438 C 285 641.144, 287.034 642.304, 289.521 644.014 C 292.007 645.725, 293.813 647.494, 293.534 647.945 C 293.054 648.722, 307.774 659, 309.367 659 C 309.780 659, 309.794 658.438, 309.399 657.750 C 308.981 657.024, 309.061 656.849, 309.590 657.333 C 310.090 657.792, 310.500 658.576, 310.500 659.077 C 310.500 660.479, 335.164 674.151, 336.659 673.577 C 337.383 673.299, 337.869 673.618, 337.738 674.286 C 337.606 674.958, 338.481 675.467, 339.700 675.426 C 340.910 675.385, 341.672 675.722, 341.392 676.175 C 341.112 676.628, 346.647 679.725, 353.692 683.059 C 379.890 695.456, 417.773 708.890, 422.249 707.372 C 423.487 706.952, 425.108 706.726, 425.850 706.871 C 426.647 707.026, 426.908 706.661, 426.487 705.980 C 426.095 705.345, 424.924 705.048, 423.886 705.320 C 422.847 705.591, 422.218 705.456, 422.488 705.019 C 422.918 704.324, 415.399 698.021, 409.535 694.160 C 407.263 692.665, 411.547 696.745, 417.567 701.809 C 419.730 703.629, 418.780 703.111, 415.455 700.658 C 409.258 696.086, 406.096 693, 407.608 693 C 408.077 693, 404.226 688.748, 399.051 683.552 C 393.876 678.355, 389.342 674.289, 388.974 674.516 C 388.607 674.743, 387 673.489, 385.403 671.730 C 383.750 669.909, 383.469 669.345, 384.750 670.421 C 387.928 673.089, 387.561 670.860, 384.339 667.924 C 382.875 666.591, 382.002 666.063, 382.398 666.750 C 383.443 668.563, 382.474 668.283, 380.872 666.308 C 379.708 664.872, 379.709 664.742, 380.880 665.447 C 381.839 666.025, 382.106 665.855, 381.755 664.889 C 381.477 664.125, 380.787 663.598, 380.221 663.718 C 379.655 663.838, 378.586 663.163, 377.846 662.218 C 376.632 660.668, 376.671 660.634, 378.250 661.872 C 379.212 662.627, 380 662.795, 380 662.245 C 380 660.944, 377.479 658.855, 376.767 659.566 C 376.285 660.049, 373.728 656.920, 371.605 653.250 C 369.895 650.293, 372.039 652.327, 374.033 655.553 C 375.240 657.507, 376.436 658.898, 376.689 658.644 C 377.435 657.898, 371.834 649.985, 370.947 650.533 C 370.502 650.808, 369.813 650.506, 369.415 649.862 C 368.963 649.131, 369.124 648.959, 369.845 649.405 C 371.280 650.291, 371.315 649.457, 369.950 646.906 C 369.372 645.827, 368.503 645.189, 368.019 645.488 C 367.535 645.788, 366.813 645.506, 366.415 644.862 C 365.963 644.131, 366.124 643.959, 366.845 644.405 C 368.673 645.534, 368.239 644.253, 364.562 637.662 C 346.858 605.931, 337.955 563.230, 340.968 524.500 C 342.779 501.219, 348.793 476.440, 357.054 458.220 C 358.707 454.576, 359.825 450.987, 359.541 450.245 C 359.256 449.503, 359.421 449.142, 359.907 449.442 C 360.393 449.743, 361.063 449.279, 361.395 448.412 C 362.320 446.002, 362.089 445.331, 360.909 447 C 359.966 448.333, 359.898 448.333, 360.299 447 C 360.547 446.175, 361.221 445.601, 361.797 445.724 C 363.075 445.998, 370.251 433.216, 369.501 432.002 C 369.208 431.527, 369.494 430.813, 370.138 430.415 C 370.939 429.920, 371.041 430.135, 370.463 431.095 C 369.742 432.292, 369.867 432.296, 371.308 431.128 C 373.261 429.544, 373.613 427.529, 371.750 428.601 C 371.024 429.019, 370.849 428.939, 371.333 428.410 C 371.792 427.910, 372.654 427.500, 373.250 427.500 C 373.846 427.500, 374.542 426.875, 374.796 426.111 C 375.113 425.161, 374.823 424.974, 373.880 425.521 C 373.065 425.993, 372.841 425.948, 373.333 425.410 C 373.792 424.910, 374.543 424.500, 375.002 424.500 C 375.871 424.500, 383 415.588, 383 414.501 C 383 414.161, 382.550 414.160, 382 414.500 C 380.372 415.506, 380.860 414.358, 382.692 412.872 C 384.151 411.689, 384.266 411.707, 383.531 413 C 383.061 413.825, 383.875 413.409, 385.339 412.076 C 388.561 409.140, 388.928 406.911, 385.750 409.579 C 384.512 410.619, 384.822 410.013, 386.437 408.234 C 389.585 404.768, 391.091 403.872, 388.932 406.750 C 388.210 407.712, 391.267 404.949, 395.724 400.609 C 400.517 395.942, 403.616 392.162, 403.307 391.359 C 403.021 390.611, 403.397 389.993, 404.143 389.985 C 405.190 389.973, 405.157 389.748, 404 389 C 402.057 387.744, 401.819 387.778, 393.137 390.546 M 538.784 390.738 C 541.689 390.941, 546.189 390.939, 548.784 390.734 C 551.378 390.528, 549 390.363, 543.500 390.365 C 538 390.368, 535.878 390.536, 538.784 390.738 M 541 392.064 C 521.275 393.173, 500.047 398.396, 485.649 405.681 C 482.981 407.032, 480.145 407.886, 479.347 407.580 C 478.549 407.273, 478.159 407.449, 478.481 407.969 C 479.251 409.215, 473.268 412.284, 471.816 411.386 C 471.162 410.982, 470.967 411.138, 471.352 411.760 C 471.719 412.354, 470.344 413.836, 468.256 415.095 C 466.190 416.341, 462.860 418.629, 460.856 420.180 C 456.295 423.710, 454.450 423.892, 458.500 420.412 L 461.500 417.835 458.192 420.026 C 456.373 421.232, 455.137 422.470, 455.445 422.778 C 456.153 423.486, 453.029 427, 451.690 427 C 451.140 427, 451.538 425.988, 452.574 424.750 C 453.610 423.512, 452.779 424.051, 450.729 425.946 C 446.662 429.705, 445.634 431.442, 449.250 428.446 C 450.488 427.420, 447.234 430.950, 442.020 436.291 C 432.954 445.576, 430.189 448.042, 433.097 444.250 C 433.835 443.288, 433.216 443.591, 431.720 444.924 C 428.891 447.446, 427.871 449.182, 430.500 447 C 431.337 446.306, 432 446.197, 432 446.755 C 432 448.023, 429.487 450.154, 428.800 449.467 C 428.517 449.184, 427.658 449.750, 426.893 450.726 C 425.626 452.339, 425.659 452.376, 427.250 451.128 C 429.414 449.430, 429.597 451.259, 427.442 453.048 C 426.586 453.759, 424.743 456.289, 423.347 458.670 C 421.952 461.052, 420.434 462.768, 419.974 462.484 C 419.514 462.200, 418.813 462.494, 418.415 463.138 C 417.963 463.869, 418.124 464.041, 418.845 463.595 C 419.480 463.203, 419.989 463.021, 419.975 463.191 C 419.891 464.231, 408.042 487.312, 408.010 486.500 C 407.959 485.231, 406.031 488.153, 406.031 489.500 C 406.031 490.050, 406.467 489.825, 407 489 C 408.511 486.663, 408.218 488.199, 405.052 499.229 C 400.760 514.183, 399.685 524.576, 400.275 545.432 C 400.698 560.421, 401.227 565.246, 403.376 573.744 C 407.755 591.063, 415.536 609.113, 424.076 621.767 C 427.289 626.528, 427.634 627.483, 425.750 626.399 C 425.024 625.981, 424.849 626.061, 425.333 626.590 C 425.792 627.090, 426.654 627.500, 427.250 627.500 C 427.846 627.500, 428.542 628.125, 428.796 628.889 C 429.077 629.732, 428.815 630.004, 428.130 629.580 C 426.398 628.510, 426.788 629.583, 428.692 631.128 C 430.151 632.311, 430.262 632.294, 429.500 631 C 428.738 629.706, 428.849 629.689, 430.308 630.872 C 432.257 632.453, 432.621 634.497, 430.750 633.355 C 428.481 631.970, 437.722 642.380, 444.638 649 C 448.373 652.575, 450.587 654.487, 449.559 653.250 C 446.665 649.766, 449.256 650.596, 452.563 654.212 C 454.178 655.978, 454.600 656.779, 453.500 655.992 C 451.993 654.913, 452.098 655.231, 453.924 657.280 C 456.446 660.109, 458.182 661.129, 456 658.500 C 455.306 657.663, 455.197 657, 455.755 657 C 457.056 657, 459.145 659.521, 458.434 660.233 C 458.132 660.535, 459.373 661.768, 461.192 662.974 L 464.500 665.165 461.500 662.588 C 459.850 661.170, 458.856 660.008, 459.290 660.005 C 460.722 659.996, 465.932 664.301, 465.444 665.090 C 465.182 665.514, 465.494 666.187, 466.138 666.585 C 466.912 667.063, 467.040 666.873, 466.515 666.025 C 465.986 665.169, 466.185 664.895, 467.111 665.204 C 467.875 665.458, 468.500 666.154, 468.500 666.750 C 468.500 667.346, 468.910 668.208, 469.410 668.667 C 469.948 669.159, 469.993 668.935, 469.521 668.120 C 468.581 666.498, 468.599 666.505, 477 670.966 C 494.913 680.480, 508.505 685.209, 527.440 688.517 C 535.471 689.920, 540.942 690.148, 555.940 689.705 C 575.364 689.131, 580.708 688.209, 598.226 682.410 C 602.475 681.003, 606.482 680.180, 607.130 680.580 C 607.920 681.068, 608.041 680.876, 607.498 679.997 C 606.896 679.023, 607.233 678.828, 608.809 679.240 C 609.977 679.545, 610.835 679.439, 610.716 679.003 C 610.522 678.292, 625.082 670, 626.524 670 C 626.851 670, 626.794 670.563, 626.399 671.250 C 625.981 671.976, 626.061 672.151, 626.590 671.667 C 627.090 671.208, 627.500 670.346, 627.500 669.750 C 627.500 669.154, 628.125 668.458, 628.889 668.204 C 629.839 667.887, 630.026 668.177, 629.479 669.120 C 629.007 669.935, 629.052 670.159, 629.590 669.667 C 630.090 669.208, 630.500 668.346, 630.500 667.750 C 630.500 667.154, 631.125 666.458, 631.889 666.204 C 632.839 665.887, 633.026 666.177, 632.479 667.120 C 632.007 667.935, 632.052 668.159, 632.590 667.667 C 633.090 667.208, 633.500 666.346, 633.500 665.750 C 633.500 665.154, 634.125 664.458, 634.889 664.204 C 635.839 663.887, 636.026 664.177, 635.479 665.120 C 635.007 665.935, 635.052 666.159, 635.590 665.667 C 636.090 665.208, 636.500 664.346, 636.500 663.750 C 636.500 663.154, 637.125 662.458, 637.889 662.204 C 638.850 661.883, 639.022 662.166, 638.447 663.120 C 637.750 664.278, 637.893 664.276, 639.332 663.107 C 640.276 662.342, 640.811 661.478, 640.522 661.189 C 639.838 660.505, 643.007 657, 644.310 657 C 644.860 657, 644.453 657.998, 643.405 659.217 C 639.565 663.686, 651.712 652.930, 658.500 645.851 C 662.350 641.836, 664.263 639.630, 662.750 640.950 C 661.237 642.269, 660 642.899, 660 642.349 C 660 641.046, 664.492 636.826, 665.164 637.497 C 665.447 637.780, 666.539 637.005, 667.589 635.773 C 669.136 633.961, 669.167 633.793, 667.750 634.890 C 666.697 635.705, 666 635.822, 666 635.181 C 666 634.597, 666.457 633.835, 667.016 633.490 C 669.004 632.261, 677.819 618.321, 682.496 609.008 C 688.314 597.423, 694.280 579.703, 696.638 567 C 699.330 552.494, 699.057 522.983, 696.100 509 C 693.173 495.158, 689.002 482.830, 682.946 470.121 C 677.554 458.807, 677.461 458.549, 679.155 459.595 C 679.876 460.041, 680.037 459.869, 679.585 459.138 C 679.187 458.494, 678.486 458.200, 678.026 458.484 C 676.951 459.149, 671.715 450.270, 672.466 449.055 C 672.778 448.551, 672.506 447.813, 671.862 447.415 C 671.061 446.920, 670.959 447.135, 671.537 448.095 C 672.258 449.292, 672.133 449.296, 670.692 448.128 C 668.739 446.544, 668.387 444.529, 670.250 445.601 C 670.976 446.019, 671.151 445.939, 670.667 445.410 C 670.208 444.910, 669.346 444.500, 668.750 444.500 C 668.154 444.500, 667.458 443.875, 667.204 443.111 C 666.886 442.157, 667.173 441.976, 668.120 442.533 C 668.879 442.979, 668.643 442.366, 667.595 441.172 C 665.321 438.579, 664.187 438.260, 666.097 440.750 C 666.835 441.712, 666.216 441.409, 664.720 440.076 C 661.744 437.423, 660.927 434.924, 663.750 437.110 C 665.175 438.214, 665.146 438.050, 663.595 436.233 C 661.514 433.794, 660.454 433.269, 661.613 435.250 C 662.015 435.938, 661.366 435.643, 660.172 434.595 C 657.590 432.330, 657.229 430.175, 659.750 432.073 C 660.712 432.798, 659.040 430.828, 656.034 427.696 C 650.687 422.123, 649.177 420.860, 650.580 423.130 C 651.004 423.815, 650.732 424.077, 649.889 423.796 C 649.125 423.542, 648.500 422.733, 648.500 422 C 648.500 421.267, 647.825 420.482, 647 420.257 C 645.958 419.973, 645.862 420.106, 646.686 420.694 C 647.371 421.182, 644.752 421.491, 640.488 421.425 C 636.190 421.359, 633.187 421.716, 633.302 422.281 C 633.411 422.814, 632.875 423.477, 632.111 423.755 C 631.145 424.106, 630.975 423.839, 631.553 422.880 C 632.232 421.752, 632.065 421.759, 630.637 422.918 C 629.677 423.698, 628.435 425.273, 627.878 426.418 C 627.095 428.028, 627.329 427.934, 628.911 426 C 631.503 422.830, 631.529 423.540, 629 428.500 C 627.769 430.914, 627 431.701, 627 430.545 C 627 429.512, 626.755 428.912, 626.455 429.212 C 625.661 430.006, 628.003 439.104, 629.705 441.837 C 630.505 443.122, 630.907 444.426, 630.598 444.736 C 630.289 445.045, 629.137 443.318, 628.040 440.899 C 626.942 438.480, 626.034 437.085, 626.022 437.800 C 625.983 440.076, 628.715 444.404, 632.145 447.500 C 633.973 449.150, 634.619 449.488, 633.579 448.250 C 630.455 444.530, 633.318 445.717, 637.297 449.792 C 641.345 453.937, 642.354 456.452, 638.750 453.412 C 636.724 451.703, 636.741 451.787, 638.924 454.257 C 641.488 457.157, 642.607 457.835, 641.387 455.750 C 640.985 455.063, 641.634 455.357, 642.828 456.405 C 645.406 458.666, 645.781 460.857, 643.250 458.872 C 641.666 457.630, 641.630 457.665, 642.863 459.239 C 643.613 460.195, 644.601 460.746, 645.060 460.463 C 645.518 460.180, 647.042 461.639, 648.446 463.706 C 651.228 467.800, 651.707 469.525, 649.750 468.399 C 649.024 467.981, 648.849 468.061, 649.333 468.590 C 649.792 469.090, 650.692 469.500, 651.333 469.500 C 652.887 469.500, 662.296 488.542, 665.480 498.130 C 673.977 523.721, 674.385 557.714, 666.445 578.506 C 665.509 580.956, 664.393 582.743, 663.965 582.478 C 663.537 582.214, 663.393 582.788, 663.646 583.755 C 664.309 586.289, 659.258 597.277, 657.835 596.398 C 657.120 595.956, 656.965 596.135, 657.423 596.875 C 658.618 598.809, 646.782 617.602, 645.045 616.528 C 644.617 616.264, 643.420 617.049, 642.384 618.274 L 640.500 620.500 642.750 618.595 C 643.987 617.547, 645 617.107, 645 617.617 C 645 618.127, 641.288 622.208, 636.750 626.686 C 620.857 642.371, 604.366 652.070, 583.500 658.007 C 573.970 660.718, 570.362 661.212, 556.500 661.704 C 531.559 662.589, 515.786 659.512, 496.477 649.995 C 486.847 645.248, 472.105 635.400, 472.034 633.666 C 472.015 633.207, 473.800 634.258, 476 636 C 481.842 640.627, 480.892 639.057, 474.750 633.934 C 471.863 631.526, 470.118 630.330, 470.872 631.278 C 471.627 632.225, 471.841 633, 471.347 633 C 470.210 633, 456 618.745, 456 617.604 C 456 617.137, 456.788 617.359, 457.750 618.097 C 458.712 618.835, 458.409 618.216, 457.076 616.720 C 454.350 613.662, 453.110 613.086, 454.989 615.750 C 455.668 616.712, 454.598 615.738, 452.612 613.583 C 450.625 611.429, 449.002 609.179, 449.005 608.583 C 449.008 607.988, 450.170 608.850, 451.588 610.500 L 454.165 613.500 452.028 610.268 C 450.852 608.491, 449.408 607.141, 448.820 607.268 C 448.231 607.396, 447.523 606.875, 447.245 606.111 C 446.907 605.179, 447.163 604.983, 448.025 605.515 C 448.873 606.040, 449.063 605.912, 448.585 605.138 C 448.187 604.494, 447.465 604.212, 446.981 604.512 C 445.775 605.257, 443.738 601.233, 444.608 599.825 C 445.045 599.119, 444.861 598.968, 444.122 599.424 C 442.322 600.537, 433.456 580.884, 430.522 569.277 C 423.743 542.462, 426.208 514.070, 437.356 490.536 C 441.616 481.542, 450.183 467.623, 452.241 466.351 C 452.909 465.938, 453.013 466.170, 452.519 466.970 C 452.084 467.673, 456.402 463.575, 462.114 457.863 C 467.826 452.151, 476.100 445.076, 480.500 442.140 C 484.900 439.203, 488.725 436.560, 489 436.265 C 490.279 434.894, 483.853 438.718, 478 442.812 C 474.425 445.312, 472.381 446.351, 473.458 445.120 C 476.236 441.946, 488.015 434.788, 498.215 430.075 C 509.648 424.793, 524.471 421.087, 540.500 419.503 C 547.650 418.796, 554.361 417.867, 555.414 417.439 C 556.862 416.850, 557.129 416.982, 556.510 417.985 C 555.961 418.872, 556.077 419.070, 556.862 418.585 C 557.506 418.187, 557.805 417.494, 557.527 417.044 C 556.989 416.173, 558.942 414.171, 560.333 414.168 C 560.792 414.167, 561.467 413.832, 561.833 413.423 C 562.200 413.014, 561.861 413.050, 561.080 413.504 C 559.956 414.156, 559.850 413.929, 560.572 412.414 C 561.073 411.361, 561.487 407.729, 561.491 404.343 C 561.496 400.833, 561.855 398.684, 562.326 399.343 C 562.881 400.120, 563.018 400.007, 562.743 399 C 562.518 398.175, 561.894 397.500, 561.358 397.500 C 559.522 397.500, 553.974 392.179, 555.266 391.657 C 555.945 391.382, 556.050 391.191, 555.500 391.231 C 554.950 391.271, 548.425 391.646, 541 392.064 M 395.966 397.750 L 390.500 403.500 396.250 398.034 C 401.592 392.956, 402.458 392, 401.716 392 C 401.560 392, 398.972 394.587, 395.966 397.750 M 420.827 403.774 C 413.884 409.860, 402 422.351, 402 423.563 C 402 423.831, 406.613 419.377, 412.250 413.666 C 417.887 407.955, 424.290 401.869, 426.478 400.141 C 428.666 398.414, 430.016 397.011, 429.478 397.024 C 428.940 397.037, 425.047 400.075, 420.827 403.774 M 674.083 407.386 C 675.100 408.329, 699 419.963, 699 419.515 C 699 418.963, 675.438 407, 674.349 407 C 673.974 407, 673.854 407.174, 674.083 407.386 M 542.750 420.723 C 544.538 420.945, 547.462 420.945, 549.250 420.723 C 551.038 420.502, 549.575 420.320, 546 420.320 C 542.425 420.320, 540.962 420.502, 542.750 420.723 M 439.469 436.250 L 433.500 442.500 439.750 436.531 C 445.556 430.987, 446.458 430, 445.719 430 C 445.564 430, 442.751 432.813, 439.469 436.250 M 461.531 455.969 C 456.621 460.901, 452.806 465.074, 453.052 465.242 C 453.298 465.409, 457.657 461.373, 462.738 456.273 C 467.819 451.173, 471.635 447, 471.217 447 C 470.800 447, 466.441 451.036, 461.531 455.969 M 609.448 482 C 609.448 500.425, 609.583 507.962, 609.748 498.750 C 609.913 489.538, 609.913 474.462, 609.748 465.250 C 609.583 456.038, 609.448 463.575, 609.448 482 M 230.500 457.477 C 228.300 459.373, 226.974 460.942, 227.554 460.962 C 228.133 460.983, 230.134 459.425, 232 457.500 C 236.314 453.050, 235.649 453.040, 230.500 457.477 M 541 455.154 C 537.425 455.649, 532.700 455.837, 530.500 455.571 C 527.939 455.262, 527.214 455.376, 528.483 455.889 C 530.122 456.551, 529.775 456.818, 526.483 457.429 C 515.715 459.428, 499.840 468.196, 490.004 477.578 C 486.881 480.556, 484.100 482.767, 483.824 482.490 C 483.547 482.214, 482.461 482.968, 481.411 484.166 C 480.360 485.364, 480.063 486.015, 480.750 485.613 C 481.438 485.211, 482 485.332, 482 485.882 C 482 486.883, 480.087 488.456, 478.833 488.485 C 478.467 488.493, 477.792 488.910, 477.333 489.410 C 476.841 489.948, 477.065 489.993, 477.880 489.521 C 478.823 488.974, 479.113 489.161, 478.796 490.111 C 478.542 490.875, 477.846 491.500, 477.250 491.500 C 476.654 491.500, 475.792 491.910, 475.333 492.410 C 474.841 492.948, 475.065 492.993, 475.880 492.521 C 476.823 491.974, 477.113 492.161, 476.796 493.111 C 476.542 493.875, 475.846 494.500, 475.250 494.500 C 474.654 494.500, 473.792 494.910, 473.333 495.410 C 472.849 495.939, 473.024 496.019, 473.750 495.601 C 475.536 494.574, 475.424 494.912, 471.103 503.634 C 465.670 514.601, 463.823 523.716, 463.835 539.500 C 463.847 554.067, 465.607 562.765, 470.908 574.457 C 472.596 578.181, 473.688 581.696, 473.334 582.268 C 472.980 582.841, 473.156 583.022, 473.723 582.671 C 474.759 582.031, 480.555 589.778, 479.689 590.644 C 479.436 590.898, 478.240 589.507, 477.033 587.553 C 474.350 583.212, 473.171 582.784, 475.693 587.067 C 477.557 590.231, 482.165 594.960, 480.500 592 C 479.966 591.050, 480.453 591.199, 481.828 592.405 C 484.410 594.670, 484.770 596.823, 482.250 594.932 C 481.288 594.209, 483.842 597.057, 487.926 601.259 C 492.010 605.462, 495.749 608.655, 496.234 608.355 C 497.385 607.644, 505.119 612.999, 504.466 614.055 C 504.192 614.499, 504.494 615.187, 505.138 615.585 C 505.869 616.037, 506.041 615.876, 505.595 615.155 C 504.709 613.720, 505.543 613.685, 508.094 615.050 C 509.173 615.628, 509.851 616.431, 509.601 616.836 C 509.351 617.240, 509.901 617.627, 510.823 617.695 C 511.746 617.764, 517 619.408, 522.500 621.351 C 537.024 626.479, 553.995 628.304, 566 626.028 C 575.268 624.271, 578.599 623.917, 576.500 624.911 C 573.934 626.128, 576.686 626.209, 579.500 625 C 580.871 624.411, 581.028 624.105, 580 624.028 C 579.175 623.966, 580.975 622.881, 584 621.618 C 591.778 618.368, 597.998 615.093, 601.594 612.356 C 605.246 609.575, 606.803 609.288, 604.872 611.750 C 603.624 613.341, 603.661 613.374, 605.274 612.107 C 606.250 611.342, 606.816 610.483, 606.533 610.200 C 605.846 609.513, 607.977 607, 609.245 607 C 609.795 607, 609.635 607.788, 608.890 608.750 C 607.762 610.206, 607.906 610.184, 609.744 608.616 C 610.959 607.580, 611.759 606.419, 611.523 606.037 C 611.286 605.654, 613.635 602.901, 616.742 599.920 C 622.584 594.315, 622.260 595.526, 616.054 602.486 C 613.386 605.479, 613.210 605.853, 615.350 603.986 C 618.617 601.135, 625.133 593.185, 623.250 594.347 C 621.378 595.502, 621.744 593.453, 623.692 591.872 C 624.842 590.940, 625.143 590.901, 624.633 591.750 C 623.538 593.572, 624.529 593.279, 626.128 591.308 C 627.292 589.872, 627.291 589.742, 626.120 590.447 C 625.166 591.022, 624.883 590.850, 625.204 589.889 C 625.458 589.125, 626.154 588.500, 626.750 588.500 C 627.346 588.500, 628.208 588.090, 628.667 587.590 C 629.151 587.061, 628.976 586.981, 628.250 587.399 C 626.514 588.398, 626.676 587.664, 629.098 583.559 C 630.252 581.603, 631.671 580.297, 632.252 580.656 C 632.887 581.048, 633.012 580.829, 632.566 580.108 C 632.158 579.447, 632.712 577.015, 633.797 574.703 C 639.453 562.654, 642.795 543.183, 641.040 532.500 C 640.225 527.533, 639.433 525.925, 636.443 523.159 C 633.207 520.166, 632.346 519.861, 628.166 520.232 C 625.600 520.459, 622.639 521.027, 621.586 521.493 C 620.084 522.157, 619.850 522.034, 620.496 520.920 C 620.985 520.078, 620.950 519.839, 620.410 520.333 C 619.910 520.792, 619.480 521.692, 619.455 522.333 C 619.430 522.975, 618.910 523.402, 618.300 523.282 C 617.691 523.162, 616.586 523.811, 615.846 524.724 C 614.899 525.892, 614.870 526.161, 615.750 525.633 C 617.326 524.686, 617.317 524.850, 615.500 530 C 614.675 532.338, 614 537.250, 614 540.916 C 614 544.581, 613.305 550.262, 612.455 553.540 C 610.578 560.782, 604.941 572.500, 603.333 572.500 C 602.692 572.500, 601.792 572.910, 601.333 573.410 C 600.849 573.939, 601.024 574.019, 601.750 573.601 C 603.510 572.588, 603.311 574.497, 601.500 576 C 600.675 576.685, 600 576.916, 600 576.515 C 600 576.113, 597.188 578.393, 593.750 581.582 C 590.313 584.771, 587.611 587.739, 587.746 588.179 C 588.137 589.447, 574.936 595.703, 568.169 597.456 C 560.315 599.491, 548.508 599.563, 539.276 597.630 C 530.847 595.866, 524.744 593.223, 525.663 591.736 C 526.033 591.137, 525.828 590.988, 525.184 591.386 C 523.773 592.259, 517.738 589.233, 518.484 588.027 C 518.786 587.538, 518.506 586.813, 517.862 586.415 C 517.131 585.963, 516.959 586.124, 517.405 586.845 C 518.518 588.648, 516.407 588.200, 514.872 586.308 C 513.689 584.850, 513.707 584.733, 515 585.463 C 515.825 585.928, 515.178 584.890, 513.563 583.155 C 511.948 581.420, 510.407 580, 510.139 580 C 509.871 580, 510.708 581.125, 512 582.500 C 515.944 586.698, 512.860 585.279, 508.288 580.792 C 503.840 576.427, 502.297 573.248, 506.250 576.595 L 508.500 578.500 506.616 576.274 C 505.580 575.049, 504.389 574.260, 503.968 574.520 C 502.654 575.332, 497.097 565.634, 494.444 557.898 C 491.095 548.135, 490.291 536.609, 492.350 527.878 C 494.285 519.672, 498.629 509.653, 499.908 510.443 C 500.433 510.767, 501.187 510.506, 501.585 509.862 C 502.037 509.131, 501.876 508.959, 501.155 509.405 C 499.078 510.688, 499.942 508.175, 502.564 505.306 L 505.127 502.500 503.427 505.284 C 502.491 506.814, 505.034 504.789, 509.076 500.784 C 513.119 496.778, 516.333 493.170, 516.219 492.767 C 515.640 490.723, 531.922 484.520, 540.667 483.453 C 547.433 482.628, 553.454 479.889, 555.048 476.911 C 555.661 475.766, 556.423 475.089, 556.742 475.408 C 557.543 476.209, 554.114 479.907, 550.500 482.139 C 548.850 483.159, 548.061 483.994, 548.747 483.996 C 549.433 483.998, 551.777 482.389, 553.956 480.421 C 557.345 477.359, 557.849 476.383, 557.440 473.671 C 557.039 471.014, 557.130 470.824, 557.996 472.500 C 558.833 474.118, 558.895 473.927, 558.321 471.500 C 557.931 469.850, 557.586 467.080, 557.556 465.345 C 557.525 463.611, 557.132 462.418, 556.683 462.696 C 556.234 462.974, 556.009 462.378, 556.183 461.373 C 556.357 460.367, 555.975 459.535, 555.333 459.522 C 553.862 459.494, 552.500 458.162, 552.500 456.750 C 552.500 456.154, 551.825 455.482, 551 455.257 C 549.667 454.893, 549.667 454.978, 551 456.018 C 552.275 457.013, 552.225 457.100, 550.668 456.594 C 549.661 456.267, 548.311 455.993, 547.668 455.985 C 546.998 455.976, 547.139 455.556, 548 455 C 548.825 454.467, 549.050 454.081, 548.500 454.142 C 547.950 454.203, 544.575 454.659, 541 455.154 M 354.133 460.133 C 352.949 462.983, 352.145 465.479, 352.347 465.680 C 352.549 465.882, 353.683 463.716, 354.867 460.867 C 356.051 458.017, 356.855 455.521, 356.653 455.320 C 356.451 455.118, 355.317 457.284, 354.133 460.133 M 500.878 466.847 C 496.820 469.513, 492.600 472.765, 491.500 474.074 C 490.106 475.731, 490.601 475.515, 493.132 473.360 C 495.130 471.660, 499.517 468.569, 502.882 466.492 C 508.366 463.107, 509.782 462, 508.628 462 C 508.424 462, 504.936 464.181, 500.878 466.847 M 260 470.117 L 253.500 476.200 259.755 470.997 C 265.313 466.374, 267.745 463.967, 266.809 464.016 C 266.639 464.025, 263.575 466.771, 260 470.117 M 448.218 473.250 C 444.568 478.640, 443.779 480, 444.299 480 C 444.529 480, 446.360 477.525, 448.369 474.500 C 450.377 471.475, 451.812 469, 451.558 469 C 451.304 469, 449.801 470.913, 448.218 473.250 M 205.483 481.250 L 194.500 492.500 205.750 481.517 C 216.199 471.316, 217.454 470, 216.733 470 C 216.586 470, 211.524 475.063, 205.483 481.250 M 440.450 486.099 C 439.028 488.904, 438.033 491.367, 438.238 491.571 C 438.443 491.776, 439.818 489.482, 441.295 486.472 C 442.771 483.462, 443.766 481, 443.506 481 C 443.246 481, 441.871 483.295, 440.450 486.099 M 230.479 497.250 L 221.500 506.500 230.750 497.521 C 239.341 489.181, 240.455 488, 239.729 488 C 239.580 488, 235.418 492.163, 230.479 497.250 M 509.473 497.395 C 506.738 499.812, 504.725 502.019, 505 502.299 C 505.275 502.578, 507.894 500.601, 510.820 497.904 C 517.426 491.814, 516.278 491.380, 509.473 497.395 M 818.481 509.807 C 823.971 515.413, 828.630 520, 828.835 520 C 829.671 520, 822.716 512.707, 815.837 506.372 C 810.106 501.093, 810.684 501.845, 818.481 509.807 M 543.500 516.496 C 546.044 517.357, 554.156 517.712, 552.885 516.908 C 552.123 516.425, 549.475 516.059, 547 516.094 C 544.525 516.129, 542.950 516.310, 543.500 516.496 M 635.692 520.954 C 637.447 522.024, 639.567 524.160, 640.402 525.700 C 641.237 527.240, 641.938 527.893, 641.960 527.150 C 642.011 525.415, 635.623 518.999, 633.850 519.004 C 633.107 519.006, 633.936 519.883, 635.692 520.954 M 398.343 530.500 C 398.346 534.900, 398.522 536.576, 398.733 534.224 C 398.945 531.872, 398.942 528.272, 398.727 526.224 C 398.512 524.176, 398.339 526.100, 398.343 530.500 M 700.374 539.500 C 700.376 545.550, 700.541 547.896, 700.740 544.713 C 700.939 541.531, 700.937 536.581, 700.736 533.713 C 700.535 530.846, 700.372 533.450, 700.374 539.500 M 612.328 539.500 C 612.333 543.350, 612.513 544.802, 612.730 542.728 C 612.946 540.653, 612.943 537.503, 612.722 535.728 C 612.501 533.952, 612.324 535.650, 612.328 539.500 M 398.349 548 C 398.349 552.675, 398.522 554.587, 398.732 552.250 C 398.943 549.913, 398.943 546.087, 398.732 543.750 C 398.522 541.413, 398.349 543.325, 398.349 548 M 884.175 545.800 C 884.079 548.164, 883.313 551.427, 882.474 553.050 C 881.635 554.672, 881.174 556, 881.449 556 C 882.970 556, 885.067 549.414, 884.729 545.694 L 884.349 541.500 884.175 545.800 M 364.118 564.083 C 364.183 565.962, 364.603 568.850, 365.051 570.500 C 365.587 572.473, 365.674 571.445, 365.308 567.500 C 364.693 560.887, 363.932 558.702, 364.118 564.083 M 821.082 579.254 L 805.664 595.500 819.401 582 C 831.184 570.419, 837.997 562.989, 836.818 563.004 C 836.643 563.006, 829.562 570.319, 821.082 579.254 M 593.703 582.594 C 590.515 585.567, 588.265 587.995, 588.703 587.989 C 589.925 587.972, 600.569 578.275, 600 577.697 C 599.725 577.417, 596.892 579.621, 593.703 582.594 M 216 582.572 C 216 583.873, 225.797 593.536, 226.452 592.881 C 226.726 592.607, 224.487 589.950, 221.475 586.976 C 218.464 584.002, 216 582.020, 216 582.572 M 438 587.367 C 438 588.450, 442.970 598, 443.534 598 C 443.809 598, 442.847 595.638, 441.397 592.750 C 438.607 587.197, 438 586.235, 438 587.367 M 489.469 601.788 C 492.751 605.204, 495.601 608, 495.802 608 C 496.773 608, 494.988 606.027, 489.500 601.034 L 483.500 595.576 489.469 601.788 M 548.250 597.735 C 550.862 597.941, 555.138 597.941, 557.750 597.735 C 560.362 597.529, 558.225 597.360, 553 597.360 C 547.775 597.360, 545.638 597.529, 548.250 597.735 M 649.177 609.250 C 646.792 612.794, 646.168 614.126, 647.736 612.326 C 650.465 609.192, 654.457 603, 653.747 603 C 653.546 603, 651.489 605.813, 649.177 609.250 M 244.500 608.885 C 246.150 610.674, 250.875 614.854, 255 618.172 C 262.893 624.522, 260.242 621.883, 248.500 611.701 C 244.650 608.362, 242.850 607.095, 244.500 608.885 M 673.120 627.250 C 670.403 631.223, 669.942 632.225, 671.853 630 C 674.816 626.553, 678.456 621, 677.753 621 C 677.556 621, 675.470 623.813, 673.120 627.250 M 549.250 628.728 C 551.313 628.944, 554.688 628.944, 556.750 628.728 C 558.813 628.513, 557.125 628.336, 553 628.336 C 548.875 628.336, 547.188 628.513, 549.250 628.728 M 434.836 637.750 C 436.488 639.813, 440.204 643.750, 443.093 646.500 C 446.681 649.915, 445.847 648.726, 440.461 642.750 C 432.188 633.570, 429.756 631.408, 434.836 637.750 M 652 650.173 C 647.875 654.066, 645.400 656.778, 646.500 656.198 C 648.406 655.195, 660.948 642.948, 659.969 643.047 C 659.711 643.073, 656.125 646.280, 652 650.173 M 299.235 651.226 C 302.204 653.750, 308 657.368, 308 656.698 C 308 656.470, 305.413 654.622, 302.250 652.592 C 299.087 650.562, 297.731 649.947, 299.235 651.226 M 412 666.792 C 412 667.667, 419.350 674.813, 422.500 677 C 423.600 677.763, 421.814 675.601, 418.531 672.194 C 412.327 665.755, 412 665.485, 412 666.792 M 397.500 685 C 400.766 688.300, 403.662 691, 403.937 691 C 404.212 691, 401.766 688.300, 398.500 685 C 395.234 681.700, 392.338 679, 392.063 679 C 391.788 679, 394.234 681.700, 397.500 685 M 692 712 C 686.775 714.694, 682.846 716.921, 683.270 716.949 C 684.333 717.019, 702 708.097, 702 707.490 C 702 706.810, 702.518 706.577, 692 712 M 344 711.500 C 347.575 713.372, 350.950 714.903, 351.500 714.903 C 352.050 714.903, 349.575 713.372, 346 711.500 C 342.425 709.628, 339.050 708.097, 338.500 708.097 C 337.950 708.097, 340.425 709.628, 344 711.500 M 534.750 721.743 C 538.737 721.932, 545.263 721.932, 549.250 721.743 C 553.237 721.553, 549.975 721.397, 542 721.397 C 534.025 721.397, 530.763 721.553, 534.750 721.743 M 504.728 753.722 C 506.503 753.943, 509.653 753.946, 511.728 753.730 C 513.802 753.513, 512.350 753.333, 508.500 753.328 C 504.650 753.324, 502.952 753.501, 504.728 753.722" stroke="none" fill="#1458ba" fill-rule="evenodd"/></svg>